<svg width="475" height="346" viewBox="0 0 475 346" fill="none" xmlns="http://www.w3.org/2000/svg">
<path d="M293.09 334.62L379.91 141.76" stroke="#FBB924" stroke-width="3.685" stroke-miterlimit="10"/>
<path d="M84.88 142.22L293.09 227.22L171.26 227.71L379.88 142.22" stroke="#E62139" stroke-width="3.685" stroke-miterlimit="10"/>
<path d="M84.88 142.22H379.88" stroke="#E62139" stroke-width="3.685" stroke-miterlimit="10"/>
<path d="M295.62 334.62H291.28V230.39L379.91 141.76L382.98 144.83L295.62 232.19V334.62Z" fill="#FBB924"/>
<path d="M246.18 74.77H143.77V78.39H246.18V74.77Z" fill="#035B82"/>
<path d="M310.749 9.45573L244.889 75.3149L247.449 77.8746L313.308 12.0154L310.749 9.45573Z" fill="#035B82"/>
<path d="M246.18 85.4902C251.101 85.4902 255.09 81.501 255.09 76.5802C255.09 71.6593 251.101 67.6702 246.18 67.6702C241.259 67.6702 237.27 71.6593 237.27 76.5802C237.27 81.501 241.259 85.4902 246.18 85.4902Z" fill="#035B82"/>
<path d="M246.18 87.2901C240.27 87.2901 235.46 82.4801 235.46 76.5701C235.46 70.6601 240.27 65.8501 246.18 65.8501C252.09 65.8501 256.9 70.6601 256.9 76.5701C256.9 82.4901 252.09 87.2901 246.18 87.2901ZM246.18 69.4801C242.26 69.4801 239.08 72.6701 239.08 76.5801C239.08 80.5001 242.27 83.6801 246.18 83.6801C250.09 83.6801 253.28 80.4901 253.28 76.5801C253.28 72.6601 250.1 69.4801 246.18 69.4801Z" fill="white"/>
<path d="M228.669 91.0958L229.125 91.0718C229.381 91.0558 229.661 91.0398 229.965 91.0238C230.269 90.9998 230.621 90.9878 231.021 90.9878C231.949 90.9878 232.613 91.1198 233.013 91.3838C233.421 91.6398 233.625 92.0238 233.625 92.5358C233.625 92.8158 233.525 93.0998 233.325 93.3878C233.133 93.6678 232.825 93.8718 232.401 93.9998V94.1318C232.929 94.2358 233.305 94.4118 233.529 94.6598C233.761 94.9078 233.877 95.2358 233.877 95.6438C233.877 96.2758 233.617 96.7438 233.097 97.0478C232.577 97.3438 231.793 97.4918 230.745 97.4918C230.393 97.4918 230.061 97.4798 229.749 97.4558C229.437 97.4398 229.133 97.4198 228.837 97.3958C228.805 97.3958 228.777 97.3958 228.753 97.3958C228.729 97.3878 228.701 97.3838 228.669 97.3838V91.0958ZM229.773 96.5318C229.949 96.5558 230.121 96.5758 230.289 96.5918C230.457 96.5998 230.665 96.6038 230.913 96.6038C231.545 96.6038 232.001 96.5238 232.281 96.3638C232.561 96.1958 232.701 95.9238 232.701 95.5478C232.701 95.3958 232.673 95.2558 232.617 95.1278C232.561 94.9998 232.469 94.8918 232.341 94.8038C232.213 94.7158 232.037 94.6478 231.813 94.5998C231.597 94.5438 231.329 94.5158 231.009 94.5158H229.773V96.5318ZM231.141 93.7598C231.317 93.7598 231.485 93.7358 231.645 93.6878C231.805 93.6398 231.949 93.5718 232.077 93.4838C232.205 93.3958 232.305 93.2958 232.377 93.1838C232.457 93.0638 232.497 92.9358 232.497 92.7998C232.497 92.4638 232.381 92.2318 232.149 92.1038C231.925 91.9678 231.537 91.8998 230.985 91.8998C230.801 91.8998 230.613 91.9078 230.421 91.9238C230.237 91.9318 230.021 91.9398 229.773 91.9478V93.7598H231.141ZM237.609 95.0798L237.981 96.2918H238.137L238.437 95.0678L239.745 91.0958H240.873L238.809 96.7958C238.657 97.1878 238.501 97.5678 238.341 97.9358C238.189 98.3038 238.017 98.6278 237.825 98.9078C237.641 99.1958 237.433 99.4238 237.201 99.5918C236.977 99.7678 236.717 99.8558 236.421 99.8558C236.101 99.8558 235.829 99.8198 235.605 99.7478L235.785 98.8118C235.905 98.8518 236.025 98.8718 236.145 98.8718C236.305 98.8718 236.449 98.8518 236.577 98.8118C236.713 98.7718 236.837 98.6998 236.949 98.5958C237.061 98.4918 237.161 98.3438 237.249 98.1518C237.345 97.9678 237.433 97.7278 237.513 97.4318L234.693 91.0958H236.001L237.609 95.0798ZM245.656 92.0318H243.616L243.592 92.3918C243.536 93.1838 243.468 93.8958 243.388 94.5278C243.316 95.1518 243.208 95.6838 243.064 96.1238C242.92 96.5558 242.728 96.8878 242.488 97.1198C242.248 97.3438 241.936 97.4558 241.552 97.4558C241.376 97.4558 241.22 97.4438 241.084 97.4198C240.948 97.4038 240.832 97.3758 240.736 97.3358L240.904 96.3278C241.008 96.3598 241.124 96.3758 241.252 96.3758C241.444 96.3758 241.616 96.3078 241.768 96.1718C241.92 96.0278 242.052 95.7638 242.164 95.3798C242.276 94.9958 242.368 94.4598 242.44 93.7718C242.512 93.0838 242.564 92.1918 242.596 91.0958H246.76V97.3958H245.656V92.0318ZM248.44 96.7838C248.44 96.5518 248.512 96.3678 248.656 96.2318C248.808 96.0958 249.004 96.0278 249.244 96.0278C249.484 96.0278 249.676 96.0958 249.82 96.2318C249.972 96.3678 250.048 96.5518 250.048 96.7838C250.048 96.9998 249.972 97.1798 249.82 97.3238C249.676 97.4678 249.484 97.5398 249.244 97.5398C249.004 97.5398 248.808 97.4678 248.656 97.3238C248.512 97.1798 248.44 96.9998 248.44 96.7838ZM260.812 97.0358C260.548 97.2278 260.212 97.3598 259.804 97.4318C259.396 97.5118 258.964 97.5518 258.508 97.5518C257.972 97.5518 257.46 97.4678 256.972 97.2998C256.492 97.1238 256.068 96.8598 255.7 96.5078C255.332 96.1478 255.04 95.6958 254.824 95.1518C254.608 94.5998 254.5 93.9478 254.5 93.1958C254.5 92.4118 254.62 91.7438 254.86 91.1918C255.1 90.6398 255.412 90.1918 255.796 89.8478C256.18 89.4958 256.612 89.2398 257.092 89.0798C257.572 88.9198 258.048 88.8398 258.52 88.8398C259.048 88.8398 259.48 88.8678 259.816 88.9238C260.152 88.9798 260.436 89.0518 260.668 89.1398L260.404 90.1718C260.012 89.9878 259.416 89.8958 258.616 89.8958C258.256 89.8958 257.904 89.9558 257.56 90.0758C257.224 90.1878 256.92 90.3758 256.648 90.6398C256.384 90.8958 256.172 91.2358 256.012 91.6598C255.852 92.0758 255.772 92.5878 255.772 93.1958C255.772 93.7398 255.848 94.2198 256 94.6358C256.152 95.0438 256.36 95.3878 256.624 95.6678C256.896 95.9398 257.212 96.1478 257.572 96.2918C257.94 96.4278 258.34 96.4958 258.772 96.4958C259.164 96.4958 259.504 96.4598 259.792 96.3878C260.08 96.3158 260.324 96.2238 260.524 96.1118L260.812 97.0358ZM261.916 96.7838C261.916 96.5518 261.988 96.3678 262.132 96.2318C262.284 96.0958 262.48 96.0278 262.72 96.0278C262.96 96.0278 263.152 96.0958 263.296 96.2318C263.448 96.3678 263.524 96.5518 263.524 96.7838C263.524 96.9998 263.448 97.1798 263.296 97.3238C263.152 97.4678 262.96 97.5398 262.72 97.5398C262.48 97.5398 262.284 97.4678 262.132 97.3238C261.988 97.1798 261.916 96.9998 261.916 96.7838ZM273.809 93.6398H269.549V97.3958H268.349V88.9958H269.549V92.5838H273.809V88.9958H275.009V97.3958H273.809V93.6398ZM277.066 91.4918C277.786 91.1478 278.678 90.9758 279.742 90.9758C280.222 90.9758 280.606 91.0398 280.894 91.1678C281.19 91.2878 281.418 91.4438 281.578 91.6358C281.738 91.8278 281.842 92.0438 281.89 92.2838C281.946 92.5158 281.974 92.7478 281.974 92.9798C281.974 93.4198 281.958 93.8638 281.926 94.3118C281.894 94.7518 281.878 95.2318 281.878 95.7518C281.878 96.0558 281.89 96.3518 281.914 96.6398C281.946 96.9198 281.994 97.1798 282.058 97.4198H281.254L280.954 96.4598H280.834C280.746 96.5798 280.638 96.7038 280.51 96.8318C280.382 96.9518 280.23 97.0598 280.054 97.1558C279.878 97.2518 279.674 97.3318 279.442 97.3958C279.218 97.4598 278.958 97.4918 278.662 97.4918C278.366 97.4918 278.094 97.4518 277.846 97.3718C277.598 97.2838 277.382 97.1638 277.198 97.0118C277.022 96.8598 276.882 96.6758 276.778 96.4598C276.674 96.2358 276.622 95.9878 276.622 95.7158C276.622 95.3558 276.698 95.0438 276.85 94.7798C277.01 94.5158 277.214 94.2998 277.462 94.1318C277.71 93.9638 277.99 93.8398 278.302 93.7598C278.622 93.6798 278.938 93.6398 279.25 93.6398C279.498 93.6398 279.706 93.6438 279.874 93.6518C280.05 93.6598 280.194 93.6718 280.306 93.6878C280.426 93.6958 280.526 93.7078 280.606 93.7238C280.686 93.7318 280.758 93.7398 280.822 93.7478C280.838 93.6278 280.85 93.5238 280.858 93.4358C280.866 93.3478 280.87 93.2358 280.87 93.0998C280.87 92.8758 280.846 92.6878 280.798 92.5358C280.75 92.3838 280.67 92.2638 280.558 92.1758C280.454 92.0798 280.31 92.0118 280.126 91.9718C279.942 91.9318 279.718 91.9118 279.454 91.9118C279.302 91.9118 279.134 91.9238 278.95 91.9478C278.766 91.9718 278.582 92.0078 278.398 92.0558C278.214 92.0958 278.03 92.1478 277.846 92.2118C277.67 92.2758 277.51 92.3438 277.366 92.4158L277.066 91.4918ZM280.822 94.5398C280.758 94.5318 280.69 94.5198 280.618 94.5038C280.546 94.4878 280.454 94.4758 280.342 94.4678C280.238 94.4598 280.11 94.4518 279.958 94.4438C279.814 94.4358 279.634 94.4318 279.418 94.4318C278.922 94.4318 278.526 94.5198 278.23 94.6958C277.942 94.8718 277.798 95.1718 277.798 95.5958C277.798 95.9158 277.91 96.1558 278.134 96.3158C278.366 96.4758 278.662 96.5558 279.022 96.5558C279.286 96.5558 279.518 96.5238 279.718 96.4598C279.926 96.3878 280.102 96.3038 280.246 96.2078C280.398 96.1038 280.518 95.9918 280.606 95.8718C280.702 95.7438 280.774 95.6198 280.822 95.4998V94.5398ZM287.914 92.0318H285.874L285.85 92.3918C285.794 93.1838 285.726 93.8958 285.646 94.5278C285.574 95.1518 285.466 95.6838 285.322 96.1238C285.178 96.5558 284.986 96.8878 284.746 97.1198C284.506 97.3438 284.194 97.4558 283.81 97.4558C283.634 97.4558 283.478 97.4438 283.342 97.4198C283.206 97.4038 283.09 97.3758 282.994 97.3358L283.162 96.3278C283.266 96.3598 283.382 96.3758 283.51 96.3758C283.702 96.3758 283.874 96.3078 284.026 96.1718C284.178 96.0278 284.31 95.7638 284.422 95.3798C284.534 94.9958 284.626 94.4598 284.698 93.7718C284.77 93.0838 284.822 92.1918 284.854 91.0958H289.018V97.3958H287.914V92.0318ZM295.486 93.7958L295.654 92.5478H295.522L294.934 93.7238L291.982 97.3958H291.13V91.0958H292.234V94.8158L292.15 95.9198H292.282L292.834 94.8518L295.726 91.0958H296.59V97.3958H295.486V93.7958ZM298.7 91.0958L299.156 91.0718C299.412 91.0558 299.692 91.0398 299.996 91.0238C300.3 90.9998 300.652 90.9878 301.052 90.9878C301.98 90.9878 302.644 91.1198 303.044 91.3838C303.452 91.6398 303.656 92.0238 303.656 92.5358C303.656 92.8158 303.556 93.0998 303.356 93.3878C303.164 93.6678 302.856 93.8718 302.432 93.9998V94.1318C302.96 94.2358 303.336 94.4118 303.56 94.6598C303.792 94.9078 303.908 95.2358 303.908 95.6438C303.908 96.2758 303.648 96.7438 303.128 97.0478C302.608 97.3438 301.824 97.4918 300.776 97.4918C300.424 97.4918 300.092 97.4798 299.78 97.4558C299.468 97.4398 299.164 97.4198 298.868 97.3958C298.836 97.3958 298.808 97.3958 298.784 97.3958C298.76 97.3878 298.732 97.3838 298.7 97.3838V91.0958ZM299.804 96.5318C299.98 96.5558 300.152 96.5758 300.32 96.5918C300.488 96.5998 300.696 96.6038 300.944 96.6038C301.576 96.6038 302.032 96.5238 302.312 96.3638C302.592 96.1958 302.732 95.9238 302.732 95.5478C302.732 95.3958 302.704 95.2558 302.648 95.1278C302.592 94.9998 302.5 94.8918 302.372 94.8038C302.244 94.7158 302.068 94.6478 301.844 94.5998C301.628 94.5438 301.36 94.5158 301.04 94.5158H299.804V96.5318ZM301.172 93.7598C301.348 93.7598 301.516 93.7358 301.676 93.6878C301.836 93.6398 301.98 93.5718 302.108 93.4838C302.236 93.3958 302.336 93.2958 302.408 93.1838C302.488 93.0638 302.528 92.9358 302.528 92.7998C302.528 92.4638 302.412 92.2318 302.18 92.1038C301.956 91.9678 301.568 91.8998 301.016 91.8998C300.832 91.8998 300.644 91.9078 300.452 91.9238C300.268 91.9318 300.052 91.9398 299.804 91.9478V93.7598H301.172ZM305.612 91.4918C306.332 91.1478 307.224 90.9758 308.288 90.9758C308.768 90.9758 309.152 91.0398 309.44 91.1678C309.736 91.2878 309.964 91.4438 310.124 91.6358C310.284 91.8278 310.388 92.0438 310.436 92.2838C310.492 92.5158 310.52 92.7478 310.52 92.9798C310.52 93.4198 310.504 93.8638 310.472 94.3118C310.44 94.7518 310.424 95.2318 310.424 95.7518C310.424 96.0558 310.436 96.3518 310.46 96.6398C310.492 96.9198 310.54 97.1798 310.604 97.4198H309.8L309.5 96.4598H309.38C309.292 96.5798 309.184 96.7038 309.056 96.8318C308.928 96.9518 308.776 97.0598 308.6 97.1558C308.424 97.2518 308.22 97.3318 307.988 97.3958C307.764 97.4598 307.504 97.4918 307.208 97.4918C306.912 97.4918 306.64 97.4518 306.392 97.3718C306.144 97.2838 305.928 97.1638 305.744 97.0118C305.568 96.8598 305.428 96.6758 305.324 96.4598C305.22 96.2358 305.168 95.9878 305.168 95.7158C305.168 95.3558 305.244 95.0438 305.396 94.7798C305.556 94.5158 305.76 94.2998 306.008 94.1318C306.256 93.9638 306.536 93.8398 306.848 93.7598C307.168 93.6798 307.484 93.6398 307.796 93.6398C308.044 93.6398 308.252 93.6438 308.42 93.6518C308.596 93.6598 308.74 93.6718 308.852 93.6878C308.972 93.6958 309.072 93.7078 309.152 93.7238C309.232 93.7318 309.304 93.7398 309.368 93.7478C309.384 93.6278 309.396 93.5238 309.404 93.4358C309.412 93.3478 309.416 93.2358 309.416 93.0998C309.416 92.8758 309.392 92.6878 309.344 92.5358C309.296 92.3838 309.216 92.2638 309.104 92.1758C309 92.0798 308.856 92.0118 308.672 91.9718C308.488 91.9318 308.264 91.9118 308 91.9118C307.848 91.9118 307.68 91.9238 307.496 91.9478C307.312 91.9718 307.128 92.0078 306.944 92.0558C306.76 92.0958 306.576 92.1478 306.392 92.2118C306.216 92.2758 306.056 92.3438 305.912 92.4158L305.612 91.4918ZM309.368 94.5398C309.304 94.5318 309.236 94.5198 309.164 94.5038C309.092 94.4878 309 94.4758 308.888 94.4678C308.784 94.4598 308.656 94.4518 308.504 94.4438C308.36 94.4358 308.18 94.4318 307.964 94.4318C307.468 94.4318 307.072 94.5198 306.776 94.6958C306.488 94.8718 306.344 95.1718 306.344 95.5958C306.344 95.9158 306.456 96.1558 306.68 96.3158C306.912 96.4758 307.208 96.5558 307.568 96.5558C307.832 96.5558 308.064 96.5238 308.264 96.4598C308.472 96.3878 308.648 96.3038 308.792 96.2078C308.944 96.1038 309.064 95.9918 309.152 95.8718C309.248 95.7438 309.32 95.6198 309.368 95.4998V94.5398ZM317.025 93.7958L317.193 92.5478H317.061L316.473 93.7238L313.521 97.3958H312.669V91.0958H313.773V94.8158L313.689 95.9198H313.821L314.373 94.8518L317.265 91.0958H318.129V97.3958H317.025V93.7958ZM314.373 88.8518C314.413 89.0278 314.469 89.1678 314.541 89.2718C314.613 89.3758 314.697 89.4558 314.793 89.5118C314.889 89.5598 314.997 89.5918 315.117 89.6078C315.245 89.6158 315.377 89.6198 315.513 89.6198C315.649 89.6198 315.777 89.6118 315.897 89.5958C316.025 89.5798 316.137 89.5438 316.233 89.4878C316.329 89.4318 316.413 89.3558 316.485 89.2598C316.557 89.1638 316.613 89.0318 316.653 88.8638L317.517 89.1158C317.429 89.5878 317.197 89.9198 316.821 90.1118C316.453 90.3038 316.009 90.3998 315.489 90.3998C315.241 90.3998 315.001 90.3798 314.769 90.3398C314.537 90.2998 314.325 90.2318 314.133 90.1358C313.949 90.0398 313.789 89.9158 313.653 89.7638C313.525 89.6038 313.437 89.4038 313.389 89.1638L314.373 88.8518ZM322.027 94.5638H321.343V97.3958H320.239V91.0958H321.343V93.9638L322.003 93.7478L324.151 91.0958H325.363L323.311 93.5438H323.323L322.675 94.0118L323.455 94.5518L325.675 97.3958H324.283L322.027 94.5638ZM326.73 91.4918C327.45 91.1478 328.342 90.9758 329.406 90.9758C329.886 90.9758 330.27 91.0398 330.558 91.1678C330.854 91.2878 331.082 91.4438 331.242 91.6358C331.402 91.8278 331.506 92.0438 331.554 92.2838C331.61 92.5158 331.638 92.7478 331.638 92.9798C331.638 93.4198 331.622 93.8638 331.59 94.3118C331.558 94.7518 331.542 95.2318 331.542 95.7518C331.542 96.0558 331.554 96.3518 331.578 96.6398C331.61 96.9198 331.658 97.1798 331.722 97.4198H330.918L330.618 96.4598H330.498C330.41 96.5798 330.302 96.7038 330.174 96.8318C330.046 96.9518 329.894 97.0598 329.718 97.1558C329.542 97.2518 329.338 97.3318 329.106 97.3958C328.882 97.4598 328.622 97.4918 328.326 97.4918C328.03 97.4918 327.758 97.4518 327.51 97.3718C327.262 97.2838 327.046 97.1638 326.862 97.0118C326.686 96.8598 326.546 96.6758 326.442 96.4598C326.338 96.2358 326.286 95.9878 326.286 95.7158C326.286 95.3558 326.362 95.0438 326.514 94.7798C326.674 94.5158 326.878 94.2998 327.126 94.1318C327.374 93.9638 327.654 93.8398 327.966 93.7598C328.286 93.6798 328.602 93.6398 328.914 93.6398C329.162 93.6398 329.37 93.6438 329.538 93.6518C329.714 93.6598 329.858 93.6718 329.97 93.6878C330.09 93.6958 330.19 93.7078 330.27 93.7238C330.35 93.7318 330.422 93.7398 330.486 93.7478C330.502 93.6278 330.514 93.5238 330.522 93.4358C330.53 93.3478 330.534 93.2358 330.534 93.0998C330.534 92.8758 330.51 92.6878 330.462 92.5358C330.414 92.3838 330.334 92.2638 330.222 92.1758C330.118 92.0798 329.974 92.0118 329.79 91.9718C329.606 91.9318 329.382 91.9118 329.118 91.9118C328.966 91.9118 328.798 91.9238 328.614 91.9478C328.43 91.9718 328.246 92.0078 328.062 92.0558C327.878 92.0958 327.694 92.1478 327.51 92.2118C327.334 92.2758 327.174 92.3438 327.03 92.4158L326.73 91.4918ZM330.486 94.5398C330.422 94.5318 330.354 94.5198 330.282 94.5038C330.21 94.4878 330.118 94.4758 330.006 94.4678C329.902 94.4598 329.774 94.4518 329.622 94.4438C329.478 94.4358 329.298 94.4318 329.082 94.4318C328.586 94.4318 328.19 94.5198 327.894 94.6958C327.606 94.8718 327.462 95.1718 327.462 95.5958C327.462 95.9158 327.574 96.1558 327.798 96.3158C328.03 96.4758 328.326 96.5558 328.686 96.5558C328.95 96.5558 329.182 96.5238 329.382 96.4598C329.59 96.3878 329.766 96.3038 329.91 96.2078C330.062 96.1038 330.182 95.9918 330.27 95.8718C330.366 95.7438 330.438 95.6198 330.486 95.4998V94.5398Z" fill="#474746"/>
<path d="M107.064 99.9798H106.32L106.116 98.3958H100.8V92.0958H101.904V97.4598H104.94V92.0958H106.044V97.4598H107.064V99.9798ZM113.482 97.8798C113.202 98.0878 112.854 98.2558 112.438 98.3838C112.022 98.5038 111.57 98.5638 111.082 98.5638C110.554 98.5638 110.094 98.4878 109.702 98.3358C109.318 98.1758 109.002 97.9518 108.754 97.6638C108.506 97.3758 108.322 97.0278 108.202 96.6198C108.082 96.2118 108.022 95.7558 108.022 95.2518C108.022 94.1718 108.286 93.3478 108.814 92.7798C109.35 92.2038 110.11 91.9158 111.094 91.9158C111.406 91.9158 111.718 91.9518 112.03 92.0238C112.342 92.0878 112.622 92.2158 112.87 92.4078C113.118 92.5918 113.318 92.8478 113.47 93.1758C113.63 93.5038 113.71 93.9318 113.71 94.4598C113.71 94.5878 113.706 94.7358 113.698 94.9038C113.69 95.0718 113.674 95.2358 113.65 95.3958H109.15C109.166 96.1318 109.342 96.6878 109.678 97.0638C110.014 97.4398 110.586 97.6278 111.394 97.6278C111.73 97.6278 112.05 97.5718 112.354 97.4598C112.658 97.3398 112.894 97.1998 113.062 97.0398L113.482 97.8798ZM112.654 94.6038C112.67 93.9638 112.538 93.5118 112.258 93.2478C111.986 92.9838 111.602 92.8518 111.106 92.8518C110.546 92.8518 110.102 92.9838 109.774 93.2478C109.446 93.5118 109.254 93.9638 109.198 94.6038H112.654ZM115.53 92.0958H116.274L116.49 92.8998H116.598C116.814 92.5878 117.094 92.3478 117.438 92.1798C117.782 92.0038 118.17 91.9158 118.602 91.9158C119.514 91.9158 120.194 92.1718 120.642 92.6838C121.09 93.1878 121.314 93.9958 121.314 95.1078C121.314 95.6358 121.238 96.1158 121.086 96.5478C120.942 96.9718 120.73 97.3358 120.45 97.6398C120.178 97.9358 119.842 98.1638 119.442 98.3238C119.05 98.4838 118.61 98.5638 118.122 98.5638C117.962 98.5638 117.814 98.5558 117.678 98.5398C117.55 98.5318 117.43 98.5118 117.318 98.4798C117.206 98.4558 117.094 98.4278 116.982 98.3958C116.87 98.3558 116.754 98.3118 116.634 98.2638V100.796H115.53V92.0958ZM118.35 92.8518C117.87 92.8518 117.494 92.9718 117.222 93.2118C116.95 93.4518 116.754 93.8198 116.634 94.3158V97.2198C116.818 97.3478 117.018 97.4478 117.234 97.5198C117.45 97.5918 117.726 97.6278 118.062 97.6278C118.71 97.6278 119.218 97.4158 119.586 96.9918C119.954 96.5678 120.138 95.9358 120.138 95.0958C120.138 94.4158 120.002 93.8718 119.73 93.4638C119.458 93.0558 118.998 92.8518 118.35 92.8518ZM124.877 95.5638H124.193V98.3958H123.089V92.0958H124.193V94.9638L124.853 94.7478L127.001 92.0958H128.213L126.161 94.5438H126.173L125.525 95.0118L126.305 95.5518L128.525 98.3958H127.133L124.877 95.5638ZM129.651 92.0958L130.107 92.0718C130.363 92.0558 130.643 92.0398 130.947 92.0238C131.251 91.9998 131.603 91.9878 132.003 91.9878C132.931 91.9878 133.595 92.1198 133.995 92.3838C134.403 92.6398 134.607 93.0238 134.607 93.5358C134.607 93.8158 134.507 94.0998 134.307 94.3878C134.115 94.6678 133.807 94.8718 133.383 94.9998V95.1318C133.911 95.2358 134.287 95.4118 134.511 95.6598C134.743 95.9078 134.859 96.2358 134.859 96.6438C134.859 97.2758 134.599 97.7438 134.079 98.0478C133.559 98.3438 132.775 98.4918 131.727 98.4918C131.375 98.4918 131.043 98.4798 130.731 98.4558C130.419 98.4398 130.115 98.4198 129.819 98.3958C129.787 98.3958 129.759 98.3958 129.735 98.3958C129.711 98.3878 129.683 98.3838 129.651 98.3838V92.0958ZM130.755 97.5318C130.931 97.5558 131.103 97.5758 131.271 97.5918C131.439 97.5998 131.647 97.6038 131.895 97.6038C132.527 97.6038 132.983 97.5238 133.263 97.3638C133.543 97.1958 133.683 96.9238 133.683 96.5478C133.683 96.3958 133.655 96.2558 133.599 96.1278C133.543 95.9998 133.451 95.8918 133.323 95.8038C133.195 95.7158 133.019 95.6478 132.795 95.5998C132.579 95.5438 132.311 95.5158 131.991 95.5158H130.755V97.5318ZM132.123 94.7598C132.299 94.7598 132.467 94.7358 132.627 94.6878C132.787 94.6398 132.931 94.5718 133.059 94.4838C133.187 94.3958 133.287 94.2958 133.359 94.1838C133.439 94.0638 133.479 93.9358 133.479 93.7998C133.479 93.4638 133.363 93.2318 133.131 93.1038C132.907 92.9678 132.519 92.8998 131.967 92.8998C131.783 92.8998 131.595 92.9078 131.403 92.9238C131.219 92.9318 131.003 92.9398 130.755 92.9478V94.7598H132.123ZM136.563 92.4918C137.283 92.1478 138.175 91.9758 139.239 91.9758C139.719 91.9758 140.103 92.0398 140.391 92.1678C140.687 92.2878 140.915 92.4438 141.075 92.6358C141.235 92.8278 141.339 93.0438 141.387 93.2838C141.443 93.5158 141.471 93.7478 141.471 93.9798C141.471 94.4198 141.455 94.8638 141.423 95.3118C141.391 95.7518 141.375 96.2318 141.375 96.7518C141.375 97.0558 141.387 97.3518 141.411 97.6398C141.443 97.9198 141.491 98.1798 141.555 98.4198H140.751L140.451 97.4598H140.331C140.243 97.5798 140.135 97.7038 140.007 97.8318C139.879 97.9518 139.727 98.0598 139.551 98.1558C139.375 98.2518 139.171 98.3318 138.939 98.3958C138.715 98.4598 138.455 98.4918 138.159 98.4918C137.863 98.4918 137.591 98.4518 137.343 98.3718C137.095 98.2838 136.879 98.1638 136.695 98.0118C136.519 97.8598 136.379 97.6758 136.275 97.4598C136.171 97.2358 136.119 96.9878 136.119 96.7158C136.119 96.3558 136.195 96.0438 136.347 95.7798C136.507 95.5158 136.711 95.2998 136.959 95.1318C137.207 94.9638 137.487 94.8398 137.799 94.7598C138.119 94.6798 138.435 94.6398 138.747 94.6398C138.995 94.6398 139.203 94.6438 139.371 94.6518C139.547 94.6598 139.691 94.6718 139.803 94.6878C139.923 94.6958 140.023 94.7078 140.103 94.7238C140.183 94.7318 140.255 94.7398 140.319 94.7478C140.335 94.6278 140.347 94.5238 140.355 94.4358C140.363 94.3478 140.367 94.2358 140.367 94.0998C140.367 93.8758 140.343 93.6878 140.295 93.5358C140.247 93.3838 140.167 93.2638 140.055 93.1758C139.951 93.0798 139.807 93.0118 139.623 92.9718C139.439 92.9318 139.215 92.9118 138.951 92.9118C138.799 92.9118 138.631 92.9238 138.447 92.9478C138.263 92.9718 138.079 93.0078 137.895 93.0558C137.711 93.0958 137.527 93.1478 137.343 93.2118C137.167 93.2758 137.007 93.3438 136.863 93.4158L136.563 92.4918ZM140.319 95.5398C140.255 95.5318 140.187 95.5198 140.115 95.5038C140.043 95.4878 139.951 95.4758 139.839 95.4678C139.735 95.4598 139.607 95.4518 139.455 95.4438C139.311 95.4358 139.131 95.4318 138.915 95.4318C138.419 95.4318 138.023 95.5198 137.727 95.6958C137.439 95.8718 137.295 96.1718 137.295 96.5958C137.295 96.9158 137.407 97.1558 137.631 97.3158C137.863 97.4758 138.159 97.5558 138.519 97.5558C138.783 97.5558 139.015 97.5238 139.215 97.4598C139.423 97.3878 139.599 97.3038 139.743 97.2078C139.895 97.1038 140.015 96.9918 140.103 96.8718C140.199 96.7438 140.271 96.6198 140.319 96.4998V95.5398ZM153.064 98.0358C152.8 98.2278 152.464 98.3598 152.056 98.4318C151.648 98.5118 151.216 98.5518 150.76 98.5518C150.224 98.5518 149.712 98.4678 149.224 98.2998C148.744 98.1238 148.32 97.8598 147.952 97.5078C147.584 97.1478 147.292 96.6958 147.076 96.1518C146.86 95.5998 146.752 94.9478 146.752 94.1958C146.752 93.4118 146.872 92.7438 147.112 92.1918C147.352 91.6398 147.664 91.1918 148.048 90.8478C148.432 90.4958 148.864 90.2398 149.344 90.0798C149.824 89.9198 150.3 89.8398 150.772 89.8398C151.3 89.8398 151.732 89.8678 152.068 89.9238C152.404 89.9798 152.688 90.0518 152.92 90.1398L152.656 91.1718C152.264 90.9878 151.668 90.8958 150.868 90.8958C150.508 90.8958 150.156 90.9558 149.812 91.0758C149.476 91.1878 149.172 91.3758 148.9 91.6398C148.636 91.8958 148.424 92.2358 148.264 92.6598C148.104 93.0758 148.024 93.5878 148.024 94.1958C148.024 94.7398 148.1 95.2198 148.252 95.6358C148.404 96.0438 148.612 96.3878 148.876 96.6678C149.148 96.9398 149.464 97.1478 149.824 97.2918C150.192 97.4278 150.592 97.4958 151.024 97.4958C151.416 97.4958 151.756 97.4598 152.044 97.3878C152.332 97.3158 152.576 97.2238 152.776 97.1118L153.064 98.0358ZM154.6 92.0958L155.056 92.0718C155.312 92.0558 155.592 92.0398 155.896 92.0238C156.2 91.9998 156.552 91.9878 156.952 91.9878C157.88 91.9878 158.544 92.1198 158.944 92.3838C159.352 92.6398 159.556 93.0238 159.556 93.5358C159.556 93.8158 159.456 94.0998 159.256 94.3878C159.064 94.6678 158.756 94.8718 158.332 94.9998V95.1318C158.86 95.2358 159.236 95.4118 159.46 95.6598C159.692 95.9078 159.808 96.2358 159.808 96.6438C159.808 97.2758 159.548 97.7438 159.028 98.0478C158.508 98.3438 157.724 98.4918 156.676 98.4918C156.324 98.4918 155.992 98.4798 155.68 98.4558C155.368 98.4398 155.064 98.4198 154.768 98.3958C154.736 98.3958 154.708 98.3958 154.684 98.3958C154.66 98.3878 154.632 98.3838 154.6 98.3838V92.0958ZM155.704 97.5318C155.88 97.5558 156.052 97.5758 156.22 97.5918C156.388 97.5998 156.596 97.6038 156.844 97.6038C157.476 97.6038 157.932 97.5238 158.212 97.3638C158.492 97.1958 158.632 96.9238 158.632 96.5478C158.632 96.3958 158.604 96.2558 158.548 96.1278C158.492 95.9998 158.4 95.8918 158.272 95.8038C158.144 95.7158 157.968 95.6478 157.744 95.5998C157.528 95.5438 157.26 95.5158 156.94 95.5158H155.704V97.5318ZM157.072 94.7598C157.248 94.7598 157.416 94.7358 157.576 94.6878C157.736 94.6398 157.88 94.5718 158.008 94.4838C158.136 94.3958 158.236 94.2958 158.308 94.1838C158.388 94.0638 158.428 93.9358 158.428 93.7998C158.428 93.4638 158.312 93.2318 158.08 93.1038C157.856 92.9678 157.468 92.8998 156.916 92.8998C156.732 92.8998 156.544 92.9078 156.352 92.9238C156.168 92.9318 155.952 92.9398 155.704 92.9478V94.7598H157.072ZM161.153 97.7838C161.153 97.5518 161.225 97.3678 161.369 97.2318C161.521 97.0958 161.717 97.0278 161.957 97.0278C162.197 97.0278 162.389 97.0958 162.533 97.2318C162.685 97.3678 162.761 97.5518 162.761 97.7838C162.761 97.9998 162.685 98.1798 162.533 98.3238C162.389 98.4678 162.197 98.5398 161.957 98.5398C161.717 98.5398 161.521 98.4678 161.369 98.3238C161.225 98.1798 161.153 97.9998 161.153 97.7838ZM171.614 96.1998H168.29L167.402 98.3958H166.226L169.682 89.8758H170.306L173.774 98.3958H172.526L171.614 96.1998ZM168.65 95.1918H171.266L170.294 92.8038L169.97 91.5198H169.946L169.622 92.8278L168.65 95.1918ZM179.193 95.6478H176.025V98.3958H174.921V92.0958H176.025V94.6638H179.193V92.0958H180.297V98.3958H179.193V95.6478ZM186.681 95.6478H183.513V98.3958H182.409V92.0958H183.513V94.6638H186.681V92.0958H187.785V98.3958H186.681V95.6478ZM194.253 94.7958L194.421 93.5478H194.289L193.701 94.7238L190.749 98.3958H189.897V92.0958H191.001V95.8158L190.917 96.9198H191.049L191.601 95.8518L194.493 92.0958H195.357V98.3958H194.253V94.7958Z" fill="#474746"/>
<path d="M331.209 9.64992H328.113V15.0139H327.009V8.71392H332.313V15.0139H331.209V9.64992ZM338.219 9.64992H336.179L336.155 10.0099C336.099 10.8019 336.031 11.5139 335.951 12.1459C335.879 12.7699 335.771 13.3019 335.627 13.7419C335.483 14.1739 335.291 14.5059 335.051 14.7379C334.811 14.9619 334.499 15.0739 334.115 15.0739C333.939 15.0739 333.783 15.0619 333.647 15.0379C333.511 15.0219 333.395 14.9939 333.299 14.9539L333.467 13.9459C333.571 13.9779 333.687 13.9939 333.815 13.9939C334.007 13.9939 334.179 13.9259 334.331 13.7899C334.483 13.6459 334.615 13.3819 334.727 12.9979C334.839 12.6139 334.931 12.0779 335.003 11.3899C335.075 10.7019 335.127 9.80992 335.159 8.71392H339.323V15.0139H338.219V9.64992ZM341.002 14.4019C341.002 14.1699 341.074 13.9859 341.218 13.8499C341.37 13.7139 341.566 13.6459 341.806 13.6459C342.046 13.6459 342.238 13.7139 342.382 13.8499C342.534 13.9859 342.61 14.1699 342.61 14.4019C342.61 14.6179 342.534 14.7979 342.382 14.9419C342.238 15.0859 342.046 15.1579 341.806 15.1579C341.566 15.1579 341.37 15.0859 341.218 14.9419C341.074 14.7979 341.002 14.6179 341.002 14.4019ZM350.246 14.6539C349.982 14.8459 349.646 14.9779 349.238 15.0499C348.83 15.1299 348.398 15.1699 347.942 15.1699C347.406 15.1699 346.894 15.0859 346.406 14.9179C345.926 14.7419 345.502 14.4779 345.134 14.1259C344.766 13.7659 344.474 13.3139 344.258 12.7699C344.042 12.2179 343.934 11.5659 343.934 10.8139C343.934 10.0299 344.054 9.36192 344.294 8.80992C344.534 8.25792 344.846 7.80992 345.23 7.46592C345.614 7.11392 346.046 6.85792 346.526 6.69792C347.006 6.53792 347.482 6.45792 347.954 6.45792C348.482 6.45792 348.914 6.48592 349.25 6.54192C349.586 6.59792 349.87 6.66992 350.102 6.75792L349.838 7.78992C349.446 7.60592 348.85 7.51392 348.05 7.51392C347.69 7.51392 347.338 7.57392 346.994 7.69392C346.658 7.80592 346.354 7.99392 346.082 8.25792C345.818 8.51392 345.606 8.85392 345.446 9.27792C345.286 9.69392 345.206 10.2059 345.206 10.8139C345.206 11.3579 345.282 11.8379 345.434 12.2539C345.586 12.6619 345.794 13.0059 346.058 13.2859C346.33 13.5579 346.646 13.7659 347.006 13.9099C347.374 14.0459 347.774 14.1139 348.206 14.1139C348.598 14.1139 348.938 14.0779 349.226 14.0059C349.514 13.9339 349.758 13.8419 349.958 13.7299L350.246 14.6539ZM355.46 9.64992H353.276V15.0139H352.172V9.64992H349.988V8.71392H355.46V9.64992ZM356.444 9.10992C357.164 8.76592 358.056 8.59392 359.12 8.59392C359.6 8.59392 359.984 8.65792 360.272 8.78592C360.568 8.90592 360.796 9.06192 360.956 9.25392C361.116 9.44592 361.22 9.66192 361.268 9.90192C361.324 10.1339 361.352 10.3659 361.352 10.5979C361.352 11.0379 361.336 11.4819 361.304 11.9299C361.272 12.3699 361.256 12.8499 361.256 13.3699C361.256 13.6739 361.268 13.9699 361.292 14.2579C361.324 14.5379 361.372 14.7979 361.436 15.0379H360.632L360.332 14.0779H360.212C360.124 14.1979 360.016 14.3219 359.888 14.4499C359.76 14.5699 359.608 14.6779 359.432 14.7739C359.256 14.8699 359.052 14.9499 358.82 15.0139C358.596 15.0779 358.336 15.1099 358.04 15.1099C357.744 15.1099 357.472 15.0699 357.224 14.9899C356.976 14.9019 356.76 14.7819 356.576 14.6299C356.4 14.4779 356.26 14.2939 356.156 14.0779C356.052 13.8539 356 13.6059 356 13.3339C356 12.9739 356.076 12.6619 356.228 12.3979C356.388 12.1339 356.592 11.9179 356.84 11.7499C357.088 11.5819 357.368 11.4579 357.68 11.3779C358 11.2979 358.316 11.2579 358.628 11.2579C358.876 11.2579 359.084 11.2619 359.252 11.2699C359.428 11.2779 359.572 11.2899 359.684 11.3059C359.804 11.3139 359.904 11.3259 359.984 11.3419C360.064 11.3499 360.136 11.3579 360.2 11.3659C360.216 11.2459 360.228 11.1419 360.236 11.0539C360.244 10.9659 360.248 10.8539 360.248 10.7179C360.248 10.4939 360.224 10.3059 360.176 10.1539C360.128 10.0019 360.048 9.88192 359.936 9.79392C359.832 9.69792 359.688 9.62992 359.504 9.58992C359.32 9.54992 359.096 9.52992 358.832 9.52992C358.68 9.52992 358.512 9.54192 358.328 9.56592C358.144 9.58992 357.96 9.62592 357.776 9.67392C357.592 9.71392 357.408 9.76592 357.224 9.82992C357.048 9.89392 356.888 9.96192 356.744 10.0339L356.444 9.10992ZM360.2 12.1579C360.136 12.1499 360.068 12.1379 359.996 12.1219C359.924 12.1059 359.832 12.0939 359.72 12.0859C359.616 12.0779 359.488 12.0699 359.336 12.0619C359.192 12.0539 359.012 12.0499 358.796 12.0499C358.3 12.0499 357.904 12.1379 357.608 12.3139C357.32 12.4899 357.176 12.7899 357.176 13.2139C357.176 13.5339 357.288 13.7739 357.512 13.9339C357.744 14.0939 358.04 14.1739 358.4 14.1739C358.664 14.1739 358.896 14.1419 359.096 14.0779C359.304 14.0059 359.48 13.9219 359.624 13.8259C359.776 13.7219 359.896 13.6099 359.984 13.4899C360.08 13.3619 360.152 13.2379 360.2 13.1179V12.1579ZM363.501 8.71392H364.245L364.461 9.51792H364.569C364.785 9.20592 365.065 8.96592 365.409 8.79792C365.753 8.62192 366.141 8.53392 366.573 8.53392C367.485 8.53392 368.165 8.78992 368.613 9.30192C369.061 9.80592 369.285 10.6139 369.285 11.7259C369.285 12.2539 369.209 12.7339 369.057 13.1659C368.913 13.5899 368.701 13.9539 368.421 14.2579C368.149 14.5539 367.813 14.7819 367.413 14.9419C367.021 15.1019 366.581 15.1819 366.093 15.1819C365.933 15.1819 365.785 15.1739 365.649 15.1579C365.521 15.1499 365.401 15.1299 365.289 15.0979C365.177 15.0739 365.065 15.0459 364.953 15.0139C364.841 14.9739 364.725 14.9299 364.605 14.8819V17.4139H363.501V8.71392ZM366.321 9.46992C365.841 9.46992 365.465 9.58992 365.193 9.82992C364.921 10.0699 364.725 10.4379 364.605 10.9339V13.8379C364.789 13.9659 364.989 14.0659 365.205 14.1379C365.421 14.2099 365.697 14.2459 366.033 14.2459C366.681 14.2459 367.189 14.0339 367.557 13.6099C367.925 13.1859 368.109 12.5539 368.109 11.7139C368.109 11.0339 367.973 10.4899 367.701 10.0819C367.429 9.67392 366.969 9.46992 366.321 9.46992ZM375.415 11.4139L375.583 10.1659H375.451L374.863 11.3419L371.911 15.0139H371.059V8.71392H372.163V12.4339L372.079 13.5379H372.211L372.763 12.4699L375.655 8.71392H376.519V15.0139H375.415V11.4139ZM382.986 11.4139L383.154 10.1659H383.022L382.434 11.3419L379.482 15.0139H378.63V8.71392H379.734V12.4339L379.65 13.5379H379.782L380.334 12.4699L383.226 8.71392H384.09V15.0139H382.986V11.4139ZM380.334 6.46992C380.374 6.64592 380.43 6.78592 380.502 6.88992C380.574 6.99392 380.658 7.07392 380.754 7.12992C380.85 7.17792 380.958 7.20992 381.078 7.22592C381.206 7.23392 381.338 7.23792 381.474 7.23792C381.61 7.23792 381.738 7.22992 381.858 7.21392C381.986 7.19792 382.098 7.16192 382.194 7.10592C382.29 7.04992 382.374 6.97392 382.446 6.87792C382.518 6.78192 382.574 6.64992 382.614 6.48192L383.478 6.73392C383.39 7.20592 383.158 7.53792 382.782 7.72992C382.414 7.92192 381.97 8.01792 381.45 8.01792C381.202 8.01792 380.962 7.99792 380.73 7.95792C380.498 7.91792 380.286 7.84992 380.094 7.75392C379.91 7.65792 379.75 7.53392 379.614 7.38192C379.486 7.22192 379.398 7.02192 379.35 6.78192L380.334 6.46992ZM389.704 6.69792C390.04 6.62592 390.404 6.57792 390.796 6.55392C391.196 6.52192 391.588 6.50592 391.972 6.50592C392.38 6.50592 392.792 6.54192 393.208 6.61392C393.632 6.68592 394.016 6.81792 394.36 7.00992C394.704 7.20192 394.984 7.46992 395.2 7.81392C395.424 8.14992 395.536 8.58592 395.536 9.12192C395.536 9.62592 395.436 10.0579 395.236 10.4179C395.036 10.7699 394.768 11.0579 394.432 11.2819C394.104 11.5059 393.724 11.6699 393.292 11.7739C392.868 11.8779 392.428 11.9299 391.972 11.9299C391.924 11.9299 391.848 11.9299 391.744 11.9299C391.648 11.9219 391.544 11.9179 391.432 11.9179C391.328 11.9099 391.224 11.9019 391.12 11.8939C391.024 11.8859 390.952 11.8779 390.904 11.8699V15.0139H389.704V6.69792ZM392.008 7.53792C391.792 7.53792 391.58 7.54192 391.372 7.54992C391.172 7.55792 391.016 7.57792 390.904 7.60992V10.8379C390.944 10.8539 391.008 10.8659 391.096 10.8739C391.192 10.8739 391.288 10.8779 391.384 10.8859C391.488 10.8939 391.584 10.8979 391.672 10.8979C391.768 10.8979 391.84 10.8979 391.888 10.8979C392.176 10.8979 392.46 10.8779 392.74 10.8379C393.02 10.7899 393.272 10.7019 393.496 10.5739C393.728 10.4459 393.912 10.2659 394.048 10.0339C394.192 9.80192 394.264 9.50192 394.264 9.13392C394.264 8.81392 394.196 8.54992 394.06 8.34192C393.924 8.13392 393.748 7.96992 393.532 7.84992C393.316 7.72992 393.072 7.64992 392.8 7.60992C392.536 7.56192 392.272 7.53792 392.008 7.53792ZM401.009 11.4139L401.177 10.1659H401.045L400.457 11.3419L397.505 15.0139H396.653V8.71392H397.757V12.4339L397.673 13.5379H397.805L398.357 12.4699L401.249 8.71392H402.113V15.0139H401.009V11.4139ZM408.495 12.2659H405.327V15.0139H404.223V8.71392H405.327V11.2819H408.495V8.71392H409.599V15.0139H408.495V12.2659ZM411.376 11.8699C411.376 11.3499 411.444 10.8859 411.58 10.4779C411.716 10.0619 411.916 9.70992 412.18 9.42192C412.444 9.13392 412.764 8.91392 413.14 8.76192C413.524 8.60992 413.96 8.53392 414.448 8.53392C414.96 8.53392 415.408 8.61792 415.792 8.78592C416.176 8.95392 416.496 9.18992 416.752 9.49392C417.008 9.78992 417.196 10.1419 417.316 10.5499C417.444 10.9499 417.508 11.3899 417.508 11.8699C417.508 12.3819 417.436 12.8419 417.292 13.2499C417.156 13.6579 416.956 14.0059 416.692 14.2939C416.436 14.5819 416.116 14.8019 415.732 14.9539C415.356 15.1059 414.928 15.1819 414.448 15.1819C413.92 15.1819 413.464 15.0979 413.08 14.9299C412.696 14.7619 412.376 14.5299 412.12 14.2339C411.872 13.9379 411.684 13.5899 411.556 13.1899C411.436 12.7819 411.376 12.3419 411.376 11.8699ZM412.552 11.8699C412.552 12.1659 412.584 12.4579 412.648 12.7459C412.72 13.0259 412.832 13.2779 412.984 13.5019C413.136 13.7259 413.332 13.9059 413.572 14.0419C413.812 14.1779 414.108 14.2459 414.46 14.2459C415.708 14.2459 416.332 13.4539 416.332 11.8699C416.332 11.5579 416.296 11.2579 416.224 10.9699C416.16 10.6819 416.052 10.4299 415.9 10.2139C415.756 9.98992 415.564 9.80992 415.324 9.67392C415.084 9.53792 414.796 9.46992 414.46 9.46992C413.836 9.46992 413.36 9.66992 413.032 10.0699C412.712 10.4619 412.552 11.0619 412.552 11.8699ZM421.07 12.1819H420.386V15.0139H419.282V8.71392H420.386V11.5819L421.046 11.3659L423.194 8.71392H424.406L422.354 11.1619H422.366L421.718 11.6299L422.498 12.1699L424.718 15.0139H423.326L421.07 12.1819Z" fill="#474746"/>
<path d="M292.11 229.59H171.26V225.25H290.31L376.81 138.74L379.88 141.81L292.11 229.59Z" fill="#E62139"/>
<path d="M85.6569 227.935H82.5609V233.299H81.4569V226.999H86.7609V233.299H85.6569V227.935ZM92.6668 227.935H90.6268L90.6028 228.295C90.5468 229.087 90.4788 229.799 90.3988 230.431C90.3268 231.055 90.2188 231.587 90.0748 232.027C89.9308 232.459 89.7388 232.791 89.4988 233.023C89.2588 233.247 88.9468 233.359 88.5628 233.359C88.3868 233.359 88.2308 233.347 88.0948 233.323C87.9588 233.307 87.8428 233.279 87.7468 233.239L87.9148 232.231C88.0188 232.263 88.1348 232.279 88.2628 232.279C88.4548 232.279 88.6268 232.211 88.7788 232.075C88.9308 231.931 89.0628 231.667 89.1748 231.283C89.2868 230.899 89.3788 230.363 89.4508 229.675C89.5228 228.987 89.5748 228.095 89.6068 226.999H93.7708V233.299H92.6668V227.935ZM95.4507 232.687C95.4507 232.455 95.5227 232.271 95.6667 232.135C95.8187 231.999 96.0147 231.931 96.2547 231.931C96.4947 231.931 96.6867 231.999 96.8307 232.135C96.9827 232.271 97.0587 232.455 97.0587 232.687C97.0587 232.903 96.9827 233.083 96.8307 233.227C96.6867 233.371 96.4947 233.443 96.2547 233.443C96.0147 233.443 95.8187 233.371 95.6667 233.227C95.5227 233.083 95.4507 232.903 95.4507 232.687ZM102.603 225.691H101.643V224.899H104.763V225.691H103.803V232.507H104.763V233.299H101.643V232.507H102.603V225.691ZM106.22 232.687C106.22 232.455 106.292 232.271 106.436 232.135C106.588 231.999 106.784 231.931 107.024 231.931C107.264 231.931 107.456 231.999 107.6 232.135C107.752 232.271 107.828 232.455 107.828 232.687C107.828 232.903 107.752 233.083 107.6 233.227C107.456 233.371 107.264 233.443 107.024 233.443C106.784 233.443 106.588 233.371 106.436 233.227C106.292 233.083 106.22 232.903 106.22 232.687ZM116.144 232.375C115.984 232.399 115.808 232.415 115.616 232.423C115.432 232.431 115.252 232.435 115.076 232.435C114.66 232.435 114.272 232.367 113.912 232.231C113.552 232.095 113.236 231.891 112.964 231.619C112.7 231.339 112.488 230.991 112.328 230.575C112.176 230.159 112.1 229.667 112.1 229.099C112.1 228.563 112.176 228.083 112.328 227.659C112.488 227.227 112.708 226.863 112.988 226.567C113.276 226.263 113.616 226.031 114.008 225.871C114.408 225.711 114.848 225.631 115.328 225.631C115.44 225.631 115.58 225.635 115.748 225.643C115.916 225.651 116.048 225.667 116.144 225.691V224.659H117.296V225.727C117.456 225.687 117.64 225.663 117.848 225.655C118.056 225.639 118.228 225.631 118.364 225.631C118.78 225.631 119.168 225.703 119.528 225.847C119.896 225.991 120.212 226.207 120.476 226.495C120.748 226.775 120.96 227.123 121.112 227.539C121.264 227.955 121.34 228.435 121.34 228.979C121.34 229.539 121.252 230.035 121.076 230.467C120.908 230.899 120.676 231.263 120.38 231.559C120.092 231.847 119.752 232.067 119.36 232.219C118.976 232.363 118.568 232.435 118.136 232.435C118.04 232.435 117.9 232.431 117.716 232.423C117.54 232.407 117.4 232.383 117.296 232.351V233.539H116.144V232.375ZM118.184 226.591C118.064 226.591 117.908 226.595 117.716 226.603C117.532 226.611 117.384 226.631 117.272 226.663V231.439C117.36 231.455 117.472 231.467 117.608 231.475C117.744 231.475 117.876 231.475 118.004 231.475C118.292 231.475 118.564 231.423 118.82 231.319C119.076 231.215 119.3 231.063 119.492 230.863C119.684 230.655 119.836 230.395 119.948 230.083C120.06 229.771 120.116 229.403 120.116 228.979C120.116 228.627 120.068 228.307 119.972 228.019C119.884 227.723 119.756 227.471 119.588 227.263C119.42 227.047 119.216 226.883 118.976 226.771C118.736 226.651 118.472 226.591 118.184 226.591ZM115.304 231.475C115.392 231.475 115.528 231.475 115.712 231.475C115.896 231.467 116.048 231.443 116.168 231.403V226.639C116.064 226.623 115.94 226.611 115.796 226.603C115.652 226.595 115.516 226.591 115.388 226.591C115.1 226.591 114.832 226.643 114.584 226.747C114.336 226.851 114.116 227.011 113.924 227.227C113.74 227.435 113.592 227.695 113.48 228.007C113.376 228.319 113.324 228.683 113.324 229.099C113.324 229.459 113.372 229.787 113.468 230.083C113.564 230.371 113.7 230.619 113.876 230.827C114.052 231.035 114.26 231.195 114.5 231.307C114.748 231.419 115.016 231.475 115.304 231.475ZM122.93 226.999H123.674L123.89 227.803H123.998C124.214 227.491 124.494 227.251 124.838 227.083C125.182 226.907 125.57 226.819 126.002 226.819C126.914 226.819 127.594 227.075 128.042 227.587C128.49 228.091 128.714 228.899 128.714 230.011C128.714 230.539 128.638 231.019 128.486 231.451C128.342 231.875 128.13 232.239 127.85 232.543C127.578 232.839 127.242 233.067 126.842 233.227C126.45 233.387 126.01 233.467 125.522 233.467C125.362 233.467 125.214 233.459 125.078 233.443C124.95 233.435 124.83 233.415 124.718 233.383C124.606 233.359 124.494 233.331 124.382 233.299C124.27 233.259 124.154 233.215 124.034 233.167V235.699H122.93V226.999ZM125.75 227.755C125.27 227.755 124.894 227.875 124.622 228.115C124.35 228.355 124.154 228.723 124.034 229.219V232.123C124.218 232.251 124.418 232.351 124.634 232.423C124.85 232.495 125.126 232.531 125.462 232.531C126.11 232.531 126.618 232.319 126.986 231.895C127.354 231.471 127.538 230.839 127.538 229.999C127.538 229.319 127.402 228.775 127.13 228.367C126.858 227.959 126.398 227.755 125.75 227.755ZM130.416 227.395C131.136 227.051 132.028 226.879 133.092 226.879C133.572 226.879 133.956 226.943 134.244 227.071C134.54 227.191 134.768 227.347 134.928 227.539C135.088 227.731 135.192 227.947 135.24 228.187C135.296 228.419 135.324 228.651 135.324 228.883C135.324 229.323 135.308 229.767 135.276 230.215C135.244 230.655 135.228 231.135 135.228 231.655C135.228 231.959 135.24 232.255 135.264 232.543C135.296 232.823 135.344 233.083 135.408 233.323H134.604L134.304 232.363H134.184C134.096 232.483 133.988 232.607 133.86 232.735C133.732 232.855 133.58 232.963 133.404 233.059C133.228 233.155 133.024 233.235 132.792 233.299C132.568 233.363 132.308 233.395 132.012 233.395C131.716 233.395 131.444 233.355 131.196 233.275C130.948 233.187 130.732 233.067 130.548 232.915C130.372 232.763 130.232 232.579 130.128 232.363C130.024 232.139 129.972 231.891 129.972 231.619C129.972 231.259 130.048 230.947 130.2 230.683C130.36 230.419 130.564 230.203 130.812 230.035C131.06 229.867 131.34 229.743 131.652 229.663C131.972 229.583 132.288 229.543 132.6 229.543C132.848 229.543 133.056 229.547 133.224 229.555C133.4 229.563 133.544 229.575 133.656 229.591C133.776 229.599 133.876 229.611 133.956 229.627C134.036 229.635 134.108 229.643 134.172 229.651C134.188 229.531 134.2 229.427 134.208 229.339C134.216 229.251 134.22 229.139 134.22 229.003C134.22 228.779 134.196 228.591 134.148 228.439C134.1 228.287 134.02 228.167 133.908 228.079C133.804 227.983 133.66 227.915 133.476 227.875C133.292 227.835 133.068 227.815 132.804 227.815C132.652 227.815 132.484 227.827 132.3 227.851C132.116 227.875 131.932 227.911 131.748 227.959C131.564 227.999 131.38 228.051 131.196 228.115C131.02 228.179 130.86 228.247 130.716 228.319L130.416 227.395ZM134.172 230.443C134.108 230.435 134.04 230.423 133.968 230.407C133.896 230.391 133.804 230.379 133.692 230.371C133.588 230.363 133.46 230.355 133.308 230.347C133.164 230.339 132.984 230.335 132.768 230.335C132.272 230.335 131.876 230.423 131.58 230.599C131.292 230.775 131.148 231.075 131.148 231.499C131.148 231.819 131.26 232.059 131.484 232.219C131.716 232.379 132.012 232.459 132.372 232.459C132.636 232.459 132.868 232.427 133.068 232.363C133.276 232.291 133.452 232.207 133.596 232.111C133.748 232.007 133.868 231.895 133.956 231.775C134.052 231.647 134.124 231.523 134.172 231.403V230.443ZM141.745 230.551H138.577V233.299H137.473V226.999H138.577V229.567H141.745V226.999H142.849V233.299H141.745V230.551ZM146.749 230.467H146.065V233.299H144.961V226.999H146.065V229.867L146.725 229.651L148.873 226.999H150.085L148.033 229.447H148.045L147.397 229.915L148.177 230.455L150.397 233.299H149.005L146.749 230.467ZM151.451 227.395C152.171 227.051 153.063 226.879 154.127 226.879C154.607 226.879 154.991 226.943 155.279 227.071C155.575 227.191 155.803 227.347 155.963 227.539C156.123 227.731 156.227 227.947 156.275 228.187C156.331 228.419 156.359 228.651 156.359 228.883C156.359 229.323 156.343 229.767 156.311 230.215C156.279 230.655 156.263 231.135 156.263 231.655C156.263 231.959 156.275 232.255 156.299 232.543C156.331 232.823 156.379 233.083 156.443 233.323H155.639L155.339 232.363H155.219C155.131 232.483 155.023 232.607 154.895 232.735C154.767 232.855 154.615 232.963 154.439 233.059C154.263 233.155 154.059 233.235 153.827 233.299C153.603 233.363 153.343 233.395 153.047 233.395C152.751 233.395 152.479 233.355 152.231 233.275C151.983 233.187 151.767 233.067 151.583 232.915C151.407 232.763 151.267 232.579 151.163 232.363C151.059 232.139 151.007 231.891 151.007 231.619C151.007 231.259 151.083 230.947 151.235 230.683C151.395 230.419 151.599 230.203 151.847 230.035C152.095 229.867 152.375 229.743 152.687 229.663C153.007 229.583 153.323 229.543 153.635 229.543C153.883 229.543 154.091 229.547 154.259 229.555C154.435 229.563 154.579 229.575 154.691 229.591C154.811 229.599 154.911 229.611 154.991 229.627C155.071 229.635 155.143 229.643 155.207 229.651C155.223 229.531 155.235 229.427 155.243 229.339C155.251 229.251 155.255 229.139 155.255 229.003C155.255 228.779 155.231 228.591 155.183 228.439C155.135 228.287 155.055 228.167 154.943 228.079C154.839 227.983 154.695 227.915 154.511 227.875C154.327 227.835 154.103 227.815 153.839 227.815C153.687 227.815 153.519 227.827 153.335 227.851C153.151 227.875 152.967 227.911 152.783 227.959C152.599 227.999 152.415 228.051 152.231 228.115C152.055 228.179 151.895 228.247 151.751 228.319L151.451 227.395ZM155.207 230.443C155.143 230.435 155.075 230.423 155.003 230.407C154.931 230.391 154.839 230.379 154.727 230.371C154.623 230.363 154.495 230.355 154.343 230.347C154.199 230.339 154.019 230.335 153.803 230.335C153.307 230.335 152.911 230.423 152.615 230.599C152.327 230.775 152.183 231.075 152.183 231.499C152.183 231.819 152.295 232.059 152.519 232.219C152.751 232.379 153.047 232.459 153.407 232.459C153.671 232.459 153.903 232.427 154.103 232.363C154.311 232.291 154.487 232.207 154.631 232.111C154.783 232.007 154.903 231.895 154.991 231.775C155.087 231.647 155.159 231.523 155.207 231.403V230.443Z" fill="#474746"/>
<path d="M5.78237 157.894H2.68637V163.258H1.58237V156.958H6.88637V163.258H5.78237V157.894ZM8.92834 157.354C9.64834 157.01 10.5403 156.838 11.6043 156.838C12.0843 156.838 12.4683 156.902 12.7563 157.03C13.0523 157.15 13.2803 157.306 13.4403 157.498C13.6003 157.69 13.7043 157.906 13.7523 158.146C13.8083 158.378 13.8363 158.61 13.8363 158.842C13.8363 159.282 13.8203 159.726 13.7883 160.174C13.7563 160.614 13.7403 161.094 13.7403 161.614C13.7403 161.918 13.7523 162.214 13.7763 162.502C13.8083 162.782 13.8563 163.042 13.9203 163.282H13.1163L12.8163 162.322H12.6963C12.6083 162.442 12.5003 162.566 12.3723 162.694C12.2443 162.814 12.0923 162.922 11.9163 163.018C11.7403 163.114 11.5363 163.194 11.3043 163.258C11.0803 163.322 10.8203 163.354 10.5243 163.354C10.2283 163.354 9.95634 163.314 9.70834 163.234C9.46034 163.146 9.24434 163.026 9.06034 162.874C8.88434 162.722 8.74434 162.538 8.64034 162.322C8.53634 162.098 8.48434 161.85 8.48434 161.578C8.48434 161.218 8.56034 160.906 8.71234 160.642C8.87234 160.378 9.07634 160.162 9.32434 159.994C9.57234 159.826 9.85234 159.702 10.1643 159.622C10.4843 159.542 10.8003 159.502 11.1123 159.502C11.3603 159.502 11.5683 159.506 11.7363 159.514C11.9123 159.522 12.0563 159.534 12.1683 159.55C12.2883 159.558 12.3883 159.57 12.4683 159.586C12.5483 159.594 12.6203 159.602 12.6843 159.61C12.7003 159.49 12.7123 159.386 12.7203 159.298C12.7283 159.21 12.7323 159.098 12.7323 158.962C12.7323 158.738 12.7083 158.55 12.6603 158.398C12.6123 158.246 12.5323 158.126 12.4203 158.038C12.3163 157.942 12.1723 157.874 11.9883 157.834C11.8043 157.794 11.5803 157.774 11.3163 157.774C11.1643 157.774 10.9963 157.786 10.8123 157.81C10.6283 157.834 10.4443 157.87 10.2603 157.918C10.0763 157.958 9.89234 158.01 9.70834 158.074C9.53234 158.138 9.37234 158.206 9.22834 158.278L8.92834 157.354ZM12.6843 160.402C12.6203 160.394 12.5523 160.382 12.4803 160.366C12.4083 160.35 12.3163 160.338 12.2043 160.33C12.1003 160.322 11.9723 160.314 11.8203 160.306C11.6763 160.298 11.4963 160.294 11.2803 160.294C10.7843 160.294 10.3883 160.382 10.0923 160.558C9.80434 160.734 9.66034 161.034 9.66034 161.458C9.66034 161.778 9.77234 162.018 9.99634 162.178C10.2283 162.338 10.5243 162.418 10.8843 162.418C11.1483 162.418 11.3803 162.386 11.5803 162.322C11.7883 162.25 11.9643 162.166 12.1083 162.07C12.2603 161.966 12.3803 161.854 12.4683 161.734C12.5643 161.606 12.6363 161.482 12.6843 161.362V160.402ZM15.9847 156.958H16.7287L16.9447 157.762H17.0527C17.2687 157.45 17.5487 157.21 17.8927 157.042C18.2367 156.866 18.6247 156.778 19.0567 156.778C19.9687 156.778 20.6487 157.034 21.0967 157.546C21.5447 158.05 21.7687 158.858 21.7687 159.97C21.7687 160.498 21.6927 160.978 21.5407 161.41C21.3967 161.834 21.1847 162.198 20.9047 162.502C20.6327 162.798 20.2967 163.026 19.8967 163.186C19.5047 163.346 19.0647 163.426 18.5767 163.426C18.4167 163.426 18.2687 163.418 18.1327 163.402C18.0047 163.394 17.8847 163.374 17.7727 163.342C17.6607 163.318 17.5487 163.29 17.4367 163.258C17.3247 163.218 17.2087 163.174 17.0887 163.126V165.658H15.9847V156.958ZM18.8047 157.714C18.3247 157.714 17.9487 157.834 17.6767 158.074C17.4047 158.314 17.2087 158.682 17.0887 159.178V162.082C17.2727 162.21 17.4727 162.31 17.6887 162.382C17.9047 162.454 18.1807 162.49 18.5167 162.49C19.1647 162.49 19.6727 162.278 20.0407 161.854C20.4087 161.43 20.5927 160.798 20.5927 159.958C20.5927 159.278 20.4567 158.734 20.1847 158.326C19.9127 157.918 19.4527 157.714 18.8047 157.714ZM25.3313 160.426H24.6473V163.258H23.5433V156.958H24.6473V159.826L25.3073 159.61L27.4553 156.958H28.6673L26.6153 159.406H26.6273L25.9793 159.874L26.7593 160.414L28.9793 163.258H27.5873L25.3313 160.426ZM35.398 159.442H34.81V163.258H33.61V154.858H34.81V158.722L35.362 158.554L38.386 154.858H39.754L36.73 158.458L36.166 158.866L36.826 159.346L40.162 163.258H38.65L35.398 159.442ZM43.5813 160.942L43.9533 162.154H44.1093L44.4093 160.93L45.7173 156.958H46.8453L44.7813 162.658C44.6293 163.05 44.4733 163.43 44.3133 163.798C44.1613 164.166 43.9893 164.49 43.7973 164.77C43.6133 165.058 43.4053 165.286 43.1733 165.454C42.9493 165.63 42.6893 165.718 42.3933 165.718C42.0733 165.718 41.8013 165.682 41.5773 165.61L41.7573 164.674C41.8773 164.714 41.9973 164.734 42.1173 164.734C42.2773 164.734 42.4213 164.714 42.5493 164.674C42.6853 164.634 42.8093 164.562 42.9213 164.458C43.0333 164.354 43.1333 164.206 43.2213 164.014C43.3173 163.83 43.4053 163.59 43.4853 163.294L40.6653 156.958H41.9733L43.5813 160.942ZM51.6283 157.894H49.5883L49.5643 158.254C49.5083 159.046 49.4403 159.758 49.3603 160.39C49.2883 161.014 49.1803 161.546 49.0363 161.986C48.8923 162.418 48.7003 162.75 48.4603 162.982C48.2203 163.206 47.9083 163.318 47.5243 163.318C47.3483 163.318 47.1923 163.306 47.0563 163.282C46.9203 163.266 46.8043 163.238 46.7083 163.198L46.8763 162.19C46.9803 162.222 47.0963 162.238 47.2243 162.238C47.4163 162.238 47.5883 162.17 47.7403 162.034C47.8923 161.89 48.0243 161.626 48.1363 161.242C48.2483 160.858 48.3403 160.322 48.4123 159.634C48.4843 158.946 48.5363 158.054 48.5683 156.958H52.7323V163.258H51.6283V157.894ZM55.9481 162.322C56.2841 162.37 56.6241 162.394 56.9681 162.394C57.5521 162.394 57.9801 162.294 58.2521 162.094C58.5321 161.886 58.6721 161.602 58.6721 161.242C58.6721 160.922 58.5361 160.654 58.2641 160.438C58.0001 160.222 57.5801 160.114 57.0041 160.114C56.8521 160.114 56.6841 160.122 56.5001 160.138C56.3161 160.146 56.1321 160.17 55.9481 160.21V162.322ZM55.9481 159.37C56.2041 159.33 56.4401 159.306 56.6561 159.298C56.8721 159.282 57.0641 159.274 57.2321 159.274C57.7121 159.274 58.1161 159.322 58.4441 159.418C58.7801 159.514 59.0521 159.646 59.2601 159.814C59.4681 159.982 59.6161 160.182 59.7041 160.414C59.8001 160.638 59.8481 160.882 59.8481 161.146C59.8481 161.906 59.5961 162.462 59.0921 162.814C58.5881 163.158 57.8001 163.33 56.7281 163.33C56.3921 163.33 56.0721 163.326 55.7681 163.318C55.4641 163.31 55.1561 163.294 54.8441 163.27V156.958H55.9481V159.37ZM65.2484 157.894H63.0644V163.258H61.9604V157.894H59.7764V156.958H65.2484V157.894ZM68.261 160.942L68.633 162.154H68.789L69.089 160.93L70.397 156.958H71.525L69.461 162.658C69.309 163.05 69.153 163.43 68.993 163.798C68.841 164.166 68.669 164.49 68.477 164.77C68.293 165.058 68.085 165.286 67.853 165.454C67.629 165.63 67.369 165.718 67.073 165.718C66.753 165.718 66.481 165.682 66.257 165.61L66.437 164.674C66.557 164.714 66.677 164.734 66.797 164.734C66.957 164.734 67.101 164.714 67.229 164.674C67.365 164.634 67.489 164.562 67.601 164.458C67.713 164.354 67.813 164.206 67.901 164.014C67.997 163.83 68.085 163.59 68.165 163.294L65.345 156.958H66.653L68.261 160.942ZM72.68 156.958H73.424L73.64 157.762H73.748C73.964 157.45 74.244 157.21 74.588 157.042C74.932 156.866 75.32 156.778 75.752 156.778C76.664 156.778 77.344 157.034 77.792 157.546C78.24 158.05 78.464 158.858 78.464 159.97C78.464 160.498 78.388 160.978 78.236 161.41C78.092 161.834 77.88 162.198 77.6 162.502C77.328 162.798 76.992 163.026 76.592 163.186C76.2 163.346 75.76 163.426 75.272 163.426C75.112 163.426 74.964 163.418 74.828 163.402C74.7 163.394 74.58 163.374 74.468 163.342C74.356 163.318 74.244 163.29 74.132 163.258C74.02 163.218 73.904 163.174 73.784 163.126V165.658H72.68V156.958ZM75.5 157.714C75.02 157.714 74.644 157.834 74.372 158.074C74.1 158.314 73.904 158.682 73.784 159.178V162.082C73.968 162.21 74.168 162.31 74.384 162.382C74.6 162.454 74.876 162.49 75.212 162.49C75.86 162.49 76.368 162.278 76.736 161.854C77.104 161.43 77.288 160.798 77.288 159.958C77.288 159.278 77.152 158.734 76.88 158.326C76.608 157.918 76.148 157.714 75.5 157.714ZM84.5946 159.658L84.7626 158.41H84.6306L84.0426 159.586L81.0906 163.258H80.2386V156.958H81.3426V160.678L81.2586 161.782H81.3906L81.9426 160.714L84.8346 156.958H85.6986V163.258H84.5946V159.658Z" fill="#474746"/>
<path d="M272.58 228.32C272.58 233.98 274.88 239.11 278.59 242.82C282.3 246.53 287.43 248.83 293.09 248.83C304.42 248.83 313.6 239.65 313.6 228.32C313.6 222.66 311.3 217.53 307.59 213.82C303.88 210.11 298.75 207.81 293.09 207.81C281.77 207.81 272.58 216.99 272.58 228.32Z" fill="white"/>
<path d="M293.09 212.85C284.55 212.85 277.63 219.77 277.63 228.31C277.63 232.58 279.36 236.45 282.16 239.24L304.03 217.37C301.23 214.58 297.36 212.85 293.09 212.85Z" fill="#E62139"/>
<path d="M293.09 243.78C301.63 243.78 308.55 236.86 308.55 228.32C308.55 224.05 306.82 220.18 304.02 217.39L282.15 239.26C284.96 242.05 288.82 243.78 293.09 243.78Z" fill="#FBB924"/>
<path d="M359.2 142.22C359.2 147.88 361.5 153.01 365.21 156.72C368.92 160.43 374.05 162.73 379.71 162.73C391.04 162.73 400.22 153.55 400.22 142.22C400.22 136.56 397.92 131.43 394.21 127.72C390.5 124.01 385.37 121.71 379.71 121.71C368.39 121.71 359.2 130.89 359.2 142.22Z" fill="white"/>
<path d="M379.71 126.76C371.17 126.76 364.25 133.68 364.25 142.22C364.25 146.49 365.98 150.36 368.78 153.15L390.65 131.28C387.85 128.49 383.98 126.76 379.71 126.76Z" fill="#E62139"/>
<path d="M379.71 157.69C388.25 157.69 395.17 150.77 395.17 142.23C395.17 137.96 393.44 134.09 390.64 131.3L368.77 153.17C371.58 155.95 375.44 157.69 379.71 157.69Z" fill="#FBB924"/>
<path d="M293.09 343.53C298.011 343.53 302 339.541 302 334.62C302 329.699 298.011 325.71 293.09 325.71C288.169 325.71 284.18 329.699 284.18 334.62C284.18 339.541 288.169 343.53 293.09 343.53Z" fill="#FBB924"/>
<path d="M293.09 345.34C287.18 345.34 282.37 340.53 282.37 334.62C282.37 328.71 287.18 323.9 293.09 323.9C299 323.9 303.81 328.71 303.81 334.62C303.81 340.53 299 345.34 293.09 345.34ZM293.09 327.52C289.17 327.52 285.99 330.71 285.99 334.62C285.99 338.54 289.18 341.72 293.09 341.72C297 341.72 300.19 338.53 300.19 334.62C300.19 330.7 297.01 327.52 293.09 327.52Z" fill="white"/>
<path d="M316.043 339.161C315.779 339.353 315.443 339.485 315.035 339.557C314.627 339.637 314.195 339.677 313.739 339.677C313.203 339.677 312.691 339.593 312.203 339.425C311.723 339.249 311.299 338.985 310.931 338.633C310.563 338.273 310.271 337.821 310.055 337.277C309.839 336.725 309.731 336.073 309.731 335.321C309.731 334.537 309.851 333.869 310.091 333.317C310.331 332.765 310.643 332.317 311.027 331.973C311.411 331.621 311.843 331.365 312.323 331.205C312.803 331.045 313.279 330.965 313.751 330.965C314.279 330.965 314.711 330.993 315.047 331.049C315.383 331.105 315.667 331.177 315.899 331.265L315.635 332.297C315.243 332.113 314.647 332.021 313.847 332.021C313.487 332.021 313.135 332.081 312.791 332.201C312.455 332.313 312.151 332.501 311.879 332.765C311.615 333.021 311.403 333.361 311.243 333.785C311.083 334.201 311.003 334.713 311.003 335.321C311.003 335.865 311.079 336.345 311.231 336.761C311.383 337.169 311.591 337.513 311.855 337.793C312.127 338.065 312.443 338.273 312.803 338.417C313.171 338.553 313.571 338.621 314.003 338.621C314.395 338.621 314.735 338.585 315.023 338.513C315.311 338.441 315.555 338.349 315.755 338.237L316.043 339.161ZM321.257 334.157H319.073V339.521H317.969V334.157H315.785V333.221H321.257V334.157ZM322.314 333.221H323.058L323.274 334.025H323.382C323.598 333.713 323.878 333.473 324.222 333.305C324.566 333.129 324.954 333.041 325.386 333.041C326.298 333.041 326.978 333.297 327.426 333.809C327.874 334.313 328.098 335.121 328.098 336.233C328.098 336.761 328.022 337.241 327.87 337.673C327.726 338.097 327.514 338.461 327.234 338.765C326.962 339.061 326.626 339.289 326.226 339.449C325.834 339.609 325.394 339.689 324.906 339.689C324.746 339.689 324.598 339.681 324.462 339.665C324.334 339.657 324.214 339.637 324.102 339.605C323.99 339.581 323.878 339.553 323.766 339.521C323.654 339.481 323.538 339.437 323.418 339.389V341.921H322.314V333.221ZM325.134 333.977C324.654 333.977 324.278 334.097 324.006 334.337C323.734 334.577 323.538 334.945 323.418 335.441V338.345C323.602 338.473 323.802 338.573 324.018 338.645C324.234 338.717 324.51 338.753 324.846 338.753C325.494 338.753 326.002 338.541 326.37 338.117C326.738 337.693 326.922 337.061 326.922 336.221C326.922 335.541 326.786 334.997 326.514 334.589C326.242 334.181 325.782 333.977 325.134 333.977ZM334.229 335.921L334.397 334.673H334.265L333.677 335.849L330.725 339.521H329.873V333.221H330.977V336.941L330.893 338.045H331.025L331.577 336.977L334.469 333.221H335.333V339.521H334.229V335.921ZM341.799 335.921L341.967 334.673H341.835L341.247 335.849L338.295 339.521H337.443V333.221H338.547V336.941L338.463 338.045H338.595L339.147 336.977L342.039 333.221H342.903V339.521H341.799V335.921ZM339.147 330.977C339.187 331.153 339.243 331.293 339.315 331.397C339.387 331.501 339.471 331.581 339.567 331.637C339.663 331.685 339.771 331.717 339.891 331.733C340.019 331.741 340.151 331.745 340.287 331.745C340.423 331.745 340.551 331.737 340.671 331.721C340.799 331.705 340.911 331.669 341.007 331.613C341.103 331.557 341.187 331.481 341.259 331.385C341.331 331.289 341.387 331.157 341.427 330.989L342.291 331.241C342.203 331.713 341.971 332.045 341.595 332.237C341.227 332.429 340.783 332.525 340.263 332.525C340.015 332.525 339.775 332.505 339.543 332.465C339.311 332.425 339.099 332.357 338.907 332.261C338.723 332.165 338.563 332.041 338.427 331.889C338.299 331.729 338.211 331.529 338.163 331.289L339.147 330.977ZM349.765 339.089C349.485 339.289 349.157 339.437 348.781 339.533C348.405 339.637 348.009 339.689 347.593 339.689C347.065 339.689 346.613 339.609 346.237 339.449C345.869 339.289 345.569 339.065 345.337 338.777C345.105 338.489 344.937 338.141 344.833 337.733C344.729 337.325 344.677 336.873 344.677 336.377C344.677 335.313 344.933 334.493 345.445 333.917C345.965 333.333 346.709 333.041 347.677 333.041C348.101 333.041 348.469 333.081 348.781 333.161C349.093 333.233 349.373 333.325 349.621 333.437L349.333 334.337C349.117 334.225 348.881 334.137 348.625 334.073C348.377 334.009 348.105 333.977 347.809 333.977C346.505 333.977 345.853 334.777 345.853 336.377C345.853 336.681 345.889 336.977 345.961 337.265C346.033 337.545 346.149 337.797 346.309 338.021C346.469 338.237 346.677 338.413 346.933 338.549C347.197 338.685 347.517 338.753 347.893 338.753C348.229 338.753 348.521 338.709 348.769 338.621C349.025 338.525 349.237 338.413 349.405 338.285L349.765 339.089ZM352.469 338.585C352.805 338.633 353.145 338.657 353.489 338.657C354.073 338.657 354.501 338.557 354.773 338.357C355.053 338.149 355.193 337.865 355.193 337.505C355.193 337.185 355.057 336.917 354.785 336.701C354.521 336.485 354.101 336.377 353.525 336.377C353.373 336.377 353.205 336.385 353.021 336.401C352.837 336.409 352.653 336.433 352.469 336.473V338.585ZM352.469 335.633C352.725 335.593 352.961 335.569 353.177 335.561C353.393 335.545 353.585 335.537 353.753 335.537C354.233 335.537 354.637 335.585 354.965 335.681C355.301 335.777 355.573 335.909 355.781 336.077C355.989 336.245 356.137 336.445 356.225 336.677C356.321 336.901 356.369 337.145 356.369 337.409C356.369 338.169 356.117 338.725 355.613 339.077C355.109 339.421 354.321 339.593 353.249 339.593C352.913 339.593 352.593 339.589 352.289 339.581C351.985 339.573 351.677 339.557 351.365 339.533V333.221H352.469V335.633ZM359.575 336.689H358.891V339.521H357.787V333.221H358.891V336.089L359.551 335.873L361.699 333.221H362.911L360.859 335.669H360.871L360.223 336.137L361.003 336.677L363.223 339.521H361.831L359.575 336.689ZM368.705 335.921L368.873 334.673H368.741L368.153 335.849L365.201 339.521H364.349V333.221H365.453V336.941L365.369 338.045H365.501L366.053 336.977L368.945 333.221H369.809V339.521H368.705V335.921ZM376.276 335.921L376.444 334.673H376.312L375.724 335.849L372.772 339.521H371.92V333.221H373.024V336.941L372.94 338.045H373.072L373.624 336.977L376.516 333.221H377.38V339.521H376.276V335.921ZM373.624 330.977C373.664 331.153 373.72 331.293 373.792 331.397C373.864 331.501 373.948 331.581 374.044 331.637C374.14 331.685 374.248 331.717 374.368 331.733C374.496 331.741 374.628 331.745 374.764 331.745C374.9 331.745 375.028 331.737 375.148 331.721C375.276 331.705 375.388 331.669 375.484 331.613C375.58 331.557 375.664 331.481 375.736 331.385C375.808 331.289 375.864 331.157 375.904 330.989L376.768 331.241C376.68 331.713 376.448 332.045 376.072 332.237C375.704 332.429 375.26 332.525 374.74 332.525C374.492 332.525 374.252 332.505 374.02 332.465C373.788 332.425 373.576 332.357 373.384 332.261C373.2 332.165 373.04 332.041 372.904 331.889C372.776 331.729 372.688 331.529 372.64 331.289L373.624 330.977ZM382.982 333.221H383.726L383.942 334.025H384.05C384.266 333.713 384.546 333.473 384.89 333.305C385.234 333.129 385.622 333.041 386.054 333.041C386.966 333.041 387.646 333.297 388.094 333.809C388.542 334.313 388.766 335.121 388.766 336.233C388.766 336.761 388.69 337.241 388.538 337.673C388.394 338.097 388.182 338.461 387.902 338.765C387.63 339.061 387.294 339.289 386.894 339.449C386.502 339.609 386.062 339.689 385.574 339.689C385.414 339.689 385.266 339.681 385.13 339.665C385.002 339.657 384.882 339.637 384.77 339.605C384.658 339.581 384.546 339.553 384.434 339.521C384.322 339.481 384.206 339.437 384.086 339.389V341.921H382.982V333.221ZM385.802 333.977C385.322 333.977 384.946 334.097 384.674 334.337C384.402 334.577 384.206 334.945 384.086 335.441V338.345C384.27 338.473 384.47 338.573 384.686 338.645C384.902 338.717 385.178 338.753 385.514 338.753C386.162 338.753 386.67 338.541 387.038 338.117C387.406 337.693 387.59 337.061 387.59 336.221C387.59 335.541 387.454 334.997 387.182 334.589C386.91 334.181 386.45 333.977 385.802 333.977ZM394.897 335.921L395.065 334.673H394.933L394.345 335.849L391.393 339.521H390.541V333.221H391.645V336.941L391.561 338.045H391.693L392.245 336.977L395.137 333.221H396.001V339.521H394.897V335.921ZM402.383 336.773H399.215V339.521H398.111V333.221H399.215V335.789H402.383V333.221H403.487V339.521H402.383V336.773ZM405.263 336.377C405.263 335.857 405.331 335.393 405.467 334.985C405.603 334.569 405.803 334.217 406.067 333.929C406.331 333.641 406.651 333.421 407.027 333.269C407.411 333.117 407.847 333.041 408.335 333.041C408.847 333.041 409.295 333.125 409.679 333.293C410.063 333.461 410.383 333.697 410.639 334.001C410.895 334.297 411.083 334.649 411.203 335.057C411.331 335.457 411.395 335.897 411.395 336.377C411.395 336.889 411.323 337.349 411.179 337.757C411.043 338.165 410.843 338.513 410.579 338.801C410.323 339.089 410.003 339.309 409.619 339.461C409.243 339.613 408.815 339.689 408.335 339.689C407.807 339.689 407.351 339.605 406.967 339.437C406.583 339.269 406.263 339.037 406.007 338.741C405.759 338.445 405.571 338.097 405.443 337.697C405.323 337.289 405.263 336.849 405.263 336.377ZM406.439 336.377C406.439 336.673 406.471 336.965 406.535 337.253C406.607 337.533 406.719 337.785 406.871 338.009C407.023 338.233 407.219 338.413 407.459 338.549C407.699 338.685 407.995 338.753 408.347 338.753C409.595 338.753 410.219 337.961 410.219 336.377C410.219 336.065 410.183 335.765 410.111 335.477C410.047 335.189 409.939 334.937 409.787 334.721C409.643 334.497 409.451 334.317 409.211 334.181C408.971 334.045 408.683 333.977 408.347 333.977C407.723 333.977 407.247 334.177 406.919 334.577C406.599 334.969 406.439 335.569 406.439 336.377ZM414.958 336.689H414.274V339.521H413.17V333.221H414.274V336.089L414.934 335.873L417.082 333.221H418.294L416.242 335.669H416.254L415.606 336.137L416.386 336.677L418.606 339.521H417.214L414.958 336.689Z" fill="#474746"/>
<path d="M169.967 249.023L170.423 248.999C170.679 248.983 170.959 248.967 171.263 248.951C171.567 248.927 171.919 248.915 172.319 248.915C173.247 248.915 173.911 249.047 174.311 249.311C174.719 249.567 174.923 249.951 174.923 250.463C174.923 250.743 174.823 251.027 174.623 251.315C174.431 251.595 174.123 251.799 173.699 251.927V252.059C174.227 252.163 174.603 252.339 174.827 252.587C175.059 252.835 175.175 253.163 175.175 253.571C175.175 254.203 174.915 254.671 174.395 254.975C173.875 255.271 173.091 255.419 172.043 255.419C171.691 255.419 171.359 255.407 171.047 255.383C170.735 255.367 170.431 255.347 170.135 255.323C170.103 255.323 170.075 255.323 170.051 255.323C170.027 255.315 169.999 255.311 169.967 255.311V249.023ZM171.071 254.459C171.247 254.483 171.419 254.503 171.587 254.519C171.755 254.527 171.963 254.531 172.211 254.531C172.843 254.531 173.299 254.451 173.579 254.291C173.859 254.123 173.999 253.851 173.999 253.475C173.999 253.323 173.971 253.183 173.915 253.055C173.859 252.927 173.767 252.819 173.639 252.731C173.511 252.643 173.335 252.575 173.111 252.527C172.895 252.471 172.627 252.443 172.307 252.443H171.071V254.459ZM172.439 251.687C172.615 251.687 172.783 251.663 172.943 251.615C173.103 251.567 173.247 251.499 173.375 251.411C173.503 251.323 173.603 251.223 173.675 251.111C173.755 250.991 173.795 250.863 173.795 250.727C173.795 250.391 173.679 250.159 173.447 250.031C173.223 249.895 172.835 249.827 172.283 249.827C172.099 249.827 171.911 249.835 171.719 249.851C171.535 249.859 171.319 249.867 171.071 249.875V251.687H172.439ZM178.907 253.007L179.279 254.219H179.435L179.735 252.995L181.043 249.023H182.171L180.107 254.723C179.955 255.115 179.799 255.495 179.639 255.863C179.487 256.231 179.315 256.555 179.123 256.835C178.939 257.123 178.731 257.351 178.499 257.519C178.275 257.695 178.015 257.783 177.719 257.783C177.399 257.783 177.127 257.747 176.903 257.675L177.083 256.739C177.203 256.779 177.323 256.799 177.443 256.799C177.603 256.799 177.747 256.779 177.875 256.739C178.011 256.699 178.135 256.627 178.247 256.523C178.359 256.419 178.459 256.271 178.547 256.079C178.643 255.895 178.731 255.655 178.811 255.359L175.991 249.023H177.299L178.907 253.007ZM186.954 249.959H184.914L184.89 250.319C184.834 251.111 184.766 251.823 184.686 252.455C184.614 253.079 184.506 253.611 184.362 254.051C184.218 254.483 184.026 254.815 183.786 255.047C183.546 255.271 183.234 255.383 182.85 255.383C182.674 255.383 182.518 255.371 182.382 255.347C182.246 255.331 182.13 255.303 182.034 255.263L182.202 254.255C182.306 254.287 182.422 254.303 182.55 254.303C182.742 254.303 182.914 254.235 183.066 254.099C183.218 253.955 183.35 253.691 183.462 253.307C183.574 252.923 183.666 252.387 183.738 251.699C183.81 251.011 183.862 250.119 183.894 249.023H188.058V255.323H186.954V249.959ZM189.738 254.711C189.738 254.479 189.81 254.295 189.954 254.159C190.106 254.023 190.302 253.955 190.542 253.955C190.782 253.955 190.974 254.023 191.118 254.159C191.27 254.295 191.346 254.479 191.346 254.711C191.346 254.927 191.27 255.107 191.118 255.251C190.974 255.395 190.782 255.467 190.542 255.467C190.302 255.467 190.106 255.395 189.954 255.251C189.81 255.107 189.738 254.927 189.738 254.711ZM198.981 254.963C198.717 255.155 198.381 255.287 197.973 255.359C197.565 255.439 197.133 255.479 196.677 255.479C196.141 255.479 195.629 255.395 195.141 255.227C194.661 255.051 194.237 254.787 193.869 254.435C193.501 254.075 193.209 253.623 192.993 253.079C192.777 252.527 192.669 251.875 192.669 251.123C192.669 250.339 192.789 249.671 193.029 249.119C193.269 248.567 193.581 248.119 193.965 247.775C194.349 247.423 194.781 247.167 195.261 247.007C195.741 246.847 196.217 246.767 196.689 246.767C197.217 246.767 197.649 246.795 197.985 246.851C198.321 246.907 198.605 246.979 198.837 247.067L198.573 248.099C198.181 247.915 197.585 247.823 196.785 247.823C196.425 247.823 196.073 247.883 195.729 248.003C195.393 248.115 195.089 248.303 194.817 248.567C194.553 248.823 194.341 249.163 194.181 249.587C194.021 250.003 193.941 250.515 193.941 251.123C193.941 251.667 194.017 252.147 194.169 252.563C194.321 252.971 194.529 253.315 194.793 253.595C195.065 253.867 195.381 254.075 195.741 254.219C196.109 254.355 196.509 254.423 196.941 254.423C197.333 254.423 197.673 254.387 197.961 254.315C198.249 254.243 198.493 254.151 198.693 254.039L198.981 254.963ZM200.445 249.419C201.165 249.075 202.057 248.903 203.121 248.903C203.601 248.903 203.985 248.967 204.273 249.095C204.569 249.215 204.797 249.371 204.957 249.563C205.117 249.755 205.221 249.971 205.269 250.211C205.325 250.443 205.353 250.675 205.353 250.907C205.353 251.347 205.337 251.791 205.305 252.239C205.273 252.679 205.257 253.159 205.257 253.679C205.257 253.983 205.269 254.279 205.293 254.567C205.325 254.847 205.373 255.107 205.437 255.347H204.633L204.333 254.387H204.213C204.125 254.507 204.017 254.631 203.889 254.759C203.761 254.879 203.609 254.987 203.433 255.083C203.257 255.179 203.053 255.259 202.821 255.323C202.597 255.387 202.337 255.419 202.041 255.419C201.745 255.419 201.473 255.379 201.225 255.299C200.977 255.211 200.761 255.091 200.577 254.939C200.401 254.787 200.261 254.603 200.157 254.387C200.053 254.163 200.001 253.915 200.001 253.643C200.001 253.283 200.077 252.971 200.229 252.707C200.389 252.443 200.593 252.227 200.841 252.059C201.089 251.891 201.369 251.767 201.681 251.687C202.001 251.607 202.317 251.567 202.629 251.567C202.877 251.567 203.085 251.571 203.253 251.579C203.429 251.587 203.573 251.599 203.685 251.615C203.805 251.623 203.905 251.635 203.985 251.651C204.065 251.659 204.137 251.667 204.201 251.675C204.217 251.555 204.229 251.451 204.237 251.363C204.245 251.275 204.249 251.163 204.249 251.027C204.249 250.803 204.225 250.615 204.177 250.463C204.129 250.311 204.049 250.191 203.937 250.103C203.833 250.007 203.689 249.939 203.505 249.899C203.321 249.859 203.097 249.839 202.833 249.839C202.681 249.839 202.513 249.851 202.329 249.875C202.145 249.899 201.961 249.935 201.777 249.983C201.593 250.023 201.409 250.075 201.225 250.139C201.049 250.203 200.889 250.271 200.745 250.343L200.445 249.419ZM204.201 252.467C204.137 252.459 204.069 252.447 203.997 252.431C203.925 252.415 203.833 252.403 203.721 252.395C203.617 252.387 203.489 252.379 203.337 252.371C203.193 252.363 203.013 252.359 202.797 252.359C202.301 252.359 201.905 252.447 201.609 252.623C201.321 252.799 201.177 253.099 201.177 253.523C201.177 253.843 201.289 254.083 201.513 254.243C201.745 254.403 202.041 254.483 202.401 254.483C202.665 254.483 202.897 254.451 203.097 254.387C203.305 254.315 203.481 254.231 203.625 254.135C203.777 254.031 203.897 253.919 203.985 253.799C204.081 253.671 204.153 253.547 204.201 253.427V252.467ZM209.29 252.491H208.606V255.323H207.502V249.023H208.606V251.891L209.266 251.675L211.414 249.023H212.626L210.574 251.471H210.586L209.938 251.939L210.718 252.479L212.938 255.323H211.546L209.29 252.491ZM218.687 254.891C218.407 255.091 218.079 255.239 217.703 255.335C217.327 255.439 216.931 255.491 216.515 255.491C215.987 255.491 215.535 255.411 215.159 255.251C214.791 255.091 214.491 254.867 214.259 254.579C214.027 254.291 213.859 253.943 213.755 253.535C213.651 253.127 213.599 252.675 213.599 252.179C213.599 251.115 213.855 250.295 214.367 249.719C214.887 249.135 215.631 248.843 216.599 248.843C217.023 248.843 217.391 248.883 217.703 248.963C218.015 249.035 218.295 249.127 218.543 249.239L218.255 250.139C218.039 250.027 217.803 249.939 217.547 249.875C217.299 249.811 217.027 249.779 216.731 249.779C215.427 249.779 214.775 250.579 214.775 252.179C214.775 252.483 214.811 252.779 214.883 253.067C214.955 253.347 215.071 253.599 215.231 253.823C215.391 254.039 215.599 254.215 215.855 254.351C216.119 254.487 216.439 254.555 216.815 254.555C217.151 254.555 217.443 254.511 217.691 254.423C217.947 254.327 218.159 254.215 218.327 254.087L218.687 254.891ZM220.215 249.419C220.935 249.075 221.827 248.903 222.891 248.903C223.371 248.903 223.755 248.967 224.043 249.095C224.339 249.215 224.567 249.371 224.727 249.563C224.887 249.755 224.991 249.971 225.039 250.211C225.095 250.443 225.123 250.675 225.123 250.907C225.123 251.347 225.107 251.791 225.075 252.239C225.043 252.679 225.027 253.159 225.027 253.679C225.027 253.983 225.039 254.279 225.063 254.567C225.095 254.847 225.143 255.107 225.207 255.347H224.403L224.103 254.387H223.983C223.895 254.507 223.787 254.631 223.659 254.759C223.531 254.879 223.379 254.987 223.203 255.083C223.027 255.179 222.823 255.259 222.591 255.323C222.367 255.387 222.107 255.419 221.811 255.419C221.515 255.419 221.243 255.379 220.995 255.299C220.747 255.211 220.531 255.091 220.347 254.939C220.171 254.787 220.031 254.603 219.927 254.387C219.823 254.163 219.771 253.915 219.771 253.643C219.771 253.283 219.847 252.971 219.999 252.707C220.159 252.443 220.363 252.227 220.611 252.059C220.859 251.891 221.139 251.767 221.451 251.687C221.771 251.607 222.087 251.567 222.399 251.567C222.647 251.567 222.855 251.571 223.023 251.579C223.199 251.587 223.343 251.599 223.455 251.615C223.575 251.623 223.675 251.635 223.755 251.651C223.835 251.659 223.907 251.667 223.971 251.675C223.987 251.555 223.999 251.451 224.007 251.363C224.015 251.275 224.019 251.163 224.019 251.027C224.019 250.803 223.995 250.615 223.947 250.463C223.899 250.311 223.819 250.191 223.707 250.103C223.603 250.007 223.459 249.939 223.275 249.899C223.091 249.859 222.867 249.839 222.603 249.839C222.451 249.839 222.283 249.851 222.099 249.875C221.915 249.899 221.731 249.935 221.547 249.983C221.363 250.023 221.179 250.075 220.995 250.139C220.819 250.203 220.659 250.271 220.515 250.343L220.215 249.419ZM223.971 252.467C223.907 252.459 223.839 252.447 223.767 252.431C223.695 252.415 223.603 252.403 223.491 252.395C223.387 252.387 223.259 252.379 223.107 252.371C222.963 252.363 222.783 252.359 222.567 252.359C222.071 252.359 221.675 252.447 221.379 252.623C221.091 252.799 220.947 253.099 220.947 253.523C220.947 253.843 221.059 254.083 221.283 254.243C221.515 254.403 221.811 254.483 222.171 254.483C222.435 254.483 222.667 254.451 222.867 254.387C223.075 254.315 223.251 254.231 223.395 254.135C223.547 254.031 223.667 253.919 223.755 253.799C223.851 253.671 223.923 253.547 223.971 253.427V252.467ZM231.327 249.959H228.375V255.323H227.271V249.023H231.327V249.959ZM232.309 249.419C233.029 249.075 233.921 248.903 234.985 248.903C235.465 248.903 235.849 248.967 236.137 249.095C236.433 249.215 236.661 249.371 236.821 249.563C236.981 249.755 237.085 249.971 237.133 250.211C237.189 250.443 237.217 250.675 237.217 250.907C237.217 251.347 237.201 251.791 237.169 252.239C237.137 252.679 237.121 253.159 237.121 253.679C237.121 253.983 237.133 254.279 237.157 254.567C237.189 254.847 237.237 255.107 237.301 255.347H236.497L236.197 254.387H236.077C235.989 254.507 235.881 254.631 235.753 254.759C235.625 254.879 235.473 254.987 235.297 255.083C235.121 255.179 234.917 255.259 234.685 255.323C234.461 255.387 234.201 255.419 233.905 255.419C233.609 255.419 233.337 255.379 233.089 255.299C232.841 255.211 232.625 255.091 232.441 254.939C232.265 254.787 232.125 254.603 232.021 254.387C231.917 254.163 231.865 253.915 231.865 253.643C231.865 253.283 231.941 252.971 232.093 252.707C232.253 252.443 232.457 252.227 232.705 252.059C232.953 251.891 233.233 251.767 233.545 251.687C233.865 251.607 234.181 251.567 234.493 251.567C234.741 251.567 234.949 251.571 235.117 251.579C235.293 251.587 235.437 251.599 235.549 251.615C235.669 251.623 235.769 251.635 235.849 251.651C235.929 251.659 236.001 251.667 236.065 251.675C236.081 251.555 236.093 251.451 236.101 251.363C236.109 251.275 236.113 251.163 236.113 251.027C236.113 250.803 236.089 250.615 236.041 250.463C235.993 250.311 235.913 250.191 235.801 250.103C235.697 250.007 235.553 249.939 235.369 249.899C235.185 249.859 234.961 249.839 234.697 249.839C234.545 249.839 234.377 249.851 234.193 249.875C234.009 249.899 233.825 249.935 233.641 249.983C233.457 250.023 233.273 250.075 233.089 250.139C232.913 250.203 232.753 250.271 232.609 250.343L232.309 249.419ZM236.065 252.467C236.001 252.459 235.933 252.447 235.861 252.431C235.789 252.415 235.697 252.403 235.585 252.395C235.481 252.387 235.353 252.379 235.201 252.371C235.057 252.363 234.877 252.359 234.661 252.359C234.165 252.359 233.769 252.447 233.473 252.623C233.185 252.799 233.041 253.099 233.041 253.523C233.041 253.843 233.153 254.083 233.377 254.243C233.609 254.403 233.905 254.483 234.265 254.483C234.529 254.483 234.761 254.451 234.961 254.387C235.169 254.315 235.345 254.231 235.489 254.135C235.641 254.031 235.761 253.919 235.849 253.799C235.945 253.671 236.017 253.547 236.065 253.427V252.467ZM243.637 252.575H240.469V255.323H239.365V249.023H240.469V251.591H243.637V249.023H244.741V255.323H243.637V252.575ZM251.605 254.891C251.325 255.091 250.997 255.239 250.621 255.335C250.245 255.439 249.849 255.491 249.433 255.491C248.905 255.491 248.453 255.411 248.077 255.251C247.709 255.091 247.409 254.867 247.177 254.579C246.945 254.291 246.777 253.943 246.673 253.535C246.569 253.127 246.517 252.675 246.517 252.179C246.517 251.115 246.773 250.295 247.285 249.719C247.805 249.135 248.549 248.843 249.517 248.843C249.941 248.843 250.309 248.883 250.621 248.963C250.933 249.035 251.213 249.127 251.461 249.239L251.173 250.139C250.957 250.027 250.721 249.939 250.465 249.875C250.217 249.811 249.945 249.779 249.649 249.779C248.345 249.779 247.693 250.579 247.693 252.179C247.693 252.483 247.729 252.779 247.801 253.067C247.873 253.347 247.989 253.599 248.149 253.823C248.309 254.039 248.517 254.215 248.773 254.351C249.037 254.487 249.357 254.555 249.733 254.555C250.069 254.555 250.361 254.511 250.609 254.423C250.865 254.327 251.077 254.215 251.245 254.087L251.605 254.891ZM254.309 254.387C254.645 254.435 254.985 254.459 255.329 254.459C255.913 254.459 256.341 254.359 256.613 254.159C256.893 253.951 257.033 253.667 257.033 253.307C257.033 252.987 256.897 252.719 256.625 252.503C256.361 252.287 255.941 252.179 255.365 252.179C255.213 252.179 255.045 252.187 254.861 252.203C254.677 252.211 254.493 252.235 254.309 252.275V254.387ZM254.309 251.435C254.565 251.395 254.801 251.371 255.017 251.363C255.233 251.347 255.425 251.339 255.593 251.339C256.073 251.339 256.477 251.387 256.805 251.483C257.141 251.579 257.413 251.711 257.621 251.879C257.829 252.047 257.977 252.247 258.065 252.479C258.161 252.703 258.209 252.947 258.209 253.211C258.209 253.971 257.957 254.527 257.453 254.879C256.949 255.223 256.161 255.395 255.089 255.395C254.753 255.395 254.433 255.391 254.129 255.383C253.825 255.375 253.517 255.359 253.205 255.335V249.023H254.309V251.435ZM261.415 252.491H260.731V255.323H259.627V249.023H260.731V251.891L261.391 251.675L263.539 249.023H264.751L262.699 251.471H262.711L262.063 251.939L262.843 252.479L265.063 255.323H263.671L261.415 252.491ZM265.724 252.179C265.724 251.659 265.792 251.195 265.928 250.787C266.064 250.371 266.264 250.019 266.528 249.731C266.792 249.443 267.112 249.223 267.488 249.071C267.872 248.919 268.308 248.843 268.796 248.843C269.308 248.843 269.756 248.927 270.14 249.095C270.524 249.263 270.844 249.499 271.1 249.803C271.356 250.099 271.544 250.451 271.664 250.859C271.792 251.259 271.856 251.699 271.856 252.179C271.856 252.691 271.784 253.151 271.64 253.559C271.504 253.967 271.304 254.315 271.04 254.603C270.784 254.891 270.464 255.111 270.08 255.263C269.704 255.415 269.276 255.491 268.796 255.491C268.268 255.491 267.812 255.407 267.428 255.239C267.044 255.071 266.724 254.839 266.468 254.543C266.22 254.247 266.032 253.899 265.904 253.499C265.784 253.091 265.724 252.651 265.724 252.179ZM266.9 252.179C266.9 252.475 266.932 252.767 266.996 253.055C267.068 253.335 267.18 253.587 267.332 253.811C267.484 254.035 267.68 254.215 267.92 254.351C268.16 254.487 268.456 254.555 268.808 254.555C270.056 254.555 270.68 253.763 270.68 252.179C270.68 251.867 270.644 251.567 270.572 251.279C270.508 250.991 270.4 250.739 270.248 250.523C270.104 250.299 269.912 250.119 269.672 249.983C269.432 249.847 269.144 249.779 268.808 249.779C268.184 249.779 267.708 249.979 267.38 250.379C267.06 250.771 266.9 251.371 266.9 252.179ZM277.687 249.959H274.735V255.323H273.631V249.023H277.687V249.959ZM278.217 252.179C278.217 251.659 278.285 251.195 278.421 250.787C278.557 250.371 278.757 250.019 279.021 249.731C279.285 249.443 279.605 249.223 279.981 249.071C280.365 248.919 280.801 248.843 281.289 248.843C281.801 248.843 282.249 248.927 282.633 249.095C283.017 249.263 283.337 249.499 283.593 249.803C283.849 250.099 284.037 250.451 284.157 250.859C284.285 251.259 284.349 251.699 284.349 252.179C284.349 252.691 284.277 253.151 284.133 253.559C283.997 253.967 283.797 254.315 283.533 254.603C283.277 254.891 282.957 255.111 282.573 255.263C282.197 255.415 281.769 255.491 281.289 255.491C280.761 255.491 280.305 255.407 279.921 255.239C279.537 255.071 279.217 254.839 278.961 254.543C278.713 254.247 278.525 253.899 278.397 253.499C278.277 253.091 278.217 252.651 278.217 252.179ZM279.393 252.179C279.393 252.475 279.425 252.767 279.489 253.055C279.561 253.335 279.673 253.587 279.825 253.811C279.977 254.035 280.173 254.215 280.413 254.351C280.653 254.487 280.949 254.555 281.301 254.555C282.549 254.555 283.173 253.763 283.173 252.179C283.173 251.867 283.137 251.567 283.065 251.279C283.001 250.991 282.893 250.739 282.741 250.523C282.597 250.299 282.405 250.119 282.165 249.983C281.925 249.847 281.637 249.779 281.301 249.779C280.677 249.779 280.201 249.979 279.873 250.379C279.553 250.771 279.393 251.371 279.393 252.179Z" fill="#474746"/>
<path d="M406.929 141.11H403.833V146.474H402.729V140.174H408.033V146.474H406.929V141.11ZM413.939 141.11H411.899L411.875 141.47C411.819 142.262 411.751 142.974 411.671 143.606C411.599 144.23 411.491 144.762 411.347 145.202C411.203 145.634 411.011 145.966 410.771 146.198C410.531 146.422 410.219 146.534 409.835 146.534C409.659 146.534 409.503 146.522 409.367 146.498C409.231 146.482 409.115 146.454 409.019 146.414L409.187 145.406C409.291 145.438 409.407 145.454 409.535 145.454C409.727 145.454 409.899 145.386 410.051 145.25C410.203 145.106 410.335 144.842 410.447 144.458C410.559 144.074 410.651 143.538 410.723 142.85C410.795 142.162 410.847 141.27 410.879 140.174H415.043V146.474H413.939V141.11ZM416.723 145.862C416.723 145.63 416.795 145.446 416.939 145.31C417.091 145.174 417.287 145.106 417.527 145.106C417.767 145.106 417.959 145.174 418.103 145.31C418.255 145.446 418.331 145.63 418.331 145.862C418.331 146.078 418.255 146.258 418.103 146.402C417.959 146.546 417.767 146.618 417.527 146.618C417.287 146.618 417.091 146.546 416.939 146.402C416.795 146.258 416.723 146.078 416.723 145.862ZM429.095 146.114C428.831 146.306 428.495 146.438 428.087 146.51C427.679 146.59 427.247 146.63 426.791 146.63C426.255 146.63 425.743 146.546 425.255 146.378C424.775 146.202 424.351 145.938 423.983 145.586C423.615 145.226 423.323 144.774 423.107 144.23C422.891 143.678 422.783 143.026 422.783 142.274C422.783 141.49 422.903 140.822 423.143 140.27C423.383 139.718 423.695 139.27 424.079 138.926C424.463 138.574 424.895 138.318 425.375 138.158C425.855 137.998 426.331 137.918 426.803 137.918C427.331 137.918 427.763 137.946 428.099 138.002C428.435 138.058 428.719 138.13 428.951 138.218L428.687 139.25C428.295 139.066 427.699 138.974 426.899 138.974C426.539 138.974 426.187 139.034 425.843 139.154C425.507 139.266 425.203 139.454 424.931 139.718C424.667 139.974 424.455 140.314 424.295 140.738C424.135 141.154 424.055 141.666 424.055 142.274C424.055 142.818 424.131 143.298 424.283 143.714C424.435 144.122 424.643 144.466 424.907 144.746C425.179 145.018 425.495 145.226 425.855 145.37C426.223 145.506 426.623 145.574 427.055 145.574C427.447 145.574 427.787 145.538 428.075 145.466C428.363 145.394 428.607 145.302 428.807 145.19L429.095 146.114ZM429.874 143.33C429.874 142.81 429.942 142.346 430.078 141.938C430.214 141.522 430.414 141.17 430.678 140.882C430.942 140.594 431.262 140.374 431.638 140.222C432.022 140.07 432.458 139.994 432.946 139.994C433.458 139.994 433.906 140.078 434.29 140.246C434.674 140.414 434.994 140.65 435.25 140.954C435.506 141.25 435.694 141.602 435.814 142.01C435.942 142.41 436.006 142.85 436.006 143.33C436.006 143.842 435.934 144.302 435.79 144.71C435.654 145.118 435.454 145.466 435.19 145.754C434.934 146.042 434.614 146.262 434.23 146.414C433.854 146.566 433.426 146.642 432.946 146.642C432.418 146.642 431.962 146.558 431.578 146.39C431.194 146.222 430.874 145.99 430.618 145.694C430.37 145.398 430.182 145.05 430.054 144.65C429.934 144.242 429.874 143.802 429.874 143.33ZM431.05 143.33C431.05 143.626 431.082 143.918 431.146 144.206C431.218 144.486 431.33 144.738 431.482 144.962C431.634 145.186 431.83 145.366 432.07 145.502C432.31 145.638 432.606 145.706 432.958 145.706C434.206 145.706 434.83 144.914 434.83 143.33C434.83 143.018 434.794 142.718 434.722 142.43C434.658 142.142 434.55 141.89 434.398 141.674C434.254 141.45 434.062 141.27 433.822 141.134C433.582 140.998 433.294 140.93 432.958 140.93C432.334 140.93 431.858 141.13 431.53 141.53C431.21 141.922 431.05 142.522 431.05 143.33ZM438.584 141.446C438.88 141.046 439.212 140.762 439.58 140.594C439.956 140.426 440.416 140.342 440.96 140.342C441.8 140.342 442.452 140.594 442.916 141.098C443.388 141.602 443.624 142.338 443.624 143.306C443.624 143.858 443.552 144.346 443.408 144.77C443.272 145.186 443.072 145.534 442.808 145.814C442.544 146.086 442.224 146.294 441.848 146.438C441.472 146.574 441.048 146.642 440.576 146.642C439.552 146.642 438.78 146.33 438.26 145.706C437.748 145.082 437.492 144.102 437.492 142.766C437.492 142.046 437.532 141.434 437.612 140.93C437.692 140.426 437.808 140.006 437.96 139.67C438.12 139.334 438.308 139.07 438.524 138.878C438.748 138.678 438.996 138.526 439.268 138.422C439.54 138.318 439.836 138.246 440.156 138.206C440.484 138.166 440.832 138.13 441.2 138.098C441.664 138.058 442.036 138.014 442.316 137.966C442.596 137.918 442.824 137.834 443 137.714L443.12 138.686C442.936 138.806 442.688 138.894 442.376 138.95C442.072 138.998 441.644 139.042 441.092 139.082C440.708 139.106 440.364 139.15 440.06 139.214C439.764 139.278 439.504 139.39 439.28 139.55C439.056 139.71 438.876 139.942 438.74 140.246C438.604 140.542 438.512 140.934 438.464 141.422L438.584 141.446ZM438.668 143.474C438.668 143.778 438.704 144.066 438.776 144.338C438.848 144.602 438.96 144.838 439.112 145.046C439.272 145.246 439.472 145.406 439.712 145.526C439.952 145.646 440.236 145.706 440.564 145.706C441.82 145.706 442.448 144.942 442.448 143.414C442.448 143.11 442.412 142.83 442.34 142.574C442.276 142.31 442.172 142.082 442.028 141.89C441.892 141.698 441.712 141.55 441.488 141.446C441.272 141.334 441.016 141.278 440.72 141.278C440 141.278 439.476 141.47 439.148 141.854C438.828 142.23 438.668 142.77 438.668 143.474ZM445.061 143.33C445.061 142.81 445.129 142.346 445.265 141.938C445.401 141.522 445.601 141.17 445.865 140.882C446.129 140.594 446.449 140.374 446.825 140.222C447.209 140.07 447.645 139.994 448.133 139.994C448.645 139.994 449.093 140.078 449.477 140.246C449.861 140.414 450.181 140.65 450.437 140.954C450.693 141.25 450.881 141.602 451.001 142.01C451.129 142.41 451.193 142.85 451.193 143.33C451.193 143.842 451.121 144.302 450.977 144.71C450.841 145.118 450.641 145.466 450.377 145.754C450.121 146.042 449.801 146.262 449.417 146.414C449.041 146.566 448.613 146.642 448.133 146.642C447.605 146.642 447.149 146.558 446.765 146.39C446.381 146.222 446.061 145.99 445.805 145.694C445.557 145.398 445.369 145.05 445.241 144.65C445.121 144.242 445.061 143.802 445.061 143.33ZM446.237 143.33C446.237 143.626 446.269 143.918 446.333 144.206C446.405 144.486 446.517 144.738 446.669 144.962C446.821 145.186 447.017 145.366 447.257 145.502C447.497 145.638 447.793 145.706 448.145 145.706C449.393 145.706 450.017 144.914 450.017 143.33C450.017 143.018 449.981 142.718 449.909 142.43C449.845 142.142 449.737 141.89 449.585 141.674C449.441 141.45 449.249 141.27 449.009 141.134C448.769 140.998 448.481 140.93 448.145 140.93C447.521 140.93 447.045 141.13 446.717 141.53C446.397 141.922 446.237 142.522 446.237 143.33ZM452.967 140.174H453.711L453.927 140.978H454.035C454.251 140.666 454.531 140.426 454.875 140.258C455.219 140.082 455.607 139.994 456.039 139.994C456.951 139.994 457.631 140.25 458.079 140.762C458.527 141.266 458.751 142.074 458.751 143.186C458.751 143.714 458.675 144.194 458.523 144.626C458.379 145.05 458.167 145.414 457.887 145.718C457.615 146.014 457.279 146.242 456.879 146.402C456.487 146.562 456.047 146.642 455.559 146.642C455.399 146.642 455.251 146.634 455.115 146.618C454.987 146.61 454.867 146.59 454.755 146.558C454.643 146.534 454.531 146.506 454.419 146.474C454.307 146.434 454.191 146.39 454.071 146.342V148.874H452.967V140.174ZM455.787 140.93C455.307 140.93 454.931 141.05 454.659 141.29C454.387 141.53 454.191 141.898 454.071 142.394V145.298C454.255 145.426 454.455 145.526 454.671 145.598C454.887 145.67 455.163 145.706 455.499 145.706C456.147 145.706 456.655 145.494 457.023 145.07C457.391 144.646 457.575 144.014 457.575 143.174C457.575 142.494 457.439 141.95 457.167 141.542C456.895 141.134 456.435 140.93 455.787 140.93ZM464.798 143.726H461.63V146.474H460.526V140.174H461.63V142.742H464.798V140.174H465.902V146.474H464.798V143.726ZM467.942 140.57C468.662 140.226 469.554 140.054 470.618 140.054C471.098 140.054 471.482 140.118 471.77 140.246C472.066 140.366 472.294 140.522 472.454 140.714C472.614 140.906 472.718 141.122 472.766 141.362C472.822 141.594 472.85 141.826 472.85 142.058C472.85 142.498 472.834 142.942 472.802 143.39C472.77 143.83 472.754 144.31 472.754 144.83C472.754 145.134 472.766 145.43 472.79 145.718C472.822 145.998 472.87 146.258 472.934 146.498H472.13L471.83 145.538H471.71C471.622 145.658 471.514 145.782 471.386 145.91C471.258 146.03 471.106 146.138 470.93 146.234C470.754 146.33 470.55 146.41 470.318 146.474C470.094 146.538 469.834 146.57 469.538 146.57C469.242 146.57 468.97 146.53 468.722 146.45C468.474 146.362 468.258 146.242 468.074 146.09C467.898 145.938 467.758 145.754 467.654 145.538C467.55 145.314 467.498 145.066 467.498 144.794C467.498 144.434 467.574 144.122 467.726 143.858C467.886 143.594 468.09 143.378 468.338 143.21C468.586 143.042 468.866 142.918 469.178 142.838C469.498 142.758 469.814 142.718 470.126 142.718C470.374 142.718 470.582 142.722 470.75 142.73C470.926 142.738 471.07 142.75 471.182 142.766C471.302 142.774 471.402 142.786 471.482 142.802C471.562 142.81 471.634 142.818 471.698 142.826C471.714 142.706 471.726 142.602 471.734 142.514C471.742 142.426 471.746 142.314 471.746 142.178C471.746 141.954 471.722 141.766 471.674 141.614C471.626 141.462 471.546 141.342 471.434 141.254C471.33 141.158 471.186 141.09 471.002 141.05C470.818 141.01 470.594 140.99 470.33 140.99C470.178 140.99 470.01 141.002 469.826 141.026C469.642 141.05 469.458 141.086 469.274 141.134C469.09 141.174 468.906 141.226 468.722 141.29C468.546 141.354 468.386 141.422 468.242 141.494L467.942 140.57ZM471.698 143.618C471.634 143.61 471.566 143.598 471.494 143.582C471.422 143.566 471.33 143.554 471.218 143.546C471.114 143.538 470.986 143.53 470.834 143.522C470.69 143.514 470.51 143.51 470.294 143.51C469.798 143.51 469.402 143.598 469.106 143.774C468.818 143.95 468.674 144.25 468.674 144.674C468.674 144.994 468.786 145.234 469.01 145.394C469.242 145.554 469.538 145.634 469.898 145.634C470.162 145.634 470.394 145.602 470.594 145.538C470.802 145.466 470.978 145.382 471.122 145.286C471.274 145.182 471.394 145.07 471.482 144.95C471.578 144.822 471.65 144.698 471.698 144.578V143.618Z" fill="#474746"/>
<path d="M171.86 232.03L84.88 145.05L87.95 141.98L173.66 227.69" fill="#E62139"/>
<path d="M84.88 151.13C89.8009 151.13 93.79 147.141 93.79 142.22C93.79 137.299 89.8009 133.31 84.88 133.31C79.9591 133.31 75.97 137.299 75.97 142.22C75.97 147.141 79.9591 151.13 84.88 151.13Z" fill="#E62139"/>
<path d="M84.88 152.94C78.97 152.94 74.16 148.13 74.16 142.22C74.16 136.31 78.97 131.5 84.88 131.5C90.79 131.5 95.6 136.31 95.6 142.22C95.6 148.13 90.79 152.94 84.88 152.94ZM84.88 135.12C80.96 135.12 77.78 138.31 77.78 142.22C77.78 146.13 80.97 149.32 84.88 149.32C88.79 149.32 91.98 146.13 91.98 142.22C91.98 138.31 88.79 135.12 84.88 135.12Z" fill="white"/>
<path d="M171.26 236.62C176.181 236.62 180.17 232.631 180.17 227.71C180.17 222.789 176.181 218.8 171.26 218.8C166.339 218.8 162.35 222.789 162.35 227.71C162.35 232.631 166.339 236.62 171.26 236.62Z" fill="#E62139"/>
<path d="M171.26 238.43C165.35 238.43 160.54 233.62 160.54 227.71C160.54 221.8 165.35 216.99 171.26 216.99C177.17 216.99 181.98 221.8 181.98 227.71C181.98 233.62 177.17 238.43 171.26 238.43ZM171.26 220.61C167.34 220.61 164.16 223.8 164.16 227.71C164.16 231.62 167.35 234.81 171.26 234.81C175.17 234.81 178.36 231.62 178.36 227.71C178.36 223.8 175.18 220.61 171.26 220.61Z" fill="white"/>
<path d="M146.02 76.58L312.04 10.72" stroke="#035B82" stroke-width="3.685" stroke-miterlimit="10"/>
<path d="M146.02 85.4902C150.941 85.4902 154.93 81.501 154.93 76.5802C154.93 71.6593 150.941 67.6702 146.02 67.6702C141.099 67.6702 137.11 71.6593 137.11 76.5802C137.11 81.501 141.099 85.4902 146.02 85.4902Z" fill="#035B82"/>
<path d="M146.02 87.2901C140.11 87.2901 135.3 82.4801 135.3 76.5701C135.3 70.6601 140.11 65.8501 146.02 65.8501C151.93 65.8501 156.74 70.6601 156.74 76.5701C156.74 82.4901 151.93 87.2901 146.02 87.2901ZM146.02 69.4801C142.1 69.4801 138.92 72.6701 138.92 76.5801C138.92 80.5001 142.11 83.6801 146.02 83.6801C149.93 83.6801 153.12 80.4901 153.12 76.5801C153.12 72.6601 149.94 69.4801 146.02 69.4801Z" fill="white"/>
<path d="M312.04 19.6301C316.961 19.6301 320.95 15.6409 320.95 10.7201C320.95 5.7992 316.961 1.81006 312.04 1.81006C307.119 1.81006 303.13 5.7992 303.13 10.7201C303.13 15.6409 307.119 19.6301 312.04 19.6301Z" fill="#035B82"/>
<path d="M312.04 21.44C306.13 21.44 301.32 16.63 301.32 10.72C301.32 4.81 306.13 0 312.04 0C317.95 0 322.76 4.81 322.76 10.72C322.76 16.63 317.95 21.44 312.04 21.44ZM312.04 3.62C308.12 3.62 304.94 6.81 304.94 10.72C304.94 14.63 308.13 17.82 312.04 17.82C315.96 17.82 319.14 14.63 319.14 10.72C319.14 6.8 315.96 3.62 312.04 3.62Z" fill="white"/>
</svg>
