<?xml version="1.0" encoding="utf-8"?>
<!-- Generator: Adobe Illustrator 23.0.1, SVG Export Plug-In . SVG Version: 6.00 Build 0)  -->
<svg version="1.1" id="Layer_1" xmlns="http://www.w3.org/2000/svg" xmlns:xlink="http://www.w3.org/1999/xlink" x="0px" y="0px"
	 viewBox="0 0 475 346" style="enable-background:new 0 0 475 346;" xml:space="preserve">
<style type="text/css">
	.st0{fill:none;stroke:#FBB924;stroke-width:3.685;stroke-miterlimit:10;}
	.st1{fill:none;stroke:#E62139;stroke-width:3.685;stroke-miterlimit:10;}
	.st2{fill:#FBB924;}
	.st3{fill:#035B82;}
	.st4{fill:#FFFFFF;}
	.st5{fill:#474746;}
	.st6{fill:#E62139;}
	.st7{fill:none;stroke:#035B82;stroke-width:3.685;stroke-miterlimit:10;}
</style>
<g>
	<path class="st0" d="M261.4,309.8L334,148.6"/>
	<path class="st1" d="M87.3,148.9L261.4,220l-99.6,0.4c-0.5,0-0.6-0.7-0.2-0.9L334,148.9"/>
	<path class="st1" d="M87.3,148.9H334"/>
	<path class="st2" d="M263.5,309.8h-3.6v-87.2l74.1-74.1l2.6,2.6l-73.1,73.1V309.8z"/>
	<path class="st3" d="M222.2,92.5h-85.6v3h85.6V92.5z"/>
	<path class="st3" d="M276.2,37.9L221.1,93l2.1,2.1L278.3,40L276.2,37.9z"/>
	<path class="st3" d="M222.2,101.5c4.1,0,7.5-3.3,7.5-7.5c0-4.1-3.3-7.5-7.5-7.5c-4.1,0-7.5,3.3-7.5,7.5
		C214.7,98.2,218.1,101.5,222.2,101.5z"/>
	<path class="st4" d="M222.2,103c-4.9,0-9-4-9-9c0-4.9,4-9,9-9c4.9,0,9,4,9,9C231.1,99,227.1,103,222.2,103z M222.2,88.1
		c-3.3,0-5.9,2.7-5.9,5.9c0,3.3,2.7,5.9,5.9,5.9c3.3,0,5.9-2.7,5.9-5.9C228.1,90.8,225.4,88.1,222.2,88.1z"/>
	<path class="st5" d="M207.5,106.2l0.4,0c0.2,0,0.4,0,0.7,0c0.3,0,0.5,0,0.9,0c0.8,0,1.3,0.1,1.7,0.3c0.3,0.2,0.5,0.5,0.5,1
		c0,0.2-0.1,0.5-0.3,0.7c-0.2,0.2-0.4,0.4-0.8,0.5v0.1c0.4,0.1,0.8,0.2,0.9,0.4c0.2,0.2,0.3,0.5,0.3,0.8c0,0.5-0.2,0.9-0.7,1.2
		c-0.4,0.2-1.1,0.4-2,0.4c-0.3,0-0.6,0-0.8,0c-0.3,0-0.5,0-0.8-0.1c0,0-0.1,0-0.1,0c0,0,0,0-0.1,0V106.2z M208.4,110.7
		c0.1,0,0.3,0,0.4,0.1c0.1,0,0.3,0,0.5,0c0.5,0,0.9-0.1,1.1-0.2c0.2-0.1,0.4-0.4,0.4-0.7c0-0.1,0-0.2-0.1-0.4c0-0.1-0.1-0.2-0.2-0.3
		s-0.3-0.1-0.4-0.2c-0.2,0-0.4-0.1-0.7-0.1h-1V110.7z M209.6,108.4c0.1,0,0.3,0,0.4-0.1s0.3-0.1,0.4-0.2c0.1-0.1,0.2-0.2,0.3-0.3
		c0.1-0.1,0.1-0.2,0.1-0.3c0-0.3-0.1-0.5-0.3-0.6c-0.2-0.1-0.5-0.2-1-0.2c-0.2,0-0.3,0-0.5,0c-0.2,0-0.3,0-0.5,0v1.5H209.6z
		 M215,109.5l0.3,1h0.1l0.3-1l1.1-3.3h0.9l-1.7,4.8c-0.1,0.3-0.3,0.6-0.4,1c-0.1,0.3-0.3,0.6-0.4,0.8c-0.2,0.2-0.3,0.4-0.5,0.6
		c-0.2,0.1-0.4,0.2-0.7,0.2c-0.3,0-0.5,0-0.7-0.1l0.2-0.8c0.1,0,0.2,0.1,0.3,0.1c0.1,0,0.3,0,0.4-0.1c0.1,0,0.2-0.1,0.3-0.2
		c0.1-0.1,0.2-0.2,0.3-0.4c0.1-0.2,0.2-0.4,0.2-0.6l-2.4-5.3h1.1L215,109.5z M221.7,107H220l0,0.3c0,0.7-0.1,1.3-0.2,1.8
		c-0.1,0.5-0.2,1-0.3,1.3c-0.1,0.4-0.3,0.6-0.5,0.8c-0.2,0.2-0.5,0.3-0.8,0.3c-0.1,0-0.3,0-0.4,0c-0.1,0-0.2,0-0.3-0.1l0.1-0.8
		c0.1,0,0.2,0,0.3,0c0.2,0,0.3-0.1,0.4-0.2c0.1-0.1,0.2-0.3,0.3-0.7c0.1-0.3,0.2-0.8,0.2-1.3c0.1-0.6,0.1-1.3,0.1-2.2h3.5v5.3h-0.9
		V107z M224.1,110.9c0-0.2,0.1-0.3,0.2-0.5c0.1-0.1,0.3-0.2,0.5-0.2c0.2,0,0.4,0.1,0.5,0.2c0.1,0.1,0.2,0.3,0.2,0.5
		c0,0.2-0.1,0.3-0.2,0.5c-0.1,0.1-0.3,0.2-0.5,0.2c-0.2,0-0.4-0.1-0.5-0.2C224.1,111.3,224.1,111.1,224.1,110.9z M234.4,111.2
		c-0.2,0.2-0.5,0.3-0.8,0.3c-0.3,0.1-0.7,0.1-1.1,0.1c-0.4,0-0.9-0.1-1.3-0.2c-0.4-0.1-0.8-0.4-1.1-0.7c-0.3-0.3-0.6-0.7-0.7-1.1
		c-0.2-0.5-0.3-1-0.3-1.6c0-0.7,0.1-1.2,0.3-1.7c0.2-0.5,0.5-0.8,0.8-1.1c0.3-0.3,0.7-0.5,1.1-0.6c0.4-0.1,0.8-0.2,1.2-0.2
		c0.4,0,0.8,0,1.1,0.1c0.3,0,0.5,0.1,0.7,0.2l-0.2,0.9c-0.3-0.2-0.8-0.2-1.5-0.2c-0.3,0-0.6,0.1-0.9,0.2c-0.3,0.1-0.5,0.3-0.8,0.5
		c-0.2,0.2-0.4,0.5-0.5,0.9c-0.1,0.3-0.2,0.8-0.2,1.3c0,0.5,0.1,0.9,0.2,1.2c0.1,0.3,0.3,0.6,0.5,0.9c0.2,0.2,0.5,0.4,0.8,0.5
		c0.3,0.1,0.6,0.2,1,0.2c0.3,0,0.6,0,0.9-0.1s0.4-0.1,0.6-0.2L234.4,111.2z M235.3,110.9c0-0.2,0.1-0.3,0.2-0.5
		c0.1-0.1,0.3-0.2,0.5-0.2c0.2,0,0.4,0.1,0.5,0.2c0.1,0.1,0.2,0.3,0.2,0.5c0,0.2-0.1,0.3-0.2,0.5c-0.1,0.1-0.3,0.2-0.5,0.2
		c-0.2,0-0.4-0.1-0.5-0.2C235.4,111.3,235.3,111.1,235.3,110.9z M245.3,108.3h-3.6v3.1h-1v-7h1v3h3.6v-3h1v7h-1V108.3z M248,106.5
		c0.6-0.3,1.3-0.4,2.2-0.4c0.4,0,0.7,0.1,1,0.2c0.2,0.1,0.4,0.2,0.6,0.4c0.1,0.2,0.2,0.3,0.3,0.5c0,0.2,0.1,0.4,0.1,0.6
		c0,0.4,0,0.7,0,1.1c0,0.4,0,0.8,0,1.2c0,0.3,0,0.5,0,0.7c0,0.2,0.1,0.5,0.1,0.7h-0.7l-0.3-0.8h-0.1c-0.1,0.1-0.2,0.2-0.3,0.3
		c-0.1,0.1-0.2,0.2-0.4,0.3c-0.1,0.1-0.3,0.1-0.5,0.2c-0.2,0.1-0.4,0.1-0.7,0.1c-0.2,0-0.5,0-0.7-0.1c-0.2-0.1-0.4-0.2-0.5-0.3
		c-0.1-0.1-0.3-0.3-0.4-0.5c-0.1-0.2-0.1-0.4-0.1-0.6c0-0.3,0.1-0.6,0.2-0.8c0.1-0.2,0.3-0.4,0.5-0.5c0.2-0.1,0.4-0.2,0.7-0.3
		c0.3-0.1,0.5-0.1,0.8-0.1c0.2,0,0.4,0,0.5,0c0.1,0,0.3,0,0.4,0c0.1,0,0.2,0,0.3,0c0.1,0,0.1,0,0.2,0c0-0.1,0-0.2,0-0.3s0-0.2,0-0.3
		c0-0.2,0-0.3-0.1-0.5c0-0.1-0.1-0.2-0.2-0.3c-0.1-0.1-0.2-0.1-0.4-0.2c-0.2,0-0.3-0.1-0.6-0.1c-0.1,0-0.3,0-0.4,0
		c-0.2,0-0.3,0.1-0.5,0.1c-0.2,0-0.3,0.1-0.5,0.1c-0.1,0.1-0.3,0.1-0.4,0.2L248,106.5z M251.1,109.1c-0.1,0-0.1,0-0.2,0
		c-0.1,0-0.1,0-0.2,0c-0.1,0-0.2,0-0.3,0c-0.1,0-0.3,0-0.5,0c-0.4,0-0.7,0.1-1,0.2c-0.2,0.1-0.4,0.4-0.4,0.8c0,0.3,0.1,0.5,0.3,0.6
		c0.2,0.1,0.4,0.2,0.7,0.2c0.2,0,0.4,0,0.6-0.1c0.2-0.1,0.3-0.1,0.4-0.2c0.1-0.1,0.2-0.2,0.3-0.3c0.1-0.1,0.1-0.2,0.2-0.3V109.1z
		 M257.1,107h-1.7l0,0.3c0,0.7-0.1,1.3-0.2,1.8c-0.1,0.5-0.2,1-0.3,1.3c-0.1,0.4-0.3,0.6-0.5,0.8c-0.2,0.2-0.5,0.3-0.8,0.3
		c-0.1,0-0.3,0-0.4,0c-0.1,0-0.2,0-0.3-0.1l0.1-0.8c0.1,0,0.2,0,0.3,0c0.2,0,0.3-0.1,0.4-0.2c0.1-0.1,0.2-0.3,0.3-0.7
		c0.1-0.3,0.2-0.8,0.2-1.3c0.1-0.6,0.1-1.3,0.1-2.2h3.5v5.3h-0.9V107z M263.4,108.4l0.1-1h-0.1l-0.5,1l-2.5,3.1h-0.7v-5.3h0.9v3.1
		l-0.1,0.9h0.1l0.5-0.9l2.4-3.1h0.7v5.3h-0.9V108.4z M266.1,106.2l0.4,0c0.2,0,0.4,0,0.7,0c0.3,0,0.5,0,0.9,0c0.8,0,1.3,0.1,1.7,0.3
		c0.3,0.2,0.5,0.5,0.5,1c0,0.2-0.1,0.5-0.3,0.7c-0.2,0.2-0.4,0.4-0.8,0.5v0.1c0.4,0.1,0.8,0.2,0.9,0.4c0.2,0.2,0.3,0.5,0.3,0.8
		c0,0.5-0.2,0.9-0.7,1.2c-0.4,0.2-1.1,0.4-2,0.4c-0.3,0-0.6,0-0.8,0c-0.3,0-0.5,0-0.8-0.1c0,0-0.1,0-0.1,0c0,0,0,0-0.1,0V106.2z
		 M267,110.7c0.1,0,0.3,0,0.4,0.1c0.1,0,0.3,0,0.5,0c0.5,0,0.9-0.1,1.1-0.2c0.2-0.1,0.4-0.4,0.4-0.7c0-0.1,0-0.2-0.1-0.4
		c0-0.1-0.1-0.2-0.2-0.3c-0.1-0.1-0.3-0.1-0.4-0.2c-0.2,0-0.4-0.1-0.7-0.1h-1V110.7z M268.2,108.4c0.1,0,0.3,0,0.4-0.1
		c0.1,0,0.3-0.1,0.4-0.2c0.1-0.1,0.2-0.2,0.3-0.3c0.1-0.1,0.1-0.2,0.1-0.3c0-0.3-0.1-0.5-0.3-0.6c-0.2-0.1-0.5-0.2-1-0.2
		c-0.2,0-0.3,0-0.5,0c-0.2,0-0.3,0-0.5,0v1.5H268.2z M271.9,106.5c0.6-0.3,1.3-0.4,2.2-0.4c0.4,0,0.7,0.1,1,0.2
		c0.2,0.1,0.4,0.2,0.6,0.4c0.1,0.2,0.2,0.3,0.3,0.5c0,0.2,0.1,0.4,0.1,0.6c0,0.4,0,0.7,0,1.1c0,0.4,0,0.8,0,1.2c0,0.3,0,0.5,0,0.7
		c0,0.2,0.1,0.5,0.1,0.7h-0.7l-0.3-0.8H275c-0.1,0.1-0.2,0.2-0.3,0.3c-0.1,0.1-0.2,0.2-0.4,0.3s-0.3,0.1-0.5,0.2
		c-0.2,0.1-0.4,0.1-0.7,0.1s-0.5,0-0.7-0.1c-0.2-0.1-0.4-0.2-0.5-0.3c-0.1-0.1-0.3-0.3-0.4-0.5c-0.1-0.2-0.1-0.4-0.1-0.6
		c0-0.3,0.1-0.6,0.2-0.8c0.1-0.2,0.3-0.4,0.5-0.5c0.2-0.1,0.4-0.2,0.7-0.3c0.3-0.1,0.5-0.1,0.8-0.1c0.2,0,0.4,0,0.5,0
		c0.1,0,0.3,0,0.4,0c0.1,0,0.2,0,0.3,0c0.1,0,0.1,0,0.2,0c0-0.1,0-0.2,0-0.3c0-0.1,0-0.2,0-0.3c0-0.2,0-0.3-0.1-0.5
		c0-0.1-0.1-0.2-0.2-0.3c-0.1-0.1-0.2-0.1-0.4-0.2s-0.3-0.1-0.6-0.1c-0.1,0-0.3,0-0.4,0s-0.3,0.1-0.5,0.1c-0.2,0-0.3,0.1-0.5,0.1
		c-0.1,0.1-0.3,0.1-0.4,0.2L271.9,106.5z M275,109.1c-0.1,0-0.1,0-0.2,0c-0.1,0-0.1,0-0.2,0c-0.1,0-0.2,0-0.3,0c-0.1,0-0.3,0-0.5,0
		c-0.4,0-0.7,0.1-1,0.2c-0.2,0.1-0.4,0.4-0.4,0.8c0,0.3,0.1,0.5,0.3,0.6c0.2,0.1,0.4,0.2,0.7,0.2c0.2,0,0.4,0,0.6-0.1
		c0.2-0.1,0.3-0.1,0.4-0.2c0.1-0.1,0.2-0.2,0.3-0.3c0.1-0.1,0.1-0.2,0.2-0.3V109.1z M281.4,108.4l0.1-1h-0.1l-0.5,1l-2.5,3.1h-0.7
		v-5.3h0.9v3.1l-0.1,0.9h0.1l0.5-0.9l2.4-3.1h0.7v5.3h-0.9V108.4z M279.2,104.3c0,0.1,0.1,0.3,0.1,0.4c0.1,0.1,0.1,0.2,0.2,0.2
		c0.1,0,0.2,0.1,0.3,0.1c0.1,0,0.2,0,0.3,0c0.1,0,0.2,0,0.3,0c0.1,0,0.2,0,0.3-0.1c0.1,0,0.2-0.1,0.2-0.2c0.1-0.1,0.1-0.2,0.1-0.3
		l0.7,0.2c-0.1,0.4-0.3,0.7-0.6,0.8c-0.3,0.2-0.7,0.2-1.1,0.2c-0.2,0-0.4,0-0.6-0.1c-0.2,0-0.4-0.1-0.5-0.2
		c-0.2-0.1-0.3-0.2-0.4-0.3c-0.1-0.1-0.2-0.3-0.2-0.5L279.2,104.3z M285.6,109.1H285v2.4h-0.9v-5.3h0.9v2.4l0.6-0.2l1.8-2.2h1
		l-1.7,2h0l-0.5,0.4l0.7,0.5l1.9,2.4h-1.2L285.6,109.1z M289.5,106.5c0.6-0.3,1.3-0.4,2.2-0.4c0.4,0,0.7,0.1,1,0.2
		c0.2,0.1,0.4,0.2,0.6,0.4c0.1,0.2,0.2,0.3,0.3,0.5c0,0.2,0.1,0.4,0.1,0.6c0,0.4,0,0.7,0,1.1c0,0.4,0,0.8,0,1.2c0,0.3,0,0.5,0,0.7
		c0,0.2,0.1,0.5,0.1,0.7H293l-0.3-0.8h-0.1c-0.1,0.1-0.2,0.2-0.3,0.3c-0.1,0.1-0.2,0.2-0.4,0.3c-0.1,0.1-0.3,0.1-0.5,0.2
		c-0.2,0.1-0.4,0.1-0.7,0.1c-0.2,0-0.5,0-0.7-0.1c-0.2-0.1-0.4-0.2-0.5-0.3c-0.1-0.1-0.3-0.3-0.4-0.5c-0.1-0.2-0.1-0.4-0.1-0.6
		c0-0.3,0.1-0.6,0.2-0.8c0.1-0.2,0.3-0.4,0.5-0.5c0.2-0.1,0.4-0.2,0.7-0.3c0.3-0.1,0.5-0.1,0.8-0.1c0.2,0,0.4,0,0.5,0
		c0.1,0,0.3,0,0.4,0c0.1,0,0.2,0,0.3,0c0.1,0,0.1,0,0.2,0c0-0.1,0-0.2,0-0.3s0-0.2,0-0.3c0-0.2,0-0.3-0.1-0.5c0-0.1-0.1-0.2-0.2-0.3
		c-0.1-0.1-0.2-0.1-0.4-0.2c-0.2,0-0.3-0.1-0.6-0.1c-0.1,0-0.3,0-0.4,0c-0.2,0-0.3,0.1-0.5,0.1c-0.2,0-0.3,0.1-0.5,0.1
		c-0.1,0.1-0.3,0.1-0.4,0.2L289.5,106.5z M292.7,109.1c-0.1,0-0.1,0-0.2,0c-0.1,0-0.1,0-0.2,0c-0.1,0-0.2,0-0.3,0
		c-0.1,0-0.3,0-0.5,0c-0.4,0-0.7,0.1-1,0.2c-0.2,0.1-0.4,0.4-0.4,0.8c0,0.3,0.1,0.5,0.3,0.6c0.2,0.1,0.4,0.2,0.7,0.2
		c0.2,0,0.4,0,0.6-0.1c0.2-0.1,0.3-0.1,0.4-0.2c0.1-0.1,0.2-0.2,0.3-0.3c0.1-0.1,0.1-0.2,0.2-0.3V109.1z"/>
	<path class="st5" d="M105.8,113.6h-0.6l-0.2-1.3h-4.4V107h0.9v4.5h2.5V107h0.9v4.5h0.9V113.6z M111.2,111.9
		c-0.2,0.2-0.5,0.3-0.9,0.4c-0.3,0.1-0.7,0.2-1.1,0.2c-0.4,0-0.8-0.1-1.2-0.2c-0.3-0.1-0.6-0.3-0.8-0.6c-0.2-0.2-0.4-0.5-0.5-0.9
		c-0.1-0.3-0.2-0.7-0.2-1.1c0-0.9,0.2-1.6,0.7-2.1c0.4-0.5,1.1-0.7,1.9-0.7c0.3,0,0.5,0,0.8,0.1c0.3,0.1,0.5,0.2,0.7,0.3
		c0.2,0.2,0.4,0.4,0.5,0.6c0.1,0.3,0.2,0.6,0.2,1.1c0,0.1,0,0.2,0,0.4c0,0.1,0,0.3,0,0.4h-3.8c0,0.6,0.2,1.1,0.4,1.4
		c0.3,0.3,0.8,0.5,1.4,0.5c0.3,0,0.5,0,0.8-0.1c0.3-0.1,0.5-0.2,0.6-0.4L111.2,111.9z M110.5,109.1c0-0.5-0.1-0.9-0.3-1.1
		c-0.2-0.2-0.5-0.3-1-0.3c-0.5,0-0.8,0.1-1.1,0.3c-0.3,0.2-0.4,0.6-0.5,1.1H110.5z M112.9,107h0.6l0.2,0.7h0.1
		c0.2-0.3,0.4-0.5,0.7-0.6c0.3-0.1,0.6-0.2,1-0.2c0.8,0,1.3,0.2,1.7,0.6c0.4,0.4,0.6,1.1,0.6,2c0,0.4-0.1,0.8-0.2,1.2
		c-0.1,0.4-0.3,0.7-0.5,0.9c-0.2,0.2-0.5,0.4-0.8,0.6c-0.3,0.1-0.7,0.2-1.1,0.2c-0.1,0-0.3,0-0.4,0c-0.1,0-0.2,0-0.3-0.1
		c-0.1,0-0.2,0-0.3-0.1c-0.1,0-0.2-0.1-0.3-0.1v2.1h-0.9V107z M115.3,107.7c-0.4,0-0.7,0.1-0.9,0.3c-0.2,0.2-0.4,0.5-0.5,0.9v2.4
		c0.2,0.1,0.3,0.2,0.5,0.3c0.2,0.1,0.4,0.1,0.7,0.1c0.5,0,1-0.2,1.3-0.5c0.3-0.4,0.5-0.9,0.5-1.6c0-0.6-0.1-1-0.3-1.4
		C116.2,107.8,115.8,107.7,115.3,107.7z M120.7,109.9h-0.6v2.4h-0.9V107h0.9v2.4l0.6-0.2l1.8-2.2h1l-1.7,2h0l-0.5,0.4l0.7,0.5
		l1.9,2.4h-1.2L120.7,109.9z M124.7,107l0.4,0c0.2,0,0.4,0,0.7,0c0.3,0,0.5,0,0.9,0c0.8,0,1.3,0.1,1.7,0.3c0.3,0.2,0.5,0.5,0.5,1
		c0,0.2-0.1,0.5-0.3,0.7c-0.2,0.2-0.4,0.4-0.8,0.5v0.1c0.4,0.1,0.8,0.2,0.9,0.4c0.2,0.2,0.3,0.5,0.3,0.8c0,0.5-0.2,0.9-0.7,1.2
		c-0.4,0.2-1.1,0.4-2,0.4c-0.3,0-0.6,0-0.8,0c-0.3,0-0.5,0-0.8-0.1c0,0-0.1,0-0.1,0c0,0,0,0-0.1,0V107z M125.6,111.6
		c0.1,0,0.3,0,0.4,0.1c0.1,0,0.3,0,0.5,0c0.5,0,0.9-0.1,1.1-0.2c0.2-0.1,0.4-0.4,0.4-0.7c0-0.1,0-0.2-0.1-0.4c0-0.1-0.1-0.2-0.2-0.3
		c-0.1-0.1-0.3-0.1-0.4-0.2c-0.2,0-0.4-0.1-0.7-0.1h-1V111.6z M126.8,109.2c0.1,0,0.3,0,0.4-0.1c0.1,0,0.3-0.1,0.4-0.2
		c0.1-0.1,0.2-0.2,0.3-0.3c0.1-0.1,0.1-0.2,0.1-0.3c0-0.3-0.1-0.5-0.3-0.6c-0.2-0.1-0.5-0.2-1-0.2c-0.2,0-0.3,0-0.5,0
		c-0.2,0-0.3,0-0.5,0v1.5H126.8z M130.5,107.4c0.6-0.3,1.3-0.4,2.2-0.4c0.4,0,0.7,0.1,1,0.2c0.2,0.1,0.4,0.2,0.6,0.4
		s0.2,0.3,0.3,0.5c0,0.2,0.1,0.4,0.1,0.6c0,0.4,0,0.7,0,1.1c0,0.4,0,0.8,0,1.2c0,0.3,0,0.5,0,0.7c0,0.2,0.1,0.5,0.1,0.7H134
		l-0.3-0.8h-0.1c-0.1,0.1-0.2,0.2-0.3,0.3c-0.1,0.1-0.2,0.2-0.4,0.3c-0.1,0.1-0.3,0.1-0.5,0.2c-0.2,0.1-0.4,0.1-0.7,0.1
		s-0.5,0-0.7-0.1c-0.2-0.1-0.4-0.2-0.5-0.3c-0.1-0.1-0.3-0.3-0.4-0.5c-0.1-0.2-0.1-0.4-0.1-0.6c0-0.3,0.1-0.6,0.2-0.8
		c0.1-0.2,0.3-0.4,0.5-0.5c0.2-0.1,0.4-0.2,0.7-0.3c0.3-0.1,0.5-0.1,0.8-0.1c0.2,0,0.4,0,0.5,0c0.1,0,0.3,0,0.4,0c0.1,0,0.2,0,0.3,0
		c0.1,0,0.1,0,0.2,0c0-0.1,0-0.2,0-0.3s0-0.2,0-0.3c0-0.2,0-0.3-0.1-0.5c0-0.1-0.1-0.2-0.2-0.3c-0.1-0.1-0.2-0.1-0.4-0.2
		c-0.2,0-0.3-0.1-0.6-0.1c-0.1,0-0.3,0-0.4,0c-0.2,0-0.3,0.1-0.5,0.1c-0.2,0-0.3,0.1-0.5,0.1c-0.1,0.1-0.3,0.1-0.4,0.2L130.5,107.4z
		 M133.6,109.9c-0.1,0-0.1,0-0.2,0c-0.1,0-0.1,0-0.2,0c-0.1,0-0.2,0-0.3,0c-0.1,0-0.3,0-0.5,0c-0.4,0-0.7,0.1-1,0.2
		c-0.2,0.1-0.4,0.4-0.4,0.8c0,0.3,0.1,0.5,0.3,0.6c0.2,0.1,0.4,0.2,0.7,0.2c0.2,0,0.4,0,0.6-0.1c0.2-0.1,0.3-0.1,0.4-0.2
		c0.1-0.1,0.2-0.2,0.3-0.3c0.1-0.1,0.1-0.2,0.2-0.3V109.9z M144.3,112c-0.2,0.2-0.5,0.3-0.8,0.3c-0.3,0.1-0.7,0.1-1.1,0.1
		c-0.4,0-0.9-0.1-1.3-0.2c-0.4-0.1-0.8-0.4-1.1-0.7c-0.3-0.3-0.6-0.7-0.7-1.1c-0.2-0.5-0.3-1-0.3-1.6c0-0.7,0.1-1.2,0.3-1.7
		c0.2-0.5,0.5-0.8,0.8-1.1c0.3-0.3,0.7-0.5,1.1-0.6c0.4-0.1,0.8-0.2,1.2-0.2c0.4,0,0.8,0,1.1,0.1c0.3,0,0.5,0.1,0.7,0.2l-0.2,0.9
		c-0.3-0.2-0.8-0.2-1.5-0.2c-0.3,0-0.6,0.1-0.9,0.2c-0.3,0.1-0.5,0.3-0.8,0.5c-0.2,0.2-0.4,0.5-0.5,0.9c-0.1,0.3-0.2,0.8-0.2,1.3
		c0,0.5,0.1,0.9,0.2,1.2c0.1,0.3,0.3,0.6,0.5,0.9c0.2,0.2,0.5,0.4,0.8,0.5c0.3,0.1,0.6,0.2,1,0.2c0.3,0,0.6,0,0.9-0.1
		c0.2-0.1,0.4-0.1,0.6-0.2L144.3,112z M145.6,107l0.4,0c0.2,0,0.4,0,0.7,0c0.3,0,0.5,0,0.9,0c0.8,0,1.3,0.1,1.7,0.3
		c0.3,0.2,0.5,0.5,0.5,1c0,0.2-0.1,0.5-0.3,0.7c-0.2,0.2-0.4,0.4-0.8,0.5v0.1c0.4,0.1,0.8,0.2,0.9,0.4c0.2,0.2,0.3,0.5,0.3,0.8
		c0,0.5-0.2,0.9-0.7,1.2c-0.4,0.2-1.1,0.4-2,0.4c-0.3,0-0.6,0-0.8,0c-0.3,0-0.5,0-0.8-0.1c0,0-0.1,0-0.1,0c0,0,0,0-0.1,0V107z
		 M146.5,111.6c0.1,0,0.3,0,0.4,0.1c0.1,0,0.3,0,0.5,0c0.5,0,0.9-0.1,1.1-0.2c0.2-0.1,0.4-0.4,0.4-0.7c0-0.1,0-0.2-0.1-0.4
		c0-0.1-0.1-0.2-0.2-0.3c-0.1-0.1-0.3-0.1-0.4-0.2c-0.2,0-0.4-0.1-0.7-0.1h-1V111.6z M147.6,109.2c0.1,0,0.3,0,0.4-0.1
		c0.1,0,0.3-0.1,0.4-0.2c0.1-0.1,0.2-0.2,0.3-0.3c0.1-0.1,0.1-0.2,0.1-0.3c0-0.3-0.1-0.5-0.3-0.6c-0.2-0.1-0.5-0.2-1-0.2
		c-0.2,0-0.3,0-0.5,0c-0.2,0-0.3,0-0.5,0v1.5H147.6z M151.1,111.8c0-0.2,0.1-0.3,0.2-0.5c0.1-0.1,0.3-0.2,0.5-0.2
		c0.2,0,0.4,0.1,0.5,0.2c0.1,0.1,0.2,0.3,0.2,0.5c0,0.2-0.1,0.3-0.2,0.5c-0.1,0.1-0.3,0.2-0.5,0.2c-0.2,0-0.4-0.1-0.5-0.2
		C151.1,112.1,151.1,112,151.1,111.8z M159.8,110.5H157l-0.7,1.8h-1l2.9-7.1h0.5l2.9,7.1h-1L159.8,110.5z M157.3,109.6h2.2l-0.8-2
		l-0.3-1.1h0l-0.3,1.1L157.3,109.6z M166.1,110h-2.6v2.3h-0.9V107h0.9v2.1h2.6V107h0.9v5.3h-0.9V110z M172.4,110h-2.6v2.3h-0.9V107
		h0.9v2.1h2.6V107h0.9v5.3h-0.9V110z M178.7,109.3l0.1-1h-0.1l-0.5,1l-2.5,3.1h-0.7V107h0.9v3.1l-0.1,0.9h0.1l0.5-0.9l2.4-3.1h0.7
		v5.3h-0.9V109.3z"/>
	<path class="st5" d="M293.3,38.1h-2.6v4.5h-0.9v-5.3h4.4v5.3h-0.9V38.1z M299.1,38.1h-1.7l0,0.3c0,0.7-0.1,1.3-0.2,1.8
		c-0.1,0.5-0.2,1-0.3,1.3c-0.1,0.4-0.3,0.6-0.5,0.8c-0.2,0.2-0.5,0.3-0.8,0.3c-0.1,0-0.3,0-0.4,0c-0.1,0-0.2,0-0.3-0.1l0.1-0.8
		c0.1,0,0.2,0,0.3,0c0.2,0,0.3-0.1,0.4-0.2c0.1-0.1,0.2-0.3,0.3-0.7c0.1-0.3,0.2-0.8,0.2-1.3c0.1-0.6,0.1-1.3,0.1-2.2h3.5v5.3h-0.9
		V38.1z M301.5,42c0-0.2,0.1-0.3,0.2-0.5c0.1-0.1,0.3-0.2,0.5-0.2c0.2,0,0.4,0.1,0.5,0.2c0.1,0.1,0.2,0.3,0.2,0.5
		c0,0.2-0.1,0.3-0.2,0.5c-0.1,0.1-0.3,0.2-0.5,0.2c-0.2,0-0.4-0.1-0.5-0.2C301.5,42.4,301.5,42.2,301.5,42z M309.2,42.3
		c-0.2,0.2-0.5,0.3-0.8,0.3c-0.3,0.1-0.7,0.1-1.1,0.1c-0.4,0-0.9-0.1-1.3-0.2c-0.4-0.1-0.8-0.4-1.1-0.7c-0.3-0.3-0.6-0.7-0.7-1.1
		c-0.2-0.5-0.3-1-0.3-1.6c0-0.7,0.1-1.2,0.3-1.7c0.2-0.5,0.5-0.8,0.8-1.1c0.3-0.3,0.7-0.5,1.1-0.6c0.4-0.1,0.8-0.2,1.2-0.2
		c0.4,0,0.8,0,1.1,0.1c0.3,0,0.5,0.1,0.7,0.2l-0.2,0.9c-0.3-0.2-0.8-0.2-1.5-0.2c-0.3,0-0.6,0.1-0.9,0.2c-0.3,0.1-0.5,0.3-0.8,0.5
		c-0.2,0.2-0.4,0.5-0.5,0.9c-0.1,0.3-0.2,0.8-0.2,1.3c0,0.5,0.1,0.9,0.2,1.2c0.1,0.3,0.3,0.6,0.5,0.9c0.2,0.2,0.5,0.4,0.8,0.5
		c0.3,0.1,0.6,0.2,1,0.2c0.3,0,0.6,0,0.9-0.1c0.2-0.1,0.4-0.1,0.6-0.2L309.2,42.3z M313.6,38.1h-1.8v4.5h-0.9v-4.5H309v-0.8h4.6
		V38.1z M314.4,37.6c0.6-0.3,1.3-0.4,2.2-0.4c0.4,0,0.7,0.1,1,0.2c0.2,0.1,0.4,0.2,0.6,0.4c0.1,0.2,0.2,0.3,0.3,0.5
		c0,0.2,0.1,0.4,0.1,0.6c0,0.4,0,0.7,0,1.1c0,0.4,0,0.8,0,1.2c0,0.3,0,0.5,0,0.7c0,0.2,0.1,0.5,0.1,0.7h-0.7l-0.3-0.8h-0.1
		c-0.1,0.1-0.2,0.2-0.3,0.3c-0.1,0.1-0.2,0.2-0.4,0.3s-0.3,0.1-0.5,0.2c-0.2,0.1-0.4,0.1-0.7,0.1s-0.5,0-0.7-0.1
		c-0.2-0.1-0.4-0.2-0.5-0.3c-0.1-0.1-0.3-0.3-0.4-0.5c-0.1-0.2-0.1-0.4-0.1-0.6c0-0.3,0.1-0.6,0.2-0.8c0.1-0.2,0.3-0.4,0.5-0.5
		c0.2-0.1,0.4-0.2,0.7-0.3c0.3-0.1,0.5-0.1,0.8-0.1c0.2,0,0.4,0,0.5,0c0.1,0,0.3,0,0.4,0c0.1,0,0.2,0,0.3,0c0.1,0,0.1,0,0.2,0
		c0-0.1,0-0.2,0-0.3c0-0.1,0-0.2,0-0.3c0-0.2,0-0.3-0.1-0.5c0-0.1-0.1-0.2-0.2-0.3c-0.1-0.1-0.2-0.1-0.4-0.2c-0.2,0-0.3-0.1-0.6-0.1
		c-0.1,0-0.3,0-0.4,0c-0.2,0-0.3,0.1-0.5,0.1c-0.2,0-0.3,0.1-0.5,0.1c-0.1,0.1-0.3,0.1-0.4,0.2L314.4,37.6z M317.5,40.2
		c-0.1,0-0.1,0-0.2,0c-0.1,0-0.1,0-0.2,0c-0.1,0-0.2,0-0.3,0c-0.1,0-0.3,0-0.5,0c-0.4,0-0.7,0.1-1,0.2c-0.2,0.1-0.4,0.4-0.4,0.8
		c0,0.3,0.1,0.5,0.3,0.6c0.2,0.1,0.4,0.2,0.7,0.2c0.2,0,0.4,0,0.6-0.1c0.2-0.1,0.3-0.1,0.4-0.2c0.1-0.1,0.2-0.2,0.3-0.3
		c0.1-0.1,0.1-0.2,0.2-0.3V40.2z M320.3,37.3h0.6l0.2,0.7h0.1c0.2-0.3,0.4-0.5,0.7-0.6c0.3-0.1,0.6-0.2,1-0.2c0.8,0,1.3,0.2,1.7,0.6
		c0.4,0.4,0.6,1.1,0.6,2c0,0.4-0.1,0.8-0.2,1.2c-0.1,0.4-0.3,0.7-0.5,0.9c-0.2,0.2-0.5,0.4-0.8,0.6c-0.3,0.1-0.7,0.2-1.1,0.2
		c-0.1,0-0.3,0-0.4,0c-0.1,0-0.2,0-0.3-0.1c-0.1,0-0.2,0-0.3-0.1c-0.1,0-0.2-0.1-0.3-0.1v2.1h-0.9V37.3z M322.6,37.9
		c-0.4,0-0.7,0.1-0.9,0.3c-0.2,0.2-0.4,0.5-0.5,0.9v2.4c0.2,0.1,0.3,0.2,0.5,0.3c0.2,0.1,0.4,0.1,0.7,0.1c0.5,0,1-0.2,1.3-0.5
		c0.3-0.4,0.5-0.9,0.5-1.6c0-0.6-0.1-1-0.3-1.4C323.6,38.1,323.2,37.9,322.6,37.9z M330.2,39.5l0.1-1h-0.1l-0.5,1l-2.5,3.1h-0.7
		v-5.3h0.9v3.1l-0.1,0.9h0.1l0.5-0.9l2.4-3.1h0.7v5.3h-0.9V39.5z M336.6,39.5l0.1-1h-0.1l-0.5,1l-2.5,3.1h-0.7v-5.3h0.9v3.1
		l-0.1,0.9h0.1l0.5-0.9l2.4-3.1h0.7v5.3h-0.9V39.5z M334.4,35.4c0,0.1,0.1,0.3,0.1,0.4c0.1,0.1,0.1,0.2,0.2,0.2
		c0.1,0,0.2,0.1,0.3,0.1c0.1,0,0.2,0,0.3,0c0.1,0,0.2,0,0.3,0c0.1,0,0.2,0,0.3-0.1s0.2-0.1,0.2-0.2s0.1-0.2,0.1-0.3l0.7,0.2
		c-0.1,0.4-0.3,0.7-0.6,0.8c-0.3,0.2-0.7,0.2-1.1,0.2c-0.2,0-0.4,0-0.6-0.1s-0.4-0.1-0.5-0.2c-0.2-0.1-0.3-0.2-0.4-0.3
		c-0.1-0.1-0.2-0.3-0.2-0.5L334.4,35.4z M342.2,35.6c0.3-0.1,0.6-0.1,0.9-0.1c0.3,0,0.7,0,1,0c0.3,0,0.7,0,1,0.1
		c0.4,0.1,0.7,0.2,1,0.3c0.3,0.2,0.5,0.4,0.7,0.7c0.2,0.3,0.3,0.6,0.3,1.1c0,0.4-0.1,0.8-0.3,1.1c-0.2,0.3-0.4,0.5-0.7,0.7
		c-0.3,0.2-0.6,0.3-1,0.4c-0.4,0.1-0.7,0.1-1.1,0.1c0,0-0.1,0-0.2,0c-0.1,0-0.2,0-0.3,0c-0.1,0-0.2,0-0.3,0c-0.1,0-0.1,0-0.2,0v2.6
		h-1V35.6z M344.1,36.3c-0.2,0-0.4,0-0.5,0c-0.2,0-0.3,0-0.4,0.1v2.7c0,0,0.1,0,0.2,0c0.1,0,0.2,0,0.2,0c0.1,0,0.2,0,0.2,0
		c0.1,0,0.1,0,0.2,0c0.2,0,0.5,0,0.7-0.1c0.2,0,0.4-0.1,0.6-0.2c0.2-0.1,0.3-0.3,0.5-0.5c0.1-0.2,0.2-0.4,0.2-0.8
		c0-0.3-0.1-0.5-0.2-0.7c-0.1-0.2-0.3-0.3-0.4-0.4c-0.2-0.1-0.4-0.2-0.6-0.2C344.6,36.3,344.3,36.3,344.1,36.3z M351.6,39.5l0.1-1
		h-0.1l-0.5,1l-2.5,3.1H348v-5.3h0.9v3.1l-0.1,0.9h0.1l0.5-0.9l2.4-3.1h0.7v5.3h-0.9V39.5z M357.9,40.3h-2.6v2.3h-0.9v-5.3h0.9v2.1
		h2.6v-2.1h0.9v5.3h-0.9V40.3z M360.3,39.9c0-0.4,0.1-0.8,0.2-1.2c0.1-0.3,0.3-0.6,0.5-0.9c0.2-0.2,0.5-0.4,0.8-0.6
		c0.3-0.1,0.7-0.2,1.1-0.2c0.4,0,0.8,0.1,1.1,0.2s0.6,0.3,0.8,0.6c0.2,0.2,0.4,0.5,0.5,0.9c0.1,0.3,0.2,0.7,0.2,1.1
		c0,0.4-0.1,0.8-0.2,1.2c-0.1,0.3-0.3,0.6-0.5,0.9c-0.2,0.2-0.5,0.4-0.8,0.6c-0.3,0.1-0.7,0.2-1.1,0.2c-0.4,0-0.8-0.1-1.1-0.2
		c-0.3-0.1-0.6-0.3-0.8-0.6c-0.2-0.2-0.4-0.5-0.5-0.9C360.4,40.7,360.3,40.3,360.3,39.9z M361.3,39.9c0,0.2,0,0.5,0.1,0.7
		c0.1,0.2,0.2,0.4,0.3,0.6c0.1,0.2,0.3,0.3,0.5,0.5c0.2,0.1,0.4,0.2,0.7,0.2c1,0,1.6-0.7,1.6-2c0-0.3,0-0.5-0.1-0.8
		c-0.1-0.2-0.1-0.5-0.3-0.6c-0.1-0.2-0.3-0.3-0.5-0.5s-0.4-0.2-0.7-0.2c-0.5,0-0.9,0.2-1.2,0.5C361.4,38.7,361.3,39.3,361.3,39.9z
		 M368.4,40.2h-0.6v2.4h-0.9v-5.3h0.9v2.4l0.6-0.2l1.8-2.2h1l-1.7,2h0l-0.5,0.4l0.7,0.5l1.9,2.4h-1.2L368.4,40.2z"/>
	<path class="st6" d="M260.6,222H159.5v-3.6h99.6l72.3-72.3l2.6,2.6L260.6,222z"/>
	<path class="st5" d="M87.9,220.6h-2.6v4.5h-0.9v-5.3h4.4v5.3h-0.9V220.6z M93.8,220.6h-1.7l0,0.3c0,0.7-0.1,1.3-0.2,1.8
		c-0.1,0.5-0.2,1-0.3,1.3c-0.1,0.4-0.3,0.6-0.5,0.8c-0.2,0.2-0.5,0.3-0.8,0.3c-0.1,0-0.3,0-0.4,0c-0.1,0-0.2,0-0.3-0.1l0.1-0.8
		c0.1,0,0.2,0,0.3,0c0.2,0,0.3-0.1,0.4-0.2c0.1-0.1,0.2-0.3,0.3-0.7s0.2-0.8,0.2-1.3c0.1-0.6,0.1-1.3,0.1-2.2h3.5v5.3h-0.9V220.6z
		 M96.1,224.6c0-0.2,0.1-0.3,0.2-0.5c0.1-0.1,0.3-0.2,0.5-0.2c0.2,0,0.4,0.1,0.5,0.2c0.1,0.1,0.2,0.3,0.2,0.5c0,0.2-0.1,0.3-0.2,0.5
		c-0.1,0.1-0.3,0.2-0.5,0.2c-0.2,0-0.4-0.1-0.5-0.2C96.2,224.9,96.1,224.8,96.1,224.6z M102.1,218.7h-0.8v-0.7h2.6v0.7h-0.8v5.7h0.8
		v0.7h-2.6v-0.7h0.8V218.7z M105.1,224.6c0-0.2,0.1-0.3,0.2-0.5c0.1-0.1,0.3-0.2,0.5-0.2c0.2,0,0.4,0.1,0.5,0.2
		c0.1,0.1,0.2,0.3,0.2,0.5c0,0.2-0.1,0.3-0.2,0.5c-0.1,0.1-0.3,0.2-0.5,0.2c-0.2,0-0.4-0.1-0.5-0.2
		C105.2,224.9,105.1,224.8,105.1,224.6z M113.4,224.3c-0.1,0-0.3,0-0.4,0c-0.2,0-0.3,0-0.5,0c-0.3,0-0.7-0.1-1-0.2
		c-0.3-0.1-0.6-0.3-0.8-0.5c-0.2-0.2-0.4-0.5-0.5-0.9c-0.1-0.3-0.2-0.8-0.2-1.2c0-0.4,0.1-0.8,0.2-1.2c0.1-0.4,0.3-0.7,0.6-0.9
		c0.2-0.3,0.5-0.4,0.9-0.6c0.3-0.1,0.7-0.2,1.1-0.2c0.1,0,0.2,0,0.4,0c0.1,0,0.3,0,0.3,0v-0.9h1v0.9c0.1,0,0.3-0.1,0.5-0.1
		c0.2,0,0.3,0,0.4,0c0.3,0,0.7,0.1,1,0.2c0.3,0.1,0.6,0.3,0.8,0.5c0.2,0.2,0.4,0.5,0.5,0.9c0.1,0.3,0.2,0.7,0.2,1.2
		c0,0.5-0.1,0.9-0.2,1.2c-0.1,0.4-0.3,0.7-0.6,0.9c-0.2,0.2-0.5,0.4-0.9,0.6c-0.3,0.1-0.7,0.2-1,0.2c-0.1,0-0.2,0-0.4,0
		c-0.1,0-0.3,0-0.4-0.1v1h-1V224.3z M115.1,219.5c-0.1,0-0.2,0-0.4,0c-0.2,0-0.3,0-0.4,0.1v4c0.1,0,0.2,0,0.3,0c0.1,0,0.2,0,0.3,0
		c0.2,0,0.5,0,0.7-0.1c0.2-0.1,0.4-0.2,0.6-0.4c0.2-0.2,0.3-0.4,0.4-0.7c0.1-0.3,0.1-0.6,0.1-0.9c0-0.3,0-0.6-0.1-0.8
		c-0.1-0.2-0.2-0.5-0.3-0.6c-0.1-0.2-0.3-0.3-0.5-0.4C115.6,219.5,115.4,219.5,115.1,219.5z M112.7,223.6c0.1,0,0.2,0,0.3,0
		c0.2,0,0.3,0,0.4-0.1v-4c-0.1,0-0.2,0-0.3,0c-0.1,0-0.2,0-0.3,0c-0.2,0-0.5,0-0.7,0.1c-0.2,0.1-0.4,0.2-0.6,0.4
		c-0.2,0.2-0.3,0.4-0.4,0.7c-0.1,0.3-0.1,0.6-0.1,0.9c0,0.3,0,0.6,0.1,0.8c0.1,0.2,0.2,0.4,0.3,0.6c0.1,0.2,0.3,0.3,0.5,0.4
		C112.2,223.5,112.5,223.6,112.7,223.6z M119.1,219.8h0.6l0.2,0.7h0.1c0.2-0.3,0.4-0.5,0.7-0.6c0.3-0.1,0.6-0.2,1-0.2
		c0.8,0,1.3,0.2,1.7,0.6c0.4,0.4,0.6,1.1,0.6,2c0,0.4-0.1,0.8-0.2,1.2c-0.1,0.4-0.3,0.7-0.5,0.9c-0.2,0.2-0.5,0.4-0.8,0.6
		c-0.3,0.1-0.7,0.2-1.1,0.2c-0.1,0-0.3,0-0.4,0c-0.1,0-0.2,0-0.3-0.1c-0.1,0-0.2,0-0.3-0.1c-0.1,0-0.2-0.1-0.3-0.1v2.1h-0.9V219.8z
		 M121.5,220.5c-0.4,0-0.7,0.1-0.9,0.3c-0.2,0.2-0.4,0.5-0.5,0.9v2.4c0.2,0.1,0.3,0.2,0.5,0.3c0.2,0.1,0.4,0.1,0.7,0.1
		c0.5,0,1-0.2,1.3-0.5c0.3-0.4,0.5-0.9,0.5-1.6c0-0.6-0.1-1-0.3-1.4S122,220.5,121.5,220.5z M125.4,220.2c0.6-0.3,1.3-0.4,2.2-0.4
		c0.4,0,0.7,0.1,1,0.2c0.2,0.1,0.4,0.2,0.6,0.4s0.2,0.3,0.3,0.5c0,0.2,0.1,0.4,0.1,0.6c0,0.4,0,0.7,0,1.1c0,0.4,0,0.8,0,1.2
		c0,0.3,0,0.5,0,0.7c0,0.2,0.1,0.5,0.1,0.7h-0.7l-0.3-0.8h-0.1c-0.1,0.1-0.2,0.2-0.3,0.3c-0.1,0.1-0.2,0.2-0.4,0.3
		c-0.1,0.1-0.3,0.1-0.5,0.2c-0.2,0.1-0.4,0.1-0.7,0.1c-0.2,0-0.5,0-0.7-0.1c-0.2-0.1-0.4-0.2-0.5-0.3c-0.1-0.1-0.3-0.3-0.4-0.5
		c-0.1-0.2-0.1-0.4-0.1-0.6c0-0.3,0.1-0.6,0.2-0.8c0.1-0.2,0.3-0.4,0.5-0.5c0.2-0.1,0.4-0.2,0.7-0.3c0.3-0.1,0.5-0.1,0.8-0.1
		c0.2,0,0.4,0,0.5,0c0.1,0,0.3,0,0.4,0c0.1,0,0.2,0,0.3,0c0.1,0,0.1,0,0.2,0c0-0.1,0-0.2,0-0.3c0-0.1,0-0.2,0-0.3
		c0-0.2,0-0.3-0.1-0.5c0-0.1-0.1-0.2-0.2-0.3c-0.1-0.1-0.2-0.1-0.4-0.2c-0.2,0-0.3-0.1-0.6-0.1c-0.1,0-0.3,0-0.4,0
		c-0.2,0-0.3,0.1-0.5,0.1c-0.2,0-0.3,0.1-0.5,0.1c-0.1,0.1-0.3,0.1-0.4,0.2L125.4,220.2z M128.5,222.7c-0.1,0-0.1,0-0.2,0
		c-0.1,0-0.1,0-0.2,0c-0.1,0-0.2,0-0.3,0c-0.1,0-0.3,0-0.5,0c-0.4,0-0.7,0.1-1,0.2c-0.2,0.1-0.4,0.4-0.4,0.8c0,0.3,0.1,0.5,0.3,0.6
		c0.2,0.1,0.4,0.2,0.7,0.2c0.2,0,0.4,0,0.6-0.1c0.2-0.1,0.3-0.1,0.4-0.2c0.1-0.1,0.2-0.2,0.3-0.3c0.1-0.1,0.1-0.2,0.2-0.3V222.7z
		 M134.8,222.8h-2.6v2.3h-0.9v-5.3h0.9v2.1h2.6v-2.1h0.9v5.3h-0.9V222.8z M139,222.7h-0.6v2.4h-0.9v-5.3h0.9v2.4l0.6-0.2l1.8-2.2h1
		l-1.7,2h0l-0.5,0.4l0.7,0.5l1.9,2.4h-1.2L139,222.7z M142.9,220.2c0.6-0.3,1.3-0.4,2.2-0.4c0.4,0,0.7,0.1,1,0.2
		c0.2,0.1,0.4,0.2,0.6,0.4c0.1,0.2,0.2,0.3,0.3,0.5c0,0.2,0.1,0.4,0.1,0.6c0,0.4,0,0.7,0,1.1c0,0.4,0,0.8,0,1.2c0,0.3,0,0.5,0,0.7
		c0,0.2,0.1,0.5,0.1,0.7h-0.7l-0.3-0.8h-0.1c-0.1,0.1-0.2,0.2-0.3,0.3c-0.1,0.1-0.2,0.2-0.4,0.3c-0.1,0.1-0.3,0.1-0.5,0.2
		c-0.2,0.1-0.4,0.1-0.7,0.1c-0.2,0-0.5,0-0.7-0.1c-0.2-0.1-0.4-0.2-0.5-0.3c-0.1-0.1-0.3-0.3-0.4-0.5c-0.1-0.2-0.1-0.4-0.1-0.6
		c0-0.3,0.1-0.6,0.2-0.8c0.1-0.2,0.3-0.4,0.5-0.5c0.2-0.1,0.4-0.2,0.7-0.3c0.3-0.1,0.5-0.1,0.8-0.1c0.2,0,0.4,0,0.5,0
		c0.1,0,0.3,0,0.4,0c0.1,0,0.2,0,0.3,0c0.1,0,0.1,0,0.2,0c0-0.1,0-0.2,0-0.3c0-0.1,0-0.2,0-0.3c0-0.2,0-0.3-0.1-0.5
		c0-0.1-0.1-0.2-0.2-0.3c-0.1-0.1-0.2-0.1-0.4-0.2c-0.2,0-0.3-0.1-0.6-0.1c-0.1,0-0.3,0-0.4,0c-0.2,0-0.3,0.1-0.5,0.1
		c-0.2,0-0.3,0.1-0.5,0.1c-0.1,0.1-0.3,0.1-0.4,0.2L142.9,220.2z M146.1,222.7c-0.1,0-0.1,0-0.2,0c-0.1,0-0.1,0-0.2,0
		c-0.1,0-0.2,0-0.3,0c-0.1,0-0.3,0-0.5,0c-0.4,0-0.7,0.1-1,0.2c-0.2,0.1-0.4,0.4-0.4,0.8c0,0.3,0.1,0.5,0.3,0.6
		c0.2,0.1,0.4,0.2,0.7,0.2c0.2,0,0.4,0,0.6-0.1c0.2-0.1,0.3-0.1,0.4-0.2c0.1-0.1,0.2-0.2,0.3-0.3c0.1-0.1,0.1-0.2,0.2-0.3V222.7z"/>
	<path class="st5" d="M21.1,162h-2.6v4.5h-0.9v-5.3H22v5.3h-0.9V162z M23.8,161.6c0.6-0.3,1.3-0.4,2.2-0.4c0.4,0,0.7,0.1,1,0.2
		c0.2,0.1,0.4,0.2,0.6,0.4c0.1,0.2,0.2,0.3,0.3,0.5c0,0.2,0.1,0.4,0.1,0.6c0,0.4,0,0.7,0,1.1c0,0.4,0,0.8,0,1.2c0,0.3,0,0.5,0,0.7
		c0,0.2,0.1,0.5,0.1,0.7h-0.7l-0.3-0.8h-0.1c-0.1,0.1-0.2,0.2-0.3,0.3c-0.1,0.1-0.2,0.2-0.4,0.3c-0.1,0.1-0.3,0.1-0.5,0.2
		c-0.2,0.1-0.4,0.1-0.7,0.1c-0.2,0-0.5,0-0.7-0.1c-0.2-0.1-0.4-0.2-0.5-0.3c-0.1-0.1-0.3-0.3-0.4-0.5c-0.1-0.2-0.1-0.4-0.1-0.6
		c0-0.3,0.1-0.6,0.2-0.8c0.1-0.2,0.3-0.4,0.5-0.5c0.2-0.1,0.4-0.2,0.7-0.3c0.3-0.1,0.5-0.1,0.8-0.1c0.2,0,0.4,0,0.5,0
		c0.1,0,0.3,0,0.4,0c0.1,0,0.2,0,0.3,0c0.1,0,0.1,0,0.2,0c0-0.1,0-0.2,0-0.3c0-0.1,0-0.2,0-0.3c0-0.2,0-0.3-0.1-0.5
		c0-0.1-0.1-0.2-0.2-0.3c-0.1-0.1-0.2-0.1-0.4-0.2c-0.2,0-0.3-0.1-0.6-0.1c-0.1,0-0.3,0-0.4,0c-0.2,0-0.3,0.1-0.5,0.1
		c-0.2,0-0.3,0.1-0.5,0.1c-0.1,0.1-0.3,0.1-0.4,0.2L23.8,161.6z M26.9,164.1c-0.1,0-0.1,0-0.2,0s-0.1,0-0.2,0c-0.1,0-0.2,0-0.3,0
		c-0.1,0-0.3,0-0.5,0c-0.4,0-0.7,0.1-1,0.2c-0.2,0.1-0.4,0.4-0.4,0.8c0,0.3,0.1,0.5,0.3,0.6c0.2,0.1,0.4,0.2,0.7,0.2
		c0.2,0,0.4,0,0.6-0.1c0.2-0.1,0.3-0.1,0.4-0.2c0.1-0.1,0.2-0.2,0.3-0.3c0.1-0.1,0.1-0.2,0.2-0.3V164.1z M29.7,161.3h0.6l0.2,0.7
		h0.1c0.2-0.3,0.4-0.5,0.7-0.6c0.3-0.1,0.6-0.2,1-0.2c0.8,0,1.3,0.2,1.7,0.6c0.4,0.4,0.6,1.1,0.6,2c0,0.4-0.1,0.8-0.2,1.2
		c-0.1,0.4-0.3,0.7-0.5,0.9c-0.2,0.2-0.5,0.4-0.8,0.6c-0.3,0.1-0.7,0.2-1.1,0.2c-0.1,0-0.3,0-0.4,0c-0.1,0-0.2,0-0.3-0.1
		c-0.1,0-0.2,0-0.3-0.1c-0.1,0-0.2-0.1-0.3-0.1v2.1h-0.9V161.3z M32,161.9c-0.4,0-0.7,0.1-0.9,0.3c-0.2,0.2-0.4,0.5-0.5,0.9v2.4
		c0.2,0.1,0.3,0.2,0.5,0.3c0.2,0.1,0.4,0.1,0.7,0.1c0.5,0,1-0.2,1.3-0.5c0.3-0.4,0.5-0.9,0.5-1.6c0-0.6-0.1-1-0.3-1.4
		C32.9,162.1,32.6,161.9,32,161.9z M37.5,164.2h-0.6v2.4H36v-5.3h0.9v2.4l0.6-0.2l1.8-2.2h1l-1.7,2h0l-0.5,0.4l0.7,0.5l1.9,2.4h-1.2
		L37.5,164.2z M45.9,163.3h-0.5v3.2h-1v-7h1v3.2l0.5-0.1l2.5-3.1h1.1l-2.5,3l-0.5,0.3l0.6,0.4l2.8,3.3h-1.3L45.9,163.3z M52.7,164.6
		l0.3,1h0.1l0.3-1l1.1-3.3h0.9l-1.7,4.8c-0.1,0.3-0.3,0.6-0.4,1c-0.1,0.3-0.3,0.6-0.4,0.8c-0.2,0.2-0.3,0.4-0.5,0.6
		c-0.2,0.1-0.4,0.2-0.7,0.2c-0.3,0-0.5,0-0.7-0.1l0.2-0.8c0.1,0,0.2,0.1,0.3,0.1c0.1,0,0.3,0,0.4-0.1c0.1,0,0.2-0.1,0.3-0.2
		c0.1-0.1,0.2-0.2,0.3-0.4c0.1-0.2,0.2-0.4,0.2-0.6l-2.4-5.3h1.1L52.7,164.6z M59.5,162h-1.7l0,0.3c0,0.7-0.1,1.3-0.2,1.8
		c-0.1,0.5-0.2,1-0.3,1.3c-0.1,0.4-0.3,0.6-0.5,0.8c-0.2,0.2-0.5,0.3-0.8,0.3c-0.1,0-0.3,0-0.4,0c-0.1,0-0.2,0-0.3-0.1l0.1-0.8
		c0.1,0,0.2,0,0.3,0c0.2,0,0.3-0.1,0.4-0.2c0.1-0.1,0.2-0.3,0.3-0.7s0.2-0.8,0.2-1.3c0.1-0.6,0.1-1.3,0.1-2.2h3.5v5.3h-0.9V162z
		 M63.1,165.7c0.3,0,0.6,0.1,0.9,0.1c0.5,0,0.8-0.1,1.1-0.3c0.2-0.2,0.4-0.4,0.4-0.7c0-0.3-0.1-0.5-0.3-0.7
		c-0.2-0.2-0.6-0.3-1.1-0.3c-0.1,0-0.3,0-0.4,0c-0.2,0-0.3,0-0.5,0.1V165.7z M63.1,163.3c0.2,0,0.4-0.1,0.6-0.1c0.2,0,0.3,0,0.5,0
		c0.4,0,0.7,0,1,0.1c0.3,0.1,0.5,0.2,0.7,0.3c0.2,0.1,0.3,0.3,0.4,0.5c0.1,0.2,0.1,0.4,0.1,0.6c0,0.6-0.2,1.1-0.6,1.4
		c-0.4,0.3-1.1,0.4-2,0.4c-0.3,0-0.5,0-0.8,0c-0.3,0-0.5,0-0.8,0v-5.3h0.9V163.3z M70.9,162H69v4.5h-0.9V162h-1.8v-0.8h4.6V162z
		 M73.4,164.6l0.3,1h0.1l0.3-1l1.1-3.3h0.9l-1.7,4.8c-0.1,0.3-0.3,0.6-0.4,1c-0.1,0.3-0.3,0.6-0.4,0.8c-0.2,0.2-0.3,0.4-0.5,0.6
		c-0.2,0.1-0.4,0.2-0.7,0.2c-0.3,0-0.5,0-0.7-0.1l0.2-0.8c0.1,0,0.2,0.1,0.3,0.1c0.1,0,0.3,0,0.4-0.1c0.1,0,0.2-0.1,0.3-0.2
		c0.1-0.1,0.2-0.2,0.3-0.4c0.1-0.2,0.2-0.4,0.2-0.6l-2.4-5.3H72L73.4,164.6z M77.1,161.3h0.6l0.2,0.7H78c0.2-0.3,0.4-0.5,0.7-0.6
		c0.3-0.1,0.6-0.2,1-0.2c0.8,0,1.3,0.2,1.7,0.6c0.4,0.4,0.6,1.1,0.6,2c0,0.4-0.1,0.8-0.2,1.2c-0.1,0.4-0.3,0.7-0.5,0.9
		c-0.2,0.2-0.5,0.4-0.8,0.6c-0.3,0.1-0.7,0.2-1.1,0.2c-0.1,0-0.3,0-0.4,0c-0.1,0-0.2,0-0.3-0.1c-0.1,0-0.2,0-0.3-0.1
		c-0.1,0-0.2-0.1-0.3-0.1v2.1h-0.9V161.3z M79.4,161.9c-0.4,0-0.7,0.1-0.9,0.3c-0.2,0.2-0.4,0.5-0.5,0.9v2.4
		c0.2,0.1,0.3,0.2,0.5,0.3c0.2,0.1,0.4,0.1,0.7,0.1c0.5,0,1-0.2,1.3-0.5c0.3-0.4,0.5-0.9,0.5-1.6c0-0.6-0.1-1-0.3-1.4
		C80.4,162.1,80,161.9,79.4,161.9z M87,163.5l0.1-1h-0.1l-0.5,1l-2.5,3.1h-0.7v-5.3h0.9v3.1l-0.1,0.9h0.1l0.5-0.9l2.4-3.1H88v5.3H87
		V163.5z"/>
	<path class="st4" d="M244.2,220.9c0,4.7,1.9,9,5,12.1c3.1,3.1,7.4,5,12.1,5c9.5,0,17.2-7.7,17.2-17.2c0-4.7-1.9-9-5-12.1
		c-3.1-3.1-7.4-5-12.1-5C251.9,203.8,244.2,211.5,244.2,220.9z"/>
	<path class="st6" d="M261.4,208c-7.1,0-12.9,5.8-12.9,12.9c0,3.6,1.4,6.8,3.8,9.1l18.3-18.3C268.2,209.5,265,208,261.4,208z"/>
	<path class="st2" d="M261.4,233.9c7.1,0,12.9-5.8,12.9-12.9c0-3.6-1.4-6.8-3.8-9.1l-18.3,18.3C254.6,232.4,257.8,233.9,261.4,233.9
		z"/>
	<path class="st4" d="M316.7,148.9c0,4.7,1.9,9,5,12.1c3.1,3.1,7.4,5,12.1,5c9.5,0,17.2-7.7,17.2-17.2c0-4.7-1.9-9-5-12.1
		s-7.4-5-12.1-5C324.4,131.8,316.7,139.5,316.7,148.9z"/>
	<path class="st6" d="M333.8,136c-7.1,0-12.9,5.8-12.9,12.9c0,3.6,1.4,6.8,3.8,9.1l18.3-18.3C340.6,137.5,337.4,136,333.8,136z"/>
	<path class="st2" d="M333.8,161.9c7.1,0,12.9-5.8,12.9-12.9c0-3.6-1.4-6.8-3.8-9.1l-18.3,18.3C327,160.4,330.3,161.9,333.8,161.9z"
		/>
	<path class="st2" d="M261.4,317.3c4.1,0,7.5-3.3,7.5-7.5c0-4.1-3.3-7.5-7.5-7.5c-4.1,0-7.5,3.3-7.5,7.5
		C253.9,314,257.3,317.3,261.4,317.3z"/>
	<path class="st4" d="M261.4,318.8c-4.9,0-9-4-9-9s4-9,9-9c4.9,0,9,4,9,9S266.3,318.8,261.4,318.8z M261.4,303.9
		c-3.3,0-5.9,2.7-5.9,5.9c0,3.3,2.7,5.9,5.9,5.9c3.3,0,5.9-2.7,5.9-5.9C267.3,306.6,264.7,303.9,261.4,303.9z"/>
	<path class="st5" d="M280.6,313.6c-0.2,0.2-0.5,0.3-0.8,0.3c-0.3,0.1-0.7,0.1-1.1,0.1c-0.4,0-0.9-0.1-1.3-0.2
		c-0.4-0.1-0.8-0.4-1.1-0.7c-0.3-0.3-0.6-0.7-0.7-1.1c-0.2-0.5-0.3-1-0.3-1.6c0-0.7,0.1-1.2,0.3-1.7c0.2-0.5,0.5-0.8,0.8-1.1
		c0.3-0.3,0.7-0.5,1.1-0.6c0.4-0.1,0.8-0.2,1.2-0.2c0.4,0,0.8,0,1.1,0.1c0.3,0,0.5,0.1,0.7,0.2l-0.2,0.9c-0.3-0.2-0.8-0.2-1.5-0.2
		c-0.3,0-0.6,0.1-0.9,0.2c-0.3,0.1-0.5,0.3-0.8,0.5c-0.2,0.2-0.4,0.5-0.5,0.9c-0.1,0.3-0.2,0.8-0.2,1.3c0,0.5,0.1,0.9,0.2,1.2
		c0.1,0.3,0.3,0.6,0.5,0.9c0.2,0.2,0.5,0.4,0.8,0.5c0.3,0.1,0.6,0.2,1,0.2c0.3,0,0.6,0,0.9-0.1c0.2-0.1,0.4-0.1,0.6-0.2L280.6,313.6
		z M285,309.5h-1.8v4.5h-0.9v-4.5h-1.8v-0.8h4.6V309.5z M285.8,308.7h0.6l0.2,0.7h0.1c0.2-0.3,0.4-0.5,0.7-0.6
		c0.3-0.1,0.6-0.2,1-0.2c0.8,0,1.3,0.2,1.7,0.6c0.4,0.4,0.6,1.1,0.6,2c0,0.4-0.1,0.8-0.2,1.2c-0.1,0.4-0.3,0.7-0.5,0.9
		c-0.2,0.2-0.5,0.4-0.8,0.6c-0.3,0.1-0.7,0.2-1.1,0.2c-0.1,0-0.3,0-0.4,0c-0.1,0-0.2,0-0.3-0.1c-0.1,0-0.2,0-0.3-0.1
		c-0.1,0-0.2-0.1-0.3-0.1v2.1h-0.9V308.7z M288.2,309.3c-0.4,0-0.7,0.1-0.9,0.3s-0.4,0.5-0.5,0.9v2.4c0.2,0.1,0.3,0.2,0.5,0.3
		c0.2,0.1,0.4,0.1,0.7,0.1c0.5,0,1-0.2,1.3-0.5c0.3-0.4,0.5-0.9,0.5-1.6c0-0.6-0.1-1-0.3-1.4C289.1,309.5,288.7,309.3,288.2,309.3z
		 M295.8,310.9l0.1-1h-0.1l-0.5,1l-2.5,3.1h-0.7v-5.3h0.9v3.1l-0.1,0.9h0.1l0.5-0.9l2.4-3.1h0.7v5.3h-0.9V310.9z M302.1,310.9l0.1-1
		h-0.1l-0.5,1l-2.5,3.1h-0.7v-5.3h0.9v3.1l-0.1,0.9h0.1l0.5-0.9l2.4-3.1h0.7v5.3h-0.9V310.9z M299.9,306.8c0,0.1,0.1,0.3,0.1,0.4
		s0.1,0.2,0.2,0.2c0.1,0,0.2,0.1,0.3,0.1c0.1,0,0.2,0,0.3,0s0.2,0,0.3,0c0.1,0,0.2,0,0.3-0.1c0.1,0,0.2-0.1,0.2-0.2
		c0.1-0.1,0.1-0.2,0.1-0.3l0.7,0.2c-0.1,0.4-0.3,0.7-0.6,0.8c-0.3,0.2-0.7,0.2-1.1,0.2c-0.2,0-0.4,0-0.6-0.1c-0.2,0-0.4-0.1-0.5-0.2
		c-0.2-0.1-0.3-0.2-0.4-0.3c-0.1-0.1-0.2-0.3-0.2-0.5L299.9,306.8z M308.8,313.6c-0.2,0.2-0.5,0.3-0.8,0.4c-0.3,0.1-0.6,0.1-1,0.1
		c-0.4,0-0.8-0.1-1.1-0.2c-0.3-0.1-0.6-0.3-0.8-0.6c-0.2-0.2-0.3-0.5-0.4-0.9s-0.1-0.7-0.1-1.1c0-0.9,0.2-1.6,0.6-2.1
		c0.4-0.5,1.1-0.7,1.9-0.7c0.4,0,0.7,0,0.9,0.1c0.3,0.1,0.5,0.1,0.7,0.2l-0.2,0.8c-0.2-0.1-0.4-0.2-0.6-0.2
		c-0.2-0.1-0.4-0.1-0.7-0.1c-1.1,0-1.6,0.7-1.6,2c0,0.3,0,0.5,0.1,0.7c0.1,0.2,0.2,0.4,0.3,0.6c0.1,0.2,0.3,0.3,0.5,0.4
		c0.2,0.1,0.5,0.2,0.8,0.2c0.3,0,0.5,0,0.7-0.1c0.2-0.1,0.4-0.2,0.5-0.3L308.8,313.6z M311.1,313.2c0.3,0,0.6,0.1,0.9,0.1
		c0.5,0,0.8-0.1,1.1-0.3c0.2-0.2,0.4-0.4,0.4-0.7c0-0.3-0.1-0.5-0.3-0.7c-0.2-0.2-0.6-0.3-1.1-0.3c-0.1,0-0.3,0-0.4,0
		c-0.2,0-0.3,0-0.5,0.1V313.2z M311.1,310.7c0.2,0,0.4-0.1,0.6-0.1c0.2,0,0.3,0,0.5,0c0.4,0,0.7,0,1,0.1c0.3,0.1,0.5,0.2,0.7,0.3
		c0.2,0.1,0.3,0.3,0.4,0.5c0.1,0.2,0.1,0.4,0.1,0.6c0,0.6-0.2,1.1-0.6,1.4c-0.4,0.3-1.1,0.4-2,0.4c-0.3,0-0.5,0-0.8,0s-0.5,0-0.8,0
		v-5.3h0.9V310.7z M317,311.6h-0.6v2.4h-0.9v-5.3h0.9v2.4l0.6-0.2l1.8-2.2h1l-1.7,2h0l-0.5,0.4l0.7,0.5l1.9,2.4h-1.2L317,311.6z
		 M324.6,310.9l0.1-1h-0.1l-0.5,1l-2.5,3.1H321v-5.3h0.9v3.1l-0.1,0.9h0.1l0.5-0.9l2.4-3.1h0.7v5.3h-0.9V310.9z M331,310.9l0.1-1
		H331l-0.5,1l-2.5,3.1h-0.7v-5.3h0.9v3.1l-0.1,0.9h0.1l0.5-0.9l2.4-3.1h0.7v5.3H331V310.9z M328.7,306.8c0,0.1,0.1,0.3,0.1,0.4
		c0.1,0.1,0.1,0.2,0.2,0.2c0.1,0,0.2,0.1,0.3,0.1c0.1,0,0.2,0,0.3,0c0.1,0,0.2,0,0.3,0c0.1,0,0.2,0,0.3-0.1c0.1,0,0.2-0.1,0.2-0.2
		c0.1-0.1,0.1-0.2,0.1-0.3l0.7,0.2c-0.1,0.4-0.3,0.7-0.6,0.8c-0.3,0.2-0.7,0.2-1.1,0.2c-0.2,0-0.4,0-0.6-0.1c-0.2,0-0.4-0.1-0.5-0.2
		c-0.2-0.1-0.3-0.2-0.4-0.3c-0.1-0.1-0.2-0.3-0.2-0.5L328.7,306.8z M336.6,308.7h0.6l0.2,0.7h0.1c0.2-0.3,0.4-0.5,0.7-0.6
		c0.3-0.1,0.6-0.2,1-0.2c0.8,0,1.3,0.2,1.7,0.6c0.4,0.4,0.6,1.1,0.6,2c0,0.4-0.1,0.8-0.2,1.2c-0.1,0.4-0.3,0.7-0.5,0.9
		c-0.2,0.2-0.5,0.4-0.8,0.6c-0.3,0.1-0.7,0.2-1.1,0.2c-0.1,0-0.3,0-0.4,0c-0.1,0-0.2,0-0.3-0.1c-0.1,0-0.2,0-0.3-0.1
		c-0.1,0-0.2-0.1-0.3-0.1v2.1h-0.9V308.7z M338.9,309.3c-0.4,0-0.7,0.1-0.9,0.3s-0.4,0.5-0.5,0.9v2.4c0.2,0.1,0.3,0.2,0.5,0.3
		c0.2,0.1,0.4,0.1,0.7,0.1c0.5,0,1-0.2,1.3-0.5s0.5-0.9,0.5-1.6c0-0.6-0.1-1-0.3-1.4C339.9,309.5,339.5,309.3,338.9,309.3z
		 M346.5,310.9l0.1-1h-0.1l-0.5,1l-2.5,3.1h-0.7v-5.3h0.9v3.1l-0.1,0.9h0.1l0.5-0.9l2.4-3.1h0.7v5.3h-0.9V310.9z M352.8,311.6h-2.6
		v2.3h-0.9v-5.3h0.9v2.1h2.6v-2.1h0.9v5.3h-0.9V311.6z M355.2,311.3c0-0.4,0.1-0.8,0.2-1.2c0.1-0.3,0.3-0.6,0.5-0.9
		c0.2-0.2,0.5-0.4,0.8-0.6c0.3-0.1,0.7-0.2,1.1-0.2c0.4,0,0.8,0.1,1.1,0.2c0.3,0.1,0.6,0.3,0.8,0.6c0.2,0.2,0.4,0.5,0.5,0.9
		c0.1,0.3,0.2,0.7,0.2,1.1c0,0.4-0.1,0.8-0.2,1.2c-0.1,0.3-0.3,0.6-0.5,0.9c-0.2,0.2-0.5,0.4-0.8,0.6c-0.3,0.1-0.7,0.2-1.1,0.2
		c-0.4,0-0.8-0.1-1.1-0.2c-0.3-0.1-0.6-0.3-0.8-0.6c-0.2-0.2-0.4-0.5-0.5-0.9C355.3,312.1,355.2,311.7,355.2,311.3z M356.2,311.3
		c0,0.2,0,0.5,0.1,0.7c0.1,0.2,0.2,0.4,0.3,0.6c0.1,0.2,0.3,0.3,0.5,0.5c0.2,0.1,0.4,0.2,0.7,0.2c1,0,1.6-0.7,1.6-2
		c0-0.3,0-0.5-0.1-0.8c-0.1-0.2-0.1-0.5-0.3-0.6c-0.1-0.2-0.3-0.3-0.5-0.5c-0.2-0.1-0.4-0.2-0.7-0.2c-0.5,0-0.9,0.2-1.2,0.5
		C356.3,310.1,356.2,310.6,356.2,311.3z M363.3,311.6h-0.6v2.4h-0.9v-5.3h0.9v2.4l0.6-0.2l1.8-2.2h1l-1.7,2h0l-0.5,0.4l0.7,0.5
		l1.9,2.4h-1.2L363.3,311.6z"/>
	<path class="st5" d="M158.4,238.3l0.4,0c0.2,0,0.4,0,0.7,0c0.3,0,0.5,0,0.9,0c0.8,0,1.3,0.1,1.7,0.3c0.3,0.2,0.5,0.5,0.5,1
		c0,0.2-0.1,0.5-0.3,0.7c-0.2,0.2-0.4,0.4-0.8,0.5v0.1c0.4,0.1,0.8,0.2,0.9,0.4c0.2,0.2,0.3,0.5,0.3,0.8c0,0.5-0.2,0.9-0.7,1.2
		c-0.4,0.2-1.1,0.4-2,0.4c-0.3,0-0.6,0-0.8,0c-0.3,0-0.5,0-0.8-0.1c0,0-0.1,0-0.1,0c0,0,0,0-0.1,0V238.3z M159.4,242.8
		c0.1,0,0.3,0,0.4,0.1c0.1,0,0.3,0,0.5,0c0.5,0,0.9-0.1,1.1-0.2c0.2-0.1,0.4-0.4,0.4-0.7c0-0.1,0-0.2-0.1-0.4c0-0.1-0.1-0.2-0.2-0.3
		c-0.1-0.1-0.3-0.1-0.4-0.2c-0.2,0-0.4-0.1-0.7-0.1h-1V242.8z M160.5,240.5c0.1,0,0.3,0,0.4-0.1c0.1,0,0.3-0.1,0.4-0.2
		c0.1-0.1,0.2-0.2,0.3-0.3c0.1-0.1,0.1-0.2,0.1-0.3c0-0.3-0.1-0.5-0.3-0.6c-0.2-0.1-0.5-0.2-1-0.2c-0.2,0-0.3,0-0.5,0
		c-0.2,0-0.3,0-0.5,0v1.5H160.5z M165.9,241.6l0.3,1h0.1l0.3-1l1.1-3.3h0.9l-1.7,4.8c-0.1,0.3-0.3,0.6-0.4,1
		c-0.1,0.3-0.3,0.6-0.4,0.8c-0.2,0.2-0.3,0.4-0.5,0.6c-0.2,0.1-0.4,0.2-0.7,0.2c-0.3,0-0.5,0-0.7-0.1l0.2-0.8c0.1,0,0.2,0.1,0.3,0.1
		c0.1,0,0.3,0,0.4-0.1c0.1,0,0.2-0.1,0.3-0.2c0.1-0.1,0.2-0.2,0.3-0.4c0.1-0.2,0.2-0.4,0.2-0.6l-2.4-5.3h1.1L165.9,241.6z
		 M172.6,239h-1.7l0,0.3c0,0.7-0.1,1.3-0.2,1.8c-0.1,0.5-0.2,1-0.3,1.3c-0.1,0.4-0.3,0.6-0.5,0.8c-0.2,0.2-0.5,0.3-0.8,0.3
		c-0.1,0-0.3,0-0.4,0c-0.1,0-0.2,0-0.3-0.1l0.1-0.8c0.1,0,0.2,0,0.3,0c0.2,0,0.3-0.1,0.4-0.2c0.1-0.1,0.2-0.3,0.3-0.7
		s0.2-0.8,0.2-1.3c0.1-0.6,0.1-1.3,0.1-2.2h3.5v5.3h-0.9V239z M175,243c0-0.2,0.1-0.3,0.2-0.5c0.1-0.1,0.3-0.2,0.5-0.2
		c0.2,0,0.4,0.1,0.5,0.2c0.1,0.1,0.2,0.3,0.2,0.5c0,0.2-0.1,0.3-0.2,0.5c-0.1,0.1-0.3,0.2-0.5,0.2c-0.2,0-0.4-0.1-0.5-0.2
		C175,243.3,175,243.2,175,243z M182.7,243.2c-0.2,0.2-0.5,0.3-0.8,0.3c-0.3,0.1-0.7,0.1-1.1,0.1c-0.4,0-0.9-0.1-1.3-0.2
		c-0.4-0.1-0.8-0.4-1.1-0.7c-0.3-0.3-0.6-0.7-0.7-1.1c-0.2-0.5-0.3-1-0.3-1.6c0-0.7,0.1-1.2,0.3-1.7c0.2-0.5,0.5-0.8,0.8-1.1
		c0.3-0.3,0.7-0.5,1.1-0.6c0.4-0.1,0.8-0.2,1.2-0.2c0.4,0,0.8,0,1.1,0.1s0.5,0.1,0.7,0.2l-0.2,0.9c-0.3-0.2-0.8-0.2-1.5-0.2
		c-0.3,0-0.6,0.1-0.9,0.2c-0.3,0.1-0.5,0.3-0.8,0.5c-0.2,0.2-0.4,0.5-0.5,0.9c-0.1,0.3-0.2,0.8-0.2,1.3c0,0.5,0.1,0.9,0.2,1.2
		c0.1,0.3,0.3,0.6,0.5,0.9c0.2,0.2,0.5,0.4,0.8,0.5c0.3,0.1,0.6,0.2,1,0.2c0.3,0,0.6,0,0.9-0.1c0.2-0.1,0.4-0.1,0.6-0.2L182.7,243.2
		z M183.9,238.6c0.6-0.3,1.3-0.4,2.2-0.4c0.4,0,0.7,0.1,1,0.2c0.2,0.1,0.4,0.2,0.6,0.4s0.2,0.3,0.3,0.5c0,0.2,0.1,0.4,0.1,0.6
		c0,0.4,0,0.7,0,1.1c0,0.4,0,0.8,0,1.2c0,0.3,0,0.5,0,0.7c0,0.2,0.1,0.5,0.1,0.7h-0.7l-0.3-0.8h-0.1c-0.1,0.1-0.2,0.2-0.3,0.3
		c-0.1,0.1-0.2,0.2-0.4,0.3c-0.1,0.1-0.3,0.1-0.5,0.2c-0.2,0.1-0.4,0.1-0.7,0.1c-0.2,0-0.5,0-0.7-0.1c-0.2-0.1-0.4-0.2-0.5-0.3
		c-0.1-0.1-0.3-0.3-0.4-0.5c-0.1-0.2-0.1-0.4-0.1-0.6c0-0.3,0.1-0.6,0.2-0.8c0.1-0.2,0.3-0.4,0.5-0.5c0.2-0.1,0.4-0.2,0.7-0.3
		c0.3-0.1,0.5-0.1,0.8-0.1c0.2,0,0.4,0,0.5,0c0.1,0,0.3,0,0.4,0c0.1,0,0.2,0,0.3,0c0.1,0,0.1,0,0.2,0c0-0.1,0-0.2,0-0.3
		c0-0.1,0-0.2,0-0.3c0-0.2,0-0.3-0.1-0.5c0-0.1-0.1-0.2-0.2-0.3c-0.1-0.1-0.2-0.1-0.4-0.2c-0.2,0-0.3-0.1-0.6-0.1
		c-0.1,0-0.3,0-0.4,0c-0.2,0-0.3,0.1-0.5,0.1c-0.2,0-0.3,0.1-0.5,0.1c-0.1,0.1-0.3,0.1-0.4,0.2L183.9,238.6z M187.1,241.1
		c-0.1,0-0.1,0-0.2,0c-0.1,0-0.1,0-0.2,0c-0.1,0-0.2,0-0.3,0c-0.1,0-0.3,0-0.5,0c-0.4,0-0.7,0.1-1,0.2c-0.2,0.1-0.4,0.4-0.4,0.8
		c0,0.3,0.1,0.5,0.3,0.6c0.2,0.1,0.4,0.2,0.7,0.2c0.2,0,0.4,0,0.6-0.1c0.2-0.1,0.3-0.1,0.4-0.2c0.1-0.1,0.2-0.2,0.3-0.3
		c0.1-0.1,0.1-0.2,0.2-0.3V241.1z M191.3,241.2h-0.6v2.4h-0.9v-5.3h0.9v2.4l0.6-0.2l1.8-2.2h1l-1.7,2h0l-0.5,0.4l0.7,0.5l1.9,2.4
		h-1.2L191.3,241.2z M199.2,243.2c-0.2,0.2-0.5,0.3-0.8,0.4c-0.3,0.1-0.6,0.1-1,0.1c-0.4,0-0.8-0.1-1.1-0.2
		c-0.3-0.1-0.6-0.3-0.8-0.6c-0.2-0.2-0.3-0.5-0.4-0.9c-0.1-0.3-0.1-0.7-0.1-1.1c0-0.9,0.2-1.6,0.6-2.1c0.4-0.5,1.1-0.7,1.9-0.7
		c0.4,0,0.7,0,0.9,0.1c0.3,0.1,0.5,0.1,0.7,0.2l-0.2,0.8c-0.2-0.1-0.4-0.2-0.6-0.2c-0.2-0.1-0.4-0.1-0.7-0.1c-1.1,0-1.6,0.7-1.6,2
		c0,0.3,0,0.5,0.1,0.7c0.1,0.2,0.2,0.4,0.3,0.6c0.1,0.2,0.3,0.3,0.5,0.4c0.2,0.1,0.5,0.2,0.8,0.2c0.3,0,0.5,0,0.7-0.1
		c0.2-0.1,0.4-0.2,0.5-0.3L199.2,243.2z M200.5,238.6c0.6-0.3,1.3-0.4,2.2-0.4c0.4,0,0.7,0.1,1,0.2c0.2,0.1,0.4,0.2,0.6,0.4
		c0.1,0.2,0.2,0.3,0.3,0.5c0,0.2,0.1,0.4,0.1,0.6c0,0.4,0,0.7,0,1.1c0,0.4,0,0.8,0,1.2c0,0.3,0,0.5,0,0.7c0,0.2,0.1,0.5,0.1,0.7H204
		l-0.3-0.8h-0.1c-0.1,0.1-0.2,0.2-0.3,0.3c-0.1,0.1-0.2,0.2-0.4,0.3c-0.1,0.1-0.3,0.1-0.5,0.2c-0.2,0.1-0.4,0.1-0.7,0.1
		s-0.5,0-0.7-0.1c-0.2-0.1-0.4-0.2-0.5-0.3c-0.1-0.1-0.3-0.3-0.4-0.5c-0.1-0.2-0.1-0.4-0.1-0.6c0-0.3,0.1-0.6,0.2-0.8
		c0.1-0.2,0.3-0.4,0.5-0.5c0.2-0.1,0.4-0.2,0.7-0.3c0.3-0.1,0.5-0.1,0.8-0.1c0.2,0,0.4,0,0.5,0c0.1,0,0.3,0,0.4,0c0.1,0,0.2,0,0.3,0
		c0.1,0,0.1,0,0.2,0c0-0.1,0-0.2,0-0.3c0-0.1,0-0.2,0-0.3c0-0.2,0-0.3-0.1-0.5c0-0.1-0.1-0.2-0.2-0.3c-0.1-0.1-0.2-0.1-0.4-0.2
		c-0.2,0-0.3-0.1-0.6-0.1c-0.1,0-0.3,0-0.4,0c-0.2,0-0.3,0.1-0.5,0.1c-0.2,0-0.3,0.1-0.5,0.1c-0.1,0.1-0.3,0.1-0.4,0.2L200.5,238.6z
		 M203.6,241.1c-0.1,0-0.1,0-0.2,0c-0.1,0-0.1,0-0.2,0c-0.1,0-0.2,0-0.3,0c-0.1,0-0.3,0-0.5,0c-0.4,0-0.7,0.1-1,0.2
		c-0.2,0.1-0.4,0.4-0.4,0.8c0,0.3,0.1,0.5,0.3,0.6c0.2,0.1,0.4,0.2,0.7,0.2c0.2,0,0.4,0,0.6-0.1c0.2-0.1,0.3-0.1,0.4-0.2
		c0.1-0.1,0.2-0.2,0.3-0.3c0.1-0.1,0.1-0.2,0.2-0.3V241.1z M209.7,239h-2.5v4.5h-0.9v-5.3h3.4V239z M210.6,238.6
		c0.6-0.3,1.3-0.4,2.2-0.4c0.4,0,0.7,0.1,1,0.2c0.2,0.1,0.4,0.2,0.6,0.4c0.1,0.2,0.2,0.3,0.3,0.5c0,0.2,0.1,0.4,0.1,0.6
		c0,0.4,0,0.7,0,1.1c0,0.4,0,0.8,0,1.2c0,0.3,0,0.5,0,0.7c0,0.2,0.1,0.5,0.1,0.7h-0.7l-0.3-0.8h-0.1c-0.1,0.1-0.2,0.2-0.3,0.3
		c-0.1,0.1-0.2,0.2-0.4,0.3c-0.1,0.1-0.3,0.1-0.5,0.2c-0.2,0.1-0.4,0.1-0.7,0.1c-0.2,0-0.5,0-0.7-0.1c-0.2-0.1-0.4-0.2-0.5-0.3
		c-0.1-0.1-0.3-0.3-0.4-0.5c-0.1-0.2-0.1-0.4-0.1-0.6c0-0.3,0.1-0.6,0.2-0.8c0.1-0.2,0.3-0.4,0.5-0.5c0.2-0.1,0.4-0.2,0.7-0.3
		c0.3-0.1,0.5-0.1,0.8-0.1c0.2,0,0.4,0,0.5,0c0.1,0,0.3,0,0.4,0c0.1,0,0.2,0,0.3,0c0.1,0,0.1,0,0.2,0c0-0.1,0-0.2,0-0.3
		c0-0.1,0-0.2,0-0.3c0-0.2,0-0.3-0.1-0.5c0-0.1-0.1-0.2-0.2-0.3c-0.1-0.1-0.2-0.1-0.4-0.2c-0.2,0-0.3-0.1-0.6-0.1
		c-0.1,0-0.3,0-0.4,0c-0.2,0-0.3,0.1-0.5,0.1c-0.2,0-0.3,0.1-0.5,0.1c-0.1,0.1-0.3,0.1-0.4,0.2L210.6,238.6z M213.7,241.1
		c-0.1,0-0.1,0-0.2,0c-0.1,0-0.1,0-0.2,0c-0.1,0-0.2,0-0.3,0c-0.1,0-0.3,0-0.5,0c-0.4,0-0.7,0.1-1,0.2c-0.2,0.1-0.4,0.4-0.4,0.8
		c0,0.3,0.1,0.5,0.3,0.6c0.2,0.1,0.4,0.2,0.7,0.2c0.2,0,0.4,0,0.6-0.1c0.2-0.1,0.3-0.1,0.4-0.2c0.1-0.1,0.2-0.2,0.3-0.3
		c0.1-0.1,0.1-0.2,0.2-0.3V241.1z M220,241.2h-2.6v2.3h-0.9v-5.3h0.9v2.1h2.6v-2.1h0.9v5.3H220V241.2z M226.7,243.2
		c-0.2,0.2-0.5,0.3-0.8,0.4c-0.3,0.1-0.6,0.1-1,0.1c-0.4,0-0.8-0.1-1.1-0.2c-0.3-0.1-0.6-0.3-0.8-0.6s-0.3-0.5-0.4-0.9
		c-0.1-0.3-0.1-0.7-0.1-1.1c0-0.9,0.2-1.6,0.6-2.1c0.4-0.5,1.1-0.7,1.9-0.7c0.4,0,0.7,0,0.9,0.1c0.3,0.1,0.5,0.1,0.7,0.2l-0.2,0.8
		c-0.2-0.1-0.4-0.2-0.6-0.2c-0.2-0.1-0.4-0.1-0.7-0.1c-1.1,0-1.6,0.7-1.6,2c0,0.3,0,0.5,0.1,0.7c0.1,0.2,0.2,0.4,0.3,0.6
		c0.1,0.2,0.3,0.3,0.5,0.4c0.2,0.1,0.5,0.2,0.8,0.2c0.3,0,0.5,0,0.7-0.1c0.2-0.1,0.4-0.2,0.5-0.3L226.7,243.2z M229,242.7
		c0.3,0,0.6,0.1,0.9,0.1c0.5,0,0.8-0.1,1.1-0.3c0.2-0.2,0.4-0.4,0.4-0.7c0-0.3-0.1-0.5-0.3-0.7c-0.2-0.2-0.6-0.3-1.1-0.3
		c-0.1,0-0.3,0-0.4,0c-0.2,0-0.3,0-0.5,0.1V242.7z M229,240.3c0.2,0,0.4-0.1,0.6-0.1c0.2,0,0.3,0,0.5,0c0.4,0,0.7,0,1,0.1
		c0.3,0.1,0.5,0.2,0.7,0.3c0.2,0.1,0.3,0.3,0.4,0.5c0.1,0.2,0.1,0.4,0.1,0.6c0,0.6-0.2,1.1-0.6,1.4c-0.4,0.3-1.1,0.4-2,0.4
		c-0.3,0-0.5,0-0.8,0c-0.3,0-0.5,0-0.8,0v-5.3h0.9V240.3z M234.9,241.2h-0.6v2.4h-0.9v-5.3h0.9v2.4l0.6-0.2l1.8-2.2h1l-1.7,2h0
		l-0.5,0.4l0.7,0.5l1.9,2.4h-1.2L234.9,241.2z M238.5,240.9c0-0.4,0.1-0.8,0.2-1.2c0.1-0.3,0.3-0.6,0.5-0.9c0.2-0.2,0.5-0.4,0.8-0.6
		c0.3-0.1,0.7-0.2,1.1-0.2c0.4,0,0.8,0.1,1.1,0.2c0.3,0.1,0.6,0.3,0.8,0.6c0.2,0.2,0.4,0.5,0.5,0.9c0.1,0.3,0.2,0.7,0.2,1.1
		c0,0.4-0.1,0.8-0.2,1.2c-0.1,0.3-0.3,0.6-0.5,0.9c-0.2,0.2-0.5,0.4-0.8,0.6c-0.3,0.1-0.7,0.2-1.1,0.2c-0.4,0-0.8-0.1-1.1-0.2
		c-0.3-0.1-0.6-0.3-0.8-0.6c-0.2-0.2-0.4-0.5-0.5-0.9C238.6,241.7,238.5,241.3,238.5,240.9z M239.5,240.9c0,0.2,0,0.5,0.1,0.7
		c0.1,0.2,0.2,0.4,0.3,0.6s0.3,0.3,0.5,0.5s0.4,0.2,0.7,0.2c1,0,1.6-0.7,1.6-2c0-0.3,0-0.5-0.1-0.8c-0.1-0.2-0.1-0.5-0.3-0.6
		c-0.1-0.2-0.3-0.3-0.5-0.5s-0.4-0.2-0.7-0.2c-0.5,0-0.9,0.2-1.2,0.5C239.6,239.7,239.5,240.2,239.5,240.9z M248.5,239H246v4.5h-0.9
		v-5.3h3.4V239z M249,240.9c0-0.4,0.1-0.8,0.2-1.2c0.1-0.3,0.3-0.6,0.5-0.9c0.2-0.2,0.5-0.4,0.8-0.6c0.3-0.1,0.7-0.2,1.1-0.2
		c0.4,0,0.8,0.1,1.1,0.2c0.3,0.1,0.6,0.3,0.8,0.6c0.2,0.2,0.4,0.5,0.5,0.9c0.1,0.3,0.2,0.7,0.2,1.1c0,0.4-0.1,0.8-0.2,1.2
		c-0.1,0.3-0.3,0.6-0.5,0.9c-0.2,0.2-0.5,0.4-0.8,0.6c-0.3,0.1-0.7,0.2-1.1,0.2c-0.4,0-0.8-0.1-1.1-0.2c-0.3-0.1-0.6-0.3-0.8-0.6
		c-0.2-0.2-0.4-0.5-0.5-0.9C249,241.7,249,241.3,249,240.9z M249.9,240.9c0,0.2,0,0.5,0.1,0.7c0.1,0.2,0.2,0.4,0.3,0.6
		c0.1,0.2,0.3,0.3,0.5,0.5c0.2,0.1,0.4,0.2,0.7,0.2c1,0,1.6-0.7,1.6-2c0-0.3,0-0.5-0.1-0.8c-0.1-0.2-0.1-0.5-0.3-0.6
		c-0.1-0.2-0.3-0.3-0.5-0.5c-0.2-0.1-0.4-0.2-0.7-0.2c-0.5,0-0.9,0.2-1.2,0.5C250.1,239.7,249.9,240.2,249.9,240.9z"/>
	<path class="st5" d="M356.6,148H354v4.5h-0.9v-5.3h4.4v5.3h-0.9V148z M362.5,148h-1.7l0,0.3c0,0.7-0.1,1.3-0.2,1.8
		c-0.1,0.5-0.2,1-0.3,1.3c-0.1,0.4-0.3,0.6-0.5,0.8c-0.2,0.2-0.5,0.3-0.8,0.3c-0.1,0-0.3,0-0.4,0c-0.1,0-0.2,0-0.3-0.1l0.1-0.8
		c0.1,0,0.2,0,0.3,0c0.2,0,0.3-0.1,0.4-0.2c0.1-0.1,0.2-0.3,0.3-0.7c0.1-0.3,0.2-0.8,0.2-1.3c0.1-0.6,0.1-1.3,0.1-2.2h3.5v5.3h-0.9
		V148z M364.8,152c0-0.2,0.1-0.3,0.2-0.5c0.1-0.1,0.3-0.2,0.5-0.2s0.4,0.1,0.5,0.2c0.1,0.1,0.2,0.3,0.2,0.5c0,0.2-0.1,0.3-0.2,0.5
		c-0.1,0.1-0.3,0.2-0.5,0.2s-0.4-0.1-0.5-0.2C364.9,152.3,364.8,152.2,364.8,152z M375.1,152.2c-0.2,0.2-0.5,0.3-0.8,0.3
		c-0.3,0.1-0.7,0.1-1.1,0.1c-0.4,0-0.9-0.1-1.3-0.2c-0.4-0.1-0.8-0.4-1.1-0.7c-0.3-0.3-0.6-0.7-0.7-1.1c-0.2-0.5-0.3-1-0.3-1.6
		c0-0.7,0.1-1.2,0.3-1.7c0.2-0.5,0.5-0.8,0.8-1.1c0.3-0.3,0.7-0.5,1.1-0.6c0.4-0.1,0.8-0.2,1.2-0.2c0.4,0,0.8,0,1.1,0.1
		c0.3,0,0.5,0.1,0.7,0.2l-0.2,0.9c-0.3-0.2-0.8-0.2-1.5-0.2c-0.3,0-0.6,0.1-0.9,0.2c-0.3,0.1-0.5,0.3-0.8,0.5
		c-0.2,0.2-0.4,0.5-0.5,0.9c-0.1,0.3-0.2,0.8-0.2,1.3c0,0.5,0.1,0.9,0.2,1.2c0.1,0.3,0.3,0.6,0.5,0.9c0.2,0.2,0.5,0.4,0.8,0.5
		c0.3,0.1,0.6,0.2,1,0.2c0.3,0,0.6,0,0.9-0.1c0.2-0.1,0.4-0.1,0.6-0.2L375.1,152.2z M375.8,149.9c0-0.4,0.1-0.8,0.2-1.2
		c0.1-0.3,0.3-0.6,0.5-0.9c0.2-0.2,0.5-0.4,0.8-0.6c0.3-0.1,0.7-0.2,1.1-0.2c0.4,0,0.8,0.1,1.1,0.2c0.3,0.1,0.6,0.3,0.8,0.6
		c0.2,0.2,0.4,0.5,0.5,0.9c0.1,0.3,0.2,0.7,0.2,1.1c0,0.4-0.1,0.8-0.2,1.2c-0.1,0.3-0.3,0.6-0.5,0.9c-0.2,0.2-0.5,0.4-0.8,0.6
		c-0.3,0.1-0.7,0.2-1.1,0.2c-0.4,0-0.8-0.1-1.1-0.2c-0.3-0.1-0.6-0.3-0.8-0.6c-0.2-0.2-0.4-0.5-0.5-0.9
		C375.8,150.6,375.8,150.3,375.8,149.9z M376.8,149.9c0,0.2,0,0.5,0.1,0.7c0.1,0.2,0.2,0.4,0.3,0.6c0.1,0.2,0.3,0.3,0.5,0.5
		c0.2,0.1,0.4,0.2,0.7,0.2c1,0,1.6-0.7,1.6-2c0-0.3,0-0.5-0.1-0.8c-0.1-0.2-0.1-0.5-0.3-0.6c-0.1-0.2-0.3-0.3-0.5-0.5
		c-0.2-0.1-0.4-0.2-0.7-0.2c-0.5,0-0.9,0.2-1.2,0.5C376.9,148.7,376.8,149.2,376.8,149.9z M383.1,148.3c0.2-0.3,0.5-0.6,0.8-0.7
		c0.3-0.1,0.7-0.2,1.2-0.2c0.7,0,1.2,0.2,1.6,0.6c0.4,0.4,0.6,1,0.6,1.8c0,0.5-0.1,0.9-0.2,1.2c-0.1,0.3-0.3,0.6-0.5,0.9
		c-0.2,0.2-0.5,0.4-0.8,0.5c-0.3,0.1-0.7,0.2-1.1,0.2c-0.9,0-1.5-0.3-1.9-0.8c-0.4-0.5-0.6-1.3-0.6-2.5c0-0.6,0-1.1,0.1-1.5
		c0.1-0.4,0.2-0.8,0.3-1.1c0.1-0.3,0.3-0.5,0.5-0.7c0.2-0.2,0.4-0.3,0.6-0.4s0.5-0.1,0.7-0.2c0.3,0,0.6-0.1,0.9-0.1
		c0.4,0,0.7-0.1,0.9-0.1s0.4-0.1,0.6-0.2l0.1,0.8c-0.2,0.1-0.4,0.2-0.6,0.2c-0.3,0-0.6,0.1-1.1,0.1c-0.3,0-0.6,0.1-0.9,0.1
		c-0.2,0.1-0.5,0.1-0.7,0.3c-0.2,0.1-0.3,0.3-0.5,0.6c-0.1,0.2-0.2,0.6-0.2,1L383.1,148.3z M383.1,150c0,0.3,0,0.5,0.1,0.7
		c0.1,0.2,0.2,0.4,0.3,0.6c0.1,0.2,0.3,0.3,0.5,0.4c0.2,0.1,0.4,0.2,0.7,0.2c1.1,0,1.6-0.6,1.6-1.9c0-0.3,0-0.5-0.1-0.7
		c-0.1-0.2-0.1-0.4-0.3-0.6c-0.1-0.2-0.3-0.3-0.5-0.4c-0.2-0.1-0.4-0.1-0.6-0.1c-0.6,0-1,0.2-1.3,0.5
		C383.3,148.9,383.1,149.4,383.1,150z M388.5,149.9c0-0.4,0.1-0.8,0.2-1.2c0.1-0.3,0.3-0.6,0.5-0.9c0.2-0.2,0.5-0.4,0.8-0.6
		c0.3-0.1,0.7-0.2,1.1-0.2c0.4,0,0.8,0.1,1.1,0.2c0.3,0.1,0.6,0.3,0.8,0.6c0.2,0.2,0.4,0.5,0.5,0.9c0.1,0.3,0.2,0.7,0.2,1.1
		c0,0.4-0.1,0.8-0.2,1.2c-0.1,0.3-0.3,0.6-0.5,0.9c-0.2,0.2-0.5,0.4-0.8,0.6c-0.3,0.1-0.7,0.2-1.1,0.2c-0.4,0-0.8-0.1-1.1-0.2
		c-0.3-0.1-0.6-0.3-0.8-0.6c-0.2-0.2-0.4-0.5-0.5-0.9C388.5,150.6,388.5,150.3,388.5,149.9z M389.5,149.9c0,0.2,0,0.5,0.1,0.7
		c0.1,0.2,0.2,0.4,0.3,0.6c0.1,0.2,0.3,0.3,0.5,0.5c0.2,0.1,0.4,0.2,0.7,0.2c1,0,1.6-0.7,1.6-2c0-0.3,0-0.5-0.1-0.8
		c-0.1-0.2-0.1-0.5-0.3-0.6c-0.1-0.2-0.3-0.3-0.5-0.5c-0.2-0.1-0.4-0.2-0.7-0.2c-0.5,0-0.9,0.2-1.2,0.5
		C389.6,148.7,389.5,149.2,389.5,149.9z M395.1,147.2h0.6l0.2,0.7h0.1c0.2-0.3,0.4-0.5,0.7-0.6c0.3-0.1,0.6-0.2,1-0.2
		c0.8,0,1.3,0.2,1.7,0.6c0.4,0.4,0.6,1.1,0.6,2c0,0.4-0.1,0.8-0.2,1.2c-0.1,0.4-0.3,0.7-0.5,0.9c-0.2,0.2-0.5,0.4-0.8,0.6
		c-0.3,0.1-0.7,0.2-1.1,0.2c-0.1,0-0.3,0-0.4,0c-0.1,0-0.2,0-0.3-0.1c-0.1,0-0.2,0-0.3-0.1c-0.1,0-0.2-0.1-0.3-0.1v2.1h-0.9V147.2z
		 M397.5,147.9c-0.4,0-0.7,0.1-0.9,0.3c-0.2,0.2-0.4,0.5-0.5,0.9v2.4c0.2,0.1,0.3,0.2,0.5,0.3s0.4,0.1,0.7,0.1c0.5,0,1-0.2,1.3-0.5
		c0.3-0.4,0.5-0.9,0.5-1.6c0-0.6-0.1-1-0.3-1.4S398,147.9,397.5,147.9z M405,150.2h-2.6v2.3h-0.9v-5.3h0.9v2.1h2.6v-2.1h0.9v5.3H405
		V150.2z M407.6,147.6c0.6-0.3,1.3-0.4,2.2-0.4c0.4,0,0.7,0.1,1,0.2c0.2,0.1,0.4,0.2,0.6,0.4c0.1,0.2,0.2,0.3,0.3,0.5
		c0,0.2,0.1,0.4,0.1,0.6c0,0.4,0,0.7,0,1.1c0,0.4,0,0.8,0,1.2c0,0.3,0,0.5,0,0.7c0,0.2,0.1,0.5,0.1,0.7h-0.7l-0.3-0.8h-0.1
		c-0.1,0.1-0.2,0.2-0.3,0.3c-0.1,0.1-0.2,0.2-0.4,0.3c-0.1,0.1-0.3,0.1-0.5,0.2c-0.2,0.1-0.4,0.1-0.7,0.1c-0.2,0-0.5,0-0.7-0.1
		c-0.2-0.1-0.4-0.2-0.5-0.3c-0.1-0.1-0.3-0.3-0.4-0.5c-0.1-0.2-0.1-0.4-0.1-0.6c0-0.3,0.1-0.6,0.2-0.8c0.1-0.2,0.3-0.4,0.5-0.5
		c0.2-0.1,0.4-0.2,0.7-0.3c0.3-0.1,0.5-0.1,0.8-0.1c0.2,0,0.4,0,0.5,0c0.1,0,0.3,0,0.4,0c0.1,0,0.2,0,0.3,0c0.1,0,0.1,0,0.2,0
		c0-0.1,0-0.2,0-0.3c0-0.1,0-0.2,0-0.3c0-0.2,0-0.3-0.1-0.5c0-0.1-0.1-0.2-0.2-0.3c-0.1-0.1-0.2-0.1-0.4-0.2c-0.2,0-0.3-0.1-0.6-0.1
		c-0.1,0-0.3,0-0.4,0c-0.2,0-0.3,0.1-0.5,0.1c-0.2,0-0.3,0.1-0.5,0.1c-0.1,0.1-0.3,0.1-0.4,0.2L407.6,147.6z M410.8,150.1
		c-0.1,0-0.1,0-0.2,0s-0.1,0-0.2,0c-0.1,0-0.2,0-0.3,0c-0.1,0-0.3,0-0.5,0c-0.4,0-0.7,0.1-1,0.2c-0.2,0.1-0.4,0.4-0.4,0.8
		c0,0.3,0.1,0.5,0.3,0.6c0.2,0.1,0.4,0.2,0.7,0.2c0.2,0,0.4,0,0.6-0.1c0.2-0.1,0.3-0.1,0.4-0.2c0.1-0.1,0.2-0.2,0.3-0.3
		c0.1-0.1,0.1-0.2,0.2-0.3V150.1z"/>
	<path class="st6" d="M160,224l-72.7-72.7l2.6-2.6l71.7,71.7"/>
	<path class="st6" d="M87.3,156.4c4.1,0,7.5-3.3,7.5-7.5c0-4.1-3.3-7.5-7.5-7.5s-7.5,3.3-7.5,7.5C79.8,153.1,83.2,156.4,87.3,156.4z
		"/>
	<path class="st4" d="M87.3,157.9c-4.9,0-9-4-9-9c0-4.9,4-9,9-9s9,4,9,9C96.2,153.9,92.2,157.9,87.3,157.9z M87.3,143
		c-3.3,0-5.9,2.7-5.9,5.9c0,3.3,2.7,5.9,5.9,5.9s5.9-2.7,5.9-5.9C93.2,145.7,90.5,143,87.3,143z"/>
	<path class="st6" d="M159.5,227.9c4.1,0,7.5-3.3,7.5-7.5s-3.3-7.5-7.5-7.5c-4.1,0-7.5,3.3-7.5,7.5S155.4,227.9,159.5,227.9z"/>
	<path class="st4" d="M159.5,229.4c-4.9,0-9-4-9-9c0-4.9,4-9,9-9c4.9,0,9,4,9,9C168.5,225.4,164.5,229.4,159.5,229.4z M159.5,214.5
		c-3.3,0-5.9,2.7-5.9,5.9c0,3.3,2.7,5.9,5.9,5.9c3.3,0,5.9-2.7,5.9-5.9C165.4,217.2,162.8,214.5,159.5,214.5z"/>
	<path class="st7" d="M138.4,94L277.2,39"/>
	<path class="st3" d="M138.4,101.5c4.1,0,7.5-3.3,7.5-7.5c0-4.1-3.3-7.5-7.5-7.5S131,89.9,131,94C131,98.2,134.3,101.5,138.4,101.5z
		"/>
	<path class="st4" d="M138.4,103c-4.9,0-9-4-9-9c0-4.9,4-9,9-9c4.9,0,9,4,9,9C147.4,99,143.3,103,138.4,103z M138.4,88.1
		c-3.3,0-5.9,2.7-5.9,5.9c0,3.3,2.7,5.9,5.9,5.9c3.3,0,5.9-2.7,5.9-5.9C144.3,90.8,141.7,88.1,138.4,88.1z"/>
	<path class="st3" d="M277.2,46.4c4.1,0,7.5-3.3,7.5-7.5c0-4.1-3.3-7.5-7.5-7.5c-4.1,0-7.5,3.3-7.5,7.5
		C269.8,43.1,273.1,46.4,277.2,46.4z"/>
	<path class="st4" d="M277.2,47.9c-4.9,0-9-4-9-9s4-9,9-9s9,4,9,9S282.2,47.9,277.2,47.9z M277.2,33c-3.3,0-5.9,2.7-5.9,5.9
		c0,3.3,2.7,5.9,5.9,5.9c3.3,0,5.9-2.7,5.9-5.9C283.2,35.7,280.5,33,277.2,33z"/>
</g>
</svg>
