<?xml version="1.0" encoding="utf-8"?>
<!-- Generator: Adobe Illustrator 23.0.1, SVG Export Plug-In . SVG Version: 6.00 Build 0)  -->
<svg version="1.1" id="Layer_1" xmlns="http://www.w3.org/2000/svg" xmlns:xlink="http://www.w3.org/1999/xlink" x="0px" y="0px"
	 viewBox="0 0 486.1 161.5" style="enable-background:new 0 0 486.1 161.5;" xml:space="preserve">
<style type="text/css">
	.st0{fill:none;stroke:#B3BBC0;stroke-width:2.8346;stroke-miterlimit:10;}
	.st1{fill:#E62139;}
	.st2{fill:#FFFFFF;}
	.st3{fill:#FBB924;}
	.st4{fill:#035B82;}
</style>
<path class="st0" d="M166.1,110.8l112.8,0"/>
<path class="st1" d="M166.1,129.7c9.4,0,17.1-7.7,17.1-17.1c0-9.4-7.7-17.1-17.1-17.1c-9.4,0-17.1,7.7-17.1,17.1
	C149,122.1,156.6,129.7,166.1,129.7z"/>
<path class="st2" d="M165.2,119c0.6,0,1.1-0.1,1.5-0.2c0.4-0.2,0.8-0.4,1.1-0.6c0.3-0.3,0.5-0.5,0.7-0.9c0.2-0.3,0.2-0.7,0.2-1
	c0-0.9-0.3-1.6-0.9-2c-0.6-0.4-1.6-0.7-2.9-0.7h-2v-1.9l3.2-4l1.6-1.2l-2.2,0.3h-4.5V104h10.4v1.9l-3.8,4.6l-1.2,0.7v0.1l1.2-0.2
	c0.6,0.1,1.2,0.2,1.8,0.4c0.6,0.2,1.1,0.6,1.5,1c0.4,0.4,0.8,0.9,1,1.5c0.3,0.6,0.4,1.3,0.4,2.1c0,1-0.2,1.8-0.6,2.6
	c-0.4,0.7-0.8,1.3-1.5,1.8c-0.6,0.5-1.3,0.8-2.2,1.1c-0.8,0.2-1.7,0.4-2.7,0.4c-0.4,0-0.8,0-1.2-0.1c-0.4,0-0.8-0.1-1.2-0.2
	c-0.4-0.1-0.8-0.1-1.2-0.2c-0.4-0.1-0.7-0.2-0.9-0.4l1-2.9c0.5,0.2,1,0.4,1.6,0.6C163.8,118.9,164.5,119,165.2,119z"/>
<path class="st3" d="M273.8,127.9c9.4,0,17.1-7.7,17.1-17.1s-7.7-17.1-17.1-17.1s-17.1,7.7-17.1,17.1S264.4,127.9,273.8,127.9z"/>
<path class="st2" d="M268,115.4c0-0.6,0.1-1.1,0.3-1.6c0.2-0.5,0.4-0.9,0.7-1.3c0.3-0.4,0.7-0.7,1.1-1c0.4-0.3,0.8-0.6,1.3-0.8
	c-0.9-0.5-1.6-1.1-2.1-1.8c-0.5-0.7-0.7-1.5-0.7-2.5c0-0.6,0.1-1.2,0.4-1.8c0.3-0.6,0.6-1.1,1.1-1.5c0.5-0.4,1.1-0.8,1.8-1
	c0.7-0.3,1.5-0.4,2.4-0.4c0.8,0,1.6,0.1,2.2,0.3c0.7,0.2,1.2,0.5,1.7,0.9c0.5,0.4,0.9,0.8,1.1,1.4c0.3,0.5,0.4,1.1,0.4,1.7
	c0,1-0.2,1.8-0.7,2.5c-0.5,0.7-1.2,1.3-2.1,1.9c1.1,0.6,1.9,1.2,2.5,1.9c0.6,0.7,0.9,1.6,0.9,2.7c0,0.8-0.2,1.4-0.5,2.1
	c-0.3,0.6-0.7,1.2-1.3,1.6c-0.5,0.4-1.2,0.8-2,1c-0.8,0.3-1.6,0.4-2.5,0.4c-0.9,0-1.7-0.1-2.5-0.4c-0.7-0.2-1.4-0.5-1.9-1
	c-0.5-0.4-0.9-0.9-1.2-1.5C268.2,116.7,268,116.1,268,115.4z M276.8,115c0-0.4-0.1-0.7-0.3-1c-0.2-0.3-0.5-0.6-0.8-0.8
	c-0.3-0.3-0.7-0.5-1.1-0.7c-0.4-0.2-0.8-0.4-1.2-0.6c-0.8,0.4-1.4,0.9-1.7,1.4c-0.3,0.5-0.5,1-0.5,1.5c0,0.7,0.2,1.2,0.7,1.7
	c0.5,0.5,1.2,0.7,2.1,0.7c0.8,0,1.5-0.2,2-0.5C276.6,116.2,276.8,115.7,276.8,115z M271.9,106.5c0,0.4,0.1,0.8,0.3,1.1
	c0.2,0.3,0.4,0.6,0.7,0.8c0.3,0.2,0.6,0.4,1,0.6c0.4,0.2,0.7,0.4,1.1,0.5c1.1-0.8,1.6-1.7,1.6-2.7c0-0.7-0.2-1.2-0.7-1.5
	c-0.5-0.4-1-0.5-1.6-0.5c-0.8,0-1.4,0.2-1.8,0.5C272.1,105.6,271.9,106,271.9,106.5z"/>
<path class="st4" d="M205.4,65.6c9.4,0,17.1-7.7,17.1-17.1c0-9.4-7.7-17.1-17.1-17.1c-9.4,0-17.1,7.7-17.1,17.1
	C188.3,58,195.9,65.6,205.4,65.6z"/>
<path class="st2" d="M212,52c0,0.8-0.2,1.5-0.5,2.2c-0.3,0.7-0.7,1.3-1.3,1.8c-0.5,0.5-1.2,1-2,1.3c-0.8,0.3-1.6,0.5-2.5,0.5
	c-0.9,0-1.8-0.1-2.6-0.4c-0.8-0.3-1.5-0.7-2.1-1.3c-0.6-0.6-1-1.3-1.4-2.1c-0.3-0.8-0.5-1.8-0.5-2.9c0-1.6,0.3-3.1,0.8-4.4
	c0.5-1.4,1.2-2.5,2.1-3.5c0.9-1,1.9-1.8,3.1-2.4c1.2-0.6,2.4-1,3.7-1.2l0.7,2.7c-0.9,0.1-1.7,0.4-2.5,0.8c-0.8,0.4-1.4,0.8-2,1.4
	c-0.6,0.5-1.1,1.1-1.5,1.8c-0.4,0.6-0.7,1.3-0.9,2c0.4-0.4,0.9-0.8,1.4-1.1c0.6-0.3,1.3-0.5,2.2-0.5c0.8,0,1.6,0.1,2.3,0.4
	c0.7,0.3,1.3,0.6,1.8,1.1c0.5,0.5,0.9,1,1.2,1.7C211.9,50.4,212,51.1,212,52z M208.6,52.1c0-1.8-1-2.7-3-2.7c-0.7,0-1.4,0.2-1.9,0.5
	c-0.5,0.3-0.9,0.6-1.1,1c0,0.2-0.1,0.3-0.1,0.4c0,0.1,0,0.2,0,0.3c0,0.4,0.1,0.8,0.2,1.2c0.1,0.4,0.3,0.7,0.6,1
	c0.3,0.3,0.6,0.5,1,0.7c0.4,0.2,0.8,0.3,1.4,0.3c0.4,0,0.8-0.1,1.2-0.2c0.4-0.2,0.7-0.4,0.9-0.6c0.3-0.3,0.5-0.5,0.6-0.9
	C208.6,52.9,208.6,52.5,208.6,52.1z"/>
</svg>
