<?xml version="1.0" encoding="utf-8"?>
<!-- Generator: Adobe Illustrator 23.0.1, SVG Export Plug-In . SVG Version: 6.00 Build 0)  -->
<svg version="1.1" id="Layer_1" xmlns="http://www.w3.org/2000/svg" xmlns:xlink="http://www.w3.org/1999/xlink" x="0px" y="0px"
	 viewBox="0 0 446 341" style="enable-background:new 0 0 446 341;" xml:space="preserve">
<style type="text/css">
	.st0{fill:none;stroke:#E62139;stroke-width:11.3386;stroke-miterlimit:10;}
	.st1{fill:none;stroke:#FBB924;stroke-width:11.3386;stroke-miterlimit:10;}
	.st2{fill:none;stroke:#035B82;stroke-width:11.3386;stroke-miterlimit:10;}
	.st3{fill:#474746;}
	.st4{fill:#035B82;}
	.st5{fill:#FFFFFF;}
	.st6{fill:#E62139;}
	.st7{fill:#FBB927;}
	.st8{fill:#FBB924;}
</style>
<g>
	<path class="st0" d="M309.3,141.4l-60.1,60.1c-6.3,6.3-14.8,9.8-23.7,9.8h-74.7c-8.9,0-17.4-3.5-23.7-9.8l-45.9-45.9"/>
	<path class="st1" d="M245.8,299.9v-68.3c0-8.9,3.5-17.4,9.8-23.7l60.1-60.1"/>
	<path class="st2" d="M293.2,35.9L242.1,87c-6.3,6.3-14.8,9.8-23.7,9.8H105.9"/>
	<path class="st3" d="M186.7,112.9l0.4,0c0.2,0,0.4,0,0.7,0c0.2,0,0.5,0,0.9,0c0.8,0,1.3,0.1,1.6,0.3c0.3,0.2,0.5,0.5,0.5,0.9
		c0,0.2-0.1,0.5-0.2,0.7c-0.2,0.2-0.4,0.4-0.7,0.5v0.1c0.4,0.1,0.7,0.2,0.9,0.4c0.2,0.2,0.3,0.5,0.3,0.8c0,0.5-0.2,0.9-0.6,1.1
		c-0.4,0.2-1.1,0.4-1.9,0.4c-0.3,0-0.6,0-0.8,0c-0.3,0-0.5,0-0.7,0c0,0,0,0-0.1,0c0,0,0,0-0.1,0V112.9z M187.6,117.3
		c0.1,0,0.3,0,0.4,0c0.1,0,0.3,0,0.5,0c0.5,0,0.9-0.1,1.1-0.2c0.2-0.1,0.3-0.4,0.3-0.7c0-0.1,0-0.2-0.1-0.3c0-0.1-0.1-0.2-0.2-0.3
		c-0.1-0.1-0.2-0.1-0.4-0.2c-0.2,0-0.4-0.1-0.7-0.1h-1V117.3z M188.7,115.1c0.1,0,0.3,0,0.4-0.1c0.1,0,0.2-0.1,0.3-0.2
		c0.1-0.1,0.2-0.2,0.2-0.2c0.1-0.1,0.1-0.2,0.1-0.3c0-0.3-0.1-0.5-0.3-0.6c-0.2-0.1-0.5-0.2-0.9-0.2c-0.1,0-0.3,0-0.5,0
		c-0.1,0-0.3,0-0.5,0v1.5H188.7z M193.9,116.2l0.3,1h0.1l0.2-1l1.1-3.2h0.9l-1.7,4.6c-0.1,0.3-0.2,0.6-0.4,0.9
		c-0.1,0.3-0.3,0.6-0.4,0.8c-0.1,0.2-0.3,0.4-0.5,0.6c-0.2,0.1-0.4,0.2-0.6,0.2c-0.3,0-0.5,0-0.7-0.1l0.1-0.8c0.1,0,0.2,0,0.3,0
		c0.1,0,0.2,0,0.3,0c0.1,0,0.2-0.1,0.3-0.2c0.1-0.1,0.2-0.2,0.2-0.4c0.1-0.1,0.1-0.3,0.2-0.6l-2.3-5.1h1.1L193.9,116.2z
		 M200.5,113.7h-1.7l0,0.3c0,0.6-0.1,1.2-0.2,1.7c-0.1,0.5-0.1,0.9-0.3,1.3c-0.1,0.3-0.3,0.6-0.5,0.8c-0.2,0.2-0.4,0.3-0.8,0.3
		c-0.1,0-0.3,0-0.4,0c-0.1,0-0.2,0-0.3-0.1l0.1-0.8c0.1,0,0.2,0,0.3,0c0.2,0,0.3-0.1,0.4-0.2c0.1-0.1,0.2-0.3,0.3-0.6
		c0.1-0.3,0.2-0.7,0.2-1.3c0.1-0.6,0.1-1.3,0.1-2.2h3.4v5.1h-0.9V113.7z M202.7,117.5c0-0.2,0.1-0.3,0.2-0.4
		c0.1-0.1,0.3-0.2,0.5-0.2s0.3,0.1,0.5,0.2c0.1,0.1,0.2,0.3,0.2,0.4c0,0.2-0.1,0.3-0.2,0.4c-0.1,0.1-0.3,0.2-0.5,0.2
		s-0.4-0.1-0.5-0.2C202.8,117.9,202.7,117.7,202.7,117.5z M212.7,117.7c-0.2,0.2-0.5,0.3-0.8,0.3c-0.3,0.1-0.7,0.1-1,0.1
		c-0.4,0-0.8-0.1-1.2-0.2c-0.4-0.1-0.7-0.4-1-0.6c-0.3-0.3-0.5-0.7-0.7-1.1c-0.2-0.4-0.3-1-0.3-1.6c0-0.6,0.1-1.2,0.3-1.6
		c0.2-0.4,0.4-0.8,0.8-1.1c0.3-0.3,0.7-0.5,1-0.6c0.4-0.1,0.8-0.2,1.2-0.2c0.4,0,0.8,0,1,0.1c0.3,0,0.5,0.1,0.7,0.2l-0.2,0.8
		c-0.3-0.1-0.8-0.2-1.4-0.2c-0.3,0-0.6,0-0.9,0.1c-0.3,0.1-0.5,0.2-0.7,0.5c-0.2,0.2-0.4,0.5-0.5,0.8c-0.1,0.3-0.2,0.8-0.2,1.2
		c0,0.4,0.1,0.8,0.2,1.2c0.1,0.3,0.3,0.6,0.5,0.8c0.2,0.2,0.5,0.4,0.8,0.5c0.3,0.1,0.6,0.2,1,0.2c0.3,0,0.6,0,0.8-0.1
		c0.2-0.1,0.4-0.1,0.6-0.2L212.7,117.7z M213.6,117.5c0-0.2,0.1-0.3,0.2-0.4c0.1-0.1,0.3-0.2,0.5-0.2s0.3,0.1,0.5,0.2
		c0.1,0.1,0.2,0.3,0.2,0.4c0,0.2-0.1,0.3-0.2,0.4c-0.1,0.1-0.3,0.2-0.5,0.2s-0.4-0.1-0.5-0.2C213.7,117.9,213.6,117.7,213.6,117.5z
		 M223.3,115h-3.5v3h-1v-6.8h1v2.9h3.5v-2.9h1v6.8h-1V115z M225.9,113.3c0.6-0.3,1.3-0.4,2.2-0.4c0.4,0,0.7,0.1,0.9,0.2
		c0.2,0.1,0.4,0.2,0.6,0.4c0.1,0.2,0.2,0.3,0.3,0.5c0,0.2,0.1,0.4,0.1,0.6c0,0.4,0,0.7,0,1.1c0,0.4,0,0.7,0,1.2c0,0.2,0,0.5,0,0.7
		c0,0.2,0.1,0.4,0.1,0.6h-0.7l-0.2-0.8H229c-0.1,0.1-0.2,0.2-0.3,0.3c-0.1,0.1-0.2,0.2-0.4,0.3c-0.1,0.1-0.3,0.1-0.5,0.2
		c-0.2,0.1-0.4,0.1-0.6,0.1s-0.5,0-0.7-0.1c-0.2-0.1-0.4-0.2-0.5-0.3c-0.1-0.1-0.3-0.3-0.3-0.4c-0.1-0.2-0.1-0.4-0.1-0.6
		c0-0.3,0.1-0.5,0.2-0.8c0.1-0.2,0.3-0.4,0.5-0.5s0.4-0.2,0.7-0.3c0.3-0.1,0.5-0.1,0.8-0.1c0.2,0,0.4,0,0.5,0c0.1,0,0.3,0,0.3,0
		c0.1,0,0.2,0,0.2,0c0.1,0,0.1,0,0.2,0c0-0.1,0-0.2,0-0.3c0-0.1,0-0.2,0-0.3c0-0.2,0-0.3-0.1-0.5c0-0.1-0.1-0.2-0.2-0.3
		c-0.1-0.1-0.2-0.1-0.3-0.2s-0.3,0-0.5,0c-0.1,0-0.3,0-0.4,0c-0.1,0-0.3,0-0.4,0.1c-0.1,0-0.3,0.1-0.4,0.1c-0.1,0.1-0.3,0.1-0.4,0.2
		L225.9,113.3z M229,115.7c-0.1,0-0.1,0-0.2,0c-0.1,0-0.1,0-0.2,0c-0.1,0-0.2,0-0.3,0c-0.1,0-0.3,0-0.4,0c-0.4,0-0.7,0.1-1,0.2
		c-0.2,0.1-0.4,0.4-0.4,0.7c0,0.3,0.1,0.5,0.3,0.6c0.2,0.1,0.4,0.2,0.7,0.2c0.2,0,0.4,0,0.6-0.1c0.2-0.1,0.3-0.1,0.4-0.2
		c0.1-0.1,0.2-0.2,0.3-0.3c0.1-0.1,0.1-0.2,0.2-0.3V115.7z M234.7,113.7H233l0,0.3c0,0.6-0.1,1.2-0.2,1.7c-0.1,0.5-0.1,0.9-0.3,1.3
		c-0.1,0.3-0.3,0.6-0.5,0.8c-0.2,0.2-0.4,0.3-0.8,0.3c-0.1,0-0.3,0-0.4,0c-0.1,0-0.2,0-0.3-0.1l0.1-0.8c0.1,0,0.2,0,0.3,0
		c0.2,0,0.3-0.1,0.4-0.2c0.1-0.1,0.2-0.3,0.3-0.6c0.1-0.3,0.2-0.7,0.2-1.3c0.1-0.6,0.1-1.3,0.1-2.2h3.4v5.1h-0.9V113.7z
		 M240.8,115.1l0.1-1h-0.1l-0.5,1l-2.4,3h-0.7v-5.1h0.9v3l-0.1,0.9h0.1l0.4-0.9l2.3-3h0.7v5.1h-0.9V115.1z M243.4,112.9l0.4,0
		c0.2,0,0.4,0,0.7,0c0.2,0,0.5,0,0.9,0c0.8,0,1.3,0.1,1.6,0.3c0.3,0.2,0.5,0.5,0.5,0.9c0,0.2-0.1,0.5-0.2,0.7
		c-0.2,0.2-0.4,0.4-0.7,0.5v0.1c0.4,0.1,0.7,0.2,0.9,0.4c0.2,0.2,0.3,0.5,0.3,0.8c0,0.5-0.2,0.9-0.6,1.1c-0.4,0.2-1.1,0.4-1.9,0.4
		c-0.3,0-0.6,0-0.8,0c-0.3,0-0.5,0-0.7,0c0,0,0,0-0.1,0c0,0,0,0-0.1,0V112.9z M244.3,117.3c0.1,0,0.3,0,0.4,0c0.1,0,0.3,0,0.5,0
		c0.5,0,0.9-0.1,1.1-0.2c0.2-0.1,0.3-0.4,0.3-0.7c0-0.1,0-0.2-0.1-0.3s-0.1-0.2-0.2-0.3c-0.1-0.1-0.2-0.1-0.4-0.2
		c-0.2,0-0.4-0.1-0.7-0.1h-1V117.3z M245.4,115.1c0.1,0,0.3,0,0.4-0.1c0.1,0,0.2-0.1,0.3-0.2c0.1-0.1,0.2-0.2,0.2-0.2
		c0.1-0.1,0.1-0.2,0.1-0.3c0-0.3-0.1-0.5-0.3-0.6c-0.2-0.1-0.5-0.2-0.9-0.2c-0.1,0-0.3,0-0.5,0c-0.1,0-0.3,0-0.5,0v1.5H245.4z
		 M249,113.3c0.6-0.3,1.3-0.4,2.2-0.4c0.4,0,0.7,0.1,0.9,0.2c0.2,0.1,0.4,0.2,0.6,0.4c0.1,0.2,0.2,0.3,0.3,0.5
		c0,0.2,0.1,0.4,0.1,0.6c0,0.4,0,0.7,0,1.1c0,0.4,0,0.7,0,1.2c0,0.2,0,0.5,0,0.7c0,0.2,0.1,0.4,0.1,0.6h-0.7l-0.2-0.8h-0.1
		c-0.1,0.1-0.2,0.2-0.3,0.3c-0.1,0.1-0.2,0.2-0.4,0.3c-0.1,0.1-0.3,0.1-0.5,0.2c-0.2,0.1-0.4,0.1-0.6,0.1c-0.2,0-0.5,0-0.7-0.1
		c-0.2-0.1-0.4-0.2-0.5-0.3c-0.1-0.1-0.3-0.3-0.3-0.4c-0.1-0.2-0.1-0.4-0.1-0.6c0-0.3,0.1-0.5,0.2-0.8c0.1-0.2,0.3-0.4,0.5-0.5
		s0.4-0.2,0.7-0.3c0.3-0.1,0.5-0.1,0.8-0.1c0.2,0,0.4,0,0.5,0c0.1,0,0.3,0,0.3,0c0.1,0,0.2,0,0.2,0c0.1,0,0.1,0,0.2,0
		c0-0.1,0-0.2,0-0.3c0-0.1,0-0.2,0-0.3c0-0.2,0-0.3-0.1-0.5c0-0.1-0.1-0.2-0.2-0.3c-0.1-0.1-0.2-0.1-0.3-0.2s-0.3,0-0.5,0
		c-0.1,0-0.3,0-0.4,0c-0.1,0-0.3,0-0.4,0.1c-0.1,0-0.3,0.1-0.4,0.1c-0.1,0.1-0.3,0.1-0.4,0.2L249,113.3z M252.1,115.7
		c-0.1,0-0.1,0-0.2,0c-0.1,0-0.1,0-0.2,0c-0.1,0-0.2,0-0.3,0c-0.1,0-0.3,0-0.4,0c-0.4,0-0.7,0.1-1,0.2c-0.2,0.1-0.3,0.4-0.3,0.7
		c0,0.3,0.1,0.5,0.3,0.6c0.2,0.1,0.4,0.2,0.7,0.2c0.2,0,0.4,0,0.6-0.1c0.2-0.1,0.3-0.1,0.4-0.2c0.1-0.1,0.2-0.2,0.3-0.3
		c0.1-0.1,0.1-0.2,0.2-0.3V115.7z M258.3,115.1l0.1-1h-0.1l-0.5,1l-2.4,3h-0.7v-5.1h0.9v3l-0.1,0.9h0.1l0.4-0.9l2.3-3h0.7v5.1h-0.9
		V115.1z M256.1,111.1c0,0.1,0.1,0.3,0.1,0.3c0.1,0.1,0.1,0.1,0.2,0.2c0.1,0,0.2,0.1,0.3,0.1c0.1,0,0.2,0,0.3,0c0.1,0,0.2,0,0.3,0
		c0.1,0,0.2,0,0.3-0.1c0.1,0,0.1-0.1,0.2-0.2s0.1-0.2,0.1-0.3l0.7,0.2c-0.1,0.4-0.3,0.7-0.6,0.8c-0.3,0.2-0.7,0.2-1.1,0.2
		c-0.2,0-0.4,0-0.6,0c-0.2,0-0.4-0.1-0.5-0.2c-0.1-0.1-0.3-0.2-0.4-0.3c-0.1-0.1-0.2-0.3-0.2-0.5L256.1,111.1z M262.3,115.7h-0.6
		v2.3h-0.9v-5.1h0.9v2.3l0.5-0.2l1.7-2.1h1l-1.7,2h0l-0.5,0.4l0.6,0.4l1.8,2.3h-1.1L262.3,115.7z M266.1,113.3
		c0.6-0.3,1.3-0.4,2.2-0.4c0.4,0,0.7,0.1,0.9,0.2c0.2,0.1,0.4,0.2,0.6,0.4c0.1,0.2,0.2,0.3,0.3,0.5c0,0.2,0.1,0.4,0.1,0.6
		c0,0.4,0,0.7,0,1.1c0,0.4,0,0.7,0,1.2c0,0.2,0,0.5,0,0.7c0,0.2,0.1,0.4,0.1,0.6h-0.7l-0.2-0.8h-0.1c-0.1,0.1-0.2,0.2-0.3,0.3
		c-0.1,0.1-0.2,0.2-0.4,0.3c-0.1,0.1-0.3,0.1-0.5,0.2c-0.2,0.1-0.4,0.1-0.6,0.1c-0.2,0-0.5,0-0.7-0.1c-0.2-0.1-0.4-0.2-0.5-0.3
		c-0.1-0.1-0.3-0.3-0.3-0.4c-0.1-0.2-0.1-0.4-0.1-0.6c0-0.3,0.1-0.5,0.2-0.8c0.1-0.2,0.3-0.4,0.5-0.5c0.2-0.1,0.4-0.2,0.7-0.3
		c0.3-0.1,0.5-0.1,0.8-0.1c0.2,0,0.4,0,0.5,0c0.1,0,0.3,0,0.3,0c0.1,0,0.2,0,0.2,0c0.1,0,0.1,0,0.2,0c0-0.1,0-0.2,0-0.3
		c0-0.1,0-0.2,0-0.3c0-0.2,0-0.3-0.1-0.5c0-0.1-0.1-0.2-0.2-0.3c-0.1-0.1-0.2-0.1-0.3-0.2c-0.1,0-0.3,0-0.5,0c-0.1,0-0.3,0-0.4,0
		c-0.1,0-0.3,0-0.4,0.1c-0.1,0-0.3,0.1-0.4,0.1c-0.1,0.1-0.3,0.1-0.4,0.2L266.1,113.3z M269.2,115.7c-0.1,0-0.1,0-0.2,0
		c-0.1,0-0.1,0-0.2,0c-0.1,0-0.2,0-0.3,0c-0.1,0-0.3,0-0.4,0c-0.4,0-0.7,0.1-1,0.2c-0.2,0.1-0.3,0.4-0.3,0.7c0,0.3,0.1,0.5,0.3,0.6
		c0.2,0.1,0.4,0.2,0.7,0.2c0.2,0,0.4,0,0.6-0.1c0.2-0.1,0.3-0.1,0.4-0.2c0.1-0.1,0.2-0.2,0.3-0.3c0.1-0.1,0.1-0.2,0.2-0.3V115.7z"/>
	<path class="st4" d="M185.9,105.3h10.9v-8.5h-10.9V105.3z"/>
	<path class="st4" d="M131.4,105.6h10.9v-8.5h-10.9V105.6z"/>
	<path class="st3" d="M99.9,119.6h-0.6l-0.2-1.3h-4.3v-5.1h0.9v4.3h2.5v-4.3h0.9v4.3h0.8V119.6z M105.1,117.9
		c-0.2,0.2-0.5,0.3-0.8,0.4c-0.3,0.1-0.7,0.1-1.1,0.1c-0.4,0-0.8-0.1-1.1-0.2c-0.3-0.1-0.6-0.3-0.8-0.5c-0.2-0.2-0.4-0.5-0.4-0.8
		c-0.1-0.3-0.1-0.7-0.1-1.1c0-0.9,0.2-1.5,0.6-2c0.4-0.5,1-0.7,1.8-0.7c0.3,0,0.5,0,0.8,0.1c0.3,0.1,0.5,0.2,0.7,0.3
		c0.2,0.1,0.4,0.4,0.5,0.6c0.1,0.3,0.2,0.6,0.2,1c0,0.1,0,0.2,0,0.4s0,0.3,0,0.4h-3.6c0,0.6,0.2,1,0.4,1.4c0.3,0.3,0.7,0.5,1.4,0.5
		c0.3,0,0.5,0,0.8-0.1c0.2-0.1,0.4-0.2,0.6-0.3L105.1,117.9z M104.5,115.3c0-0.5-0.1-0.9-0.3-1.1c-0.2-0.2-0.5-0.3-0.9-0.3
		c-0.5,0-0.8,0.1-1.1,0.3c-0.3,0.2-0.4,0.6-0.5,1.1H104.5z M106.8,113.2h0.6l0.2,0.7h0.1c0.2-0.3,0.4-0.4,0.7-0.6
		c0.3-0.1,0.6-0.2,0.9-0.2c0.7,0,1.3,0.2,1.7,0.6c0.4,0.4,0.5,1.1,0.5,2c0,0.4-0.1,0.8-0.2,1.2c-0.1,0.3-0.3,0.6-0.5,0.9
		c-0.2,0.2-0.5,0.4-0.8,0.6c-0.3,0.1-0.7,0.2-1.1,0.2c-0.1,0-0.2,0-0.4,0c-0.1,0-0.2,0-0.3,0c-0.1,0-0.2,0-0.3-0.1
		c-0.1,0-0.2-0.1-0.3-0.1v2.1h-0.9V113.2z M109.1,113.8c-0.4,0-0.7,0.1-0.9,0.3c-0.2,0.2-0.4,0.5-0.5,0.9v2.4
		c0.1,0.1,0.3,0.2,0.5,0.2c0.2,0.1,0.4,0.1,0.7,0.1c0.5,0,0.9-0.2,1.2-0.5c0.3-0.3,0.4-0.9,0.4-1.5c0-0.6-0.1-1-0.3-1.3
		C110,114,109.6,113.8,109.1,113.8z M114.4,116h-0.6v2.3h-0.9v-5.1h0.9v2.3l0.5-0.2l1.7-2.1h1l-1.7,2h0l-0.5,0.4l0.6,0.4l1.8,2.3
		h-1.1L114.4,116z M118.2,113.2l0.4,0c0.2,0,0.4,0,0.7,0c0.2,0,0.5,0,0.9,0c0.8,0,1.3,0.1,1.6,0.3c0.3,0.2,0.5,0.5,0.5,0.9
		c0,0.2-0.1,0.5-0.2,0.7c-0.2,0.2-0.4,0.4-0.7,0.5v0.1c0.4,0.1,0.7,0.2,0.9,0.4c0.2,0.2,0.3,0.5,0.3,0.8c0,0.5-0.2,0.9-0.6,1.1
		c-0.4,0.2-1.1,0.4-1.9,0.4c-0.3,0-0.6,0-0.8,0c-0.3,0-0.5,0-0.7,0c0,0,0,0-0.1,0c0,0,0,0-0.1,0V113.2z M119.1,117.6
		c0.1,0,0.3,0,0.4,0c0.1,0,0.3,0,0.5,0c0.5,0,0.9-0.1,1.1-0.2c0.2-0.1,0.3-0.4,0.3-0.7c0-0.1,0-0.2-0.1-0.3c0-0.1-0.1-0.2-0.2-0.3
		c-0.1-0.1-0.2-0.1-0.4-0.2c-0.2,0-0.4-0.1-0.7-0.1h-1V117.6z M120.2,115.4c0.1,0,0.3,0,0.4-0.1c0.1,0,0.2-0.1,0.3-0.2
		c0.1-0.1,0.2-0.2,0.2-0.2c0.1-0.1,0.1-0.2,0.1-0.3c0-0.3-0.1-0.5-0.3-0.6c-0.2-0.1-0.5-0.2-0.9-0.2c-0.1,0-0.3,0-0.5,0
		c-0.1,0-0.3,0-0.5,0v1.5H120.2z M123.8,113.6c0.6-0.3,1.3-0.4,2.2-0.4c0.4,0,0.7,0.1,0.9,0.2c0.2,0.1,0.4,0.2,0.6,0.4
		s0.2,0.3,0.3,0.5c0,0.2,0.1,0.4,0.1,0.6c0,0.4,0,0.7,0,1.1c0,0.4,0,0.7,0,1.2c0,0.2,0,0.5,0,0.7c0,0.2,0.1,0.4,0.1,0.6h-0.7
		l-0.2-0.8h-0.1c-0.1,0.1-0.2,0.2-0.3,0.3c-0.1,0.1-0.2,0.2-0.4,0.3c-0.1,0.1-0.3,0.1-0.5,0.2c-0.2,0.1-0.4,0.1-0.6,0.1
		s-0.5,0-0.7-0.1c-0.2-0.1-0.4-0.2-0.5-0.3c-0.1-0.1-0.3-0.3-0.3-0.4c-0.1-0.2-0.1-0.4-0.1-0.6c0-0.3,0.1-0.5,0.2-0.8
		c0.1-0.2,0.3-0.4,0.5-0.5s0.4-0.2,0.7-0.3c0.3-0.1,0.5-0.1,0.8-0.1c0.2,0,0.4,0,0.5,0c0.1,0,0.3,0,0.3,0c0.1,0,0.2,0,0.2,0
		c0.1,0,0.1,0,0.2,0c0-0.1,0-0.2,0-0.3c0-0.1,0-0.2,0-0.3c0-0.2,0-0.3-0.1-0.5c0-0.1-0.1-0.2-0.2-0.3c-0.1-0.1-0.2-0.1-0.3-0.2
		c-0.1,0-0.3,0-0.5,0c-0.1,0-0.3,0-0.4,0c-0.1,0-0.3,0-0.4,0.1c-0.1,0-0.3,0.1-0.4,0.1c-0.1,0.1-0.3,0.1-0.4,0.2L123.8,113.6z
		 M126.9,116c-0.1,0-0.1,0-0.2,0c-0.1,0-0.1,0-0.2,0c-0.1,0-0.2,0-0.3,0c-0.1,0-0.3,0-0.4,0c-0.4,0-0.7,0.1-1,0.2
		c-0.2,0.1-0.3,0.4-0.3,0.7c0,0.3,0.1,0.5,0.3,0.6c0.2,0.1,0.4,0.2,0.7,0.2c0.2,0,0.4,0,0.6-0.1c0.2-0.1,0.3-0.1,0.4-0.2
		c0.1-0.1,0.2-0.2,0.3-0.3c0.1-0.1,0.1-0.2,0.2-0.3V116z M134.4,118c-0.2,0.2-0.5,0.3-0.8,0.3c-0.3,0.1-0.7,0.1-1,0.1
		c-0.4,0-0.8-0.1-1.2-0.2c-0.4-0.1-0.7-0.4-1-0.6c-0.3-0.3-0.5-0.7-0.7-1.1c-0.2-0.4-0.3-1-0.3-1.6c0-0.6,0.1-1.2,0.3-1.6
		c0.2-0.4,0.4-0.8,0.8-1.1c0.3-0.3,0.7-0.5,1-0.6c0.4-0.1,0.8-0.2,1.2-0.2c0.4,0,0.8,0,1,0.1c0.3,0,0.5,0.1,0.7,0.2l-0.2,0.8
		c-0.3-0.1-0.8-0.2-1.4-0.2c-0.3,0-0.6,0-0.9,0.1c-0.3,0.1-0.5,0.2-0.7,0.5c-0.2,0.2-0.4,0.5-0.5,0.8c-0.1,0.3-0.2,0.8-0.2,1.2
		c0,0.4,0.1,0.8,0.2,1.2c0.1,0.3,0.3,0.6,0.5,0.8c0.2,0.2,0.5,0.4,0.8,0.5c0.3,0.1,0.6,0.2,1,0.2c0.3,0,0.6,0,0.8-0.1
		c0.2-0.1,0.4-0.1,0.6-0.2L134.4,118z M135.6,113.2l0.4,0c0.2,0,0.4,0,0.7,0c0.2,0,0.5,0,0.9,0c0.8,0,1.3,0.1,1.6,0.3
		c0.3,0.2,0.5,0.5,0.5,0.9c0,0.2-0.1,0.5-0.2,0.7c-0.2,0.2-0.4,0.4-0.7,0.5v0.1c0.4,0.1,0.7,0.2,0.9,0.4c0.2,0.2,0.3,0.5,0.3,0.8
		c0,0.5-0.2,0.9-0.6,1.1c-0.4,0.2-1.1,0.4-1.9,0.4c-0.3,0-0.6,0-0.8,0c-0.3,0-0.5,0-0.7,0c0,0,0,0-0.1,0c0,0,0,0-0.1,0V113.2z
		 M136.5,117.6c0.1,0,0.3,0,0.4,0c0.1,0,0.3,0,0.5,0c0.5,0,0.9-0.1,1.1-0.2c0.2-0.1,0.3-0.4,0.3-0.7c0-0.1,0-0.2-0.1-0.3
		s-0.1-0.2-0.2-0.3c-0.1-0.1-0.2-0.1-0.4-0.2c-0.2,0-0.4-0.1-0.7-0.1h-1V117.6z M137.6,115.4c0.1,0,0.3,0,0.4-0.1
		c0.1,0,0.2-0.1,0.3-0.2c0.1-0.1,0.2-0.2,0.2-0.2c0.1-0.1,0.1-0.2,0.1-0.3c0-0.3-0.1-0.5-0.3-0.6c-0.2-0.1-0.5-0.2-0.9-0.2
		c-0.1,0-0.3,0-0.5,0c-0.1,0-0.3,0-0.5,0v1.5H137.6z M140.9,117.8c0-0.2,0.1-0.3,0.2-0.4c0.1-0.1,0.3-0.2,0.5-0.2s0.3,0.1,0.5,0.2
		c0.1,0.1,0.2,0.3,0.2,0.4c0,0.2-0.1,0.3-0.2,0.4c-0.1,0.1-0.3,0.2-0.5,0.2s-0.4-0.1-0.5-0.2C141,118.2,140.9,118,140.9,117.8z
		 M149.4,116.6h-2.7l-0.7,1.8h-1l2.8-6.9h0.5l2.8,6.9h-1L149.4,116.6z M147,115.7h2.1l-0.8-1.9l-0.3-1h0l-0.3,1.1L147,115.7z
		 M155.5,116.1H153v2.2h-0.9v-5.1h0.9v2.1h2.6v-2.1h0.9v5.1h-0.9V116.1z M161.6,116.1H159v2.2h-0.9v-5.1h0.9v2.1h2.6v-2.1h0.9v5.1
		h-0.9V116.1z M167.7,115.4l0.1-1h-0.1l-0.5,1l-2.4,3h-0.7v-5.1h0.9v3l-0.1,0.9h0.1l0.4-0.9l2.3-3h0.7v5.1h-0.9V115.4z"/>
	<path class="st3" d="M280,77.7h-2.8v4.9h-1v-5.7h4.8v5.7h-1V77.7z M286.4,77.7h-1.9l0,0.3c-0.1,0.7-0.1,1.4-0.2,1.9
		c-0.1,0.6-0.2,1-0.3,1.4c-0.1,0.4-0.3,0.7-0.5,0.9c-0.2,0.2-0.5,0.3-0.8,0.3c-0.2,0-0.3,0-0.4,0c-0.1,0-0.2,0-0.3-0.1l0.2-0.9
		c0.1,0,0.2,0,0.3,0c0.2,0,0.3-0.1,0.5-0.2c0.1-0.1,0.3-0.4,0.4-0.7c0.1-0.3,0.2-0.8,0.3-1.5c0.1-0.6,0.1-1.4,0.1-2.4h3.8v5.7h-1
		V77.7z M288.9,82.1c0-0.2,0.1-0.4,0.2-0.5c0.1-0.1,0.3-0.2,0.5-0.2c0.2,0,0.4,0.1,0.5,0.2c0.1,0.1,0.2,0.3,0.2,0.5
		c0,0.2-0.1,0.4-0.2,0.5c-0.1,0.1-0.3,0.2-0.5,0.2c-0.2,0-0.4-0.1-0.5-0.2C289,82.4,288.9,82.2,288.9,82.1z M297.3,82.3
		c-0.2,0.2-0.5,0.3-0.9,0.4c-0.4,0.1-0.8,0.1-1.2,0.1c-0.5,0-1-0.1-1.4-0.2c-0.4-0.2-0.8-0.4-1.2-0.7c-0.3-0.3-0.6-0.7-0.8-1.2
		c-0.2-0.5-0.3-1.1-0.3-1.8c0-0.7,0.1-1.3,0.3-1.8c0.2-0.5,0.5-0.9,0.8-1.2c0.3-0.3,0.7-0.6,1.2-0.7c0.4-0.1,0.9-0.2,1.3-0.2
		c0.5,0,0.9,0,1.2,0.1c0.3,0.1,0.6,0.1,0.8,0.2l-0.2,0.9c-0.4-0.2-0.9-0.3-1.6-0.3c-0.3,0-0.6,0.1-1,0.2c-0.3,0.1-0.6,0.3-0.8,0.5
		c-0.2,0.2-0.4,0.5-0.6,0.9c-0.1,0.4-0.2,0.8-0.2,1.4c0,0.5,0.1,0.9,0.2,1.3c0.1,0.4,0.3,0.7,0.6,0.9c0.2,0.2,0.5,0.4,0.9,0.6
		c0.3,0.1,0.7,0.2,1.1,0.2c0.4,0,0.7,0,0.9-0.1c0.3-0.1,0.5-0.1,0.7-0.3L297.3,82.3z M302,77.7h-2v4.9h-1v-4.9h-2v-0.8h5V77.7z
		 M302.9,77.2c0.7-0.3,1.5-0.5,2.4-0.5c0.4,0,0.8,0.1,1,0.2c0.3,0.1,0.5,0.3,0.6,0.4c0.1,0.2,0.2,0.4,0.3,0.6
		c0.1,0.2,0.1,0.4,0.1,0.6c0,0.4,0,0.8,0,1.2c0,0.4,0,0.8,0,1.3c0,0.3,0,0.5,0,0.8c0,0.3,0.1,0.5,0.1,0.7h-0.7l-0.3-0.9h-0.1
		c-0.1,0.1-0.2,0.2-0.3,0.3c-0.1,0.1-0.3,0.2-0.4,0.3c-0.2,0.1-0.3,0.2-0.6,0.2c-0.2,0.1-0.4,0.1-0.7,0.1s-0.5,0-0.7-0.1
		c-0.2-0.1-0.4-0.2-0.6-0.3c-0.2-0.1-0.3-0.3-0.4-0.5c-0.1-0.2-0.1-0.4-0.1-0.7c0-0.3,0.1-0.6,0.2-0.8c0.1-0.2,0.3-0.4,0.6-0.6
		c0.2-0.2,0.5-0.3,0.8-0.3c0.3-0.1,0.6-0.1,0.9-0.1c0.2,0,0.4,0,0.6,0c0.2,0,0.3,0,0.4,0c0.1,0,0.2,0,0.3,0c0.1,0,0.1,0,0.2,0
		c0-0.1,0-0.2,0-0.3c0-0.1,0-0.2,0-0.3c0-0.2,0-0.4-0.1-0.5c0-0.1-0.1-0.2-0.2-0.3c-0.1-0.1-0.2-0.1-0.4-0.2s-0.4-0.1-0.6-0.1
		c-0.1,0-0.3,0-0.5,0c-0.2,0-0.3,0.1-0.5,0.1c-0.2,0-0.3,0.1-0.5,0.1c-0.2,0.1-0.3,0.1-0.4,0.2L302.9,77.2z M306.3,80
		c-0.1,0-0.1,0-0.2,0c-0.1,0-0.1,0-0.3,0c-0.1,0-0.2,0-0.3,0c-0.1,0-0.3,0-0.5,0c-0.5,0-0.8,0.1-1.1,0.2c-0.3,0.2-0.4,0.4-0.4,0.8
		c0,0.3,0.1,0.5,0.3,0.7c0.2,0.1,0.5,0.2,0.8,0.2c0.2,0,0.5,0,0.6-0.1c0.2-0.1,0.3-0.1,0.5-0.2c0.1-0.1,0.2-0.2,0.3-0.3
		c0.1-0.1,0.2-0.2,0.2-0.3V80z M309.3,76.9h0.7l0.2,0.7h0.1c0.2-0.3,0.5-0.5,0.8-0.7c0.3-0.2,0.7-0.2,1.1-0.2c0.8,0,1.4,0.2,1.9,0.7
		c0.4,0.5,0.6,1.2,0.6,2.2c0,0.5-0.1,0.9-0.2,1.3c-0.1,0.4-0.3,0.7-0.6,1c-0.2,0.3-0.6,0.5-0.9,0.6c-0.4,0.1-0.8,0.2-1.2,0.2
		c-0.1,0-0.3,0-0.4,0c-0.1,0-0.2,0-0.3-0.1c-0.1,0-0.2,0-0.3-0.1c-0.1,0-0.2-0.1-0.3-0.1v2.3h-1V76.9z M311.9,77.6
		c-0.4,0-0.8,0.1-1,0.3c-0.2,0.2-0.4,0.6-0.5,1v2.6c0.2,0.1,0.3,0.2,0.5,0.3c0.2,0.1,0.4,0.1,0.8,0.1c0.6,0,1-0.2,1.4-0.6
		c0.3-0.4,0.5-1,0.5-1.7c0-0.6-0.1-1.1-0.4-1.5C312.9,77.8,312.5,77.6,311.9,77.6z M320.1,79.3l0.2-1.1h-0.1l-0.5,1.1l-2.7,3.3h-0.8
		v-5.7h1v3.4l-0.1,1h0.1l0.5-1l2.6-3.4h0.8v5.7h-1V79.3z M327,79.3l0.2-1.1H327l-0.5,1.1l-2.7,3.3H323v-5.7h1v3.4l-0.1,1h0.1l0.5-1
		l2.6-3.4h0.8v5.7h-1V79.3z M324.6,74.9c0,0.2,0.1,0.3,0.2,0.4c0.1,0.1,0.1,0.2,0.2,0.2c0.1,0,0.2,0.1,0.3,0.1c0.1,0,0.2,0,0.4,0
		c0.1,0,0.2,0,0.3,0c0.1,0,0.2,0,0.3-0.1c0.1-0.1,0.2-0.1,0.2-0.2c0.1-0.1,0.1-0.2,0.2-0.4l0.8,0.2c-0.1,0.4-0.3,0.7-0.6,0.9
		c-0.3,0.2-0.7,0.3-1.2,0.3c-0.2,0-0.4,0-0.7-0.1c-0.2,0-0.4-0.1-0.6-0.2c-0.2-0.1-0.3-0.2-0.4-0.3c-0.1-0.1-0.2-0.3-0.2-0.5
		L324.6,74.9z M333.1,75.1c0.3-0.1,0.6-0.1,1-0.1c0.4,0,0.7,0,1.1,0c0.4,0,0.7,0,1.1,0.1c0.4,0.1,0.7,0.2,1,0.4
		c0.3,0.2,0.6,0.4,0.8,0.7c0.2,0.3,0.3,0.7,0.3,1.2c0,0.5-0.1,0.8-0.3,1.2c-0.2,0.3-0.4,0.6-0.7,0.8c-0.3,0.2-0.6,0.4-1,0.4
		c-0.4,0.1-0.8,0.1-1.2,0.1c0,0-0.1,0-0.2,0c-0.1,0-0.2,0-0.3,0c-0.1,0-0.2,0-0.3,0c-0.1,0-0.2,0-0.2,0v2.9h-1.1V75.1z M335.2,75.8
		c-0.2,0-0.4,0-0.6,0c-0.2,0-0.3,0-0.4,0.1v2.9c0,0,0.1,0,0.2,0c0.1,0,0.2,0,0.3,0c0.1,0,0.2,0,0.3,0c0.1,0,0.2,0,0.2,0
		c0.3,0,0.5,0,0.8-0.1c0.3,0,0.5-0.1,0.7-0.2c0.2-0.1,0.4-0.3,0.5-0.5c0.1-0.2,0.2-0.5,0.2-0.8c0-0.3-0.1-0.5-0.2-0.7
		c-0.1-0.2-0.3-0.3-0.5-0.4c-0.2-0.1-0.4-0.2-0.7-0.2C335.7,75.8,335.4,75.8,335.2,75.8z M343.4,79.3l0.2-1.1h-0.1l-0.5,1.1
		l-2.7,3.3h-0.8v-5.7h1v3.4l-0.1,1h0.1l0.5-1l2.6-3.4h0.8v5.7h-1V79.3z M350.1,80.1h-2.9v2.5h-1v-5.7h1v2.3h2.9v-2.3h1v5.7h-1V80.1z
		 M352.8,79.8c0-0.5,0.1-0.9,0.2-1.3c0.1-0.4,0.3-0.7,0.5-1c0.2-0.3,0.5-0.5,0.9-0.6c0.3-0.1,0.7-0.2,1.2-0.2c0.5,0,0.9,0.1,1.2,0.2
		c0.3,0.2,0.6,0.4,0.9,0.6c0.2,0.3,0.4,0.6,0.5,1c0.1,0.4,0.2,0.8,0.2,1.2c0,0.5-0.1,0.9-0.2,1.3c-0.1,0.4-0.3,0.7-0.5,0.9
		c-0.2,0.3-0.5,0.5-0.9,0.6c-0.3,0.1-0.7,0.2-1.2,0.2c-0.5,0-0.9-0.1-1.2-0.2s-0.6-0.4-0.9-0.6c-0.2-0.3-0.4-0.6-0.5-0.9
		C352.8,80.6,352.8,80.2,352.8,79.8z M353.8,79.8c0,0.3,0,0.5,0.1,0.8c0.1,0.3,0.2,0.5,0.3,0.7c0.1,0.2,0.3,0.4,0.5,0.5
		c0.2,0.1,0.5,0.2,0.8,0.2c1.1,0,1.7-0.7,1.7-2.2c0-0.3,0-0.6-0.1-0.8c-0.1-0.3-0.2-0.5-0.3-0.7c-0.1-0.2-0.3-0.4-0.5-0.5
		c-0.2-0.1-0.5-0.2-0.8-0.2c-0.6,0-1,0.2-1.3,0.5C354,78.5,353.8,79,353.8,79.8z M361.6,80h-0.6v2.6h-1v-5.7h1v2.6l0.6-0.2l1.9-2.4
		h1.1l-1.9,2.2h0l-0.6,0.4l0.7,0.5l2,2.6h-1.3L361.6,80z"/>
	<path class="st4" d="M267.2,75.2l8.7-8.7l-6.7-6.7l-8.7,8.7L267.2,75.2z"/>
	<path class="st4" d="M106.1,83.9c4.8,0,8.7-3.9,8.7-8.7s-3.9-8.7-8.7-8.7c-4.8,0-8.7,3.9-8.7,8.7S101.3,83.9,106.1,83.9z"/>
	<path class="st5" d="M109.2,77.2c0,0.4-0.1,0.8-0.2,1.1c-0.2,0.3-0.4,0.7-0.6,0.9c-0.3,0.3-0.6,0.5-1,0.6c-0.4,0.2-0.8,0.2-1.3,0.2
		c-0.5,0-0.9-0.1-1.3-0.2s-0.7-0.4-1-0.6c-0.3-0.3-0.5-0.6-0.7-1.1c-0.2-0.4-0.2-0.9-0.2-1.5c0-0.8,0.1-1.6,0.4-2.3
		c0.3-0.7,0.6-1.3,1.1-1.8c0.5-0.5,1-0.9,1.6-1.2c0.6-0.3,1.2-0.5,1.9-0.6l0.4,1.4c-0.5,0.1-0.9,0.2-1.3,0.4c-0.4,0.2-0.7,0.4-1,0.7
		c-0.3,0.3-0.5,0.6-0.8,0.9c-0.2,0.3-0.3,0.7-0.4,1c0.2-0.2,0.4-0.4,0.7-0.5c0.3-0.2,0.6-0.2,1.1-0.2c0.4,0,0.8,0.1,1.2,0.2
		c0.4,0.1,0.7,0.3,0.9,0.5c0.3,0.2,0.5,0.5,0.6,0.9C109.1,76.4,109.2,76.8,109.2,77.2z M107.5,77.3c0-0.9-0.5-1.4-1.5-1.4
		c-0.4,0-0.7,0.1-0.9,0.2c-0.3,0.1-0.4,0.3-0.5,0.5c0,0.1,0,0.2,0,0.2c0,0,0,0.1,0,0.2c0,0.2,0,0.4,0.1,0.6c0.1,0.2,0.2,0.4,0.3,0.5
		c0.1,0.2,0.3,0.3,0.5,0.4c0.2,0.1,0.4,0.1,0.7,0.1c0.2,0,0.4,0,0.6-0.1c0.2-0.1,0.3-0.2,0.5-0.3c0.1-0.1,0.2-0.3,0.3-0.4
		C107.4,77.7,107.5,77.5,107.5,77.3z"/>
	<path class="st3" d="M170.7,227.6h-2.5v4.3h-0.9v-5.1h4.3v5.1h-0.9V227.6z M176.4,227.6h-1.7l0,0.3c0,0.6-0.1,1.2-0.2,1.7
		c-0.1,0.5-0.1,0.9-0.3,1.3c-0.1,0.3-0.3,0.6-0.5,0.8c-0.2,0.2-0.4,0.3-0.8,0.3c-0.1,0-0.3,0-0.4,0c-0.1,0-0.2,0-0.3-0.1l0.1-0.8
		c0.1,0,0.2,0,0.3,0c0.2,0,0.3-0.1,0.4-0.2c0.1-0.1,0.2-0.3,0.3-0.6c0.1-0.3,0.2-0.7,0.2-1.3c0.1-0.6,0.1-1.3,0.1-2.2h3.4v5.1h-0.9
		V227.6z M178.6,231.5c0-0.2,0.1-0.3,0.2-0.4c0.1-0.1,0.3-0.2,0.5-0.2c0.2,0,0.3,0.1,0.5,0.2c0.1,0.1,0.2,0.3,0.2,0.4
		c0,0.2-0.1,0.3-0.2,0.4c-0.1,0.1-0.3,0.2-0.5,0.2c-0.2,0-0.4-0.1-0.5-0.2C178.7,231.8,178.6,231.6,178.6,231.5z M184.4,225.8h-0.8
		v-0.6h2.5v0.6h-0.8v5.5h0.8v0.6h-2.5v-0.6h0.8V225.8z M187.4,231.5c0-0.2,0.1-0.3,0.2-0.4c0.1-0.1,0.3-0.2,0.5-0.2
		c0.2,0,0.3,0.1,0.5,0.2c0.1,0.1,0.2,0.3,0.2,0.4c0,0.2-0.1,0.3-0.2,0.4c-0.1,0.1-0.3,0.2-0.5,0.2c-0.2,0-0.4-0.1-0.5-0.2
		C187.4,231.8,187.4,231.6,187.4,231.5z M195.4,231.2c-0.1,0-0.3,0-0.4,0c-0.1,0-0.3,0-0.4,0c-0.3,0-0.7-0.1-0.9-0.2
		c-0.3-0.1-0.5-0.3-0.8-0.5c-0.2-0.2-0.4-0.5-0.5-0.8c-0.1-0.3-0.2-0.7-0.2-1.2c0-0.4,0.1-0.8,0.2-1.2c0.1-0.3,0.3-0.6,0.5-0.9
		c0.2-0.2,0.5-0.4,0.8-0.6c0.3-0.1,0.7-0.2,1.1-0.2c0.1,0,0.2,0,0.3,0c0.1,0,0.2,0,0.3,0V225h0.9v0.9c0.1,0,0.3-0.1,0.4-0.1
		c0.2,0,0.3,0,0.4,0c0.3,0,0.7,0.1,0.9,0.2c0.3,0.1,0.6,0.3,0.8,0.5c0.2,0.2,0.4,0.5,0.5,0.8c0.1,0.3,0.2,0.7,0.2,1.2
		c0,0.5-0.1,0.9-0.2,1.2c-0.1,0.3-0.3,0.6-0.6,0.9c-0.2,0.2-0.5,0.4-0.8,0.5c-0.3,0.1-0.6,0.2-1,0.2c-0.1,0-0.2,0-0.3,0
		c-0.1,0-0.3,0-0.3-0.1v1h-0.9V231.2z M197.1,226.5c-0.1,0-0.2,0-0.4,0c-0.1,0-0.3,0-0.4,0v3.9c0.1,0,0.2,0,0.3,0c0.1,0,0.2,0,0.3,0
		c0.2,0,0.5,0,0.7-0.1c0.2-0.1,0.4-0.2,0.5-0.4c0.2-0.2,0.3-0.4,0.4-0.6c0.1-0.3,0.1-0.6,0.1-0.9c0-0.3,0-0.5-0.1-0.8
		c-0.1-0.2-0.2-0.4-0.3-0.6c-0.1-0.2-0.3-0.3-0.5-0.4C197.5,226.6,197.3,226.5,197.1,226.5z M194.7,230.5c0.1,0,0.2,0,0.3,0
		c0.1,0,0.3,0,0.4-0.1v-3.9c-0.1,0-0.2,0-0.3,0c-0.1,0-0.2,0-0.3,0c-0.2,0-0.5,0-0.7,0.1c-0.2,0.1-0.4,0.2-0.5,0.4
		c-0.1,0.2-0.3,0.4-0.4,0.6c-0.1,0.3-0.1,0.5-0.1,0.9c0,0.3,0,0.6,0.1,0.8c0.1,0.2,0.2,0.4,0.3,0.6c0.1,0.2,0.3,0.3,0.5,0.4
		C194.3,230.4,194.5,230.5,194.7,230.5z M200.9,226.9h0.6l0.2,0.7h0.1c0.2-0.3,0.4-0.4,0.7-0.6c0.3-0.1,0.6-0.2,0.9-0.2
		c0.7,0,1.3,0.2,1.7,0.6c0.4,0.4,0.5,1.1,0.5,2c0,0.4-0.1,0.8-0.2,1.2c-0.1,0.3-0.3,0.6-0.5,0.9c-0.2,0.2-0.5,0.4-0.8,0.6
		c-0.3,0.1-0.7,0.2-1.1,0.2c-0.1,0-0.2,0-0.4,0c-0.1,0-0.2,0-0.3,0c-0.1,0-0.2,0-0.3-0.1c-0.1,0-0.2-0.1-0.3-0.1v2.1h-0.9V226.9z
		 M203.2,227.5c-0.4,0-0.7,0.1-0.9,0.3c-0.2,0.2-0.4,0.5-0.5,0.9v2.4c0.1,0.1,0.3,0.2,0.5,0.2c0.2,0.1,0.4,0.1,0.7,0.1
		c0.5,0,0.9-0.2,1.2-0.5c0.3-0.3,0.4-0.9,0.4-1.5c0-0.6-0.1-1-0.3-1.3C204.1,227.6,203.7,227.5,203.2,227.5z M207,227.2
		c0.6-0.3,1.3-0.4,2.2-0.4c0.4,0,0.7,0.1,0.9,0.2c0.2,0.1,0.4,0.2,0.6,0.4c0.1,0.2,0.2,0.3,0.3,0.5c0,0.2,0.1,0.4,0.1,0.6
		c0,0.4,0,0.7,0,1.1c0,0.4,0,0.7,0,1.2c0,0.2,0,0.5,0,0.7c0,0.2,0.1,0.4,0.1,0.6h-0.7l-0.2-0.8H210c-0.1,0.1-0.2,0.2-0.3,0.3
		c-0.1,0.1-0.2,0.2-0.4,0.3c-0.1,0.1-0.3,0.1-0.5,0.2c-0.2,0.1-0.4,0.1-0.6,0.1s-0.5,0-0.7-0.1c-0.2-0.1-0.4-0.2-0.5-0.3
		c-0.1-0.1-0.3-0.3-0.3-0.4c-0.1-0.2-0.1-0.4-0.1-0.6c0-0.3,0.1-0.5,0.2-0.8c0.1-0.2,0.3-0.4,0.5-0.5s0.4-0.2,0.7-0.3
		c0.3-0.1,0.5-0.1,0.8-0.1c0.2,0,0.4,0,0.5,0c0.1,0,0.3,0,0.3,0c0.1,0,0.2,0,0.2,0c0.1,0,0.1,0,0.2,0c0-0.1,0-0.2,0-0.3
		c0-0.1,0-0.2,0-0.3c0-0.2,0-0.3-0.1-0.5c0-0.1-0.1-0.2-0.2-0.3c-0.1-0.1-0.2-0.1-0.3-0.2c-0.1,0-0.3,0-0.5,0c-0.1,0-0.3,0-0.4,0
		s-0.3,0-0.4,0.1c-0.1,0-0.3,0.1-0.4,0.1c-0.1,0.1-0.3,0.1-0.4,0.2L207,227.2z M210,229.6c-0.1,0-0.1,0-0.2,0c-0.1,0-0.1,0-0.2,0
		c-0.1,0-0.2,0-0.3,0c-0.1,0-0.3,0-0.4,0c-0.4,0-0.7,0.1-1,0.2c-0.2,0.1-0.3,0.4-0.3,0.7c0,0.3,0.1,0.5,0.3,0.6
		c0.2,0.1,0.4,0.2,0.7,0.2c0.2,0,0.4,0,0.6-0.1c0.2-0.1,0.3-0.1,0.4-0.2c0.1-0.1,0.2-0.2,0.3-0.3c0.1-0.1,0.1-0.2,0.2-0.3V229.6z
		 M216.1,229.7h-2.6v2.2h-0.9v-5.1h0.9v2.1h2.6v-2.1h0.9v5.1h-0.9V229.7z M220.2,229.7h-0.6v2.3h-0.9v-5.1h0.9v2.3l0.5-0.2l1.7-2.1
		h1l-1.7,2h0l-0.5,0.4l0.6,0.4l1.8,2.3H222L220.2,229.7z M224,227.2c0.6-0.3,1.3-0.4,2.2-0.4c0.4,0,0.7,0.1,0.9,0.2
		c0.2,0.1,0.4,0.2,0.6,0.4c0.1,0.2,0.2,0.3,0.3,0.5c0,0.2,0.1,0.4,0.1,0.6c0,0.4,0,0.7,0,1.1c0,0.4,0,0.7,0,1.2c0,0.2,0,0.5,0,0.7
		c0,0.2,0.1,0.4,0.1,0.6h-0.7l-0.2-0.8h-0.1c-0.1,0.1-0.2,0.2-0.3,0.3c-0.1,0.1-0.2,0.2-0.4,0.3c-0.1,0.1-0.3,0.1-0.5,0.2
		c-0.2,0.1-0.4,0.1-0.6,0.1s-0.5,0-0.7-0.1c-0.2-0.1-0.4-0.2-0.5-0.3c-0.1-0.1-0.3-0.3-0.3-0.4c-0.1-0.2-0.1-0.4-0.1-0.6
		c0-0.3,0.1-0.5,0.2-0.8c0.1-0.2,0.3-0.4,0.5-0.5s0.4-0.2,0.7-0.3c0.3-0.1,0.5-0.1,0.8-0.1c0.2,0,0.4,0,0.5,0c0.1,0,0.3,0,0.3,0
		c0.1,0,0.2,0,0.2,0c0.1,0,0.1,0,0.2,0c0-0.1,0-0.2,0-0.3c0-0.1,0-0.2,0-0.3c0-0.2,0-0.3-0.1-0.5s-0.1-0.2-0.2-0.3
		c-0.1-0.1-0.2-0.1-0.3-0.2c-0.1,0-0.3,0-0.5,0c-0.1,0-0.3,0-0.4,0s-0.3,0-0.4,0.1c-0.1,0-0.3,0.1-0.4,0.1c-0.1,0.1-0.3,0.1-0.4,0.2
		L224,227.2z M227,229.6c-0.1,0-0.1,0-0.2,0c-0.1,0-0.1,0-0.2,0c-0.1,0-0.2,0-0.3,0c-0.1,0-0.3,0-0.4,0c-0.4,0-0.7,0.1-1,0.2
		c-0.2,0.1-0.3,0.4-0.3,0.7c0,0.3,0.1,0.5,0.3,0.6c0.2,0.1,0.4,0.2,0.7,0.2c0.2,0,0.4,0,0.6-0.1c0.2-0.1,0.3-0.1,0.4-0.2
		c0.1-0.1,0.2-0.2,0.3-0.3c0.1-0.1,0.1-0.2,0.2-0.3V229.6z"/>
	<path class="st3" d="M33.7,196.8h-2.5v4.3h-0.9V196h4.3v5.1h-0.9V196.8z M36.3,196.4c0.6-0.3,1.3-0.4,2.2-0.4
		c0.4,0,0.7,0.1,0.9,0.2c0.2,0.1,0.4,0.2,0.6,0.4c0.1,0.2,0.2,0.3,0.3,0.5c0,0.2,0.1,0.4,0.1,0.6c0,0.4,0,0.7,0,1.1
		c0,0.4,0,0.7,0,1.2c0,0.2,0,0.5,0,0.7c0,0.2,0.1,0.4,0.1,0.6h-0.7l-0.2-0.8h-0.1c-0.1,0.1-0.2,0.2-0.3,0.3
		c-0.1,0.1-0.2,0.2-0.4,0.3s-0.3,0.1-0.5,0.2c-0.2,0.1-0.4,0.1-0.6,0.1c-0.2,0-0.5,0-0.7-0.1c-0.2-0.1-0.4-0.2-0.5-0.3
		c-0.1-0.1-0.3-0.3-0.3-0.4c-0.1-0.2-0.1-0.4-0.1-0.6c0-0.3,0.1-0.5,0.2-0.8c0.1-0.2,0.3-0.4,0.5-0.5c0.2-0.1,0.4-0.2,0.7-0.3
		c0.3-0.1,0.5-0.1,0.8-0.1c0.2,0,0.4,0,0.5,0c0.1,0,0.3,0,0.3,0c0.1,0,0.2,0,0.2,0c0.1,0,0.1,0,0.2,0c0-0.1,0-0.2,0-0.3
		c0-0.1,0-0.2,0-0.3c0-0.2,0-0.3-0.1-0.5c0-0.1-0.1-0.2-0.2-0.3c-0.1-0.1-0.2-0.1-0.3-0.2c-0.1,0-0.3,0-0.5,0c-0.1,0-0.3,0-0.4,0
		c-0.1,0-0.3,0-0.4,0.1c-0.1,0-0.3,0.1-0.4,0.1c-0.1,0.1-0.3,0.1-0.4,0.2L36.3,196.4z M39.3,198.8c-0.1,0-0.1,0-0.2,0
		c-0.1,0-0.1,0-0.2,0c-0.1,0-0.2,0-0.3,0c-0.1,0-0.3,0-0.4,0c-0.4,0-0.7,0.1-1,0.2c-0.2,0.1-0.3,0.4-0.3,0.7c0,0.3,0.1,0.5,0.3,0.6
		c0.2,0.1,0.4,0.2,0.7,0.2c0.2,0,0.4,0,0.6-0.1c0.2-0.1,0.3-0.1,0.4-0.2c0.1-0.1,0.2-0.2,0.3-0.3c0.1-0.1,0.1-0.2,0.2-0.3V198.8z
		 M42,196h0.6l0.2,0.7h0.1c0.2-0.3,0.4-0.4,0.7-0.6c0.3-0.1,0.6-0.2,0.9-0.2c0.7,0,1.3,0.2,1.7,0.6c0.4,0.4,0.5,1.1,0.5,2
		c0,0.4-0.1,0.8-0.2,1.2c-0.1,0.3-0.3,0.6-0.5,0.9c-0.2,0.2-0.5,0.4-0.8,0.6c-0.3,0.1-0.7,0.2-1.1,0.2c-0.1,0-0.2,0-0.4,0
		c-0.1,0-0.2,0-0.3,0c-0.1,0-0.2,0-0.3-0.1c-0.1,0-0.2-0.1-0.3-0.1v2.1H42V196z M44.3,196.6c-0.4,0-0.7,0.1-0.9,0.3
		c-0.2,0.2-0.4,0.5-0.5,0.9v2.4c0.1,0.1,0.3,0.2,0.5,0.2c0.2,0.1,0.4,0.1,0.7,0.1c0.5,0,0.9-0.2,1.2-0.5c0.3-0.3,0.4-0.9,0.4-1.5
		c0-0.6-0.1-1-0.3-1.3C45.2,196.8,44.8,196.6,44.3,196.6z M49.6,198.8H49v2.3h-0.9V196H49v2.3l0.5-0.2l1.7-2.1h1l-1.7,2h0l-0.5,0.4
		l0.6,0.4l1.8,2.3h-1.1L49.6,198.8z M57.7,198h-0.5v3.1h-1v-6.8h1v3.1l0.4-0.1l2.4-3h1.1l-2.4,2.9l-0.5,0.3l0.5,0.4l2.7,3.2h-1.2
		L57.7,198z M64.3,199.3l0.3,1h0.1l0.2-1l1.1-3.2H67l-1.7,4.6c-0.1,0.3-0.2,0.6-0.4,0.9c-0.1,0.3-0.3,0.6-0.4,0.8
		c-0.1,0.2-0.3,0.4-0.5,0.6c-0.2,0.1-0.4,0.2-0.6,0.2c-0.3,0-0.5,0-0.7-0.1l0.1-0.8c0.1,0,0.2,0,0.3,0c0.1,0,0.2,0,0.3,0
		c0.1,0,0.2-0.1,0.3-0.2c0.1-0.1,0.2-0.2,0.2-0.4c0.1-0.1,0.1-0.3,0.2-0.6L62,196H63L64.3,199.3z M70.9,196.8h-1.7l0,0.3
		c0,0.6-0.1,1.2-0.2,1.7c-0.1,0.5-0.1,0.9-0.3,1.3c-0.1,0.3-0.3,0.6-0.5,0.8c-0.2,0.2-0.4,0.3-0.8,0.3c-0.1,0-0.3,0-0.4,0
		c-0.1,0-0.2,0-0.3-0.1l0.1-0.8c0.1,0,0.2,0,0.3,0c0.2,0,0.3-0.1,0.4-0.2c0.1-0.1,0.2-0.3,0.3-0.6c0.1-0.3,0.2-0.7,0.2-1.3
		c0.1-0.6,0.1-1.3,0.1-2.2h3.4v5.1h-0.9V196.8z M74.4,200.4c0.3,0,0.5,0.1,0.8,0.1c0.5,0,0.8-0.1,1-0.2c0.2-0.2,0.3-0.4,0.3-0.7
		c0-0.3-0.1-0.5-0.3-0.7c-0.2-0.2-0.6-0.3-1-0.3c-0.1,0-0.3,0-0.4,0c-0.1,0-0.3,0-0.4,0.1V200.4z M74.4,198c0.2,0,0.4-0.1,0.6-0.1
		c0.2,0,0.3,0,0.5,0c0.4,0,0.7,0,1,0.1c0.3,0.1,0.5,0.2,0.7,0.3c0.2,0.1,0.3,0.3,0.4,0.5c0.1,0.2,0.1,0.4,0.1,0.6
		c0,0.6-0.2,1.1-0.6,1.4c-0.4,0.3-1,0.4-1.9,0.4c-0.3,0-0.5,0-0.8,0c-0.2,0-0.5,0-0.7,0V196h0.9V198z M81.9,196.8h-1.8v4.3h-0.9
		v-4.3h-1.8V196h4.4V196.8z M84.3,199.3l0.3,1h0.1l0.2-1l1.1-3.2H87l-1.7,4.6c-0.1,0.3-0.2,0.6-0.4,0.9c-0.1,0.3-0.3,0.6-0.4,0.8
		c-0.1,0.2-0.3,0.4-0.5,0.6c-0.2,0.1-0.4,0.2-0.6,0.2c-0.3,0-0.5,0-0.7-0.1l0.1-0.8c0.1,0,0.2,0,0.3,0c0.1,0,0.2,0,0.3,0
		c0.1,0,0.2-0.1,0.3-0.2c0.1-0.1,0.2-0.2,0.2-0.4c0.1-0.1,0.1-0.3,0.2-0.6L82,196H83L84.3,199.3z M87.9,196h0.6l0.2,0.7h0.1
		c0.2-0.3,0.4-0.4,0.7-0.6c0.3-0.1,0.6-0.2,0.9-0.2c0.7,0,1.3,0.2,1.7,0.6c0.4,0.4,0.5,1.1,0.5,2c0,0.4-0.1,0.8-0.2,1.2
		c-0.1,0.3-0.3,0.6-0.5,0.9c-0.2,0.2-0.5,0.4-0.8,0.6c-0.3,0.1-0.7,0.2-1.1,0.2c-0.1,0-0.2,0-0.4,0c-0.1,0-0.2,0-0.3,0
		c-0.1,0-0.2,0-0.3-0.1c-0.1,0-0.2-0.1-0.3-0.1v2.1h-0.9V196z M90.2,196.6c-0.4,0-0.7,0.1-0.9,0.3c-0.2,0.2-0.4,0.5-0.5,0.9v2.4
		c0.1,0.1,0.3,0.2,0.5,0.2c0.2,0.1,0.4,0.1,0.7,0.1c0.5,0,0.9-0.2,1.2-0.5c0.3-0.3,0.4-0.9,0.4-1.5c0-0.6-0.1-1-0.3-1.3
		C91.1,196.8,90.7,196.6,90.2,196.6z M97.6,198.2l0.1-1h-0.1l-0.5,1l-2.4,3H94V196h0.9v3l-0.1,0.9H95l0.4-0.9l2.3-3h0.7v5.1h-0.9
		V198.2z"/>
	<path class="st6" d="M165.3,220.1h10.9v-8.5h-10.9V220.1z"/>
	<path class="st6" d="M99.2,186.2l7.7,7.7l6-6l-7.7-7.7L99.2,186.2z"/>
	<path class="st6" d="M95.6,148.3c4.8,0,8.7-3.9,8.7-8.7s-3.9-8.7-8.7-8.7s-8.7,3.9-8.7,8.7S90.8,148.3,95.6,148.3z"/>
	<path class="st5" d="M95.1,143c0.3,0,0.5,0,0.8-0.1c0.2-0.1,0.4-0.2,0.5-0.3c0.1-0.1,0.3-0.3,0.3-0.4c0.1-0.2,0.1-0.3,0.1-0.5
		c0-0.5-0.2-0.8-0.5-1c-0.3-0.2-0.8-0.3-1.5-0.3h-1v-0.9l1.6-2l0.8-0.6l-1.1,0.1H93v-1.5h5.3v1l-1.9,2.3l-0.6,0.3v0.1l0.6-0.1
		c0.3,0,0.6,0.1,0.9,0.2c0.3,0.1,0.5,0.3,0.8,0.5c0.2,0.2,0.4,0.5,0.5,0.8c0.1,0.3,0.2,0.6,0.2,1c0,0.5-0.1,0.9-0.3,1.3
		c-0.2,0.4-0.4,0.7-0.7,0.9c-0.3,0.2-0.7,0.4-1.1,0.5c-0.4,0.1-0.9,0.2-1.4,0.2c-0.2,0-0.4,0-0.6,0c-0.2,0-0.4,0-0.6-0.1
		c-0.2,0-0.4-0.1-0.6-0.1c-0.2-0.1-0.3-0.1-0.5-0.2l0.5-1.5c0.2,0.1,0.5,0.2,0.8,0.3C94.4,143,94.8,143,95.1,143z"/>
	<path class="st6" d="M276.9,186.2l7.7-7.7l-6-6l-7.7,7.7L276.9,186.2z"/>
	<path class="st7" d="M282.8,192.1l7.7-7.7l-6-6l-7.7,7.7L282.8,192.1z"/>
	<path class="st3" d="M290.7,193.6l0.4,0c0.2,0,0.4,0,0.7,0c0.2,0,0.5,0,0.9,0c0.8,0,1.3,0.1,1.6,0.3c0.3,0.2,0.5,0.5,0.5,0.9
		c0,0.2-0.1,0.5-0.2,0.7c-0.2,0.2-0.4,0.4-0.7,0.5v0.1c0.4,0.1,0.7,0.2,0.9,0.4c0.2,0.2,0.3,0.5,0.3,0.8c0,0.5-0.2,0.9-0.6,1.1
		c-0.4,0.2-1.1,0.4-1.9,0.4c-0.3,0-0.6,0-0.8,0c-0.3,0-0.5,0-0.7,0c0,0,0,0-0.1,0c0,0,0,0-0.1,0V193.6z M291.6,198
		c0.1,0,0.3,0,0.4,0c0.1,0,0.3,0,0.5,0c0.5,0,0.9-0.1,1.1-0.2c0.2-0.1,0.3-0.4,0.3-0.7c0-0.1,0-0.2-0.1-0.3c0-0.1-0.1-0.2-0.2-0.3
		c-0.1-0.1-0.2-0.1-0.4-0.2c-0.2,0-0.4-0.1-0.7-0.1h-1V198z M292.7,195.8c0.1,0,0.3,0,0.4-0.1c0.1,0,0.2-0.1,0.3-0.2
		c0.1-0.1,0.2-0.2,0.2-0.2c0.1-0.1,0.1-0.2,0.1-0.3c0-0.3-0.1-0.5-0.3-0.6c-0.2-0.1-0.5-0.2-0.9-0.2c-0.1,0-0.3,0-0.5,0
		c-0.1,0-0.3,0-0.5,0v1.5H292.7z M297.9,196.8l0.3,1h0.1l0.2-1l1.1-3.2h0.9l-1.7,4.6c-0.1,0.3-0.2,0.6-0.4,0.9
		c-0.1,0.3-0.3,0.6-0.4,0.8c-0.1,0.2-0.3,0.4-0.5,0.6c-0.2,0.1-0.4,0.2-0.6,0.2c-0.3,0-0.5,0-0.7-0.1l0.1-0.8c0.1,0,0.2,0,0.3,0
		c0.1,0,0.2,0,0.3,0c0.1,0,0.2-0.1,0.3-0.2c0.1-0.1,0.2-0.2,0.2-0.4c0.1-0.1,0.1-0.3,0.2-0.6l-2.3-5.1h1.1L297.9,196.8z
		 M304.5,194.4h-1.7l0,0.3c0,0.6-0.1,1.2-0.2,1.7c-0.1,0.5-0.1,0.9-0.3,1.3c-0.1,0.3-0.3,0.6-0.5,0.8c-0.2,0.2-0.4,0.3-0.8,0.3
		c-0.1,0-0.3,0-0.4,0c-0.1,0-0.2,0-0.3-0.1l0.1-0.8c0.1,0,0.2,0,0.3,0c0.2,0,0.3-0.1,0.4-0.2c0.1-0.1,0.2-0.3,0.3-0.6
		c0.1-0.3,0.2-0.7,0.2-1.3c0.1-0.6,0.1-1.3,0.1-2.2h3.4v5.1h-0.9V194.4z M306.7,198.2c0-0.2,0.1-0.3,0.2-0.4
		c0.1-0.1,0.3-0.2,0.5-0.2s0.3,0.1,0.5,0.2c0.1,0.1,0.2,0.3,0.2,0.4c0,0.2-0.1,0.3-0.2,0.4c-0.1,0.1-0.3,0.2-0.5,0.2
		s-0.4-0.1-0.5-0.2C306.8,198.5,306.7,198.4,306.7,198.2z M316.7,198.4c-0.2,0.2-0.5,0.3-0.8,0.3c-0.3,0.1-0.7,0.1-1,0.1
		c-0.4,0-0.8-0.1-1.2-0.2c-0.4-0.1-0.7-0.4-1-0.6c-0.3-0.3-0.5-0.7-0.7-1.1c-0.2-0.4-0.3-1-0.3-1.6c0-0.6,0.1-1.2,0.3-1.6
		c0.2-0.4,0.4-0.8,0.8-1.1c0.3-0.3,0.7-0.5,1-0.6c0.4-0.1,0.8-0.2,1.2-0.2c0.4,0,0.8,0,1,0.1c0.3,0,0.5,0.1,0.7,0.2l-0.2,0.8
		c-0.3-0.1-0.8-0.2-1.4-0.2c-0.3,0-0.6,0-0.9,0.1c-0.3,0.1-0.5,0.2-0.7,0.5c-0.2,0.2-0.4,0.5-0.5,0.8c-0.1,0.3-0.2,0.8-0.2,1.2
		c0,0.4,0.1,0.8,0.2,1.2c0.1,0.3,0.3,0.6,0.5,0.8c0.2,0.2,0.5,0.4,0.8,0.5c0.3,0.1,0.6,0.2,1,0.2c0.3,0,0.6,0,0.8-0.1
		c0.2-0.1,0.4-0.1,0.6-0.2L316.7,198.4z M317.9,193.9c0.6-0.3,1.3-0.4,2.2-0.4c0.4,0,0.7,0.1,0.9,0.2c0.2,0.1,0.4,0.2,0.6,0.4
		c0.1,0.2,0.2,0.3,0.3,0.5c0,0.2,0.1,0.4,0.1,0.6c0,0.4,0,0.7,0,1.1c0,0.4,0,0.7,0,1.2c0,0.2,0,0.5,0,0.7c0,0.2,0.1,0.4,0.1,0.6
		h-0.7l-0.2-0.8H321c-0.1,0.1-0.2,0.2-0.3,0.3c-0.1,0.1-0.2,0.2-0.4,0.3c-0.1,0.1-0.3,0.1-0.5,0.2c-0.2,0.1-0.4,0.1-0.6,0.1
		c-0.2,0-0.5,0-0.7-0.1c-0.2-0.1-0.4-0.2-0.5-0.3c-0.1-0.1-0.3-0.3-0.3-0.4c-0.1-0.2-0.1-0.4-0.1-0.6c0-0.3,0.1-0.5,0.2-0.8
		c0.1-0.2,0.3-0.4,0.5-0.5c0.2-0.1,0.4-0.2,0.7-0.3c0.3-0.1,0.5-0.1,0.8-0.1c0.2,0,0.4,0,0.5,0c0.1,0,0.3,0,0.3,0c0.1,0,0.2,0,0.2,0
		c0.1,0,0.1,0,0.2,0c0-0.1,0-0.2,0-0.3s0-0.2,0-0.3c0-0.2,0-0.3-0.1-0.5c0-0.1-0.1-0.2-0.2-0.3c-0.1-0.1-0.2-0.1-0.3-0.2
		c-0.1,0-0.3,0-0.5,0c-0.1,0-0.3,0-0.4,0c-0.1,0-0.3,0-0.4,0.1c-0.1,0-0.3,0.1-0.4,0.1c-0.1,0.1-0.3,0.1-0.4,0.2L317.9,193.9z
		 M321,196.4c-0.1,0-0.1,0-0.2,0s-0.1,0-0.2,0c-0.1,0-0.2,0-0.3,0c-0.1,0-0.3,0-0.4,0c-0.4,0-0.7,0.1-1,0.2
		c-0.2,0.1-0.3,0.4-0.3,0.7c0,0.3,0.1,0.5,0.3,0.6c0.2,0.1,0.4,0.2,0.7,0.2c0.2,0,0.4,0,0.6-0.1c0.2-0.1,0.3-0.1,0.4-0.2
		c0.1-0.1,0.2-0.2,0.3-0.3c0.1-0.1,0.1-0.2,0.2-0.3V196.4z M325.1,196.4h-0.6v2.3h-0.9v-5.1h0.9v2.3l0.5-0.2l1.7-2.1h1l-1.7,2h0
		l-0.5,0.4l0.6,0.4l1.8,2.3h-1.1L325.1,196.4z M332.7,198.4c-0.2,0.2-0.5,0.3-0.8,0.4c-0.3,0.1-0.6,0.1-1,0.1
		c-0.4,0-0.8-0.1-1.1-0.2c-0.3-0.1-0.5-0.3-0.7-0.5c-0.2-0.2-0.3-0.5-0.4-0.8c-0.1-0.3-0.1-0.7-0.1-1.1c0-0.9,0.2-1.5,0.6-2
		c0.4-0.5,1-0.7,1.8-0.7c0.3,0,0.6,0,0.9,0.1c0.3,0.1,0.5,0.1,0.7,0.2l-0.2,0.7c-0.2-0.1-0.4-0.2-0.6-0.2c-0.2-0.1-0.4-0.1-0.7-0.1
		c-1.1,0-1.6,0.6-1.6,1.9c0,0.2,0,0.5,0.1,0.7c0.1,0.2,0.2,0.4,0.3,0.6c0.1,0.2,0.3,0.3,0.5,0.4c0.2,0.1,0.5,0.2,0.8,0.2
		c0.3,0,0.5,0,0.7-0.1c0.2-0.1,0.4-0.2,0.5-0.3L332.7,198.4z M333.9,193.9c0.6-0.3,1.3-0.4,2.2-0.4c0.4,0,0.7,0.1,0.9,0.2
		c0.2,0.1,0.4,0.2,0.6,0.4c0.1,0.2,0.2,0.3,0.3,0.5c0,0.2,0.1,0.4,0.1,0.6c0,0.4,0,0.7,0,1.1c0,0.4,0,0.7,0,1.2c0,0.2,0,0.5,0,0.7
		c0,0.2,0.1,0.4,0.1,0.6h-0.7l-0.2-0.8H337c-0.1,0.1-0.2,0.2-0.3,0.3c-0.1,0.1-0.2,0.2-0.4,0.3s-0.3,0.1-0.5,0.2
		c-0.2,0.1-0.4,0.1-0.6,0.1c-0.2,0-0.5,0-0.7-0.1c-0.2-0.1-0.4-0.2-0.5-0.3c-0.1-0.1-0.3-0.3-0.3-0.4c-0.1-0.2-0.1-0.4-0.1-0.6
		c0-0.3,0.1-0.5,0.2-0.8c0.1-0.2,0.3-0.4,0.5-0.5c0.2-0.1,0.4-0.2,0.7-0.3c0.3-0.1,0.5-0.1,0.8-0.1c0.2,0,0.4,0,0.5,0
		c0.1,0,0.3,0,0.3,0c0.1,0,0.2,0,0.2,0c0.1,0,0.1,0,0.2,0c0-0.1,0-0.2,0-0.3c0-0.1,0-0.2,0-0.3c0-0.2,0-0.3-0.1-0.5
		c0-0.1-0.1-0.2-0.2-0.3c-0.1-0.1-0.2-0.1-0.3-0.2c-0.1,0-0.3,0-0.5,0c-0.1,0-0.3,0-0.4,0c-0.1,0-0.3,0-0.4,0.1
		c-0.1,0-0.3,0.1-0.4,0.1c-0.1,0.1-0.3,0.1-0.4,0.2L333.9,193.9z M337,196.4c-0.1,0-0.1,0-0.2,0s-0.1,0-0.2,0c-0.1,0-0.2,0-0.3,0
		c-0.1,0-0.3,0-0.4,0c-0.4,0-0.7,0.1-1,0.2c-0.2,0.1-0.3,0.4-0.3,0.7c0,0.3,0.1,0.5,0.3,0.6c0.2,0.1,0.4,0.2,0.7,0.2
		c0.2,0,0.4,0,0.6-0.1c0.2-0.1,0.3-0.1,0.4-0.2c0.1-0.1,0.2-0.2,0.3-0.3c0.1-0.1,0.1-0.2,0.2-0.3V196.4z M342.9,194.4h-2.4v4.3h-0.9
		v-5.1h3.3V194.4z M343.7,193.9c0.6-0.3,1.3-0.4,2.2-0.4c0.4,0,0.7,0.1,0.9,0.2c0.2,0.1,0.4,0.2,0.6,0.4c0.1,0.2,0.2,0.3,0.3,0.5
		c0,0.2,0.1,0.4,0.1,0.6c0,0.4,0,0.7,0,1.1c0,0.4,0,0.7,0,1.2c0,0.2,0,0.5,0,0.7c0,0.2,0.1,0.4,0.1,0.6h-0.7l-0.2-0.8h-0.1
		c-0.1,0.1-0.2,0.2-0.3,0.3c-0.1,0.1-0.2,0.2-0.4,0.3s-0.3,0.1-0.5,0.2c-0.2,0.1-0.4,0.1-0.6,0.1c-0.2,0-0.5,0-0.7-0.1
		c-0.2-0.1-0.4-0.2-0.5-0.3c-0.1-0.1-0.3-0.3-0.3-0.4c-0.1-0.2-0.1-0.4-0.1-0.6c0-0.3,0.1-0.5,0.2-0.8c0.1-0.2,0.3-0.4,0.5-0.5
		s0.4-0.2,0.7-0.3c0.3-0.1,0.5-0.1,0.8-0.1c0.2,0,0.4,0,0.5,0c0.1,0,0.3,0,0.3,0c0.1,0,0.2,0,0.2,0c0.1,0,0.1,0,0.2,0
		c0-0.1,0-0.2,0-0.3c0-0.1,0-0.2,0-0.3c0-0.2,0-0.3-0.1-0.5c0-0.1-0.1-0.2-0.2-0.3c-0.1-0.1-0.2-0.1-0.3-0.2c-0.1,0-0.3,0-0.5,0
		c-0.1,0-0.3,0-0.4,0c-0.1,0-0.3,0-0.4,0.1c-0.1,0-0.3,0.1-0.4,0.1c-0.1,0.1-0.3,0.1-0.4,0.2L343.7,193.9z M346.8,196.4
		c-0.1,0-0.1,0-0.2,0s-0.1,0-0.2,0c-0.1,0-0.2,0-0.3,0c-0.1,0-0.3,0-0.4,0c-0.4,0-0.7,0.1-1,0.2c-0.2,0.1-0.3,0.4-0.3,0.7
		c0,0.3,0.1,0.5,0.3,0.6c0.2,0.1,0.4,0.2,0.7,0.2c0.2,0,0.4,0,0.6-0.1c0.2-0.1,0.3-0.1,0.4-0.2c0.1-0.1,0.2-0.2,0.3-0.3
		c0.1-0.1,0.1-0.2,0.2-0.3V196.4z M352.9,196.5h-2.6v2.2h-0.9v-5.1h0.9v2.1h2.6v-2.1h0.9v5.1h-0.9V196.5z M359.4,198.4
		c-0.2,0.2-0.5,0.3-0.8,0.4c-0.3,0.1-0.6,0.1-1,0.1c-0.4,0-0.8-0.1-1.1-0.2c-0.3-0.1-0.5-0.3-0.7-0.5c-0.2-0.2-0.3-0.5-0.4-0.8
		c-0.1-0.3-0.1-0.7-0.1-1.1c0-0.9,0.2-1.5,0.6-2c0.4-0.5,1-0.7,1.8-0.7c0.3,0,0.6,0,0.9,0.1c0.3,0.1,0.5,0.1,0.7,0.2l-0.2,0.7
		c-0.2-0.1-0.4-0.2-0.6-0.2c-0.2-0.1-0.4-0.1-0.7-0.1c-1.1,0-1.6,0.6-1.6,1.9c0,0.2,0,0.5,0.1,0.7c0.1,0.2,0.2,0.4,0.3,0.6
		c0.1,0.2,0.3,0.3,0.5,0.4c0.2,0.1,0.5,0.2,0.8,0.2c0.3,0,0.5,0,0.7-0.1c0.2-0.1,0.4-0.2,0.5-0.3L359.4,198.4z M361.5,198
		c0.3,0,0.5,0.1,0.8,0.1c0.5,0,0.8-0.1,1-0.2c0.2-0.2,0.3-0.4,0.3-0.7c0-0.3-0.1-0.5-0.3-0.7c-0.2-0.2-0.6-0.3-1-0.3
		c-0.1,0-0.3,0-0.4,0c-0.1,0-0.3,0-0.4,0.1V198z M361.5,195.6c0.2,0,0.4-0.1,0.6-0.1c0.2,0,0.3,0,0.5,0c0.4,0,0.7,0,1,0.1
		c0.3,0.1,0.5,0.2,0.7,0.3s0.3,0.3,0.4,0.5c0.1,0.2,0.1,0.4,0.1,0.6c0,0.6-0.2,1.1-0.6,1.4c-0.4,0.3-1,0.4-1.9,0.4
		c-0.3,0-0.5,0-0.8,0c-0.2,0-0.5,0-0.7,0v-5.1h0.9V195.6z M367.3,196.4h-0.6v2.3h-0.9v-5.1h0.9v2.3l0.5-0.2l1.7-2.1h1l-1.7,2h0
		l-0.5,0.4l0.6,0.4l1.8,2.3h-1.1L367.3,196.4z M370.8,196.2c0-0.4,0.1-0.8,0.2-1.1c0.1-0.3,0.3-0.6,0.5-0.9c0.2-0.2,0.5-0.4,0.8-0.5
		c0.3-0.1,0.7-0.2,1.1-0.2c0.4,0,0.8,0.1,1.1,0.2c0.3,0.1,0.6,0.3,0.8,0.6c0.2,0.2,0.4,0.5,0.5,0.9c0.1,0.3,0.2,0.7,0.2,1.1
		c0,0.4-0.1,0.8-0.2,1.1c-0.1,0.3-0.3,0.6-0.5,0.8c-0.2,0.2-0.5,0.4-0.8,0.5c-0.3,0.1-0.7,0.2-1,0.2c-0.4,0-0.8-0.1-1.1-0.2
		s-0.6-0.3-0.8-0.6c-0.2-0.2-0.4-0.5-0.5-0.8C370.8,196.9,370.8,196.6,370.8,196.2z M371.7,196.2c0,0.2,0,0.5,0.1,0.7
		c0.1,0.2,0.1,0.4,0.3,0.6c0.1,0.2,0.3,0.3,0.5,0.4c0.2,0.1,0.4,0.2,0.7,0.2c1,0,1.5-0.6,1.5-1.9c0-0.3,0-0.5-0.1-0.7
		c-0.1-0.2-0.1-0.4-0.3-0.6c-0.1-0.2-0.3-0.3-0.5-0.4c-0.2-0.1-0.4-0.2-0.7-0.2c-0.5,0-0.9,0.2-1.2,0.5
		C371.9,195,371.7,195.5,371.7,196.2z M380.5,194.4h-2.4v4.3h-0.9v-5.1h3.3V194.4z M380.9,196.2c0-0.4,0.1-0.8,0.2-1.1
		c0.1-0.3,0.3-0.6,0.5-0.9c0.2-0.2,0.5-0.4,0.8-0.5c0.3-0.1,0.7-0.2,1.1-0.2c0.4,0,0.8,0.1,1.1,0.2s0.6,0.3,0.8,0.6
		c0.2,0.2,0.4,0.5,0.5,0.9c0.1,0.3,0.2,0.7,0.2,1.1c0,0.4-0.1,0.8-0.2,1.1c-0.1,0.3-0.3,0.6-0.5,0.8c-0.2,0.2-0.5,0.4-0.8,0.5
		c-0.3,0.1-0.7,0.2-1,0.2c-0.4,0-0.8-0.1-1.1-0.2c-0.3-0.1-0.6-0.3-0.8-0.6c-0.2-0.2-0.4-0.5-0.5-0.8
		C381,196.9,380.9,196.6,380.9,196.2z M381.9,196.2c0,0.2,0,0.5,0.1,0.7c0.1,0.2,0.1,0.4,0.3,0.6c0.1,0.2,0.3,0.3,0.5,0.4
		c0.2,0.1,0.4,0.2,0.7,0.2c1,0,1.5-0.6,1.5-1.9c0-0.3,0-0.5-0.1-0.7c-0.1-0.2-0.1-0.4-0.3-0.6c-0.1-0.2-0.3-0.3-0.5-0.4
		c-0.2-0.1-0.4-0.2-0.7-0.2c-0.5,0-0.9,0.2-1.2,0.5C382,195,381.9,195.5,381.9,196.2z"/>
	<path class="st8" d="M327.8,146.3l-8.6-8.6l-8.9,8.9l8.6,8.6c2.4,2.4,6.2,2.4,8.6,0l0.3-0.3C330.2,152.5,330.2,148.7,327.8,146.3z"
		/>
	<path class="st6" d="M310.7,129.2c-2.4-2.4-6.2-2.4-8.6,0l-0.3,0.3c-2.4,2.4-2.4,6.2,0,8.6l8.6,8.6l8.9-8.9L310.7,129.2z"/>
	<path class="st3" d="M335.2,163.2h-2.5v4.3h-0.9v-5.1h4.3v5.1h-0.9V163.2z M340.9,163.2h-1.7l0,0.3c0,0.6-0.1,1.2-0.2,1.7
		c-0.1,0.5-0.1,0.9-0.3,1.3c-0.1,0.3-0.3,0.6-0.5,0.8c-0.2,0.2-0.4,0.3-0.8,0.3c-0.1,0-0.3,0-0.4,0c-0.1,0-0.2,0-0.3-0.1l0.1-0.8
		c0.1,0,0.2,0,0.3,0c0.2,0,0.3-0.1,0.4-0.2c0.1-0.1,0.2-0.3,0.3-0.6c0.1-0.3,0.2-0.7,0.2-1.3c0.1-0.6,0.1-1.3,0.1-2.2h3.4v5.1h-0.9
		V163.2z M343.1,167.1c0-0.2,0.1-0.3,0.2-0.4c0.1-0.1,0.3-0.2,0.5-0.2s0.3,0.1,0.5,0.2c0.1,0.1,0.2,0.3,0.2,0.4
		c0,0.2-0.1,0.3-0.2,0.4c-0.1,0.1-0.3,0.2-0.5,0.2s-0.4-0.1-0.5-0.2C343.2,167.4,343.1,167.3,343.1,167.1z M353.2,167.3
		c-0.2,0.2-0.5,0.3-0.8,0.3c-0.3,0.1-0.7,0.1-1,0.1c-0.4,0-0.8-0.1-1.2-0.2c-0.4-0.1-0.7-0.4-1-0.6c-0.3-0.3-0.5-0.7-0.7-1.1
		c-0.2-0.4-0.3-1-0.3-1.6c0-0.6,0.1-1.2,0.3-1.6c0.2-0.4,0.4-0.8,0.8-1.1c0.3-0.3,0.7-0.5,1-0.6c0.4-0.1,0.8-0.2,1.2-0.2
		c0.4,0,0.8,0,1,0.1s0.5,0.1,0.7,0.2l-0.2,0.8c-0.3-0.1-0.8-0.2-1.4-0.2c-0.3,0-0.6,0-0.9,0.1c-0.3,0.1-0.5,0.2-0.7,0.5
		c-0.2,0.2-0.4,0.5-0.5,0.8c-0.1,0.3-0.2,0.8-0.2,1.2c0,0.4,0.1,0.8,0.2,1.2c0.1,0.3,0.3,0.6,0.5,0.8c0.2,0.2,0.5,0.4,0.8,0.5
		c0.3,0.1,0.6,0.2,1,0.2c0.3,0,0.6,0,0.8-0.1c0.2-0.1,0.4-0.1,0.6-0.2L353.2,167.3z M353.8,165c0-0.4,0.1-0.8,0.2-1.1
		c0.1-0.3,0.3-0.6,0.5-0.9s0.5-0.4,0.8-0.5c0.3-0.1,0.7-0.2,1.1-0.2c0.4,0,0.8,0.1,1.1,0.2s0.6,0.3,0.8,0.6c0.2,0.2,0.4,0.5,0.5,0.9
		c0.1,0.3,0.2,0.7,0.2,1.1c0,0.4-0.1,0.8-0.2,1.1c-0.1,0.3-0.3,0.6-0.5,0.8c-0.2,0.2-0.5,0.4-0.8,0.5c-0.3,0.1-0.7,0.2-1,0.2
		c-0.4,0-0.8-0.1-1.1-0.2s-0.6-0.3-0.8-0.6c-0.2-0.2-0.4-0.5-0.5-0.8C353.8,165.8,353.8,165.4,353.8,165z M354.8,165
		c0,0.2,0,0.5,0.1,0.7c0.1,0.2,0.1,0.4,0.3,0.6s0.3,0.3,0.5,0.4c0.2,0.1,0.4,0.2,0.7,0.2c1,0,1.5-0.6,1.5-1.9c0-0.3,0-0.5-0.1-0.7
		c-0.1-0.2-0.1-0.4-0.3-0.6c-0.1-0.2-0.3-0.3-0.5-0.4c-0.2-0.1-0.4-0.2-0.7-0.2c-0.5,0-0.9,0.2-1.2,0.5
		C354.9,163.9,354.8,164.4,354.8,165z M360.9,163.5c0.2-0.3,0.5-0.6,0.8-0.7c0.3-0.1,0.7-0.2,1.1-0.2c0.7,0,1.2,0.2,1.6,0.6
		c0.4,0.4,0.6,1,0.6,1.8c0,0.4-0.1,0.8-0.2,1.2c-0.1,0.3-0.3,0.6-0.5,0.8c-0.2,0.2-0.5,0.4-0.8,0.5c-0.3,0.1-0.6,0.2-1,0.2
		c-0.8,0-1.5-0.3-1.9-0.8c-0.4-0.5-0.6-1.3-0.6-2.4c0-0.6,0-1.1,0.1-1.5c0.1-0.4,0.2-0.7,0.3-1c0.1-0.3,0.3-0.5,0.5-0.6
		c0.2-0.2,0.4-0.3,0.6-0.4c0.2-0.1,0.5-0.1,0.7-0.2c0.3,0,0.5-0.1,0.8-0.1c0.4,0,0.7-0.1,0.9-0.1c0.2,0,0.4-0.1,0.6-0.2l0.1,0.8
		c-0.1,0.1-0.3,0.2-0.6,0.2c-0.2,0-0.6,0.1-1,0.1c-0.3,0-0.6,0.1-0.8,0.1c-0.2,0.1-0.5,0.1-0.6,0.3c-0.2,0.1-0.3,0.3-0.4,0.6
		C360.9,162.8,360.8,163.1,360.9,163.5L360.9,163.5z M360.9,165.1c0,0.2,0,0.5,0.1,0.7c0.1,0.2,0.1,0.4,0.3,0.6
		c0.1,0.2,0.3,0.3,0.5,0.4c0.2,0.1,0.4,0.1,0.7,0.1c1,0,1.5-0.6,1.5-1.9c0-0.2,0-0.5-0.1-0.7c-0.1-0.2-0.1-0.4-0.3-0.6
		c-0.1-0.2-0.3-0.3-0.4-0.4c-0.2-0.1-0.4-0.1-0.6-0.1c-0.6,0-1,0.2-1.3,0.5C361.1,164.1,360.9,164.6,360.9,165.1z M366.1,165
		c0-0.4,0.1-0.8,0.2-1.1c0.1-0.3,0.3-0.6,0.5-0.9c0.2-0.2,0.5-0.4,0.8-0.5c0.3-0.1,0.7-0.2,1.1-0.2c0.4,0,0.8,0.1,1.1,0.2
		c0.3,0.1,0.6,0.3,0.8,0.6c0.2,0.2,0.4,0.5,0.5,0.9c0.1,0.3,0.2,0.7,0.2,1.1c0,0.4-0.1,0.8-0.2,1.1c-0.1,0.3-0.3,0.6-0.5,0.8
		c-0.2,0.2-0.5,0.4-0.8,0.5c-0.3,0.1-0.7,0.2-1,0.2c-0.4,0-0.8-0.1-1.1-0.2c-0.3-0.1-0.6-0.3-0.8-0.6c-0.2-0.2-0.4-0.5-0.5-0.8
		C366.2,165.8,366.1,165.4,366.1,165z M367.1,165c0,0.2,0,0.5,0.1,0.7c0.1,0.2,0.1,0.4,0.3,0.6c0.1,0.2,0.3,0.3,0.5,0.4
		c0.2,0.1,0.4,0.2,0.7,0.2c1,0,1.5-0.6,1.5-1.9c0-0.3,0-0.5-0.1-0.7c-0.1-0.2-0.1-0.4-0.3-0.6c-0.1-0.2-0.3-0.3-0.5-0.4
		c-0.2-0.1-0.4-0.2-0.7-0.2c-0.5,0-0.9,0.2-1.2,0.5C367.2,163.9,367.1,164.4,367.1,165z M372.5,162.5h0.6l0.2,0.7h0.1
		c0.2-0.3,0.4-0.4,0.7-0.6c0.3-0.1,0.6-0.2,0.9-0.2c0.7,0,1.3,0.2,1.7,0.6c0.4,0.4,0.5,1.1,0.5,2c0,0.4-0.1,0.8-0.2,1.2
		c-0.1,0.3-0.3,0.6-0.5,0.9c-0.2,0.2-0.5,0.4-0.8,0.6c-0.3,0.1-0.7,0.2-1.1,0.2c-0.1,0-0.2,0-0.4,0c-0.1,0-0.2,0-0.3,0
		c-0.1,0-0.2,0-0.3-0.1c-0.1,0-0.2-0.1-0.3-0.1v2.1h-0.9V162.5z M374.8,163.1c-0.4,0-0.7,0.1-0.9,0.3c-0.2,0.2-0.4,0.5-0.5,0.9v2.4
		c0.1,0.1,0.3,0.2,0.5,0.2c0.2,0.1,0.4,0.1,0.7,0.1c0.5,0,0.9-0.2,1.2-0.5c0.3-0.3,0.4-0.9,0.4-1.5c0-0.6-0.1-1-0.3-1.3
		C375.7,163.3,375.3,163.1,374.8,163.1z M382.1,165.4h-2.6v2.2h-0.9v-5.1h0.9v2.1h2.6v-2.1h0.9v5.1h-0.9V165.4z M384.6,162.8
		c0.6-0.3,1.3-0.4,2.2-0.4c0.4,0,0.7,0.1,0.9,0.2c0.2,0.1,0.4,0.2,0.6,0.4c0.1,0.2,0.2,0.3,0.3,0.5c0,0.2,0.1,0.4,0.1,0.6
		c0,0.4,0,0.7,0,1.1c0,0.4,0,0.7,0,1.2c0,0.2,0,0.5,0,0.7c0,0.2,0.1,0.4,0.1,0.6H388l-0.2-0.8h-0.1c-0.1,0.1-0.2,0.2-0.3,0.3
		c-0.1,0.1-0.2,0.2-0.4,0.3c-0.1,0.1-0.3,0.1-0.5,0.2c-0.2,0.1-0.4,0.1-0.6,0.1c-0.2,0-0.5,0-0.7-0.1c-0.2-0.1-0.4-0.2-0.5-0.3
		c-0.1-0.1-0.3-0.3-0.3-0.4c-0.1-0.2-0.1-0.4-0.1-0.6c0-0.3,0.1-0.5,0.2-0.8c0.1-0.2,0.3-0.4,0.5-0.5c0.2-0.1,0.4-0.2,0.7-0.3
		c0.3-0.1,0.5-0.1,0.8-0.1c0.2,0,0.4,0,0.5,0c0.1,0,0.3,0,0.3,0c0.1,0,0.2,0,0.2,0c0.1,0,0.1,0,0.2,0c0-0.1,0-0.2,0-0.3
		c0-0.1,0-0.2,0-0.3c0-0.2,0-0.3-0.1-0.5c0-0.1-0.1-0.2-0.2-0.3c-0.1-0.1-0.2-0.1-0.3-0.2s-0.3,0-0.5,0c-0.1,0-0.3,0-0.4,0
		c-0.1,0-0.3,0-0.4,0.1c-0.1,0-0.3,0.1-0.4,0.1c-0.1,0.1-0.3,0.1-0.4,0.2L384.6,162.8z M387.7,165.3c-0.1,0-0.1,0-0.2,0
		c-0.1,0-0.1,0-0.2,0c-0.1,0-0.2,0-0.3,0c-0.1,0-0.3,0-0.4,0c-0.4,0-0.7,0.1-1,0.2c-0.2,0.1-0.3,0.4-0.3,0.7c0,0.3,0.1,0.5,0.3,0.6
		c0.2,0.1,0.4,0.2,0.7,0.2c0.2,0,0.4,0,0.6-0.1c0.2-0.1,0.3-0.1,0.4-0.2c0.1-0.1,0.2-0.2,0.3-0.3c0.1-0.1,0.1-0.2,0.2-0.3V165.3z"/>
	<path class="st8" d="M267.3,308.6c4.8,0,8.7-3.9,8.7-8.7c0-4.8-3.9-8.7-8.7-8.7c-4.8,0-8.7,3.9-8.7,8.7
		C258.6,304.7,262.5,308.6,267.3,308.6z"/>
	<path class="st5" d="M264.3,302.5c0-0.3,0-0.6,0.1-0.8c0.1-0.2,0.2-0.5,0.4-0.6c0.2-0.2,0.3-0.4,0.5-0.5c0.2-0.2,0.4-0.3,0.7-0.4
		c-0.5-0.3-0.8-0.6-1.1-0.9c-0.2-0.3-0.4-0.8-0.4-1.3c0-0.3,0.1-0.6,0.2-0.9c0.1-0.3,0.3-0.5,0.6-0.8c0.3-0.2,0.6-0.4,0.9-0.5
		c0.4-0.1,0.8-0.2,1.2-0.2c0.4,0,0.8,0.1,1.1,0.2c0.3,0.1,0.6,0.3,0.9,0.4c0.2,0.2,0.4,0.4,0.6,0.7c0.1,0.3,0.2,0.6,0.2,0.9
		c0,0.5-0.1,0.9-0.4,1.3c-0.2,0.3-0.6,0.7-1.1,0.9c0.5,0.3,1,0.6,1.2,1c0.3,0.3,0.4,0.8,0.4,1.4c0,0.4-0.1,0.7-0.2,1
		c-0.2,0.3-0.4,0.6-0.6,0.8c-0.3,0.2-0.6,0.4-1,0.5c-0.4,0.1-0.8,0.2-1.3,0.2c-0.5,0-0.9-0.1-1.3-0.2c-0.4-0.1-0.7-0.3-1-0.5
		c-0.3-0.2-0.5-0.5-0.6-0.8C264.4,303.2,264.3,302.8,264.3,302.5z M268.8,302.3c0-0.2-0.1-0.4-0.2-0.5c-0.1-0.2-0.2-0.3-0.4-0.4
		c-0.2-0.1-0.3-0.2-0.5-0.4c-0.2-0.1-0.4-0.2-0.6-0.3c-0.4,0.2-0.7,0.5-0.9,0.7c-0.2,0.3-0.2,0.5-0.2,0.8c0,0.3,0.1,0.6,0.4,0.8
		c0.3,0.2,0.6,0.3,1.1,0.3c0.4,0,0.8-0.1,1-0.3C268.7,302.9,268.8,302.7,268.8,302.3z M266.3,298c0,0.2,0,0.4,0.1,0.5
		c0.1,0.2,0.2,0.3,0.4,0.4c0.1,0.1,0.3,0.2,0.5,0.3c0.2,0.1,0.4,0.2,0.6,0.3c0.5-0.4,0.8-0.9,0.8-1.4c0-0.3-0.1-0.6-0.3-0.8
		c-0.2-0.2-0.5-0.3-0.8-0.3c-0.4,0-0.7,0.1-0.9,0.3C266.4,297.5,266.3,297.8,266.3,298z"/>
	<path class="st7" d="M254.6,262.3v-10.9h-8.5v10.9H254.6z"/>
	<path class="st3" d="M266.9,259.6c-0.2,0.2-0.5,0.3-0.8,0.3c-0.3,0.1-0.7,0.1-1,0.1c-0.4,0-0.8-0.1-1.2-0.2c-0.4-0.1-0.7-0.4-1-0.6
		c-0.3-0.3-0.5-0.7-0.7-1.1c-0.2-0.4-0.3-1-0.3-1.6c0-0.6,0.1-1.2,0.3-1.6c0.2-0.4,0.4-0.8,0.8-1.1c0.3-0.3,0.7-0.5,1-0.6
		c0.4-0.1,0.8-0.2,1.2-0.2c0.4,0,0.8,0,1,0.1c0.3,0,0.5,0.1,0.7,0.2l-0.2,0.8c-0.3-0.1-0.8-0.2-1.4-0.2c-0.3,0-0.6,0-0.9,0.1
		c-0.3,0.1-0.5,0.2-0.7,0.5c-0.2,0.2-0.4,0.5-0.5,0.8c-0.1,0.3-0.2,0.8-0.2,1.2c0,0.4,0.1,0.8,0.2,1.2c0.1,0.3,0.3,0.6,0.5,0.8
		c0.2,0.2,0.5,0.4,0.8,0.5c0.3,0.1,0.6,0.2,1,0.2c0.3,0,0.6,0,0.8-0.1c0.2-0.1,0.4-0.1,0.6-0.2L266.9,259.6z M271.1,255.6h-1.8v4.3
		h-0.9v-4.3h-1.8v-0.8h4.4V255.6z M272,254.8h0.6l0.2,0.7h0.1c0.2-0.3,0.4-0.4,0.7-0.6c0.3-0.1,0.6-0.2,0.9-0.2
		c0.7,0,1.3,0.2,1.7,0.6c0.4,0.4,0.5,1.1,0.5,2c0,0.4-0.1,0.8-0.2,1.2c-0.1,0.3-0.3,0.6-0.5,0.9c-0.2,0.2-0.5,0.4-0.8,0.6
		c-0.3,0.1-0.7,0.2-1.1,0.2c-0.1,0-0.2,0-0.4,0c-0.1,0-0.2,0-0.3,0c-0.1,0-0.2,0-0.3-0.1c-0.1,0-0.2-0.1-0.3-0.1v2.1H272V254.8z
		 M274.3,255.4c-0.4,0-0.7,0.1-0.9,0.3c-0.2,0.2-0.4,0.5-0.5,0.9v2.4c0.1,0.1,0.3,0.2,0.5,0.2c0.2,0.1,0.4,0.1,0.7,0.1
		c0.5,0,0.9-0.2,1.2-0.5c0.3-0.3,0.4-0.9,0.4-1.5c0-0.6-0.1-1-0.3-1.3C275.2,255.6,274.8,255.4,274.3,255.4z M281.6,257l0.1-1h-0.1
		l-0.5,1l-2.4,3h-0.7v-5.1h0.9v3l-0.1,0.9h0.1l0.4-0.9l2.3-3h0.7v5.1h-0.9V257z M287.8,257l0.1-1h-0.1l-0.5,1l-2.4,3h-0.7v-5.1h0.9
		v3l-0.1,0.9h0.1l0.4-0.9l2.3-3h0.7v5.1h-0.9V257z M285.6,253c0,0.1,0.1,0.3,0.1,0.3s0.1,0.1,0.2,0.2c0.1,0,0.2,0.1,0.3,0.1
		c0.1,0,0.2,0,0.3,0c0.1,0,0.2,0,0.3,0c0.1,0,0.2,0,0.3-0.1c0.1,0,0.1-0.1,0.2-0.2c0.1-0.1,0.1-0.2,0.1-0.3l0.7,0.2
		c-0.1,0.4-0.3,0.7-0.6,0.8c-0.3,0.2-0.7,0.2-1.1,0.2c-0.2,0-0.4,0-0.6,0c-0.2,0-0.4-0.1-0.5-0.2c-0.1-0.1-0.3-0.2-0.4-0.3
		c-0.1-0.1-0.2-0.3-0.2-0.5L285.6,253z M294.2,259.6c-0.2,0.2-0.5,0.3-0.8,0.4c-0.3,0.1-0.6,0.1-1,0.1c-0.4,0-0.8-0.1-1.1-0.2
		c-0.3-0.1-0.5-0.3-0.7-0.5s-0.3-0.5-0.4-0.8c-0.1-0.3-0.1-0.7-0.1-1.1c0-0.9,0.2-1.5,0.6-2c0.4-0.5,1-0.7,1.8-0.7
		c0.3,0,0.6,0,0.9,0.1c0.3,0.1,0.5,0.1,0.7,0.2l-0.2,0.7c-0.2-0.1-0.4-0.2-0.6-0.2c-0.2-0.1-0.4-0.1-0.7-0.1c-1.1,0-1.6,0.6-1.6,1.9
		c0,0.2,0,0.5,0.1,0.7c0.1,0.2,0.2,0.4,0.3,0.6c0.1,0.2,0.3,0.3,0.5,0.4c0.2,0.1,0.5,0.2,0.8,0.2c0.3,0,0.5,0,0.7-0.1
		c0.2-0.1,0.4-0.2,0.5-0.3L294.2,259.6z M296.4,259.2c0.3,0,0.5,0.1,0.8,0.1c0.5,0,0.8-0.1,1-0.2c0.2-0.2,0.3-0.4,0.3-0.7
		c0-0.3-0.1-0.5-0.3-0.7c-0.2-0.2-0.6-0.3-1-0.3c-0.1,0-0.3,0-0.4,0c-0.1,0-0.3,0-0.4,0.1V259.2z M296.4,256.8
		c0.2,0,0.4-0.1,0.6-0.1c0.2,0,0.3,0,0.5,0c0.4,0,0.7,0,1,0.1c0.3,0.1,0.5,0.2,0.7,0.3s0.3,0.3,0.4,0.5c0.1,0.2,0.1,0.4,0.1,0.6
		c0,0.6-0.2,1.1-0.6,1.4c-0.4,0.3-1,0.4-1.9,0.4c-0.3,0-0.5,0-0.8,0s-0.5,0-0.7,0v-5.1h0.9V256.8z M302.2,257.6h-0.6v2.3h-0.9v-5.1
		h0.9v2.3l0.5-0.2l1.7-2.1h1l-1.7,2h0l-0.5,0.4l0.6,0.4l1.8,2.3H304L302.2,257.6z M309.6,257l0.1-1h-0.1l-0.5,1l-2.4,3H306v-5.1h0.9
		v3l-0.1,0.9h0.1l0.4-0.9l2.3-3h0.7v5.1h-0.9V257z M315.7,257l0.1-1h-0.1l-0.5,1l-2.4,3h-0.7v-5.1h0.9v3l-0.1,0.9h0.1l0.4-0.9l2.3-3
		h0.7v5.1h-0.9V257z M313.5,253c0,0.1,0.1,0.3,0.1,0.3s0.1,0.1,0.2,0.2c0.1,0,0.2,0.1,0.3,0.1c0.1,0,0.2,0,0.3,0s0.2,0,0.3,0
		c0.1,0,0.2,0,0.3-0.1c0.1,0,0.1-0.1,0.2-0.2c0.1-0.1,0.1-0.2,0.1-0.3l0.7,0.2c-0.1,0.4-0.3,0.7-0.6,0.8c-0.3,0.2-0.7,0.2-1.1,0.2
		c-0.2,0-0.4,0-0.6,0s-0.4-0.1-0.5-0.2c-0.1-0.1-0.3-0.2-0.4-0.3c-0.1-0.1-0.2-0.3-0.2-0.5L313.5,253z M321.1,254.8h0.6l0.2,0.7h0.1
		c0.2-0.3,0.4-0.4,0.7-0.6c0.3-0.1,0.6-0.2,0.9-0.2c0.7,0,1.3,0.2,1.7,0.6c0.4,0.4,0.5,1.1,0.5,2c0,0.4-0.1,0.8-0.2,1.2
		c-0.1,0.3-0.3,0.6-0.5,0.9c-0.2,0.2-0.5,0.4-0.8,0.6c-0.3,0.1-0.7,0.2-1.1,0.2c-0.1,0-0.2,0-0.4,0c-0.1,0-0.2,0-0.3,0
		c-0.1,0-0.2,0-0.3-0.1c-0.1,0-0.2-0.1-0.3-0.1v2.1h-0.9V254.8z M323.4,255.4c-0.4,0-0.7,0.1-0.9,0.3c-0.2,0.2-0.4,0.5-0.5,0.9v2.4
		c0.1,0.1,0.3,0.2,0.5,0.2c0.2,0.1,0.4,0.1,0.7,0.1c0.5,0,0.9-0.2,1.2-0.5c0.3-0.3,0.4-0.9,0.4-1.5c0-0.6-0.1-1-0.3-1.3
		C324.3,255.6,323.9,255.4,323.4,255.4z M330.8,257l0.1-1h-0.1l-0.5,1l-2.4,3h-0.7v-5.1h0.9v3l-0.1,0.9h0.1l0.4-0.9l2.3-3h0.7v5.1
		h-0.9V257z M336.8,257.7h-2.6v2.2h-0.9v-5.1h0.9v2.1h2.6v-2.1h0.9v5.1h-0.9V257.7z M339.2,257.4c0-0.4,0.1-0.8,0.2-1.1
		c0.1-0.3,0.3-0.6,0.5-0.9c0.2-0.2,0.5-0.4,0.8-0.5c0.3-0.1,0.7-0.2,1.1-0.2c0.4,0,0.8,0.1,1.1,0.2c0.3,0.1,0.6,0.3,0.8,0.6
		c0.2,0.2,0.4,0.5,0.5,0.9c0.1,0.3,0.2,0.7,0.2,1.1c0,0.4-0.1,0.8-0.2,1.1c-0.1,0.3-0.3,0.6-0.5,0.8c-0.2,0.2-0.5,0.4-0.8,0.5
		c-0.3,0.1-0.7,0.2-1,0.2c-0.4,0-0.8-0.1-1.1-0.2c-0.3-0.1-0.6-0.3-0.8-0.6c-0.2-0.2-0.4-0.5-0.5-0.8
		C339.2,258.1,339.2,257.8,339.2,257.4z M340.1,257.4c0,0.2,0,0.5,0.1,0.7c0.1,0.2,0.1,0.4,0.3,0.6c0.1,0.2,0.3,0.3,0.5,0.4
		c0.2,0.1,0.4,0.2,0.7,0.2c1,0,1.5-0.6,1.5-1.9c0-0.3,0-0.5-0.1-0.7c-0.1-0.2-0.1-0.4-0.3-0.6c-0.1-0.2-0.3-0.3-0.5-0.4
		c-0.2-0.1-0.4-0.2-0.7-0.2c-0.5,0-0.9,0.2-1.2,0.5C340.3,256.2,340.1,256.7,340.1,257.4z M347,257.6h-0.6v2.3h-0.9v-5.1h0.9v2.3
		l0.5-0.2l1.7-2.1h1l-1.7,2h0l-0.5,0.4l0.6,0.4l1.8,2.3h-1.1L347,257.6z"/>
</g>
</svg>
