<?xml version="1.0" encoding="utf-8"?>
<!-- Generator: Adobe Illustrator 23.0.1, SVG Export Plug-In . SVG Version: 6.00 Build 0)  -->
<svg version="1.1" id="Layer_1" xmlns="http://www.w3.org/2000/svg" xmlns:xlink="http://www.w3.org/1999/xlink" x="0px" y="0px"
	 viewBox="0 0 476 346" style="enable-background:new 0 0 476 346;" xml:space="preserve">
<style type="text/css">
	.st0{fill:#FBB924;}
	.st1{fill:#035B82;}
	.st2{fill:#FFFFFF;}
	.st3{fill:#474746;}
	.st4{fill:#E62139;}
</style>
<g>
	<path class="st0" d="M261.8,309.2h-3.6v-85.9l73-73l2.5,2.5l-72,72V309.2z"/>
	<path class="st1" d="M221,95.1h-84.4v3H221V95.1z"/>
	<path class="st1" d="M138.5,104c4.1,0,7.3-3.3,7.3-7.3c0-4.1-3.3-7.3-7.3-7.3c-4.1,0-7.3,3.3-7.3,7.3
		C131.2,100.7,134.5,104,138.5,104z"/>
	<path class="st2" d="M138.5,105.4c-4.9,0-8.8-4-8.8-8.8s4-8.8,8.8-8.8c4.9,0,8.8,4,8.8,8.8C147.4,101.5,143.4,105.4,138.5,105.4z
		 M138.5,90.8c-3.2,0-5.8,2.6-5.8,5.8c0,3.2,2.6,5.8,5.8,5.8c3.2,0,5.8-2.6,5.8-5.8C144.4,93.4,141.8,90.8,138.5,90.8z"/>
	<path class="st1" d="M274.2,41.3L220,95.6l2.1,2.1l54.2-54.3L274.2,41.3z"/>
	<path class="st1" d="M275.3,49.7c4.1,0,7.3-3.3,7.3-7.3c0-4.1-3.3-7.3-7.3-7.3c-4.1,0-7.3,3.3-7.3,7.3
		C268,46.4,271.2,49.7,275.3,49.7z"/>
	<path class="st2" d="M275.3,51.2c-4.9,0-8.8-4-8.8-8.8s4-8.8,8.8-8.8c4.9,0,8.8,4,8.8,8.8S280.2,51.2,275.3,51.2z M275.3,36.5
		c-3.2,0-5.8,2.6-5.8,5.8s2.6,5.8,5.8,5.8c3.2,0,5.8-2.6,5.8-5.8C281.1,39.1,278.5,36.5,275.3,36.5z"/>
	<path class="st1" d="M221,104c4.1,0,7.3-3.3,7.3-7.3c0-4.1-3.3-7.3-7.3-7.3c-4.1,0-7.3,3.3-7.3,7.3C213.7,100.7,217,104,221,104z"
		/>
	<path class="st2" d="M221,105.4c-4.9,0-8.8-4-8.8-8.8s4-8.8,8.8-8.8c4.9,0,8.8,4,8.8,8.8C229.9,101.5,225.9,105.4,221,105.4z
		 M221,90.8c-3.2,0-5.8,2.6-5.8,5.8c0,3.2,2.6,5.8,5.8,5.8c3.2,0,5.8-2.6,5.8-5.8C226.9,93.4,224.3,90.8,221,90.8z"/>
	<path class="st3" d="M207.4,109.4l0.4,0c0.2,0,0.4,0,0.7,0c0.3,0,0.5,0,0.9,0c0.8,0,1.3,0.1,1.6,0.3c0.3,0.2,0.5,0.5,0.5,0.9
		c0,0.2-0.1,0.5-0.2,0.7c-0.2,0.2-0.4,0.4-0.8,0.5v0.1c0.4,0.1,0.7,0.2,0.9,0.4c0.2,0.2,0.3,0.5,0.3,0.8c0,0.5-0.2,0.9-0.6,1.2
		c-0.4,0.2-1.1,0.4-1.9,0.4c-0.3,0-0.6,0-0.8,0c-0.3,0-0.5,0-0.8,0c0,0,0,0-0.1,0c0,0,0,0-0.1,0V109.4z M208.3,113.9
		c0.1,0,0.3,0,0.4,0c0.1,0,0.3,0,0.5,0c0.5,0,0.9-0.1,1.1-0.2c0.2-0.1,0.3-0.4,0.3-0.7c0-0.1,0-0.2-0.1-0.3c0-0.1-0.1-0.2-0.2-0.3
		c-0.1-0.1-0.3-0.1-0.4-0.2c-0.2,0-0.4-0.1-0.7-0.1h-1V113.9z M209.5,111.6c0.1,0,0.3,0,0.4-0.1c0.1,0,0.3-0.1,0.4-0.2
		c0.1-0.1,0.2-0.2,0.2-0.2c0.1-0.1,0.1-0.2,0.1-0.3c0-0.3-0.1-0.5-0.3-0.6c-0.2-0.1-0.5-0.2-1-0.2c-0.2,0-0.3,0-0.5,0
		c-0.2,0-0.3,0-0.5,0v1.5H209.5z M214.8,112.7l0.3,1h0.1l0.2-1l1.1-3.3h0.9l-1.7,4.7c-0.1,0.3-0.3,0.6-0.4,0.9
		c-0.1,0.3-0.3,0.6-0.4,0.8c-0.2,0.2-0.3,0.4-0.5,0.6c-0.2,0.1-0.4,0.2-0.6,0.2c-0.3,0-0.5,0-0.7-0.1l0.1-0.8c0.1,0,0.2,0,0.3,0
		c0.1,0,0.3,0,0.4,0c0.1,0,0.2-0.1,0.3-0.2s0.2-0.2,0.2-0.4c0.1-0.2,0.2-0.3,0.2-0.6l-2.3-5.2h1.1L214.8,112.7z M221.4,110.2h-1.7
		l0,0.3c0,0.7-0.1,1.2-0.2,1.8c-0.1,0.5-0.1,1-0.3,1.3c-0.1,0.4-0.3,0.6-0.5,0.8c-0.2,0.2-0.5,0.3-0.8,0.3c-0.1,0-0.3,0-0.4,0
		c-0.1,0-0.2,0-0.3-0.1l0.1-0.8c0.1,0,0.2,0,0.3,0c0.2,0,0.3-0.1,0.4-0.2c0.1-0.1,0.2-0.3,0.3-0.7s0.2-0.8,0.2-1.3
		c0.1-0.6,0.1-1.3,0.1-2.2h3.4v5.2h-0.9V110.2z M223.7,114.1c0-0.2,0.1-0.3,0.2-0.5c0.1-0.1,0.3-0.2,0.5-0.2c0.2,0,0.4,0.1,0.5,0.2
		c0.1,0.1,0.2,0.3,0.2,0.5c0,0.2-0.1,0.3-0.2,0.4c-0.1,0.1-0.3,0.2-0.5,0.2c-0.2,0-0.4-0.1-0.5-0.2
		C223.8,114.4,223.7,114.3,223.7,114.1z M233.9,114.3c-0.2,0.2-0.5,0.3-0.8,0.3c-0.3,0.1-0.7,0.1-1.1,0.1c-0.4,0-0.9-0.1-1.3-0.2
		c-0.4-0.1-0.7-0.4-1-0.7c-0.3-0.3-0.5-0.7-0.7-1.1c-0.2-0.5-0.3-1-0.3-1.6c0-0.6,0.1-1.2,0.3-1.7s0.5-0.8,0.8-1.1
		c0.3-0.3,0.7-0.5,1.1-0.6c0.4-0.1,0.8-0.2,1.2-0.2c0.4,0,0.8,0,1.1,0.1c0.3,0,0.5,0.1,0.7,0.2l-0.2,0.9c-0.3-0.2-0.8-0.2-1.5-0.2
		c-0.3,0-0.6,0-0.9,0.1c-0.3,0.1-0.5,0.2-0.8,0.5c-0.2,0.2-0.4,0.5-0.5,0.8c-0.1,0.3-0.2,0.8-0.2,1.3c0,0.4,0.1,0.8,0.2,1.2
		c0.1,0.3,0.3,0.6,0.5,0.9c0.2,0.2,0.5,0.4,0.8,0.5c0.3,0.1,0.6,0.2,1,0.2c0.3,0,0.6,0,0.8-0.1c0.2-0.1,0.4-0.1,0.6-0.2L233.9,114.3
		z M234.8,114.1c0-0.2,0.1-0.3,0.2-0.5c0.1-0.1,0.3-0.2,0.5-0.2c0.2,0,0.4,0.1,0.5,0.2c0.1,0.1,0.2,0.3,0.2,0.5
		c0,0.2-0.1,0.3-0.2,0.4c-0.1,0.1-0.3,0.2-0.5,0.2c-0.2,0-0.4-0.1-0.5-0.2C234.9,114.4,234.8,114.3,234.8,114.1z M244.6,111.5h-3.5
		v3.1h-1v-6.9h1v3h3.5v-3h1v6.9h-1V111.5z M247.3,109.7c0.6-0.3,1.3-0.4,2.2-0.4c0.4,0,0.7,0.1,0.9,0.2c0.2,0.1,0.4,0.2,0.6,0.4
		c0.1,0.2,0.2,0.3,0.3,0.5c0,0.2,0.1,0.4,0.1,0.6c0,0.4,0,0.7,0,1.1c0,0.4,0,0.8,0,1.2c0,0.3,0,0.5,0,0.7c0,0.2,0.1,0.4,0.1,0.6
		h-0.7l-0.2-0.8h-0.1c-0.1,0.1-0.2,0.2-0.3,0.3c-0.1,0.1-0.2,0.2-0.4,0.3c-0.1,0.1-0.3,0.1-0.5,0.2c-0.2,0.1-0.4,0.1-0.6,0.1
		s-0.5,0-0.7-0.1c-0.2-0.1-0.4-0.2-0.5-0.3c-0.1-0.1-0.3-0.3-0.3-0.5c-0.1-0.2-0.1-0.4-0.1-0.6c0-0.3,0.1-0.6,0.2-0.8
		c0.1-0.2,0.3-0.4,0.5-0.5c0.2-0.1,0.4-0.2,0.7-0.3c0.3-0.1,0.5-0.1,0.8-0.1c0.2,0,0.4,0,0.5,0c0.1,0,0.3,0,0.4,0c0.1,0,0.2,0,0.2,0
		c0.1,0,0.1,0,0.2,0c0-0.1,0-0.2,0-0.3c0-0.1,0-0.2,0-0.3c0-0.2,0-0.3-0.1-0.5c0-0.1-0.1-0.2-0.2-0.3c-0.1-0.1-0.2-0.1-0.4-0.2
		c-0.2,0-0.3,0-0.6,0c-0.1,0-0.3,0-0.4,0c-0.2,0-0.3,0-0.5,0.1c-0.2,0-0.3,0.1-0.5,0.1c-0.1,0.1-0.3,0.1-0.4,0.2L247.3,109.7z
		 M250.4,112.2c-0.1,0-0.1,0-0.2,0c-0.1,0-0.1,0-0.2,0c-0.1,0-0.2,0-0.3,0c-0.1,0-0.3,0-0.4,0c-0.4,0-0.7,0.1-1,0.2
		c-0.2,0.1-0.4,0.4-0.4,0.7c0,0.3,0.1,0.5,0.3,0.6c0.2,0.1,0.4,0.2,0.7,0.2c0.2,0,0.4,0,0.6-0.1c0.2-0.1,0.3-0.1,0.4-0.2
		c0.1-0.1,0.2-0.2,0.3-0.3c0.1-0.1,0.1-0.2,0.2-0.3V112.2z M256.2,110.2h-1.7l0,0.3c0,0.7-0.1,1.2-0.2,1.8c-0.1,0.5-0.1,1-0.3,1.3
		c-0.1,0.4-0.3,0.6-0.5,0.8c-0.2,0.2-0.5,0.3-0.8,0.3c-0.1,0-0.3,0-0.4,0c-0.1,0-0.2,0-0.3-0.1l0.1-0.8c0.1,0,0.2,0,0.3,0
		c0.2,0,0.3-0.1,0.4-0.2c0.1-0.1,0.2-0.3,0.3-0.7s0.2-0.8,0.2-1.3c0.1-0.6,0.1-1.3,0.1-2.2h3.4v5.2h-0.9V110.2z M262.5,111.6l0.1-1
		h-0.1l-0.5,1l-2.4,3h-0.7v-5.2h0.9v3.1l-0.1,0.9h0.1l0.5-0.9l2.4-3.1h0.7v5.2h-0.9V111.6z M265.1,109.4l0.4,0c0.2,0,0.4,0,0.7,0
		c0.3,0,0.5,0,0.9,0c0.8,0,1.3,0.1,1.6,0.3c0.3,0.2,0.5,0.5,0.5,0.9c0,0.2-0.1,0.5-0.2,0.7c-0.2,0.2-0.4,0.4-0.8,0.5v0.1
		c0.4,0.1,0.7,0.2,0.9,0.4c0.2,0.2,0.3,0.5,0.3,0.8c0,0.5-0.2,0.9-0.6,1.2c-0.4,0.2-1.1,0.4-1.9,0.4c-0.3,0-0.6,0-0.8,0
		c-0.3,0-0.5,0-0.8,0c0,0,0,0-0.1,0c0,0,0,0-0.1,0V109.4z M266,113.9c0.1,0,0.3,0,0.4,0c0.1,0,0.3,0,0.5,0c0.5,0,0.9-0.1,1.1-0.2
		c0.2-0.1,0.3-0.4,0.3-0.7c0-0.1,0-0.2-0.1-0.3c0-0.1-0.1-0.2-0.2-0.3s-0.3-0.1-0.4-0.2c-0.2,0-0.4-0.1-0.7-0.1h-1V113.9z
		 M267.2,111.6c0.1,0,0.3,0,0.4-0.1c0.1,0,0.3-0.1,0.4-0.2c0.1-0.1,0.2-0.2,0.2-0.2c0.1-0.1,0.1-0.2,0.1-0.3c0-0.3-0.1-0.5-0.3-0.6
		c-0.2-0.1-0.5-0.2-1-0.2c-0.2,0-0.3,0-0.5,0c-0.2,0-0.3,0-0.5,0v1.5H267.2z M270.8,109.7c0.6-0.3,1.3-0.4,2.2-0.4
		c0.4,0,0.7,0.1,0.9,0.2c0.2,0.1,0.4,0.2,0.6,0.4c0.1,0.2,0.2,0.3,0.3,0.5c0,0.2,0.1,0.4,0.1,0.6c0,0.4,0,0.7,0,1.1
		c0,0.4,0,0.8,0,1.2c0,0.3,0,0.5,0,0.7c0,0.2,0.1,0.4,0.1,0.6h-0.7l-0.2-0.8h-0.1c-0.1,0.1-0.2,0.2-0.3,0.3
		c-0.1,0.1-0.2,0.2-0.4,0.3c-0.1,0.1-0.3,0.1-0.5,0.2c-0.2,0.1-0.4,0.1-0.6,0.1c-0.2,0-0.5,0-0.7-0.1c-0.2-0.1-0.4-0.2-0.5-0.3
		c-0.1-0.1-0.3-0.3-0.3-0.5c-0.1-0.2-0.1-0.4-0.1-0.6c0-0.3,0.1-0.6,0.2-0.8c0.1-0.2,0.3-0.4,0.5-0.5c0.2-0.1,0.4-0.2,0.7-0.3
		c0.3-0.1,0.5-0.1,0.8-0.1c0.2,0,0.4,0,0.5,0c0.1,0,0.3,0,0.4,0c0.1,0,0.2,0,0.2,0c0.1,0,0.1,0,0.2,0c0-0.1,0-0.2,0-0.3
		c0-0.1,0-0.2,0-0.3c0-0.2,0-0.3-0.1-0.5c0-0.1-0.1-0.2-0.2-0.3c-0.1-0.1-0.2-0.1-0.4-0.2s-0.3,0-0.6,0c-0.1,0-0.3,0-0.4,0
		c-0.2,0-0.3,0-0.5,0.1c-0.2,0-0.3,0.1-0.5,0.1c-0.1,0.1-0.3,0.1-0.4,0.2L270.8,109.7z M273.9,112.2c-0.1,0-0.1,0-0.2,0
		c-0.1,0-0.1,0-0.2,0c-0.1,0-0.2,0-0.3,0c-0.1,0-0.3,0-0.4,0c-0.4,0-0.7,0.1-1,0.2c-0.2,0.1-0.4,0.4-0.4,0.7c0,0.3,0.1,0.5,0.3,0.6
		c0.2,0.1,0.4,0.2,0.7,0.2c0.2,0,0.4,0,0.6-0.1c0.2-0.1,0.3-0.1,0.4-0.2c0.1-0.1,0.2-0.2,0.3-0.3c0.1-0.1,0.1-0.2,0.2-0.3V112.2z
		 M280.2,111.6l0.1-1h-0.1l-0.5,1l-2.4,3h-0.7v-5.2h0.9v3.1l-0.1,0.9h0.1l0.5-0.9l2.4-3.1h0.7v5.2h-0.9V111.6z M278,107.5
		c0,0.1,0.1,0.3,0.1,0.3c0.1,0.1,0.1,0.2,0.2,0.2c0.1,0,0.2,0.1,0.3,0.1c0.1,0,0.2,0,0.3,0c0.1,0,0.2,0,0.3,0c0.1,0,0.2,0,0.3-0.1
		c0.1,0,0.1-0.1,0.2-0.2c0.1-0.1,0.1-0.2,0.1-0.3l0.7,0.2c-0.1,0.4-0.3,0.7-0.6,0.8c-0.3,0.2-0.7,0.2-1.1,0.2c-0.2,0-0.4,0-0.6,0
		c-0.2,0-0.4-0.1-0.5-0.2c-0.2-0.1-0.3-0.2-0.4-0.3c-0.1-0.1-0.2-0.3-0.2-0.5L278,107.5z M284.3,112.3h-0.6v2.3h-0.9v-5.2h0.9v2.4
		l0.5-0.2l1.8-2.2h1l-1.7,2h0l-0.5,0.4l0.6,0.4l1.8,2.3h-1.1L284.3,112.3z M288.2,109.7c0.6-0.3,1.3-0.4,2.2-0.4
		c0.4,0,0.7,0.1,0.9,0.2c0.2,0.1,0.4,0.2,0.6,0.4c0.1,0.2,0.2,0.3,0.3,0.5c0,0.2,0.1,0.4,0.1,0.6c0,0.4,0,0.7,0,1.1
		c0,0.4,0,0.8,0,1.2c0,0.3,0,0.5,0,0.7c0,0.2,0.1,0.4,0.1,0.6h-0.7l-0.2-0.8h-0.1c-0.1,0.1-0.2,0.2-0.3,0.3
		c-0.1,0.1-0.2,0.2-0.4,0.3c-0.1,0.1-0.3,0.1-0.5,0.2c-0.2,0.1-0.4,0.1-0.6,0.1c-0.2,0-0.5,0-0.7-0.1c-0.2-0.1-0.4-0.2-0.5-0.3
		c-0.1-0.1-0.3-0.3-0.3-0.5c-0.1-0.2-0.1-0.4-0.1-0.6c0-0.3,0.1-0.6,0.2-0.8c0.1-0.2,0.3-0.4,0.5-0.5c0.2-0.1,0.4-0.2,0.7-0.3
		c0.3-0.1,0.5-0.1,0.8-0.1c0.2,0,0.4,0,0.5,0c0.1,0,0.3,0,0.4,0c0.1,0,0.2,0,0.2,0c0.1,0,0.1,0,0.2,0c0-0.1,0-0.2,0-0.3
		c0-0.1,0-0.2,0-0.3c0-0.2,0-0.3-0.1-0.5c0-0.1-0.1-0.2-0.2-0.3c-0.1-0.1-0.2-0.1-0.4-0.2s-0.3,0-0.6,0c-0.1,0-0.3,0-0.4,0
		c-0.2,0-0.3,0-0.5,0.1c-0.2,0-0.3,0.1-0.5,0.1c-0.1,0.1-0.3,0.1-0.4,0.2L288.2,109.7z M291.3,112.2c-0.1,0-0.1,0-0.2,0
		c-0.1,0-0.1,0-0.2,0c-0.1,0-0.2,0-0.3,0c-0.1,0-0.3,0-0.4,0c-0.4,0-0.7,0.1-1,0.2c-0.2,0.1-0.4,0.4-0.4,0.7c0,0.3,0.1,0.5,0.3,0.6
		c0.2,0.1,0.4,0.2,0.7,0.2c0.2,0,0.4,0,0.6-0.1c0.2-0.1,0.3-0.1,0.4-0.2c0.1-0.1,0.2-0.2,0.3-0.3c0.1-0.1,0.1-0.2,0.2-0.3V112.2z"/>
	<path class="st3" d="M101.5,116.7h-0.6l-0.2-1.3h-4.4v-5.2h0.9v4.4h2.5v-4.4h0.9v4.4h0.8V116.7z M106.8,115
		c-0.2,0.2-0.5,0.3-0.9,0.4c-0.3,0.1-0.7,0.1-1.1,0.1c-0.4,0-0.8-0.1-1.1-0.2c-0.3-0.1-0.6-0.3-0.8-0.6c-0.2-0.2-0.4-0.5-0.5-0.9
		s-0.1-0.7-0.1-1.1c0-0.9,0.2-1.6,0.7-2c0.4-0.5,1.1-0.7,1.9-0.7c0.3,0,0.5,0,0.8,0.1c0.3,0.1,0.5,0.2,0.7,0.3
		c0.2,0.2,0.4,0.4,0.5,0.6c0.1,0.3,0.2,0.6,0.2,1.1c0,0.1,0,0.2,0,0.4c0,0.1,0,0.3,0,0.4h-3.7c0,0.6,0.2,1.1,0.4,1.4
		c0.3,0.3,0.7,0.5,1.4,0.5c0.3,0,0.5,0,0.8-0.1c0.3-0.1,0.4-0.2,0.6-0.3L106.8,115z M106.1,112.3c0-0.5-0.1-0.9-0.3-1.1
		c-0.2-0.2-0.5-0.3-0.9-0.3c-0.5,0-0.8,0.1-1.1,0.3c-0.3,0.2-0.4,0.6-0.5,1.1H106.1z M108.5,110.2h0.6l0.2,0.7h0.1
		c0.2-0.3,0.4-0.5,0.7-0.6c0.3-0.1,0.6-0.2,1-0.2c0.8,0,1.3,0.2,1.7,0.6c0.4,0.4,0.6,1.1,0.6,2c0,0.4-0.1,0.8-0.2,1.2
		c-0.1,0.3-0.3,0.6-0.5,0.9c-0.2,0.2-0.5,0.4-0.8,0.6c-0.3,0.1-0.7,0.2-1.1,0.2c-0.1,0-0.3,0-0.4,0c-0.1,0-0.2,0-0.3,0
		c-0.1,0-0.2,0-0.3-0.1c-0.1,0-0.2-0.1-0.3-0.1v2.1h-0.9V110.2z M110.8,110.8c-0.4,0-0.7,0.1-0.9,0.3s-0.4,0.5-0.5,0.9v2.4
		c0.2,0.1,0.3,0.2,0.5,0.2c0.2,0.1,0.4,0.1,0.7,0.1c0.5,0,1-0.2,1.3-0.5s0.5-0.9,0.5-1.6c0-0.6-0.1-1-0.3-1.3
		C111.7,111,111.3,110.8,110.8,110.8z M116.2,113.1h-0.6v2.3h-0.9v-5.2h0.9v2.4l0.5-0.2l1.8-2.2h1l-1.7,2h0l-0.5,0.4l0.6,0.4
		l1.8,2.3H118L116.2,113.1z M120.1,110.2l0.4,0c0.2,0,0.4,0,0.7,0c0.3,0,0.5,0,0.9,0c0.8,0,1.3,0.1,1.6,0.3c0.3,0.2,0.5,0.5,0.5,0.9
		c0,0.2-0.1,0.5-0.2,0.7c-0.2,0.2-0.4,0.4-0.8,0.5v0.1c0.4,0.1,0.7,0.2,0.9,0.4c0.2,0.2,0.3,0.5,0.3,0.8c0,0.5-0.2,0.9-0.6,1.2
		c-0.4,0.2-1.1,0.4-1.9,0.4c-0.3,0-0.6,0-0.8,0c-0.3,0-0.5,0-0.8,0c0,0,0,0-0.1,0c0,0,0,0-0.1,0V110.2z M121,114.7
		c0.1,0,0.3,0,0.4,0c0.1,0,0.3,0,0.5,0c0.5,0,0.9-0.1,1.1-0.2c0.2-0.1,0.3-0.4,0.3-0.7c0-0.1,0-0.2-0.1-0.3s-0.1-0.2-0.2-0.3
		c-0.1-0.1-0.3-0.1-0.4-0.2c-0.2,0-0.4-0.1-0.7-0.1h-1V114.7z M122.1,112.4c0.1,0,0.3,0,0.4-0.1c0.1,0,0.3-0.1,0.4-0.2
		c0.1-0.1,0.2-0.2,0.2-0.2c0.1-0.1,0.1-0.2,0.1-0.3c0-0.3-0.1-0.5-0.3-0.6c-0.2-0.1-0.5-0.2-1-0.2c-0.2,0-0.3,0-0.5,0
		c-0.2,0-0.3,0-0.5,0v1.5H122.1z M125.8,110.5c0.6-0.3,1.3-0.4,2.2-0.4c0.4,0,0.7,0.1,0.9,0.2c0.2,0.1,0.4,0.2,0.6,0.4
		c0.1,0.2,0.2,0.3,0.3,0.5c0,0.2,0.1,0.4,0.1,0.6c0,0.4,0,0.7,0,1.1c0,0.4,0,0.8,0,1.2c0,0.3,0,0.5,0,0.7c0,0.2,0.1,0.4,0.1,0.6
		h-0.7l-0.2-0.8h-0.1c-0.1,0.1-0.2,0.2-0.3,0.3c-0.1,0.1-0.2,0.2-0.4,0.3s-0.3,0.1-0.5,0.2c-0.2,0.1-0.4,0.1-0.6,0.1s-0.5,0-0.7-0.1
		c-0.2-0.1-0.4-0.2-0.5-0.3c-0.1-0.1-0.3-0.3-0.3-0.5c-0.1-0.2-0.1-0.4-0.1-0.6c0-0.3,0.1-0.6,0.2-0.8c0.1-0.2,0.3-0.4,0.5-0.5
		c0.2-0.1,0.4-0.2,0.7-0.3c0.3-0.1,0.5-0.1,0.8-0.1c0.2,0,0.4,0,0.5,0c0.1,0,0.3,0,0.4,0c0.1,0,0.2,0,0.2,0c0.1,0,0.1,0,0.2,0
		c0-0.1,0-0.2,0-0.3c0-0.1,0-0.2,0-0.3c0-0.2,0-0.3-0.1-0.5c0-0.1-0.1-0.2-0.2-0.3c-0.1-0.1-0.2-0.1-0.4-0.2c-0.2,0-0.3,0-0.6,0
		c-0.1,0-0.3,0-0.4,0c-0.2,0-0.3,0-0.5,0.1c-0.2,0-0.3,0.1-0.5,0.1c-0.1,0.1-0.3,0.1-0.4,0.2L125.8,110.5z M128.9,113.1
		c-0.1,0-0.1,0-0.2,0c-0.1,0-0.1,0-0.2,0c-0.1,0-0.2,0-0.3,0c-0.1,0-0.3,0-0.4,0c-0.4,0-0.7,0.1-1,0.2c-0.2,0.1-0.4,0.4-0.4,0.7
		c0,0.3,0.1,0.5,0.3,0.6c0.2,0.1,0.4,0.2,0.7,0.2c0.2,0,0.4,0,0.6-0.1c0.2-0.1,0.3-0.1,0.4-0.2c0.1-0.1,0.2-0.2,0.3-0.3
		c0.1-0.1,0.1-0.2,0.2-0.3V113.1z M139.4,115.1c-0.2,0.2-0.5,0.3-0.8,0.3c-0.3,0.1-0.7,0.1-1.1,0.1c-0.4,0-0.9-0.1-1.3-0.2
		c-0.4-0.1-0.7-0.4-1-0.7c-0.3-0.3-0.5-0.7-0.7-1.1c-0.2-0.5-0.3-1-0.3-1.6c0-0.6,0.1-1.2,0.3-1.7c0.2-0.5,0.5-0.8,0.8-1.1
		c0.3-0.3,0.7-0.5,1.1-0.6s0.8-0.2,1.2-0.2c0.4,0,0.8,0,1.1,0.1c0.3,0,0.5,0.1,0.7,0.2l-0.2,0.9c-0.3-0.2-0.8-0.2-1.5-0.2
		c-0.3,0-0.6,0-0.9,0.1c-0.3,0.1-0.5,0.2-0.8,0.5c-0.2,0.2-0.4,0.5-0.5,0.8c-0.1,0.3-0.2,0.8-0.2,1.3c0,0.4,0.1,0.8,0.2,1.2
		c0.1,0.3,0.3,0.6,0.5,0.9c0.2,0.2,0.5,0.4,0.8,0.5c0.3,0.1,0.6,0.2,1,0.2c0.3,0,0.6,0,0.8-0.1c0.2-0.1,0.4-0.1,0.6-0.2L139.4,115.1
		z M140.7,110.2l0.4,0c0.2,0,0.4,0,0.7,0c0.3,0,0.5,0,0.9,0c0.8,0,1.3,0.1,1.6,0.3c0.3,0.2,0.5,0.5,0.5,0.9c0,0.2-0.1,0.5-0.2,0.7
		c-0.2,0.2-0.4,0.4-0.8,0.5v0.1c0.4,0.1,0.7,0.2,0.9,0.4c0.2,0.2,0.3,0.5,0.3,0.8c0,0.5-0.2,0.9-0.6,1.2c-0.4,0.2-1.1,0.4-1.9,0.4
		c-0.3,0-0.6,0-0.8,0c-0.3,0-0.5,0-0.8,0c0,0,0,0-0.1,0c0,0,0,0-0.1,0V110.2z M141.6,114.7c0.1,0,0.3,0,0.4,0c0.1,0,0.3,0,0.5,0
		c0.5,0,0.9-0.1,1.1-0.2c0.2-0.1,0.3-0.4,0.3-0.7c0-0.1,0-0.2-0.1-0.3c0-0.1-0.1-0.2-0.2-0.3c-0.1-0.1-0.3-0.1-0.4-0.2
		c-0.2,0-0.4-0.1-0.7-0.1h-1V114.7z M142.7,112.4c0.1,0,0.3,0,0.4-0.1c0.1,0,0.3-0.1,0.4-0.2c0.1-0.1,0.2-0.2,0.2-0.2
		c0.1-0.1,0.1-0.2,0.1-0.3c0-0.3-0.1-0.5-0.3-0.6c-0.2-0.1-0.5-0.2-1-0.2c-0.2,0-0.3,0-0.5,0c-0.2,0-0.3,0-0.5,0v1.5H142.7z
		 M146.1,114.9c0-0.2,0.1-0.3,0.2-0.5c0.1-0.1,0.3-0.2,0.5-0.2c0.2,0,0.4,0.1,0.5,0.2c0.1,0.1,0.2,0.3,0.2,0.5
		c0,0.2-0.1,0.3-0.2,0.4c-0.1,0.1-0.3,0.2-0.5,0.2c-0.2,0-0.4-0.1-0.5-0.2C146.1,115.2,146.1,115.1,146.1,114.9z M154.7,113.6h-2.7
		l-0.7,1.8h-1l2.8-7h0.5l2.9,7h-1L154.7,113.6z M152.2,112.8h2.2l-0.8-2l-0.3-1.1h0l-0.3,1.1L152.2,112.8z M160.9,113.1h-2.6v2.3
		h-0.9v-5.2h0.9v2.1h2.6v-2.1h0.9v5.2h-0.9V113.1z M167.1,113.1h-2.6v2.3h-0.9v-5.2h0.9v2.1h2.6v-2.1h0.9v5.2h-0.9V113.1z
		 M173.3,112.4l0.1-1h-0.1l-0.5,1l-2.4,3h-0.7v-5.2h0.9v3.1l-0.1,0.9h0.1l0.5-0.9l2.4-3.1h0.7v5.2h-0.9V112.4z"/>
	<path class="st3" d="M291.1,41.5h-2.6v4.4h-0.9v-5.2h4.4v5.2h-0.9V41.5z M296.9,41.5h-1.7l0,0.3c0,0.7-0.1,1.2-0.2,1.8
		c-0.1,0.5-0.1,1-0.3,1.3c-0.1,0.4-0.3,0.6-0.5,0.8c-0.2,0.2-0.5,0.3-0.8,0.3c-0.1,0-0.3,0-0.4,0c-0.1,0-0.2,0-0.3-0.1l0.1-0.8
		c0.1,0,0.2,0,0.3,0c0.2,0,0.3-0.1,0.4-0.2c0.1-0.1,0.2-0.3,0.3-0.7s0.2-0.8,0.2-1.3c0.1-0.6,0.1-1.3,0.1-2.2h3.4v5.2h-0.9V41.5z
		 M299.1,45.4c0-0.2,0.1-0.3,0.2-0.5c0.1-0.1,0.3-0.2,0.5-0.2c0.2,0,0.4,0.1,0.5,0.2c0.1,0.1,0.2,0.3,0.2,0.5c0,0.2-0.1,0.3-0.2,0.4
		c-0.1,0.1-0.3,0.2-0.5,0.2c-0.2,0-0.4-0.1-0.5-0.2C299.2,45.7,299.1,45.6,299.1,45.4z M306.8,45.6c-0.2,0.2-0.5,0.3-0.8,0.3
		c-0.3,0.1-0.7,0.1-1.1,0.1c-0.4,0-0.9-0.1-1.3-0.2c-0.4-0.1-0.7-0.4-1-0.7c-0.3-0.3-0.5-0.7-0.7-1.1c-0.2-0.5-0.3-1-0.3-1.6
		c0-0.6,0.1-1.2,0.3-1.7c0.2-0.5,0.5-0.8,0.8-1.1c0.3-0.3,0.7-0.5,1.1-0.6c0.4-0.1,0.8-0.2,1.2-0.2c0.4,0,0.8,0,1.1,0.1
		c0.3,0,0.5,0.1,0.7,0.2l-0.2,0.9c-0.3-0.2-0.8-0.2-1.5-0.2c-0.3,0-0.6,0-0.9,0.1c-0.3,0.1-0.5,0.2-0.8,0.5
		c-0.2,0.2-0.4,0.5-0.5,0.8c-0.1,0.3-0.2,0.8-0.2,1.3c0,0.4,0.1,0.8,0.2,1.2c0.1,0.3,0.3,0.6,0.5,0.9c0.2,0.2,0.5,0.4,0.8,0.5
		c0.3,0.1,0.6,0.2,1,0.2c0.3,0,0.6,0,0.8-0.1c0.2-0.1,0.4-0.1,0.6-0.2L306.8,45.6z M311.1,41.5h-1.8v4.4h-0.9v-4.4h-1.8v-0.8h4.5
		V41.5z M311.9,41c0.6-0.3,1.3-0.4,2.2-0.4c0.4,0,0.7,0.1,0.9,0.2c0.2,0.1,0.4,0.2,0.6,0.4c0.1,0.2,0.2,0.3,0.3,0.5
		c0,0.2,0.1,0.4,0.1,0.6c0,0.4,0,0.7,0,1.1c0,0.4,0,0.8,0,1.2c0,0.3,0,0.5,0,0.7c0,0.2,0.1,0.4,0.1,0.6h-0.7l-0.2-0.8H315
		c-0.1,0.1-0.2,0.2-0.3,0.3c-0.1,0.1-0.2,0.2-0.4,0.3c-0.1,0.1-0.3,0.1-0.5,0.2c-0.2,0.1-0.4,0.1-0.6,0.1s-0.5,0-0.7-0.1
		c-0.2-0.1-0.4-0.2-0.5-0.3c-0.1-0.1-0.3-0.3-0.3-0.5c-0.1-0.2-0.1-0.4-0.1-0.6c0-0.3,0.1-0.6,0.2-0.8c0.1-0.2,0.3-0.4,0.5-0.5
		c0.2-0.1,0.4-0.2,0.7-0.3c0.3-0.1,0.5-0.1,0.8-0.1c0.2,0,0.4,0,0.5,0c0.1,0,0.3,0,0.4,0c0.1,0,0.2,0,0.2,0c0.1,0,0.1,0,0.2,0
		c0-0.1,0-0.2,0-0.3c0-0.1,0-0.2,0-0.3c0-0.2,0-0.3-0.1-0.5c0-0.1-0.1-0.2-0.2-0.3c-0.1-0.1-0.2-0.1-0.4-0.2c-0.2,0-0.3,0-0.6,0
		c-0.1,0-0.3,0-0.4,0c-0.2,0-0.3,0-0.5,0.1c-0.2,0-0.3,0.1-0.5,0.1c-0.1,0.1-0.3,0.1-0.4,0.2L311.9,41z M315,43.5
		c-0.1,0-0.1,0-0.2,0c-0.1,0-0.1,0-0.2,0c-0.1,0-0.2,0-0.3,0c-0.1,0-0.3,0-0.4,0c-0.4,0-0.7,0.1-1,0.2c-0.2,0.1-0.4,0.4-0.4,0.7
		c0,0.3,0.1,0.5,0.3,0.6c0.2,0.1,0.4,0.2,0.7,0.2c0.2,0,0.4,0,0.6-0.1c0.2-0.1,0.3-0.1,0.4-0.2c0.1-0.1,0.2-0.2,0.3-0.3
		c0.1-0.1,0.1-0.2,0.2-0.3V43.5z M317.7,40.7h0.6l0.2,0.7h0.1c0.2-0.3,0.4-0.5,0.7-0.6c0.3-0.1,0.6-0.2,1-0.2c0.8,0,1.3,0.2,1.7,0.6
		c0.4,0.4,0.6,1.1,0.6,2c0,0.4-0.1,0.8-0.2,1.2c-0.1,0.3-0.3,0.6-0.5,0.9c-0.2,0.2-0.5,0.4-0.8,0.6c-0.3,0.1-0.7,0.2-1.1,0.2
		c-0.1,0-0.3,0-0.4,0c-0.1,0-0.2,0-0.3,0c-0.1,0-0.2,0-0.3-0.1c-0.1,0-0.2-0.1-0.3-0.1v2.1h-0.9V40.7z M320,41.3
		c-0.4,0-0.7,0.1-0.9,0.3c-0.2,0.2-0.4,0.5-0.5,0.9v2.4c0.2,0.1,0.3,0.2,0.5,0.2c0.2,0.1,0.4,0.1,0.7,0.1c0.5,0,1-0.2,1.3-0.5
		s0.5-0.9,0.5-1.6c0-0.6-0.1-1-0.3-1.3C320.9,41.5,320.5,41.3,320,41.3z M327.5,42.9l0.1-1h-0.1l-0.5,1l-2.4,3h-0.7v-5.2h0.9v3.1
		l-0.1,0.9h0.1l0.5-0.9l2.4-3.1h0.7v5.2h-0.9V42.9z M333.7,42.9l0.1-1h-0.1l-0.5,1l-2.4,3h-0.7v-5.2h0.9v3.1l-0.1,0.9h0.1l0.5-0.9
		l2.4-3.1h0.7v5.2h-0.9V42.9z M331.5,38.9c0,0.1,0.1,0.3,0.1,0.3s0.1,0.2,0.2,0.2c0.1,0,0.2,0.1,0.3,0.1c0.1,0,0.2,0,0.3,0
		s0.2,0,0.3,0c0.1,0,0.2,0,0.3-0.1c0.1,0,0.1-0.1,0.2-0.2c0.1-0.1,0.1-0.2,0.1-0.3l0.7,0.2c-0.1,0.4-0.3,0.7-0.6,0.8
		c-0.3,0.2-0.7,0.2-1.1,0.2c-0.2,0-0.4,0-0.6,0c-0.2,0-0.4-0.1-0.5-0.2c-0.2-0.1-0.3-0.2-0.4-0.3c-0.1-0.1-0.2-0.3-0.2-0.5
		L331.5,38.9z M339.3,39.1c0.3-0.1,0.6-0.1,0.9-0.1c0.3,0,0.7,0,1,0c0.3,0,0.7,0,1,0.1c0.3,0.1,0.7,0.2,0.9,0.3
		c0.3,0.2,0.5,0.4,0.7,0.7c0.2,0.3,0.3,0.6,0.3,1.1c0,0.4-0.1,0.8-0.2,1.1c-0.2,0.3-0.4,0.5-0.7,0.7c-0.3,0.2-0.6,0.3-0.9,0.4
		c-0.3,0.1-0.7,0.1-1.1,0.1c0,0-0.1,0-0.2,0c-0.1,0-0.2,0-0.3,0c-0.1,0-0.2,0-0.3,0c-0.1,0-0.1,0-0.2,0v2.6h-1V39.1z M341.2,39.7
		c-0.2,0-0.4,0-0.5,0c-0.2,0-0.3,0-0.4,0v2.7c0,0,0.1,0,0.2,0c0.1,0,0.2,0,0.2,0c0.1,0,0.2,0,0.2,0c0.1,0,0.1,0,0.2,0
		c0.2,0,0.5,0,0.7,0c0.2,0,0.4-0.1,0.6-0.2c0.2-0.1,0.3-0.3,0.5-0.4c0.1-0.2,0.2-0.4,0.2-0.7c0-0.3-0.1-0.5-0.2-0.7
		c-0.1-0.2-0.3-0.3-0.4-0.4c-0.2-0.1-0.4-0.2-0.6-0.2C341.6,39.8,341.4,39.7,341.2,39.7z M348.6,42.9l0.1-1h-0.1l-0.5,1l-2.4,3H345
		v-5.2h0.9v3.1l-0.1,0.9h0.1l0.5-0.9l2.4-3.1h0.7v5.2h-0.9V42.9z M354.7,43.6h-2.6v2.3h-0.9v-5.2h0.9v2.1h2.6v-2.1h0.9v5.2h-0.9
		V43.6z M357.1,43.3c0-0.4,0.1-0.8,0.2-1.1c0.1-0.3,0.3-0.6,0.5-0.9c0.2-0.2,0.5-0.4,0.8-0.5c0.3-0.1,0.7-0.2,1.1-0.2
		c0.4,0,0.8,0.1,1.1,0.2s0.6,0.3,0.8,0.6c0.2,0.2,0.4,0.5,0.5,0.9c0.1,0.3,0.2,0.7,0.2,1.1c0,0.4-0.1,0.8-0.2,1.1
		c-0.1,0.3-0.3,0.6-0.5,0.9c-0.2,0.2-0.5,0.4-0.8,0.5c-0.3,0.1-0.7,0.2-1.1,0.2c-0.4,0-0.8-0.1-1.1-0.2c-0.3-0.1-0.6-0.3-0.8-0.6
		c-0.2-0.2-0.4-0.5-0.5-0.9C357.2,44.1,357.1,43.7,357.1,43.3z M358.1,43.3c0,0.2,0,0.5,0.1,0.7c0.1,0.2,0.2,0.4,0.3,0.6
		s0.3,0.3,0.5,0.4s0.4,0.2,0.7,0.2c1,0,1.5-0.7,1.5-2c0-0.3,0-0.5-0.1-0.7c-0.1-0.2-0.1-0.4-0.3-0.6c-0.1-0.2-0.3-0.3-0.5-0.4
		c-0.2-0.1-0.4-0.2-0.7-0.2c-0.5,0-0.9,0.2-1.2,0.5C358.2,42.2,358.1,42.6,358.1,43.3z M365.1,43.6h-0.6v2.3h-0.9v-5.2h0.9v2.4
		l0.5-0.2l1.8-2.2h1l-1.7,2h0l-0.5,0.4l0.6,0.4l1.8,2.3H367L365.1,43.6z"/>
	<path class="st4" d="M258.9,222.7h-99.5v-3.6h98.1l71.3-71.3l2.5,2.5L258.9,222.7z"/>
	<path class="st3" d="M88.8,221.3h-2.6v4.4h-0.9v-5.2h4.4v5.2h-0.9V221.3z M94.6,221.3h-1.7l0,0.3c0,0.7-0.1,1.2-0.2,1.8
		c-0.1,0.5-0.1,1-0.3,1.3c-0.1,0.4-0.3,0.6-0.5,0.8c-0.2,0.2-0.5,0.3-0.8,0.3c-0.1,0-0.3,0-0.4,0c-0.1,0-0.2,0-0.3-0.1l0.1-0.8
		c0.1,0,0.2,0,0.3,0c0.2,0,0.3-0.1,0.4-0.2c0.1-0.1,0.2-0.3,0.3-0.7s0.2-0.8,0.2-1.3c0.1-0.6,0.1-1.3,0.1-2.2h3.4v5.2h-0.9V221.3z
		 M96.9,225.2c0-0.2,0.1-0.3,0.2-0.5c0.1-0.1,0.3-0.2,0.5-0.2s0.4,0.1,0.5,0.2c0.1,0.1,0.2,0.3,0.2,0.5c0,0.2-0.1,0.3-0.2,0.4
		c-0.1,0.1-0.3,0.2-0.5,0.2s-0.4-0.1-0.5-0.2C96.9,225.5,96.9,225.4,96.9,225.2z M102.8,219.4H102v-0.7h2.6v0.7h-0.8v5.6h0.8v0.7
		H102v-0.7h0.8V219.4z M105.8,225.2c0-0.2,0.1-0.3,0.2-0.5c0.1-0.1,0.3-0.2,0.5-0.2s0.4,0.1,0.5,0.2c0.1,0.1,0.2,0.3,0.2,0.5
		c0,0.2-0.1,0.3-0.2,0.4c-0.1,0.1-0.3,0.2-0.5,0.2s-0.4-0.1-0.5-0.2C105.8,225.5,105.8,225.4,105.8,225.2z M113.9,224.9
		c-0.1,0-0.3,0-0.4,0c-0.2,0-0.3,0-0.4,0c-0.3,0-0.7-0.1-1-0.2c-0.3-0.1-0.6-0.3-0.8-0.5c-0.2-0.2-0.4-0.5-0.5-0.9
		c-0.1-0.3-0.2-0.7-0.2-1.2c0-0.4,0.1-0.8,0.2-1.2c0.1-0.4,0.3-0.7,0.5-0.9c0.2-0.3,0.5-0.4,0.8-0.6c0.3-0.1,0.7-0.2,1.1-0.2
		c0.1,0,0.2,0,0.3,0c0.1,0,0.2,0,0.3,0v-0.9h0.9v0.9c0.1,0,0.3-0.1,0.5-0.1c0.2,0,0.3,0,0.4,0c0.3,0,0.7,0.1,1,0.2
		c0.3,0.1,0.6,0.3,0.8,0.5c0.2,0.2,0.4,0.5,0.5,0.9s0.2,0.7,0.2,1.2c0,0.5-0.1,0.9-0.2,1.2c-0.1,0.4-0.3,0.7-0.6,0.9
		c-0.2,0.2-0.5,0.4-0.8,0.5c-0.3,0.1-0.7,0.2-1,0.2c-0.1,0-0.2,0-0.3,0c-0.1,0-0.3,0-0.3-0.1v1h-0.9V224.9z M115.6,220.2
		c-0.1,0-0.2,0-0.4,0c-0.2,0-0.3,0-0.4,0v3.9c0.1,0,0.2,0,0.3,0c0.1,0,0.2,0,0.3,0c0.2,0,0.5,0,0.7-0.1c0.2-0.1,0.4-0.2,0.6-0.4
		c0.2-0.2,0.3-0.4,0.4-0.6c0.1-0.3,0.1-0.6,0.1-0.9c0-0.3,0-0.6-0.1-0.8c-0.1-0.2-0.2-0.5-0.3-0.6c-0.1-0.2-0.3-0.3-0.5-0.4
		C116.1,220.2,115.8,220.2,115.6,220.2z M113.2,224.2c0.1,0,0.2,0,0.3,0c0.2,0,0.3,0,0.4-0.1v-3.9c-0.1,0-0.2,0-0.3,0
		c-0.1,0-0.2,0-0.3,0c-0.2,0-0.5,0-0.7,0.1s-0.4,0.2-0.5,0.4c-0.2,0.2-0.3,0.4-0.4,0.6c-0.1,0.3-0.1,0.6-0.1,0.9
		c0,0.3,0,0.6,0.1,0.8c0.1,0.2,0.2,0.4,0.3,0.6s0.3,0.3,0.5,0.4C112.8,224.2,113,224.2,113.2,224.2z M119.5,220.5h0.6l0.2,0.7h0.1
		c0.2-0.3,0.4-0.5,0.7-0.6c0.3-0.1,0.6-0.2,1-0.2c0.8,0,1.3,0.2,1.7,0.6c0.4,0.4,0.6,1.1,0.6,2c0,0.4-0.1,0.8-0.2,1.2
		c-0.1,0.3-0.3,0.6-0.5,0.9c-0.2,0.2-0.5,0.4-0.8,0.6c-0.3,0.1-0.7,0.2-1.1,0.2c-0.1,0-0.3,0-0.4,0c-0.1,0-0.2,0-0.3,0
		c-0.1,0-0.2,0-0.3-0.1c-0.1,0-0.2-0.1-0.3-0.1v2.1h-0.9V220.5z M121.8,221.1c-0.4,0-0.7,0.1-0.9,0.3c-0.2,0.2-0.4,0.5-0.5,0.9v2.4
		c0.2,0.1,0.3,0.2,0.5,0.2s0.4,0.1,0.7,0.1c0.5,0,1-0.2,1.3-0.5c0.3-0.3,0.5-0.9,0.5-1.6c0-0.6-0.1-1-0.3-1.3
		C122.7,221.3,122.4,221.1,121.8,221.1z M125.7,220.8c0.6-0.3,1.3-0.4,2.2-0.4c0.4,0,0.7,0.1,0.9,0.2c0.2,0.1,0.4,0.2,0.6,0.4
		c0.1,0.2,0.2,0.3,0.3,0.5c0,0.2,0.1,0.4,0.1,0.6c0,0.4,0,0.7,0,1.1c0,0.4,0,0.8,0,1.2c0,0.3,0,0.5,0,0.7c0,0.2,0.1,0.4,0.1,0.6
		h-0.7l-0.2-0.8h-0.1c-0.1,0.1-0.2,0.2-0.3,0.3c-0.1,0.1-0.2,0.2-0.4,0.3c-0.1,0.1-0.3,0.1-0.5,0.2c-0.2,0.1-0.4,0.1-0.6,0.1
		s-0.5,0-0.7-0.1c-0.2-0.1-0.4-0.2-0.5-0.3c-0.1-0.1-0.3-0.3-0.3-0.5c-0.1-0.2-0.1-0.4-0.1-0.6c0-0.3,0.1-0.6,0.2-0.8
		c0.1-0.2,0.3-0.4,0.5-0.5s0.4-0.2,0.7-0.3c0.3-0.1,0.5-0.1,0.8-0.1c0.2,0,0.4,0,0.5,0c0.1,0,0.3,0,0.4,0c0.1,0,0.2,0,0.2,0
		c0.1,0,0.1,0,0.2,0c0-0.1,0-0.2,0-0.3c0-0.1,0-0.2,0-0.3c0-0.2,0-0.3-0.1-0.5c0-0.1-0.1-0.2-0.2-0.3c-0.1-0.1-0.2-0.1-0.4-0.2
		s-0.3,0-0.6,0c-0.1,0-0.3,0-0.4,0c-0.2,0-0.3,0-0.5,0.1c-0.2,0-0.3,0.1-0.5,0.1c-0.1,0.1-0.3,0.1-0.4,0.2L125.7,220.8z
		 M128.8,223.4c-0.1,0-0.1,0-0.2,0c-0.1,0-0.1,0-0.2,0c-0.1,0-0.2,0-0.3,0c-0.1,0-0.3,0-0.4,0c-0.4,0-0.7,0.1-1,0.2
		c-0.2,0.1-0.4,0.4-0.4,0.7c0,0.3,0.1,0.5,0.3,0.6c0.2,0.1,0.4,0.2,0.7,0.2c0.2,0,0.4,0,0.6-0.1c0.2-0.1,0.3-0.1,0.4-0.2
		c0.1-0.1,0.2-0.2,0.3-0.3c0.1-0.1,0.1-0.2,0.2-0.3V223.4z M135,223.4h-2.6v2.3h-0.9v-5.2h0.9v2.1h2.6v-2.1h0.9v5.2H135V223.4z
		 M139.1,223.4h-0.6v2.3h-0.9v-5.2h0.9v2.4l0.5-0.2l1.8-2.2h1l-1.7,2h0l-0.5,0.4l0.6,0.4l1.8,2.3H141L139.1,223.4z M143,220.8
		c0.6-0.3,1.3-0.4,2.2-0.4c0.4,0,0.7,0.1,0.9,0.2c0.2,0.1,0.4,0.2,0.6,0.4c0.1,0.2,0.2,0.3,0.3,0.5c0,0.2,0.1,0.4,0.1,0.6
		c0,0.4,0,0.7,0,1.1c0,0.4,0,0.8,0,1.2c0,0.3,0,0.5,0,0.7c0,0.2,0.1,0.4,0.1,0.6h-0.7l-0.2-0.8h-0.1c-0.1,0.1-0.2,0.2-0.3,0.3
		c-0.1,0.1-0.2,0.2-0.4,0.3c-0.1,0.1-0.3,0.1-0.5,0.2c-0.2,0.1-0.4,0.1-0.6,0.1c-0.2,0-0.5,0-0.7-0.1c-0.2-0.1-0.4-0.2-0.5-0.3
		c-0.1-0.1-0.3-0.3-0.3-0.5c-0.1-0.2-0.1-0.4-0.1-0.6c0-0.3,0.1-0.6,0.2-0.8c0.1-0.2,0.3-0.4,0.5-0.5s0.4-0.2,0.7-0.3
		c0.3-0.1,0.5-0.1,0.8-0.1c0.2,0,0.4,0,0.5,0c0.1,0,0.3,0,0.4,0c0.1,0,0.2,0,0.2,0c0.1,0,0.1,0,0.2,0c0-0.1,0-0.2,0-0.3
		c0-0.1,0-0.2,0-0.3c0-0.2,0-0.3-0.1-0.5c0-0.1-0.1-0.2-0.2-0.3c-0.1-0.1-0.2-0.1-0.4-0.2s-0.3,0-0.6,0c-0.1,0-0.3,0-0.4,0
		s-0.3,0-0.5,0.1c-0.2,0-0.3,0.1-0.5,0.1c-0.1,0.1-0.3,0.1-0.4,0.2L143,220.8z M146.1,223.4c-0.1,0-0.1,0-0.2,0c-0.1,0-0.1,0-0.2,0
		c-0.1,0-0.2,0-0.3,0c-0.1,0-0.3,0-0.4,0c-0.4,0-0.7,0.1-1,0.2c-0.2,0.1-0.4,0.4-0.4,0.7c0,0.3,0.1,0.5,0.3,0.6
		c0.2,0.1,0.4,0.2,0.7,0.2c0.2,0,0.4,0,0.6-0.1c0.2-0.1,0.3-0.1,0.4-0.2c0.1-0.1,0.2-0.2,0.3-0.3c0.1-0.1,0.1-0.2,0.2-0.3V223.4z"/>
	<path class="st3" d="M23,163.6h-2.6v4.4h-0.9v-5.2h4.4v5.2H23V163.6z M25.6,163.2c0.6-0.3,1.3-0.4,2.2-0.4c0.4,0,0.7,0.1,0.9,0.2
		c0.2,0.1,0.4,0.2,0.6,0.4s0.2,0.3,0.3,0.5c0,0.2,0.1,0.4,0.1,0.6c0,0.4,0,0.7,0,1.1c0,0.4,0,0.8,0,1.2c0,0.3,0,0.5,0,0.7
		c0,0.2,0.1,0.4,0.1,0.6h-0.7l-0.2-0.8h-0.1c-0.1,0.1-0.2,0.2-0.3,0.3c-0.1,0.1-0.2,0.2-0.4,0.3c-0.1,0.1-0.3,0.1-0.5,0.2
		c-0.2,0.1-0.4,0.1-0.6,0.1c-0.2,0-0.5,0-0.7-0.1c-0.2-0.1-0.4-0.2-0.5-0.3c-0.1-0.1-0.3-0.3-0.3-0.5c-0.1-0.2-0.1-0.4-0.1-0.6
		c0-0.3,0.1-0.6,0.2-0.8c0.1-0.2,0.3-0.4,0.5-0.5s0.4-0.2,0.7-0.3c0.3-0.1,0.5-0.1,0.8-0.1c0.2,0,0.4,0,0.5,0c0.1,0,0.3,0,0.4,0
		c0.1,0,0.2,0,0.2,0c0.1,0,0.1,0,0.2,0c0-0.1,0-0.2,0-0.3c0-0.1,0-0.2,0-0.3c0-0.2,0-0.3-0.1-0.5c0-0.1-0.1-0.2-0.2-0.3
		c-0.1-0.1-0.2-0.1-0.4-0.2c-0.2,0-0.3,0-0.6,0c-0.1,0-0.3,0-0.4,0s-0.3,0-0.5,0.1c-0.2,0-0.3,0.1-0.5,0.1c-0.1,0.1-0.3,0.1-0.4,0.2
		L25.6,163.2z M28.7,165.7c-0.1,0-0.1,0-0.2,0c-0.1,0-0.1,0-0.2,0c-0.1,0-0.2,0-0.3,0c-0.1,0-0.3,0-0.4,0c-0.4,0-0.7,0.1-1,0.2
		c-0.2,0.1-0.4,0.4-0.4,0.7c0,0.3,0.1,0.5,0.3,0.6c0.2,0.1,0.4,0.2,0.7,0.2c0.2,0,0.4,0,0.6-0.1c0.2-0.1,0.3-0.1,0.4-0.2
		c0.1-0.1,0.2-0.2,0.3-0.3c0.1-0.1,0.1-0.2,0.2-0.3V165.7z M31.4,162.8H32l0.2,0.7h0.1c0.2-0.3,0.4-0.5,0.7-0.6
		c0.3-0.1,0.6-0.2,1-0.2c0.8,0,1.3,0.2,1.7,0.6c0.4,0.4,0.6,1.1,0.6,2c0,0.4-0.1,0.8-0.2,1.2c-0.1,0.3-0.3,0.6-0.5,0.9
		c-0.2,0.2-0.5,0.4-0.8,0.6c-0.3,0.1-0.7,0.2-1.1,0.2c-0.1,0-0.3,0-0.4,0c-0.1,0-0.2,0-0.3,0c-0.1,0-0.2,0-0.3-0.1
		c-0.1,0-0.2-0.1-0.3-0.1v2.1h-0.9V162.8z M33.7,163.4c-0.4,0-0.7,0.1-0.9,0.3c-0.2,0.2-0.4,0.5-0.5,0.9v2.4
		c0.2,0.1,0.3,0.2,0.5,0.2c0.2,0.1,0.4,0.1,0.7,0.1c0.5,0,1-0.2,1.3-0.5c0.3-0.3,0.5-0.9,0.5-1.6c0-0.6-0.1-1-0.3-1.3
		C34.7,163.6,34.3,163.4,33.7,163.4z M39.1,165.7h-0.6v2.3h-0.9v-5.2h0.9v2.4l0.5-0.2l1.8-2.2h1l-1.7,2h0l-0.5,0.4l0.6,0.4l1.8,2.3
		H41L39.1,165.7z M47.4,164.9h-0.5v3.1h-1v-6.9h1v3.2l0.5-0.1l2.5-3H51l-2.5,3l-0.5,0.3l0.5,0.4l2.7,3.2h-1.2L47.4,164.9z
		 M54.2,166.1l0.3,1h0.1l0.2-1l1.1-3.3h0.9l-1.7,4.7c-0.1,0.3-0.3,0.6-0.4,0.9c-0.1,0.3-0.3,0.6-0.4,0.8c-0.2,0.2-0.3,0.4-0.5,0.6
		c-0.2,0.1-0.4,0.2-0.6,0.2c-0.3,0-0.5,0-0.7-0.1l0.1-0.8c0.1,0,0.2,0,0.3,0c0.1,0,0.3,0,0.4,0c0.1,0,0.2-0.1,0.3-0.2
		c0.1-0.1,0.2-0.2,0.2-0.4c0.1-0.2,0.2-0.3,0.2-0.6l-2.3-5.2h1.1L54.2,166.1z M60.8,163.6h-1.7l0,0.3c0,0.7-0.1,1.2-0.2,1.8
		c-0.1,0.5-0.1,1-0.3,1.3c-0.1,0.4-0.3,0.6-0.5,0.8c-0.2,0.2-0.5,0.3-0.8,0.3c-0.1,0-0.3,0-0.4,0c-0.1,0-0.2,0-0.3-0.1l0.1-0.8
		c0.1,0,0.2,0,0.3,0c0.2,0,0.3-0.1,0.4-0.2c0.1-0.1,0.2-0.3,0.3-0.7s0.2-0.8,0.2-1.3c0.1-0.6,0.1-1.3,0.1-2.2h3.4v5.2h-0.9V163.6z
		 M64.3,167.2c0.3,0,0.6,0.1,0.8,0.1c0.5,0,0.8-0.1,1.1-0.2c0.2-0.2,0.3-0.4,0.3-0.7c0-0.3-0.1-0.5-0.3-0.7c-0.2-0.2-0.6-0.3-1-0.3
		c-0.1,0-0.3,0-0.4,0c-0.2,0-0.3,0-0.5,0.1V167.2z M64.3,164.8c0.2,0,0.4-0.1,0.6-0.1c0.2,0,0.3,0,0.5,0c0.4,0,0.7,0,1,0.1
		c0.3,0.1,0.5,0.2,0.7,0.3c0.2,0.1,0.3,0.3,0.4,0.5c0.1,0.2,0.1,0.4,0.1,0.6c0,0.6-0.2,1.1-0.6,1.4c-0.4,0.3-1.1,0.4-1.9,0.4
		c-0.3,0-0.5,0-0.8,0c-0.3,0-0.5,0-0.8,0v-5.2h0.9V164.8z M72,163.6h-1.8v4.4h-0.9v-4.4h-1.8v-0.8H72V163.6z M74.5,166.1l0.3,1h0.1
		l0.2-1l1.1-3.3h0.9l-1.7,4.7c-0.1,0.3-0.3,0.6-0.4,0.9c-0.1,0.3-0.3,0.6-0.4,0.8c-0.2,0.2-0.3,0.4-0.5,0.6
		c-0.2,0.1-0.4,0.2-0.6,0.2c-0.3,0-0.5,0-0.7-0.1l0.1-0.8c0.1,0,0.2,0,0.3,0c0.1,0,0.3,0,0.4,0c0.1,0,0.2-0.1,0.3-0.2
		c0.1-0.1,0.2-0.2,0.2-0.4c0.1-0.2,0.2-0.3,0.2-0.6l-2.3-5.2h1.1L74.5,166.1z M78.1,162.8h0.6l0.2,0.7H79c0.2-0.3,0.4-0.5,0.7-0.6
		c0.3-0.1,0.6-0.2,1-0.2c0.8,0,1.3,0.2,1.7,0.6c0.4,0.4,0.6,1.1,0.6,2c0,0.4-0.1,0.8-0.2,1.2c-0.1,0.3-0.3,0.6-0.5,0.9
		c-0.2,0.2-0.5,0.4-0.8,0.6c-0.3,0.1-0.7,0.2-1.1,0.2c-0.1,0-0.3,0-0.4,0c-0.1,0-0.2,0-0.3,0c-0.1,0-0.2,0-0.3-0.1
		c-0.1,0-0.2-0.1-0.3-0.1v2.1h-0.9V162.8z M80.4,163.4c-0.4,0-0.7,0.1-0.9,0.3c-0.2,0.2-0.4,0.5-0.5,0.9v2.4
		c0.2,0.1,0.3,0.2,0.5,0.2c0.2,0.1,0.4,0.1,0.7,0.1c0.5,0,1-0.2,1.3-0.5c0.3-0.3,0.5-0.9,0.5-1.6c0-0.6-0.1-1-0.3-1.3
		C81.4,163.6,81,163.4,80.4,163.4z M87.9,165l0.1-1H88l-0.5,1l-2.4,3h-0.7v-5.2h0.9v3.1l-0.1,0.9h0.1l0.5-0.9l2.4-3.1h0.7v5.2h-0.9
		V165z"/>
	<path class="st2" d="M242.8,221.6c0,4.7,1.9,8.9,5,11.9c3.1,3.1,7.3,5,11.9,5c9.3,0,16.9-7.6,16.9-16.9c0-4.7-1.9-8.9-5-11.9
		c-3.1-3.1-7.3-5-11.9-5C250.4,204.7,242.8,212.3,242.8,221.6z"/>
	<path class="st4" d="M259.7,208.9c-7,0-12.7,5.7-12.7,12.7c0,3.5,1.4,6.7,3.7,9l18-18C266.4,210.3,263.2,208.9,259.7,208.9z"/>
	<path class="st0" d="M259.7,234.3c7,0,12.7-5.7,12.7-12.7c0-3.5-1.4-6.7-3.7-9l-18,18C253,232.9,256.2,234.3,259.7,234.3z"/>
	<path class="st2" d="M314.1,150.7c0,4.7,1.9,8.9,5,11.9c3.1,3.1,7.3,5,11.9,5c9.3,0,16.9-7.6,16.9-16.9c0-4.7-1.9-8.9-5-11.9
		c-3.1-3.1-7.3-5-11.9-5C321.7,133.8,314.1,141.4,314.1,150.7z"/>
	<path class="st4" d="M331,137.9c-7,0-12.7,5.7-12.7,12.7c0,3.5,1.4,6.7,3.7,9l18-18C337.7,139.4,334.5,137.9,331,137.9z"/>
	<path class="st0" d="M331,163.4c7,0,12.7-5.7,12.7-12.7c0-3.5-1.4-6.7-3.7-9l-18,18C324.3,162,327.5,163.4,331,163.4z"/>
	<path class="st0" d="M259.7,316.5c4.1,0,7.3-3.3,7.3-7.3s-3.3-7.3-7.3-7.3c-4.1,0-7.3,3.3-7.3,7.3S255.6,316.5,259.7,316.5z"/>
	<path class="st2" d="M259.7,318c-4.9,0-8.8-4-8.8-8.8s4-8.8,8.8-8.8c4.9,0,8.8,4,8.8,8.8S264.5,318,259.7,318z M259.7,303.3
		c-3.2,0-5.8,2.6-5.8,5.8c0,3.2,2.6,5.8,5.8,5.8c3.2,0,5.8-2.6,5.8-5.8C265.5,305.9,262.9,303.3,259.7,303.3z"/>
	<path class="st3" d="M278.6,312.9c-0.2,0.2-0.5,0.3-0.8,0.3c-0.3,0.1-0.7,0.1-1.1,0.1c-0.4,0-0.9-0.1-1.3-0.2
		c-0.4-0.1-0.7-0.4-1-0.7c-0.3-0.3-0.5-0.7-0.7-1.1c-0.2-0.5-0.3-1-0.3-1.6c0-0.6,0.1-1.2,0.3-1.7c0.2-0.5,0.5-0.8,0.8-1.1
		c0.3-0.3,0.7-0.5,1.1-0.6c0.4-0.1,0.8-0.2,1.2-0.2c0.4,0,0.8,0,1.1,0.1c0.3,0,0.5,0.1,0.7,0.2l-0.2,0.9c-0.3-0.2-0.8-0.2-1.5-0.2
		c-0.3,0-0.6,0-0.9,0.1c-0.3,0.1-0.5,0.2-0.8,0.5c-0.2,0.2-0.4,0.5-0.5,0.8c-0.1,0.3-0.2,0.8-0.2,1.3c0,0.4,0.1,0.8,0.2,1.2
		c0.1,0.3,0.3,0.6,0.5,0.9c0.2,0.2,0.5,0.4,0.8,0.5c0.3,0.1,0.6,0.2,1,0.2c0.3,0,0.6,0,0.8-0.1c0.2-0.1,0.4-0.1,0.6-0.2L278.6,312.9
		z M282.9,308.8h-1.8v4.4h-0.9v-4.4h-1.8V308h4.5V308.8z M283.8,308h0.6l0.2,0.7h0.1c0.2-0.3,0.4-0.5,0.7-0.6c0.3-0.1,0.6-0.2,1-0.2
		c0.8,0,1.3,0.2,1.7,0.6c0.4,0.4,0.6,1.1,0.6,2c0,0.4-0.1,0.8-0.2,1.2c-0.1,0.3-0.3,0.6-0.5,0.9c-0.2,0.2-0.5,0.4-0.8,0.6
		c-0.3,0.1-0.7,0.2-1.1,0.2c-0.1,0-0.3,0-0.4,0c-0.1,0-0.2,0-0.3,0c-0.1,0-0.2,0-0.3-0.1c-0.1,0-0.2-0.1-0.3-0.1v2.1h-0.9V308z
		 M286.1,308.6c-0.4,0-0.7,0.1-0.9,0.3s-0.4,0.5-0.5,0.9v2.4c0.2,0.1,0.3,0.2,0.5,0.2c0.2,0.1,0.4,0.1,0.7,0.1c0.5,0,1-0.2,1.3-0.5
		c0.3-0.3,0.5-0.9,0.5-1.6c0-0.6-0.1-1-0.3-1.3C287,308.8,286.6,308.6,286.1,308.6z M293.6,310.2l0.1-1h-0.1l-0.5,1l-2.4,3H290V308
		h0.9v3.1l-0.1,0.9h0.1l0.5-0.9l2.4-3.1h0.7v5.2h-0.9V310.2z M299.8,310.2l0.1-1h-0.1l-0.5,1l-2.4,3h-0.7V308h0.9v3.1l-0.1,0.9h0.1
		l0.5-0.9l2.4-3.1h0.7v5.2h-0.9V310.2z M297.6,306.2c0,0.1,0.1,0.3,0.1,0.3c0.1,0.1,0.1,0.2,0.2,0.2c0.1,0,0.2,0.1,0.3,0.1
		c0.1,0,0.2,0,0.3,0c0.1,0,0.2,0,0.3,0c0.1,0,0.2,0,0.3-0.1c0.1,0,0.1-0.1,0.2-0.2s0.1-0.2,0.1-0.3l0.7,0.2
		c-0.1,0.4-0.3,0.7-0.6,0.8c-0.3,0.2-0.7,0.2-1.1,0.2c-0.2,0-0.4,0-0.6,0c-0.2,0-0.4-0.1-0.5-0.2c-0.2-0.1-0.3-0.2-0.4-0.3
		c-0.1-0.1-0.2-0.3-0.2-0.5L297.6,306.2z M306.4,312.9c-0.2,0.2-0.5,0.3-0.8,0.4c-0.3,0.1-0.6,0.1-1,0.1c-0.4,0-0.8-0.1-1.1-0.2
		c-0.3-0.1-0.6-0.3-0.7-0.6c-0.2-0.2-0.3-0.5-0.4-0.9c-0.1-0.3-0.1-0.7-0.1-1.1c0-0.9,0.2-1.6,0.6-2c0.4-0.5,1-0.7,1.8-0.7
		c0.3,0,0.7,0,0.9,0.1c0.3,0.1,0.5,0.1,0.7,0.2l-0.2,0.7c-0.2-0.1-0.4-0.2-0.6-0.2c-0.2-0.1-0.4-0.1-0.7-0.1c-1.1,0-1.6,0.7-1.6,2
		c0,0.3,0,0.5,0.1,0.7c0.1,0.2,0.2,0.4,0.3,0.6c0.1,0.2,0.3,0.3,0.5,0.4c0.2,0.1,0.5,0.2,0.8,0.2c0.3,0,0.5,0,0.7-0.1
		c0.2-0.1,0.4-0.2,0.5-0.3L306.4,312.9z M308.6,312.4c0.3,0,0.6,0.1,0.8,0.1c0.5,0,0.8-0.1,1.1-0.2c0.2-0.2,0.3-0.4,0.3-0.7
		c0-0.3-0.1-0.5-0.3-0.7c-0.2-0.2-0.6-0.3-1-0.3c-0.1,0-0.3,0-0.4,0c-0.2,0-0.3,0-0.5,0.1V312.4z M308.6,310c0.2,0,0.4-0.1,0.6-0.1
		c0.2,0,0.3,0,0.5,0c0.4,0,0.7,0,1,0.1c0.3,0.1,0.5,0.2,0.7,0.3c0.2,0.1,0.3,0.3,0.4,0.5c0.1,0.2,0.1,0.4,0.1,0.6
		c0,0.6-0.2,1.1-0.6,1.4c-0.4,0.3-1.1,0.4-1.9,0.4c-0.3,0-0.5,0-0.8,0c-0.3,0-0.5,0-0.8,0V308h0.9V310z M314.4,310.9h-0.6v2.3H313
		V308h0.9v2.4l0.5-0.2l1.8-2.2h1l-1.7,2h0l-0.5,0.4l0.6,0.4l1.8,2.3h-1.1L314.4,310.9z M322,310.2l0.1-1H322l-0.5,1l-2.4,3h-0.7V308
		h0.9v3.1l-0.1,0.9h0.1l0.5-0.9l2.4-3.1h0.7v5.2H322V310.2z M328.2,310.2l0.1-1h-0.1l-0.5,1l-2.4,3h-0.7V308h0.9v3.1l-0.1,0.9h0.1
		l0.5-0.9l2.4-3.1h0.7v5.2h-0.9V310.2z M326,306.2c0,0.1,0.1,0.3,0.1,0.3c0.1,0.1,0.1,0.2,0.2,0.2c0.1,0,0.2,0.1,0.3,0.1
		c0.1,0,0.2,0,0.3,0c0.1,0,0.2,0,0.3,0c0.1,0,0.2,0,0.3-0.1c0.1,0,0.1-0.1,0.2-0.2s0.1-0.2,0.1-0.3l0.7,0.2
		c-0.1,0.4-0.3,0.7-0.6,0.8c-0.3,0.2-0.7,0.2-1.1,0.2c-0.2,0-0.4,0-0.6,0s-0.4-0.1-0.5-0.2c-0.2-0.1-0.3-0.2-0.4-0.3
		c-0.1-0.1-0.2-0.3-0.2-0.5L326,306.2z M333.7,308h0.6l0.2,0.7h0.1c0.2-0.3,0.4-0.5,0.7-0.6c0.3-0.1,0.6-0.2,1-0.2
		c0.8,0,1.3,0.2,1.7,0.6c0.4,0.4,0.6,1.1,0.6,2c0,0.4-0.1,0.8-0.2,1.2c-0.1,0.3-0.3,0.6-0.5,0.9c-0.2,0.2-0.5,0.4-0.8,0.6
		c-0.3,0.1-0.7,0.2-1.1,0.2c-0.1,0-0.3,0-0.4,0c-0.1,0-0.2,0-0.3,0c-0.1,0-0.2,0-0.3-0.1c-0.1,0-0.2-0.1-0.3-0.1v2.1h-0.9V308z
		 M336,308.6c-0.4,0-0.7,0.1-0.9,0.3s-0.4,0.5-0.5,0.9v2.4c0.2,0.1,0.3,0.2,0.5,0.2c0.2,0.1,0.4,0.1,0.7,0.1c0.5,0,1-0.2,1.3-0.5
		c0.3-0.3,0.5-0.9,0.5-1.6c0-0.6-0.1-1-0.3-1.3C337,308.8,336.6,308.6,336,308.6z M343.5,310.2l0.1-1h-0.1l-0.5,1l-2.4,3H340V308
		h0.9v3.1l-0.1,0.9h0.1l0.5-0.9l2.4-3.1h0.7v5.2h-0.9V310.2z M349.7,310.9h-2.6v2.3h-0.9V308h0.9v2.1h2.6V308h0.9v5.2h-0.9V310.9z
		 M352.1,310.6c0-0.4,0.1-0.8,0.2-1.1c0.1-0.3,0.3-0.6,0.5-0.9c0.2-0.2,0.5-0.4,0.8-0.5c0.3-0.1,0.7-0.2,1.1-0.2
		c0.4,0,0.8,0.1,1.1,0.2c0.3,0.1,0.6,0.3,0.8,0.6c0.2,0.2,0.4,0.5,0.5,0.9c0.1,0.3,0.2,0.7,0.2,1.1c0,0.4-0.1,0.8-0.2,1.1
		c-0.1,0.3-0.3,0.6-0.5,0.9c-0.2,0.2-0.5,0.4-0.8,0.5c-0.3,0.1-0.7,0.2-1.1,0.2c-0.4,0-0.8-0.1-1.1-0.2c-0.3-0.1-0.6-0.3-0.8-0.6
		c-0.2-0.2-0.4-0.5-0.5-0.9C352.1,311.4,352.1,311,352.1,310.6z M353,310.6c0,0.2,0,0.5,0.1,0.7c0.1,0.2,0.2,0.4,0.3,0.6
		c0.1,0.2,0.3,0.3,0.5,0.4c0.2,0.1,0.4,0.2,0.7,0.2c1,0,1.5-0.7,1.5-2c0-0.3,0-0.5-0.1-0.7c-0.1-0.2-0.1-0.4-0.3-0.6
		c-0.1-0.2-0.3-0.3-0.5-0.4c-0.2-0.1-0.4-0.2-0.7-0.2c-0.5,0-0.9,0.2-1.2,0.5C353.2,309.5,353,310,353,310.6z M360.1,310.9h-0.6v2.3
		h-0.9V308h0.9v2.4l0.5-0.2l1.8-2.2h1l-1.7,2h0l-0.5,0.4l0.6,0.4l1.8,2.3h-1.1L360.1,310.9z"/>
	<path class="st3" d="M159.1,238.7l0.4,0c0.2,0,0.4,0,0.7,0c0.3,0,0.5,0,0.9,0c0.8,0,1.3,0.1,1.6,0.3c0.3,0.2,0.5,0.5,0.5,0.9
		c0,0.2-0.1,0.5-0.2,0.7c-0.2,0.2-0.4,0.4-0.8,0.5v0.1c0.4,0.1,0.7,0.2,0.9,0.4c0.2,0.2,0.3,0.5,0.3,0.8c0,0.5-0.2,0.9-0.6,1.2
		c-0.4,0.2-1.1,0.4-1.9,0.4c-0.3,0-0.6,0-0.8,0c-0.3,0-0.5,0-0.8,0c0,0,0,0-0.1,0c0,0,0,0-0.1,0V238.7z M160,243.1
		c0.1,0,0.3,0,0.4,0c0.1,0,0.3,0,0.5,0c0.5,0,0.9-0.1,1.1-0.2c0.2-0.1,0.3-0.4,0.3-0.7c0-0.1,0-0.2-0.1-0.3c0-0.1-0.1-0.2-0.2-0.3
		s-0.3-0.1-0.4-0.2c-0.2,0-0.4-0.1-0.7-0.1h-1V243.1z M161.1,240.9c0.1,0,0.3,0,0.4-0.1s0.3-0.1,0.4-0.2s0.2-0.2,0.2-0.2
		c0.1-0.1,0.1-0.2,0.1-0.3c0-0.3-0.1-0.5-0.3-0.6c-0.2-0.1-0.5-0.2-1-0.2c-0.2,0-0.3,0-0.5,0c-0.2,0-0.3,0-0.5,0v1.5H161.1z
		 M166.4,241.9l0.3,1h0.1l0.2-1l1.1-3.3h0.9l-1.7,4.7c-0.1,0.3-0.3,0.6-0.4,0.9c-0.1,0.3-0.3,0.6-0.4,0.8c-0.2,0.2-0.3,0.4-0.5,0.6
		c-0.2,0.1-0.4,0.2-0.6,0.2c-0.3,0-0.5,0-0.7-0.1l0.1-0.8c0.1,0,0.2,0,0.3,0c0.1,0,0.3,0,0.4,0c0.1,0,0.2-0.1,0.3-0.2
		c0.1-0.1,0.2-0.2,0.2-0.4c0.1-0.2,0.2-0.3,0.2-0.6l-2.3-5.2h1.1L166.4,241.9z M173.1,239.4h-1.7l0,0.3c0,0.7-0.1,1.2-0.2,1.8
		c-0.1,0.5-0.1,1-0.3,1.3c-0.1,0.4-0.3,0.6-0.5,0.8c-0.2,0.2-0.5,0.3-0.8,0.3c-0.1,0-0.3,0-0.4,0c-0.1,0-0.2,0-0.3-0.1l0.1-0.8
		c0.1,0,0.2,0,0.3,0c0.2,0,0.3-0.1,0.4-0.2c0.1-0.1,0.2-0.3,0.3-0.7c0.1-0.3,0.2-0.8,0.2-1.3c0.1-0.6,0.1-1.3,0.1-2.2h3.4v5.2h-0.9
		V239.4z M175.4,243.3c0-0.2,0.1-0.3,0.2-0.5c0.1-0.1,0.3-0.2,0.5-0.2s0.4,0.1,0.5,0.2c0.1,0.1,0.2,0.3,0.2,0.5
		c0,0.2-0.1,0.3-0.2,0.4c-0.1,0.1-0.3,0.2-0.5,0.2s-0.4-0.1-0.5-0.2C175.4,243.7,175.4,243.5,175.4,243.3z M183,243.6
		c-0.2,0.2-0.5,0.3-0.8,0.3c-0.3,0.1-0.7,0.1-1.1,0.1c-0.4,0-0.9-0.1-1.3-0.2c-0.4-0.1-0.7-0.4-1-0.7c-0.3-0.3-0.5-0.7-0.7-1.1
		c-0.2-0.5-0.3-1-0.3-1.6c0-0.6,0.1-1.2,0.3-1.7c0.2-0.5,0.5-0.8,0.8-1.1c0.3-0.3,0.7-0.5,1.1-0.6c0.4-0.1,0.8-0.2,1.2-0.2
		c0.4,0,0.8,0,1.1,0.1c0.3,0,0.5,0.1,0.7,0.2l-0.2,0.9c-0.3-0.2-0.8-0.2-1.5-0.2c-0.3,0-0.6,0-0.9,0.1c-0.3,0.1-0.5,0.2-0.8,0.5
		c-0.2,0.2-0.4,0.5-0.5,0.8c-0.1,0.3-0.2,0.8-0.2,1.3c0,0.4,0.1,0.8,0.2,1.2c0.1,0.3,0.3,0.6,0.5,0.9c0.2,0.2,0.5,0.4,0.8,0.5
		c0.3,0.1,0.6,0.2,1,0.2c0.3,0,0.6,0,0.8-0.1c0.2-0.1,0.4-0.1,0.6-0.2L183,243.6z M184.2,239c0.6-0.3,1.3-0.4,2.2-0.4
		c0.4,0,0.7,0.1,0.9,0.2c0.2,0.1,0.4,0.2,0.6,0.4c0.1,0.2,0.2,0.3,0.3,0.5c0,0.2,0.1,0.4,0.1,0.6c0,0.4,0,0.7,0,1.1
		c0,0.4,0,0.8,0,1.2c0,0.3,0,0.5,0,0.7c0,0.2,0.1,0.4,0.1,0.6h-0.7l-0.2-0.8h-0.1c-0.1,0.1-0.2,0.2-0.3,0.3
		c-0.1,0.1-0.2,0.2-0.4,0.3c-0.1,0.1-0.3,0.1-0.5,0.2c-0.2,0.1-0.4,0.1-0.6,0.1c-0.2,0-0.5,0-0.7-0.1c-0.2-0.1-0.4-0.2-0.5-0.3
		c-0.1-0.1-0.3-0.3-0.3-0.5c-0.1-0.2-0.1-0.4-0.1-0.6c0-0.3,0.1-0.6,0.2-0.8c0.1-0.2,0.3-0.4,0.5-0.5s0.4-0.2,0.7-0.3
		c0.3-0.1,0.5-0.1,0.8-0.1c0.2,0,0.4,0,0.5,0c0.1,0,0.3,0,0.4,0c0.1,0,0.2,0,0.2,0c0.1,0,0.1,0,0.2,0c0-0.1,0-0.2,0-0.3s0-0.2,0-0.3
		c0-0.2,0-0.3-0.1-0.5c0-0.1-0.1-0.2-0.2-0.3c-0.1-0.1-0.2-0.1-0.4-0.2c-0.2,0-0.3,0-0.6,0c-0.1,0-0.3,0-0.4,0s-0.3,0-0.5,0.1
		c-0.2,0-0.3,0.1-0.5,0.1c-0.1,0.1-0.3,0.1-0.4,0.2L184.2,239z M187.3,241.5c-0.1,0-0.1,0-0.2,0s-0.1,0-0.2,0c-0.1,0-0.2,0-0.3,0
		c-0.1,0-0.3,0-0.4,0c-0.4,0-0.7,0.1-1,0.2c-0.2,0.1-0.4,0.4-0.4,0.7c0,0.3,0.1,0.5,0.3,0.6c0.2,0.1,0.4,0.2,0.7,0.2
		c0.2,0,0.4,0,0.6-0.1c0.2-0.1,0.3-0.1,0.4-0.2c0.1-0.1,0.2-0.2,0.3-0.3c0.1-0.1,0.1-0.2,0.2-0.3V241.5z M191.5,241.5h-0.6v2.3H190
		v-5.2h0.9v2.4l0.5-0.2l1.8-2.2h1l-1.7,2h0l-0.5,0.4l0.6,0.4l1.8,2.3h-1.1L191.5,241.5z M199.2,243.5c-0.2,0.2-0.5,0.3-0.8,0.4
		c-0.3,0.1-0.6,0.1-1,0.1c-0.4,0-0.8-0.1-1.1-0.2c-0.3-0.1-0.6-0.3-0.7-0.6c-0.2-0.2-0.3-0.5-0.4-0.9c-0.1-0.3-0.1-0.7-0.1-1.1
		c0-0.9,0.2-1.6,0.6-2c0.4-0.5,1-0.7,1.8-0.7c0.3,0,0.7,0,0.9,0.1c0.3,0.1,0.5,0.1,0.7,0.2l-0.2,0.7c-0.2-0.1-0.4-0.2-0.6-0.2
		c-0.2-0.1-0.4-0.1-0.7-0.1c-1.1,0-1.6,0.7-1.6,2c0,0.3,0,0.5,0.1,0.7c0.1,0.2,0.2,0.4,0.3,0.6c0.1,0.2,0.3,0.3,0.5,0.4
		c0.2,0.1,0.5,0.2,0.8,0.2c0.3,0,0.5,0,0.7-0.1c0.2-0.1,0.4-0.2,0.5-0.3L199.2,243.5z M200.5,239c0.6-0.3,1.3-0.4,2.2-0.4
		c0.4,0,0.7,0.1,0.9,0.2c0.2,0.1,0.4,0.2,0.6,0.4c0.1,0.2,0.2,0.3,0.3,0.5c0,0.2,0.1,0.4,0.1,0.6c0,0.4,0,0.7,0,1.1
		c0,0.4,0,0.8,0,1.2c0,0.3,0,0.5,0,0.7c0,0.2,0.1,0.4,0.1,0.6h-0.7l-0.2-0.8h-0.1c-0.1,0.1-0.2,0.2-0.3,0.3
		c-0.1,0.1-0.2,0.2-0.4,0.3c-0.1,0.1-0.3,0.1-0.5,0.2c-0.2,0.1-0.4,0.1-0.6,0.1s-0.5,0-0.7-0.1c-0.2-0.1-0.4-0.2-0.5-0.3
		c-0.1-0.1-0.3-0.3-0.3-0.5c-0.1-0.2-0.1-0.4-0.1-0.6c0-0.3,0.1-0.6,0.2-0.8c0.1-0.2,0.3-0.4,0.5-0.5s0.4-0.2,0.7-0.3
		c0.3-0.1,0.5-0.1,0.8-0.1c0.2,0,0.4,0,0.5,0c0.1,0,0.3,0,0.4,0c0.1,0,0.2,0,0.2,0c0.1,0,0.1,0,0.2,0c0-0.1,0-0.2,0-0.3
		c0-0.1,0-0.2,0-0.3c0-0.2,0-0.3-0.1-0.5c0-0.1-0.1-0.2-0.2-0.3c-0.1-0.1-0.2-0.1-0.4-0.2c-0.2,0-0.3,0-0.6,0c-0.1,0-0.3,0-0.4,0
		c-0.2,0-0.3,0-0.5,0.1c-0.2,0-0.3,0.1-0.5,0.1c-0.1,0.1-0.3,0.1-0.4,0.2L200.5,239z M203.6,241.5c-0.1,0-0.1,0-0.2,0
		c-0.1,0-0.1,0-0.2,0c-0.1,0-0.2,0-0.3,0c-0.1,0-0.3,0-0.4,0c-0.4,0-0.7,0.1-1,0.2c-0.2,0.1-0.4,0.4-0.4,0.7c0,0.3,0.1,0.5,0.3,0.6
		c0.2,0.1,0.4,0.2,0.7,0.2c0.2,0,0.4,0,0.6-0.1c0.2-0.1,0.3-0.1,0.4-0.2c0.1-0.1,0.2-0.2,0.3-0.3c0.1-0.1,0.1-0.2,0.2-0.3V241.5z
		 M209.6,239.4h-2.4v4.4h-0.9v-5.2h3.3V239.4z M210.4,239c0.6-0.3,1.3-0.4,2.2-0.4c0.4,0,0.7,0.1,0.9,0.2c0.2,0.1,0.4,0.2,0.6,0.4
		c0.1,0.2,0.2,0.3,0.3,0.5c0,0.2,0.1,0.4,0.1,0.6c0,0.4,0,0.7,0,1.1c0,0.4,0,0.8,0,1.2c0,0.3,0,0.5,0,0.7c0,0.2,0.1,0.4,0.1,0.6
		h-0.7l-0.2-0.8h-0.1c-0.1,0.1-0.2,0.2-0.3,0.3c-0.1,0.1-0.2,0.2-0.4,0.3c-0.1,0.1-0.3,0.1-0.5,0.2c-0.2,0.1-0.4,0.1-0.6,0.1
		c-0.2,0-0.5,0-0.7-0.1c-0.2-0.1-0.4-0.2-0.5-0.3c-0.1-0.1-0.3-0.3-0.3-0.5c-0.1-0.2-0.1-0.4-0.1-0.6c0-0.3,0.1-0.6,0.2-0.8
		c0.1-0.2,0.3-0.4,0.5-0.5s0.4-0.2,0.7-0.3c0.3-0.1,0.5-0.1,0.8-0.1c0.2,0,0.4,0,0.5,0c0.1,0,0.3,0,0.4,0c0.1,0,0.2,0,0.2,0
		c0.1,0,0.1,0,0.2,0c0-0.1,0-0.2,0-0.3c0-0.1,0-0.2,0-0.3c0-0.2,0-0.3-0.1-0.5c0-0.1-0.1-0.2-0.2-0.3c-0.1-0.1-0.2-0.1-0.4-0.2
		c-0.2,0-0.3,0-0.6,0c-0.1,0-0.3,0-0.4,0c-0.2,0-0.3,0-0.5,0.1c-0.2,0-0.3,0.1-0.5,0.1c-0.1,0.1-0.3,0.1-0.4,0.2L210.4,239z
		 M213.5,241.5c-0.1,0-0.1,0-0.2,0c-0.1,0-0.1,0-0.2,0c-0.1,0-0.2,0-0.3,0c-0.1,0-0.3,0-0.4,0c-0.4,0-0.7,0.1-1,0.2
		c-0.2,0.1-0.4,0.4-0.4,0.7c0,0.3,0.1,0.5,0.3,0.6c0.2,0.1,0.4,0.2,0.7,0.2c0.2,0,0.4,0,0.6-0.1c0.2-0.1,0.3-0.1,0.4-0.2
		c0.1-0.1,0.2-0.2,0.3-0.3c0.1-0.1,0.1-0.2,0.2-0.3V241.5z M219.8,241.6h-2.6v2.3h-0.9v-5.2h0.9v2.1h2.6v-2.1h0.9v5.2h-0.9V241.6z
		 M226.3,243.5c-0.2,0.2-0.5,0.3-0.8,0.4c-0.3,0.1-0.6,0.1-1,0.1c-0.4,0-0.8-0.1-1.1-0.2c-0.3-0.1-0.6-0.3-0.7-0.6
		c-0.2-0.2-0.3-0.5-0.4-0.9c-0.1-0.3-0.1-0.7-0.1-1.1c0-0.9,0.2-1.6,0.6-2c0.4-0.5,1-0.7,1.8-0.7c0.3,0,0.7,0,0.9,0.1
		c0.3,0.1,0.5,0.1,0.7,0.2l-0.2,0.7c-0.2-0.1-0.4-0.2-0.6-0.2c-0.2-0.1-0.4-0.1-0.7-0.1c-1.1,0-1.6,0.7-1.6,2c0,0.3,0,0.5,0.1,0.7
		c0.1,0.2,0.2,0.4,0.3,0.6c0.1,0.2,0.3,0.3,0.5,0.4c0.2,0.1,0.5,0.2,0.8,0.2c0.3,0,0.5,0,0.7-0.1c0.2-0.1,0.4-0.2,0.5-0.3
		L226.3,243.5z M228.6,243.1c0.3,0,0.6,0.1,0.8,0.1c0.5,0,0.8-0.1,1.1-0.2c0.2-0.2,0.3-0.4,0.3-0.7c0-0.3-0.1-0.5-0.3-0.7
		c-0.2-0.2-0.6-0.3-1-0.3c-0.1,0-0.3,0-0.4,0c-0.2,0-0.3,0-0.5,0.1V243.1z M228.6,240.6c0.2,0,0.4-0.1,0.6-0.1c0.2,0,0.3,0,0.5,0
		c0.4,0,0.7,0,1,0.1c0.3,0.1,0.5,0.2,0.7,0.3c0.2,0.1,0.3,0.3,0.4,0.5c0.1,0.2,0.1,0.4,0.1,0.6c0,0.6-0.2,1.1-0.6,1.4
		c-0.4,0.3-1.1,0.4-1.9,0.4c-0.3,0-0.5,0-0.8,0s-0.5,0-0.8,0v-5.2h0.9V240.6z M234.4,241.5h-0.6v2.3h-0.9v-5.2h0.9v2.4l0.5-0.2
		l1.8-2.2h1l-1.7,2h0l-0.5,0.4l0.6,0.4l1.8,2.3h-1.1L234.4,241.5z M238,241.3c0-0.4,0.1-0.8,0.2-1.1c0.1-0.3,0.3-0.6,0.5-0.9
		c0.2-0.2,0.5-0.4,0.8-0.5c0.3-0.1,0.7-0.2,1.1-0.2c0.4,0,0.8,0.1,1.1,0.2s0.6,0.3,0.8,0.6c0.2,0.2,0.4,0.5,0.5,0.9
		c0.1,0.3,0.2,0.7,0.2,1.1c0,0.4-0.1,0.8-0.2,1.1c-0.1,0.3-0.3,0.6-0.5,0.9c-0.2,0.2-0.5,0.4-0.8,0.5c-0.3,0.1-0.7,0.2-1.1,0.2
		c-0.4,0-0.8-0.1-1.1-0.2s-0.6-0.3-0.8-0.6c-0.2-0.2-0.4-0.5-0.5-0.9C238,242,238,241.6,238,241.3z M238.9,241.3
		c0,0.2,0,0.5,0.1,0.7c0.1,0.2,0.2,0.4,0.3,0.6c0.1,0.2,0.3,0.3,0.5,0.4c0.2,0.1,0.4,0.2,0.7,0.2c1,0,1.5-0.7,1.5-2
		c0-0.3,0-0.5-0.1-0.7c-0.1-0.2-0.1-0.4-0.3-0.6c-0.1-0.2-0.3-0.3-0.5-0.4c-0.2-0.1-0.4-0.2-0.7-0.2c-0.5,0-0.9,0.2-1.2,0.5
		C239.1,240.1,238.9,240.6,238.9,241.3z M247.8,239.4h-2.4v4.4h-0.9v-5.2h3.3V239.4z M248.3,241.3c0-0.4,0.1-0.8,0.2-1.1
		c0.1-0.3,0.3-0.6,0.5-0.9c0.2-0.2,0.5-0.4,0.8-0.5c0.3-0.1,0.7-0.2,1.1-0.2c0.4,0,0.8,0.1,1.1,0.2s0.6,0.3,0.8,0.6
		c0.2,0.2,0.4,0.5,0.5,0.9c0.1,0.3,0.2,0.7,0.2,1.1c0,0.4-0.1,0.8-0.2,1.1c-0.1,0.3-0.3,0.6-0.5,0.9c-0.2,0.2-0.5,0.4-0.8,0.5
		c-0.3,0.1-0.7,0.2-1.1,0.2c-0.4,0-0.8-0.1-1.1-0.2s-0.6-0.3-0.8-0.6c-0.2-0.2-0.4-0.5-0.5-0.9C248.3,242,248.3,241.6,248.3,241.3z
		 M249.2,241.3c0,0.2,0,0.5,0.1,0.7c0.1,0.2,0.2,0.4,0.3,0.6c0.1,0.2,0.3,0.3,0.5,0.4c0.2,0.1,0.4,0.2,0.7,0.2c1,0,1.5-0.7,1.5-2
		c0-0.3,0-0.5-0.1-0.7c-0.1-0.2-0.1-0.4-0.3-0.6c-0.1-0.2-0.3-0.3-0.5-0.4c-0.2-0.1-0.4-0.2-0.7-0.2c-0.5,0-0.9,0.2-1.2,0.5
		C249.4,240.1,249.2,240.6,249.2,241.3z"/>
	<path class="st3" d="M354.3,148.9h-2.6v4.4h-0.9v-5.2h4.4v5.2h-0.9V148.9z M360.1,148.9h-1.7l0,0.3c0,0.7-0.1,1.2-0.2,1.8
		c-0.1,0.5-0.1,1-0.3,1.3c-0.1,0.4-0.3,0.6-0.5,0.8c-0.2,0.2-0.5,0.3-0.8,0.3c-0.1,0-0.3,0-0.4,0c-0.1,0-0.2,0-0.3-0.1l0.1-0.8
		c0.1,0,0.2,0,0.3,0c0.2,0,0.3-0.1,0.4-0.2c0.1-0.1,0.2-0.3,0.3-0.7c0.1-0.3,0.2-0.8,0.2-1.3c0.1-0.6,0.1-1.3,0.1-2.2h3.4v5.2h-0.9
		V148.9z M362.3,152.9c0-0.2,0.1-0.3,0.2-0.5c0.1-0.1,0.3-0.2,0.5-0.2s0.4,0.1,0.5,0.2c0.1,0.1,0.2,0.3,0.2,0.5
		c0,0.2-0.1,0.3-0.2,0.4c-0.1,0.1-0.3,0.2-0.5,0.2s-0.4-0.1-0.5-0.2C362.4,153.2,362.3,153,362.3,152.9z M372.5,153.1
		c-0.2,0.2-0.5,0.3-0.8,0.3c-0.3,0.1-0.7,0.1-1.1,0.1c-0.4,0-0.9-0.1-1.3-0.2c-0.4-0.1-0.7-0.4-1-0.7c-0.3-0.3-0.5-0.7-0.7-1.1
		c-0.2-0.5-0.3-1-0.3-1.6c0-0.6,0.1-1.2,0.3-1.7c0.2-0.5,0.5-0.8,0.8-1.1c0.3-0.3,0.7-0.5,1.1-0.6c0.4-0.1,0.8-0.2,1.2-0.2
		c0.4,0,0.8,0,1.1,0.1s0.5,0.1,0.7,0.2l-0.2,0.9c-0.3-0.2-0.8-0.2-1.5-0.2c-0.3,0-0.6,0-0.9,0.1c-0.3,0.1-0.5,0.2-0.8,0.5
		c-0.2,0.2-0.4,0.5-0.5,0.8c-0.1,0.3-0.2,0.8-0.2,1.3c0,0.4,0.1,0.8,0.2,1.2c0.1,0.3,0.3,0.6,0.5,0.9c0.2,0.2,0.5,0.4,0.8,0.5
		c0.3,0.1,0.6,0.2,1,0.2c0.3,0,0.6,0,0.8-0.1c0.2-0.1,0.4-0.1,0.6-0.2L372.5,153.1z M373.2,150.8c0-0.4,0.1-0.8,0.2-1.1
		c0.1-0.3,0.3-0.6,0.5-0.9c0.2-0.2,0.5-0.4,0.8-0.5c0.3-0.1,0.7-0.2,1.1-0.2c0.4,0,0.8,0.1,1.1,0.2s0.6,0.3,0.8,0.6
		c0.2,0.2,0.4,0.5,0.5,0.9c0.1,0.3,0.2,0.7,0.2,1.1c0,0.4-0.1,0.8-0.2,1.1c-0.1,0.3-0.3,0.6-0.5,0.9c-0.2,0.2-0.5,0.4-0.8,0.5
		c-0.3,0.1-0.7,0.2-1.1,0.2c-0.4,0-0.8-0.1-1.1-0.2c-0.3-0.1-0.6-0.3-0.8-0.6c-0.2-0.2-0.4-0.5-0.5-0.9
		C373.2,151.5,373.2,151.2,373.2,150.8z M374.1,150.8c0,0.2,0,0.5,0.1,0.7c0.1,0.2,0.2,0.4,0.3,0.6c0.1,0.2,0.3,0.3,0.5,0.4
		c0.2,0.1,0.4,0.2,0.7,0.2c1,0,1.5-0.7,1.5-2c0-0.3,0-0.5-0.1-0.7c-0.1-0.2-0.1-0.4-0.3-0.6c-0.1-0.2-0.3-0.3-0.5-0.4
		c-0.2-0.1-0.4-0.2-0.7-0.2c-0.5,0-0.9,0.2-1.2,0.5C374.3,149.6,374.1,150.1,374.1,150.8z M380.4,149.2c0.2-0.3,0.5-0.6,0.8-0.7
		c0.3-0.1,0.7-0.2,1.1-0.2c0.7,0,1.2,0.2,1.6,0.6c0.4,0.4,0.6,1,0.6,1.8c0,0.5-0.1,0.9-0.2,1.2c-0.1,0.3-0.3,0.6-0.5,0.9
		c-0.2,0.2-0.5,0.4-0.8,0.5c-0.3,0.1-0.7,0.2-1,0.2c-0.8,0-1.5-0.3-1.9-0.8c-0.4-0.5-0.6-1.3-0.6-2.4c0-0.6,0-1.1,0.1-1.5
		c0.1-0.4,0.2-0.8,0.3-1c0.1-0.3,0.3-0.5,0.5-0.7c0.2-0.2,0.4-0.3,0.6-0.4c0.2-0.1,0.5-0.1,0.7-0.2c0.3,0,0.6-0.1,0.9-0.1
		c0.4,0,0.7-0.1,0.9-0.1c0.2,0,0.4-0.1,0.6-0.2l0.1,0.8c-0.2,0.1-0.4,0.2-0.6,0.2c-0.3,0-0.6,0.1-1.1,0.1c-0.3,0-0.6,0.1-0.9,0.1
		c-0.2,0.1-0.5,0.1-0.6,0.3c-0.2,0.1-0.3,0.3-0.4,0.6C380.4,148.5,380.3,148.8,380.4,149.2L380.4,149.2z M380.4,150.9
		c0,0.3,0,0.5,0.1,0.7c0.1,0.2,0.2,0.4,0.3,0.6c0.1,0.2,0.3,0.3,0.5,0.4c0.2,0.1,0.4,0.1,0.7,0.1c1,0,1.6-0.6,1.6-1.9
		c0-0.3,0-0.5-0.1-0.7c-0.1-0.2-0.1-0.4-0.3-0.6c-0.1-0.2-0.3-0.3-0.4-0.4c-0.2-0.1-0.4-0.1-0.6-0.1c-0.6,0-1,0.2-1.3,0.5
		C380.6,149.9,380.4,150.3,380.4,150.9z M385.7,150.8c0-0.4,0.1-0.8,0.2-1.1c0.1-0.3,0.3-0.6,0.5-0.9c0.2-0.2,0.5-0.4,0.8-0.5
		c0.3-0.1,0.7-0.2,1.1-0.2c0.4,0,0.8,0.1,1.1,0.2s0.6,0.3,0.8,0.6c0.2,0.2,0.4,0.5,0.5,0.9c0.1,0.3,0.2,0.7,0.2,1.1
		c0,0.4-0.1,0.8-0.2,1.1c-0.1,0.3-0.3,0.6-0.5,0.9c-0.2,0.2-0.5,0.4-0.8,0.5c-0.3,0.1-0.7,0.2-1.1,0.2c-0.4,0-0.8-0.1-1.1-0.2
		s-0.6-0.3-0.8-0.6c-0.2-0.2-0.4-0.5-0.5-0.9C385.7,151.5,385.7,151.2,385.7,150.8z M386.7,150.8c0,0.2,0,0.5,0.1,0.7
		c0.1,0.2,0.2,0.4,0.3,0.6c0.1,0.2,0.3,0.3,0.5,0.4c0.2,0.1,0.4,0.2,0.7,0.2c1,0,1.5-0.7,1.5-2c0-0.3,0-0.5-0.1-0.7
		c-0.1-0.2-0.1-0.4-0.3-0.6c-0.1-0.2-0.3-0.3-0.5-0.4c-0.2-0.1-0.4-0.2-0.7-0.2c-0.5,0-0.9,0.2-1.2,0.5
		C386.8,149.6,386.7,150.1,386.7,150.8z M392.2,148.2h0.6l0.2,0.7h0.1c0.2-0.3,0.4-0.5,0.7-0.6c0.3-0.1,0.6-0.2,1-0.2
		c0.8,0,1.3,0.2,1.7,0.6c0.4,0.4,0.6,1.1,0.6,2c0,0.4-0.1,0.8-0.2,1.2c-0.1,0.3-0.3,0.6-0.5,0.9c-0.2,0.2-0.5,0.4-0.8,0.6
		c-0.3,0.1-0.7,0.2-1.1,0.2c-0.1,0-0.3,0-0.4,0c-0.1,0-0.2,0-0.3,0c-0.1,0-0.2,0-0.3-0.1c-0.1,0-0.2-0.1-0.3-0.1v2.1h-0.9V148.2z
		 M394.5,148.8c-0.4,0-0.7,0.1-0.9,0.3c-0.2,0.2-0.4,0.5-0.5,0.9v2.4c0.2,0.1,0.3,0.2,0.5,0.2c0.2,0.1,0.4,0.1,0.7,0.1
		c0.5,0,1-0.2,1.3-0.5c0.3-0.3,0.5-0.9,0.5-1.6c0-0.6-0.1-1-0.3-1.3C395.4,149,395.1,148.8,394.5,148.8z M401.9,151.1h-2.6v2.3h-0.9
		v-5.2h0.9v2.1h2.6v-2.1h0.9v5.2h-0.9V151.1z M404.5,148.5c0.6-0.3,1.3-0.4,2.2-0.4c0.4,0,0.7,0.1,0.9,0.2c0.2,0.1,0.4,0.2,0.6,0.4
		c0.1,0.2,0.2,0.3,0.3,0.5c0,0.2,0.1,0.4,0.1,0.6c0,0.4,0,0.7,0,1.1c0,0.4,0,0.8,0,1.2c0,0.3,0,0.5,0,0.7c0,0.2,0.1,0.4,0.1,0.6H408
		l-0.2-0.8h-0.1c-0.1,0.1-0.2,0.2-0.3,0.3c-0.1,0.1-0.2,0.2-0.4,0.3c-0.1,0.1-0.3,0.1-0.5,0.2c-0.2,0.1-0.4,0.1-0.6,0.1
		c-0.2,0-0.5,0-0.7-0.1c-0.2-0.1-0.4-0.2-0.5-0.3c-0.1-0.1-0.3-0.3-0.3-0.5c-0.1-0.2-0.1-0.4-0.1-0.6c0-0.3,0.1-0.6,0.2-0.8
		c0.1-0.2,0.3-0.4,0.5-0.5s0.4-0.2,0.7-0.3c0.3-0.1,0.5-0.1,0.8-0.1c0.2,0,0.4,0,0.5,0c0.1,0,0.3,0,0.4,0c0.1,0,0.2,0,0.2,0
		c0.1,0,0.1,0,0.2,0c0-0.1,0-0.2,0-0.3c0-0.1,0-0.2,0-0.3c0-0.2,0-0.3-0.1-0.5s-0.1-0.2-0.2-0.3c-0.1-0.1-0.2-0.1-0.4-0.2
		c-0.2,0-0.3,0-0.6,0c-0.1,0-0.3,0-0.4,0c-0.2,0-0.3,0-0.5,0.1c-0.2,0-0.3,0.1-0.5,0.1c-0.1,0.1-0.3,0.1-0.4,0.2L404.5,148.5z
		 M407.6,151c-0.1,0-0.1,0-0.2,0c-0.1,0-0.1,0-0.2,0c-0.1,0-0.2,0-0.3,0c-0.1,0-0.3,0-0.4,0c-0.4,0-0.7,0.1-1,0.2
		c-0.2,0.1-0.4,0.4-0.4,0.7c0,0.3,0.1,0.5,0.3,0.6c0.2,0.1,0.4,0.2,0.7,0.2c0.2,0,0.4,0,0.6-0.1c0.2-0.1,0.3-0.1,0.4-0.2
		c0.1-0.1,0.2-0.2,0.3-0.3c0.1-0.1,0.1-0.2,0.2-0.3V151z"/>
	<path class="st4" d="M159.8,224.7L88.2,153l2.5-2.5l70.6,70.6"/>
	<path class="st4" d="M88.2,158c4.1,0,7.3-3.3,7.3-7.3c0-4.1-3.3-7.3-7.3-7.3c-4.1,0-7.3,3.3-7.3,7.3C80.8,154.7,84.1,158,88.2,158z
		"/>
	<path class="st2" d="M88.2,159.5c-4.9,0-8.8-4-8.8-8.8c0-4.9,4-8.8,8.8-8.8c4.9,0,8.8,4,8.8,8.8C97,155.6,93,159.5,88.2,159.5z
		 M88.2,144.8c-3.2,0-5.8,2.6-5.8,5.8s2.6,5.8,5.8,5.8c3.2,0,5.8-2.6,5.8-5.8S91.4,144.8,88.2,144.8z"/>
	<path class="st4" d="M159.3,228.4c4.1,0,7.3-3.3,7.3-7.3c0-4.1-3.3-7.3-7.3-7.3c-4.1,0-7.3,3.3-7.3,7.3
		C152,225.2,155.3,228.4,159.3,228.4z"/>
	<path class="st2" d="M159.3,229.9c-4.9,0-8.8-4-8.8-8.8c0-4.9,4-8.8,8.8-8.8c4.9,0,8.8,4,8.8,8.8
		C168.2,226,164.2,229.9,159.3,229.9z M159.3,215.3c-3.2,0-5.8,2.6-5.8,5.8c0,3.2,2.6,5.8,5.8,5.8c3.2,0,5.8-2.6,5.8-5.8
		C165.2,217.9,162.5,215.3,159.3,215.3z"/>
</g>
</svg>
