<svg width="143" height="99" viewBox="0 0 143 99" fill="none" xmlns="http://www.w3.org/2000/svg">
<path d="M17.54 79.9402L130.37 79.9602" stroke="#B3BBC0" stroke-width="2.8346" stroke-miterlimit="10"/>
<path d="M17.54 98.8902C26.9841 98.8902 34.6399 91.2342 34.6399 81.7902C34.6399 72.3461 26.9841 64.6902 17.54 64.6902C8.09597 64.6902 0.439941 72.3461 0.439941 81.7902C0.439941 91.2342 8.09597 98.8902 17.54 98.8902Z" fill="#E62139"/>
<path d="M16.681 88.1294C17.2493 88.1294 17.7424 88.0625 18.1603 87.9288C18.5949 87.7784 18.9543 87.5778 19.2384 87.3271C19.5226 87.0763 19.7399 86.7922 19.8903 86.4746C20.0408 86.1403 20.116 85.7976 20.116 85.4466C20.116 84.544 19.8067 83.8754 19.1883 83.4408C18.5865 83.0062 17.6087 82.7889 16.2548 82.7889H14.274V80.9335L17.5084 76.972L19.088 75.8186L16.9317 76.0944H12.3935V73.1609H22.8239V75.0414L19.0629 79.6548L17.8343 80.3317V80.4571L18.9877 80.3067C19.6062 80.3568 20.1912 80.4989 20.7428 80.7329C21.3111 80.9669 21.8042 81.2845 22.2221 81.6857C22.6567 82.0868 22.9994 82.5883 23.2501 83.19C23.5008 83.7751 23.6262 84.4604 23.6262 85.246C23.6262 86.2322 23.4423 87.0931 23.0746 87.8285C22.7236 88.5473 22.2388 89.149 21.6204 89.6338C21.0019 90.1185 20.2748 90.4779 19.439 90.7119C18.6032 90.9459 17.7006 91.0629 16.7311 91.0629C16.33 91.0629 15.9204 91.0462 15.5026 91.0128C15.0847 90.9794 14.6752 90.9209 14.274 90.8373C13.8728 90.7704 13.4884 90.6952 13.1206 90.6116C12.7696 90.5113 12.4604 90.3943 12.1929 90.2606L13.1457 87.3521C13.6137 87.5694 14.1403 87.7533 14.7253 87.9037C15.3103 88.0542 15.9622 88.1294 16.681 88.1294Z" fill="white"/>
<path d="M125.31 97.0401C134.754 97.0401 142.41 89.3842 142.41 79.9401C142.41 70.496 134.754 62.8401 125.31 62.8401C115.866 62.8401 108.21 70.496 108.21 79.9401C108.21 89.3842 115.866 97.0401 125.31 97.0401Z" fill="#FBB924"/>
<path d="M119.481 84.5235C119.481 83.9384 119.565 83.4203 119.732 82.969C119.899 82.5009 120.133 82.083 120.434 81.7153C120.735 81.3476 121.086 81.0216 121.487 80.7375C121.888 80.4366 122.331 80.1608 122.816 79.9101C121.913 79.3919 121.211 78.7985 120.71 78.1299C120.225 77.4613 119.983 76.6255 119.983 75.6226C119.983 74.9874 120.108 74.3857 120.359 73.8173C120.626 73.249 121.002 72.7559 121.487 72.338C121.988 71.9034 122.59 71.5691 123.292 71.3351C124.011 71.0844 124.822 70.959 125.724 70.959C126.543 70.959 127.287 71.0677 127.956 71.285C128.624 71.4856 129.193 71.7781 129.661 72.1625C130.146 72.5303 130.513 72.9816 130.764 73.5165C131.031 74.0346 131.165 74.603 131.165 75.2214C131.165 76.2076 130.931 77.0434 130.463 77.7287C130.012 78.3973 129.31 79.0158 128.357 79.5841C129.427 80.1691 130.246 80.8043 130.814 81.4897C131.382 82.175 131.667 83.0609 131.667 84.1474C131.667 84.8996 131.516 85.5849 131.215 86.2034C130.914 86.8218 130.488 87.3567 129.937 87.808C129.402 88.2426 128.75 88.5853 127.981 88.836C127.229 89.0867 126.393 89.2121 125.474 89.2121C124.571 89.2121 123.744 89.0951 122.991 88.8611C122.256 88.6438 121.629 88.3262 121.111 87.9083C120.593 87.4904 120.192 86.9973 119.907 86.429C119.623 85.844 119.481 85.2088 119.481 84.5235ZM128.307 84.1725C128.307 83.8047 128.198 83.4704 127.981 83.1695C127.78 82.8687 127.513 82.5929 127.179 82.3421C126.861 82.0914 126.502 81.8574 126.1 81.6401C125.699 81.4228 125.298 81.2222 124.897 81.0383C124.061 81.4729 123.485 81.9493 123.167 82.4675C122.866 82.9857 122.716 83.4788 122.716 83.9468C122.716 84.5987 122.958 85.1503 123.443 85.6016C123.944 86.0529 124.646 86.2786 125.549 86.2786C126.385 86.2786 127.053 86.1031 127.555 85.752C128.056 85.3843 128.307 84.8578 128.307 84.1725ZM123.342 75.6727C123.342 76.0739 123.426 76.4249 123.593 76.7258C123.777 77.0267 124.011 77.2941 124.295 77.5281C124.579 77.7454 124.897 77.946 125.248 78.1299C125.616 78.3137 125.992 78.4893 126.376 78.6564C127.429 77.8206 127.956 76.9097 127.956 75.9235C127.956 75.2549 127.73 74.7534 127.279 74.4191C126.828 74.0681 126.284 73.8926 125.649 73.8926C124.847 73.8926 124.262 74.0681 123.894 74.4191C123.526 74.7701 123.342 75.188 123.342 75.6727Z" fill="white"/>
<path d="M56.8501 34.7701C66.2942 34.7701 73.95 27.1141 73.95 17.6701C73.95 8.226 66.2942 0.570068 56.8501 0.570068C47.406 0.570068 39.75 8.226 39.75 17.6701C39.75 27.1141 47.406 34.7701 56.8501 34.7701Z" fill="#035B82"/>
<path d="M63.5159 21.1529C63.5159 21.9385 63.3654 22.6824 63.0645 23.3844C62.7637 24.0697 62.3374 24.6799 61.7858 25.2147C61.2509 25.7496 60.599 26.1759 59.8301 26.4935C59.0779 26.7943 58.2338 26.9448 57.2978 26.9448C56.3617 26.9448 55.5009 26.8027 54.7153 26.5185C53.9296 26.2344 53.2443 25.8165 52.6593 25.2649C52.0743 24.6966 51.6146 24.0029 51.2803 23.1838C50.9627 22.3481 50.8039 21.3786 50.8039 20.2754C50.8039 18.654 51.063 17.1747 51.5812 15.8375C52.0993 14.4835 52.793 13.3135 53.6622 12.3273C54.5481 11.3244 55.5761 10.5137 56.7462 9.8952C57.9162 9.27673 59.1615 8.87557 60.482 8.6917L61.2091 11.4246C60.3065 11.5584 59.4708 11.8175 58.7019 12.2019C57.9497 12.5696 57.2727 13.021 56.671 13.5558C56.0859 14.074 55.5928 14.659 55.1916 15.3109C54.7905 15.9461 54.5063 16.598 54.3392 17.2666C54.7236 16.8487 55.1916 16.4894 55.7433 16.1885C56.2949 15.8709 57.0136 15.7121 57.8995 15.7121C58.7353 15.7121 59.4958 15.8375 60.1812 16.0882C60.8832 16.3389 61.4766 16.6983 61.9613 17.1663C62.4628 17.6344 62.8472 18.2027 63.1147 18.8713C63.3821 19.5399 63.5159 20.3005 63.5159 21.1529ZM60.1059 21.3034C60.1059 19.5315 59.1114 18.6456 57.1223 18.6456C56.3868 18.6456 55.7683 18.7961 55.2669 19.097C54.7654 19.3811 54.4144 19.7238 54.2138 20.1249C54.1804 20.3088 54.1637 20.4509 54.1637 20.5512C54.1637 20.6348 54.1637 20.735 54.1637 20.8521C54.1637 21.2365 54.2222 21.621 54.3392 22.0054C54.4729 22.3731 54.6651 22.7075 54.9158 23.0083C55.1666 23.3092 55.4842 23.5516 55.8686 23.7354C56.2531 23.9193 56.7044 24.0112 57.2226 24.0112C57.6404 24.0112 58.0249 23.9444 58.3759 23.8107C58.7269 23.6602 59.0278 23.4596 59.2785 23.2089C59.546 22.9582 59.7466 22.674 59.8803 22.3564C60.0307 22.0221 60.1059 21.6711 60.1059 21.3034Z" fill="white"/>
</svg>
