<svg width="476" height="346" viewBox="0 0 476 346" fill="none" xmlns="http://www.w3.org/2000/svg">
<path d="M295.36 334.62H291.02V230.39L379.65 141.76L382.72 144.83L295.36 232.19V334.62Z" fill="#FBB924"/>
<path d="M245.92 74.77H143.51V78.39H245.92V74.77Z" fill="#035B82"/>
<path d="M145.76 85.4902C150.681 85.4902 154.67 81.501 154.67 76.5802C154.67 71.6593 150.681 67.6702 145.76 67.6702C140.839 67.6702 136.85 71.6593 136.85 76.5802C136.85 81.501 140.839 85.4902 145.76 85.4902Z" fill="#035B82"/>
<path d="M145.76 87.2901C139.85 87.2901 135.04 82.4801 135.04 76.5701C135.04 70.6601 139.85 65.8501 145.76 65.8501C151.67 65.8501 156.48 70.6601 156.48 76.5701C156.48 82.4901 151.67 87.2901 145.76 87.2901ZM145.76 69.4801C141.84 69.4801 138.66 72.6701 138.66 76.5801C138.66 80.5001 141.85 83.6801 145.76 83.6801C149.68 83.6801 152.86 80.4901 152.86 76.5801C152.86 72.6601 149.68 69.4801 145.76 69.4801Z" fill="white"/>
<path d="M310.492 9.45198L244.633 75.3113L247.193 77.871L313.052 12.0117L310.492 9.45198Z" fill="#035B82"/>
<path d="M311.78 19.6301C316.701 19.6301 320.69 15.6409 320.69 10.7201C320.69 5.7992 316.701 1.81006 311.78 1.81006C306.859 1.81006 302.87 5.7992 302.87 10.7201C302.87 15.6409 306.859 19.6301 311.78 19.6301Z" fill="#035B82"/>
<path d="M311.78 21.44C305.87 21.44 301.06 16.63 301.06 10.72C301.06 4.81 305.87 0 311.78 0C317.69 0 322.5 4.81 322.5 10.72C322.5 16.63 317.69 21.44 311.78 21.44ZM311.78 3.62C307.86 3.62 304.68 6.81 304.68 10.72C304.68 14.63 307.87 17.82 311.78 17.82C315.69 17.82 318.88 14.63 318.88 10.72C318.88 6.8 315.7 3.62 311.78 3.62Z" fill="white"/>
<path d="M245.92 85.4902C250.841 85.4902 254.83 81.501 254.83 76.5802C254.83 71.6593 250.841 67.6702 245.92 67.6702C240.999 67.6702 237.01 71.6593 237.01 76.5802C237.01 81.501 240.999 85.4902 245.92 85.4902Z" fill="#035B82"/>
<path d="M245.92 87.2901C240.01 87.2901 235.2 82.4801 235.2 76.5701C235.2 70.6601 240.01 65.8501 245.92 65.8501C251.83 65.8501 256.64 70.6601 256.64 76.5701C256.64 82.4901 251.83 87.2901 245.92 87.2901ZM245.92 69.4801C242 69.4801 238.82 72.6701 238.82 76.5801C238.82 80.5001 242.01 83.6801 245.92 83.6801C249.83 83.6801 253.02 80.4901 253.02 76.5801C253.02 72.6601 249.84 69.4801 245.92 69.4801Z" fill="white"/>
<path d="M229.408 92.0958L229.864 92.0718C230.12 92.0558 230.4 92.0398 230.704 92.0238C231.008 91.9998 231.36 91.9878 231.76 91.9878C232.688 91.9878 233.352 92.1198 233.752 92.3838C234.16 92.6398 234.364 93.0238 234.364 93.5358C234.364 93.8158 234.264 94.0998 234.064 94.3878C233.872 94.6678 233.564 94.8718 233.14 94.9998V95.1318C233.668 95.2358 234.044 95.4118 234.268 95.6598C234.5 95.9078 234.616 96.2358 234.616 96.6438C234.616 97.2758 234.356 97.7438 233.836 98.0478C233.316 98.3438 232.532 98.4918 231.484 98.4918C231.132 98.4918 230.8 98.4798 230.488 98.4558C230.176 98.4398 229.872 98.4198 229.576 98.3958C229.544 98.3958 229.516 98.3958 229.492 98.3958C229.468 98.3878 229.44 98.3838 229.408 98.3838V92.0958ZM230.512 97.5318C230.688 97.5558 230.86 97.5758 231.028 97.5918C231.196 97.5998 231.404 97.6038 231.652 97.6038C232.284 97.6038 232.74 97.5238 233.02 97.3638C233.3 97.1958 233.44 96.9238 233.44 96.5478C233.44 96.3958 233.412 96.2558 233.356 96.1278C233.3 95.9998 233.208 95.8918 233.08 95.8038C232.952 95.7158 232.776 95.6478 232.552 95.5998C232.336 95.5438 232.068 95.5158 231.748 95.5158H230.512V97.5318ZM231.88 94.7598C232.056 94.7598 232.224 94.7358 232.384 94.6878C232.544 94.6398 232.688 94.5718 232.816 94.4838C232.944 94.3958 233.044 94.2958 233.116 94.1838C233.196 94.0638 233.236 93.9358 233.236 93.7998C233.236 93.4638 233.12 93.2318 232.888 93.1038C232.664 92.9678 232.276 92.8998 231.724 92.8998C231.54 92.8998 231.352 92.9078 231.16 92.9238C230.976 92.9318 230.76 92.9398 230.512 92.9478V94.7598H231.88ZM238.349 96.0798L238.721 97.2918H238.877L239.177 96.0678L240.485 92.0958H241.613L239.549 97.7958C239.397 98.1878 239.241 98.5678 239.081 98.9358C238.929 99.3038 238.757 99.6278 238.565 99.9078C238.381 100.196 238.173 100.424 237.941 100.592C237.717 100.768 237.457 100.856 237.161 100.856C236.841 100.856 236.569 100.82 236.345 100.748L236.525 99.8118C236.645 99.8518 236.765 99.8718 236.885 99.8718C237.045 99.8718 237.189 99.8518 237.317 99.8118C237.453 99.7718 237.577 99.6998 237.689 99.5958C237.801 99.4918 237.901 99.3438 237.989 99.1518C238.085 98.9678 238.173 98.7278 238.253 98.4318L235.433 92.0958H236.741L238.349 96.0798ZM246.396 93.0318H244.356L244.332 93.3918C244.276 94.1838 244.208 94.8958 244.128 95.5278C244.056 96.1518 243.948 96.6838 243.804 97.1238C243.66 97.5558 243.468 97.8878 243.228 98.1198C242.988 98.3438 242.676 98.4558 242.292 98.4558C242.116 98.4558 241.96 98.4438 241.824 98.4198C241.688 98.4038 241.572 98.3758 241.476 98.3358L241.644 97.3278C241.748 97.3598 241.864 97.3758 241.992 97.3758C242.184 97.3758 242.356 97.3078 242.508 97.1718C242.66 97.0278 242.792 96.7638 242.904 96.3798C243.016 95.9958 243.108 95.4598 243.18 94.7718C243.252 94.0838 243.304 93.1918 243.336 92.0958H247.5V98.3958H246.396V93.0318ZM249.179 97.7838C249.179 97.5518 249.251 97.3678 249.395 97.2318C249.547 97.0958 249.743 97.0278 249.983 97.0278C250.223 97.0278 250.415 97.0958 250.559 97.2318C250.711 97.3678 250.787 97.5518 250.787 97.7838C250.787 97.9998 250.711 98.1798 250.559 98.3238C250.415 98.4678 250.223 98.5398 249.983 98.5398C249.743 98.5398 249.547 98.4678 249.395 98.3238C249.251 98.1798 249.179 97.9998 249.179 97.7838ZM261.552 98.0358C261.288 98.2278 260.952 98.3598 260.544 98.4318C260.136 98.5118 259.704 98.5518 259.248 98.5518C258.712 98.5518 258.2 98.4678 257.712 98.2998C257.232 98.1238 256.808 97.8598 256.44 97.5078C256.072 97.1478 255.78 96.6958 255.564 96.1518C255.348 95.5998 255.24 94.9478 255.24 94.1958C255.24 93.4118 255.36 92.7438 255.6 92.1918C255.84 91.6398 256.152 91.1918 256.536 90.8478C256.92 90.4958 257.352 90.2398 257.832 90.0798C258.312 89.9198 258.788 89.8398 259.26 89.8398C259.788 89.8398 260.22 89.8678 260.556 89.9238C260.892 89.9798 261.176 90.0518 261.408 90.1398L261.144 91.1718C260.752 90.9878 260.156 90.8958 259.356 90.8958C258.996 90.8958 258.644 90.9558 258.3 91.0758C257.964 91.1878 257.66 91.3758 257.388 91.6398C257.124 91.8958 256.912 92.2358 256.752 92.6598C256.592 93.0758 256.512 93.5878 256.512 94.1958C256.512 94.7398 256.588 95.2198 256.74 95.6358C256.892 96.0438 257.1 96.3878 257.364 96.6678C257.636 96.9398 257.952 97.1478 258.312 97.2918C258.68 97.4278 259.08 97.4958 259.512 97.4958C259.904 97.4958 260.244 97.4598 260.532 97.3878C260.82 97.3158 261.064 97.2238 261.264 97.1118L261.552 98.0358ZM262.656 97.7838C262.656 97.5518 262.728 97.3678 262.872 97.2318C263.024 97.0958 263.22 97.0278 263.46 97.0278C263.7 97.0278 263.892 97.0958 264.036 97.2318C264.188 97.3678 264.264 97.5518 264.264 97.7838C264.264 97.9998 264.188 98.1798 264.036 98.3238C263.892 98.4678 263.7 98.5398 263.46 98.5398C263.22 98.5398 263.024 98.4678 262.872 98.3238C262.728 98.1798 262.656 97.9998 262.656 97.7838ZM274.548 94.6398H270.288V98.3958H269.088V89.9958H270.288V93.5838H274.548V89.9958H275.748V98.3958H274.548V94.6398ZM277.805 92.4918C278.525 92.1478 279.417 91.9758 280.481 91.9758C280.961 91.9758 281.345 92.0398 281.633 92.1678C281.929 92.2878 282.157 92.4438 282.317 92.6358C282.477 92.8278 282.581 93.0438 282.629 93.2838C282.685 93.5158 282.713 93.7478 282.713 93.9798C282.713 94.4198 282.697 94.8638 282.665 95.3118C282.633 95.7518 282.617 96.2318 282.617 96.7518C282.617 97.0558 282.629 97.3518 282.653 97.6398C282.685 97.9198 282.733 98.1798 282.797 98.4198H281.993L281.693 97.4598H281.573C281.485 97.5798 281.377 97.7038 281.249 97.8318C281.121 97.9518 280.969 98.0598 280.793 98.1558C280.617 98.2518 280.413 98.3318 280.181 98.3958C279.957 98.4598 279.697 98.4918 279.401 98.4918C279.105 98.4918 278.833 98.4518 278.585 98.3718C278.337 98.2838 278.121 98.1638 277.937 98.0118C277.761 97.8598 277.621 97.6758 277.517 97.4598C277.413 97.2358 277.361 96.9878 277.361 96.7158C277.361 96.3558 277.437 96.0438 277.589 95.7798C277.749 95.5158 277.953 95.2998 278.201 95.1318C278.449 94.9638 278.729 94.8398 279.041 94.7598C279.361 94.6798 279.677 94.6398 279.989 94.6398C280.237 94.6398 280.445 94.6438 280.613 94.6518C280.789 94.6598 280.933 94.6718 281.045 94.6878C281.165 94.6958 281.265 94.7078 281.345 94.7238C281.425 94.7318 281.497 94.7398 281.561 94.7478C281.577 94.6278 281.589 94.5238 281.597 94.4358C281.605 94.3478 281.609 94.2358 281.609 94.0998C281.609 93.8758 281.585 93.6878 281.537 93.5358C281.489 93.3838 281.409 93.2638 281.297 93.1758C281.193 93.0798 281.049 93.0118 280.865 92.9718C280.681 92.9318 280.457 92.9118 280.193 92.9118C280.041 92.9118 279.873 92.9238 279.689 92.9478C279.505 92.9718 279.321 93.0078 279.137 93.0558C278.953 93.0958 278.769 93.1478 278.585 93.2118C278.409 93.2758 278.249 93.3438 278.105 93.4158L277.805 92.4918ZM281.561 95.5398C281.497 95.5318 281.429 95.5198 281.357 95.5038C281.285 95.4878 281.193 95.4758 281.081 95.4678C280.977 95.4598 280.849 95.4518 280.697 95.4438C280.553 95.4358 280.373 95.4318 280.157 95.4318C279.661 95.4318 279.265 95.5198 278.969 95.6958C278.681 95.8718 278.537 96.1718 278.537 96.5958C278.537 96.9158 278.649 97.1558 278.873 97.3158C279.105 97.4758 279.401 97.5558 279.761 97.5558C280.025 97.5558 280.257 97.5238 280.457 97.4598C280.665 97.3878 280.841 97.3038 280.985 97.2078C281.137 97.1038 281.257 96.9918 281.345 96.8718C281.441 96.7438 281.513 96.6198 281.561 96.4998V95.5398ZM288.653 93.0318H286.613L286.589 93.3918C286.533 94.1838 286.465 94.8958 286.385 95.5278C286.313 96.1518 286.205 96.6838 286.061 97.1238C285.917 97.5558 285.725 97.8878 285.485 98.1198C285.245 98.3438 284.933 98.4558 284.549 98.4558C284.373 98.4558 284.217 98.4438 284.081 98.4198C283.945 98.4038 283.829 98.3758 283.733 98.3358L283.901 97.3278C284.005 97.3598 284.121 97.3758 284.249 97.3758C284.441 97.3758 284.613 97.3078 284.765 97.1718C284.917 97.0278 285.049 96.7638 285.161 96.3798C285.273 95.9958 285.365 95.4598 285.437 94.7718C285.509 94.0838 285.561 93.1918 285.593 92.0958H289.757V98.3958H288.653V93.0318ZM296.225 94.7958L296.393 93.5478H296.261L295.673 94.7238L292.721 98.3958H291.869V92.0958H292.973V95.8158L292.889 96.9198H293.021L293.573 95.8518L296.465 92.0958H297.329V98.3958H296.225V94.7958ZM299.44 92.0958L299.896 92.0718C300.152 92.0558 300.432 92.0398 300.736 92.0238C301.04 91.9998 301.392 91.9878 301.792 91.9878C302.72 91.9878 303.384 92.1198 303.784 92.3838C304.192 92.6398 304.396 93.0238 304.396 93.5358C304.396 93.8158 304.296 94.0998 304.096 94.3878C303.904 94.6678 303.596 94.8718 303.172 94.9998V95.1318C303.7 95.2358 304.076 95.4118 304.3 95.6598C304.532 95.9078 304.648 96.2358 304.648 96.6438C304.648 97.2758 304.388 97.7438 303.868 98.0478C303.348 98.3438 302.564 98.4918 301.516 98.4918C301.164 98.4918 300.832 98.4798 300.52 98.4558C300.208 98.4398 299.904 98.4198 299.608 98.3958C299.576 98.3958 299.548 98.3958 299.524 98.3958C299.5 98.3878 299.472 98.3838 299.44 98.3838V92.0958ZM300.544 97.5318C300.72 97.5558 300.892 97.5758 301.06 97.5918C301.228 97.5998 301.436 97.6038 301.684 97.6038C302.316 97.6038 302.772 97.5238 303.052 97.3638C303.332 97.1958 303.472 96.9238 303.472 96.5478C303.472 96.3958 303.444 96.2558 303.388 96.1278C303.332 95.9998 303.24 95.8918 303.112 95.8038C302.984 95.7158 302.808 95.6478 302.584 95.5998C302.368 95.5438 302.1 95.5158 301.78 95.5158H300.544V97.5318ZM301.912 94.7598C302.088 94.7598 302.256 94.7358 302.416 94.6878C302.576 94.6398 302.72 94.5718 302.848 94.4838C302.976 94.3958 303.076 94.2958 303.148 94.1838C303.228 94.0638 303.268 93.9358 303.268 93.7998C303.268 93.4638 303.152 93.2318 302.92 93.1038C302.696 92.9678 302.308 92.8998 301.756 92.8998C301.572 92.8998 301.384 92.9078 301.192 92.9238C301.008 92.9318 300.792 92.9398 300.544 92.9478V94.7598H301.912ZM306.352 92.4918C307.072 92.1478 307.964 91.9758 309.028 91.9758C309.508 91.9758 309.892 92.0398 310.18 92.1678C310.476 92.2878 310.704 92.4438 310.864 92.6358C311.024 92.8278 311.128 93.0438 311.176 93.2838C311.232 93.5158 311.26 93.7478 311.26 93.9798C311.26 94.4198 311.244 94.8638 311.212 95.3118C311.18 95.7518 311.164 96.2318 311.164 96.7518C311.164 97.0558 311.176 97.3518 311.2 97.6398C311.232 97.9198 311.28 98.1798 311.344 98.4198H310.54L310.24 97.4598H310.12C310.032 97.5798 309.924 97.7038 309.796 97.8318C309.668 97.9518 309.516 98.0598 309.34 98.1558C309.164 98.2518 308.96 98.3318 308.728 98.3958C308.504 98.4598 308.244 98.4918 307.948 98.4918C307.652 98.4918 307.38 98.4518 307.132 98.3718C306.884 98.2838 306.668 98.1638 306.484 98.0118C306.308 97.8598 306.168 97.6758 306.064 97.4598C305.96 97.2358 305.908 96.9878 305.908 96.7158C305.908 96.3558 305.984 96.0438 306.136 95.7798C306.296 95.5158 306.5 95.2998 306.748 95.1318C306.996 94.9638 307.276 94.8398 307.588 94.7598C307.908 94.6798 308.224 94.6398 308.536 94.6398C308.784 94.6398 308.992 94.6438 309.16 94.6518C309.336 94.6598 309.48 94.6718 309.592 94.6878C309.712 94.6958 309.812 94.7078 309.892 94.7238C309.972 94.7318 310.044 94.7398 310.108 94.7478C310.124 94.6278 310.136 94.5238 310.144 94.4358C310.152 94.3478 310.156 94.2358 310.156 94.0998C310.156 93.8758 310.132 93.6878 310.084 93.5358C310.036 93.3838 309.956 93.2638 309.844 93.1758C309.74 93.0798 309.596 93.0118 309.412 92.9718C309.228 92.9318 309.004 92.9118 308.74 92.9118C308.588 92.9118 308.42 92.9238 308.236 92.9478C308.052 92.9718 307.868 93.0078 307.684 93.0558C307.5 93.0958 307.316 93.1478 307.132 93.2118C306.956 93.2758 306.796 93.3438 306.652 93.4158L306.352 92.4918ZM310.108 95.5398C310.044 95.5318 309.976 95.5198 309.904 95.5038C309.832 95.4878 309.74 95.4758 309.628 95.4678C309.524 95.4598 309.396 95.4518 309.244 95.4438C309.1 95.4358 308.92 95.4318 308.704 95.4318C308.208 95.4318 307.812 95.5198 307.516 95.6958C307.228 95.8718 307.084 96.1718 307.084 96.5958C307.084 96.9158 307.196 97.1558 307.42 97.3158C307.652 97.4758 307.948 97.5558 308.308 97.5558C308.572 97.5558 308.804 97.5238 309.004 97.4598C309.212 97.3878 309.388 97.3038 309.532 97.2078C309.684 97.1038 309.804 96.9918 309.892 96.8718C309.988 96.7438 310.06 96.6198 310.108 96.4998V95.5398ZM317.764 94.7958L317.932 93.5478H317.8L317.212 94.7238L314.26 98.3958H313.408V92.0958H314.512V95.8158L314.428 96.9198H314.56L315.112 95.8518L318.004 92.0958H318.868V98.3958H317.764V94.7958ZM315.112 89.8518C315.152 90.0278 315.208 90.1678 315.28 90.2718C315.352 90.3758 315.436 90.4558 315.532 90.5118C315.628 90.5598 315.736 90.5918 315.856 90.6078C315.984 90.6158 316.116 90.6198 316.252 90.6198C316.388 90.6198 316.516 90.6118 316.636 90.5958C316.764 90.5798 316.876 90.5438 316.972 90.4878C317.068 90.4318 317.152 90.3558 317.224 90.2598C317.296 90.1638 317.352 90.0318 317.392 89.8638L318.256 90.1158C318.168 90.5878 317.936 90.9198 317.56 91.1118C317.192 91.3038 316.748 91.3998 316.228 91.3998C315.98 91.3998 315.74 91.3798 315.508 91.3398C315.276 91.2998 315.064 91.2318 314.872 91.1358C314.688 91.0398 314.528 90.9158 314.392 90.7638C314.264 90.6038 314.176 90.4038 314.128 90.1638L315.112 89.8518ZM322.767 95.5638H322.083V98.3958H320.979V92.0958H322.083V94.9638L322.743 94.7478L324.891 92.0958H326.103L324.051 94.5438H324.063L323.415 95.0118L324.195 95.5518L326.415 98.3958H325.023L322.767 95.5638ZM327.469 92.4918C328.189 92.1478 329.081 91.9758 330.145 91.9758C330.625 91.9758 331.009 92.0398 331.297 92.1678C331.593 92.2878 331.821 92.4438 331.981 92.6358C332.141 92.8278 332.245 93.0438 332.293 93.2838C332.349 93.5158 332.377 93.7478 332.377 93.9798C332.377 94.4198 332.361 94.8638 332.329 95.3118C332.297 95.7518 332.281 96.2318 332.281 96.7518C332.281 97.0558 332.293 97.3518 332.317 97.6398C332.349 97.9198 332.397 98.1798 332.461 98.4198H331.657L331.357 97.4598H331.237C331.149 97.5798 331.041 97.7038 330.913 97.8318C330.785 97.9518 330.633 98.0598 330.457 98.1558C330.281 98.2518 330.077 98.3318 329.845 98.3958C329.621 98.4598 329.361 98.4918 329.065 98.4918C328.769 98.4918 328.497 98.4518 328.249 98.3718C328.001 98.2838 327.785 98.1638 327.601 98.0118C327.425 97.8598 327.285 97.6758 327.181 97.4598C327.077 97.2358 327.025 96.9878 327.025 96.7158C327.025 96.3558 327.101 96.0438 327.253 95.7798C327.413 95.5158 327.617 95.2998 327.865 95.1318C328.113 94.9638 328.393 94.8398 328.705 94.7598C329.025 94.6798 329.341 94.6398 329.653 94.6398C329.901 94.6398 330.109 94.6438 330.277 94.6518C330.453 94.6598 330.597 94.6718 330.709 94.6878C330.829 94.6958 330.929 94.7078 331.009 94.7238C331.089 94.7318 331.161 94.7398 331.225 94.7478C331.241 94.6278 331.253 94.5238 331.261 94.4358C331.269 94.3478 331.273 94.2358 331.273 94.0998C331.273 93.8758 331.249 93.6878 331.201 93.5358C331.153 93.3838 331.073 93.2638 330.961 93.1758C330.857 93.0798 330.713 93.0118 330.529 92.9718C330.345 92.9318 330.121 92.9118 329.857 92.9118C329.705 92.9118 329.537 92.9238 329.353 92.9478C329.169 92.9718 328.985 93.0078 328.801 93.0558C328.617 93.0958 328.433 93.1478 328.249 93.2118C328.073 93.2758 327.913 93.3438 327.769 93.4158L327.469 92.4918ZM331.225 95.5398C331.161 95.5318 331.093 95.5198 331.021 95.5038C330.949 95.4878 330.857 95.4758 330.745 95.4678C330.641 95.4598 330.513 95.4518 330.361 95.4438C330.217 95.4358 330.037 95.4318 329.821 95.4318C329.325 95.4318 328.929 95.5198 328.633 95.6958C328.345 95.8718 328.201 96.1718 328.201 96.5958C328.201 96.9158 328.313 97.1558 328.537 97.3158C328.769 97.4758 329.065 97.5558 329.425 97.5558C329.689 97.5558 329.921 97.5238 330.121 97.4598C330.329 97.3878 330.505 97.3038 330.649 97.2078C330.801 97.1038 330.921 96.9918 331.009 96.8718C331.105 96.7438 331.177 96.6198 331.225 96.4998V95.5398Z" fill="#474746"/>
<path d="M100.803 100.98H100.059L99.8552 99.3958H94.5392V93.0958H95.6432V98.4598H98.6792V93.0958H99.7832V98.4598H100.803V100.98ZM107.222 98.8798C106.942 99.0878 106.594 99.2558 106.178 99.3838C105.762 99.5038 105.31 99.5638 104.822 99.5638C104.294 99.5638 103.834 99.4878 103.442 99.3358C103.058 99.1758 102.742 98.9518 102.494 98.6638C102.246 98.3758 102.062 98.0278 101.942 97.6198C101.822 97.2118 101.762 96.7558 101.762 96.2518C101.762 95.1718 102.026 94.3478 102.554 93.7798C103.09 93.2038 103.85 92.9158 104.834 92.9158C105.146 92.9158 105.458 92.9518 105.77 93.0238C106.082 93.0878 106.362 93.2158 106.61 93.4078C106.858 93.5918 107.058 93.8478 107.21 94.1758C107.37 94.5038 107.45 94.9318 107.45 95.4598C107.45 95.5878 107.446 95.7358 107.438 95.9038C107.43 96.0718 107.414 96.2358 107.39 96.3958H102.89C102.906 97.1318 103.082 97.6878 103.418 98.0638C103.754 98.4398 104.326 98.6278 105.134 98.6278C105.47 98.6278 105.79 98.5718 106.094 98.4598C106.398 98.3398 106.634 98.1998 106.802 98.0398L107.222 98.8798ZM106.394 95.6038C106.41 94.9638 106.278 94.5118 105.998 94.2478C105.726 93.9838 105.342 93.8518 104.846 93.8518C104.286 93.8518 103.842 93.9838 103.514 94.2478C103.186 94.5118 102.994 94.9638 102.938 95.6038H106.394ZM109.27 93.0958H110.014L110.23 93.8998H110.338C110.554 93.5878 110.834 93.3478 111.178 93.1798C111.522 93.0038 111.91 92.9158 112.342 92.9158C113.254 92.9158 113.934 93.1718 114.382 93.6838C114.83 94.1878 115.054 94.9958 115.054 96.1078C115.054 96.6358 114.978 97.1158 114.826 97.5478C114.682 97.9718 114.47 98.3358 114.19 98.6398C113.918 98.9358 113.582 99.1638 113.182 99.3238C112.79 99.4838 112.35 99.5638 111.862 99.5638C111.702 99.5638 111.554 99.5558 111.418 99.5398C111.29 99.5318 111.17 99.5118 111.058 99.4798C110.946 99.4558 110.834 99.4278 110.722 99.3958C110.61 99.3558 110.494 99.3118 110.374 99.2638V101.796H109.27V93.0958ZM112.09 93.8518C111.61 93.8518 111.234 93.9718 110.962 94.2118C110.69 94.4518 110.494 94.8198 110.374 95.3158V98.2198C110.558 98.3478 110.758 98.4478 110.974 98.5198C111.19 98.5918 111.466 98.6278 111.802 98.6278C112.45 98.6278 112.958 98.4158 113.326 97.9918C113.694 97.5678 113.878 96.9358 113.878 96.0958C113.878 95.4158 113.742 94.8718 113.47 94.4638C113.198 94.0558 112.738 93.8518 112.09 93.8518ZM118.616 96.5638H117.932V99.3958H116.828V93.0958H117.932V95.9638L118.592 95.7478L120.74 93.0958H121.952L119.9 95.5438H119.912L119.264 96.0118L120.044 96.5518L122.264 99.3958H120.872L118.616 96.5638ZM123.391 93.0958L123.847 93.0718C124.103 93.0558 124.383 93.0398 124.687 93.0238C124.991 92.9998 125.343 92.9878 125.743 92.9878C126.671 92.9878 127.335 93.1198 127.735 93.3838C128.143 93.6398 128.347 94.0238 128.347 94.5358C128.347 94.8158 128.247 95.0998 128.047 95.3878C127.855 95.6678 127.547 95.8718 127.123 95.9998V96.1318C127.651 96.2358 128.027 96.4118 128.251 96.6598C128.483 96.9078 128.599 97.2358 128.599 97.6438C128.599 98.2758 128.339 98.7438 127.819 99.0478C127.299 99.3438 126.515 99.4918 125.467 99.4918C125.115 99.4918 124.783 99.4798 124.471 99.4558C124.159 99.4398 123.855 99.4198 123.559 99.3958C123.527 99.3958 123.499 99.3958 123.475 99.3958C123.451 99.3878 123.423 99.3838 123.391 99.3838V93.0958ZM124.495 98.5318C124.671 98.5558 124.843 98.5758 125.011 98.5918C125.179 98.5998 125.387 98.6038 125.635 98.6038C126.267 98.6038 126.723 98.5238 127.003 98.3638C127.283 98.1958 127.423 97.9238 127.423 97.5478C127.423 97.3958 127.395 97.2558 127.339 97.1278C127.283 96.9998 127.191 96.8918 127.063 96.8038C126.935 96.7158 126.759 96.6478 126.535 96.5998C126.319 96.5438 126.051 96.5158 125.731 96.5158H124.495V98.5318ZM125.863 95.7598C126.039 95.7598 126.207 95.7358 126.367 95.6878C126.527 95.6398 126.671 95.5718 126.799 95.4838C126.927 95.3958 127.027 95.2958 127.099 95.1838C127.179 95.0638 127.219 94.9358 127.219 94.7998C127.219 94.4638 127.103 94.2318 126.871 94.1038C126.647 93.9678 126.259 93.8998 125.707 93.8998C125.523 93.8998 125.335 93.9078 125.143 93.9238C124.959 93.9318 124.743 93.9398 124.495 93.9478V95.7598H125.863ZM130.303 93.4918C131.023 93.1478 131.915 92.9758 132.979 92.9758C133.459 92.9758 133.843 93.0398 134.131 93.1678C134.427 93.2878 134.655 93.4438 134.815 93.6358C134.975 93.8278 135.079 94.0438 135.127 94.2838C135.183 94.5158 135.211 94.7478 135.211 94.9798C135.211 95.4198 135.195 95.8638 135.163 96.3118C135.131 96.7518 135.115 97.2318 135.115 97.7518C135.115 98.0558 135.127 98.3518 135.151 98.6398C135.183 98.9198 135.231 99.1798 135.295 99.4198H134.491L134.191 98.4598H134.071C133.983 98.5798 133.875 98.7038 133.747 98.8318C133.619 98.9518 133.467 99.0598 133.291 99.1558C133.115 99.2518 132.911 99.3318 132.679 99.3958C132.455 99.4598 132.195 99.4918 131.899 99.4918C131.603 99.4918 131.331 99.4518 131.083 99.3718C130.835 99.2838 130.619 99.1638 130.435 99.0118C130.259 98.8598 130.119 98.6758 130.015 98.4598C129.911 98.2358 129.859 97.9878 129.859 97.7158C129.859 97.3558 129.935 97.0438 130.087 96.7798C130.247 96.5158 130.451 96.2998 130.699 96.1318C130.947 95.9638 131.227 95.8398 131.539 95.7598C131.859 95.6798 132.175 95.6398 132.487 95.6398C132.735 95.6398 132.943 95.6438 133.111 95.6518C133.287 95.6598 133.431 95.6718 133.543 95.6878C133.663 95.6958 133.763 95.7078 133.843 95.7238C133.923 95.7318 133.995 95.7398 134.059 95.7478C134.075 95.6278 134.087 95.5238 134.095 95.4358C134.103 95.3478 134.107 95.2358 134.107 95.0998C134.107 94.8758 134.083 94.6878 134.035 94.5358C133.987 94.3838 133.907 94.2638 133.795 94.1758C133.691 94.0798 133.547 94.0118 133.363 93.9718C133.179 93.9318 132.955 93.9118 132.691 93.9118C132.539 93.9118 132.371 93.9238 132.187 93.9478C132.003 93.9718 131.819 94.0078 131.635 94.0558C131.451 94.0958 131.267 94.1478 131.083 94.2118C130.907 94.2758 130.747 94.3438 130.603 94.4158L130.303 93.4918ZM134.059 96.5398C133.995 96.5318 133.927 96.5198 133.855 96.5038C133.783 96.4878 133.691 96.4758 133.579 96.4678C133.475 96.4598 133.347 96.4518 133.195 96.4438C133.051 96.4358 132.871 96.4318 132.655 96.4318C132.159 96.4318 131.763 96.5198 131.467 96.6958C131.179 96.8718 131.035 97.1718 131.035 97.5958C131.035 97.9158 131.147 98.1558 131.371 98.3158C131.603 98.4758 131.899 98.5558 132.259 98.5558C132.523 98.5558 132.755 98.5238 132.955 98.4598C133.163 98.3878 133.339 98.3038 133.483 98.2078C133.635 98.1038 133.755 97.9918 133.843 97.8718C133.939 97.7438 134.011 97.6198 134.059 97.4998V96.5398ZM146.804 99.0358C146.54 99.2278 146.204 99.3598 145.796 99.4318C145.388 99.5118 144.956 99.5518 144.5 99.5518C143.964 99.5518 143.452 99.4678 142.964 99.2998C142.484 99.1238 142.06 98.8598 141.692 98.5078C141.324 98.1478 141.032 97.6958 140.816 97.1518C140.6 96.5998 140.492 95.9478 140.492 95.1958C140.492 94.4118 140.612 93.7438 140.852 93.1918C141.092 92.6398 141.404 92.1918 141.788 91.8478C142.172 91.4958 142.604 91.2398 143.084 91.0798C143.564 90.9198 144.04 90.8398 144.512 90.8398C145.04 90.8398 145.472 90.8678 145.808 90.9238C146.144 90.9798 146.428 91.0518 146.66 91.1398L146.396 92.1718C146.004 91.9878 145.408 91.8958 144.608 91.8958C144.248 91.8958 143.896 91.9558 143.552 92.0758C143.216 92.1878 142.912 92.3758 142.64 92.6398C142.376 92.8958 142.164 93.2358 142.004 93.6598C141.844 94.0758 141.764 94.5878 141.764 95.1958C141.764 95.7398 141.84 96.2198 141.992 96.6358C142.144 97.0438 142.352 97.3878 142.616 97.6678C142.888 97.9398 143.204 98.1478 143.564 98.2918C143.932 98.4278 144.332 98.4958 144.764 98.4958C145.156 98.4958 145.496 98.4598 145.784 98.3878C146.072 98.3158 146.316 98.2238 146.516 98.1118L146.804 99.0358ZM148.34 93.0958L148.796 93.0718C149.052 93.0558 149.332 93.0398 149.636 93.0238C149.94 92.9998 150.292 92.9878 150.692 92.9878C151.62 92.9878 152.284 93.1198 152.684 93.3838C153.092 93.6398 153.296 94.0238 153.296 94.5358C153.296 94.8158 153.196 95.0998 152.996 95.3878C152.804 95.6678 152.496 95.8718 152.072 95.9998V96.1318C152.6 96.2358 152.976 96.4118 153.2 96.6598C153.432 96.9078 153.548 97.2358 153.548 97.6438C153.548 98.2758 153.288 98.7438 152.768 99.0478C152.248 99.3438 151.464 99.4918 150.416 99.4918C150.064 99.4918 149.732 99.4798 149.42 99.4558C149.108 99.4398 148.804 99.4198 148.508 99.3958C148.476 99.3958 148.448 99.3958 148.424 99.3958C148.4 99.3878 148.372 99.3838 148.34 99.3838V93.0958ZM149.444 98.5318C149.62 98.5558 149.792 98.5758 149.96 98.5918C150.128 98.5998 150.336 98.6038 150.584 98.6038C151.216 98.6038 151.672 98.5238 151.952 98.3638C152.232 98.1958 152.372 97.9238 152.372 97.5478C152.372 97.3958 152.344 97.2558 152.288 97.1278C152.232 96.9998 152.14 96.8918 152.012 96.8038C151.884 96.7158 151.708 96.6478 151.484 96.5998C151.268 96.5438 151 96.5158 150.68 96.5158H149.444V98.5318ZM150.812 95.7598C150.988 95.7598 151.156 95.7358 151.316 95.6878C151.476 95.6398 151.62 95.5718 151.748 95.4838C151.876 95.3958 151.976 95.2958 152.048 95.1838C152.128 95.0638 152.168 94.9358 152.168 94.7998C152.168 94.4638 152.052 94.2318 151.82 94.1038C151.596 93.9678 151.208 93.8998 150.656 93.8998C150.472 93.8998 150.284 93.9078 150.092 93.9238C149.908 93.9318 149.692 93.9398 149.444 93.9478V95.7598H150.812ZM154.892 98.7838C154.892 98.5518 154.964 98.3678 155.108 98.2318C155.26 98.0958 155.456 98.0278 155.696 98.0278C155.936 98.0278 156.128 98.0958 156.272 98.2318C156.424 98.3678 156.5 98.5518 156.5 98.7838C156.5 98.9998 156.424 99.1798 156.272 99.3238C156.128 99.4678 155.936 99.5398 155.696 99.5398C155.456 99.5398 155.26 99.4678 155.108 99.3238C154.964 99.1798 154.892 98.9998 154.892 98.7838ZM165.354 97.1998H162.03L161.142 99.3958H159.966L163.422 90.8758H164.046L167.514 99.3958H166.266L165.354 97.1998ZM162.39 96.1918H165.006L164.034 93.8038L163.71 92.5198H163.686L163.362 93.8278L162.39 96.1918ZM172.932 96.6478H169.764V99.3958H168.66V93.0958H169.764V95.6638H172.932V93.0958H174.036V99.3958H172.932V96.6478ZM180.421 96.6478H177.253V99.3958H176.149V93.0958H177.253V95.6638H180.421V93.0958H181.525V99.3958H180.421V96.6478ZM187.993 95.7958L188.161 94.5478H188.029L187.441 95.7238L184.489 99.3958H183.637V93.0958H184.741V96.8158L184.657 97.9198H184.789L185.341 96.8518L188.233 93.0958H189.097V99.3958H187.993V95.7958Z" fill="#474746"/>
<path d="M330.948 9.64992H327.852V15.0139H326.748V8.71392H332.052V15.0139H330.948V9.64992ZM337.958 9.64992H335.918L335.894 10.0099C335.838 10.8019 335.77 11.5139 335.69 12.1459C335.618 12.7699 335.51 13.3019 335.366 13.7419C335.222 14.1739 335.03 14.5059 334.79 14.7379C334.55 14.9619 334.238 15.0739 333.854 15.0739C333.678 15.0739 333.522 15.0619 333.386 15.0379C333.25 15.0219 333.134 14.9939 333.038 14.9539L333.206 13.9459C333.31 13.9779 333.426 13.9939 333.554 13.9939C333.746 13.9939 333.918 13.9259 334.07 13.7899C334.222 13.6459 334.354 13.3819 334.466 12.9979C334.578 12.6139 334.67 12.0779 334.742 11.3899C334.814 10.7019 334.866 9.80992 334.898 8.71392H339.062V15.0139H337.958V9.64992ZM340.742 14.4019C340.742 14.1699 340.814 13.9859 340.958 13.8499C341.11 13.7139 341.306 13.6459 341.546 13.6459C341.786 13.6459 341.978 13.7139 342.122 13.8499C342.274 13.9859 342.35 14.1699 342.35 14.4019C342.35 14.6179 342.274 14.7979 342.122 14.9419C341.978 15.0859 341.786 15.1579 341.546 15.1579C341.306 15.1579 341.11 15.0859 340.958 14.9419C340.814 14.7979 340.742 14.6179 340.742 14.4019ZM349.985 14.6539C349.721 14.8459 349.385 14.9779 348.977 15.0499C348.569 15.1299 348.137 15.1699 347.681 15.1699C347.145 15.1699 346.633 15.0859 346.145 14.9179C345.665 14.7419 345.241 14.4779 344.873 14.1259C344.505 13.7659 344.213 13.3139 343.997 12.7699C343.781 12.2179 343.673 11.5659 343.673 10.8139C343.673 10.0299 343.793 9.36192 344.033 8.80992C344.273 8.25792 344.585 7.80992 344.969 7.46592C345.353 7.11392 345.785 6.85792 346.265 6.69792C346.745 6.53792 347.221 6.45792 347.693 6.45792C348.221 6.45792 348.653 6.48592 348.989 6.54192C349.325 6.59792 349.609 6.66992 349.841 6.75792L349.577 7.78992C349.185 7.60592 348.589 7.51392 347.789 7.51392C347.429 7.51392 347.077 7.57392 346.733 7.69392C346.397 7.80592 346.093 7.99392 345.821 8.25792C345.557 8.51392 345.345 8.85392 345.185 9.27792C345.025 9.69392 344.945 10.2059 344.945 10.8139C344.945 11.3579 345.021 11.8379 345.173 12.2539C345.325 12.6619 345.533 13.0059 345.797 13.2859C346.069 13.5579 346.385 13.7659 346.745 13.9099C347.113 14.0459 347.513 14.1139 347.945 14.1139C348.337 14.1139 348.677 14.0779 348.965 14.0059C349.253 13.9339 349.497 13.8419 349.697 13.7299L349.985 14.6539ZM355.199 9.64992H353.015V15.0139H351.911V9.64992H349.727V8.71392H355.199V9.64992ZM356.184 9.10992C356.904 8.76592 357.796 8.59392 358.86 8.59392C359.34 8.59392 359.724 8.65792 360.012 8.78592C360.308 8.90592 360.536 9.06192 360.696 9.25392C360.856 9.44592 360.96 9.66192 361.008 9.90192C361.064 10.1339 361.092 10.3659 361.092 10.5979C361.092 11.0379 361.076 11.4819 361.044 11.9299C361.012 12.3699 360.996 12.8499 360.996 13.3699C360.996 13.6739 361.008 13.9699 361.032 14.2579C361.064 14.5379 361.112 14.7979 361.176 15.0379H360.372L360.072 14.0779H359.952C359.864 14.1979 359.756 14.3219 359.628 14.4499C359.5 14.5699 359.348 14.6779 359.172 14.7739C358.996 14.8699 358.792 14.9499 358.56 15.0139C358.336 15.0779 358.076 15.1099 357.78 15.1099C357.484 15.1099 357.212 15.0699 356.964 14.9899C356.716 14.9019 356.5 14.7819 356.316 14.6299C356.14 14.4779 356 14.2939 355.896 14.0779C355.792 13.8539 355.74 13.6059 355.74 13.3339C355.74 12.9739 355.816 12.6619 355.968 12.3979C356.128 12.1339 356.332 11.9179 356.58 11.7499C356.828 11.5819 357.108 11.4579 357.42 11.3779C357.74 11.2979 358.056 11.2579 358.368 11.2579C358.616 11.2579 358.824 11.2619 358.992 11.2699C359.168 11.2779 359.312 11.2899 359.424 11.3059C359.544 11.3139 359.644 11.3259 359.724 11.3419C359.804 11.3499 359.876 11.3579 359.94 11.3659C359.956 11.2459 359.968 11.1419 359.976 11.0539C359.984 10.9659 359.988 10.8539 359.988 10.7179C359.988 10.4939 359.964 10.3059 359.916 10.1539C359.868 10.0019 359.788 9.88192 359.676 9.79392C359.572 9.69792 359.428 9.62992 359.244 9.58992C359.06 9.54992 358.836 9.52992 358.572 9.52992C358.42 9.52992 358.252 9.54192 358.068 9.56592C357.884 9.58992 357.7 9.62592 357.516 9.67392C357.332 9.71392 357.148 9.76592 356.964 9.82992C356.788 9.89392 356.628 9.96192 356.484 10.0339L356.184 9.10992ZM359.94 12.1579C359.876 12.1499 359.808 12.1379 359.736 12.1219C359.664 12.1059 359.572 12.0939 359.46 12.0859C359.356 12.0779 359.228 12.0699 359.076 12.0619C358.932 12.0539 358.752 12.0499 358.536 12.0499C358.04 12.0499 357.644 12.1379 357.348 12.3139C357.06 12.4899 356.916 12.7899 356.916 13.2139C356.916 13.5339 357.028 13.7739 357.252 13.9339C357.484 14.0939 357.78 14.1739 358.14 14.1739C358.404 14.1739 358.636 14.1419 358.836 14.0779C359.044 14.0059 359.22 13.9219 359.364 13.8259C359.516 13.7219 359.636 13.6099 359.724 13.4899C359.82 13.3619 359.892 13.2379 359.94 13.1179V12.1579ZM363.24 8.71392H363.984L364.2 9.51792H364.308C364.524 9.20592 364.804 8.96592 365.148 8.79792C365.492 8.62192 365.88 8.53392 366.312 8.53392C367.224 8.53392 367.904 8.78992 368.352 9.30192C368.8 9.80592 369.024 10.6139 369.024 11.7259C369.024 12.2539 368.948 12.7339 368.796 13.1659C368.652 13.5899 368.44 13.9539 368.16 14.2579C367.888 14.5539 367.552 14.7819 367.152 14.9419C366.76 15.1019 366.32 15.1819 365.832 15.1819C365.672 15.1819 365.524 15.1739 365.388 15.1579C365.26 15.1499 365.14 15.1299 365.028 15.0979C364.916 15.0739 364.804 15.0459 364.692 15.0139C364.58 14.9739 364.464 14.9299 364.344 14.8819V17.4139H363.24V8.71392ZM366.06 9.46992C365.58 9.46992 365.204 9.58992 364.932 9.82992C364.66 10.0699 364.464 10.4379 364.344 10.9339V13.8379C364.528 13.9659 364.728 14.0659 364.944 14.1379C365.16 14.2099 365.436 14.2459 365.772 14.2459C366.42 14.2459 366.928 14.0339 367.296 13.6099C367.664 13.1859 367.848 12.5539 367.848 11.7139C367.848 11.0339 367.712 10.4899 367.44 10.0819C367.168 9.67392 366.708 9.46992 366.06 9.46992ZM375.155 11.4139L375.323 10.1659H375.191L374.603 11.3419L371.651 15.0139H370.799V8.71392H371.903V12.4339L371.819 13.5379H371.951L372.503 12.4699L375.395 8.71392H376.259V15.0139H375.155V11.4139ZM382.725 11.4139L382.893 10.1659H382.761L382.173 11.3419L379.221 15.0139H378.369V8.71392H379.473V12.4339L379.389 13.5379H379.521L380.073 12.4699L382.965 8.71392H383.829V15.0139H382.725V11.4139ZM380.073 6.46992C380.113 6.64592 380.169 6.78592 380.241 6.88992C380.313 6.99392 380.397 7.07392 380.493 7.12992C380.589 7.17792 380.697 7.20992 380.817 7.22592C380.945 7.23392 381.077 7.23792 381.213 7.23792C381.349 7.23792 381.477 7.22992 381.597 7.21392C381.725 7.19792 381.837 7.16192 381.933 7.10592C382.029 7.04992 382.113 6.97392 382.185 6.87792C382.257 6.78192 382.313 6.64992 382.353 6.48192L383.217 6.73392C383.129 7.20592 382.897 7.53792 382.521 7.72992C382.153 7.92192 381.709 8.01792 381.189 8.01792C380.941 8.01792 380.701 7.99792 380.469 7.95792C380.237 7.91792 380.025 7.84992 379.833 7.75392C379.649 7.65792 379.489 7.53392 379.353 7.38192C379.225 7.22192 379.137 7.02192 379.089 6.78192L380.073 6.46992ZM389.444 6.69792C389.78 6.62592 390.144 6.57792 390.536 6.55392C390.936 6.52192 391.328 6.50592 391.712 6.50592C392.12 6.50592 392.532 6.54192 392.948 6.61392C393.372 6.68592 393.756 6.81792 394.1 7.00992C394.444 7.20192 394.724 7.46992 394.94 7.81392C395.164 8.14992 395.276 8.58592 395.276 9.12192C395.276 9.62592 395.176 10.0579 394.976 10.4179C394.776 10.7699 394.508 11.0579 394.172 11.2819C393.844 11.5059 393.464 11.6699 393.032 11.7739C392.608 11.8779 392.168 11.9299 391.712 11.9299C391.664 11.9299 391.588 11.9299 391.484 11.9299C391.388 11.9219 391.284 11.9179 391.172 11.9179C391.068 11.9099 390.964 11.9019 390.86 11.8939C390.764 11.8859 390.692 11.8779 390.644 11.8699V15.0139H389.444V6.69792ZM391.748 7.53792C391.532 7.53792 391.32 7.54192 391.112 7.54992C390.912 7.55792 390.756 7.57792 390.644 7.60992V10.8379C390.684 10.8539 390.748 10.8659 390.836 10.8739C390.932 10.8739 391.028 10.8779 391.124 10.8859C391.228 10.8939 391.324 10.8979 391.412 10.8979C391.508 10.8979 391.58 10.8979 391.628 10.8979C391.916 10.8979 392.2 10.8779 392.48 10.8379C392.76 10.7899 393.012 10.7019 393.236 10.5739C393.468 10.4459 393.652 10.2659 393.788 10.0339C393.932 9.80192 394.004 9.50192 394.004 9.13392C394.004 8.81392 393.936 8.54992 393.8 8.34192C393.664 8.13392 393.488 7.96992 393.272 7.84992C393.056 7.72992 392.812 7.64992 392.54 7.60992C392.276 7.56192 392.012 7.53792 391.748 7.53792ZM400.749 11.4139L400.917 10.1659H400.785L400.197 11.3419L397.245 15.0139H396.393V8.71392H397.497V12.4339L397.413 13.5379H397.545L398.097 12.4699L400.989 8.71392H401.853V15.0139H400.749V11.4139ZM408.235 12.2659H405.067V15.0139H403.963V8.71392H405.067V11.2819H408.235V8.71392H409.339V15.0139H408.235V12.2659ZM411.115 11.8699C411.115 11.3499 411.183 10.8859 411.319 10.4779C411.455 10.0619 411.655 9.70992 411.919 9.42192C412.183 9.13392 412.503 8.91392 412.879 8.76192C413.263 8.60992 413.699 8.53392 414.187 8.53392C414.699 8.53392 415.147 8.61792 415.531 8.78592C415.915 8.95392 416.235 9.18992 416.491 9.49392C416.747 9.78992 416.935 10.1419 417.055 10.5499C417.183 10.9499 417.247 11.3899 417.247 11.8699C417.247 12.3819 417.175 12.8419 417.031 13.2499C416.895 13.6579 416.695 14.0059 416.431 14.2939C416.175 14.5819 415.855 14.8019 415.471 14.9539C415.095 15.1059 414.667 15.1819 414.187 15.1819C413.659 15.1819 413.203 15.0979 412.819 14.9299C412.435 14.7619 412.115 14.5299 411.859 14.2339C411.611 13.9379 411.423 13.5899 411.295 13.1899C411.175 12.7819 411.115 12.3419 411.115 11.8699ZM412.291 11.8699C412.291 12.1659 412.323 12.4579 412.387 12.7459C412.459 13.0259 412.571 13.2779 412.723 13.5019C412.875 13.7259 413.071 13.9059 413.311 14.0419C413.551 14.1779 413.847 14.2459 414.199 14.2459C415.447 14.2459 416.071 13.4539 416.071 11.8699C416.071 11.5579 416.035 11.2579 415.963 10.9699C415.899 10.6819 415.791 10.4299 415.639 10.2139C415.495 9.98992 415.303 9.80992 415.063 9.67392C414.823 9.53792 414.535 9.46992 414.199 9.46992C413.575 9.46992 413.099 9.66992 412.771 10.0699C412.451 10.4619 412.291 11.0619 412.291 11.8699ZM420.81 12.1819H420.126V15.0139H419.022V8.71392H420.126V11.5819L420.786 11.3659L422.934 8.71392H424.146L422.094 11.1619H422.106L421.458 11.6299L422.238 12.1699L424.458 15.0139H423.066L420.81 12.1819Z" fill="#474746"/>
<path d="M291.84 229.59H171V225.25H290.05L376.55 138.74L379.62 141.81L291.84 229.59Z" fill="#E62139"/>
<path d="M85.3965 227.935H82.3005V233.299H81.1965V226.999H86.5005V233.299H85.3965V227.935ZM92.4065 227.935H90.3665L90.3425 228.295C90.2865 229.087 90.2185 229.799 90.1385 230.431C90.0665 231.055 89.9585 231.587 89.8145 232.027C89.6705 232.459 89.4785 232.791 89.2385 233.023C88.9985 233.247 88.6865 233.359 88.3025 233.359C88.1265 233.359 87.9705 233.347 87.8345 233.323C87.6985 233.307 87.5825 233.279 87.4865 233.239L87.6545 232.231C87.7585 232.263 87.8745 232.279 88.0025 232.279C88.1945 232.279 88.3665 232.211 88.5185 232.075C88.6705 231.931 88.8025 231.667 88.9145 231.283C89.0265 230.899 89.1185 230.363 89.1905 229.675C89.2625 228.987 89.3145 228.095 89.3465 226.999H93.5105V233.299H92.4065V227.935ZM95.1903 232.687C95.1903 232.455 95.2623 232.271 95.4063 232.135C95.5583 231.999 95.7543 231.931 95.9943 231.931C96.2343 231.931 96.4263 231.999 96.5703 232.135C96.7223 232.271 96.7983 232.455 96.7983 232.687C96.7983 232.903 96.7223 233.083 96.5703 233.227C96.4263 233.371 96.2343 233.443 95.9943 233.443C95.7543 233.443 95.5583 233.371 95.4063 233.227C95.2623 233.083 95.1903 232.903 95.1903 232.687ZM102.343 225.691H101.383V224.899H104.503V225.691H103.543V232.507H104.503V233.299H101.383V232.507H102.343V225.691ZM105.96 232.687C105.96 232.455 106.032 232.271 106.176 232.135C106.328 231.999 106.524 231.931 106.764 231.931C107.004 231.931 107.196 231.999 107.34 232.135C107.492 232.271 107.568 232.455 107.568 232.687C107.568 232.903 107.492 233.083 107.34 233.227C107.196 233.371 107.004 233.443 106.764 233.443C106.524 233.443 106.328 233.371 106.176 233.227C106.032 233.083 105.96 232.903 105.96 232.687ZM115.884 232.375C115.724 232.399 115.548 232.415 115.356 232.423C115.172 232.431 114.992 232.435 114.816 232.435C114.4 232.435 114.012 232.367 113.652 232.231C113.292 232.095 112.976 231.891 112.704 231.619C112.44 231.339 112.228 230.991 112.068 230.575C111.916 230.159 111.84 229.667 111.84 229.099C111.84 228.563 111.916 228.083 112.068 227.659C112.228 227.227 112.448 226.863 112.728 226.567C113.016 226.263 113.356 226.031 113.748 225.871C114.148 225.711 114.588 225.631 115.068 225.631C115.18 225.631 115.32 225.635 115.488 225.643C115.656 225.651 115.788 225.667 115.884 225.691V224.659H117.036V225.727C117.196 225.687 117.38 225.663 117.588 225.655C117.796 225.639 117.968 225.631 118.104 225.631C118.52 225.631 118.908 225.703 119.268 225.847C119.636 225.991 119.952 226.207 120.216 226.495C120.488 226.775 120.7 227.123 120.852 227.539C121.004 227.955 121.08 228.435 121.08 228.979C121.08 229.539 120.992 230.035 120.816 230.467C120.648 230.899 120.416 231.263 120.12 231.559C119.832 231.847 119.492 232.067 119.1 232.219C118.716 232.363 118.308 232.435 117.876 232.435C117.78 232.435 117.64 232.431 117.456 232.423C117.28 232.407 117.14 232.383 117.036 232.351V233.539H115.884V232.375ZM117.924 226.591C117.804 226.591 117.648 226.595 117.456 226.603C117.272 226.611 117.124 226.631 117.012 226.663V231.439C117.1 231.455 117.212 231.467 117.348 231.475C117.484 231.475 117.616 231.475 117.744 231.475C118.032 231.475 118.304 231.423 118.56 231.319C118.816 231.215 119.04 231.063 119.232 230.863C119.424 230.655 119.576 230.395 119.688 230.083C119.8 229.771 119.856 229.403 119.856 228.979C119.856 228.627 119.808 228.307 119.712 228.019C119.624 227.723 119.496 227.471 119.328 227.263C119.16 227.047 118.956 226.883 118.716 226.771C118.476 226.651 118.212 226.591 117.924 226.591ZM115.044 231.475C115.132 231.475 115.268 231.475 115.452 231.475C115.636 231.467 115.788 231.443 115.908 231.403V226.639C115.804 226.623 115.68 226.611 115.536 226.603C115.392 226.595 115.256 226.591 115.128 226.591C114.84 226.591 114.572 226.643 114.324 226.747C114.076 226.851 113.856 227.011 113.664 227.227C113.48 227.435 113.332 227.695 113.22 228.007C113.116 228.319 113.064 228.683 113.064 229.099C113.064 229.459 113.112 229.787 113.208 230.083C113.304 230.371 113.44 230.619 113.616 230.827C113.792 231.035 114 231.195 114.24 231.307C114.488 231.419 114.756 231.475 115.044 231.475ZM122.669 226.999H123.413L123.629 227.803H123.737C123.953 227.491 124.233 227.251 124.577 227.083C124.921 226.907 125.309 226.819 125.741 226.819C126.653 226.819 127.333 227.075 127.781 227.587C128.229 228.091 128.453 228.899 128.453 230.011C128.453 230.539 128.377 231.019 128.225 231.451C128.081 231.875 127.869 232.239 127.589 232.543C127.317 232.839 126.981 233.067 126.581 233.227C126.189 233.387 125.749 233.467 125.261 233.467C125.101 233.467 124.953 233.459 124.817 233.443C124.689 233.435 124.569 233.415 124.457 233.383C124.345 233.359 124.233 233.331 124.121 233.299C124.009 233.259 123.893 233.215 123.773 233.167V235.699H122.669V226.999ZM125.489 227.755C125.009 227.755 124.633 227.875 124.361 228.115C124.089 228.355 123.893 228.723 123.773 229.219V232.123C123.957 232.251 124.157 232.351 124.373 232.423C124.589 232.495 124.865 232.531 125.201 232.531C125.849 232.531 126.357 232.319 126.725 231.895C127.093 231.471 127.277 230.839 127.277 229.999C127.277 229.319 127.141 228.775 126.869 228.367C126.597 227.959 126.137 227.755 125.489 227.755ZM130.156 227.395C130.876 227.051 131.768 226.879 132.832 226.879C133.312 226.879 133.696 226.943 133.984 227.071C134.28 227.191 134.508 227.347 134.668 227.539C134.828 227.731 134.932 227.947 134.98 228.187C135.036 228.419 135.064 228.651 135.064 228.883C135.064 229.323 135.048 229.767 135.016 230.215C134.984 230.655 134.968 231.135 134.968 231.655C134.968 231.959 134.98 232.255 135.004 232.543C135.036 232.823 135.084 233.083 135.148 233.323H134.344L134.044 232.363H133.924C133.836 232.483 133.728 232.607 133.6 232.735C133.472 232.855 133.32 232.963 133.144 233.059C132.968 233.155 132.764 233.235 132.532 233.299C132.308 233.363 132.048 233.395 131.752 233.395C131.456 233.395 131.184 233.355 130.936 233.275C130.688 233.187 130.472 233.067 130.288 232.915C130.112 232.763 129.972 232.579 129.868 232.363C129.764 232.139 129.712 231.891 129.712 231.619C129.712 231.259 129.788 230.947 129.94 230.683C130.1 230.419 130.304 230.203 130.552 230.035C130.8 229.867 131.08 229.743 131.392 229.663C131.712 229.583 132.028 229.543 132.34 229.543C132.588 229.543 132.796 229.547 132.964 229.555C133.14 229.563 133.284 229.575 133.396 229.591C133.516 229.599 133.616 229.611 133.696 229.627C133.776 229.635 133.848 229.643 133.912 229.651C133.928 229.531 133.94 229.427 133.948 229.339C133.956 229.251 133.96 229.139 133.96 229.003C133.96 228.779 133.936 228.591 133.888 228.439C133.84 228.287 133.76 228.167 133.648 228.079C133.544 227.983 133.4 227.915 133.216 227.875C133.032 227.835 132.808 227.815 132.544 227.815C132.392 227.815 132.224 227.827 132.04 227.851C131.856 227.875 131.672 227.911 131.488 227.959C131.304 227.999 131.12 228.051 130.936 228.115C130.76 228.179 130.6 228.247 130.456 228.319L130.156 227.395ZM133.912 230.443C133.848 230.435 133.78 230.423 133.708 230.407C133.636 230.391 133.544 230.379 133.432 230.371C133.328 230.363 133.2 230.355 133.048 230.347C132.904 230.339 132.724 230.335 132.508 230.335C132.012 230.335 131.616 230.423 131.32 230.599C131.032 230.775 130.888 231.075 130.888 231.499C130.888 231.819 131 232.059 131.224 232.219C131.456 232.379 131.752 232.459 132.112 232.459C132.376 232.459 132.608 232.427 132.808 232.363C133.016 232.291 133.192 232.207 133.336 232.111C133.488 232.007 133.608 231.895 133.696 231.775C133.792 231.647 133.864 231.523 133.912 231.403V230.443ZM141.484 230.551H138.316V233.299H137.212V226.999H138.316V229.567H141.484V226.999H142.588V233.299H141.484V230.551ZM146.488 230.467H145.804V233.299H144.7V226.999H145.804V229.867L146.464 229.651L148.612 226.999H149.824L147.772 229.447H147.784L147.136 229.915L147.916 230.455L150.136 233.299H148.744L146.488 230.467ZM151.191 227.395C151.911 227.051 152.803 226.879 153.867 226.879C154.347 226.879 154.731 226.943 155.019 227.071C155.315 227.191 155.543 227.347 155.703 227.539C155.863 227.731 155.967 227.947 156.015 228.187C156.071 228.419 156.099 228.651 156.099 228.883C156.099 229.323 156.083 229.767 156.051 230.215C156.019 230.655 156.003 231.135 156.003 231.655C156.003 231.959 156.015 232.255 156.039 232.543C156.071 232.823 156.119 233.083 156.183 233.323H155.379L155.079 232.363H154.959C154.871 232.483 154.763 232.607 154.635 232.735C154.507 232.855 154.355 232.963 154.179 233.059C154.003 233.155 153.799 233.235 153.567 233.299C153.343 233.363 153.083 233.395 152.787 233.395C152.491 233.395 152.219 233.355 151.971 233.275C151.723 233.187 151.507 233.067 151.323 232.915C151.147 232.763 151.007 232.579 150.903 232.363C150.799 232.139 150.747 231.891 150.747 231.619C150.747 231.259 150.823 230.947 150.975 230.683C151.135 230.419 151.339 230.203 151.587 230.035C151.835 229.867 152.115 229.743 152.427 229.663C152.747 229.583 153.063 229.543 153.375 229.543C153.623 229.543 153.831 229.547 153.999 229.555C154.175 229.563 154.319 229.575 154.431 229.591C154.551 229.599 154.651 229.611 154.731 229.627C154.811 229.635 154.883 229.643 154.947 229.651C154.963 229.531 154.975 229.427 154.983 229.339C154.991 229.251 154.995 229.139 154.995 229.003C154.995 228.779 154.971 228.591 154.923 228.439C154.875 228.287 154.795 228.167 154.683 228.079C154.579 227.983 154.435 227.915 154.251 227.875C154.067 227.835 153.843 227.815 153.579 227.815C153.427 227.815 153.259 227.827 153.075 227.851C152.891 227.875 152.707 227.911 152.523 227.959C152.339 227.999 152.155 228.051 151.971 228.115C151.795 228.179 151.635 228.247 151.491 228.319L151.191 227.395ZM154.947 230.443C154.883 230.435 154.815 230.423 154.743 230.407C154.671 230.391 154.579 230.379 154.467 230.371C154.363 230.363 154.235 230.355 154.083 230.347C153.939 230.339 153.759 230.335 153.543 230.335C153.047 230.335 152.651 230.423 152.355 230.599C152.067 230.775 151.923 231.075 151.923 231.499C151.923 231.819 152.035 232.059 152.259 232.219C152.491 232.379 152.787 232.459 153.147 232.459C153.411 232.459 153.643 232.427 153.843 232.363C154.051 232.291 154.227 232.207 154.371 232.111C154.523 232.007 154.643 231.895 154.731 231.775C154.827 231.647 154.899 231.523 154.947 231.403V230.443Z" fill="#474746"/>
<path d="M5.52187 157.894H2.42587V163.258H1.32187V156.958H6.62587V163.258H5.52187V157.894ZM8.66784 157.354C9.38784 157.01 10.2798 156.838 11.3438 156.838C11.8238 156.838 12.2078 156.902 12.4958 157.03C12.7918 157.15 13.0198 157.306 13.1798 157.498C13.3398 157.69 13.4438 157.906 13.4918 158.146C13.5478 158.378 13.5758 158.61 13.5758 158.842C13.5758 159.282 13.5598 159.726 13.5278 160.174C13.4958 160.614 13.4798 161.094 13.4798 161.614C13.4798 161.918 13.4918 162.214 13.5158 162.502C13.5478 162.782 13.5958 163.042 13.6598 163.282H12.8558L12.5558 162.322H12.4358C12.3478 162.442 12.2398 162.566 12.1118 162.694C11.9838 162.814 11.8318 162.922 11.6558 163.018C11.4798 163.114 11.2758 163.194 11.0438 163.258C10.8198 163.322 10.5598 163.354 10.2638 163.354C9.96784 163.354 9.69584 163.314 9.44784 163.234C9.19984 163.146 8.98384 163.026 8.79984 162.874C8.62384 162.722 8.48384 162.538 8.37984 162.322C8.27584 162.098 8.22384 161.85 8.22384 161.578C8.22384 161.218 8.29984 160.906 8.45184 160.642C8.61184 160.378 8.81584 160.162 9.06384 159.994C9.31184 159.826 9.59184 159.702 9.90384 159.622C10.2238 159.542 10.5398 159.502 10.8518 159.502C11.0998 159.502 11.3078 159.506 11.4758 159.514C11.6518 159.522 11.7958 159.534 11.9078 159.55C12.0278 159.558 12.1278 159.57 12.2078 159.586C12.2878 159.594 12.3598 159.602 12.4238 159.61C12.4398 159.49 12.4518 159.386 12.4598 159.298C12.4678 159.21 12.4718 159.098 12.4718 158.962C12.4718 158.738 12.4478 158.55 12.3998 158.398C12.3518 158.246 12.2718 158.126 12.1598 158.038C12.0558 157.942 11.9118 157.874 11.7278 157.834C11.5438 157.794 11.3198 157.774 11.0558 157.774C10.9038 157.774 10.7358 157.786 10.5518 157.81C10.3678 157.834 10.1838 157.87 9.99984 157.918C9.81584 157.958 9.63184 158.01 9.44784 158.074C9.27184 158.138 9.11184 158.206 8.96784 158.278L8.66784 157.354ZM12.4238 160.402C12.3598 160.394 12.2918 160.382 12.2198 160.366C12.1478 160.35 12.0558 160.338 11.9438 160.33C11.8398 160.322 11.7118 160.314 11.5598 160.306C11.4158 160.298 11.2358 160.294 11.0198 160.294C10.5238 160.294 10.1278 160.382 9.83184 160.558C9.54384 160.734 9.39984 161.034 9.39984 161.458C9.39984 161.778 9.51184 162.018 9.73584 162.178C9.96784 162.338 10.2638 162.418 10.6238 162.418C10.8878 162.418 11.1198 162.386 11.3198 162.322C11.5278 162.25 11.7038 162.166 11.8478 162.07C11.9998 161.966 12.1198 161.854 12.2078 161.734C12.3038 161.606 12.3758 161.482 12.4238 161.362V160.402ZM15.7242 156.958H16.4682L16.6842 157.762H16.7922C17.0082 157.45 17.2882 157.21 17.6322 157.042C17.9762 156.866 18.3642 156.778 18.7962 156.778C19.7082 156.778 20.3882 157.034 20.8362 157.546C21.2842 158.05 21.5082 158.858 21.5082 159.97C21.5082 160.498 21.4322 160.978 21.2802 161.41C21.1362 161.834 20.9242 162.198 20.6442 162.502C20.3722 162.798 20.0362 163.026 19.6362 163.186C19.2442 163.346 18.8042 163.426 18.3162 163.426C18.1562 163.426 18.0082 163.418 17.8722 163.402C17.7442 163.394 17.6242 163.374 17.5122 163.342C17.4002 163.318 17.2882 163.29 17.1762 163.258C17.0642 163.218 16.9482 163.174 16.8282 163.126V165.658H15.7242V156.958ZM18.5442 157.714C18.0642 157.714 17.6882 157.834 17.4162 158.074C17.1442 158.314 16.9482 158.682 16.8282 159.178V162.082C17.0122 162.21 17.2122 162.31 17.4282 162.382C17.6442 162.454 17.9202 162.49 18.2562 162.49C18.9042 162.49 19.4122 162.278 19.7802 161.854C20.1482 161.43 20.3322 160.798 20.3322 159.958C20.3322 159.278 20.1962 158.734 19.9242 158.326C19.6522 157.918 19.1922 157.714 18.5442 157.714ZM25.0708 160.426H24.3868V163.258H23.2828V156.958H24.3868V159.826L25.0468 159.61L27.1948 156.958H28.4068L26.3548 159.406H26.3668L25.7188 159.874L26.4988 160.414L28.7188 163.258H27.3268L25.0708 160.426ZM35.1375 159.442H34.5495V163.258H33.3495V154.858H34.5495V158.722L35.1015 158.554L38.1255 154.858H39.4935L36.4695 158.458L35.9055 158.866L36.5655 159.346L39.9015 163.258H38.3895L35.1375 159.442ZM43.3208 160.942L43.6928 162.154H43.8488L44.1488 160.93L45.4568 156.958H46.5848L44.5208 162.658C44.3688 163.05 44.2128 163.43 44.0528 163.798C43.9008 164.166 43.7288 164.49 43.5368 164.77C43.3528 165.058 43.1448 165.286 42.9128 165.454C42.6888 165.63 42.4288 165.718 42.1328 165.718C41.8128 165.718 41.5408 165.682 41.3168 165.61L41.4968 164.674C41.6168 164.714 41.7368 164.734 41.8568 164.734C42.0168 164.734 42.1608 164.714 42.2888 164.674C42.4248 164.634 42.5488 164.562 42.6608 164.458C42.7728 164.354 42.8728 164.206 42.9608 164.014C43.0568 163.83 43.1448 163.59 43.2248 163.294L40.4048 156.958H41.7128L43.3208 160.942ZM51.3678 157.894H49.3278L49.3038 158.254C49.2478 159.046 49.1798 159.758 49.0998 160.39C49.0278 161.014 48.9198 161.546 48.7758 161.986C48.6318 162.418 48.4398 162.75 48.1998 162.982C47.9598 163.206 47.6478 163.318 47.2638 163.318C47.0878 163.318 46.9318 163.306 46.7958 163.282C46.6598 163.266 46.5438 163.238 46.4478 163.198L46.6158 162.19C46.7198 162.222 46.8358 162.238 46.9638 162.238C47.1558 162.238 47.3278 162.17 47.4798 162.034C47.6318 161.89 47.7638 161.626 47.8758 161.242C47.9878 160.858 48.0798 160.322 48.1518 159.634C48.2238 158.946 48.2758 158.054 48.3078 156.958H52.4718V163.258H51.3678V157.894ZM55.6876 162.322C56.0236 162.37 56.3636 162.394 56.7076 162.394C57.2916 162.394 57.7196 162.294 57.9916 162.094C58.2716 161.886 58.4116 161.602 58.4116 161.242C58.4116 160.922 58.2756 160.654 58.0036 160.438C57.7396 160.222 57.3196 160.114 56.7436 160.114C56.5916 160.114 56.4236 160.122 56.2396 160.138C56.0556 160.146 55.8716 160.17 55.6876 160.21V162.322ZM55.6876 159.37C55.9436 159.33 56.1796 159.306 56.3956 159.298C56.6116 159.282 56.8036 159.274 56.9716 159.274C57.4516 159.274 57.8556 159.322 58.1836 159.418C58.5196 159.514 58.7916 159.646 58.9996 159.814C59.2076 159.982 59.3556 160.182 59.4436 160.414C59.5396 160.638 59.5876 160.882 59.5876 161.146C59.5876 161.906 59.3356 162.462 58.8316 162.814C58.3276 163.158 57.5396 163.33 56.4676 163.33C56.1316 163.33 55.8116 163.326 55.5076 163.318C55.2036 163.31 54.8956 163.294 54.5836 163.27V156.958H55.6876V159.37ZM64.9879 157.894H62.8039V163.258H61.6999V157.894H59.5159V156.958H64.9879V157.894ZM68.0005 160.942L68.3725 162.154H68.5285L68.8285 160.93L70.1365 156.958H71.2645L69.2005 162.658C69.0485 163.05 68.8925 163.43 68.7325 163.798C68.5805 164.166 68.4085 164.49 68.2165 164.77C68.0325 165.058 67.8245 165.286 67.5925 165.454C67.3685 165.63 67.1085 165.718 66.8125 165.718C66.4925 165.718 66.2205 165.682 65.9965 165.61L66.1765 164.674C66.2965 164.714 66.4165 164.734 66.5365 164.734C66.6965 164.734 66.8405 164.714 66.9685 164.674C67.1045 164.634 67.2285 164.562 67.3405 164.458C67.4525 164.354 67.5525 164.206 67.6405 164.014C67.7365 163.83 67.8245 163.59 67.9045 163.294L65.0845 156.958H66.3925L68.0005 160.942ZM72.4195 156.958H73.1635L73.3795 157.762H73.4875C73.7035 157.45 73.9835 157.21 74.3275 157.042C74.6715 156.866 75.0595 156.778 75.4915 156.778C76.4035 156.778 77.0835 157.034 77.5315 157.546C77.9795 158.05 78.2035 158.858 78.2035 159.97C78.2035 160.498 78.1275 160.978 77.9755 161.41C77.8315 161.834 77.6195 162.198 77.3395 162.502C77.0675 162.798 76.7315 163.026 76.3315 163.186C75.9395 163.346 75.4995 163.426 75.0115 163.426C74.8515 163.426 74.7035 163.418 74.5675 163.402C74.4395 163.394 74.3195 163.374 74.2075 163.342C74.0955 163.318 73.9835 163.29 73.8715 163.258C73.7595 163.218 73.6435 163.174 73.5235 163.126V165.658H72.4195V156.958ZM75.2395 157.714C74.7595 157.714 74.3835 157.834 74.1115 158.074C73.8395 158.314 73.6435 158.682 73.5235 159.178V162.082C73.7075 162.21 73.9075 162.31 74.1235 162.382C74.3395 162.454 74.6155 162.49 74.9515 162.49C75.5995 162.49 76.1075 162.278 76.4755 161.854C76.8435 161.43 77.0275 160.798 77.0275 159.958C77.0275 159.278 76.8915 158.734 76.6195 158.326C76.3475 157.918 75.8875 157.714 75.2395 157.714ZM84.3341 159.658L84.5021 158.41H84.3701L83.7821 159.586L80.8301 163.258H79.9781V156.958H81.0821V160.678L80.9981 161.782H81.1301L81.6821 160.714L84.5741 156.958H85.4381V163.258H84.3341V159.658Z" fill="#474746"/>
<path d="M272.32 228.32C272.32 233.98 274.62 239.11 278.33 242.82C282.04 246.53 287.17 248.83 292.83 248.83C304.16 248.83 313.34 239.65 313.34 228.32C313.34 222.66 311.04 217.53 307.33 213.82C303.62 210.11 298.49 207.81 292.83 207.81C281.51 207.81 272.32 216.99 272.32 228.32Z" fill="white"/>
<path d="M292.83 212.85C284.29 212.85 277.37 219.77 277.37 228.31C277.37 232.58 279.1 236.45 281.9 239.24L303.77 217.37C300.97 214.58 297.1 212.85 292.83 212.85Z" fill="#E62139"/>
<path d="M292.83 243.78C301.37 243.78 308.29 236.86 308.29 228.32C308.29 224.05 306.56 220.18 303.76 217.39L281.89 239.26C284.7 242.05 288.56 243.78 292.83 243.78Z" fill="#FBB924"/>
<path d="M358.94 142.22C358.94 147.88 361.24 153.01 364.95 156.72C368.66 160.43 373.79 162.73 379.45 162.73C390.78 162.73 399.96 153.55 399.96 142.22C399.96 136.56 397.66 131.43 393.95 127.72C390.24 124.01 385.11 121.71 379.45 121.71C368.13 121.71 358.94 130.89 358.94 142.22Z" fill="white"/>
<path d="M379.45 126.76C370.91 126.76 363.99 133.68 363.99 142.22C363.99 146.49 365.72 150.36 368.52 153.15L390.39 131.28C387.59 128.49 383.72 126.76 379.45 126.76Z" fill="#E62139"/>
<path d="M379.45 157.69C387.99 157.69 394.91 150.77 394.91 142.23C394.91 137.96 393.18 134.09 390.38 131.3L368.51 153.17C371.32 155.95 375.18 157.69 379.45 157.69Z" fill="#FBB924"/>
<path d="M292.83 343.53C297.751 343.53 301.74 339.541 301.74 334.62C301.74 329.699 297.751 325.71 292.83 325.71C287.909 325.71 283.92 329.699 283.92 334.62C283.92 339.541 287.909 343.53 292.83 343.53Z" fill="#FBB924"/>
<path d="M292.83 345.34C286.92 345.34 282.11 340.53 282.11 334.62C282.11 328.71 286.92 323.9 292.83 323.9C298.74 323.9 303.55 328.71 303.55 334.62C303.55 340.53 298.74 345.34 292.83 345.34ZM292.83 327.52C288.91 327.52 285.73 330.71 285.73 334.62C285.73 338.54 288.92 341.72 292.83 341.72C296.75 341.72 299.93 338.53 299.93 334.62C299.93 330.7 296.75 327.52 292.83 327.52Z" fill="white"/>
<path d="M315.783 339.161C315.519 339.353 315.183 339.485 314.775 339.557C314.367 339.637 313.935 339.677 313.479 339.677C312.943 339.677 312.431 339.593 311.943 339.425C311.463 339.249 311.039 338.985 310.671 338.633C310.303 338.273 310.011 337.821 309.795 337.277C309.579 336.725 309.471 336.073 309.471 335.321C309.471 334.537 309.591 333.869 309.831 333.317C310.071 332.765 310.383 332.317 310.767 331.973C311.151 331.621 311.583 331.365 312.063 331.205C312.543 331.045 313.019 330.965 313.491 330.965C314.019 330.965 314.451 330.993 314.787 331.049C315.123 331.105 315.407 331.177 315.639 331.265L315.375 332.297C314.983 332.113 314.387 332.021 313.587 332.021C313.227 332.021 312.875 332.081 312.531 332.201C312.195 332.313 311.891 332.501 311.619 332.765C311.355 333.021 311.143 333.361 310.983 333.785C310.823 334.201 310.743 334.713 310.743 335.321C310.743 335.865 310.819 336.345 310.971 336.761C311.123 337.169 311.331 337.513 311.595 337.793C311.867 338.065 312.183 338.273 312.543 338.417C312.911 338.553 313.311 338.621 313.743 338.621C314.135 338.621 314.475 338.585 314.763 338.513C315.051 338.441 315.295 338.349 315.495 338.237L315.783 339.161ZM320.997 334.157H318.813V339.521H317.709V334.157H315.525V333.221H320.997V334.157ZM322.054 333.221H322.798L323.014 334.025H323.122C323.338 333.713 323.618 333.473 323.962 333.305C324.306 333.129 324.694 333.041 325.126 333.041C326.038 333.041 326.718 333.297 327.166 333.809C327.614 334.313 327.838 335.121 327.838 336.233C327.838 336.761 327.762 337.241 327.61 337.673C327.466 338.097 327.254 338.461 326.974 338.765C326.702 339.061 326.366 339.289 325.966 339.449C325.574 339.609 325.134 339.689 324.646 339.689C324.486 339.689 324.338 339.681 324.202 339.665C324.074 339.657 323.954 339.637 323.842 339.605C323.73 339.581 323.618 339.553 323.506 339.521C323.394 339.481 323.278 339.437 323.158 339.389V341.921H322.054V333.221ZM324.874 333.977C324.394 333.977 324.018 334.097 323.746 334.337C323.474 334.577 323.278 334.945 323.158 335.441V338.345C323.342 338.473 323.542 338.573 323.758 338.645C323.974 338.717 324.25 338.753 324.586 338.753C325.234 338.753 325.742 338.541 326.11 338.117C326.478 337.693 326.662 337.061 326.662 336.221C326.662 335.541 326.526 334.997 326.254 334.589C325.982 334.181 325.522 333.977 324.874 333.977ZM333.968 335.921L334.136 334.673H334.004L333.416 335.849L330.464 339.521H329.612V333.221H330.716V336.941L330.632 338.045H330.764L331.316 336.977L334.208 333.221H335.072V339.521H333.968V335.921ZM341.538 335.921L341.706 334.673H341.574L340.986 335.849L338.034 339.521H337.182V333.221H338.286V336.941L338.202 338.045H338.334L338.886 336.977L341.778 333.221H342.642V339.521H341.538V335.921ZM338.886 330.977C338.926 331.153 338.982 331.293 339.054 331.397C339.126 331.501 339.21 331.581 339.306 331.637C339.402 331.685 339.51 331.717 339.63 331.733C339.758 331.741 339.89 331.745 340.026 331.745C340.162 331.745 340.29 331.737 340.41 331.721C340.538 331.705 340.65 331.669 340.746 331.613C340.842 331.557 340.926 331.481 340.998 331.385C341.07 331.289 341.126 331.157 341.166 330.989L342.03 331.241C341.942 331.713 341.71 332.045 341.334 332.237C340.966 332.429 340.522 332.525 340.002 332.525C339.754 332.525 339.514 332.505 339.282 332.465C339.05 332.425 338.838 332.357 338.646 332.261C338.462 332.165 338.302 332.041 338.166 331.889C338.038 331.729 337.95 331.529 337.902 331.289L338.886 330.977ZM349.505 339.089C349.225 339.289 348.897 339.437 348.521 339.533C348.145 339.637 347.749 339.689 347.333 339.689C346.805 339.689 346.353 339.609 345.977 339.449C345.609 339.289 345.309 339.065 345.077 338.777C344.845 338.489 344.677 338.141 344.573 337.733C344.469 337.325 344.417 336.873 344.417 336.377C344.417 335.313 344.673 334.493 345.185 333.917C345.705 333.333 346.449 333.041 347.417 333.041C347.841 333.041 348.209 333.081 348.521 333.161C348.833 333.233 349.113 333.325 349.361 333.437L349.073 334.337C348.857 334.225 348.621 334.137 348.365 334.073C348.117 334.009 347.845 333.977 347.549 333.977C346.245 333.977 345.593 334.777 345.593 336.377C345.593 336.681 345.629 336.977 345.701 337.265C345.773 337.545 345.889 337.797 346.049 338.021C346.209 338.237 346.417 338.413 346.673 338.549C346.937 338.685 347.257 338.753 347.633 338.753C347.969 338.753 348.261 338.709 348.509 338.621C348.765 338.525 348.977 338.413 349.145 338.285L349.505 339.089ZM352.208 338.585C352.544 338.633 352.884 338.657 353.228 338.657C353.812 338.657 354.24 338.557 354.512 338.357C354.792 338.149 354.932 337.865 354.932 337.505C354.932 337.185 354.796 336.917 354.524 336.701C354.26 336.485 353.84 336.377 353.264 336.377C353.112 336.377 352.944 336.385 352.76 336.401C352.576 336.409 352.392 336.433 352.208 336.473V338.585ZM352.208 335.633C352.464 335.593 352.7 335.569 352.916 335.561C353.132 335.545 353.324 335.537 353.492 335.537C353.972 335.537 354.376 335.585 354.704 335.681C355.04 335.777 355.312 335.909 355.52 336.077C355.728 336.245 355.876 336.445 355.964 336.677C356.06 336.901 356.108 337.145 356.108 337.409C356.108 338.169 355.856 338.725 355.352 339.077C354.848 339.421 354.06 339.593 352.988 339.593C352.652 339.593 352.332 339.589 352.028 339.581C351.724 339.573 351.416 339.557 351.104 339.533V333.221H352.208V335.633ZM359.314 336.689H358.63V339.521H357.526V333.221H358.63V336.089L359.29 335.873L361.438 333.221H362.65L360.598 335.669H360.61L359.962 336.137L360.742 336.677L362.962 339.521H361.57L359.314 336.689ZM368.445 335.921L368.613 334.673H368.481L367.893 335.849L364.941 339.521H364.089V333.221H365.193V336.941L365.109 338.045H365.241L365.793 336.977L368.685 333.221H369.549V339.521H368.445V335.921ZM376.015 335.921L376.183 334.673H376.051L375.463 335.849L372.511 339.521H371.659V333.221H372.763V336.941L372.679 338.045H372.811L373.363 336.977L376.255 333.221H377.119V339.521H376.015V335.921ZM373.363 330.977C373.403 331.153 373.459 331.293 373.531 331.397C373.603 331.501 373.687 331.581 373.783 331.637C373.879 331.685 373.987 331.717 374.107 331.733C374.235 331.741 374.367 331.745 374.503 331.745C374.639 331.745 374.767 331.737 374.887 331.721C375.015 331.705 375.127 331.669 375.223 331.613C375.319 331.557 375.403 331.481 375.475 331.385C375.547 331.289 375.603 331.157 375.643 330.989L376.507 331.241C376.419 331.713 376.187 332.045 375.811 332.237C375.443 332.429 374.999 332.525 374.479 332.525C374.231 332.525 373.991 332.505 373.759 332.465C373.527 332.425 373.315 332.357 373.123 332.261C372.939 332.165 372.779 332.041 372.643 331.889C372.515 331.729 372.427 331.529 372.379 331.289L373.363 330.977ZM382.722 333.221H383.466L383.682 334.025H383.79C384.006 333.713 384.286 333.473 384.63 333.305C384.974 333.129 385.362 333.041 385.794 333.041C386.706 333.041 387.386 333.297 387.834 333.809C388.282 334.313 388.506 335.121 388.506 336.233C388.506 336.761 388.43 337.241 388.278 337.673C388.134 338.097 387.922 338.461 387.642 338.765C387.37 339.061 387.034 339.289 386.634 339.449C386.242 339.609 385.802 339.689 385.314 339.689C385.154 339.689 385.006 339.681 384.87 339.665C384.742 339.657 384.622 339.637 384.51 339.605C384.398 339.581 384.286 339.553 384.174 339.521C384.062 339.481 383.946 339.437 383.826 339.389V341.921H382.722V333.221ZM385.542 333.977C385.062 333.977 384.686 334.097 384.414 334.337C384.142 334.577 383.946 334.945 383.826 335.441V338.345C384.01 338.473 384.21 338.573 384.426 338.645C384.642 338.717 384.918 338.753 385.254 338.753C385.902 338.753 386.41 338.541 386.778 338.117C387.146 337.693 387.33 337.061 387.33 336.221C387.33 335.541 387.194 334.997 386.922 334.589C386.65 334.181 386.19 333.977 385.542 333.977ZM394.636 335.921L394.804 334.673H394.672L394.084 335.849L391.132 339.521H390.28V333.221H391.384V336.941L391.3 338.045H391.432L391.984 336.977L394.876 333.221H395.74V339.521H394.636V335.921ZM402.122 336.773H398.954V339.521H397.85V333.221H398.954V335.789H402.122V333.221H403.226V339.521H402.122V336.773ZM405.003 336.377C405.003 335.857 405.071 335.393 405.207 334.985C405.343 334.569 405.543 334.217 405.807 333.929C406.071 333.641 406.391 333.421 406.767 333.269C407.151 333.117 407.587 333.041 408.075 333.041C408.587 333.041 409.035 333.125 409.419 333.293C409.803 333.461 410.123 333.697 410.379 334.001C410.635 334.297 410.823 334.649 410.943 335.057C411.071 335.457 411.135 335.897 411.135 336.377C411.135 336.889 411.063 337.349 410.919 337.757C410.783 338.165 410.583 338.513 410.319 338.801C410.063 339.089 409.743 339.309 409.359 339.461C408.983 339.613 408.555 339.689 408.075 339.689C407.547 339.689 407.091 339.605 406.707 339.437C406.323 339.269 406.003 339.037 405.747 338.741C405.499 338.445 405.311 338.097 405.183 337.697C405.063 337.289 405.003 336.849 405.003 336.377ZM406.179 336.377C406.179 336.673 406.211 336.965 406.275 337.253C406.347 337.533 406.459 337.785 406.611 338.009C406.763 338.233 406.959 338.413 407.199 338.549C407.439 338.685 407.735 338.753 408.087 338.753C409.335 338.753 409.959 337.961 409.959 336.377C409.959 336.065 409.923 335.765 409.851 335.477C409.787 335.189 409.679 334.937 409.527 334.721C409.383 334.497 409.191 334.317 408.951 334.181C408.711 334.045 408.423 333.977 408.087 333.977C407.463 333.977 406.987 334.177 406.659 334.577C406.339 334.969 406.179 335.569 406.179 336.377ZM414.697 336.689H414.013V339.521H412.909V333.221H414.013V336.089L414.673 335.873L416.821 333.221H418.033L415.981 335.669H415.993L415.345 336.137L416.125 336.677L418.345 339.521H416.953L414.697 336.689Z" fill="#474746"/>
<path d="M170.706 249.023L171.162 248.999C171.418 248.983 171.698 248.967 172.002 248.951C172.306 248.927 172.658 248.915 173.058 248.915C173.986 248.915 174.65 249.047 175.05 249.311C175.458 249.567 175.662 249.951 175.662 250.463C175.662 250.743 175.562 251.027 175.362 251.315C175.17 251.595 174.862 251.799 174.438 251.927V252.059C174.966 252.163 175.342 252.339 175.566 252.587C175.798 252.835 175.914 253.163 175.914 253.571C175.914 254.203 175.654 254.671 175.134 254.975C174.614 255.271 173.83 255.419 172.782 255.419C172.43 255.419 172.098 255.407 171.786 255.383C171.474 255.367 171.17 255.347 170.874 255.323C170.842 255.323 170.814 255.323 170.79 255.323C170.766 255.315 170.738 255.311 170.706 255.311V249.023ZM171.81 254.459C171.986 254.483 172.158 254.503 172.326 254.519C172.494 254.527 172.702 254.531 172.95 254.531C173.582 254.531 174.038 254.451 174.318 254.291C174.598 254.123 174.738 253.851 174.738 253.475C174.738 253.323 174.71 253.183 174.654 253.055C174.598 252.927 174.506 252.819 174.378 252.731C174.25 252.643 174.074 252.575 173.85 252.527C173.634 252.471 173.366 252.443 173.046 252.443H171.81V254.459ZM173.178 251.687C173.354 251.687 173.522 251.663 173.682 251.615C173.842 251.567 173.986 251.499 174.114 251.411C174.242 251.323 174.342 251.223 174.414 251.111C174.494 250.991 174.534 250.863 174.534 250.727C174.534 250.391 174.418 250.159 174.186 250.031C173.962 249.895 173.574 249.827 173.022 249.827C172.838 249.827 172.65 249.835 172.458 249.851C172.274 249.859 172.058 249.867 171.81 249.875V251.687H173.178ZM179.647 253.007L180.019 254.219H180.175L180.475 252.995L181.783 249.023H182.911L180.847 254.723C180.695 255.115 180.539 255.495 180.379 255.863C180.227 256.231 180.055 256.555 179.863 256.835C179.679 257.123 179.471 257.351 179.239 257.519C179.015 257.695 178.755 257.783 178.459 257.783C178.139 257.783 177.867 257.747 177.643 257.675L177.823 256.739C177.943 256.779 178.063 256.799 178.183 256.799C178.343 256.799 178.487 256.779 178.615 256.739C178.751 256.699 178.875 256.627 178.987 256.523C179.099 256.419 179.199 256.271 179.287 256.079C179.383 255.895 179.471 255.655 179.551 255.359L176.731 249.023H178.039L179.647 253.007ZM187.693 249.959H185.653L185.629 250.319C185.573 251.111 185.505 251.823 185.425 252.455C185.353 253.079 185.245 253.611 185.101 254.051C184.957 254.483 184.765 254.815 184.525 255.047C184.285 255.271 183.973 255.383 183.589 255.383C183.413 255.383 183.257 255.371 183.121 255.347C182.985 255.331 182.869 255.303 182.773 255.263L182.941 254.255C183.045 254.287 183.161 254.303 183.289 254.303C183.481 254.303 183.653 254.235 183.805 254.099C183.957 253.955 184.089 253.691 184.201 253.307C184.313 252.923 184.405 252.387 184.477 251.699C184.549 251.011 184.601 250.119 184.633 249.023H188.797V255.323H187.693V249.959ZM190.477 254.711C190.477 254.479 190.549 254.295 190.693 254.159C190.845 254.023 191.041 253.955 191.281 253.955C191.521 253.955 191.713 254.023 191.857 254.159C192.009 254.295 192.085 254.479 192.085 254.711C192.085 254.927 192.009 255.107 191.857 255.251C191.713 255.395 191.521 255.467 191.281 255.467C191.041 255.467 190.845 255.395 190.693 255.251C190.549 255.107 190.477 254.927 190.477 254.711ZM199.721 254.963C199.457 255.155 199.121 255.287 198.713 255.359C198.305 255.439 197.873 255.479 197.417 255.479C196.881 255.479 196.369 255.395 195.881 255.227C195.401 255.051 194.977 254.787 194.609 254.435C194.241 254.075 193.949 253.623 193.733 253.079C193.517 252.527 193.409 251.875 193.409 251.123C193.409 250.339 193.529 249.671 193.769 249.119C194.009 248.567 194.321 248.119 194.705 247.775C195.089 247.423 195.521 247.167 196.001 247.007C196.481 246.847 196.957 246.767 197.429 246.767C197.957 246.767 198.389 246.795 198.725 246.851C199.061 246.907 199.345 246.979 199.577 247.067L199.313 248.099C198.921 247.915 198.325 247.823 197.525 247.823C197.165 247.823 196.813 247.883 196.469 248.003C196.133 248.115 195.829 248.303 195.557 248.567C195.293 248.823 195.081 249.163 194.921 249.587C194.761 250.003 194.681 250.515 194.681 251.123C194.681 251.667 194.757 252.147 194.909 252.563C195.061 252.971 195.269 253.315 195.533 253.595C195.805 253.867 196.121 254.075 196.481 254.219C196.849 254.355 197.249 254.423 197.681 254.423C198.073 254.423 198.413 254.387 198.701 254.315C198.989 254.243 199.233 254.151 199.433 254.039L199.721 254.963ZM201.185 249.419C201.905 249.075 202.797 248.903 203.861 248.903C204.341 248.903 204.725 248.967 205.013 249.095C205.309 249.215 205.537 249.371 205.697 249.563C205.857 249.755 205.961 249.971 206.009 250.211C206.065 250.443 206.093 250.675 206.093 250.907C206.093 251.347 206.077 251.791 206.045 252.239C206.013 252.679 205.997 253.159 205.997 253.679C205.997 253.983 206.009 254.279 206.033 254.567C206.065 254.847 206.113 255.107 206.177 255.347H205.373L205.073 254.387H204.953C204.865 254.507 204.757 254.631 204.629 254.759C204.501 254.879 204.349 254.987 204.173 255.083C203.997 255.179 203.793 255.259 203.561 255.323C203.337 255.387 203.077 255.419 202.781 255.419C202.485 255.419 202.213 255.379 201.965 255.299C201.717 255.211 201.501 255.091 201.317 254.939C201.141 254.787 201.001 254.603 200.897 254.387C200.793 254.163 200.741 253.915 200.741 253.643C200.741 253.283 200.817 252.971 200.969 252.707C201.129 252.443 201.333 252.227 201.581 252.059C201.829 251.891 202.109 251.767 202.421 251.687C202.741 251.607 203.057 251.567 203.369 251.567C203.617 251.567 203.825 251.571 203.993 251.579C204.169 251.587 204.313 251.599 204.425 251.615C204.545 251.623 204.645 251.635 204.725 251.651C204.805 251.659 204.877 251.667 204.941 251.675C204.957 251.555 204.969 251.451 204.977 251.363C204.985 251.275 204.989 251.163 204.989 251.027C204.989 250.803 204.965 250.615 204.917 250.463C204.869 250.311 204.789 250.191 204.677 250.103C204.573 250.007 204.429 249.939 204.245 249.899C204.061 249.859 203.837 249.839 203.573 249.839C203.421 249.839 203.253 249.851 203.069 249.875C202.885 249.899 202.701 249.935 202.517 249.983C202.333 250.023 202.149 250.075 201.965 250.139C201.789 250.203 201.629 250.271 201.485 250.343L201.185 249.419ZM204.941 252.467C204.877 252.459 204.809 252.447 204.737 252.431C204.665 252.415 204.573 252.403 204.461 252.395C204.357 252.387 204.229 252.379 204.077 252.371C203.933 252.363 203.753 252.359 203.537 252.359C203.041 252.359 202.645 252.447 202.349 252.623C202.061 252.799 201.917 253.099 201.917 253.523C201.917 253.843 202.029 254.083 202.253 254.243C202.485 254.403 202.781 254.483 203.141 254.483C203.405 254.483 203.637 254.451 203.837 254.387C204.045 254.315 204.221 254.231 204.365 254.135C204.517 254.031 204.637 253.919 204.725 253.799C204.821 253.671 204.893 253.547 204.941 253.427V252.467ZM210.029 252.491H209.345V255.323H208.241V249.023H209.345V251.891L210.005 251.675L212.153 249.023H213.365L211.313 251.471H211.325L210.677 251.939L211.457 252.479L213.677 255.323H212.285L210.029 252.491ZM219.427 254.891C219.147 255.091 218.819 255.239 218.443 255.335C218.067 255.439 217.671 255.491 217.255 255.491C216.727 255.491 216.275 255.411 215.899 255.251C215.531 255.091 215.231 254.867 214.999 254.579C214.767 254.291 214.599 253.943 214.495 253.535C214.391 253.127 214.339 252.675 214.339 252.179C214.339 251.115 214.595 250.295 215.107 249.719C215.627 249.135 216.371 248.843 217.339 248.843C217.763 248.843 218.131 248.883 218.443 248.963C218.755 249.035 219.035 249.127 219.283 249.239L218.995 250.139C218.779 250.027 218.543 249.939 218.287 249.875C218.039 249.811 217.767 249.779 217.471 249.779C216.167 249.779 215.515 250.579 215.515 252.179C215.515 252.483 215.551 252.779 215.623 253.067C215.695 253.347 215.811 253.599 215.971 253.823C216.131 254.039 216.339 254.215 216.595 254.351C216.859 254.487 217.179 254.555 217.555 254.555C217.891 254.555 218.183 254.511 218.431 254.423C218.687 254.327 218.899 254.215 219.067 254.087L219.427 254.891ZM220.954 249.419C221.674 249.075 222.566 248.903 223.63 248.903C224.11 248.903 224.494 248.967 224.782 249.095C225.078 249.215 225.306 249.371 225.466 249.563C225.626 249.755 225.73 249.971 225.778 250.211C225.834 250.443 225.862 250.675 225.862 250.907C225.862 251.347 225.846 251.791 225.814 252.239C225.782 252.679 225.766 253.159 225.766 253.679C225.766 253.983 225.778 254.279 225.802 254.567C225.834 254.847 225.882 255.107 225.946 255.347H225.142L224.842 254.387H224.722C224.634 254.507 224.526 254.631 224.398 254.759C224.27 254.879 224.118 254.987 223.942 255.083C223.766 255.179 223.562 255.259 223.33 255.323C223.106 255.387 222.846 255.419 222.55 255.419C222.254 255.419 221.982 255.379 221.734 255.299C221.486 255.211 221.27 255.091 221.086 254.939C220.91 254.787 220.77 254.603 220.666 254.387C220.562 254.163 220.51 253.915 220.51 253.643C220.51 253.283 220.586 252.971 220.738 252.707C220.898 252.443 221.102 252.227 221.35 252.059C221.598 251.891 221.878 251.767 222.19 251.687C222.51 251.607 222.826 251.567 223.138 251.567C223.386 251.567 223.594 251.571 223.762 251.579C223.938 251.587 224.082 251.599 224.194 251.615C224.314 251.623 224.414 251.635 224.494 251.651C224.574 251.659 224.646 251.667 224.71 251.675C224.726 251.555 224.738 251.451 224.746 251.363C224.754 251.275 224.758 251.163 224.758 251.027C224.758 250.803 224.734 250.615 224.686 250.463C224.638 250.311 224.558 250.191 224.446 250.103C224.342 250.007 224.198 249.939 224.014 249.899C223.83 249.859 223.606 249.839 223.342 249.839C223.19 249.839 223.022 249.851 222.838 249.875C222.654 249.899 222.47 249.935 222.286 249.983C222.102 250.023 221.918 250.075 221.734 250.139C221.558 250.203 221.398 250.271 221.254 250.343L220.954 249.419ZM224.71 252.467C224.646 252.459 224.578 252.447 224.506 252.431C224.434 252.415 224.342 252.403 224.23 252.395C224.126 252.387 223.998 252.379 223.846 252.371C223.702 252.363 223.522 252.359 223.306 252.359C222.81 252.359 222.414 252.447 222.118 252.623C221.83 252.799 221.686 253.099 221.686 253.523C221.686 253.843 221.798 254.083 222.022 254.243C222.254 254.403 222.55 254.483 222.91 254.483C223.174 254.483 223.406 254.451 223.606 254.387C223.814 254.315 223.99 254.231 224.134 254.135C224.286 254.031 224.406 253.919 224.494 253.799C224.59 253.671 224.662 253.547 224.71 253.427V252.467ZM232.067 249.959H229.115V255.323H228.011V249.023H232.067V249.959ZM233.048 249.419C233.768 249.075 234.66 248.903 235.724 248.903C236.204 248.903 236.588 248.967 236.876 249.095C237.172 249.215 237.4 249.371 237.56 249.563C237.72 249.755 237.824 249.971 237.872 250.211C237.928 250.443 237.956 250.675 237.956 250.907C237.956 251.347 237.94 251.791 237.908 252.239C237.876 252.679 237.86 253.159 237.86 253.679C237.86 253.983 237.872 254.279 237.896 254.567C237.928 254.847 237.976 255.107 238.04 255.347H237.236L236.936 254.387H236.816C236.728 254.507 236.62 254.631 236.492 254.759C236.364 254.879 236.212 254.987 236.036 255.083C235.86 255.179 235.656 255.259 235.424 255.323C235.2 255.387 234.94 255.419 234.644 255.419C234.348 255.419 234.076 255.379 233.828 255.299C233.58 255.211 233.364 255.091 233.18 254.939C233.004 254.787 232.864 254.603 232.76 254.387C232.656 254.163 232.604 253.915 232.604 253.643C232.604 253.283 232.68 252.971 232.832 252.707C232.992 252.443 233.196 252.227 233.444 252.059C233.692 251.891 233.972 251.767 234.284 251.687C234.604 251.607 234.92 251.567 235.232 251.567C235.48 251.567 235.688 251.571 235.856 251.579C236.032 251.587 236.176 251.599 236.288 251.615C236.408 251.623 236.508 251.635 236.588 251.651C236.668 251.659 236.74 251.667 236.804 251.675C236.82 251.555 236.832 251.451 236.84 251.363C236.848 251.275 236.852 251.163 236.852 251.027C236.852 250.803 236.828 250.615 236.78 250.463C236.732 250.311 236.652 250.191 236.54 250.103C236.436 250.007 236.292 249.939 236.108 249.899C235.924 249.859 235.7 249.839 235.436 249.839C235.284 249.839 235.116 249.851 234.932 249.875C234.748 249.899 234.564 249.935 234.38 249.983C234.196 250.023 234.012 250.075 233.828 250.139C233.652 250.203 233.492 250.271 233.348 250.343L233.048 249.419ZM236.804 252.467C236.74 252.459 236.672 252.447 236.6 252.431C236.528 252.415 236.436 252.403 236.324 252.395C236.22 252.387 236.092 252.379 235.94 252.371C235.796 252.363 235.616 252.359 235.4 252.359C234.904 252.359 234.508 252.447 234.212 252.623C233.924 252.799 233.78 253.099 233.78 253.523C233.78 253.843 233.892 254.083 234.116 254.243C234.348 254.403 234.644 254.483 235.004 254.483C235.268 254.483 235.5 254.451 235.7 254.387C235.908 254.315 236.084 254.231 236.228 254.135C236.38 254.031 236.5 253.919 236.588 253.799C236.684 253.671 236.756 253.547 236.804 253.427V252.467ZM244.377 252.575H241.209V255.323H240.105V249.023H241.209V251.591H244.377V249.023H245.481V255.323H244.377V252.575ZM252.345 254.891C252.065 255.091 251.737 255.239 251.361 255.335C250.985 255.439 250.589 255.491 250.173 255.491C249.645 255.491 249.193 255.411 248.817 255.251C248.449 255.091 248.149 254.867 247.917 254.579C247.685 254.291 247.517 253.943 247.413 253.535C247.309 253.127 247.257 252.675 247.257 252.179C247.257 251.115 247.513 250.295 248.025 249.719C248.545 249.135 249.289 248.843 250.257 248.843C250.681 248.843 251.049 248.883 251.361 248.963C251.673 249.035 251.953 249.127 252.201 249.239L251.913 250.139C251.697 250.027 251.461 249.939 251.205 249.875C250.957 249.811 250.685 249.779 250.389 249.779C249.085 249.779 248.433 250.579 248.433 252.179C248.433 252.483 248.469 252.779 248.541 253.067C248.613 253.347 248.729 253.599 248.889 253.823C249.049 254.039 249.257 254.215 249.513 254.351C249.777 254.487 250.097 254.555 250.473 254.555C250.809 254.555 251.101 254.511 251.349 254.423C251.605 254.327 251.817 254.215 251.985 254.087L252.345 254.891ZM255.048 254.387C255.384 254.435 255.724 254.459 256.068 254.459C256.652 254.459 257.08 254.359 257.352 254.159C257.632 253.951 257.772 253.667 257.772 253.307C257.772 252.987 257.636 252.719 257.364 252.503C257.1 252.287 256.68 252.179 256.104 252.179C255.952 252.179 255.784 252.187 255.6 252.203C255.416 252.211 255.232 252.235 255.048 252.275V254.387ZM255.048 251.435C255.304 251.395 255.54 251.371 255.756 251.363C255.972 251.347 256.164 251.339 256.332 251.339C256.812 251.339 257.216 251.387 257.544 251.483C257.88 251.579 258.152 251.711 258.36 251.879C258.568 252.047 258.716 252.247 258.804 252.479C258.9 252.703 258.948 252.947 258.948 253.211C258.948 253.971 258.696 254.527 258.192 254.879C257.688 255.223 256.9 255.395 255.828 255.395C255.492 255.395 255.172 255.391 254.868 255.383C254.564 255.375 254.256 255.359 253.944 255.335V249.023H255.048V251.435ZM262.154 252.491H261.47V255.323H260.366V249.023H261.47V251.891L262.13 251.675L264.278 249.023H265.49L263.438 251.471H263.45L262.802 251.939L263.582 252.479L265.802 255.323H264.41L262.154 252.491ZM266.464 252.179C266.464 251.659 266.532 251.195 266.668 250.787C266.804 250.371 267.004 250.019 267.268 249.731C267.532 249.443 267.852 249.223 268.228 249.071C268.612 248.919 269.048 248.843 269.536 248.843C270.048 248.843 270.496 248.927 270.88 249.095C271.264 249.263 271.584 249.499 271.84 249.803C272.096 250.099 272.284 250.451 272.404 250.859C272.532 251.259 272.596 251.699 272.596 252.179C272.596 252.691 272.524 253.151 272.38 253.559C272.244 253.967 272.044 254.315 271.78 254.603C271.524 254.891 271.204 255.111 270.82 255.263C270.444 255.415 270.016 255.491 269.536 255.491C269.008 255.491 268.552 255.407 268.168 255.239C267.784 255.071 267.464 254.839 267.208 254.543C266.96 254.247 266.772 253.899 266.644 253.499C266.524 253.091 266.464 252.651 266.464 252.179ZM267.64 252.179C267.64 252.475 267.672 252.767 267.736 253.055C267.808 253.335 267.92 253.587 268.072 253.811C268.224 254.035 268.42 254.215 268.66 254.351C268.9 254.487 269.196 254.555 269.548 254.555C270.796 254.555 271.42 253.763 271.42 252.179C271.42 251.867 271.384 251.567 271.312 251.279C271.248 250.991 271.14 250.739 270.988 250.523C270.844 250.299 270.652 250.119 270.412 249.983C270.172 249.847 269.884 249.779 269.548 249.779C268.924 249.779 268.448 249.979 268.12 250.379C267.8 250.771 267.64 251.371 267.64 252.179ZM278.426 249.959H275.474V255.323H274.37V249.023H278.426V249.959ZM278.956 252.179C278.956 251.659 279.024 251.195 279.16 250.787C279.296 250.371 279.496 250.019 279.76 249.731C280.024 249.443 280.344 249.223 280.72 249.071C281.104 248.919 281.54 248.843 282.028 248.843C282.54 248.843 282.988 248.927 283.372 249.095C283.756 249.263 284.076 249.499 284.332 249.803C284.588 250.099 284.776 250.451 284.896 250.859C285.024 251.259 285.088 251.699 285.088 252.179C285.088 252.691 285.016 253.151 284.872 253.559C284.736 253.967 284.536 254.315 284.272 254.603C284.016 254.891 283.696 255.111 283.312 255.263C282.936 255.415 282.508 255.491 282.028 255.491C281.5 255.491 281.044 255.407 280.66 255.239C280.276 255.071 279.956 254.839 279.7 254.543C279.452 254.247 279.264 253.899 279.136 253.499C279.016 253.091 278.956 252.651 278.956 252.179ZM280.132 252.179C280.132 252.475 280.164 252.767 280.228 253.055C280.3 253.335 280.412 253.587 280.564 253.811C280.716 254.035 280.912 254.215 281.152 254.351C281.392 254.487 281.688 254.555 282.04 254.555C283.288 254.555 283.912 253.763 283.912 252.179C283.912 251.867 283.876 251.567 283.804 251.279C283.74 250.991 283.632 250.739 283.48 250.523C283.336 250.299 283.144 250.119 282.904 249.983C282.664 249.847 282.376 249.779 282.04 249.779C281.416 249.779 280.94 249.979 280.612 250.379C280.292 250.771 280.132 251.371 280.132 252.179Z" fill="#474746"/>
<path d="M407.669 140.11H404.573V145.474H403.469V139.174H408.773V145.474H407.669V140.11ZM414.679 140.11H412.639L412.615 140.47C412.559 141.262 412.491 141.974 412.411 142.606C412.339 143.23 412.231 143.762 412.087 144.202C411.943 144.634 411.751 144.966 411.511 145.198C411.271 145.422 410.959 145.534 410.575 145.534C410.399 145.534 410.243 145.522 410.107 145.498C409.971 145.482 409.855 145.454 409.759 145.414L409.927 144.406C410.031 144.438 410.147 144.454 410.275 144.454C410.467 144.454 410.639 144.386 410.791 144.25C410.943 144.106 411.075 143.842 411.187 143.458C411.299 143.074 411.391 142.538 411.463 141.85C411.535 141.162 411.587 140.27 411.619 139.174H415.783V145.474H414.679V140.11ZM417.462 144.862C417.462 144.63 417.534 144.446 417.678 144.31C417.83 144.174 418.026 144.106 418.266 144.106C418.506 144.106 418.698 144.174 418.842 144.31C418.994 144.446 419.07 144.63 419.07 144.862C419.07 145.078 418.994 145.258 418.842 145.402C418.698 145.546 418.506 145.618 418.266 145.618C418.026 145.618 417.83 145.546 417.678 145.402C417.534 145.258 417.462 145.078 417.462 144.862ZM429.835 145.114C429.571 145.306 429.235 145.438 428.827 145.51C428.419 145.59 427.987 145.63 427.531 145.63C426.995 145.63 426.483 145.546 425.995 145.378C425.515 145.202 425.091 144.938 424.723 144.586C424.355 144.226 424.063 143.774 423.847 143.23C423.631 142.678 423.523 142.026 423.523 141.274C423.523 140.49 423.643 139.822 423.883 139.27C424.123 138.718 424.435 138.27 424.819 137.926C425.203 137.574 425.635 137.318 426.115 137.158C426.595 136.998 427.071 136.918 427.543 136.918C428.071 136.918 428.503 136.946 428.839 137.002C429.175 137.058 429.459 137.13 429.691 137.218L429.427 138.25C429.035 138.066 428.439 137.974 427.639 137.974C427.279 137.974 426.927 138.034 426.583 138.154C426.247 138.266 425.943 138.454 425.671 138.718C425.407 138.974 425.195 139.314 425.035 139.738C424.875 140.154 424.795 140.666 424.795 141.274C424.795 141.818 424.871 142.298 425.023 142.714C425.175 143.122 425.383 143.466 425.647 143.746C425.919 144.018 426.235 144.226 426.595 144.37C426.963 144.506 427.363 144.574 427.795 144.574C428.187 144.574 428.527 144.538 428.815 144.466C429.103 144.394 429.347 144.302 429.547 144.19L429.835 145.114ZM430.613 142.33C430.613 141.81 430.681 141.346 430.817 140.938C430.953 140.522 431.153 140.17 431.417 139.882C431.681 139.594 432.001 139.374 432.377 139.222C432.761 139.07 433.197 138.994 433.685 138.994C434.197 138.994 434.645 139.078 435.029 139.246C435.413 139.414 435.733 139.65 435.989 139.954C436.245 140.25 436.433 140.602 436.553 141.01C436.681 141.41 436.745 141.85 436.745 142.33C436.745 142.842 436.673 143.302 436.529 143.71C436.393 144.118 436.193 144.466 435.929 144.754C435.673 145.042 435.353 145.262 434.969 145.414C434.593 145.566 434.165 145.642 433.685 145.642C433.157 145.642 432.701 145.558 432.317 145.39C431.933 145.222 431.613 144.99 431.357 144.694C431.109 144.398 430.921 144.05 430.793 143.65C430.673 143.242 430.613 142.802 430.613 142.33ZM431.789 142.33C431.789 142.626 431.821 142.918 431.885 143.206C431.957 143.486 432.069 143.738 432.221 143.962C432.373 144.186 432.569 144.366 432.809 144.502C433.049 144.638 433.345 144.706 433.697 144.706C434.945 144.706 435.569 143.914 435.569 142.33C435.569 142.018 435.533 141.718 435.461 141.43C435.397 141.142 435.289 140.89 435.137 140.674C434.993 140.45 434.801 140.27 434.561 140.134C434.321 139.998 434.033 139.93 433.697 139.93C433.073 139.93 432.597 140.13 432.269 140.53C431.949 140.922 431.789 141.522 431.789 142.33ZM439.323 140.446C439.619 140.046 439.951 139.762 440.319 139.594C440.695 139.426 441.155 139.342 441.699 139.342C442.539 139.342 443.191 139.594 443.655 140.098C444.127 140.602 444.363 141.338 444.363 142.306C444.363 142.858 444.291 143.346 444.147 143.77C444.011 144.186 443.811 144.534 443.547 144.814C443.283 145.086 442.963 145.294 442.587 145.438C442.211 145.574 441.787 145.642 441.315 145.642C440.291 145.642 439.519 145.33 438.999 144.706C438.487 144.082 438.231 143.102 438.231 141.766C438.231 141.046 438.271 140.434 438.351 139.93C438.431 139.426 438.547 139.006 438.699 138.67C438.859 138.334 439.047 138.07 439.263 137.878C439.487 137.678 439.735 137.526 440.007 137.422C440.279 137.318 440.575 137.246 440.895 137.206C441.223 137.166 441.571 137.13 441.939 137.098C442.403 137.058 442.775 137.014 443.055 136.966C443.335 136.918 443.563 136.834 443.739 136.714L443.859 137.686C443.675 137.806 443.427 137.894 443.115 137.95C442.811 137.998 442.383 138.042 441.831 138.082C441.447 138.106 441.103 138.15 440.799 138.214C440.503 138.278 440.243 138.39 440.019 138.55C439.795 138.71 439.615 138.942 439.479 139.246C439.343 139.542 439.251 139.934 439.203 140.422L439.323 140.446ZM439.407 142.474C439.407 142.778 439.443 143.066 439.515 143.338C439.587 143.602 439.699 143.838 439.851 144.046C440.011 144.246 440.211 144.406 440.451 144.526C440.691 144.646 440.975 144.706 441.303 144.706C442.559 144.706 443.187 143.942 443.187 142.414C443.187 142.11 443.151 141.83 443.079 141.574C443.015 141.31 442.911 141.082 442.767 140.89C442.631 140.698 442.451 140.55 442.227 140.446C442.011 140.334 441.755 140.278 441.459 140.278C440.739 140.278 440.215 140.47 439.887 140.854C439.567 141.23 439.407 141.77 439.407 142.474ZM445.801 142.33C445.801 141.81 445.869 141.346 446.005 140.938C446.141 140.522 446.341 140.17 446.605 139.882C446.869 139.594 447.189 139.374 447.565 139.222C447.949 139.07 448.385 138.994 448.873 138.994C449.385 138.994 449.833 139.078 450.217 139.246C450.601 139.414 450.921 139.65 451.177 139.954C451.433 140.25 451.621 140.602 451.741 141.01C451.869 141.41 451.933 141.85 451.933 142.33C451.933 142.842 451.861 143.302 451.717 143.71C451.581 144.118 451.381 144.466 451.117 144.754C450.861 145.042 450.541 145.262 450.157 145.414C449.781 145.566 449.353 145.642 448.873 145.642C448.345 145.642 447.889 145.558 447.505 145.39C447.121 145.222 446.801 144.99 446.545 144.694C446.297 144.398 446.109 144.05 445.981 143.65C445.861 143.242 445.801 142.802 445.801 142.33ZM446.977 142.33C446.977 142.626 447.009 142.918 447.073 143.206C447.145 143.486 447.257 143.738 447.409 143.962C447.561 144.186 447.757 144.366 447.997 144.502C448.237 144.638 448.533 144.706 448.885 144.706C450.133 144.706 450.757 143.914 450.757 142.33C450.757 142.018 450.721 141.718 450.649 141.43C450.585 141.142 450.477 140.89 450.325 140.674C450.181 140.45 449.989 140.27 449.749 140.134C449.509 139.998 449.221 139.93 448.885 139.93C448.261 139.93 447.785 140.13 447.457 140.53C447.137 140.922 446.977 141.522 446.977 142.33ZM453.707 139.174H454.451L454.667 139.978H454.775C454.991 139.666 455.271 139.426 455.615 139.258C455.959 139.082 456.347 138.994 456.779 138.994C457.691 138.994 458.371 139.25 458.819 139.762C459.267 140.266 459.491 141.074 459.491 142.186C459.491 142.714 459.415 143.194 459.263 143.626C459.119 144.05 458.907 144.414 458.627 144.718C458.355 145.014 458.019 145.242 457.619 145.402C457.227 145.562 456.787 145.642 456.299 145.642C456.139 145.642 455.991 145.634 455.855 145.618C455.727 145.61 455.607 145.59 455.495 145.558C455.383 145.534 455.271 145.506 455.159 145.474C455.047 145.434 454.931 145.39 454.811 145.342V147.874H453.707V139.174ZM456.527 139.93C456.047 139.93 455.671 140.05 455.399 140.29C455.127 140.53 454.931 140.898 454.811 141.394V144.298C454.995 144.426 455.195 144.526 455.411 144.598C455.627 144.67 455.903 144.706 456.239 144.706C456.887 144.706 457.395 144.494 457.763 144.07C458.131 143.646 458.315 143.014 458.315 142.174C458.315 141.494 458.179 140.95 457.907 140.542C457.635 140.134 457.175 139.93 456.527 139.93ZM465.537 142.726H462.369V145.474H461.265V139.174H462.369V141.742H465.537V139.174H466.641V145.474H465.537V142.726ZM468.682 139.57C469.402 139.226 470.294 139.054 471.358 139.054C471.838 139.054 472.222 139.118 472.51 139.246C472.806 139.366 473.034 139.522 473.194 139.714C473.354 139.906 473.458 140.122 473.506 140.362C473.562 140.594 473.59 140.826 473.59 141.058C473.59 141.498 473.574 141.942 473.542 142.39C473.51 142.83 473.494 143.31 473.494 143.83C473.494 144.134 473.506 144.43 473.53 144.718C473.562 144.998 473.61 145.258 473.674 145.498H472.87L472.57 144.538H472.45C472.362 144.658 472.254 144.782 472.126 144.91C471.998 145.03 471.846 145.138 471.67 145.234C471.494 145.33 471.29 145.41 471.058 145.474C470.834 145.538 470.574 145.57 470.278 145.57C469.982 145.57 469.71 145.53 469.462 145.45C469.214 145.362 468.998 145.242 468.814 145.09C468.638 144.938 468.498 144.754 468.394 144.538C468.29 144.314 468.238 144.066 468.238 143.794C468.238 143.434 468.314 143.122 468.466 142.858C468.626 142.594 468.83 142.378 469.078 142.21C469.326 142.042 469.606 141.918 469.918 141.838C470.238 141.758 470.554 141.718 470.866 141.718C471.114 141.718 471.322 141.722 471.49 141.73C471.666 141.738 471.81 141.75 471.922 141.766C472.042 141.774 472.142 141.786 472.222 141.802C472.302 141.81 472.374 141.818 472.438 141.826C472.454 141.706 472.466 141.602 472.474 141.514C472.482 141.426 472.486 141.314 472.486 141.178C472.486 140.954 472.462 140.766 472.414 140.614C472.366 140.462 472.286 140.342 472.174 140.254C472.07 140.158 471.926 140.09 471.742 140.05C471.558 140.01 471.334 139.99 471.07 139.99C470.918 139.99 470.75 140.002 470.566 140.026C470.382 140.05 470.198 140.086 470.014 140.134C469.83 140.174 469.646 140.226 469.462 140.29C469.286 140.354 469.126 140.422 468.982 140.494L468.682 139.57ZM472.438 142.618C472.374 142.61 472.306 142.598 472.234 142.582C472.162 142.566 472.07 142.554 471.958 142.546C471.854 142.538 471.726 142.53 471.574 142.522C471.43 142.514 471.25 142.51 471.034 142.51C470.538 142.51 470.142 142.598 469.846 142.774C469.558 142.95 469.414 143.25 469.414 143.674C469.414 143.994 469.526 144.234 469.75 144.394C469.982 144.554 470.278 144.634 470.638 144.634C470.902 144.634 471.134 144.602 471.334 144.538C471.542 144.466 471.718 144.382 471.862 144.286C472.014 144.182 472.134 144.07 472.222 143.95C472.318 143.822 472.39 143.698 472.438 143.578V142.618Z" fill="#474746"/>
<path d="M171.6 232.03L84.62 145.05L87.6899 141.98L173.4 227.69" fill="#E62139"/>
<path d="M84.62 151.13C89.5409 151.13 93.53 147.141 93.53 142.22C93.53 137.299 89.5409 133.31 84.62 133.31C79.6991 133.31 75.71 137.299 75.71 142.22C75.71 147.141 79.6991 151.13 84.62 151.13Z" fill="#E62139"/>
<path d="M84.62 152.94C78.71 152.94 73.9 148.13 73.9 142.22C73.9 136.31 78.71 131.5 84.62 131.5C90.53 131.5 95.34 136.31 95.34 142.22C95.34 148.13 90.53 152.94 84.62 152.94ZM84.62 135.12C80.7 135.12 77.52 138.31 77.52 142.22C77.52 146.13 80.71 149.32 84.62 149.32C88.54 149.32 91.72 146.13 91.72 142.22C91.72 138.31 88.53 135.12 84.62 135.12Z" fill="white"/>
<path d="M171 236.62C175.921 236.62 179.91 232.631 179.91 227.71C179.91 222.789 175.921 218.8 171 218.8C166.079 218.8 162.09 222.789 162.09 227.71C162.09 232.631 166.079 236.62 171 236.62Z" fill="#E62139"/>
<path d="M171 238.43C165.09 238.43 160.28 233.62 160.28 227.71C160.28 221.8 165.09 216.99 171 216.99C176.91 216.99 181.72 221.8 181.72 227.71C181.72 233.62 176.91 238.43 171 238.43ZM171 220.61C167.08 220.61 163.9 223.8 163.9 227.71C163.9 231.62 167.09 234.81 171 234.81C174.91 234.81 178.1 231.62 178.1 227.71C178.1 223.8 174.91 220.61 171 220.61Z" fill="white"/>
</svg>
