<svg width="446" height="341" viewBox="0 0 446 341" fill="none" xmlns="http://www.w3.org/2000/svg">
<path d="M345.68 134.59L271.53 208.74C263.79 216.48 253.28 220.83 242.33 220.83H150.15C139.2 220.83 128.7 216.48 120.95 208.74L64.26 152.05" stroke="#E62139" stroke-width="11.3386" stroke-miterlimit="10"/>
<path d="M267.36 330.25V245.94C267.36 234.99 271.71 224.49 279.45 216.74L353.66 142.53" stroke="#FBB924" stroke-width="11.3386" stroke-miterlimit="10"/>
<path d="M325.81 4.3501L262.73 67.4301C254.99 75.1701 244.48 79.5201 233.53 79.5201H94.64" stroke="#035B82" stroke-width="11.3386" stroke-miterlimit="10"/>
<path d="M194.36 99.4125L194.816 99.3885C195.072 99.3725 195.352 99.3565 195.656 99.3405C195.96 99.3165 196.312 99.3045 196.712 99.3045C197.64 99.3045 198.304 99.4365 198.704 99.7005C199.112 99.9566 199.316 100.341 199.316 100.853C199.316 101.133 199.216 101.417 199.016 101.705C198.824 101.985 198.516 102.189 198.092 102.317V102.449C198.62 102.553 198.996 102.729 199.22 102.977C199.452 103.225 199.568 103.553 199.568 103.961C199.568 104.593 199.308 105.061 198.788 105.365C198.268 105.661 197.484 105.809 196.436 105.809C196.084 105.809 195.752 105.797 195.44 105.773C195.128 105.757 194.824 105.737 194.528 105.713C194.496 105.713 194.468 105.713 194.444 105.713C194.42 105.705 194.392 105.701 194.36 105.701V99.4125ZM195.464 104.849C195.64 104.873 195.812 104.893 195.98 104.909C196.148 104.917 196.356 104.921 196.604 104.921C197.236 104.921 197.692 104.841 197.972 104.681C198.252 104.513 198.392 104.241 198.392 103.865C198.392 103.713 198.364 103.573 198.308 103.445C198.252 103.317 198.16 103.209 198.032 103.121C197.904 103.033 197.728 102.965 197.504 102.917C197.288 102.861 197.02 102.833 196.7 102.833H195.464V104.849ZM196.832 102.077C197.008 102.077 197.176 102.053 197.336 102.005C197.496 101.957 197.64 101.889 197.768 101.801C197.896 101.713 197.996 101.613 198.068 101.501C198.148 101.381 198.188 101.253 198.188 101.117C198.188 100.781 198.072 100.549 197.84 100.421C197.616 100.285 197.228 100.217 196.676 100.217C196.492 100.217 196.304 100.225 196.112 100.241C195.928 100.249 195.712 100.257 195.464 100.265V102.077H196.832ZM203.301 103.397L203.673 104.609H203.829L204.129 103.385L205.437 99.4125H206.565L204.501 105.113C204.349 105.505 204.193 105.885 204.033 106.253C203.881 106.621 203.709 106.945 203.517 107.225C203.333 107.513 203.125 107.741 202.893 107.909C202.669 108.085 202.409 108.173 202.113 108.173C201.793 108.173 201.521 108.137 201.297 108.065L201.477 107.129C201.597 107.169 201.717 107.189 201.837 107.189C201.997 107.189 202.141 107.169 202.269 107.129C202.405 107.089 202.529 107.017 202.641 106.913C202.753 106.809 202.853 106.661 202.941 106.469C203.037 106.285 203.125 106.045 203.205 105.749L200.385 99.4125H201.693L203.301 103.397ZM211.349 100.349H209.309L209.285 100.709C209.229 101.501 209.161 102.213 209.081 102.845C209.009 103.469 208.901 104.001 208.757 104.441C208.613 104.873 208.421 105.205 208.181 105.437C207.94 105.661 207.628 105.773 207.244 105.773C207.068 105.773 206.912 105.761 206.776 105.737C206.64 105.721 206.524 105.693 206.428 105.653L206.596 104.645C206.7 104.677 206.816 104.693 206.944 104.693C207.136 104.693 207.308 104.625 207.46 104.489C207.612 104.345 207.744 104.081 207.856 103.697C207.968 103.313 208.06 102.777 208.133 102.089C208.205 101.401 208.257 100.509 208.289 99.4125H212.453V105.713H211.349V100.349ZM214.133 105.101C214.133 104.869 214.205 104.685 214.349 104.549C214.501 104.413 214.697 104.345 214.937 104.345C215.177 104.345 215.369 104.413 215.513 104.549C215.665 104.685 215.741 104.869 215.741 105.101C215.741 105.317 215.665 105.497 215.513 105.641C215.369 105.785 215.177 105.857 214.937 105.857C214.697 105.857 214.501 105.785 214.349 105.641C214.205 105.497 214.133 105.317 214.133 105.101ZM226.506 105.353C226.242 105.545 225.906 105.677 225.498 105.749C225.09 105.829 224.658 105.869 224.202 105.869C223.666 105.869 223.154 105.785 222.666 105.617C222.186 105.441 221.762 105.177 221.394 104.825C221.026 104.465 220.734 104.013 220.518 103.469C220.302 102.917 220.194 102.265 220.194 101.513C220.194 100.729 220.314 100.061 220.554 99.5085C220.794 98.9565 221.106 98.5084 221.49 98.1644C221.874 97.8123 222.306 97.5563 222.786 97.3963C223.266 97.2363 223.742 97.1563 224.214 97.1563C224.742 97.1563 225.174 97.1843 225.51 97.2403C225.846 97.2963 226.13 97.3683 226.362 97.4563L226.098 98.4884C225.706 98.3044 225.11 98.2124 224.31 98.2124C223.95 98.2124 223.598 98.2724 223.254 98.3924C222.918 98.5044 222.614 98.6924 222.342 98.9565C222.078 99.2125 221.866 99.5525 221.706 99.9766C221.546 100.393 221.466 100.905 221.466 101.513C221.466 102.057 221.542 102.537 221.694 102.953C221.846 103.361 222.054 103.705 222.318 103.985C222.59 104.257 222.906 104.465 223.266 104.609C223.634 104.745 224.034 104.813 224.466 104.813C224.858 104.813 225.198 104.777 225.486 104.705C225.774 104.633 226.018 104.541 226.218 104.429L226.506 105.353ZM227.611 105.101C227.611 104.869 227.683 104.685 227.827 104.549C227.979 104.413 228.175 104.345 228.415 104.345C228.655 104.345 228.847 104.413 228.991 104.549C229.143 104.685 229.219 104.869 229.219 105.101C229.219 105.317 229.143 105.497 228.991 105.641C228.847 105.785 228.655 105.857 228.415 105.857C228.175 105.857 227.979 105.785 227.827 105.641C227.683 105.497 227.611 105.317 227.611 105.101ZM239.504 101.957H235.244V105.713H234.044V97.3123H235.244V100.901H239.504V97.3123H240.704V105.713H239.504V101.957ZM242.761 99.8085C243.481 99.4645 244.374 99.2925 245.438 99.2925C245.918 99.2925 246.302 99.3565 246.59 99.4845C246.886 99.6045 247.114 99.7605 247.274 99.9526C247.434 100.145 247.538 100.361 247.586 100.601C247.642 100.833 247.67 101.065 247.67 101.297C247.67 101.737 247.654 102.181 247.622 102.629C247.59 103.069 247.574 103.549 247.574 104.069C247.574 104.373 247.586 104.669 247.61 104.957C247.642 105.237 247.69 105.497 247.754 105.737H246.95L246.65 104.777H246.53C246.442 104.897 246.334 105.021 246.206 105.149C246.078 105.269 245.926 105.377 245.75 105.473C245.574 105.569 245.37 105.649 245.138 105.713C244.914 105.777 244.654 105.809 244.358 105.809C244.062 105.809 243.79 105.769 243.541 105.689C243.293 105.601 243.077 105.481 242.893 105.329C242.717 105.177 242.577 104.993 242.473 104.777C242.369 104.553 242.317 104.305 242.317 104.033C242.317 103.673 242.393 103.361 242.545 103.097C242.705 102.833 242.909 102.617 243.157 102.449C243.405 102.281 243.685 102.157 243.998 102.077C244.318 101.997 244.634 101.957 244.946 101.957C245.194 101.957 245.402 101.961 245.57 101.969C245.746 101.977 245.89 101.989 246.002 102.005C246.122 102.013 246.222 102.025 246.302 102.041C246.382 102.049 246.454 102.057 246.518 102.065C246.534 101.945 246.546 101.841 246.554 101.753C246.562 101.665 246.566 101.553 246.566 101.417C246.566 101.193 246.542 101.005 246.494 100.853C246.446 100.701 246.366 100.581 246.254 100.493C246.15 100.397 246.006 100.329 245.822 100.289C245.638 100.249 245.414 100.229 245.15 100.229C244.998 100.229 244.83 100.241 244.646 100.265C244.462 100.289 244.278 100.325 244.094 100.373C243.91 100.413 243.726 100.465 243.541 100.529C243.365 100.593 243.205 100.661 243.061 100.733L242.761 99.8085ZM246.518 102.857C246.454 102.849 246.386 102.837 246.314 102.821C246.242 102.805 246.15 102.793 246.038 102.785C245.934 102.777 245.806 102.769 245.654 102.761C245.51 102.753 245.33 102.749 245.114 102.749C244.618 102.749 244.222 102.837 243.926 103.013C243.637 103.189 243.493 103.489 243.493 103.913C243.493 104.233 243.605 104.473 243.83 104.633C244.062 104.793 244.358 104.873 244.718 104.873C244.982 104.873 245.214 104.841 245.414 104.777C245.622 104.705 245.798 104.621 245.942 104.525C246.094 104.421 246.214 104.309 246.302 104.189C246.398 104.061 246.47 103.937 246.518 103.817V102.857ZM253.611 100.349H251.571L251.547 100.709C251.491 101.501 251.423 102.213 251.343 102.845C251.271 103.469 251.163 104.001 251.019 104.441C250.875 104.873 250.683 105.205 250.443 105.437C250.203 105.661 249.89 105.773 249.506 105.773C249.33 105.773 249.174 105.761 249.038 105.737C248.902 105.721 248.786 105.693 248.69 105.653L248.858 104.645C248.962 104.677 249.078 104.693 249.206 104.693C249.398 104.693 249.57 104.625 249.722 104.489C249.874 104.345 250.007 104.081 250.119 103.697C250.231 103.313 250.323 102.777 250.395 102.089C250.467 101.401 250.519 100.509 250.551 99.4125H254.715V105.713H253.611V100.349ZM261.183 102.113L261.351 100.865H261.219L260.631 102.041L257.679 105.713H256.827V99.4125H257.931V103.133L257.847 104.237H257.979L258.531 103.169L261.423 99.4125H262.288V105.713H261.183V102.113ZM264.398 99.4125L264.854 99.3885C265.11 99.3725 265.39 99.3565 265.694 99.3405C265.998 99.3165 266.35 99.3045 266.75 99.3045C267.678 99.3045 268.342 99.4365 268.743 99.7005C269.151 99.9566 269.355 100.341 269.355 100.853C269.355 101.133 269.255 101.417 269.055 101.705C268.863 101.985 268.554 102.189 268.13 102.317V102.449C268.658 102.553 269.035 102.729 269.259 102.977C269.491 103.225 269.607 103.553 269.607 103.961C269.607 104.593 269.347 105.061 268.827 105.365C268.306 105.661 267.522 105.809 266.474 105.809C266.122 105.809 265.79 105.797 265.478 105.773C265.166 105.757 264.862 105.737 264.566 105.713C264.534 105.713 264.506 105.713 264.482 105.713C264.458 105.705 264.43 105.701 264.398 105.701V99.4125ZM265.502 104.849C265.678 104.873 265.85 104.893 266.018 104.909C266.186 104.917 266.394 104.921 266.642 104.921C267.274 104.921 267.73 104.841 268.01 104.681C268.29 104.513 268.43 104.241 268.43 103.865C268.43 103.713 268.402 103.573 268.346 103.445C268.29 103.317 268.198 103.209 268.07 103.121C267.942 103.033 267.766 102.965 267.542 102.917C267.326 102.861 267.058 102.833 266.738 102.833H265.502V104.849ZM266.87 102.077C267.046 102.077 267.214 102.053 267.374 102.005C267.534 101.957 267.678 101.889 267.806 101.801C267.934 101.713 268.034 101.613 268.106 101.501C268.186 101.381 268.226 101.253 268.226 101.117C268.226 100.781 268.11 100.549 267.878 100.421C267.654 100.285 267.266 100.217 266.714 100.217C266.53 100.217 266.342 100.225 266.15 100.241C265.966 100.249 265.75 100.257 265.502 100.265V102.077H266.87ZM271.311 99.8085C272.031 99.4645 272.923 99.2925 273.987 99.2925C274.467 99.2925 274.851 99.3565 275.14 99.4845C275.436 99.6045 275.664 99.7605 275.824 99.9526C275.984 100.145 276.088 100.361 276.136 100.601C276.192 100.833 276.22 101.065 276.22 101.297C276.22 101.737 276.204 102.181 276.172 102.629C276.14 103.069 276.124 103.549 276.124 104.069C276.124 104.373 276.136 104.669 276.16 104.957C276.192 105.237 276.24 105.497 276.304 105.737H275.5L275.2 104.777H275.08C274.992 104.897 274.883 105.021 274.755 105.149C274.627 105.269 274.475 105.377 274.299 105.473C274.123 105.569 273.919 105.649 273.687 105.713C273.463 105.777 273.203 105.809 272.907 105.809C272.611 105.809 272.339 105.769 272.091 105.689C271.843 105.601 271.627 105.481 271.443 105.329C271.267 105.177 271.127 104.993 271.023 104.777C270.919 104.553 270.867 104.305 270.867 104.033C270.867 103.673 270.943 103.361 271.095 103.097C271.255 102.833 271.459 102.617 271.707 102.449C271.955 102.281 272.235 102.157 272.547 102.077C272.867 101.997 273.183 101.957 273.495 101.957C273.743 101.957 273.951 101.961 274.119 101.969C274.295 101.977 274.439 101.989 274.551 102.005C274.671 102.013 274.771 102.025 274.851 102.041C274.931 102.049 275.004 102.057 275.068 102.065C275.084 101.945 275.096 101.841 275.104 101.753C275.112 101.665 275.116 101.553 275.116 101.417C275.116 101.193 275.092 101.005 275.044 100.853C274.996 100.701 274.915 100.581 274.803 100.493C274.699 100.397 274.555 100.329 274.371 100.289C274.187 100.249 273.963 100.229 273.699 100.229C273.547 100.229 273.379 100.241 273.195 100.265C273.011 100.289 272.827 100.325 272.643 100.373C272.459 100.413 272.275 100.465 272.091 100.529C271.915 100.593 271.755 100.661 271.611 100.733L271.311 99.8085ZM275.068 102.857C275.004 102.849 274.935 102.837 274.863 102.821C274.791 102.805 274.699 102.793 274.587 102.785C274.483 102.777 274.355 102.769 274.203 102.761C274.059 102.753 273.879 102.749 273.663 102.749C273.167 102.749 272.771 102.837 272.475 103.013C272.187 103.189 272.043 103.489 272.043 103.913C272.043 104.233 272.155 104.473 272.379 104.633C272.611 104.793 272.907 104.873 273.267 104.873C273.531 104.873 273.763 104.841 273.963 104.777C274.171 104.705 274.347 104.621 274.491 104.525C274.643 104.421 274.763 104.309 274.851 104.189C274.947 104.061 275.02 103.937 275.068 103.817V102.857ZM282.725 102.113L282.893 100.865H282.761L282.173 102.041L279.22 105.713H278.368V99.4125H279.472V103.133L279.388 104.237H279.52L280.072 103.169L282.965 99.4125H283.829V105.713H282.725V102.113ZM280.072 97.1683C280.112 97.3443 280.168 97.4843 280.24 97.5883C280.312 97.6923 280.396 97.7723 280.492 97.8283C280.588 97.8764 280.696 97.9084 280.816 97.9244C280.944 97.9324 281.076 97.9364 281.213 97.9364C281.349 97.9364 281.477 97.9284 281.597 97.9124C281.725 97.8964 281.837 97.8603 281.933 97.8043C282.029 97.7483 282.113 97.6723 282.185 97.5763C282.257 97.4803 282.313 97.3483 282.353 97.1803L283.217 97.4323C283.129 97.9044 282.897 98.2364 282.521 98.4284C282.153 98.6204 281.709 98.7164 281.188 98.7164C280.94 98.7164 280.7 98.6964 280.468 98.6564C280.236 98.6164 280.024 98.5484 279.832 98.4524C279.648 98.3564 279.488 98.2324 279.352 98.0804C279.224 97.9204 279.136 97.7203 279.088 97.4803L280.072 97.1683ZM287.727 102.881H287.043V105.713H285.939V99.4125H287.043V102.281L287.703 102.065L289.852 99.4125H291.064L289.012 101.861H289.024L288.376 102.329L289.156 102.869L291.376 105.713H289.984L287.727 102.881ZM292.43 99.8085C293.151 99.4645 294.043 99.2925 295.107 99.2925C295.587 99.2925 295.971 99.3565 296.259 99.4845C296.555 99.6045 296.783 99.7605 296.943 99.9526C297.103 100.145 297.207 100.361 297.255 100.601C297.311 100.833 297.339 101.065 297.339 101.297C297.339 101.737 297.323 102.181 297.291 102.629C297.259 103.069 297.243 103.549 297.243 104.069C297.243 104.373 297.255 104.669 297.279 104.957C297.311 105.237 297.359 105.497 297.423 105.737H296.619L296.319 104.777H296.199C296.111 104.897 296.003 105.021 295.875 105.149C295.747 105.269 295.595 105.377 295.419 105.473C295.243 105.569 295.039 105.649 294.807 105.713C294.583 105.777 294.323 105.809 294.027 105.809C293.731 105.809 293.459 105.769 293.211 105.689C292.962 105.601 292.746 105.481 292.562 105.329C292.386 105.177 292.246 104.993 292.142 104.777C292.038 104.553 291.986 104.305 291.986 104.033C291.986 103.673 292.062 103.361 292.214 103.097C292.374 102.833 292.578 102.617 292.826 102.449C293.074 102.281 293.355 102.157 293.667 102.077C293.987 101.997 294.303 101.957 294.615 101.957C294.863 101.957 295.071 101.961 295.239 101.969C295.415 101.977 295.559 101.989 295.671 102.005C295.791 102.013 295.891 102.025 295.971 102.041C296.051 102.049 296.123 102.057 296.187 102.065C296.203 101.945 296.215 101.841 296.223 101.753C296.231 101.665 296.235 101.553 296.235 101.417C296.235 101.193 296.211 101.005 296.163 100.853C296.115 100.701 296.035 100.581 295.923 100.493C295.819 100.397 295.675 100.329 295.491 100.289C295.307 100.249 295.083 100.229 294.819 100.229C294.667 100.229 294.499 100.241 294.315 100.265C294.131 100.289 293.947 100.325 293.763 100.373C293.579 100.413 293.395 100.465 293.211 100.529C293.034 100.593 292.874 100.661 292.73 100.733L292.43 99.8085ZM296.187 102.857C296.123 102.849 296.055 102.837 295.983 102.821C295.911 102.805 295.819 102.793 295.707 102.785C295.603 102.777 295.475 102.769 295.323 102.761C295.179 102.753 294.999 102.749 294.783 102.749C294.287 102.749 293.891 102.837 293.595 103.013C293.307 103.189 293.163 103.489 293.163 103.913C293.163 104.233 293.275 104.473 293.499 104.633C293.731 104.793 294.027 104.873 294.387 104.873C294.651 104.873 294.883 104.841 295.083 104.777C295.291 104.705 295.467 104.621 295.611 104.525C295.763 104.421 295.883 104.309 295.971 104.189C296.067 104.061 296.139 103.937 296.187 103.817V102.857Z" fill="#474746"/>
<path d="M193.31 89.9751L206.81 89.9751L206.81 79.5251L193.31 79.5251L193.31 89.9751Z" fill="#035B82"/>
<path d="M126.083 90.3508L139.583 90.3508L139.583 79.9008L126.083 79.9008L126.083 90.3508Z" fill="#035B82"/>
<path d="M87.2377 107.67H86.4937L86.2896 106.086H80.9731V99.7856H82.0772V105.15H85.1135V99.7856H86.2176V105.15H87.2377V107.67ZM93.657 105.57C93.3769 105.778 93.0289 105.946 92.6129 106.074C92.1968 106.194 91.7448 106.254 91.2567 106.254C90.7287 106.254 90.2686 106.178 89.8766 106.026C89.4925 105.866 89.1765 105.642 88.9285 105.354C88.6805 105.066 88.4964 104.718 88.3764 104.31C88.2564 103.902 88.1964 103.446 88.1964 102.942C88.1964 101.862 88.4604 101.038 88.9885 100.47C89.5245 99.8936 90.2846 99.6055 91.2687 99.6055C91.5808 99.6055 91.8928 99.6415 92.2048 99.7135C92.5168 99.7776 92.7969 99.9056 93.0449 100.098C93.2929 100.282 93.4929 100.538 93.645 100.866C93.805 101.194 93.885 101.622 93.885 102.15C93.885 102.278 93.881 102.426 93.873 102.594C93.865 102.762 93.849 102.926 93.825 103.086H89.3245C89.3405 103.822 89.5165 104.378 89.8526 104.754C90.1886 105.13 90.7607 105.318 91.5688 105.318C91.9048 105.318 92.2248 105.262 92.5288 105.15C92.8329 105.03 93.0689 104.89 93.2369 104.73L93.657 105.57ZM92.8289 102.294C92.8449 101.654 92.7129 101.202 92.4328 100.938C92.1608 100.674 91.7768 100.542 91.2807 100.542C90.7207 100.542 90.2766 100.674 89.9486 100.938C89.6206 101.202 89.4285 101.654 89.3725 102.294H92.8289ZM95.705 99.7856H96.4491L96.6651 100.59H96.7731C96.9892 100.278 97.2692 100.038 97.6132 99.8696C97.9573 99.6935 98.3453 99.6055 98.7773 99.6055C99.6894 99.6055 100.37 99.8616 100.818 100.374C101.266 100.878 101.49 101.686 101.49 102.798C101.49 103.326 101.414 103.806 101.262 104.238C101.118 104.662 100.906 105.026 100.626 105.33C100.354 105.626 100.017 105.854 99.6174 106.014C99.2254 106.174 98.7853 106.254 98.2973 106.254C98.1373 106.254 97.9893 106.246 97.8533 106.23C97.7252 106.222 97.6052 106.202 97.4932 106.17C97.3812 106.146 97.2692 106.118 97.1572 106.086C97.0452 106.046 96.9292 106.002 96.8091 105.954V108.486H95.705V99.7856ZM98.5253 100.542C98.0453 100.542 97.6692 100.662 97.3972 100.902C97.1252 101.142 96.9292 101.51 96.8091 102.006V104.91C96.9932 105.038 97.1932 105.138 97.4092 105.21C97.6252 105.282 97.9013 105.318 98.2373 105.318C98.8854 105.318 99.3934 105.106 99.7614 104.682C100.129 104.258 100.314 103.626 100.314 102.786C100.314 102.106 100.177 101.562 99.9055 101.154C99.6334 100.746 99.1734 100.542 98.5253 100.542ZM105.053 103.254H104.368V106.086H103.264V99.7856H104.368V102.654L105.029 102.438L107.177 99.7856H108.389L106.337 102.234H106.349L105.701 102.702L106.481 103.242L108.701 106.086H107.309L105.053 103.254ZM109.828 99.7856L110.284 99.7615C110.54 99.7455 110.82 99.7295 111.124 99.7135C111.428 99.6895 111.78 99.6775 112.18 99.6775C113.108 99.6775 113.772 99.8096 114.172 100.074C114.58 100.33 114.784 100.714 114.784 101.226C114.784 101.506 114.684 101.79 114.484 102.078C114.292 102.358 113.984 102.562 113.56 102.69V102.822C114.088 102.926 114.464 103.102 114.688 103.35C114.92 103.598 115.036 103.926 115.036 104.334C115.036 104.966 114.776 105.434 114.256 105.738C113.736 106.034 112.952 106.182 111.904 106.182C111.552 106.182 111.22 106.17 110.908 106.146C110.596 106.13 110.292 106.11 109.996 106.086C109.964 106.086 109.936 106.086 109.912 106.086C109.888 106.078 109.86 106.074 109.828 106.074V99.7856ZM110.932 105.222C111.108 105.246 111.28 105.266 111.448 105.282C111.616 105.29 111.824 105.294 112.072 105.294C112.704 105.294 113.16 105.214 113.44 105.054C113.72 104.886 113.86 104.614 113.86 104.238C113.86 104.086 113.832 103.946 113.776 103.818C113.72 103.69 113.628 103.582 113.5 103.494C113.372 103.406 113.196 103.338 112.972 103.29C112.756 103.234 112.488 103.206 112.168 103.206H110.932V105.222ZM112.3 102.45C112.476 102.45 112.644 102.426 112.804 102.378C112.964 102.33 113.108 102.262 113.236 102.174C113.364 102.086 113.464 101.986 113.536 101.874C113.616 101.754 113.656 101.626 113.656 101.49C113.656 101.154 113.54 100.922 113.308 100.794C113.084 100.658 112.696 100.59 112.144 100.59C111.96 100.59 111.772 100.598 111.58 100.614C111.396 100.622 111.18 100.63 110.932 100.638V102.45H112.3ZM116.741 100.182C117.461 99.8376 118.353 99.6655 119.417 99.6655C119.897 99.6655 120.281 99.7295 120.569 99.8576C120.865 99.9776 121.093 100.134 121.253 100.326C121.413 100.518 121.517 100.734 121.565 100.974C121.621 101.206 121.649 101.438 121.649 101.67C121.649 102.11 121.633 102.554 121.601 103.002C121.569 103.442 121.553 103.922 121.553 104.442C121.553 104.746 121.565 105.042 121.589 105.33C121.621 105.61 121.669 105.87 121.733 106.11H120.929L120.629 105.15H120.509C120.421 105.27 120.313 105.394 120.185 105.522C120.057 105.642 119.905 105.75 119.729 105.846C119.553 105.942 119.349 106.022 119.117 106.086C118.893 106.15 118.633 106.182 118.337 106.182C118.041 106.182 117.769 106.142 117.521 106.062C117.273 105.974 117.057 105.854 116.873 105.702C116.697 105.55 116.557 105.366 116.453 105.15C116.349 104.926 116.297 104.678 116.297 104.406C116.297 104.046 116.373 103.734 116.525 103.47C116.685 103.206 116.889 102.99 117.137 102.822C117.385 102.654 117.665 102.53 117.977 102.45C118.297 102.37 118.613 102.33 118.925 102.33C119.173 102.33 119.381 102.334 119.549 102.342C119.725 102.35 119.869 102.362 119.981 102.378C120.101 102.386 120.201 102.398 120.281 102.414C120.361 102.422 120.433 102.43 120.497 102.438C120.513 102.318 120.525 102.214 120.533 102.126C120.541 102.038 120.545 101.926 120.545 101.79C120.545 101.566 120.521 101.378 120.473 101.226C120.425 101.074 120.345 100.954 120.233 100.866C120.129 100.77 119.985 100.702 119.801 100.662C119.617 100.622 119.393 100.602 119.129 100.602C118.977 100.602 118.809 100.614 118.625 100.638C118.441 100.662 118.257 100.698 118.073 100.746C117.889 100.786 117.705 100.838 117.521 100.902C117.345 100.966 117.185 101.034 117.041 101.106L116.741 100.182ZM120.497 103.23C120.433 103.222 120.365 103.21 120.293 103.194C120.221 103.178 120.129 103.166 120.017 103.158C119.913 103.15 119.785 103.142 119.633 103.134C119.489 103.126 119.309 103.122 119.093 103.122C118.597 103.122 118.201 103.21 117.905 103.386C117.617 103.562 117.473 103.862 117.473 104.286C117.473 104.606 117.585 104.846 117.809 105.006C118.041 105.166 118.337 105.246 118.697 105.246C118.961 105.246 119.193 105.214 119.393 105.15C119.601 105.078 119.777 104.994 119.921 104.898C120.073 104.794 120.193 104.682 120.281 104.562C120.377 104.434 120.449 104.31 120.497 104.19V103.23ZM129.75 105.726C129.486 105.918 129.15 106.05 128.742 106.122C128.334 106.202 127.902 106.242 127.446 106.242C126.91 106.242 126.398 106.158 125.91 105.99C125.43 105.814 125.006 105.55 124.638 105.198C124.27 104.838 123.978 104.386 123.762 103.842C123.546 103.29 123.438 102.638 123.438 101.886C123.438 101.102 123.558 100.434 123.798 99.8816C124.038 99.3295 124.35 98.8815 124.734 98.5374C125.118 98.1854 125.55 97.9294 126.03 97.7694C126.51 97.6093 126.986 97.5293 127.458 97.5293C127.986 97.5293 128.418 97.5573 128.754 97.6133C129.09 97.6693 129.374 97.7413 129.606 97.8294L129.342 98.8615C128.95 98.6774 128.354 98.5854 127.554 98.5854C127.194 98.5854 126.842 98.6454 126.498 98.7654C126.162 98.8775 125.858 99.0655 125.586 99.3295C125.322 99.5855 125.11 99.9256 124.95 100.35C124.79 100.766 124.71 101.278 124.71 101.886C124.71 102.43 124.786 102.91 124.938 103.326C125.09 103.734 125.298 104.078 125.562 104.358C125.834 104.63 126.15 104.838 126.51 104.982C126.878 105.118 127.278 105.186 127.71 105.186C128.102 105.186 128.442 105.15 128.73 105.078C129.018 105.006 129.262 104.914 129.462 104.802L129.75 105.726ZM131.287 99.7856L131.743 99.7615C131.999 99.7455 132.279 99.7295 132.583 99.7135C132.887 99.6895 133.239 99.6775 133.639 99.6775C134.567 99.6775 135.231 99.8096 135.631 100.074C136.039 100.33 136.243 100.714 136.243 101.226C136.243 101.506 136.143 101.79 135.943 102.078C135.751 102.358 135.443 102.562 135.019 102.69V102.822C135.547 102.926 135.923 103.102 136.147 103.35C136.379 103.598 136.495 103.926 136.495 104.334C136.495 104.966 136.235 105.434 135.715 105.738C135.195 106.034 134.411 106.182 133.363 106.182C133.011 106.182 132.679 106.17 132.367 106.146C132.055 106.13 131.751 106.11 131.455 106.086C131.423 106.086 131.395 106.086 131.371 106.086C131.347 106.078 131.319 106.074 131.287 106.074V99.7856ZM132.391 105.222C132.567 105.246 132.739 105.266 132.907 105.282C133.075 105.29 133.283 105.294 133.531 105.294C134.163 105.294 134.619 105.214 134.899 105.054C135.179 104.886 135.319 104.614 135.319 104.238C135.319 104.086 135.291 103.946 135.235 103.818C135.179 103.69 135.087 103.582 134.959 103.494C134.831 103.406 134.655 103.338 134.431 103.29C134.215 103.234 133.947 103.206 133.627 103.206H132.391V105.222ZM133.759 102.45C133.935 102.45 134.103 102.426 134.263 102.378C134.423 102.33 134.567 102.262 134.695 102.174C134.823 102.086 134.923 101.986 134.995 101.874C135.075 101.754 135.115 101.626 135.115 101.49C135.115 101.154 134.999 100.922 134.767 100.794C134.543 100.658 134.155 100.59 133.603 100.59C133.419 100.59 133.231 100.598 133.039 100.614C132.855 100.622 132.639 100.63 132.391 100.638V102.45H133.759ZM137.84 105.474C137.84 105.242 137.912 105.058 138.056 104.922C138.208 104.786 138.404 104.718 138.644 104.718C138.884 104.718 139.076 104.786 139.22 104.922C139.372 105.058 139.448 105.242 139.448 105.474C139.448 105.69 139.372 105.87 139.22 106.014C139.076 106.158 138.884 106.23 138.644 106.23C138.404 106.23 138.208 106.158 138.056 106.014C137.912 105.87 137.84 105.69 137.84 105.474ZM148.302 103.89H144.978L144.09 106.086H142.914L146.37 97.5653H146.994L150.463 106.086H149.214L148.302 103.89ZM145.338 102.882H147.954L146.982 100.494L146.658 99.2095H146.634L146.31 100.518L145.338 102.882ZM155.881 103.338H152.713V106.086H151.609V99.7856H152.713V102.354H155.881V99.7856H156.986V106.086H155.881V103.338ZM163.371 103.338H160.202V106.086H159.098V99.7856H160.202V102.354H163.371V99.7856H164.475V106.086H163.371V103.338ZM170.944 102.486L171.112 101.238H170.98L170.392 102.414L167.439 106.086H166.587V99.7856H167.691V103.506L167.607 104.61H167.739L168.291 103.542L171.184 99.7856H172.048V106.086H170.944V102.486Z" fill="#474746"/>
<path d="M309.552 55.968H306.084V61.9775H304.847V54.9194H310.789V61.9775H309.552V55.968ZM317.406 55.968H315.12L315.093 56.3713C315.031 57.2587 314.954 58.0563 314.865 58.7644C314.784 59.4635 314.663 60.0595 314.502 60.5525C314.34 61.0365 314.125 61.4084 313.856 61.6683C313.588 61.9193 313.238 62.0448 312.808 62.0448C312.611 62.0448 312.436 62.0313 312.283 62.0044C312.131 61.9865 312.001 61.9551 311.894 61.9103L312.082 60.781C312.198 60.8169 312.328 60.8348 312.472 60.8348C312.687 60.8348 312.879 60.7586 313.05 60.6062C313.22 60.4449 313.368 60.1491 313.493 59.7189C313.619 59.2887 313.722 58.6882 313.803 57.9174C313.883 57.1466 313.942 56.1473 313.977 54.9194H318.643V61.9775H317.406V55.968ZM320.524 61.2919C320.524 61.032 320.605 60.8258 320.766 60.6735C320.937 60.5211 321.156 60.4449 321.425 60.4449C321.694 60.4449 321.909 60.5211 322.071 60.6735C322.241 60.8258 322.326 61.032 322.326 61.2919C322.326 61.5339 322.241 61.7355 322.071 61.8969C321.909 62.0582 321.694 62.1389 321.425 62.1389C321.156 62.1389 320.937 62.0582 320.766 61.8969C320.605 61.7355 320.524 61.5339 320.524 61.2919ZM330.88 61.5742C330.584 61.7893 330.208 61.9372 329.751 62.0179C329.294 62.1075 328.81 62.1523 328.299 62.1523C327.698 62.1523 327.125 62.0582 326.578 61.87C326.04 61.6728 325.565 61.377 325.153 60.9827C324.741 60.5794 324.414 60.073 324.172 59.4635C323.93 58.8451 323.809 58.1146 323.809 57.2721C323.809 56.3938 323.943 55.6454 324.212 55.0269C324.481 54.4085 324.83 53.9066 325.261 53.5212C325.691 53.1268 326.175 52.84 326.713 52.6608C327.25 52.4815 327.784 52.3919 328.312 52.3919C328.904 52.3919 329.388 52.4233 329.764 52.486C330.141 52.5487 330.459 52.6294 330.719 52.728L330.423 53.8842C329.984 53.678 329.316 53.575 328.42 53.575C328.017 53.575 327.622 53.6422 327.237 53.7766C326.86 53.9021 326.52 54.1127 326.215 54.4085C325.919 54.6953 325.682 55.0762 325.503 55.5513C325.323 56.0173 325.234 56.5909 325.234 57.2721C325.234 57.8816 325.319 58.4193 325.489 58.8854C325.659 59.3425 325.892 59.7279 326.188 60.0416C326.493 60.3463 326.847 60.5794 327.25 60.7407C327.663 60.893 328.111 60.9692 328.595 60.9692C329.034 60.9692 329.415 60.9289 329.737 60.8482C330.06 60.7676 330.333 60.6645 330.558 60.539L330.88 61.5742ZM336.722 55.968H334.275V61.9775H333.038V55.968H330.591V54.9194H336.722V55.968ZM337.825 55.363C338.631 54.9776 339.631 54.7849 340.823 54.7849C341.361 54.7849 341.791 54.8566 342.113 55.0001C342.445 55.1345 342.701 55.3093 342.88 55.5244C343.059 55.7395 343.176 55.9815 343.229 56.2504C343.292 56.5103 343.323 56.7702 343.323 57.0301C343.323 57.5231 343.306 58.0205 343.27 58.5224C343.234 59.0154 343.216 59.5531 343.216 60.1357C343.216 60.4763 343.229 60.8079 343.256 61.1306C343.292 61.4443 343.346 61.7355 343.418 62.0044H342.517L342.181 60.9289H342.046C341.948 61.0633 341.827 61.2023 341.683 61.3457C341.54 61.4801 341.37 61.6011 341.172 61.7087C340.975 61.8162 340.747 61.9058 340.487 61.9775C340.236 62.0492 339.945 62.0851 339.613 62.0851C339.281 62.0851 338.977 62.0403 338.699 61.9507C338.421 61.8521 338.179 61.7176 337.973 61.5473C337.776 61.377 337.619 61.1709 337.502 60.9289C337.386 60.6779 337.327 60.4001 337.327 60.0954C337.327 59.692 337.413 59.3425 337.583 59.0467C337.762 58.751 337.991 58.509 338.268 58.3207C338.546 58.1325 338.86 57.9936 339.21 57.904C339.568 57.8143 339.922 57.7695 340.272 57.7695C340.549 57.7695 340.783 57.774 340.971 57.783C341.168 57.7919 341.329 57.8054 341.455 57.8233C341.589 57.8323 341.701 57.8457 341.791 57.8636C341.88 57.8726 341.961 57.8816 342.033 57.8905C342.051 57.7561 342.064 57.6396 342.073 57.541C342.082 57.4424 342.087 57.3169 342.087 57.1646C342.087 56.9136 342.06 56.703 342.006 56.5327C341.952 56.3624 341.863 56.2279 341.737 56.1294C341.621 56.0218 341.459 55.9456 341.253 55.9008C341.047 55.856 340.796 55.8336 340.5 55.8336C340.33 55.8336 340.142 55.847 339.936 55.8739C339.729 55.9008 339.523 55.9411 339.317 55.9949C339.111 56.0397 338.905 56.098 338.699 56.1697C338.502 56.2414 338.322 56.3176 338.161 56.3982L337.825 55.363ZM342.033 58.7778C341.961 58.7689 341.885 58.7554 341.804 58.7375C341.724 58.7196 341.621 58.7061 341.495 58.6972C341.379 58.6882 341.235 58.6793 341.065 58.6703C340.904 58.6613 340.702 58.6568 340.46 58.6568C339.904 58.6568 339.461 58.7554 339.129 58.9526C338.806 59.1498 338.645 59.4859 338.645 59.9609C338.645 60.3194 338.77 60.5883 339.021 60.7676C339.281 60.9468 339.613 61.0365 340.016 61.0365C340.312 61.0365 340.572 61.0006 340.796 60.9289C341.029 60.8482 341.226 60.7541 341.388 60.6466C341.558 60.5301 341.692 60.4046 341.791 60.2701C341.898 60.1267 341.979 59.9878 342.033 59.8534V58.7778ZM345.73 54.9194H346.564L346.806 55.8201H346.927C347.169 55.4706 347.483 55.2017 347.868 55.0135C348.253 54.8163 348.688 54.7177 349.172 54.7177C350.194 54.7177 350.956 55.0045 351.458 55.5781C351.959 56.1428 352.21 57.048 352.21 58.2939C352.21 58.8854 352.125 59.4232 351.955 59.9071C351.794 60.3822 351.556 60.79 351.242 61.1306C350.938 61.4622 350.561 61.7176 350.113 61.8969C349.674 62.0761 349.181 62.1658 348.634 62.1658C348.455 62.1658 348.289 62.1568 348.137 62.1389C347.993 62.1299 347.859 62.1075 347.734 62.0716C347.608 62.0448 347.483 62.0134 347.357 61.9775C347.232 61.9327 347.102 61.8834 346.967 61.8297V64.6664H345.73V54.9194ZM348.89 55.7664C348.352 55.7664 347.931 55.9008 347.626 56.1697C347.321 56.4386 347.102 56.8509 346.967 57.4065V60.66C347.173 60.8034 347.397 60.9155 347.639 60.9961C347.881 61.0768 348.191 61.1171 348.567 61.1171C349.293 61.1171 349.862 60.8796 350.274 60.4046C350.687 59.9296 350.893 59.2215 350.893 58.2804C350.893 57.5186 350.741 56.9091 350.436 56.452C350.131 55.9949 349.616 55.7664 348.89 55.7664ZM359.079 57.9443L359.267 56.5461H359.119L358.46 57.8636L355.153 61.9775H354.199V54.9194H355.435V59.0871L355.341 60.3239H355.489L356.108 59.1274L359.348 54.9194H360.316V61.9775H359.079V57.9443ZM367.56 57.9443L367.748 56.5461H367.6L366.942 57.8636L363.634 61.9775H362.68V54.9194H363.917V59.0871L363.823 60.3239H363.971L364.589 59.1274L367.829 54.9194H368.797V61.9775H367.56V57.9443ZM364.589 52.4053C364.634 52.6025 364.697 52.7594 364.777 52.8759C364.858 52.9924 364.952 53.082 365.06 53.1448C365.167 53.1985 365.288 53.2344 365.423 53.2523C365.566 53.2613 365.714 53.2658 365.866 53.2658C366.019 53.2658 366.162 53.2568 366.296 53.2389C366.44 53.2209 366.565 53.1806 366.673 53.1179C366.78 53.0551 366.874 52.97 366.955 52.8624C367.036 52.7549 367.099 52.607 367.143 52.4188L368.111 52.7011C368.013 53.2299 367.753 53.6019 367.332 53.817C366.919 54.0321 366.422 54.1396 365.839 54.1396C365.561 54.1396 365.293 54.1172 365.033 54.0724C364.773 54.0276 364.535 53.9514 364.32 53.8439C364.114 53.7363 363.935 53.5974 363.782 53.4271C363.639 53.2478 363.54 53.0238 363.487 52.7549L364.589 52.4053ZM375.087 52.6608C375.464 52.5801 375.871 52.5263 376.311 52.4994C376.759 52.4636 377.198 52.4457 377.628 52.4457C378.085 52.4457 378.547 52.486 379.013 52.5667C379.488 52.6473 379.918 52.7952 380.303 53.0103C380.689 53.2254 381.003 53.5257 381.245 53.9111C381.495 54.2875 381.621 54.776 381.621 55.3765C381.621 55.9411 381.509 56.4251 381.285 56.8284C381.061 57.2228 380.761 57.5455 380.384 57.7964C380.017 58.0474 379.591 58.2311 379.107 58.3476C378.632 58.4641 378.139 58.5224 377.628 58.5224C377.574 58.5224 377.489 58.5224 377.373 58.5224C377.265 58.5134 377.149 58.509 377.023 58.509C376.907 58.5 376.79 58.491 376.674 58.4821C376.566 58.4731 376.485 58.4641 376.432 58.4552V61.9775H375.087V52.6608ZM377.668 53.6019C377.426 53.6019 377.189 53.6063 376.956 53.6153C376.732 53.6243 376.557 53.6467 376.432 53.6825V57.299C376.476 57.3169 376.548 57.3304 376.647 57.3393C376.754 57.3393 376.862 57.3438 376.969 57.3528C377.086 57.3617 377.193 57.3662 377.292 57.3662C377.4 57.3662 377.48 57.3662 377.534 57.3662C377.857 57.3662 378.175 57.3438 378.488 57.299C378.802 57.2452 379.085 57.1466 379.335 57.0032C379.595 56.8598 379.802 56.6582 379.954 56.3982C380.115 56.1383 380.196 55.8022 380.196 55.3899C380.196 55.0314 380.12 54.7356 379.967 54.5026C379.815 54.2696 379.618 54.0859 379.376 53.9514C379.134 53.817 378.86 53.7273 378.556 53.6825C378.26 53.6288 377.964 53.6019 377.668 53.6019ZM387.753 57.9443L387.941 56.5461H387.793L387.134 57.8636L383.827 61.9775H382.872V54.9194H384.109V59.0871L384.015 60.3239H384.163L384.781 59.1274L388.021 54.9194H388.989V61.9775H387.753V57.9443ZM396.14 58.8988H392.591V61.9775H391.354V54.9194H392.591V57.7964H396.14V54.9194H397.377V61.9775H396.14V58.8988ZM399.367 58.4552C399.367 57.8726 399.443 57.3528 399.595 56.8957C399.748 56.4296 399.972 56.0352 400.267 55.7126C400.563 55.3899 400.922 55.1435 401.343 54.9732C401.773 54.8029 402.262 54.7177 402.808 54.7177C403.382 54.7177 403.884 54.8118 404.314 55.0001C404.744 55.1883 405.103 55.4527 405.39 55.7933C405.676 56.1249 405.887 56.5192 406.021 56.9763C406.165 57.4245 406.237 57.9174 406.237 58.4552C406.237 59.0288 406.156 59.5442 405.995 60.0013C405.842 60.4584 405.618 60.8482 405.322 61.1709C405.036 61.4936 404.677 61.74 404.247 61.9103C403.826 62.0806 403.346 62.1658 402.808 62.1658C402.217 62.1658 401.706 62.0716 401.276 61.8834C400.846 61.6952 400.487 61.4353 400.2 61.1037C399.922 60.7721 399.712 60.3822 399.568 59.934C399.434 59.4769 399.367 58.984 399.367 58.4552ZM400.684 58.4552C400.684 58.7868 400.72 59.1139 400.792 59.4366C400.872 59.7503 400.998 60.0326 401.168 60.2836C401.338 60.5345 401.558 60.7362 401.827 60.8886C402.096 61.0409 402.427 61.1171 402.822 61.1171C404.22 61.1171 404.919 60.2298 404.919 58.4552C404.919 58.1056 404.879 57.7695 404.798 57.4469C404.726 57.1242 404.605 56.8419 404.435 56.5999C404.274 56.3489 404.059 56.1473 403.79 55.9949C403.521 55.8425 403.198 55.7664 402.822 55.7664C402.123 55.7664 401.589 55.9904 401.222 56.4386C400.863 56.8777 400.684 57.5499 400.684 58.4552ZM410.228 58.8047H409.461V61.9775H408.224V54.9194H409.461V58.1325L410.201 57.8905L412.607 54.9194H413.965L411.666 57.662H411.68L410.954 58.1863L411.827 58.7913L414.315 61.9775H412.755L410.228 58.8047Z" fill="#474746"/>
<path d="M293.703 52.7805L304.394 42.0891L296.121 33.816L285.43 44.5074L293.703 52.7805Z" fill="#035B82"/>
<path d="M94.86 63.5901C100.786 63.5901 105.59 58.7861 105.59 52.8601C105.59 46.9341 100.786 42.1301 94.86 42.1301C88.934 42.1301 84.13 46.9341 84.13 52.8601C84.13 58.7861 88.934 63.5901 94.86 63.5901Z" fill="#035B82"/>
<path d="M98.6577 55.3625C98.6577 55.8554 98.5633 56.3221 98.3746 56.7626C98.1858 57.1925 97.9184 57.5753 97.5723 57.9109C97.2367 58.2465 96.8277 58.5139 96.3453 58.7132C95.8733 58.902 95.3437 58.9964 94.7565 58.9964C94.1692 58.9964 93.6291 58.9072 93.1362 58.7289C92.6433 58.5506 92.2133 58.2885 91.8462 57.9424C91.4792 57.5858 91.1908 57.1506 90.981 56.6367C90.7818 56.1124 90.6821 55.5041 90.6821 54.8119C90.6821 53.7947 90.8447 52.8665 91.1698 52.0276C91.4949 51.1781 91.9301 50.444 92.4755 49.8252C93.0313 49.196 93.6763 48.6874 94.4104 48.2993C95.1445 47.9113 95.9258 47.6596 96.7543 47.5443L97.2105 49.2589C96.6442 49.3428 96.1198 49.5054 95.6374 49.7466C95.1655 49.9773 94.7407 50.2605 94.3632 50.5961C93.9961 50.9212 93.6868 51.2882 93.4351 51.6972C93.1834 52.0957 93.0051 52.5047 92.9002 52.9242C93.1414 52.662 93.4351 52.4366 93.7811 52.2478C94.1272 52.0485 94.5782 51.9489 95.134 51.9489C95.6584 51.9489 96.1355 52.0276 96.5655 52.1849C97.006 52.3422 97.3783 52.5677 97.6824 52.8613C97.997 53.1549 98.2382 53.5115 98.406 53.931C98.5738 54.3505 98.6577 54.8277 98.6577 55.3625ZM96.5183 55.4569C96.5183 54.3453 95.8943 53.7894 94.6463 53.7894C94.1849 53.7894 93.7969 53.8838 93.4823 54.0726C93.1676 54.2509 92.9474 54.4659 92.8216 54.7176C92.8006 54.8329 92.7901 54.9221 92.7901 54.985C92.7901 55.0374 92.7901 55.1003 92.7901 55.1737C92.7901 55.415 92.8268 55.6562 92.9002 55.8974C92.9841 56.1281 93.1047 56.3378 93.262 56.5266C93.4193 56.7154 93.6186 56.8674 93.8598 56.9828C94.101 57.0982 94.3842 57.1558 94.7093 57.1558C94.9714 57.1558 95.2126 57.1139 95.4329 57.03C95.6531 56.9356 95.8419 56.8098 95.9992 56.6525C96.167 56.4951 96.2928 56.3169 96.3767 56.1176C96.4711 55.9079 96.5183 55.6876 96.5183 55.4569Z" fill="white"/>
<path d="M174.616 241.002H171.52V246.366H170.416V240.066H175.72V246.366H174.616V241.002ZM181.626 241.002H179.586L179.562 241.362C179.506 242.154 179.438 242.866 179.358 243.498C179.286 244.122 179.178 244.654 179.034 245.094C178.89 245.526 178.698 245.858 178.458 246.09C178.218 246.314 177.906 246.426 177.522 246.426C177.346 246.426 177.19 246.414 177.054 246.39C176.918 246.374 176.802 246.346 176.706 246.306L176.874 245.298C176.978 245.33 177.094 245.346 177.222 245.346C177.414 245.346 177.586 245.278 177.738 245.142C177.89 244.998 178.022 244.734 178.134 244.35C178.246 243.966 178.338 243.43 178.41 242.742C178.482 242.054 178.534 241.162 178.566 240.066H182.73V246.366H181.626V241.002ZM184.41 245.754C184.41 245.522 184.482 245.338 184.626 245.202C184.778 245.066 184.974 244.998 185.214 244.998C185.454 244.998 185.646 245.066 185.79 245.202C185.942 245.338 186.018 245.522 186.018 245.754C186.018 245.97 185.942 246.15 185.79 246.294C185.646 246.438 185.454 246.51 185.214 246.51C184.974 246.51 184.778 246.438 184.626 246.294C184.482 246.15 184.41 245.97 184.41 245.754ZM191.562 238.758H190.602V237.966H193.722V238.758H192.762V245.574H193.722V246.366H190.602V245.574H191.562V238.758ZM195.18 245.754C195.18 245.522 195.252 245.338 195.396 245.202C195.548 245.066 195.744 244.998 195.984 244.998C196.224 244.998 196.416 245.066 196.56 245.202C196.712 245.338 196.788 245.522 196.788 245.754C196.788 245.97 196.712 246.15 196.56 246.294C196.416 246.438 196.224 246.51 195.984 246.51C195.744 246.51 195.548 246.438 195.396 246.294C195.252 246.15 195.18 245.97 195.18 245.754ZM205.104 245.442C204.944 245.466 204.768 245.482 204.576 245.49C204.392 245.498 204.212 245.502 204.036 245.502C203.62 245.502 203.232 245.434 202.872 245.298C202.512 245.162 202.196 244.958 201.924 244.686C201.66 244.406 201.448 244.058 201.288 243.642C201.136 243.226 201.06 242.734 201.06 242.166C201.06 241.63 201.136 241.15 201.288 240.726C201.448 240.294 201.668 239.93 201.948 239.634C202.236 239.33 202.576 239.098 202.968 238.938C203.368 238.778 203.808 238.698 204.288 238.698C204.4 238.698 204.54 238.702 204.708 238.71C204.876 238.718 205.008 238.734 205.104 238.758V237.726H206.256V238.794C206.416 238.754 206.6 238.73 206.808 238.722C207.016 238.706 207.188 238.698 207.324 238.698C207.74 238.698 208.128 238.77 208.488 238.914C208.856 239.058 209.172 239.274 209.436 239.562C209.708 239.842 209.92 240.19 210.072 240.606C210.224 241.022 210.3 241.502 210.3 242.046C210.3 242.606 210.212 243.102 210.036 243.534C209.868 243.966 209.636 244.33 209.34 244.626C209.052 244.914 208.712 245.134 208.32 245.286C207.936 245.43 207.528 245.502 207.096 245.502C207 245.502 206.86 245.498 206.676 245.49C206.5 245.474 206.36 245.45 206.256 245.418V246.606H205.104V245.442ZM207.144 239.658C207.024 239.658 206.868 239.662 206.676 239.67C206.492 239.678 206.344 239.698 206.232 239.73V244.506C206.32 244.522 206.432 244.534 206.568 244.542C206.704 244.542 206.836 244.542 206.964 244.542C207.252 244.542 207.524 244.49 207.78 244.386C208.036 244.282 208.26 244.13 208.452 243.93C208.644 243.722 208.796 243.462 208.908 243.15C209.02 242.838 209.076 242.47 209.076 242.046C209.076 241.694 209.028 241.374 208.932 241.086C208.844 240.79 208.716 240.538 208.548 240.33C208.38 240.114 208.176 239.95 207.936 239.838C207.696 239.718 207.432 239.658 207.144 239.658ZM204.264 244.542C204.352 244.542 204.488 244.542 204.672 244.542C204.856 244.534 205.008 244.51 205.128 244.47V239.706C205.024 239.69 204.9 239.678 204.756 239.67C204.612 239.662 204.476 239.658 204.348 239.658C204.06 239.658 203.792 239.71 203.544 239.814C203.296 239.918 203.076 240.078 202.884 240.294C202.7 240.502 202.552 240.762 202.44 241.074C202.336 241.386 202.284 241.75 202.284 242.166C202.284 242.526 202.332 242.854 202.428 243.15C202.524 243.438 202.66 243.686 202.836 243.894C203.012 244.102 203.22 244.262 203.46 244.374C203.708 244.486 203.976 244.542 204.264 244.542ZM211.889 240.066H212.633L212.849 240.87H212.957C213.173 240.558 213.453 240.318 213.797 240.15C214.141 239.974 214.529 239.886 214.961 239.886C215.873 239.886 216.553 240.142 217.001 240.654C217.449 241.158 217.673 241.966 217.673 243.078C217.673 243.606 217.597 244.086 217.445 244.518C217.301 244.942 217.089 245.306 216.809 245.61C216.537 245.906 216.201 246.134 215.801 246.294C215.409 246.454 214.969 246.534 214.481 246.534C214.321 246.534 214.173 246.526 214.037 246.51C213.909 246.502 213.789 246.482 213.677 246.45C213.565 246.426 213.453 246.398 213.341 246.366C213.229 246.326 213.113 246.282 212.993 246.234V248.766H211.889V240.066ZM214.709 240.822C214.229 240.822 213.853 240.942 213.581 241.182C213.309 241.422 213.113 241.79 212.993 242.286V245.19C213.177 245.318 213.377 245.418 213.593 245.49C213.809 245.562 214.085 245.598 214.421 245.598C215.069 245.598 215.577 245.386 215.945 244.962C216.313 244.538 216.497 243.906 216.497 243.066C216.497 242.386 216.361 241.842 216.089 241.434C215.817 241.026 215.357 240.822 214.709 240.822ZM219.376 240.462C220.096 240.118 220.988 239.946 222.052 239.946C222.532 239.946 222.916 240.01 223.204 240.138C223.5 240.258 223.728 240.414 223.888 240.606C224.048 240.798 224.152 241.014 224.2 241.254C224.256 241.486 224.284 241.718 224.284 241.95C224.284 242.39 224.268 242.834 224.236 243.282C224.204 243.722 224.188 244.202 224.188 244.722C224.188 245.026 224.2 245.322 224.224 245.61C224.256 245.89 224.304 246.15 224.368 246.39H223.564L223.264 245.43H223.144C223.056 245.55 222.948 245.674 222.82 245.802C222.692 245.922 222.54 246.03 222.364 246.126C222.188 246.222 221.984 246.302 221.752 246.366C221.528 246.43 221.268 246.462 220.972 246.462C220.676 246.462 220.404 246.422 220.156 246.342C219.908 246.254 219.692 246.134 219.508 245.982C219.332 245.83 219.192 245.646 219.088 245.43C218.984 245.206 218.932 244.958 218.932 244.686C218.932 244.326 219.008 244.014 219.16 243.75C219.32 243.486 219.524 243.27 219.772 243.102C220.02 242.934 220.3 242.81 220.612 242.73C220.932 242.65 221.248 242.61 221.56 242.61C221.808 242.61 222.016 242.614 222.184 242.622C222.36 242.63 222.504 242.642 222.616 242.658C222.736 242.666 222.836 242.678 222.916 242.694C222.996 242.702 223.068 242.71 223.132 242.718C223.148 242.598 223.16 242.494 223.168 242.406C223.176 242.318 223.18 242.206 223.18 242.07C223.18 241.846 223.156 241.658 223.108 241.506C223.06 241.354 222.98 241.234 222.868 241.146C222.764 241.05 222.62 240.982 222.436 240.942C222.252 240.902 222.028 240.882 221.764 240.882C221.612 240.882 221.444 240.894 221.26 240.918C221.076 240.942 220.892 240.978 220.708 241.026C220.524 241.066 220.34 241.118 220.156 241.182C219.98 241.246 219.82 241.314 219.676 241.386L219.376 240.462ZM223.132 243.51C223.068 243.502 223 243.49 222.928 243.474C222.856 243.458 222.764 243.446 222.652 243.438C222.548 243.43 222.42 243.422 222.268 243.414C222.124 243.406 221.944 243.402 221.728 243.402C221.232 243.402 220.836 243.49 220.54 243.666C220.252 243.842 220.108 244.142 220.108 244.566C220.108 244.886 220.22 245.126 220.444 245.286C220.676 245.446 220.972 245.526 221.332 245.526C221.596 245.526 221.828 245.494 222.028 245.43C222.236 245.358 222.412 245.274 222.556 245.178C222.708 245.074 222.828 244.962 222.916 244.842C223.012 244.714 223.084 244.59 223.132 244.47V243.51ZM230.704 243.618H227.536V246.366H226.432V240.066H227.536V242.634H230.704V240.066H231.808V246.366H230.704V243.618ZM235.708 243.534H235.024V246.366H233.92V240.066H235.024V242.934L235.684 242.718L237.832 240.066H239.044L236.992 242.514H237.004L236.356 242.982L237.136 243.522L239.356 246.366H237.964L235.708 243.534ZM240.411 240.462C241.131 240.118 242.023 239.946 243.087 239.946C243.567 239.946 243.951 240.01 244.239 240.138C244.535 240.258 244.763 240.414 244.923 240.606C245.083 240.798 245.187 241.014 245.235 241.254C245.291 241.486 245.319 241.718 245.319 241.95C245.319 242.39 245.303 242.834 245.271 243.282C245.239 243.722 245.223 244.202 245.223 244.722C245.223 245.026 245.235 245.322 245.259 245.61C245.291 245.89 245.339 246.15 245.403 246.39H244.599L244.299 245.43H244.179C244.091 245.55 243.983 245.674 243.855 245.802C243.727 245.922 243.575 246.03 243.399 246.126C243.223 246.222 243.019 246.302 242.787 246.366C242.563 246.43 242.303 246.462 242.007 246.462C241.711 246.462 241.439 246.422 241.191 246.342C240.943 246.254 240.727 246.134 240.543 245.982C240.367 245.83 240.227 245.646 240.123 245.43C240.019 245.206 239.967 244.958 239.967 244.686C239.967 244.326 240.043 244.014 240.195 243.75C240.355 243.486 240.559 243.27 240.807 243.102C241.055 242.934 241.335 242.81 241.647 242.73C241.967 242.65 242.283 242.61 242.595 242.61C242.843 242.61 243.051 242.614 243.219 242.622C243.395 242.63 243.539 242.642 243.651 242.658C243.771 242.666 243.871 242.678 243.951 242.694C244.031 242.702 244.103 242.71 244.167 242.718C244.183 242.598 244.195 242.494 244.203 242.406C244.211 242.318 244.215 242.206 244.215 242.07C244.215 241.846 244.191 241.658 244.143 241.506C244.095 241.354 244.015 241.234 243.903 241.146C243.799 241.05 243.655 240.982 243.471 240.942C243.287 240.902 243.063 240.882 242.799 240.882C242.647 240.882 242.479 240.894 242.295 240.918C242.111 240.942 241.927 240.978 241.743 241.026C241.559 241.066 241.375 241.118 241.191 241.182C241.015 241.246 240.855 241.314 240.711 241.386L240.411 240.462ZM244.167 243.51C244.103 243.502 244.035 243.49 243.963 243.474C243.891 243.458 243.799 243.446 243.687 243.438C243.583 243.43 243.455 243.422 243.303 243.414C243.159 243.406 242.979 243.402 242.763 243.402C242.267 243.402 241.871 243.49 241.575 243.666C241.287 243.842 241.143 244.142 241.143 244.566C241.143 244.886 241.255 245.126 241.479 245.286C241.711 245.446 242.007 245.526 242.367 245.526C242.631 245.526 242.863 245.494 243.063 245.43C243.271 245.358 243.447 245.274 243.591 245.178C243.743 245.074 243.863 244.962 243.951 244.842C244.047 244.714 244.119 244.59 244.167 244.47V243.51Z" fill="#474746"/>
<path d="M5.48622 202.941H2.39022V208.305H1.28622V202.005H6.59022V208.305H5.48622V202.941ZM8.63219 202.401C9.35219 202.057 10.2442 201.885 11.3082 201.885C11.7882 201.885 12.1722 201.949 12.4602 202.077C12.7562 202.197 12.9842 202.353 13.1442 202.545C13.3042 202.737 13.4082 202.953 13.4562 203.193C13.5122 203.425 13.5402 203.657 13.5402 203.889C13.5402 204.329 13.5242 204.773 13.4922 205.221C13.4602 205.661 13.4442 206.141 13.4442 206.661C13.4442 206.965 13.4562 207.261 13.4802 207.549C13.5122 207.829 13.5602 208.089 13.6242 208.329H12.8202L12.5202 207.369H12.4002C12.3122 207.489 12.2042 207.613 12.0762 207.741C11.9482 207.861 11.7962 207.969 11.6202 208.065C11.4442 208.161 11.2402 208.241 11.0082 208.305C10.7842 208.369 10.5242 208.401 10.2282 208.401C9.93219 208.401 9.66019 208.361 9.41219 208.281C9.16419 208.193 8.94819 208.073 8.76419 207.921C8.58819 207.769 8.44819 207.585 8.34419 207.369C8.24019 207.145 8.18819 206.897 8.18819 206.625C8.18819 206.265 8.26419 205.953 8.41619 205.689C8.57619 205.425 8.78019 205.209 9.02819 205.041C9.27619 204.873 9.55619 204.749 9.86819 204.669C10.1882 204.589 10.5042 204.549 10.8162 204.549C11.0642 204.549 11.2722 204.553 11.4402 204.561C11.6162 204.569 11.7602 204.581 11.8722 204.597C11.9922 204.605 12.0922 204.617 12.1722 204.633C12.2522 204.641 12.3242 204.649 12.3882 204.657C12.4042 204.537 12.4162 204.433 12.4242 204.345C12.4322 204.257 12.4362 204.145 12.4362 204.009C12.4362 203.785 12.4122 203.597 12.3642 203.445C12.3162 203.293 12.2362 203.173 12.1242 203.085C12.0202 202.989 11.8762 202.921 11.6922 202.881C11.5082 202.841 11.2842 202.821 11.0202 202.821C10.8682 202.821 10.7002 202.833 10.5162 202.857C10.3322 202.881 10.1482 202.917 9.96419 202.965C9.78019 203.005 9.59619 203.057 9.41219 203.121C9.23619 203.185 9.07619 203.253 8.93219 203.325L8.63219 202.401ZM12.3882 205.449C12.3242 205.441 12.2562 205.429 12.1842 205.413C12.1122 205.397 12.0202 205.385 11.9082 205.377C11.8042 205.369 11.6762 205.361 11.5242 205.353C11.3802 205.345 11.2002 205.341 10.9842 205.341C10.4882 205.341 10.0922 205.429 9.79619 205.605C9.50819 205.781 9.36419 206.081 9.36419 206.505C9.36419 206.825 9.47619 207.065 9.70019 207.225C9.93219 207.385 10.2282 207.465 10.5882 207.465C10.8522 207.465 11.0842 207.433 11.2842 207.369C11.4922 207.297 11.6682 207.213 11.8122 207.117C11.9642 207.013 12.0842 206.901 12.1722 206.781C12.2682 206.653 12.3402 206.529 12.3882 206.409V205.449ZM15.6886 202.005H16.4326L16.6486 202.809H16.7566C16.9726 202.497 17.2526 202.257 17.5966 202.089C17.9406 201.913 18.3286 201.825 18.7606 201.825C19.6726 201.825 20.3526 202.081 20.8006 202.593C21.2486 203.097 21.4726 203.905 21.4726 205.017C21.4726 205.545 21.3966 206.025 21.2446 206.457C21.1006 206.881 20.8886 207.245 20.6086 207.549C20.3366 207.845 20.0006 208.073 19.6006 208.233C19.2086 208.393 18.7686 208.473 18.2806 208.473C18.1206 208.473 17.9726 208.465 17.8366 208.449C17.7086 208.441 17.5886 208.421 17.4766 208.389C17.3646 208.365 17.2526 208.337 17.1406 208.305C17.0286 208.265 16.9126 208.221 16.7926 208.173V210.705H15.6886V202.005ZM18.5086 202.761C18.0286 202.761 17.6526 202.881 17.3806 203.121C17.1086 203.361 16.9126 203.729 16.7926 204.225V207.129C16.9766 207.257 17.1766 207.357 17.3926 207.429C17.6086 207.501 17.8846 207.537 18.2206 207.537C18.8686 207.537 19.3766 207.325 19.7446 206.901C20.1126 206.477 20.2966 205.845 20.2966 205.005C20.2966 204.325 20.1606 203.781 19.8886 203.373C19.6166 202.965 19.1566 202.761 18.5086 202.761ZM25.0352 205.473H24.3512V208.305H23.2472V202.005H24.3512V204.873L25.0112 204.657L27.1592 202.005H28.3712L26.3192 204.453H26.3312L25.6832 204.921L26.4632 205.461L28.6832 208.305H27.2912L25.0352 205.473ZM35.1018 204.489H34.5138V208.305H33.3138V199.905H34.5138V203.769L35.0658 203.601L38.0898 199.905H39.4578L36.4338 203.505L35.8698 203.913L36.5298 204.393L39.8659 208.305H38.3538L35.1018 204.489ZM43.2852 205.989L43.6572 207.201H43.8132L44.1132 205.977L45.4212 202.005H46.5492L44.4852 207.705C44.3332 208.097 44.1772 208.477 44.0172 208.845C43.8652 209.213 43.6932 209.537 43.5012 209.817C43.3172 210.105 43.1092 210.333 42.8772 210.501C42.6532 210.677 42.3932 210.765 42.0972 210.765C41.7772 210.765 41.5052 210.729 41.2812 210.657L41.4612 209.721C41.5812 209.761 41.7012 209.781 41.8212 209.781C41.9812 209.781 42.1252 209.761 42.2532 209.721C42.3892 209.681 42.5132 209.609 42.6252 209.505C42.7372 209.401 42.8372 209.253 42.9252 209.061C43.0212 208.877 43.1092 208.637 43.1892 208.341L40.3692 202.005H41.6772L43.2852 205.989ZM51.3321 202.941H49.2921L49.2681 203.301C49.2121 204.093 49.1441 204.805 49.0641 205.437C48.9921 206.061 48.8841 206.593 48.7401 207.033C48.5961 207.465 48.4041 207.797 48.1641 208.029C47.9241 208.253 47.6121 208.365 47.2281 208.365C47.0521 208.365 46.8961 208.353 46.7601 208.329C46.6241 208.313 46.5081 208.285 46.4121 208.245L46.5801 207.237C46.6841 207.269 46.8001 207.285 46.9281 207.285C47.1201 207.285 47.2921 207.217 47.4441 207.081C47.5961 206.937 47.7281 206.673 47.8401 206.289C47.9521 205.905 48.0441 205.369 48.1161 204.681C48.1881 203.993 48.2401 203.101 48.2721 202.005H52.4361V208.305H51.3321V202.941ZM55.6519 207.369C55.9879 207.417 56.3279 207.441 56.6719 207.441C57.2559 207.441 57.6839 207.341 57.9559 207.141C58.2359 206.933 58.3759 206.649 58.3759 206.289C58.3759 205.969 58.2399 205.701 57.9679 205.485C57.7039 205.269 57.2839 205.161 56.7079 205.161C56.5559 205.161 56.3879 205.169 56.2039 205.185C56.0199 205.193 55.8359 205.217 55.6519 205.257V207.369ZM55.6519 204.417C55.9079 204.377 56.1439 204.353 56.3599 204.345C56.5759 204.329 56.7679 204.321 56.9359 204.321C57.4159 204.321 57.8199 204.369 58.1479 204.465C58.4839 204.561 58.7559 204.693 58.9639 204.861C59.1719 205.029 59.3199 205.229 59.4079 205.461C59.5039 205.685 59.5519 205.929 59.5519 206.193C59.5519 206.953 59.2999 207.509 58.7959 207.861C58.2919 208.205 57.5039 208.377 56.4319 208.377C56.0959 208.377 55.7759 208.373 55.4719 208.365C55.1679 208.357 54.8599 208.341 54.5479 208.317V202.005H55.6519V204.417ZM64.9522 202.941H62.7682V208.305H61.6642V202.941H59.4802V202.005H64.9522V202.941ZM67.9649 205.989L68.3369 207.201H68.4929L68.7929 205.977L70.1009 202.005H71.2289L69.1649 207.705C69.0129 208.097 68.8569 208.477 68.6969 208.845C68.5449 209.213 68.3729 209.537 68.1809 209.817C67.9969 210.105 67.7889 210.333 67.5569 210.501C67.3329 210.677 67.0729 210.765 66.7769 210.765C66.4569 210.765 66.1849 210.729 65.9609 210.657L66.1409 209.721C66.2609 209.761 66.3809 209.781 66.5009 209.781C66.6609 209.781 66.8049 209.761 66.9329 209.721C67.0689 209.681 67.1929 209.609 67.3049 209.505C67.4169 209.401 67.5169 209.253 67.6049 209.061C67.7009 208.877 67.7889 208.637 67.8689 208.341L65.0489 202.005H66.3569L67.9649 205.989ZM72.3839 202.005H73.1279L73.3439 202.809H73.4519C73.6679 202.497 73.9479 202.257 74.2919 202.089C74.6359 201.913 75.0239 201.825 75.4559 201.825C76.3679 201.825 77.0479 202.081 77.4959 202.593C77.9439 203.097 78.1679 203.905 78.1679 205.017C78.1679 205.545 78.0919 206.025 77.9399 206.457C77.7959 206.881 77.5839 207.245 77.3039 207.549C77.0319 207.845 76.6959 208.073 76.2959 208.233C75.9039 208.393 75.4639 208.473 74.9759 208.473C74.8159 208.473 74.6679 208.465 74.5319 208.449C74.4039 208.441 74.2839 208.421 74.1719 208.389C74.0599 208.365 73.9479 208.337 73.8359 208.305C73.7239 208.265 73.6079 208.221 73.4879 208.173V210.705H72.3839V202.005ZM75.2039 202.761C74.7239 202.761 74.3479 202.881 74.0759 203.121C73.8039 203.361 73.6079 203.729 73.4879 204.225V207.129C73.6719 207.257 73.8719 207.357 74.0879 207.429C74.3039 207.501 74.5799 207.537 74.9159 207.537C75.5639 207.537 76.0719 207.325 76.4399 206.901C76.8079 206.477 76.9919 205.845 76.9919 205.005C76.9919 204.325 76.8559 203.781 76.5839 203.373C76.3119 202.965 75.8519 202.761 75.2039 202.761ZM84.2985 204.705L84.4665 203.457H84.3345L83.7465 204.633L80.7945 208.305H79.9425V202.005H81.0465V205.725L80.9625 206.829H81.0945L81.6465 205.761L84.5385 202.005H85.4025V208.305H84.2985V204.705Z" fill="#474746"/>
<path d="M167.901 231.726L181.401 231.726L181.401 221.276L167.901 221.276L167.901 231.726Z" fill="#E62139"/>
<path d="M86.3205 189.835L95.8664 199.381L103.256 191.992L93.7097 182.446L86.3205 189.835Z" fill="#E62139"/>
<path d="M81.86 143.02C87.786 143.02 92.59 138.216 92.59 132.29C92.59 126.364 87.786 121.56 81.86 121.56C75.934 121.56 71.13 126.364 71.13 132.29C71.13 138.216 75.934 143.02 81.86 143.02Z" fill="#E62139"/>
<path d="M81.3169 136.58C81.6734 136.58 81.9828 136.538 82.245 136.454C82.5177 136.359 82.7431 136.234 82.9214 136.076C83.0997 135.919 83.236 135.741 83.3304 135.541C83.4248 135.332 83.472 135.117 83.472 134.896C83.472 134.33 83.278 133.911 82.89 133.638C82.5124 133.365 81.8989 133.229 81.0494 133.229H79.8067V132.065L81.836 129.579L82.827 128.856L81.4742 129.029H78.6269V127.188H85.1709V128.368L82.8113 131.263L82.0405 131.687V131.766L82.7641 131.672C83.1521 131.703 83.5192 131.792 83.8653 131.939C84.2218 132.086 84.5312 132.285 84.7934 132.537C85.0661 132.789 85.2811 133.103 85.4384 133.481C85.5957 133.848 85.6743 134.278 85.6743 134.771C85.6743 135.389 85.559 135.929 85.3282 136.391C85.108 136.842 84.8039 137.219 84.4159 137.524C84.0278 137.828 83.5716 138.053 83.0473 138.2C82.5229 138.347 81.9566 138.42 81.3483 138.42C81.0966 138.42 80.8397 138.41 80.5775 138.389C80.3153 138.368 80.0584 138.331 79.8067 138.279C79.555 138.237 79.3138 138.189 79.0831 138.137C78.8628 138.074 78.6688 138.001 78.501 137.917L79.0988 136.092C79.3925 136.228 79.7228 136.344 80.0899 136.438C80.4569 136.532 80.8659 136.58 81.3169 136.58Z" fill="white"/>
<path d="M305.721 189.901L315.266 180.355L307.877 172.966L298.331 182.511L305.721 189.901Z" fill="#E62139"/>
<path d="M313.023 197.202L322.569 187.656L315.18 180.267L305.634 189.812L313.023 197.202Z" fill="#FBB927"/>
<path d="M322.739 199.022L323.195 198.998C323.451 198.982 323.731 198.966 324.035 198.95C324.339 198.926 324.691 198.914 325.091 198.914C326.019 198.914 326.683 199.046 327.083 199.31C327.491 199.566 327.695 199.95 327.695 200.462C327.695 200.742 327.595 201.026 327.395 201.314C327.203 201.594 326.895 201.798 326.471 201.926V202.058C326.999 202.162 327.375 202.338 327.599 202.586C327.831 202.834 327.947 203.162 327.947 203.57C327.947 204.202 327.687 204.67 327.167 204.974C326.647 205.27 325.863 205.418 324.815 205.418C324.463 205.418 324.131 205.406 323.819 205.382C323.507 205.366 323.203 205.346 322.907 205.322C322.875 205.322 322.847 205.322 322.823 205.322C322.799 205.314 322.771 205.31 322.739 205.31V199.022ZM323.843 204.458C324.019 204.482 324.191 204.502 324.359 204.518C324.527 204.526 324.735 204.53 324.983 204.53C325.615 204.53 326.071 204.45 326.351 204.29C326.631 204.122 326.771 203.85 326.771 203.474C326.771 203.322 326.743 203.182 326.687 203.054C326.631 202.926 326.539 202.818 326.411 202.73C326.283 202.642 326.107 202.574 325.883 202.526C325.667 202.47 325.399 202.442 325.079 202.442H323.843V204.458ZM325.211 201.686C325.387 201.686 325.555 201.662 325.715 201.614C325.875 201.566 326.019 201.498 326.147 201.41C326.275 201.322 326.375 201.222 326.447 201.11C326.527 200.99 326.567 200.862 326.567 200.726C326.567 200.39 326.451 200.158 326.219 200.03C325.995 199.894 325.607 199.826 325.055 199.826C324.871 199.826 324.683 199.834 324.491 199.85C324.307 199.858 324.091 199.866 323.843 199.874V201.686H325.211ZM331.679 203.006L332.051 204.218H332.207L332.507 202.994L333.815 199.022H334.943L332.879 204.722C332.727 205.114 332.571 205.494 332.411 205.862C332.259 206.23 332.087 206.554 331.895 206.834C331.711 207.122 331.503 207.35 331.271 207.518C331.047 207.694 330.787 207.782 330.491 207.782C330.171 207.782 329.899 207.746 329.675 207.674L329.855 206.738C329.975 206.778 330.095 206.798 330.215 206.798C330.375 206.798 330.519 206.778 330.647 206.738C330.783 206.698 330.907 206.626 331.019 206.522C331.131 206.418 331.231 206.27 331.319 206.078C331.415 205.894 331.503 205.654 331.583 205.358L328.763 199.022H330.071L331.679 203.006ZM339.726 199.958H337.686L337.662 200.318C337.606 201.11 337.538 201.822 337.458 202.454C337.386 203.078 337.278 203.61 337.134 204.05C336.99 204.482 336.798 204.814 336.558 205.046C336.318 205.27 336.006 205.382 335.622 205.382C335.446 205.382 335.29 205.37 335.154 205.346C335.018 205.33 334.902 205.302 334.806 205.262L334.974 204.254C335.078 204.286 335.194 204.302 335.322 204.302C335.514 204.302 335.686 204.234 335.838 204.098C335.99 203.954 336.122 203.69 336.234 203.306C336.346 202.922 336.438 202.386 336.51 201.698C336.582 201.01 336.634 200.118 336.666 199.022H340.83V205.322H339.726V199.958ZM342.51 204.71C342.51 204.478 342.582 204.294 342.726 204.158C342.878 204.022 343.074 203.954 343.314 203.954C343.554 203.954 343.746 204.022 343.89 204.158C344.042 204.294 344.118 204.478 344.118 204.71C344.118 204.926 344.042 205.106 343.89 205.25C343.746 205.394 343.554 205.466 343.314 205.466C343.074 205.466 342.878 205.394 342.726 205.25C342.582 205.106 342.51 204.926 342.51 204.71ZM354.882 204.962C354.618 205.154 354.282 205.286 353.874 205.358C353.466 205.438 353.034 205.478 352.578 205.478C352.042 205.478 351.53 205.394 351.042 205.226C350.562 205.05 350.138 204.786 349.77 204.434C349.402 204.074 349.11 203.622 348.894 203.078C348.678 202.526 348.57 201.874 348.57 201.122C348.57 200.338 348.69 199.67 348.93 199.118C349.17 198.566 349.482 198.118 349.866 197.774C350.25 197.422 350.682 197.166 351.162 197.006C351.642 196.846 352.118 196.766 352.59 196.766C353.118 196.766 353.55 196.794 353.886 196.85C354.222 196.906 354.506 196.978 354.738 197.066L354.474 198.098C354.082 197.914 353.486 197.822 352.686 197.822C352.326 197.822 351.974 197.882 351.63 198.002C351.294 198.114 350.99 198.302 350.718 198.566C350.454 198.822 350.242 199.162 350.082 199.586C349.922 200.002 349.842 200.514 349.842 201.122C349.842 201.666 349.918 202.146 350.07 202.562C350.222 202.97 350.43 203.314 350.694 203.594C350.966 203.866 351.282 204.074 351.642 204.218C352.01 204.354 352.41 204.422 352.842 204.422C353.234 204.422 353.574 204.386 353.862 204.314C354.15 204.242 354.394 204.15 354.594 204.038L354.882 204.962ZM356.346 199.418C357.066 199.074 357.958 198.902 359.022 198.902C359.502 198.902 359.886 198.966 360.174 199.094C360.47 199.214 360.698 199.37 360.858 199.562C361.018 199.754 361.122 199.97 361.17 200.21C361.226 200.442 361.254 200.674 361.254 200.906C361.254 201.346 361.238 201.79 361.206 202.238C361.174 202.678 361.158 203.158 361.158 203.678C361.158 203.982 361.17 204.278 361.194 204.566C361.226 204.846 361.274 205.106 361.338 205.346H360.534L360.234 204.386H360.114C360.026 204.506 359.918 204.63 359.79 204.758C359.662 204.878 359.51 204.986 359.334 205.082C359.158 205.178 358.954 205.258 358.722 205.322C358.498 205.386 358.238 205.418 357.942 205.418C357.646 205.418 357.374 205.378 357.126 205.298C356.878 205.21 356.662 205.09 356.478 204.938C356.302 204.786 356.162 204.602 356.058 204.386C355.954 204.162 355.902 203.914 355.902 203.642C355.902 203.282 355.978 202.97 356.13 202.706C356.29 202.442 356.494 202.226 356.742 202.058C356.99 201.89 357.27 201.766 357.582 201.686C357.902 201.606 358.218 201.566 358.53 201.566C358.778 201.566 358.986 201.57 359.154 201.578C359.33 201.586 359.474 201.598 359.586 201.614C359.706 201.622 359.806 201.634 359.886 201.65C359.966 201.658 360.038 201.666 360.102 201.674C360.118 201.554 360.13 201.45 360.138 201.362C360.146 201.274 360.15 201.162 360.15 201.026C360.15 200.802 360.126 200.614 360.078 200.462C360.03 200.31 359.95 200.19 359.838 200.102C359.734 200.006 359.59 199.938 359.406 199.898C359.222 199.858 358.998 199.838 358.734 199.838C358.582 199.838 358.414 199.85 358.23 199.874C358.046 199.898 357.862 199.934 357.678 199.982C357.494 200.022 357.31 200.074 357.126 200.138C356.95 200.202 356.79 200.27 356.646 200.342L356.346 199.418ZM360.102 202.466C360.038 202.458 359.97 202.446 359.898 202.43C359.826 202.414 359.734 202.402 359.622 202.394C359.518 202.386 359.39 202.378 359.238 202.37C359.094 202.362 358.914 202.358 358.698 202.358C358.202 202.358 357.806 202.446 357.51 202.622C357.222 202.798 357.078 203.098 357.078 203.522C357.078 203.842 357.19 204.082 357.414 204.242C357.646 204.402 357.942 204.482 358.302 204.482C358.566 204.482 358.798 204.45 358.998 204.386C359.206 204.314 359.382 204.23 359.526 204.134C359.678 204.03 359.798 203.918 359.886 203.798C359.982 203.67 360.054 203.546 360.102 203.426V202.466ZM365.191 202.49H364.507V205.322H363.403V199.022H364.507V201.89L365.167 201.674L367.315 199.022H368.527L366.475 201.47H366.487L365.839 201.938L366.619 202.478L368.839 205.322H367.447L365.191 202.49ZM374.588 204.89C374.308 205.09 373.98 205.238 373.604 205.334C373.228 205.438 372.832 205.49 372.416 205.49C371.888 205.49 371.436 205.41 371.06 205.25C370.692 205.09 370.392 204.866 370.16 204.578C369.928 204.29 369.76 203.942 369.656 203.534C369.552 203.126 369.5 202.674 369.5 202.178C369.5 201.114 369.756 200.294 370.268 199.718C370.788 199.134 371.532 198.842 372.5 198.842C372.924 198.842 373.292 198.882 373.604 198.962C373.916 199.034 374.196 199.126 374.444 199.238L374.156 200.138C373.94 200.026 373.704 199.938 373.448 199.874C373.2 199.81 372.928 199.778 372.632 199.778C371.328 199.778 370.676 200.578 370.676 202.178C370.676 202.482 370.712 202.778 370.784 203.066C370.856 203.346 370.972 203.598 371.132 203.822C371.292 204.038 371.5 204.214 371.756 204.35C372.02 204.486 372.34 204.554 372.716 204.554C373.052 204.554 373.344 204.51 373.592 204.422C373.848 204.326 374.06 204.214 374.228 204.086L374.588 204.89ZM376.116 199.418C376.836 199.074 377.728 198.902 378.792 198.902C379.272 198.902 379.656 198.966 379.944 199.094C380.24 199.214 380.468 199.37 380.628 199.562C380.788 199.754 380.892 199.97 380.94 200.21C380.996 200.442 381.024 200.674 381.024 200.906C381.024 201.346 381.008 201.79 380.976 202.238C380.944 202.678 380.928 203.158 380.928 203.678C380.928 203.982 380.94 204.278 380.964 204.566C380.996 204.846 381.044 205.106 381.108 205.346H380.304L380.004 204.386H379.884C379.796 204.506 379.688 204.63 379.56 204.758C379.432 204.878 379.28 204.986 379.104 205.082C378.928 205.178 378.724 205.258 378.492 205.322C378.268 205.386 378.008 205.418 377.712 205.418C377.416 205.418 377.144 205.378 376.896 205.298C376.648 205.21 376.432 205.09 376.248 204.938C376.072 204.786 375.932 204.602 375.828 204.386C375.724 204.162 375.672 203.914 375.672 203.642C375.672 203.282 375.748 202.97 375.9 202.706C376.06 202.442 376.264 202.226 376.512 202.058C376.76 201.89 377.04 201.766 377.352 201.686C377.672 201.606 377.988 201.566 378.3 201.566C378.548 201.566 378.756 201.57 378.924 201.578C379.1 201.586 379.244 201.598 379.356 201.614C379.476 201.622 379.576 201.634 379.656 201.65C379.736 201.658 379.808 201.666 379.872 201.674C379.888 201.554 379.9 201.45 379.908 201.362C379.916 201.274 379.92 201.162 379.92 201.026C379.92 200.802 379.896 200.614 379.848 200.462C379.8 200.31 379.72 200.19 379.608 200.102C379.504 200.006 379.36 199.938 379.176 199.898C378.992 199.858 378.768 199.838 378.504 199.838C378.352 199.838 378.184 199.85 378 199.874C377.816 199.898 377.632 199.934 377.448 199.982C377.264 200.022 377.08 200.074 376.896 200.138C376.72 200.202 376.56 200.27 376.416 200.342L376.116 199.418ZM379.872 202.466C379.808 202.458 379.74 202.446 379.668 202.43C379.596 202.414 379.504 202.402 379.392 202.394C379.288 202.386 379.16 202.378 379.008 202.37C378.864 202.362 378.684 202.358 378.468 202.358C377.972 202.358 377.576 202.446 377.28 202.622C376.992 202.798 376.848 203.098 376.848 203.522C376.848 203.842 376.96 204.082 377.184 204.242C377.416 204.402 377.712 204.482 378.072 204.482C378.336 204.482 378.568 204.45 378.768 204.386C378.976 204.314 379.152 204.23 379.296 204.134C379.448 204.03 379.568 203.918 379.656 203.798C379.752 203.67 379.824 203.546 379.872 203.426V202.466ZM387.228 199.958H384.276V205.322H383.172V199.022H387.228V199.958ZM388.21 199.418C388.93 199.074 389.822 198.902 390.886 198.902C391.366 198.902 391.75 198.966 392.038 199.094C392.334 199.214 392.562 199.37 392.722 199.562C392.882 199.754 392.986 199.97 393.034 200.21C393.09 200.442 393.118 200.674 393.118 200.906C393.118 201.346 393.102 201.79 393.07 202.238C393.038 202.678 393.022 203.158 393.022 203.678C393.022 203.982 393.034 204.278 393.058 204.566C393.09 204.846 393.138 205.106 393.202 205.346H392.398L392.098 204.386H391.978C391.89 204.506 391.782 204.63 391.654 204.758C391.526 204.878 391.374 204.986 391.198 205.082C391.022 205.178 390.818 205.258 390.586 205.322C390.362 205.386 390.102 205.418 389.806 205.418C389.51 205.418 389.238 205.378 388.99 205.298C388.742 205.21 388.526 205.09 388.342 204.938C388.166 204.786 388.026 204.602 387.922 204.386C387.818 204.162 387.766 203.914 387.766 203.642C387.766 203.282 387.842 202.97 387.994 202.706C388.154 202.442 388.358 202.226 388.606 202.058C388.854 201.89 389.134 201.766 389.446 201.686C389.766 201.606 390.082 201.566 390.394 201.566C390.642 201.566 390.85 201.57 391.018 201.578C391.194 201.586 391.338 201.598 391.45 201.614C391.57 201.622 391.67 201.634 391.75 201.65C391.83 201.658 391.902 201.666 391.966 201.674C391.982 201.554 391.994 201.45 392.002 201.362C392.01 201.274 392.014 201.162 392.014 201.026C392.014 200.802 391.99 200.614 391.942 200.462C391.894 200.31 391.814 200.19 391.702 200.102C391.598 200.006 391.454 199.938 391.27 199.898C391.086 199.858 390.862 199.838 390.598 199.838C390.446 199.838 390.278 199.85 390.094 199.874C389.91 199.898 389.726 199.934 389.542 199.982C389.358 200.022 389.174 200.074 388.99 200.138C388.814 200.202 388.654 200.27 388.51 200.342L388.21 199.418ZM391.966 202.466C391.902 202.458 391.834 202.446 391.762 202.43C391.69 202.414 391.598 202.402 391.486 202.394C391.382 202.386 391.254 202.378 391.102 202.37C390.958 202.362 390.778 202.358 390.562 202.358C390.066 202.358 389.67 202.446 389.374 202.622C389.086 202.798 388.942 203.098 388.942 203.522C388.942 203.842 389.054 204.082 389.278 204.242C389.51 204.402 389.806 204.482 390.166 204.482C390.43 204.482 390.662 204.45 390.862 204.386C391.07 204.314 391.246 204.23 391.39 204.134C391.542 204.03 391.662 203.918 391.75 203.798C391.846 203.67 391.918 203.546 391.966 203.426V202.466ZM399.538 202.574H396.37V205.322H395.266V199.022H396.37V201.59H399.538V199.022H400.642V205.322H399.538V202.574ZM407.506 204.89C407.226 205.09 406.898 205.238 406.522 205.334C406.146 205.438 405.75 205.49 405.334 205.49C404.806 205.49 404.354 205.41 403.978 205.25C403.61 205.09 403.31 204.866 403.078 204.578C402.846 204.29 402.678 203.942 402.574 203.534C402.47 203.126 402.418 202.674 402.418 202.178C402.418 201.114 402.674 200.294 403.186 199.718C403.706 199.134 404.45 198.842 405.418 198.842C405.842 198.842 406.21 198.882 406.522 198.962C406.834 199.034 407.114 199.126 407.362 199.238L407.074 200.138C406.858 200.026 406.622 199.938 406.366 199.874C406.118 199.81 405.846 199.778 405.55 199.778C404.246 199.778 403.594 200.578 403.594 202.178C403.594 202.482 403.63 202.778 403.702 203.066C403.774 203.346 403.89 203.598 404.05 203.822C404.21 204.038 404.418 204.214 404.674 204.35C404.938 204.486 405.258 204.554 405.634 204.554C405.97 204.554 406.262 204.51 406.51 204.422C406.766 204.326 406.978 204.214 407.146 204.086L407.506 204.89ZM410.21 204.386C410.546 204.434 410.886 204.458 411.23 204.458C411.814 204.458 412.242 204.358 412.514 204.158C412.794 203.95 412.934 203.666 412.934 203.306C412.934 202.986 412.798 202.718 412.526 202.502C412.262 202.286 411.842 202.178 411.266 202.178C411.114 202.178 410.946 202.186 410.762 202.202C410.578 202.21 410.394 202.234 410.21 202.274V204.386ZM410.21 201.434C410.466 201.394 410.702 201.37 410.918 201.362C411.134 201.346 411.326 201.338 411.494 201.338C411.974 201.338 412.378 201.386 412.706 201.482C413.042 201.578 413.314 201.71 413.522 201.878C413.73 202.046 413.878 202.246 413.966 202.478C414.062 202.702 414.11 202.946 414.11 203.21C414.11 203.97 413.858 204.526 413.354 204.878C412.85 205.222 412.062 205.394 410.99 205.394C410.654 205.394 410.334 205.39 410.03 205.382C409.726 205.374 409.418 205.358 409.106 205.334V199.022H410.21V201.434ZM417.316 202.49H416.632V205.322H415.528V199.022H416.632V201.89L417.292 201.674L419.44 199.022H420.652L418.6 201.47H418.612L417.964 201.938L418.744 202.478L420.964 205.322H419.572L417.316 202.49ZM421.625 202.178C421.625 201.658 421.693 201.194 421.829 200.786C421.965 200.37 422.165 200.018 422.429 199.73C422.693 199.442 423.013 199.222 423.389 199.07C423.773 198.918 424.209 198.842 424.697 198.842C425.209 198.842 425.657 198.926 426.041 199.094C426.425 199.262 426.745 199.498 427.001 199.802C427.257 200.098 427.445 200.45 427.565 200.858C427.693 201.258 427.757 201.698 427.757 202.178C427.757 202.69 427.685 203.15 427.541 203.558C427.405 203.966 427.205 204.314 426.941 204.602C426.685 204.89 426.365 205.11 425.981 205.262C425.605 205.414 425.177 205.49 424.697 205.49C424.169 205.49 423.713 205.406 423.329 205.238C422.945 205.07 422.625 204.838 422.369 204.542C422.121 204.246 421.933 203.898 421.805 203.498C421.685 203.09 421.625 202.65 421.625 202.178ZM422.801 202.178C422.801 202.474 422.833 202.766 422.897 203.054C422.969 203.334 423.081 203.586 423.233 203.81C423.385 204.034 423.581 204.214 423.821 204.35C424.061 204.486 424.357 204.554 424.709 204.554C425.957 204.554 426.581 203.762 426.581 202.178C426.581 201.866 426.545 201.566 426.473 201.278C426.409 200.99 426.301 200.738 426.149 200.522C426.005 200.298 425.813 200.118 425.573 199.982C425.333 199.846 425.045 199.778 424.709 199.778C424.085 199.778 423.609 199.978 423.281 200.378C422.961 200.77 422.801 201.37 422.801 202.178ZM433.588 199.958H430.636V205.322H429.532V199.022H433.588V199.958ZM434.117 202.178C434.117 201.658 434.185 201.194 434.321 200.786C434.457 200.37 434.657 200.018 434.921 199.73C435.185 199.442 435.505 199.222 435.881 199.07C436.265 198.918 436.701 198.842 437.189 198.842C437.701 198.842 438.149 198.926 438.533 199.094C438.917 199.262 439.237 199.498 439.493 199.802C439.749 200.098 439.937 200.45 440.057 200.858C440.185 201.258 440.249 201.698 440.249 202.178C440.249 202.69 440.177 203.15 440.033 203.558C439.897 203.966 439.697 204.314 439.433 204.602C439.177 204.89 438.857 205.11 438.473 205.262C438.097 205.414 437.669 205.49 437.189 205.49C436.661 205.49 436.205 205.406 435.821 205.238C435.437 205.07 435.117 204.838 434.861 204.542C434.613 204.246 434.425 203.898 434.297 203.498C434.177 203.09 434.117 202.65 434.117 202.178ZM435.293 202.178C435.293 202.474 435.325 202.766 435.389 203.054C435.461 203.334 435.573 203.586 435.725 203.81C435.877 204.034 436.073 204.214 436.313 204.35C436.553 204.486 436.849 204.554 437.201 204.554C438.449 204.554 439.073 203.762 439.073 202.178C439.073 201.866 439.037 201.566 438.965 201.278C438.901 200.99 438.793 200.738 438.641 200.522C438.497 200.298 438.305 200.118 438.065 199.982C437.825 199.846 437.537 199.778 437.201 199.778C436.577 199.778 436.101 199.978 435.773 200.378C435.453 200.77 435.293 201.37 435.293 202.178Z" fill="#474746"/>
<path d="M368.54 140.62L357.98 130.06L347.04 141L357.6 151.56C360.52 154.48 365.26 154.48 368.18 151.56L368.55 151.19C371.46 148.27 371.46 143.54 368.54 140.62Z" fill="#FBB924"/>
<path d="M347.43 119.5C344.51 116.58 339.77 116.58 336.85 119.5L336.48 119.87C333.56 122.79 333.56 127.53 336.48 130.45L347.04 141.01L357.99 130.06L347.43 119.5Z" fill="#E62139"/>
<path d="M377.704 161.517H374.608V166.881H373.504V160.581H378.808V166.881H377.704V161.517ZM384.714 161.517H382.674L382.65 161.877C382.594 162.669 382.526 163.381 382.446 164.013C382.374 164.637 382.266 165.169 382.122 165.609C381.978 166.041 381.786 166.373 381.546 166.605C381.306 166.829 380.994 166.941 380.61 166.941C380.434 166.941 380.278 166.929 380.142 166.905C380.006 166.889 379.89 166.861 379.794 166.821L379.962 165.813C380.066 165.845 380.182 165.861 380.31 165.861C380.502 165.861 380.674 165.793 380.826 165.657C380.978 165.513 381.11 165.249 381.222 164.865C381.334 164.481 381.426 163.945 381.498 163.257C381.57 162.569 381.622 161.677 381.654 160.581H385.818V166.881H384.714V161.517ZM387.498 166.269C387.498 166.037 387.57 165.853 387.714 165.717C387.866 165.581 388.062 165.513 388.302 165.513C388.542 165.513 388.734 165.581 388.878 165.717C389.03 165.853 389.106 166.037 389.106 166.269C389.106 166.485 389.03 166.665 388.878 166.809C388.734 166.953 388.542 167.025 388.302 167.025C388.062 167.025 387.866 166.953 387.714 166.809C387.57 166.665 387.498 166.485 387.498 166.269ZM399.87 166.521C399.606 166.713 399.27 166.845 398.862 166.917C398.454 166.997 398.022 167.037 397.566 167.037C397.03 167.037 396.518 166.953 396.03 166.785C395.55 166.609 395.126 166.345 394.758 165.993C394.39 165.633 394.098 165.181 393.882 164.637C393.666 164.085 393.558 163.433 393.558 162.681C393.558 161.897 393.678 161.229 393.918 160.677C394.158 160.125 394.47 159.677 394.854 159.333C395.238 158.981 395.67 158.725 396.15 158.565C396.63 158.405 397.106 158.325 397.578 158.325C398.106 158.325 398.538 158.353 398.874 158.409C399.21 158.465 399.494 158.537 399.726 158.625L399.462 159.657C399.07 159.473 398.474 159.381 397.674 159.381C397.314 159.381 396.962 159.441 396.618 159.561C396.282 159.673 395.978 159.861 395.706 160.125C395.442 160.381 395.23 160.721 395.07 161.145C394.91 161.561 394.83 162.073 394.83 162.681C394.83 163.225 394.906 163.705 395.058 164.121C395.21 164.529 395.418 164.873 395.682 165.153C395.954 165.425 396.27 165.633 396.63 165.777C396.998 165.913 397.398 165.981 397.83 165.981C398.222 165.981 398.562 165.945 398.85 165.873C399.138 165.801 399.382 165.709 399.582 165.597L399.87 166.521ZM400.649 163.737C400.649 163.217 400.717 162.753 400.853 162.345C400.989 161.929 401.189 161.577 401.453 161.289C401.717 161.001 402.037 160.781 402.413 160.629C402.797 160.477 403.233 160.401 403.721 160.401C404.233 160.401 404.681 160.485 405.065 160.653C405.449 160.821 405.769 161.057 406.025 161.361C406.281 161.657 406.469 162.009 406.589 162.417C406.717 162.817 406.781 163.257 406.781 163.737C406.781 164.249 406.709 164.709 406.565 165.117C406.429 165.525 406.229 165.873 405.965 166.161C405.709 166.449 405.389 166.669 405.005 166.821C404.629 166.973 404.201 167.049 403.721 167.049C403.193 167.049 402.737 166.965 402.353 166.797C401.969 166.629 401.649 166.397 401.393 166.101C401.145 165.805 400.957 165.457 400.829 165.057C400.709 164.649 400.649 164.209 400.649 163.737ZM401.825 163.737C401.825 164.033 401.857 164.325 401.921 164.613C401.993 164.893 402.105 165.145 402.257 165.369C402.409 165.593 402.605 165.773 402.845 165.909C403.085 166.045 403.381 166.113 403.733 166.113C404.981 166.113 405.605 165.321 405.605 163.737C405.605 163.425 405.569 163.125 405.497 162.837C405.433 162.549 405.325 162.297 405.173 162.081C405.029 161.857 404.837 161.677 404.597 161.541C404.357 161.405 404.069 161.337 403.733 161.337C403.109 161.337 402.633 161.537 402.305 161.937C401.985 162.329 401.825 162.929 401.825 163.737ZM409.359 161.853C409.655 161.453 409.987 161.169 410.355 161.001C410.731 160.833 411.191 160.749 411.735 160.749C412.575 160.749 413.227 161.001 413.691 161.505C414.163 162.009 414.399 162.745 414.399 163.713C414.399 164.265 414.327 164.753 414.183 165.177C414.047 165.593 413.847 165.941 413.583 166.221C413.319 166.493 412.999 166.701 412.623 166.845C412.247 166.981 411.823 167.049 411.351 167.049C410.327 167.049 409.555 166.737 409.035 166.113C408.523 165.489 408.267 164.509 408.267 163.173C408.267 162.453 408.307 161.841 408.387 161.337C408.467 160.833 408.583 160.413 408.735 160.077C408.895 159.741 409.083 159.477 409.299 159.285C409.523 159.085 409.771 158.933 410.043 158.829C410.315 158.725 410.611 158.653 410.931 158.613C411.259 158.573 411.607 158.537 411.975 158.505C412.439 158.465 412.811 158.421 413.091 158.373C413.371 158.325 413.599 158.241 413.775 158.121L413.895 159.093C413.711 159.213 413.463 159.301 413.151 159.357C412.847 159.405 412.419 159.449 411.867 159.489C411.483 159.513 411.139 159.557 410.835 159.621C410.539 159.685 410.279 159.797 410.055 159.957C409.831 160.117 409.651 160.349 409.515 160.653C409.379 160.949 409.287 161.341 409.239 161.829L409.359 161.853ZM409.443 163.881C409.443 164.185 409.479 164.473 409.551 164.745C409.623 165.009 409.735 165.245 409.887 165.453C410.047 165.653 410.247 165.813 410.487 165.933C410.727 166.053 411.011 166.113 411.339 166.113C412.595 166.113 413.223 165.349 413.223 163.821C413.223 163.517 413.187 163.237 413.115 162.981C413.051 162.717 412.947 162.489 412.803 162.297C412.667 162.105 412.487 161.957 412.263 161.853C412.047 161.741 411.791 161.685 411.495 161.685C410.775 161.685 410.251 161.877 409.923 162.261C409.603 162.637 409.443 163.177 409.443 163.881ZM415.836 163.737C415.836 163.217 415.904 162.753 416.04 162.345C416.176 161.929 416.376 161.577 416.64 161.289C416.904 161.001 417.224 160.781 417.6 160.629C417.984 160.477 418.42 160.401 418.908 160.401C419.42 160.401 419.868 160.485 420.252 160.653C420.636 160.821 420.956 161.057 421.212 161.361C421.468 161.657 421.656 162.009 421.776 162.417C421.904 162.817 421.968 163.257 421.968 163.737C421.968 164.249 421.896 164.709 421.752 165.117C421.616 165.525 421.416 165.873 421.152 166.161C420.896 166.449 420.576 166.669 420.192 166.821C419.816 166.973 419.388 167.049 418.908 167.049C418.38 167.049 417.924 166.965 417.54 166.797C417.156 166.629 416.836 166.397 416.58 166.101C416.332 165.805 416.144 165.457 416.016 165.057C415.896 164.649 415.836 164.209 415.836 163.737ZM417.012 163.737C417.012 164.033 417.044 164.325 417.108 164.613C417.18 164.893 417.292 165.145 417.444 165.369C417.596 165.593 417.792 165.773 418.032 165.909C418.272 166.045 418.568 166.113 418.92 166.113C420.168 166.113 420.792 165.321 420.792 163.737C420.792 163.425 420.756 163.125 420.684 162.837C420.62 162.549 420.512 162.297 420.36 162.081C420.216 161.857 420.024 161.677 419.784 161.541C419.544 161.405 419.256 161.337 418.92 161.337C418.296 161.337 417.82 161.537 417.492 161.937C417.172 162.329 417.012 162.929 417.012 163.737ZM423.743 160.581H424.487L424.703 161.385H424.811C425.027 161.073 425.307 160.833 425.651 160.665C425.995 160.489 426.383 160.401 426.815 160.401C427.727 160.401 428.407 160.657 428.855 161.169C429.303 161.673 429.527 162.481 429.527 163.593C429.527 164.121 429.451 164.601 429.299 165.033C429.155 165.457 428.943 165.821 428.663 166.125C428.391 166.421 428.055 166.649 427.655 166.809C427.263 166.969 426.823 167.049 426.335 167.049C426.175 167.049 426.027 167.041 425.891 167.025C425.763 167.017 425.643 166.997 425.531 166.965C425.419 166.941 425.307 166.913 425.195 166.881C425.083 166.841 424.967 166.797 424.847 166.749V169.281H423.743V160.581ZM426.563 161.337C426.083 161.337 425.707 161.457 425.435 161.697C425.163 161.937 424.967 162.305 424.847 162.801V165.705C425.031 165.833 425.231 165.933 425.447 166.005C425.663 166.077 425.939 166.113 426.275 166.113C426.923 166.113 427.431 165.901 427.799 165.477C428.167 165.053 428.351 164.421 428.351 163.581C428.351 162.901 428.215 162.357 427.943 161.949C427.671 161.541 427.211 161.337 426.563 161.337ZM435.573 164.133H432.405V166.881H431.301V160.581H432.405V163.149H435.573V160.581H436.677V166.881H435.573V164.133ZM438.717 160.977C439.437 160.633 440.329 160.461 441.393 160.461C441.873 160.461 442.257 160.525 442.545 160.653C442.841 160.773 443.069 160.929 443.229 161.121C443.389 161.313 443.493 161.529 443.541 161.769C443.597 162.001 443.625 162.233 443.625 162.465C443.625 162.905 443.609 163.349 443.577 163.797C443.545 164.237 443.529 164.717 443.529 165.237C443.529 165.541 443.541 165.837 443.565 166.125C443.597 166.405 443.645 166.665 443.709 166.905H442.905L442.605 165.945H442.485C442.397 166.065 442.289 166.189 442.161 166.317C442.033 166.437 441.881 166.545 441.705 166.641C441.529 166.737 441.325 166.817 441.093 166.881C440.869 166.945 440.609 166.977 440.313 166.977C440.017 166.977 439.745 166.937 439.497 166.857C439.249 166.769 439.033 166.649 438.849 166.497C438.673 166.345 438.533 166.161 438.429 165.945C438.325 165.721 438.273 165.473 438.273 165.201C438.273 164.841 438.349 164.529 438.501 164.265C438.661 164.001 438.865 163.785 439.113 163.617C439.361 163.449 439.641 163.325 439.953 163.245C440.273 163.165 440.589 163.125 440.901 163.125C441.149 163.125 441.357 163.129 441.525 163.137C441.701 163.145 441.845 163.157 441.957 163.173C442.077 163.181 442.177 163.193 442.257 163.209C442.337 163.217 442.409 163.225 442.473 163.233C442.489 163.113 442.501 163.009 442.509 162.921C442.517 162.833 442.521 162.721 442.521 162.585C442.521 162.361 442.497 162.173 442.449 162.021C442.401 161.869 442.321 161.749 442.209 161.661C442.105 161.565 441.961 161.497 441.777 161.457C441.593 161.417 441.369 161.397 441.105 161.397C440.953 161.397 440.785 161.409 440.601 161.433C440.417 161.457 440.233 161.493 440.049 161.541C439.865 161.581 439.681 161.633 439.497 161.697C439.321 161.761 439.161 161.829 439.017 161.901L438.717 160.977ZM442.473 164.025C442.409 164.017 442.341 164.005 442.269 163.989C442.197 163.973 442.105 163.961 441.993 163.953C441.889 163.945 441.761 163.937 441.609 163.929C441.465 163.921 441.285 163.917 441.069 163.917C440.573 163.917 440.177 164.005 439.881 164.181C439.593 164.357 439.449 164.657 439.449 165.081C439.449 165.401 439.561 165.641 439.785 165.801C440.017 165.961 440.313 166.041 440.673 166.041C440.937 166.041 441.169 166.009 441.369 165.945C441.577 165.873 441.753 165.789 441.897 165.693C442.049 165.589 442.169 165.477 442.257 165.357C442.353 165.229 442.425 165.105 442.473 164.985V164.025Z" fill="#474746"/>
<path d="M293.87 340.98C299.796 340.98 304.6 336.176 304.6 330.25C304.6 324.324 299.796 319.52 293.87 319.52C287.944 319.52 283.14 324.324 283.14 330.25C283.14 336.176 287.944 340.98 293.87 340.98Z" fill="#FBB924"/>
<path d="M290.211 333.443C290.211 333.076 290.263 332.751 290.368 332.468C290.473 332.174 290.62 331.912 290.809 331.681C290.997 331.451 291.218 331.246 291.469 331.068C291.721 330.879 291.999 330.706 292.303 330.549C291.737 330.224 291.296 329.851 290.982 329.432C290.678 329.012 290.526 328.488 290.526 327.859C290.526 327.46 290.604 327.083 290.762 326.726C290.929 326.37 291.165 326.06 291.469 325.798C291.784 325.525 292.162 325.316 292.602 325.169C293.053 325.012 293.562 324.933 294.128 324.933C294.642 324.933 295.108 325.001 295.528 325.137C295.947 325.263 296.304 325.447 296.598 325.688C296.902 325.919 297.133 326.202 297.29 326.537C297.458 326.863 297.542 327.219 297.542 327.607C297.542 328.226 297.395 328.75 297.101 329.18C296.818 329.6 296.377 329.988 295.78 330.344C296.451 330.711 296.965 331.11 297.321 331.54C297.678 331.97 297.856 332.526 297.856 333.207C297.856 333.679 297.762 334.109 297.573 334.497C297.384 334.885 297.117 335.221 296.771 335.504C296.435 335.777 296.026 335.992 295.544 336.149C295.072 336.306 294.547 336.385 293.971 336.385C293.404 336.385 292.885 336.312 292.413 336.165C291.952 336.028 291.559 335.829 291.233 335.567C290.908 335.305 290.657 334.995 290.478 334.639C290.3 334.272 290.211 333.873 290.211 333.443ZM295.748 333.223C295.748 332.992 295.68 332.783 295.544 332.594C295.418 332.405 295.25 332.232 295.04 332.075C294.841 331.917 294.616 331.771 294.364 331.634C294.112 331.498 293.861 331.372 293.609 331.257C293.084 331.529 292.723 331.828 292.523 332.153C292.335 332.479 292.24 332.788 292.24 333.082C292.24 333.491 292.392 333.837 292.696 334.12C293.011 334.403 293.452 334.545 294.018 334.545C294.542 334.545 294.962 334.434 295.276 334.214C295.591 333.983 295.748 333.653 295.748 333.223ZM292.633 327.89C292.633 328.142 292.686 328.362 292.791 328.551C292.906 328.74 293.053 328.908 293.231 329.054C293.41 329.191 293.609 329.317 293.829 329.432C294.06 329.547 294.296 329.657 294.537 329.762C295.198 329.238 295.528 328.666 295.528 328.048C295.528 327.628 295.386 327.314 295.103 327.104C294.82 326.884 294.479 326.773 294.081 326.773C293.577 326.773 293.21 326.884 292.98 327.104C292.749 327.324 292.633 327.586 292.633 327.89Z" fill="white"/>
<path d="M278.204 283.838L278.204 270.338L267.754 270.338L267.754 283.838L278.204 283.838Z" fill="#FBB927"/>
<path d="M293.375 280.536C293.111 280.728 292.775 280.86 292.367 280.932C291.959 281.012 291.527 281.052 291.071 281.052C290.535 281.052 290.023 280.968 289.535 280.8C289.055 280.624 288.631 280.36 288.263 280.008C287.895 279.648 287.603 279.196 287.387 278.652C287.171 278.1 287.063 277.448 287.063 276.696C287.063 275.912 287.183 275.244 287.423 274.692C287.663 274.14 287.975 273.692 288.359 273.348C288.743 272.996 289.175 272.74 289.655 272.58C290.135 272.42 290.611 272.34 291.083 272.34C291.611 272.34 292.043 272.368 292.379 272.424C292.715 272.48 292.999 272.552 293.231 272.64L292.967 273.672C292.575 273.488 291.979 273.396 291.179 273.396C290.819 273.396 290.467 273.456 290.123 273.576C289.787 273.688 289.483 273.876 289.211 274.14C288.947 274.396 288.735 274.736 288.575 275.16C288.415 275.576 288.335 276.088 288.335 276.696C288.335 277.24 288.411 277.72 288.563 278.136C288.715 278.544 288.923 278.888 289.187 279.168C289.459 279.44 289.775 279.648 290.135 279.792C290.503 279.928 290.903 279.996 291.335 279.996C291.727 279.996 292.067 279.96 292.355 279.888C292.643 279.816 292.887 279.724 293.087 279.612L293.375 280.536ZM298.589 275.532H296.405V280.896H295.301V275.532H293.117V274.596H298.589V275.532ZM299.645 274.596H300.389L300.605 275.4H300.713C300.929 275.088 301.209 274.848 301.553 274.68C301.897 274.504 302.285 274.416 302.717 274.416C303.629 274.416 304.309 274.672 304.757 275.184C305.205 275.688 305.429 276.496 305.429 277.608C305.429 278.136 305.353 278.616 305.201 279.048C305.057 279.472 304.845 279.836 304.565 280.14C304.293 280.436 303.957 280.664 303.557 280.824C303.165 280.984 302.725 281.064 302.237 281.064C302.077 281.064 301.929 281.056 301.793 281.04C301.665 281.032 301.545 281.012 301.433 280.98C301.321 280.956 301.209 280.928 301.097 280.896C300.985 280.856 300.869 280.812 300.749 280.764V283.296H299.645V274.596ZM302.465 275.352C301.985 275.352 301.609 275.472 301.337 275.712C301.065 275.952 300.869 276.32 300.749 276.816V279.72C300.933 279.848 301.133 279.948 301.349 280.02C301.565 280.092 301.841 280.128 302.177 280.128C302.825 280.128 303.333 279.916 303.701 279.492C304.069 279.068 304.253 278.436 304.253 277.596C304.253 276.916 304.117 276.372 303.845 275.964C303.573 275.556 303.113 275.352 302.465 275.352ZM311.56 277.296L311.728 276.048H311.596L311.008 277.224L308.056 280.896H307.204V274.596H308.308V278.316L308.224 279.42H308.356L308.908 278.352L311.8 274.596H312.664V280.896H311.56V277.296ZM319.13 277.296L319.298 276.048H319.166L318.578 277.224L315.626 280.896H314.774V274.596H315.878V278.316L315.794 279.42H315.926L316.478 278.352L319.37 274.596H320.234V280.896H319.13V277.296ZM316.478 272.352C316.518 272.528 316.574 272.668 316.646 272.772C316.718 272.876 316.802 272.956 316.898 273.012C316.994 273.06 317.102 273.092 317.222 273.108C317.35 273.116 317.482 273.12 317.618 273.12C317.754 273.12 317.882 273.112 318.002 273.096C318.13 273.08 318.242 273.044 318.338 272.988C318.434 272.932 318.518 272.856 318.59 272.76C318.662 272.664 318.718 272.532 318.758 272.364L319.622 272.616C319.534 273.088 319.302 273.42 318.926 273.612C318.558 273.804 318.114 273.9 317.594 273.9C317.346 273.9 317.106 273.88 316.874 273.84C316.642 273.8 316.43 273.732 316.238 273.636C316.054 273.54 315.894 273.416 315.758 273.264C315.63 273.104 315.542 272.904 315.494 272.664L316.478 272.352ZM327.097 280.464C326.817 280.664 326.489 280.812 326.113 280.908C325.737 281.012 325.341 281.064 324.925 281.064C324.397 281.064 323.945 280.984 323.569 280.824C323.201 280.664 322.901 280.44 322.669 280.152C322.437 279.864 322.269 279.516 322.165 279.108C322.061 278.7 322.009 278.248 322.009 277.752C322.009 276.688 322.265 275.868 322.777 275.292C323.297 274.708 324.041 274.416 325.009 274.416C325.433 274.416 325.801 274.456 326.113 274.536C326.425 274.608 326.705 274.7 326.953 274.812L326.665 275.712C326.449 275.6 326.213 275.512 325.957 275.448C325.709 275.384 325.437 275.352 325.141 275.352C323.837 275.352 323.185 276.152 323.185 277.752C323.185 278.056 323.221 278.352 323.293 278.64C323.365 278.92 323.481 279.172 323.641 279.396C323.801 279.612 324.009 279.788 324.265 279.924C324.529 280.06 324.849 280.128 325.225 280.128C325.561 280.128 325.853 280.084 326.101 279.996C326.357 279.9 326.569 279.788 326.737 279.66L327.097 280.464ZM329.8 279.96C330.136 280.008 330.476 280.032 330.82 280.032C331.404 280.032 331.832 279.932 332.104 279.732C332.384 279.524 332.524 279.24 332.524 278.88C332.524 278.56 332.388 278.292 332.116 278.076C331.852 277.86 331.432 277.752 330.856 277.752C330.704 277.752 330.536 277.76 330.352 277.776C330.168 277.784 329.984 277.808 329.8 277.848V279.96ZM329.8 277.008C330.056 276.968 330.292 276.944 330.508 276.936C330.724 276.92 330.916 276.912 331.084 276.912C331.564 276.912 331.968 276.96 332.296 277.056C332.632 277.152 332.904 277.284 333.112 277.452C333.32 277.62 333.468 277.82 333.556 278.052C333.652 278.276 333.7 278.52 333.7 278.784C333.7 279.544 333.448 280.1 332.944 280.452C332.44 280.796 331.652 280.968 330.58 280.968C330.244 280.968 329.924 280.964 329.62 280.956C329.316 280.948 329.008 280.932 328.696 280.908V274.596H329.8V277.008ZM336.906 278.064H336.222V280.896H335.118V274.596H336.222V277.464L336.882 277.248L339.03 274.596H340.242L338.19 277.044H338.202L337.554 277.512L338.334 278.052L340.554 280.896H339.162L336.906 278.064ZM346.037 277.296L346.205 276.048H346.073L345.485 277.224L342.533 280.896H341.681V274.596H342.785V278.316L342.701 279.42H342.833L343.385 278.352L346.277 274.596H347.141V280.896H346.037V277.296ZM353.607 277.296L353.775 276.048H353.643L353.055 277.224L350.103 280.896H349.251V274.596H350.355V278.316L350.271 279.42H350.403L350.955 278.352L353.847 274.596H354.711V280.896H353.607V277.296ZM350.955 272.352C350.995 272.528 351.051 272.668 351.123 272.772C351.195 272.876 351.279 272.956 351.375 273.012C351.471 273.06 351.579 273.092 351.699 273.108C351.827 273.116 351.959 273.12 352.095 273.12C352.231 273.12 352.359 273.112 352.479 273.096C352.607 273.08 352.719 273.044 352.815 272.988C352.911 272.932 352.995 272.856 353.067 272.76C353.139 272.664 353.195 272.532 353.235 272.364L354.099 272.616C354.011 273.088 353.779 273.42 353.403 273.612C353.035 273.804 352.591 273.9 352.071 273.9C351.823 273.9 351.583 273.88 351.351 273.84C351.119 273.8 350.907 273.732 350.715 273.636C350.531 273.54 350.371 273.416 350.235 273.264C350.107 273.104 350.019 272.904 349.971 272.664L350.955 272.352ZM360.313 274.596H361.057L361.273 275.4H361.381C361.597 275.088 361.877 274.848 362.221 274.68C362.565 274.504 362.953 274.416 363.385 274.416C364.297 274.416 364.977 274.672 365.425 275.184C365.873 275.688 366.097 276.496 366.097 277.608C366.097 278.136 366.021 278.616 365.869 279.048C365.725 279.472 365.513 279.836 365.233 280.14C364.961 280.436 364.625 280.664 364.225 280.824C363.833 280.984 363.393 281.064 362.905 281.064C362.745 281.064 362.597 281.056 362.461 281.04C362.333 281.032 362.213 281.012 362.101 280.98C361.989 280.956 361.877 280.928 361.765 280.896C361.653 280.856 361.537 280.812 361.417 280.764V283.296H360.313V274.596ZM363.133 275.352C362.653 275.352 362.277 275.472 362.005 275.712C361.733 275.952 361.537 276.32 361.417 276.816V279.72C361.601 279.848 361.801 279.948 362.017 280.02C362.233 280.092 362.509 280.128 362.845 280.128C363.493 280.128 364.001 279.916 364.369 279.492C364.737 279.068 364.921 278.436 364.921 277.596C364.921 276.916 364.785 276.372 364.513 275.964C364.241 275.556 363.781 275.352 363.133 275.352ZM372.228 277.296L372.396 276.048H372.264L371.676 277.224L368.724 280.896H367.872V274.596H368.976V278.316L368.892 279.42H369.024L369.576 278.352L372.468 274.596H373.332V280.896H372.228V277.296ZM379.714 278.148H376.546V280.896H375.442V274.596H376.546V277.164H379.714V274.596H380.818V280.896H379.714V278.148ZM382.595 277.752C382.595 277.232 382.663 276.768 382.799 276.36C382.935 275.944 383.135 275.592 383.399 275.304C383.663 275.016 383.983 274.796 384.359 274.644C384.743 274.492 385.179 274.416 385.667 274.416C386.179 274.416 386.627 274.5 387.011 274.668C387.395 274.836 387.715 275.072 387.971 275.376C388.227 275.672 388.415 276.024 388.535 276.432C388.663 276.832 388.727 277.272 388.727 277.752C388.727 278.264 388.655 278.724 388.511 279.132C388.375 279.54 388.175 279.888 387.911 280.176C387.655 280.464 387.335 280.684 386.951 280.836C386.575 280.988 386.147 281.064 385.667 281.064C385.139 281.064 384.683 280.98 384.299 280.812C383.915 280.644 383.595 280.412 383.339 280.116C383.091 279.82 382.903 279.472 382.775 279.072C382.655 278.664 382.595 278.224 382.595 277.752ZM383.771 277.752C383.771 278.048 383.803 278.34 383.867 278.628C383.939 278.908 384.051 279.16 384.203 279.384C384.355 279.608 384.551 279.788 384.791 279.924C385.031 280.06 385.327 280.128 385.679 280.128C386.927 280.128 387.551 279.336 387.551 277.752C387.551 277.44 387.515 277.14 387.443 276.852C387.379 276.564 387.271 276.312 387.119 276.096C386.975 275.872 386.783 275.692 386.543 275.556C386.303 275.42 386.015 275.352 385.679 275.352C385.055 275.352 384.579 275.552 384.251 275.952C383.931 276.344 383.771 276.944 383.771 277.752ZM392.289 278.064H391.605V280.896H390.501V274.596H391.605V277.464L392.265 277.248L394.413 274.596H395.625L393.573 277.044H393.585L392.937 277.512L393.717 278.052L395.937 280.896H394.545L392.289 278.064Z" fill="#474746"/>
</svg>
