<?xml version="1.0" encoding="UTF-8"?>
<svg viewBox="0 0 683 657" xmlns="http://www.w3.org/2000/svg">
    <g class="links" stroke="#1F1A40">
        <line x1="363.5" x2="435.18" y1="373.3" y2="315.99" strokeWidth="0.4504"/>
        <line x1="363.5" x2="271.45" y1="373.3" y2="339.87" strokeWidth="0.4504"/>
        <line x1="363.5" x2="349.3" y1="373.3" y2="281.19" strokeWidth="0.4504"/>
        <line x1="363.5" x2="295.29" y1="373.3" y2="434.68" strokeWidth="0.4504"/>
        <line x1="435.18" x2="363.5" y1="315.99" y2="373.3" strokeWidth="0.4504"/>
        <line x1="435.18" x2="271.45" y1="315.99" y2="339.87" strokeWidth="0.4504"/>
        <line x1="435.18" x2="349.3" y1="315.99" y2="281.19" strokeWidth="0.4504"/>
        <line x1="435.18" x2="295.29" y1="315.99" y2="434.68" strokeWidth="0.4504"/>
        <line x1="271.45" x2="363.5" y1="339.87" y2="373.3" strokeWidth="0.4504"/>
        <line x1="271.45" x2="435.18" y1="339.87" y2="315.99" strokeWidth="0.4504"/>
        <line x1="271.45" x2="349.3" y1="339.87" y2="281.19" strokeWidth="0.4504"/>
        <line x1="271.45" x2="264.44" y1="339.87" y2="242.89" strokeWidth="0.4504"/>
        <line x1="271.45" x2="205.14" y1="339.87" y2="411.35" strokeWidth="0.4504"/>
        <line x1="271.45" x2="174.52" y1="339.87" y2="324.64" strokeWidth="0.4504"/>
        <line x1="271.45" x2="172.42" y1="339.87" y2="232.6" strokeWidth="0.4504"/>
        <line x1="349.3" x2="271.45" y1="281.19" y2="339.87" strokeWidth="0.4504"/>
        <line x1="349.3" x2="295.29" y1="281.19" y2="434.68" strokeWidth="0.4504"/>
        <line x1="349.3" x2="363.5" y1="281.19" y2="373.3" strokeWidth="0.4504"/>
        <line x1="349.3" x2="435.18" y1="281.19" y2="315.99" strokeWidth="0.4504"/>
        <line x1="295.29" x2="349.3" y1="434.68" y2="281.19" strokeWidth="0.4504"/>
        <line x1="295.29" x2="363.5" y1="434.68" y2="373.3" strokeWidth="0.4504"/>
        <line x1="295.29" x2="435.18" y1="434.68" y2="315.99" strokeWidth="0.4504"/>
        <line x1="295.29" x2="271.45" y1="434.68" y2="339.87" strokeWidth="0.4504"/>
        <line x1="264.44" x2="271.45" y1="242.89" y2="339.87" strokeWidth="0.4504"/>
        <line x1="264.44" x2="205.14" y1="242.89" y2="411.35" strokeWidth="0.4504"/>
        <line x1="264.44" x2="174.52" y1="242.89" y2="324.64" strokeWidth="0.4504"/>
        <line x1="264.44" x2="172.42" y1="242.89" y2="232.6" strokeWidth="0.4504"/>
        <line x1="205.14" x2="271.45" y1="411.35" y2="339.87" strokeWidth="0.4504"/>
        <line x1="205.14" x2="172.42" y1="411.35" y2="232.6" strokeWidth="0.4504"/>
        <line x1="205.14" x2="174.52" y1="411.35" y2="324.64" strokeWidth="0.4504"/>
        <line x1="205.14" x2="264.44" y1="411.35" y2="242.89" strokeWidth="0.4504"/>
        <line x1="174.52" x2="205.14" y1="324.64" y2="411.35" strokeWidth="0.4504"/>
        <line x1="174.52" x2="172.42" y1="324.64" y2="232.6" strokeWidth="0.4504"/>
        <line x1="174.52" x2="271.45" y1="324.64" y2="339.87" strokeWidth="0.4504"/>
        <line x1="174.52" x2="264.44" y1="324.64" y2="242.89" strokeWidth="0.4504"/>
        <line x1="172.42" x2="174.52" y1="232.6" y2="324.64" strokeWidth="0.4504"/>
        <line x1="172.42" x2="205.14" y1="232.6" y2="411.35" strokeWidth="0.4504"/>
        <line x1="172.42" x2="271.45" y1="232.6" y2="339.87" strokeWidth="0.4504"/>
        <line x1="172.42" x2="264.44" y1="232.6" y2="242.89" strokeWidth="0.4504"/>
    </g>
    <g class="nodes">
        <circle cx="363.5" cy="373.3" r="15" fill="#ff0"/>
        <circle cx="435.18" cy="315.99" r="15" fill="#ff0"/>
        <circle cx="271.45" cy="339.87" r="20" fill="red"/>
        <circle cx="349.3" cy="281.19" r="15" fill="#ff0"/>
        <circle cx="295.29" cy="434.68" r="15" fill="#ff0"/>
        <circle cx="264.44" cy="242.89" r="15" fill="#90ee90"/>
        <circle cx="205.14" cy="411.35" r="15" fill="#90ee90"/>
        <circle cx="174.52" cy="324.64" r="15" fill="#90ee90"/>
        <circle cx="172.42" cy="232.6" r="15" fill="#90ee90"/>
    </g>
    <g class="labels">
        <text class="text-label" transform="translate(363.5 373.3)">1</text>
        <text class="text-label" transform="translate(435.18 315.99)">2</text>
        <text class="text-label" transform="translate(271.45 339.87)">3</text>
        <text class="text-label" transform="translate(349.3 281.19)">4</text>
        <text class="text-label" transform="translate(295.29 434.68)">5</text>
        <text class="text-label" transform="translate(264.44 242.89)">K</text>
        <text class="text-label" transform="translate(205.14 411.35)">L</text>
        <text class="text-label" transform="translate(174.52 324.64)">M</text>
        <text class="text-label" transform="translate(172.42 232.6)">N</text>
    </g>
</svg>
