<?xml version="1.0" encoding="UTF-8"?>
<svg style="background:#ffffff"  viewBox="50 50 470 280" xmlns="http://www.w3.org/2000/svg">
    <g class="links" stroke="#1F1A40">
        <line x1="189.29" x2="273.4" y1="116.36" y2="105.42"   />
        <line x1="273.4" x2="189.29" y1="105.42" y2="116.36"   />
        <line x1="273.4" x2="239.96" y1="105.42" y2="188.66"   />
        <line x1="239.96" x2="273.4" y1="188.66" y2="105.42"   />
        <line x1="239.96" x2="155.14" y1="188.66" y2="217.77"   />
        <line x1="239.96" x2="300.34" y1="188.66" y2="252.76"   />
        <line x1="239.96" x2="328.25" y1="188.66" y2="172.52"   />
        <line x1="155.14" x2="239.96" y1="217.77" y2="188.66"   />
        <line x1="155.14" x2="218.3" y1="217.77" y2="274.36"   />
        <line x1="218.3" x2="155.14" y1="274.36" y2="217.77"   />
        <line x1="300.34" x2="239.96" y1="252.76" y2="188.66"   />
        <line x1="328.25" x2="239.96" y1="172.52" y2="188.66"   />
        <line x1="328.25" x2="413.07" y1="172.52" y2="155.46"   />
        <line x1="413.07" x2="328.25" y1="155.46" y2="172.52"   />
        <line x1="413.07" x2="357.22" y1="155.46" y2="91.679"   />
        <line x1="357.22" x2="413.07" y1="91.679" y2="155.46"   />
    </g>
    <g class="nodes">
        <circle cx="189.29" cy="116.36" r="10" fill="#ff0"/>
        <circle cx="273.4" cy="105.42" r="11.667" fill="#ff0"/>
        <circle cx="239.96" cy="188.66" r="15" fill="orange"/>
        <circle cx="155.14" cy="217.77" r="11.667" fill="#ff0"/>
        <circle cx="218.3" cy="274.36" r="10" fill="#ff0"/>
        <circle cx="300.34" cy="252.76" r="10" fill="#90ee90"/>
        <circle cx="328.25" cy="172.52" r="11.667" fill="#90ee90"/>
        <circle cx="413.07" cy="155.46" r="11.667" fill="#90ee90"/>
        <circle cx="357.22" cy="91.679" r="10" fill="#90ee90"/>
    </g>
    <g class="labels">
        <text class="text-label" transform="translate(189.29 116.36)">1</text>
        <text class="text-label" transform="translate(273.4 105.42)">2</text>
        <text class="text-label" transform="translate(239.96 188.66)">3</text>
        <text class="text-label" transform="translate(155.14 217.77)">4</text>
        <text class="text-label" transform="translate(218.3 274.36)">5</text>
        <text class="text-label" transform="translate(300.34 252.76)">K</text>
        <text class="text-label" transform="translate(328.25 172.52)">L</text>
        <text class="text-label" transform="translate(413.07 155.46)">M</text>
        <text class="text-label" transform="translate(357.22 91.679)">N</text>
    </g>
</svg>
