<?xml version="1.0" encoding="UTF-8"?>
<svg viewBox="0 0 550 350" xmlns="http://www.w3.org/2000/svg">
    <g class="links" stroke="#1F1A40">
        <line x1="398.45" x2="309.14" y1="130.82" y2="107.41"    />
        <line x1="398.45" x2="239.19" y1="130.82" y2="175.58"    />
        <line x1="398.45" x2="333.45" y1="130.82" y2="197.5"    />
        <line x1="398.45" x2="422.85" y1="130.82" y2="220.42"    />
        <line x1="309.14" x2="398.45" y1="107.41" y2="130.82"    />
        <line x1="309.14" x2="239.19" y1="107.41" y2="175.58"    />
        <line x1="309.14" x2="333.45" y1="107.41" y2="197.5"    />
        <line x1="309.14" x2="422.85" y1="107.41" y2="220.42"    />
        <line x1="239.19" x2="398.45" y1="175.58" y2="130.82"    />
        <line x1="239.19" x2="309.14" y1="175.58" y2="107.41"    />
        <line x1="239.19" x2="333.45" y1="175.58" y2="197.5"    />
        <line x1="239.19" x2="210.38" y1="175.58" y2="83.124"    />
        <line x1="239.19" x2="251.62" y1="175.58" y2="271.86"    />
        <line x1="239.19" x2="164.77" y1="175.58" y2="239.35"    />
        <line x1="239.19" x2="145.01" y1="175.58" y2="148.93"    />
        <line x1="333.45" x2="239.19" y1="197.5" y2="175.58"    />
        <line x1="333.45" x2="422.85" y1="197.5" y2="220.42"    />
        <line x1="333.45" x2="398.45" y1="197.5" y2="130.82"    />
        <line x1="333.45" x2="309.14" y1="197.5" y2="107.41"    />
        <line x1="422.85" x2="333.45" y1="220.42" y2="197.5"    />
        <line x1="422.85" x2="398.45" y1="220.42" y2="130.82"    />
        <line x1="422.85" x2="309.14" y1="220.42" y2="107.41"    />
        <line x1="422.85" x2="239.19" y1="220.42" y2="175.58"    />
        <line x1="210.38" x2="239.19" y1="83.124" y2="175.58"    />
        <line x1="210.38" x2="251.62" y1="83.124" y2="271.86"    />
        <line x1="210.38" x2="164.77" y1="83.124" y2="239.35"    />
        <line x1="210.38" x2="145.01" y1="83.124" y2="148.93"    />
        <line x1="251.62" x2="239.19" y1="271.86" y2="175.58"    />
        <line x1="251.62" x2="145.01" y1="271.86" y2="148.93"    />
        <line x1="251.62" x2="164.77" y1="271.86" y2="239.35"    />
        <line x1="251.62" x2="210.38" y1="271.86" y2="83.124"    />
        <line x1="164.77" x2="251.62" y1="239.35" y2="271.86"    />
        <line x1="164.77" x2="145.01" y1="239.35" y2="148.93"    />
        <line x1="164.77" x2="239.19" y1="239.35" y2="175.58"    />
        <line x1="164.77" x2="210.38" y1="239.35" y2="83.124"    />
        <line x1="145.01" x2="164.77" y1="148.93" y2="239.35"    />
        <line x1="145.01" x2="251.62" y1="148.93" y2="271.86"    />
        <line x1="145.01" x2="239.19" y1="148.93" y2="175.58"    />
        <line x1="145.01" x2="210.38" y1="148.93" y2="83.124"    />
    </g>
    <g class="nodes">
        <circle cx="398.45" cy="130.82" r="15" fill="#ff0"/>
        <circle cx="309.14" cy="107.41" r="15" fill="#ff0"/>
        <circle cx="239.19" cy="175.58" r="20" fill="orange"/>
        <circle cx="333.45" cy="197.5" r="15" fill="#ff0"/>
        <circle cx="422.85" cy="220.42" r="15" fill="#ff0"/>
        <circle cx="210.38" cy="83.124" r="15" fill="#90ee90"/>
        <circle cx="251.62" cy="271.86" r="15" fill="#90ee90"/>
        <circle cx="164.77" cy="239.35" r="15" fill="#90ee90"/>
        <circle cx="145.01" cy="148.93" r="15" fill="#90ee90"/>
    </g>
    <g class="labels">
        <text class="text-label" transform="translate(398.45 130.82)">1</text>
        <text class="text-label" transform="translate(309.14 107.41)">2</text>
        <text class="text-label" transform="translate(239.19 175.58)">3</text>
        <text class="text-label" transform="translate(333.45 197.5)">4</text>
        <text class="text-label" transform="translate(422.85 220.42)">5</text>
        <text class="text-label" transform="translate(210.38 83.124)">K</text>
        <text class="text-label" transform="translate(251.62 271.86)">L</text>
        <text class="text-label" transform="translate(164.77 239.35)">M</text>
        <text class="text-label" transform="translate(145.01 148.93)">N</text>
    </g>
</svg>
