<svg width="133" height="100" viewBox="0 0 133 100" fill="none" xmlns="http://www.w3.org/2000/svg">
    <path d="M30 17C30 25.2843 23.2843 32 15 32C6.71573 32 0 25.2843 0 17C0 8.71573 6.71573 2 15 2C23.2843 2 30 8.71573 30 17Z" fill="#C4C4C4"/>
    <path d="M17.5996 15.6895C17.5449 16.5215 17.0566 17.1719 16.1348 17.6406C16.4668 17.8711 16.7148 18.1562 16.8789 18.4961C17.043 18.8359 17.1113 19.207 17.084 19.6094C17.041 20.375 16.7305 20.9883 16.1523 21.4492C15.5742 21.9102 14.8594 22.1328 14.0078 22.1172C13.2305 22.1094 12.6055 21.8867 12.1328 21.4492C11.6641 21.0117 11.4512 20.4336 11.4941 19.7148C11.5488 18.7695 12.1055 18.0547 13.1641 17.5703C12.5898 17.1133 12.3223 16.5176 12.3613 15.7832C12.3887 15.2988 12.5312 14.8691 12.7891 14.4941C13.0469 14.1191 13.3926 13.832 13.8262 13.6328C14.2637 13.4336 14.7402 13.3398 15.2559 13.3516C15.9941 13.3672 16.5801 13.5879 17.0137 14.0137C17.4473 14.4355 17.6426 14.9941 17.5996 15.6895ZM15.4551 19.4922C15.498 19.1562 15.4375 18.877 15.2734 18.6543C15.1094 18.4316 14.8672 18.3164 14.5469 18.3086C14.1914 18.3008 13.8848 18.416 13.627 18.6543C13.373 18.8926 13.2207 19.2051 13.1699 19.5918C13.127 19.9277 13.1855 20.2051 13.3457 20.4238C13.5098 20.6387 13.7559 20.75 14.084 20.7578C14.4434 20.7656 14.748 20.6523 14.998 20.418C15.252 20.1836 15.4043 19.875 15.4551 19.4922ZM15.9297 15.7715C15.9648 15.4512 15.9141 15.1973 15.7773 15.0098C15.6406 14.8184 15.4375 14.7188 15.168 14.7109C14.8594 14.7031 14.5977 14.8066 14.3828 15.0215C14.168 15.2324 14.0391 15.5137 13.9961 15.8652C13.9609 16.1816 14.0078 16.4414 14.1367 16.6445C14.2695 16.8438 14.4746 16.9473 14.752 16.9551C15.0566 16.9629 15.3184 16.8574 15.5371 16.6387C15.7559 16.416 15.8867 16.127 15.9297 15.7715Z" fill="black"/>
    <line x1="114.813" y1="22.5824" x2="66.8129" y2="89.5824" stroke="#918D8D" stroke-width="2"/>
    <circle cx="118" cy="15" r="15" fill="#90CBE4"/>
    <path d="M115.033 15.7812L116.182 11.4688H120.846L120.623 12.8809H117.348L116.785 14.7266C117.133 14.5078 117.543 14.3984 118.016 14.3984C118.746 14.3984 119.311 14.6582 119.709 15.1777C120.111 15.6934 120.281 16.375 120.219 17.2227C120.172 17.7852 120.006 18.291 119.721 18.7402C119.439 19.1895 119.068 19.5352 118.607 19.7773C118.146 20.0195 117.639 20.1348 117.084 20.123C116.604 20.1191 116.166 20.0098 115.771 19.7949C115.381 19.5762 115.076 19.2773 114.857 18.8984C114.639 18.5156 114.527 18.0898 114.523 17.6211H116.146C116.162 17.9688 116.258 18.2422 116.434 18.4414C116.609 18.6367 116.848 18.7383 117.148 18.7461C117.539 18.7578 117.859 18.6152 118.109 18.3184C118.363 18.0215 118.516 17.623 118.566 17.123C118.613 16.6777 118.545 16.3262 118.361 16.0684C118.182 15.8105 117.906 15.6777 117.535 15.6699C117.121 15.6621 116.738 15.8145 116.387 16.127L115.033 15.7812Z" fill="black"/>
    <circle cx="69" cy="85" r="15" fill="#38FF58"/>
    <path d="M72.9512 82.5059L68.6152 90H66.793L71.1172 82.8398H67.0391L67.2559 81.4688H73.1094L72.9512 82.5059Z" fill="black"/>
</svg>
