<svg width="500" height="394" viewBox="0 0 500 394" fill="none" xmlns="http://www.w3.org/2000/svg">
    <rect width="500" height="394" fill="white"/>
    <path d="M325 293L288 239" stroke="#0A9359" stroke-width="2"/>
    <circle cx="324.5" cy="293.5" r="3.5" fill="#0A9359"/>
    <path d="M177 82.5L205.5 160L206.5 162L234 193" stroke="#F70404" stroke-width="2"/>
    <circle cx="206.5" cy="161.5" r="3.5" fill="#F70404"/>
    <circle cx="292.5" cy="311.5" r="3.5" fill="#F70404"/>
    <circle cx="176.5" cy="82.5" r="3.5" fill="#F70404"/>
    <path d="M233.5 192.5L287.5 238L292.5 310" stroke="#F70404" stroke-width="2"/>
    <path d="M235 194.5H236L287.5 238" stroke="#0A9359" stroke-width="2" stroke-dasharray="2 2"/>
    <circle cx="287.5" cy="238.5" r="3.5" fill="#121A5E"/>
    <circle cx="175.5" cy="190.5" r="3.5" fill="#0A9359"/>
    <path d="M176 190.5L234 193" stroke="#0A9359" stroke-width="2"/>
    <circle cx="234.5" cy="193.5" r="3.5" fill="#121A5E"/>
    <path d="M184.767 84V78.7168H186.827C187.53 78.7168 188.069 78.8405 188.443 79.0879C188.821 79.332 189.01 79.6917 189.01 80.167C189.01 80.4111 188.937 80.6325 188.79 80.8311C188.644 81.0264 188.427 81.1761 188.141 81.2803C188.46 81.3551 188.715 81.5016 188.907 81.7197C189.103 81.9378 189.2 82.1982 189.2 82.501C189.2 82.986 189.021 83.3571 188.663 83.6143C188.308 83.8714 187.805 84 187.154 84H184.767ZM185.67 81.6807V83.2725H187.164C187.542 83.2725 187.823 83.2025 188.009 83.0625C188.198 82.9225 188.292 82.7256 188.292 82.4717C188.292 81.9443 187.905 81.6807 187.13 81.6807H185.67ZM185.67 80.958H186.837C187.683 80.958 188.106 80.7106 188.106 80.2158C188.106 79.721 187.706 79.4655 186.905 79.4492H185.67V80.958ZM192.066 82.6768L193.297 78.7168H194.264L192.14 84.8154C191.811 85.6943 191.288 86.1338 190.572 86.1338L190.401 86.1191L190.064 86.0557V85.3232L190.309 85.3428C190.615 85.3428 190.852 85.2809 191.021 85.1572C191.194 85.0335 191.336 84.8073 191.446 84.4785L191.646 83.9414L189.762 78.7168H190.748L192.066 82.6768ZM199.2 78.7168V84H198.292V79.4639H196.495L196.388 81.4414C196.329 82.3496 196.176 82.999 195.929 83.3896C195.685 83.7803 195.296 83.9837 194.762 84H194.4V83.2041L194.659 83.1846C194.952 83.152 195.162 82.9827 195.289 82.6768C195.416 82.3708 195.497 81.8044 195.533 80.9775L195.631 78.7168H199.2ZM200.67 83.5264C200.67 83.3701 200.715 83.2399 200.807 83.1357C200.901 83.0316 201.041 82.9795 201.227 82.9795C201.412 82.9795 201.552 83.0316 201.646 83.1357C201.744 83.2399 201.793 83.3701 201.793 83.5264C201.793 83.6761 201.744 83.8014 201.646 83.9023C201.552 84.0033 201.412 84.0537 201.227 84.0537C201.041 84.0537 200.901 84.0033 200.807 83.9023C200.715 83.8014 200.67 83.6761 200.67 83.5264ZM211.339 84H210.396V77.6621H206.891V84H205.953V76.8906H211.339V84ZM213.888 84H212.984V78.7168H213.888V84ZM212.911 77.3154C212.911 77.1689 212.955 77.0452 213.043 76.9443C213.134 76.8434 213.268 76.793 213.443 76.793C213.619 76.793 213.753 76.8434 213.844 76.9443C213.935 77.0452 213.98 77.1689 213.98 77.3154C213.98 77.4619 213.935 77.584 213.844 77.6816C213.753 77.7793 213.619 77.8281 213.443 77.8281C213.268 77.8281 213.134 77.7793 213.043 77.6816C212.955 77.584 212.911 77.4619 212.911 77.3154ZM215.294 83.2627L215.606 82.877C215.958 82.4212 216.158 81.7376 216.207 80.8262L216.29 78.7168H219.693V83.2627H220.372V85.5527H219.469V84H215.782V85.5527H214.879L214.884 83.2627H215.294ZM216.363 83.2627H218.79V79.5518H217.164L217.11 80.8115C217.055 81.863 216.806 82.68 216.363 83.2627ZM230.392 85.7432H229.459V84H224.356V85.748H223.419L223.414 83.2334H223.995C224.301 82.8883 224.544 82.4261 224.723 81.8467C224.905 81.264 225.019 80.626 225.064 79.9326L225.221 76.8906H229.474V83.2334H230.401L230.392 85.7432ZM225.064 83.2334H228.531V77.6621H226.124L226.021 79.752C225.979 80.569 225.87 81.2656 225.694 81.8418C225.522 82.418 225.312 82.8818 225.064 83.2334ZM233.102 82.6768L234.332 78.7168H235.299L233.175 84.8154C232.846 85.6943 232.324 86.1338 231.607 86.1338L231.437 86.1191L231.1 86.0557V85.3232L231.344 85.3428C231.65 85.3428 231.887 85.2809 232.057 85.1572C232.229 85.0335 232.371 84.8073 232.481 84.4785L232.682 83.9414L230.797 78.7168H231.783L233.102 82.6768ZM238.429 79.0195C239.093 79.0195 239.623 79.2425 240.021 79.6885C240.421 80.1312 240.621 80.7155 240.621 81.4414V81.5244C240.621 82.0225 240.525 82.4684 240.333 82.8623C240.141 83.2529 239.864 83.5573 239.503 83.7754C239.145 83.9902 238.731 84.0977 238.263 84.0977C237.553 84.0977 236.982 83.8617 236.549 83.3896C236.116 82.9144 235.899 82.278 235.899 81.4805V81.041C235.899 79.931 236.104 79.0488 236.515 78.3945C236.928 77.7402 237.537 77.3415 238.341 77.1982C238.797 77.1169 239.104 77.0176 239.264 76.9004C239.423 76.7832 239.503 76.6221 239.503 76.417H240.245C240.245 76.8239 240.152 77.1413 239.967 77.3691C239.785 77.597 239.492 77.7581 239.088 77.8525L238.414 78.0039C237.877 78.1309 237.473 78.3457 237.203 78.6484C236.936 78.9479 236.762 79.3483 236.681 79.8496C237.159 79.2962 237.742 79.0195 238.429 79.0195ZM238.253 79.7617C237.81 79.7617 237.459 79.9115 237.198 80.2109C236.938 80.5072 236.808 80.9189 236.808 81.4463V81.5244C236.808 82.0908 236.938 82.54 237.198 82.8721C237.462 83.2008 237.817 83.3652 238.263 83.3652C238.712 83.3652 239.067 83.1992 239.327 82.8672C239.588 82.5352 239.718 82.0501 239.718 81.4121C239.718 80.9141 239.586 80.5153 239.322 80.2158C239.062 79.9131 238.705 79.7617 238.253 79.7617ZM241.397 81.3096C241.397 80.792 241.498 80.3265 241.7 79.9131C241.905 79.4997 242.188 79.1807 242.55 78.9561C242.914 78.7314 243.329 78.6191 243.795 78.6191C244.514 78.6191 245.095 78.8682 245.538 79.3662C245.984 79.8643 246.207 80.5267 246.207 81.3535V81.417C246.207 81.9313 246.108 82.3936 245.909 82.8037C245.714 83.2106 245.432 83.528 245.064 83.7559C244.7 83.9837 244.28 84.0977 243.805 84.0977C243.089 84.0977 242.507 83.8486 242.062 83.3506C241.619 82.8525 241.397 82.1934 241.397 81.373V81.3096ZM242.306 81.417C242.306 82.0029 242.441 82.4733 242.711 82.8281C242.984 83.1829 243.349 83.3604 243.805 83.3604C244.264 83.3604 244.628 83.1813 244.898 82.8232C245.169 82.4619 245.304 81.9574 245.304 81.3096C245.304 80.7301 245.165 80.2614 244.889 79.9033C244.615 79.542 244.251 79.3613 243.795 79.3613C243.349 79.3613 242.989 79.5387 242.716 79.8936C242.442 80.2484 242.306 80.7562 242.306 81.417ZM250.382 82.8037L252.179 78.7168H253.307V84H252.403V80.1572L250.694 84H250.069L248.326 80.0742V84H247.423V78.7168H248.595L250.382 82.8037Z" fill="black" fill-opacity="0.7"/>
    <path d="M219.005 163H218.102V158.464H215.67V163H214.762V157.717H219.005V163ZM224.786 157.717V163H223.878V158.464H222.081L221.974 160.441C221.915 161.35 221.762 161.999 221.515 162.39C221.271 162.78 220.882 162.984 220.348 163H219.986V162.204L220.245 162.185C220.538 162.152 220.748 161.983 220.875 161.677C221.002 161.371 221.083 160.804 221.119 159.978L221.217 157.717H224.786ZM226.256 162.526C226.256 162.37 226.301 162.24 226.393 162.136C226.487 162.032 226.627 161.979 226.812 161.979C226.998 161.979 227.138 162.032 227.232 162.136C227.33 162.24 227.379 162.37 227.379 162.526C227.379 162.676 227.33 162.801 227.232 162.902C227.138 163.003 226.998 163.054 226.812 163.054C226.627 163.054 226.487 163.003 226.393 162.902C226.301 162.801 226.256 162.676 226.256 162.526ZM236.725 160.744C236.637 161.496 236.358 162.077 235.89 162.487C235.424 162.894 234.804 163.098 234.029 163.098C233.189 163.098 232.516 162.797 232.008 162.194C231.503 161.592 231.251 160.786 231.251 159.777V159.094C231.251 158.433 231.368 157.852 231.603 157.351C231.84 156.849 232.175 156.465 232.608 156.198C233.041 155.928 233.543 155.793 234.112 155.793C234.868 155.793 235.473 156.005 235.929 156.428C236.384 156.848 236.65 157.43 236.725 158.176H235.782C235.701 157.609 235.523 157.199 235.25 156.945C234.98 156.691 234.601 156.564 234.112 156.564C233.513 156.564 233.043 156.786 232.701 157.229C232.363 157.671 232.193 158.301 232.193 159.118V159.807C232.193 160.578 232.354 161.192 232.677 161.647C232.999 162.103 233.45 162.331 234.029 162.331C234.55 162.331 234.949 162.214 235.226 161.979C235.506 161.742 235.691 161.33 235.782 160.744H236.725ZM241.793 158.449H240.021V163H239.117V158.449H237.379V157.717H241.793V158.449ZM245.855 163C245.803 162.896 245.761 162.71 245.729 162.443C245.309 162.88 244.807 163.098 244.225 163.098C243.704 163.098 243.276 162.951 242.94 162.658C242.608 162.362 242.442 161.988 242.442 161.535C242.442 160.985 242.651 160.559 243.067 160.256C243.487 159.95 244.076 159.797 244.835 159.797H245.714V159.382C245.714 159.066 245.619 158.815 245.431 158.63C245.242 158.441 244.964 158.347 244.596 158.347C244.273 158.347 244.003 158.428 243.785 158.591C243.567 158.754 243.458 158.951 243.458 159.182H242.55C242.55 158.918 242.643 158.664 242.828 158.42C243.017 158.173 243.271 157.977 243.59 157.834C243.912 157.691 244.265 157.619 244.649 157.619C245.258 157.619 245.735 157.772 246.08 158.078C246.425 158.381 246.604 158.799 246.617 159.333V161.765C246.617 162.25 246.679 162.635 246.803 162.922V163H245.855ZM244.356 162.312C244.64 162.312 244.908 162.238 245.162 162.092C245.416 161.945 245.6 161.755 245.714 161.521V160.437H245.006C243.899 160.437 243.346 160.76 243.346 161.408C243.346 161.691 243.44 161.913 243.629 162.072C243.818 162.232 244.06 162.312 244.356 162.312ZM252.496 160.417C252.496 161.221 252.312 161.869 251.944 162.36C251.576 162.852 251.078 163.098 250.45 163.098C249.809 163.098 249.304 162.894 248.937 162.487V165.031H248.033V157.717H248.858L248.902 158.303C249.27 157.847 249.781 157.619 250.436 157.619C251.07 157.619 251.572 157.858 251.939 158.337C252.311 158.815 252.496 159.481 252.496 160.334V160.417ZM251.593 160.314C251.593 159.719 251.466 159.248 251.212 158.903C250.958 158.558 250.61 158.386 250.167 158.386C249.62 158.386 249.21 158.628 248.937 159.113V161.638C249.207 162.119 249.62 162.36 250.177 162.36C250.61 162.36 250.953 162.189 251.207 161.848C251.464 161.503 251.593 160.992 251.593 160.314ZM257.066 157.717H257.97V163H257.066V159.147L254.63 163H253.727V157.717H254.63V161.574L257.066 157.717ZM262.838 157.717H263.741V163H262.838V159.147L260.401 163H259.498V157.717H260.401V161.574L262.838 157.717ZM263.082 155.793C263.082 156.187 262.947 156.504 262.677 156.745C262.41 156.983 262.058 157.102 261.622 157.102C261.186 157.102 260.833 156.981 260.562 156.74C260.292 156.499 260.157 156.184 260.157 155.793H260.895C260.895 156.021 260.956 156.2 261.08 156.33C261.204 156.457 261.384 156.521 261.622 156.521C261.85 156.521 262.027 156.457 262.154 156.33C262.285 156.203 262.35 156.024 262.35 155.793H263.082ZM268.751 160.217V163H267.813V155.891H270.436C271.214 155.891 271.822 156.089 272.262 156.486C272.704 156.883 272.926 157.409 272.926 158.063C272.926 158.754 272.709 159.286 272.276 159.66C271.847 160.031 271.23 160.217 270.426 160.217H268.751ZM268.751 159.45H270.436C270.937 159.45 271.321 159.333 271.588 159.099C271.855 158.861 271.988 158.519 271.988 158.073C271.988 157.65 271.855 157.312 271.588 157.058C271.321 156.804 270.955 156.672 270.489 156.662H268.751V159.45ZM277.398 157.717H278.302V163H277.398V159.147L274.962 163H274.059V157.717H274.962V161.574L277.398 157.717ZM284.068 163H283.165V160.744H280.738V163H279.83V157.717H280.738V160.007H283.165V157.717H284.068V163ZM285.284 160.31C285.284 159.792 285.385 159.326 285.587 158.913C285.792 158.5 286.075 158.181 286.437 157.956C286.801 157.731 287.216 157.619 287.682 157.619C288.401 157.619 288.982 157.868 289.425 158.366C289.871 158.864 290.094 159.527 290.094 160.354V160.417C290.094 160.931 289.994 161.394 289.796 161.804C289.601 162.211 289.319 162.528 288.951 162.756C288.587 162.984 288.167 163.098 287.691 163.098C286.975 163.098 286.394 162.849 285.948 162.351C285.506 161.853 285.284 161.193 285.284 160.373V160.31ZM286.192 160.417C286.192 161.003 286.327 161.473 286.598 161.828C286.871 162.183 287.236 162.36 287.691 162.36C288.15 162.36 288.515 162.181 288.785 161.823C289.055 161.462 289.19 160.957 289.19 160.31C289.19 159.73 289.052 159.261 288.775 158.903C288.502 158.542 288.137 158.361 287.682 158.361C287.236 158.361 286.876 158.539 286.603 158.894C286.329 159.248 286.192 159.756 286.192 160.417ZM292.872 160.749H292.213V163H291.305V157.717H292.213V159.953H292.804L294.581 157.717H295.675L293.585 160.256L295.851 163H294.703L292.872 160.749Z" fill="black" fill-opacity="0.7"/>
    <path d="M248.737 189.662H246.452V196H245.52V189.662H243.239V188.891H248.737V189.662ZM251.354 196.098C250.638 196.098 250.056 195.863 249.606 195.395C249.157 194.923 248.933 194.293 248.933 193.505V193.339C248.933 192.815 249.032 192.348 249.23 191.938C249.432 191.524 249.712 191.202 250.07 190.971C250.432 190.736 250.822 190.619 251.242 190.619C251.929 190.619 252.463 190.845 252.844 191.298C253.225 191.75 253.415 192.398 253.415 193.241V193.617H249.836C249.849 194.138 250 194.56 250.29 194.882C250.583 195.201 250.954 195.36 251.403 195.36C251.722 195.36 251.993 195.295 252.214 195.165C252.435 195.035 252.629 194.862 252.795 194.647L253.347 195.077C252.904 195.757 252.24 196.098 251.354 196.098ZM251.242 191.361C250.878 191.361 250.572 191.495 250.324 191.762C250.077 192.025 249.924 192.396 249.865 192.875H252.512V192.807C252.486 192.348 252.362 191.993 252.141 191.742C251.919 191.488 251.62 191.361 251.242 191.361ZM257.727 196C257.674 195.896 257.632 195.71 257.6 195.443C257.18 195.88 256.678 196.098 256.096 196.098C255.575 196.098 255.147 195.951 254.812 195.658C254.479 195.362 254.313 194.988 254.313 194.535C254.313 193.985 254.522 193.559 254.938 193.256C255.358 192.95 255.948 192.797 256.706 192.797H257.585V192.382C257.585 192.066 257.491 191.815 257.302 191.63C257.113 191.441 256.835 191.347 256.467 191.347C256.145 191.347 255.874 191.428 255.656 191.591C255.438 191.754 255.329 191.951 255.329 192.182H254.421C254.421 191.918 254.514 191.664 254.699 191.42C254.888 191.173 255.142 190.977 255.461 190.834C255.783 190.691 256.136 190.619 256.521 190.619C257.129 190.619 257.606 190.772 257.951 191.078C258.296 191.381 258.475 191.799 258.488 192.333V194.765C258.488 195.25 258.55 195.635 258.674 195.922V196H257.727ZM256.228 195.312C256.511 195.312 256.779 195.238 257.033 195.092C257.287 194.945 257.471 194.755 257.585 194.521V193.437H256.877C255.77 193.437 255.217 193.76 255.217 194.408C255.217 194.691 255.311 194.913 255.5 195.072C255.689 195.232 255.931 195.312 256.228 195.312ZM263.752 191.449H261.979V196H261.076V191.449H259.338V190.717H263.752V191.449ZM269.094 193.417C269.094 194.221 268.91 194.869 268.542 195.36C268.174 195.852 267.676 196.098 267.048 196.098C266.407 196.098 265.902 195.894 265.534 195.487V198.031H264.631V190.717H265.456L265.5 191.303C265.868 190.847 266.379 190.619 267.033 190.619C267.668 190.619 268.169 190.858 268.537 191.337C268.908 191.815 269.094 192.481 269.094 193.334V193.417ZM268.19 193.314C268.19 192.719 268.063 192.248 267.81 191.903C267.556 191.558 267.207 191.386 266.765 191.386C266.218 191.386 265.808 191.628 265.534 192.113V194.638C265.804 195.119 266.218 195.36 266.774 195.36C267.207 195.36 267.551 195.189 267.805 194.848C268.062 194.503 268.19 193.992 268.19 193.314ZM277.058 190.717V196H276.149V191.464H274.353L274.245 193.441C274.187 194.35 274.034 194.999 273.786 195.39C273.542 195.78 273.153 195.984 272.619 196H272.258V195.204L272.517 195.185C272.81 195.152 273.02 194.983 273.146 194.677C273.273 194.371 273.355 193.804 273.391 192.978L273.488 190.717H277.058ZM282.546 190.717V196H281.638V193.944H280.275L279.03 196H278.054L279.382 193.808C279.043 193.684 278.783 193.493 278.601 193.236C278.422 192.976 278.332 192.673 278.332 192.328C278.332 191.846 278.513 191.459 278.874 191.166C279.235 190.87 279.719 190.72 280.324 190.717H282.546ZM279.24 192.338C279.24 192.595 279.328 192.803 279.504 192.963C279.68 193.119 279.912 193.199 280.202 193.202H281.638V191.449H280.339C280.004 191.449 279.737 191.532 279.538 191.698C279.34 191.861 279.24 192.074 279.24 192.338ZM288.327 190.717V196H287.419V191.464H285.622L285.515 193.441C285.456 194.35 285.303 194.999 285.056 195.39C284.812 195.78 284.423 195.984 283.889 196H283.527V195.204L283.786 195.185C284.079 195.152 284.289 194.983 284.416 194.677C284.543 194.371 284.624 193.804 284.66 192.978L284.758 190.717H288.327ZM290.764 192.538H292.136C292.735 192.545 293.208 192.701 293.557 193.007C293.905 193.313 294.079 193.728 294.079 194.252C294.079 194.779 293.9 195.202 293.542 195.521C293.184 195.84 292.702 196 292.097 196H289.86V190.717H290.764V192.538ZM290.764 193.275V195.263H292.106C292.445 195.263 292.707 195.176 292.893 195.004C293.078 194.828 293.171 194.589 293.171 194.286C293.171 193.993 293.08 193.754 292.897 193.568C292.718 193.38 292.466 193.282 292.141 193.275H290.764ZM294.968 193.31C294.968 192.792 295.069 192.326 295.271 191.913C295.476 191.5 295.759 191.181 296.12 190.956C296.485 190.731 296.9 190.619 297.365 190.619C298.085 190.619 298.666 190.868 299.108 191.366C299.554 191.864 299.777 192.527 299.777 193.354V193.417C299.777 193.931 299.678 194.394 299.479 194.804C299.284 195.211 299.003 195.528 298.635 195.756C298.27 195.984 297.85 196.098 297.375 196.098C296.659 196.098 296.078 195.849 295.632 195.351C295.189 194.853 294.968 194.193 294.968 193.373V193.31ZM295.876 193.417C295.876 194.003 296.011 194.473 296.281 194.828C296.555 195.183 296.919 195.36 297.375 195.36C297.834 195.36 298.199 195.181 298.469 194.823C298.739 194.462 298.874 193.957 298.874 193.31C298.874 192.73 298.736 192.261 298.459 191.903C298.186 191.542 297.821 191.361 297.365 191.361C296.919 191.361 296.56 191.539 296.286 191.894C296.013 192.248 295.876 192.756 295.876 193.417ZM302.556 193.749H301.896V196H300.988V190.717H301.896V192.953H302.487L304.265 190.717H305.358L303.269 193.256L305.534 196H304.387L302.556 193.749Z" fill="black" fill-opacity="0.7"/>
    <path d="M296.767 239V233.717H298.827C299.53 233.717 300.069 233.84 300.443 234.088C300.821 234.332 301.01 234.692 301.01 235.167C301.01 235.411 300.937 235.632 300.79 235.831C300.644 236.026 300.427 236.176 300.141 236.28C300.46 236.355 300.715 236.502 300.907 236.72C301.103 236.938 301.2 237.198 301.2 237.501C301.2 237.986 301.021 238.357 300.663 238.614C300.308 238.871 299.805 239 299.154 239H296.767ZM297.67 236.681V238.272H299.164C299.542 238.272 299.823 238.202 300.009 238.062C300.198 237.923 300.292 237.726 300.292 237.472C300.292 236.944 299.905 236.681 299.13 236.681H297.67ZM297.67 235.958H298.837C299.683 235.958 300.106 235.711 300.106 235.216C300.106 234.721 299.706 234.465 298.905 234.449H297.67V235.958ZM304.066 237.677L305.297 233.717H306.264L304.14 239.815C303.811 240.694 303.288 241.134 302.572 241.134L302.401 241.119L302.064 241.056V240.323L302.309 240.343C302.615 240.343 302.852 240.281 303.021 240.157C303.194 240.034 303.336 239.807 303.446 239.479L303.646 238.941L301.762 233.717H302.748L304.066 237.677ZM311.2 233.717V239H310.292V234.464H308.495L308.388 236.441C308.329 237.35 308.176 237.999 307.929 238.39C307.685 238.78 307.296 238.984 306.762 239H306.4V238.204L306.659 238.185C306.952 238.152 307.162 237.983 307.289 237.677C307.416 237.371 307.497 236.804 307.533 235.978L307.631 233.717H311.2ZM312.67 238.526C312.67 238.37 312.715 238.24 312.807 238.136C312.901 238.032 313.041 237.979 313.227 237.979C313.412 237.979 313.552 238.032 313.646 238.136C313.744 238.24 313.793 238.37 313.793 238.526C313.793 238.676 313.744 238.801 313.646 238.902C313.552 239.003 313.412 239.054 313.227 239.054C313.041 239.054 312.901 239.003 312.807 238.902C312.715 238.801 312.67 238.676 312.67 238.526ZM323.339 239H322.396V232.662H318.891V239H317.953V231.891H323.339V239ZM325.888 239H324.984V233.717H325.888V239ZM324.911 232.315C324.911 232.169 324.955 232.045 325.043 231.944C325.134 231.843 325.268 231.793 325.443 231.793C325.619 231.793 325.753 231.843 325.844 231.944C325.935 232.045 325.98 232.169 325.98 232.315C325.98 232.462 325.935 232.584 325.844 232.682C325.753 232.779 325.619 232.828 325.443 232.828C325.268 232.828 325.134 232.779 325.043 232.682C324.955 232.584 324.911 232.462 324.911 232.315ZM327.294 238.263L327.606 237.877C327.958 237.421 328.158 236.738 328.207 235.826L328.29 233.717H331.693V238.263H332.372V240.553H331.469V239H327.782V240.553H326.879L326.884 238.263H327.294ZM328.363 238.263H330.79V234.552H329.164L329.11 235.812C329.055 236.863 328.806 237.68 328.363 238.263ZM333.456 239V233.717H335.517C336.22 233.717 336.758 233.84 337.133 234.088C337.51 234.332 337.699 234.692 337.699 235.167C337.699 235.411 337.626 235.632 337.479 235.831C337.333 236.026 337.117 236.176 336.83 236.28C337.149 236.355 337.405 236.502 337.597 236.72C337.792 236.938 337.89 237.198 337.89 237.501C337.89 237.986 337.711 238.357 337.353 238.614C336.998 238.871 336.495 239 335.844 239H333.456ZM334.359 236.681V238.272H335.854C336.231 238.272 336.513 238.202 336.698 238.062C336.887 237.923 336.981 237.726 336.981 237.472C336.981 236.944 336.594 236.681 335.819 236.681H334.359ZM334.359 235.958H335.526C336.373 235.958 336.796 235.711 336.796 235.216C336.796 234.721 336.396 234.465 335.595 234.449H334.359V235.958ZM342.348 239C342.296 238.896 342.253 238.71 342.221 238.443C341.801 238.88 341.299 239.098 340.717 239.098C340.196 239.098 339.768 238.951 339.433 238.658C339.101 238.362 338.935 237.988 338.935 237.535C338.935 236.985 339.143 236.559 339.56 236.256C339.979 235.95 340.569 235.797 341.327 235.797H342.206V235.382C342.206 235.066 342.112 234.815 341.923 234.63C341.734 234.441 341.456 234.347 341.088 234.347C340.766 234.347 340.495 234.428 340.277 234.591C340.059 234.754 339.95 234.951 339.95 235.182H339.042C339.042 234.918 339.135 234.664 339.32 234.42C339.509 234.173 339.763 233.977 340.082 233.834C340.404 233.691 340.757 233.619 341.142 233.619C341.75 233.619 342.227 233.772 342.572 234.078C342.917 234.381 343.096 234.799 343.109 235.333V237.765C343.109 238.25 343.171 238.635 343.295 238.922V239H342.348ZM340.849 238.312C341.132 238.312 341.4 238.238 341.654 238.092C341.908 237.945 342.092 237.755 342.206 237.521V236.437H341.498C340.391 236.437 339.838 236.76 339.838 237.408C339.838 237.691 339.932 237.913 340.121 238.072C340.31 238.232 340.552 238.312 340.849 238.312ZM348.856 233.717V239H347.948V234.464H346.151L346.044 236.441C345.985 237.35 345.832 237.999 345.585 238.39C345.341 238.78 344.952 238.984 344.418 239H344.057V238.204L344.315 238.185C344.608 238.152 344.818 237.983 344.945 237.677C345.072 237.371 345.154 236.804 345.189 235.978L345.287 233.717H348.856ZM351.293 235.538H352.665C353.264 235.545 353.738 235.701 354.086 236.007C354.434 236.313 354.608 236.728 354.608 237.252C354.608 237.779 354.429 238.202 354.071 238.521C353.713 238.84 353.231 239 352.626 239H350.39V233.717H351.293V235.538ZM351.293 236.275V238.263H352.636C352.974 238.263 353.236 238.176 353.422 238.004C353.607 237.828 353.7 237.589 353.7 237.286C353.7 236.993 353.609 236.754 353.427 236.568C353.248 236.38 352.995 236.282 352.67 236.275H351.293ZM360.053 239H359.149V236.744H356.723V239H355.814V233.717H356.723V236.007H359.149V233.717H360.053V239ZM364.77 239C364.717 238.896 364.675 238.71 364.643 238.443C364.223 238.88 363.721 239.098 363.139 239.098C362.618 239.098 362.19 238.951 361.854 238.658C361.522 238.362 361.356 237.988 361.356 237.535C361.356 236.985 361.565 236.559 361.981 236.256C362.401 235.95 362.991 235.797 363.749 235.797H364.628V235.382C364.628 235.066 364.534 234.815 364.345 234.63C364.156 234.441 363.878 234.347 363.51 234.347C363.188 234.347 362.917 234.428 362.699 234.591C362.481 234.754 362.372 234.951 362.372 235.182H361.464C361.464 234.918 361.557 234.664 361.742 234.42C361.931 234.173 362.185 233.977 362.504 233.834C362.826 233.691 363.179 233.619 363.563 233.619C364.172 233.619 364.649 233.772 364.994 234.078C365.339 234.381 365.518 234.799 365.531 235.333V237.765C365.531 238.25 365.593 238.635 365.717 238.922V239H364.77ZM363.271 238.312C363.554 238.312 363.822 238.238 364.076 238.092C364.33 237.945 364.514 237.755 364.628 237.521V236.437H363.92C362.813 236.437 362.26 236.76 362.26 237.408C362.26 237.691 362.354 237.913 362.543 238.072C362.732 238.232 362.974 238.312 363.271 238.312Z" fill="black" fill-opacity="0.7"/>
    <path d="M340.005 297H339.102V292.464H336.67V297H335.762V291.717H340.005V297ZM345.786 291.717V297H344.878V292.464H343.081L342.974 294.441C342.915 295.35 342.762 295.999 342.515 296.39C342.271 296.78 341.882 296.984 341.348 297H340.986V296.204L341.245 296.185C341.538 296.152 341.748 295.983 341.875 295.677C342.002 295.371 342.083 294.804 342.119 293.978L342.217 291.717H345.786ZM347.256 296.526C347.256 296.37 347.301 296.24 347.393 296.136C347.487 296.032 347.627 295.979 347.812 295.979C347.998 295.979 348.138 296.032 348.232 296.136C348.33 296.24 348.379 296.37 348.379 296.526C348.379 296.676 348.33 296.801 348.232 296.902C348.138 297.003 347.998 297.054 347.812 297.054C347.627 297.054 347.487 297.003 347.393 296.902C347.301 296.801 347.256 296.676 347.256 296.526ZM353.706 289.891L356.03 295.691L358.354 289.891H359.57V297H358.633V294.231L358.721 291.243L356.387 297H355.669L353.34 291.258L353.433 294.231V297H352.495V289.891H353.706ZM364.502 291.717H365.405V297H364.502V293.147L362.065 297H361.162V291.717H362.065V295.574L364.502 291.717ZM370.781 292.449H369.009V297H368.105V292.449H366.367V291.717H370.781V292.449ZM375.977 297H375.073V294.744H372.646V297H371.738V291.717H372.646V294.007H375.073V291.717H375.977V297ZM380.693 297C380.641 296.896 380.599 296.71 380.566 296.443C380.146 296.88 379.645 297.098 379.062 297.098C378.542 297.098 378.114 296.951 377.778 296.658C377.446 296.362 377.28 295.988 377.28 295.535C377.28 294.985 377.489 294.559 377.905 294.256C378.325 293.95 378.914 293.797 379.673 293.797H380.552V293.382C380.552 293.066 380.457 292.815 380.269 292.63C380.08 292.441 379.801 292.347 379.434 292.347C379.111 292.347 378.841 292.428 378.623 292.591C378.405 292.754 378.296 292.951 378.296 293.182H377.388C377.388 292.918 377.48 292.664 377.666 292.42C377.855 292.173 378.109 291.977 378.428 291.834C378.75 291.691 379.103 291.619 379.487 291.619C380.096 291.619 380.573 291.772 380.918 292.078C381.263 292.381 381.442 292.799 381.455 293.333V295.765C381.455 296.25 381.517 296.635 381.641 296.922V297H380.693ZM379.194 296.312C379.478 296.312 379.746 296.238 380 296.092C380.254 295.945 380.438 295.755 380.552 295.521V294.437H379.844C378.737 294.437 378.184 294.76 378.184 295.408C378.184 295.691 378.278 295.913 378.467 296.072C378.656 296.232 378.898 296.312 379.194 296.312Z" fill="black" fill-opacity="0.7"/>
    <path d="M215.767 315V309.717H217.827C218.53 309.717 219.069 309.84 219.443 310.088C219.821 310.332 220.01 310.692 220.01 311.167C220.01 311.411 219.937 311.632 219.79 311.831C219.644 312.026 219.427 312.176 219.141 312.28C219.46 312.355 219.715 312.502 219.907 312.72C220.103 312.938 220.2 313.198 220.2 313.501C220.2 313.986 220.021 314.357 219.663 314.614C219.308 314.871 218.805 315 218.154 315H215.767ZM216.67 312.681V314.272H218.164C218.542 314.272 218.823 314.202 219.009 314.062C219.198 313.923 219.292 313.726 219.292 313.472C219.292 312.944 218.905 312.681 218.13 312.681H216.67ZM216.67 311.958H217.837C218.683 311.958 219.106 311.711 219.106 311.216C219.106 310.721 218.706 310.465 217.905 310.449H216.67V311.958ZM223.066 313.677L224.297 309.717H225.264L223.14 315.815C222.811 316.694 222.288 317.134 221.572 317.134L221.401 317.119L221.064 317.056V316.323L221.309 316.343C221.615 316.343 221.852 316.281 222.021 316.157C222.194 316.034 222.336 315.807 222.446 315.479L222.646 314.941L220.762 309.717H221.748L223.066 313.677ZM230.2 309.717V315H229.292V310.464H227.495L227.388 312.441C227.329 313.35 227.176 313.999 226.929 314.39C226.685 314.78 226.296 314.984 225.762 315H225.4V314.204L225.659 314.185C225.952 314.152 226.162 313.983 226.289 313.677C226.416 313.371 226.497 312.804 226.533 311.978L226.631 309.717H230.2ZM231.67 314.526C231.67 314.37 231.715 314.24 231.807 314.136C231.901 314.032 232.041 313.979 232.227 313.979C232.412 313.979 232.552 314.032 232.646 314.136C232.744 314.24 232.793 314.37 232.793 314.526C232.793 314.676 232.744 314.801 232.646 314.902C232.552 315.003 232.412 315.054 232.227 315.054C232.041 315.054 231.901 315.003 231.807 314.902C231.715 314.801 231.67 314.676 231.67 314.526ZM237.886 307.891V314.233H240.332V307.891H241.265V314.233H243.696V307.891H244.634V315H236.943V307.891H237.886ZM247.91 313.677L249.141 309.717H250.107L247.983 315.815C247.655 316.694 247.132 317.134 246.416 317.134L246.245 317.119L245.908 317.056V316.323L246.152 316.343C246.458 316.343 246.696 316.281 246.865 316.157C247.038 316.034 247.179 315.807 247.29 315.479L247.49 314.941L245.605 309.717H246.592L247.91 313.677ZM252.69 311.646L253.862 309.717H254.917L253.188 312.329L254.971 315H253.926L252.705 313.022L251.484 315H250.435L252.217 312.329L250.488 309.717H251.533L252.69 311.646ZM257.974 315.098C257.257 315.098 256.675 314.863 256.226 314.395C255.776 313.923 255.552 313.293 255.552 312.505V312.339C255.552 311.815 255.651 311.348 255.85 310.938C256.051 310.524 256.331 310.202 256.689 309.971C257.051 309.736 257.441 309.619 257.861 309.619C258.548 309.619 259.082 309.845 259.463 310.298C259.844 310.75 260.034 311.398 260.034 312.241V312.617H256.455C256.468 313.138 256.619 313.56 256.909 313.882C257.202 314.201 257.573 314.36 258.022 314.36C258.341 314.36 258.612 314.295 258.833 314.165C259.054 314.035 259.248 313.862 259.414 313.647L259.966 314.077C259.523 314.757 258.859 315.098 257.974 315.098ZM257.861 310.361C257.497 310.361 257.191 310.495 256.943 310.762C256.696 311.025 256.543 311.396 256.484 311.875H259.131V311.807C259.105 311.348 258.981 310.993 258.76 310.742C258.538 310.488 258.239 310.361 257.861 310.361ZM261.167 315V309.717H263.228C263.931 309.717 264.469 309.84 264.844 310.088C265.221 310.332 265.41 310.692 265.41 311.167C265.41 311.411 265.337 311.632 265.19 311.831C265.044 312.026 264.827 312.176 264.541 312.28C264.86 312.355 265.116 312.502 265.308 312.72C265.503 312.938 265.601 313.198 265.601 313.501C265.601 313.986 265.422 314.357 265.063 314.614C264.709 314.871 264.206 315 263.555 315H261.167ZM262.07 312.681V314.272H263.564C263.942 314.272 264.224 314.202 264.409 314.062C264.598 313.923 264.692 313.726 264.692 313.472C264.692 312.944 264.305 312.681 263.53 312.681H262.07ZM262.07 311.958H263.237C264.084 311.958 264.507 311.711 264.507 311.216C264.507 310.721 264.106 310.465 263.306 310.449H262.07V311.958ZM270.215 309.717H271.118V315H270.215V311.147L267.778 315H266.875V309.717H267.778V313.574L270.215 309.717ZM276.558 315H275.649V313.086C275.252 313.19 274.845 313.242 274.429 313.242C273.768 313.242 273.263 313.073 272.915 312.734C272.57 312.396 272.394 311.914 272.388 311.289V309.712H273.291V311.318C273.307 312.106 273.687 312.5 274.429 312.5C274.845 312.5 275.252 312.448 275.649 312.344V309.717H276.558V315ZM281.27 315C281.217 314.896 281.175 314.71 281.143 314.443C280.723 314.88 280.221 315.098 279.639 315.098C279.118 315.098 278.69 314.951 278.354 314.658C278.022 314.362 277.856 313.988 277.856 313.535C277.856 312.985 278.065 312.559 278.481 312.256C278.901 311.95 279.491 311.797 280.249 311.797H281.128V311.382C281.128 311.066 281.034 310.815 280.845 310.63C280.656 310.441 280.378 310.347 280.01 310.347C279.688 310.347 279.417 310.428 279.199 310.591C278.981 310.754 278.872 310.951 278.872 311.182H277.964C277.964 310.918 278.057 310.664 278.242 310.42C278.431 310.173 278.685 309.977 279.004 309.834C279.326 309.691 279.679 309.619 280.063 309.619C280.672 309.619 281.149 309.772 281.494 310.078C281.839 310.381 282.018 310.799 282.031 311.333V313.765C282.031 314.25 282.093 314.635 282.217 314.922V315H281.27ZM279.771 314.312C280.054 314.312 280.322 314.238 280.576 314.092C280.83 313.945 281.014 313.755 281.128 313.521V312.437H280.42C279.313 312.437 278.76 312.76 278.76 313.408C278.76 313.691 278.854 313.913 279.043 314.072C279.232 314.232 279.474 314.312 279.771 314.312Z" fill="black" fill-opacity="0.7"/>
    <path d="M106.767 184V178.717H108.827C109.53 178.717 110.069 178.84 110.443 179.088C110.821 179.332 111.01 179.692 111.01 180.167C111.01 180.411 110.937 180.632 110.79 180.831C110.644 181.026 110.427 181.176 110.141 181.28C110.46 181.355 110.715 181.502 110.907 181.72C111.103 181.938 111.2 182.198 111.2 182.501C111.2 182.986 111.021 183.357 110.663 183.614C110.308 183.871 109.805 184 109.154 184H106.767ZM107.67 181.681V183.272H109.164C109.542 183.272 109.823 183.202 110.009 183.062C110.198 182.923 110.292 182.726 110.292 182.472C110.292 181.944 109.905 181.681 109.13 181.681H107.67ZM107.67 180.958H108.837C109.683 180.958 110.106 180.711 110.106 180.216C110.106 179.721 109.706 179.465 108.905 179.449H107.67V180.958ZM114.066 182.677L115.297 178.717H116.264L114.14 184.815C113.811 185.694 113.288 186.134 112.572 186.134L112.401 186.119L112.064 186.056V185.323L112.309 185.343C112.615 185.343 112.852 185.281 113.021 185.157C113.194 185.034 113.336 184.807 113.446 184.479L113.646 183.941L111.762 178.717H112.748L114.066 182.677ZM121.2 178.717V184H120.292V179.464H118.495L118.388 181.441C118.329 182.35 118.176 182.999 117.929 183.39C117.685 183.78 117.296 183.984 116.762 184H116.4V183.204L116.659 183.185C116.952 183.152 117.162 182.983 117.289 182.677C117.416 182.371 117.497 181.804 117.533 180.978L117.631 178.717H121.2ZM122.67 183.526C122.67 183.37 122.715 183.24 122.807 183.136C122.901 183.032 123.041 182.979 123.227 182.979C123.412 182.979 123.552 183.032 123.646 183.136C123.744 183.24 123.793 183.37 123.793 183.526C123.793 183.676 123.744 183.801 123.646 183.902C123.552 184.003 123.412 184.054 123.227 184.054C123.041 184.054 122.901 184.003 122.807 183.902C122.715 183.801 122.67 183.676 122.67 183.526ZM132.626 177.662H130.341V184H129.408V177.662H127.128V176.891H132.626V177.662ZM135.243 184.098C134.527 184.098 133.944 183.863 133.495 183.395C133.046 182.923 132.821 182.293 132.821 181.505V181.339C132.821 180.815 132.921 180.348 133.119 179.938C133.321 179.524 133.601 179.202 133.959 178.971C134.32 178.736 134.711 178.619 135.131 178.619C135.818 178.619 136.352 178.845 136.732 179.298C137.113 179.75 137.304 180.398 137.304 181.241V181.617H133.725C133.738 182.138 133.889 182.56 134.179 182.882C134.472 183.201 134.843 183.36 135.292 183.36C135.611 183.36 135.881 183.295 136.103 183.165C136.324 183.035 136.518 182.862 136.684 182.647L137.235 183.077C136.793 183.757 136.129 184.098 135.243 184.098ZM135.131 179.361C134.766 179.361 134.46 179.495 134.213 179.762C133.965 180.025 133.812 180.396 133.754 180.875H136.4V180.807C136.374 180.348 136.251 179.993 136.029 179.742C135.808 179.488 135.508 179.361 135.131 179.361ZM141.615 184C141.563 183.896 141.521 183.71 141.488 183.443C141.068 183.88 140.567 184.098 139.984 184.098C139.464 184.098 139.035 183.951 138.7 183.658C138.368 183.362 138.202 182.988 138.202 182.535C138.202 181.985 138.41 181.559 138.827 181.256C139.247 180.95 139.836 180.797 140.595 180.797H141.474V180.382C141.474 180.066 141.379 179.815 141.19 179.63C141.002 179.441 140.723 179.347 140.355 179.347C140.033 179.347 139.763 179.428 139.545 179.591C139.327 179.754 139.218 179.951 139.218 180.182H138.31C138.31 179.918 138.402 179.664 138.588 179.42C138.777 179.173 139.031 178.977 139.35 178.834C139.672 178.691 140.025 178.619 140.409 178.619C141.018 178.619 141.495 178.772 141.84 179.078C142.185 179.381 142.364 179.799 142.377 180.333V182.765C142.377 183.25 142.439 183.635 142.562 183.922V184H141.615ZM140.116 183.312C140.399 183.312 140.668 183.238 140.922 183.092C141.176 182.945 141.36 182.755 141.474 182.521V181.437H140.766C139.659 181.437 139.105 181.76 139.105 182.408C139.105 182.691 139.2 182.913 139.389 183.072C139.577 183.232 139.82 183.312 140.116 183.312ZM147.641 179.449H145.868V184H144.965V179.449H143.227V178.717H147.641V179.449ZM152.982 181.417C152.982 182.221 152.799 182.869 152.431 183.36C152.063 183.852 151.565 184.098 150.937 184.098C150.295 184.098 149.791 183.894 149.423 183.487V186.031H148.52V178.717H149.345L149.389 179.303C149.757 178.847 150.268 178.619 150.922 178.619C151.557 178.619 152.058 178.858 152.426 179.337C152.797 179.815 152.982 180.481 152.982 181.334V181.417ZM152.079 181.314C152.079 180.719 151.952 180.248 151.698 179.903C151.444 179.558 151.096 179.386 150.653 179.386C150.106 179.386 149.696 179.628 149.423 180.113V182.638C149.693 183.119 150.106 183.36 150.663 183.36C151.096 183.36 151.439 183.189 151.693 182.848C151.951 182.503 152.079 181.992 152.079 181.314ZM157.396 184C157.344 183.896 157.302 183.71 157.27 183.443C156.85 183.88 156.348 184.098 155.766 184.098C155.245 184.098 154.817 183.951 154.481 183.658C154.149 183.362 153.983 182.988 153.983 182.535C153.983 181.985 154.192 181.559 154.608 181.256C155.028 180.95 155.618 180.797 156.376 180.797H157.255V180.382C157.255 180.066 157.16 179.815 156.972 179.63C156.783 179.441 156.505 179.347 156.137 179.347C155.814 179.347 155.544 179.428 155.326 179.591C155.108 179.754 154.999 179.951 154.999 180.182H154.091C154.091 179.918 154.184 179.664 154.369 179.42C154.558 179.173 154.812 178.977 155.131 178.834C155.453 178.691 155.806 178.619 156.19 178.619C156.799 178.619 157.276 178.772 157.621 179.078C157.966 179.381 158.145 179.799 158.158 180.333V182.765C158.158 183.25 158.22 183.635 158.344 183.922V184H157.396ZM155.897 183.312C156.181 183.312 156.449 183.238 156.703 183.092C156.957 182.945 157.141 182.755 157.255 182.521V181.437H156.547C155.44 181.437 154.887 181.76 154.887 182.408C154.887 182.691 154.981 182.913 155.17 183.072C155.359 183.232 155.601 183.312 155.897 183.312ZM163.905 178.717V184H162.997V179.464H161.2L161.093 181.441C161.034 182.35 160.881 182.999 160.634 183.39C160.39 183.78 160.001 183.984 159.467 184H159.105V183.204L159.364 183.185C159.657 183.152 159.867 182.983 159.994 182.677C160.121 182.371 160.202 181.804 160.238 180.978L160.336 178.717H163.905ZM166.342 180.538H167.714C168.313 180.545 168.786 180.701 169.135 181.007C169.483 181.313 169.657 181.728 169.657 182.252C169.657 182.779 169.478 183.202 169.12 183.521C168.762 183.84 168.28 184 167.675 184H165.438V178.717H166.342V180.538ZM166.342 181.275V183.263H167.685C168.023 183.263 168.285 183.176 168.471 183.004C168.656 182.828 168.749 182.589 168.749 182.286C168.749 181.993 168.658 181.754 168.476 181.568C168.297 181.38 168.044 181.282 167.719 181.275H166.342ZM175.102 184H174.198V181.744H171.771V184H170.863V178.717H171.771V181.007H174.198V178.717H175.102V184ZM179.818 184C179.766 183.896 179.724 183.71 179.691 183.443C179.271 183.88 178.77 184.098 178.188 184.098C177.667 184.098 177.239 183.951 176.903 183.658C176.571 183.362 176.405 182.988 176.405 182.535C176.405 181.985 176.614 181.559 177.03 181.256C177.45 180.95 178.039 180.797 178.798 180.797H179.677V180.382C179.677 180.066 179.582 179.815 179.394 179.63C179.205 179.441 178.926 179.347 178.559 179.347C178.236 179.347 177.966 179.428 177.748 179.591C177.53 179.754 177.421 179.951 177.421 180.182H176.513C176.513 179.918 176.605 179.664 176.791 179.42C176.98 179.173 177.234 178.977 177.553 178.834C177.875 178.691 178.228 178.619 178.612 178.619C179.221 178.619 179.698 178.772 180.043 179.078C180.388 179.381 180.567 179.799 180.58 180.333V182.765C180.58 183.25 180.642 183.635 180.766 183.922V184H179.818ZM178.319 183.312C178.603 183.312 178.871 183.238 179.125 183.092C179.379 182.945 179.563 182.755 179.677 182.521V181.437H178.969C177.862 181.437 177.309 181.76 177.309 182.408C177.309 182.691 177.403 182.913 177.592 183.072C177.781 183.232 178.023 183.312 178.319 183.312Z" fill="black" fill-opacity="0.7"/>
</svg>
