<svg width="500" height="394" viewBox="0 0 500 394" fill="none" xmlns="http://www.w3.org/2000/svg">
    <rect width="500" height="394" fill="white"/>
    <path d="M325 293L290 238" stroke="#0A9359" stroke-width="2"/>
    <path d="M176 190.5L234.5 193.5L325.5 293L176 190.5ZM176 190.5L290 236.5" stroke="#0A9359" stroke-width="2"/>
    <circle cx="175.5" cy="190.5" r="3.5" fill="#0A9359"/>
    <circle cx="324.5" cy="293.5" r="3.5" fill="#0A9359"/>
    <path d="M177 82.5L205.5 160L206.5 162L237 195.5M177 82.5L237 195.5M177 82.5L289.5 236.5M177 82.5C215 158.667 291.3 310.7 292.5 309.5L237 195.5" stroke="#F70404" stroke-width="2"/>
    <path d="M292.5 311.5L206.5 162.5L289 235" stroke="#F70404" stroke-width="2"/>
    <circle cx="206.5" cy="161.5" r="3.5" fill="#F70404"/>
    <circle cx="292.5" cy="311.5" r="3.5" fill="#F70404"/>
    <circle cx="176.5" cy="82.5" r="3.5" fill="#F70404"/>
    <path d="M233.5 192.5L289 236L292.5 310" stroke="#F70404" stroke-width="2"/>
    <path d="M235 194.5H236L289.5 236.5" stroke="#125E3E" stroke-width="2" stroke-dasharray="2 2"/>
    <circle cx="236.5" cy="194.5" r="3.5" fill="#121A5E"/>
    <circle cx="288.5" cy="236.5" r="3.5" fill="#121A5E"/>
    <path d="M186.767 84V78.7168H188.827C189.53 78.7168 190.069 78.8405 190.443 79.0879C190.821 79.332 191.01 79.6917 191.01 80.167C191.01 80.4111 190.937 80.6325 190.79 80.8311C190.644 81.0264 190.427 81.1761 190.141 81.2803C190.46 81.3551 190.715 81.5016 190.907 81.7197C191.103 81.9378 191.2 82.1982 191.2 82.501C191.2 82.986 191.021 83.3571 190.663 83.6143C190.308 83.8714 189.805 84 189.154 84H186.767ZM187.67 81.6807V83.2725H189.164C189.542 83.2725 189.823 83.2025 190.009 83.0625C190.198 82.9225 190.292 82.7256 190.292 82.4717C190.292 81.9443 189.905 81.6807 189.13 81.6807H187.67ZM187.67 80.958H188.837C189.683 80.958 190.106 80.7106 190.106 80.2158C190.106 79.721 189.706 79.4655 188.905 79.4492H187.67V80.958ZM194.066 82.6768L195.297 78.7168H196.264L194.14 84.8154C193.811 85.6943 193.288 86.1338 192.572 86.1338L192.401 86.1191L192.064 86.0557V85.3232L192.309 85.3428C192.615 85.3428 192.852 85.2809 193.021 85.1572C193.194 85.0335 193.336 84.8073 193.446 84.4785L193.646 83.9414L191.762 78.7168H192.748L194.066 82.6768ZM201.2 78.7168V84H200.292V79.4639H198.495L198.388 81.4414C198.329 82.3496 198.176 82.999 197.929 83.3896C197.685 83.7803 197.296 83.9837 196.762 84H196.4V83.2041L196.659 83.1846C196.952 83.152 197.162 82.9827 197.289 82.6768C197.416 82.3708 197.497 81.8044 197.533 80.9775L197.631 78.7168H201.2ZM202.67 83.5264C202.67 83.3701 202.715 83.2399 202.807 83.1357C202.901 83.0316 203.041 82.9795 203.227 82.9795C203.412 82.9795 203.552 83.0316 203.646 83.1357C203.744 83.2399 203.793 83.3701 203.793 83.5264C203.793 83.6761 203.744 83.8014 203.646 83.9023C203.552 84.0033 203.412 84.0537 203.227 84.0537C203.041 84.0537 202.901 84.0033 202.807 83.9023C202.715 83.8014 202.67 83.6761 202.67 83.5264ZM213.339 84H212.396V77.6621H208.891V84H207.953V76.8906H213.339V84ZM215.888 84H214.984V78.7168H215.888V84ZM214.911 77.3154C214.911 77.1689 214.955 77.0452 215.043 76.9443C215.134 76.8434 215.268 76.793 215.443 76.793C215.619 76.793 215.753 76.8434 215.844 76.9443C215.935 77.0452 215.98 77.1689 215.98 77.3154C215.98 77.4619 215.935 77.584 215.844 77.6816C215.753 77.7793 215.619 77.8281 215.443 77.8281C215.268 77.8281 215.134 77.7793 215.043 77.6816C214.955 77.584 214.911 77.4619 214.911 77.3154ZM217.294 83.2627L217.606 82.877C217.958 82.4212 218.158 81.7376 218.207 80.8262L218.29 78.7168H221.693V83.2627H222.372V85.5527H221.469V84H217.782V85.5527H216.879L216.884 83.2627H217.294ZM218.363 83.2627H220.79V79.5518H219.164L219.11 80.8115C219.055 81.863 218.806 82.68 218.363 83.2627ZM232.392 85.7432H231.459V84H226.356V85.748H225.419L225.414 83.2334H225.995C226.301 82.8883 226.544 82.4261 226.723 81.8467C226.905 81.264 227.019 80.626 227.064 79.9326L227.221 76.8906H231.474V83.2334H232.401L232.392 85.7432ZM227.064 83.2334H230.531V77.6621H228.124L228.021 79.752C227.979 80.569 227.87 81.2656 227.694 81.8418C227.522 82.418 227.312 82.8818 227.064 83.2334ZM235.102 82.6768L236.332 78.7168H237.299L235.175 84.8154C234.846 85.6943 234.324 86.1338 233.607 86.1338L233.437 86.1191L233.1 86.0557V85.3232L233.344 85.3428C233.65 85.3428 233.887 85.2809 234.057 85.1572C234.229 85.0335 234.371 84.8073 234.481 84.4785L234.682 83.9414L232.797 78.7168H233.783L235.102 82.6768ZM240.429 79.0195C241.093 79.0195 241.623 79.2425 242.021 79.6885C242.421 80.1312 242.621 80.7155 242.621 81.4414V81.5244C242.621 82.0225 242.525 82.4684 242.333 82.8623C242.141 83.2529 241.864 83.5573 241.503 83.7754C241.145 83.9902 240.731 84.0977 240.263 84.0977C239.553 84.0977 238.982 83.8617 238.549 83.3896C238.116 82.9144 237.899 82.278 237.899 81.4805V81.041C237.899 79.931 238.104 79.0488 238.515 78.3945C238.928 77.7402 239.537 77.3415 240.341 77.1982C240.797 77.1169 241.104 77.0176 241.264 76.9004C241.423 76.7832 241.503 76.6221 241.503 76.417H242.245C242.245 76.8239 242.152 77.1413 241.967 77.3691C241.785 77.597 241.492 77.7581 241.088 77.8525L240.414 78.0039C239.877 78.1309 239.473 78.3457 239.203 78.6484C238.936 78.9479 238.762 79.3483 238.681 79.8496C239.159 79.2962 239.742 79.0195 240.429 79.0195ZM240.253 79.7617C239.81 79.7617 239.459 79.9115 239.198 80.2109C238.938 80.5072 238.808 80.9189 238.808 81.4463V81.5244C238.808 82.0908 238.938 82.54 239.198 82.8721C239.462 83.2008 239.817 83.3652 240.263 83.3652C240.712 83.3652 241.067 83.1992 241.327 82.8672C241.588 82.5352 241.718 82.0501 241.718 81.4121C241.718 80.9141 241.586 80.5153 241.322 80.2158C241.062 79.9131 240.705 79.7617 240.253 79.7617ZM243.397 81.3096C243.397 80.792 243.498 80.3265 243.7 79.9131C243.905 79.4997 244.188 79.1807 244.55 78.9561C244.914 78.7314 245.329 78.6191 245.795 78.6191C246.514 78.6191 247.095 78.8682 247.538 79.3662C247.984 79.8643 248.207 80.5267 248.207 81.3535V81.417C248.207 81.9313 248.108 82.3936 247.909 82.8037C247.714 83.2106 247.432 83.528 247.064 83.7559C246.7 83.9837 246.28 84.0977 245.805 84.0977C245.089 84.0977 244.507 83.8486 244.062 83.3506C243.619 82.8525 243.397 82.1934 243.397 81.373V81.3096ZM244.306 81.417C244.306 82.0029 244.441 82.4733 244.711 82.8281C244.984 83.1829 245.349 83.3604 245.805 83.3604C246.264 83.3604 246.628 83.1813 246.898 82.8232C247.169 82.4619 247.304 81.9574 247.304 81.3096C247.304 80.7301 247.165 80.2614 246.889 79.9033C246.615 79.542 246.251 79.3613 245.795 79.3613C245.349 79.3613 244.989 79.5387 244.716 79.8936C244.442 80.2484 244.306 80.7562 244.306 81.417ZM252.382 82.8037L254.179 78.7168H255.307V84H254.403V80.1572L252.694 84H252.069L250.326 80.0742V84H249.423V78.7168H250.595L252.382 82.8037Z" fill="black" fill-opacity="0.7"/>
    <path d="M121.005 165H120.102V160.464H117.67V165H116.762V159.717H121.005V165ZM126.786 159.717V165H125.878V160.464H124.081L123.974 162.441C123.915 163.35 123.762 163.999 123.515 164.39C123.271 164.78 122.882 164.984 122.348 165H121.986V164.204L122.245 164.185C122.538 164.152 122.748 163.983 122.875 163.677C123.002 163.371 123.083 162.804 123.119 161.978L123.217 159.717H126.786ZM128.256 164.526C128.256 164.37 128.301 164.24 128.393 164.136C128.487 164.032 128.627 163.979 128.812 163.979C128.998 163.979 129.138 164.032 129.232 164.136C129.33 164.24 129.379 164.37 129.379 164.526C129.379 164.676 129.33 164.801 129.232 164.902C129.138 165.003 128.998 165.054 128.812 165.054C128.627 165.054 128.487 165.003 128.393 164.902C128.301 164.801 128.256 164.676 128.256 164.526ZM138.725 162.744C138.637 163.496 138.358 164.077 137.89 164.487C137.424 164.894 136.804 165.098 136.029 165.098C135.189 165.098 134.516 164.797 134.008 164.194C133.503 163.592 133.251 162.786 133.251 161.777V161.094C133.251 160.433 133.368 159.852 133.603 159.351C133.84 158.849 134.175 158.465 134.608 158.198C135.041 157.928 135.543 157.793 136.112 157.793C136.868 157.793 137.473 158.005 137.929 158.428C138.384 158.848 138.65 159.43 138.725 160.176H137.782C137.701 159.609 137.523 159.199 137.25 158.945C136.98 158.691 136.601 158.564 136.112 158.564C135.513 158.564 135.043 158.786 134.701 159.229C134.363 159.671 134.193 160.301 134.193 161.118V161.807C134.193 162.578 134.354 163.192 134.677 163.647C134.999 164.103 135.45 164.331 136.029 164.331C136.55 164.331 136.949 164.214 137.226 163.979C137.506 163.742 137.691 163.33 137.782 162.744H138.725ZM143.793 160.449H142.021V165H141.117V160.449H139.379V159.717H143.793V160.449ZM147.855 165C147.803 164.896 147.761 164.71 147.729 164.443C147.309 164.88 146.807 165.098 146.225 165.098C145.704 165.098 145.276 164.951 144.94 164.658C144.608 164.362 144.442 163.988 144.442 163.535C144.442 162.985 144.651 162.559 145.067 162.256C145.487 161.95 146.076 161.797 146.835 161.797H147.714V161.382C147.714 161.066 147.619 160.815 147.431 160.63C147.242 160.441 146.964 160.347 146.596 160.347C146.273 160.347 146.003 160.428 145.785 160.591C145.567 160.754 145.458 160.951 145.458 161.182H144.55C144.55 160.918 144.643 160.664 144.828 160.42C145.017 160.173 145.271 159.977 145.59 159.834C145.912 159.691 146.265 159.619 146.649 159.619C147.258 159.619 147.735 159.772 148.08 160.078C148.425 160.381 148.604 160.799 148.617 161.333V163.765C148.617 164.25 148.679 164.635 148.803 164.922V165H147.855ZM146.356 164.312C146.64 164.312 146.908 164.238 147.162 164.092C147.416 163.945 147.6 163.755 147.714 163.521V162.437H147.006C145.899 162.437 145.346 162.76 145.346 163.408C145.346 163.691 145.44 163.913 145.629 164.072C145.818 164.232 146.06 164.312 146.356 164.312ZM154.496 162.417C154.496 163.221 154.312 163.869 153.944 164.36C153.576 164.852 153.078 165.098 152.45 165.098C151.809 165.098 151.304 164.894 150.937 164.487V167.031H150.033V159.717H150.858L150.902 160.303C151.27 159.847 151.781 159.619 152.436 159.619C153.07 159.619 153.572 159.858 153.939 160.337C154.311 160.815 154.496 161.481 154.496 162.334V162.417ZM153.593 162.314C153.593 161.719 153.466 161.248 153.212 160.903C152.958 160.558 152.61 160.386 152.167 160.386C151.62 160.386 151.21 160.628 150.937 161.113V163.638C151.207 164.119 151.62 164.36 152.177 164.36C152.61 164.36 152.953 164.189 153.207 163.848C153.464 163.503 153.593 162.992 153.593 162.314ZM159.066 159.717H159.97V165H159.066V161.147L156.63 165H155.727V159.717H156.63V163.574L159.066 159.717ZM164.838 159.717H165.741V165H164.838V161.147L162.401 165H161.498V159.717H162.401V163.574L164.838 159.717ZM165.082 157.793C165.082 158.187 164.947 158.504 164.677 158.745C164.41 158.983 164.058 159.102 163.622 159.102C163.186 159.102 162.833 158.981 162.562 158.74C162.292 158.499 162.157 158.184 162.157 157.793H162.895C162.895 158.021 162.956 158.2 163.08 158.33C163.204 158.457 163.384 158.521 163.622 158.521C163.85 158.521 164.027 158.457 164.154 158.33C164.285 158.203 164.35 158.024 164.35 157.793H165.082ZM170.751 162.217V165H169.813V157.891H172.436C173.214 157.891 173.822 158.089 174.262 158.486C174.704 158.883 174.926 159.409 174.926 160.063C174.926 160.754 174.709 161.286 174.276 161.66C173.847 162.031 173.23 162.217 172.426 162.217H170.751ZM170.751 161.45H172.436C172.937 161.45 173.321 161.333 173.588 161.099C173.855 160.861 173.988 160.519 173.988 160.073C173.988 159.65 173.855 159.312 173.588 159.058C173.321 158.804 172.955 158.672 172.489 158.662H170.751V161.45ZM179.398 159.717H180.302V165H179.398V161.147L176.962 165H176.059V159.717H176.962V163.574L179.398 159.717ZM186.068 165H185.165V162.744H182.738V165H181.83V159.717H182.738V162.007H185.165V159.717H186.068V165ZM187.284 162.31C187.284 161.792 187.385 161.326 187.587 160.913C187.792 160.5 188.075 160.181 188.437 159.956C188.801 159.731 189.216 159.619 189.682 159.619C190.401 159.619 190.982 159.868 191.425 160.366C191.871 160.864 192.094 161.527 192.094 162.354V162.417C192.094 162.931 191.994 163.394 191.796 163.804C191.601 164.211 191.319 164.528 190.951 164.756C190.587 164.984 190.167 165.098 189.691 165.098C188.975 165.098 188.394 164.849 187.948 164.351C187.506 163.853 187.284 163.193 187.284 162.373V162.31ZM188.192 162.417C188.192 163.003 188.327 163.473 188.598 163.828C188.871 164.183 189.236 164.36 189.691 164.36C190.15 164.36 190.515 164.181 190.785 163.823C191.055 163.462 191.19 162.957 191.19 162.31C191.19 161.73 191.052 161.261 190.775 160.903C190.502 160.542 190.137 160.361 189.682 160.361C189.236 160.361 188.876 160.539 188.603 160.894C188.329 161.248 188.192 161.756 188.192 162.417ZM194.872 162.749H194.213V165H193.305V159.717H194.213V161.953H194.804L196.581 159.717H197.675L195.585 162.256L197.851 165H196.703L194.872 162.749Z" fill="black" fill-opacity="0.7"/>
    <path d="M91.7666 194V188.717H93.8271C94.5303 188.717 95.069 188.84 95.4434 189.088C95.821 189.332 96.0098 189.692 96.0098 190.167C96.0098 190.411 95.9365 190.632 95.79 190.831C95.6436 191.026 95.4271 191.176 95.1406 191.28C95.4596 191.355 95.7152 191.502 95.9072 191.72C96.1025 191.938 96.2002 192.198 96.2002 192.501C96.2002 192.986 96.0212 193.357 95.6631 193.614C95.3083 193.871 94.8053 194 94.1543 194H91.7666ZM92.6699 191.681V193.272H94.1641C94.5417 193.272 94.8232 193.202 95.0088 193.062C95.1976 192.923 95.292 192.726 95.292 192.472C95.292 191.944 94.9046 191.681 94.1299 191.681H92.6699ZM92.6699 190.958H93.8369C94.6833 190.958 95.1064 190.711 95.1064 190.216C95.1064 189.721 94.7061 189.465 93.9053 189.449H92.6699V190.958ZM99.0664 192.677L100.297 188.717H101.264L99.1396 194.815C98.8109 195.694 98.2884 196.134 97.5723 196.134L97.4014 196.119L97.0645 196.056V195.323L97.3086 195.343C97.6146 195.343 97.8522 195.281 98.0215 195.157C98.194 195.034 98.3356 194.807 98.4463 194.479L98.6465 193.941L96.7617 188.717H97.748L99.0664 192.677ZM106.2 188.717V194H105.292V189.464H103.495L103.388 191.441C103.329 192.35 103.176 192.999 102.929 193.39C102.685 193.78 102.296 193.984 101.762 194H101.4V193.204L101.659 193.185C101.952 193.152 102.162 192.983 102.289 192.677C102.416 192.371 102.497 191.804 102.533 190.978L102.631 188.717H106.2ZM107.67 193.526C107.67 193.37 107.715 193.24 107.807 193.136C107.901 193.032 108.041 192.979 108.227 192.979C108.412 192.979 108.552 193.032 108.646 193.136C108.744 193.24 108.793 193.37 108.793 193.526C108.793 193.676 108.744 193.801 108.646 193.902C108.552 194.003 108.412 194.054 108.227 194.054C108.041 194.054 107.901 194.003 107.807 193.902C107.715 193.801 107.67 193.676 107.67 193.526ZM117.626 187.662H115.341V194H114.408V187.662H112.128V186.891H117.626V187.662ZM120.243 194.098C119.527 194.098 118.944 193.863 118.495 193.395C118.046 192.923 117.821 192.293 117.821 191.505V191.339C117.821 190.815 117.921 190.348 118.119 189.938C118.321 189.524 118.601 189.202 118.959 188.971C119.32 188.736 119.711 188.619 120.131 188.619C120.818 188.619 121.352 188.845 121.732 189.298C122.113 189.75 122.304 190.398 122.304 191.241V191.617H118.725C118.738 192.138 118.889 192.56 119.179 192.882C119.472 193.201 119.843 193.36 120.292 193.36C120.611 193.36 120.881 193.295 121.103 193.165C121.324 193.035 121.518 192.862 121.684 192.647L122.235 193.077C121.793 193.757 121.129 194.098 120.243 194.098ZM120.131 189.361C119.766 189.361 119.46 189.495 119.213 189.762C118.965 190.025 118.812 190.396 118.754 190.875H121.4V190.807C121.374 190.348 121.251 189.993 121.029 189.742C120.808 189.488 120.508 189.361 120.131 189.361ZM126.615 194C126.563 193.896 126.521 193.71 126.488 193.443C126.068 193.88 125.567 194.098 124.984 194.098C124.464 194.098 124.035 193.951 123.7 193.658C123.368 193.362 123.202 192.988 123.202 192.535C123.202 191.985 123.41 191.559 123.827 191.256C124.247 190.95 124.836 190.797 125.595 190.797H126.474V190.382C126.474 190.066 126.379 189.815 126.19 189.63C126.002 189.441 125.723 189.347 125.355 189.347C125.033 189.347 124.763 189.428 124.545 189.591C124.327 189.754 124.218 189.951 124.218 190.182H123.31C123.31 189.918 123.402 189.664 123.588 189.42C123.777 189.173 124.031 188.977 124.35 188.834C124.672 188.691 125.025 188.619 125.409 188.619C126.018 188.619 126.495 188.772 126.84 189.078C127.185 189.381 127.364 189.799 127.377 190.333V192.765C127.377 193.25 127.439 193.635 127.562 193.922V194H126.615ZM125.116 193.312C125.399 193.312 125.668 193.238 125.922 193.092C126.176 192.945 126.36 192.755 126.474 192.521V191.437H125.766C124.659 191.437 124.105 191.76 124.105 192.408C124.105 192.691 124.2 192.913 124.389 193.072C124.577 193.232 124.82 193.312 125.116 193.312ZM132.641 189.449H130.868V194H129.965V189.449H128.227V188.717H132.641V189.449ZM137.982 191.417C137.982 192.221 137.799 192.869 137.431 193.36C137.063 193.852 136.565 194.098 135.937 194.098C135.295 194.098 134.791 193.894 134.423 193.487V196.031H133.52V188.717H134.345L134.389 189.303C134.757 188.847 135.268 188.619 135.922 188.619C136.557 188.619 137.058 188.858 137.426 189.337C137.797 189.815 137.982 190.481 137.982 191.334V191.417ZM137.079 191.314C137.079 190.719 136.952 190.248 136.698 189.903C136.444 189.558 136.096 189.386 135.653 189.386C135.106 189.386 134.696 189.628 134.423 190.113V192.638C134.693 193.119 135.106 193.36 135.663 193.36C136.096 193.36 136.439 193.189 136.693 192.848C136.951 192.503 137.079 191.992 137.079 191.314ZM142.396 194C142.344 193.896 142.302 193.71 142.27 193.443C141.85 193.88 141.348 194.098 140.766 194.098C140.245 194.098 139.817 193.951 139.481 193.658C139.149 193.362 138.983 192.988 138.983 192.535C138.983 191.985 139.192 191.559 139.608 191.256C140.028 190.95 140.618 190.797 141.376 190.797H142.255V190.382C142.255 190.066 142.16 189.815 141.972 189.63C141.783 189.441 141.505 189.347 141.137 189.347C140.814 189.347 140.544 189.428 140.326 189.591C140.108 189.754 139.999 189.951 139.999 190.182H139.091C139.091 189.918 139.184 189.664 139.369 189.42C139.558 189.173 139.812 188.977 140.131 188.834C140.453 188.691 140.806 188.619 141.19 188.619C141.799 188.619 142.276 188.772 142.621 189.078C142.966 189.381 143.145 189.799 143.158 190.333V192.765C143.158 193.25 143.22 193.635 143.344 193.922V194H142.396ZM140.897 193.312C141.181 193.312 141.449 193.238 141.703 193.092C141.957 192.945 142.141 192.755 142.255 192.521V191.437H141.547C140.44 191.437 139.887 191.76 139.887 192.408C139.887 192.691 139.981 192.913 140.17 193.072C140.359 193.232 140.601 193.312 140.897 193.312ZM148.905 188.717V194H147.997V189.464H146.2L146.093 191.441C146.034 192.35 145.881 192.999 145.634 193.39C145.39 193.78 145.001 193.984 144.467 194H144.105V193.204L144.364 193.185C144.657 193.152 144.867 192.983 144.994 192.677C145.121 192.371 145.202 191.804 145.238 190.978L145.336 188.717H148.905ZM151.342 190.538H152.714C153.313 190.545 153.786 190.701 154.135 191.007C154.483 191.313 154.657 191.728 154.657 192.252C154.657 192.779 154.478 193.202 154.12 193.521C153.762 193.84 153.28 194 152.675 194H150.438V188.717H151.342V190.538ZM151.342 191.275V193.263H152.685C153.023 193.263 153.285 193.176 153.471 193.004C153.656 192.828 153.749 192.589 153.749 192.286C153.749 191.993 153.658 191.754 153.476 191.568C153.297 191.38 153.044 191.282 152.719 191.275H151.342ZM160.102 194H159.198V191.744H156.771V194H155.863V188.717H156.771V191.007H159.198V188.717H160.102V194ZM164.818 194C164.766 193.896 164.724 193.71 164.691 193.443C164.271 193.88 163.77 194.098 163.188 194.098C162.667 194.098 162.239 193.951 161.903 193.658C161.571 193.362 161.405 192.988 161.405 192.535C161.405 191.985 161.614 191.559 162.03 191.256C162.45 190.95 163.039 190.797 163.798 190.797H164.677V190.382C164.677 190.066 164.582 189.815 164.394 189.63C164.205 189.441 163.926 189.347 163.559 189.347C163.236 189.347 162.966 189.428 162.748 189.591C162.53 189.754 162.421 189.951 162.421 190.182H161.513C161.513 189.918 161.605 189.664 161.791 189.42C161.98 189.173 162.234 188.977 162.553 188.834C162.875 188.691 163.228 188.619 163.612 188.619C164.221 188.619 164.698 188.772 165.043 189.078C165.388 189.381 165.567 189.799 165.58 190.333V192.765C165.58 193.25 165.642 193.635 165.766 193.922V194H164.818ZM163.319 193.312C163.603 193.312 163.871 193.238 164.125 193.092C164.379 192.945 164.563 192.755 164.677 192.521V191.437H163.969C162.862 191.437 162.309 191.76 162.309 192.408C162.309 192.691 162.403 192.913 162.592 193.072C162.781 193.232 163.023 193.312 163.319 193.312Z" fill="black" fill-opacity="0.7"/>
    <path d="M268.737 188.662H266.452V195H265.52V188.662H263.239V187.891H268.737V188.662ZM271.354 195.098C270.638 195.098 270.056 194.863 269.606 194.395C269.157 193.923 268.933 193.293 268.933 192.505V192.339C268.933 191.815 269.032 191.348 269.23 190.938C269.432 190.524 269.712 190.202 270.07 189.971C270.432 189.736 270.822 189.619 271.242 189.619C271.929 189.619 272.463 189.845 272.844 190.298C273.225 190.75 273.415 191.398 273.415 192.241V192.617H269.836C269.849 193.138 270 193.56 270.29 193.882C270.583 194.201 270.954 194.36 271.403 194.36C271.722 194.36 271.993 194.295 272.214 194.165C272.435 194.035 272.629 193.862 272.795 193.647L273.347 194.077C272.904 194.757 272.24 195.098 271.354 195.098ZM271.242 190.361C270.878 190.361 270.572 190.495 270.324 190.762C270.077 191.025 269.924 191.396 269.865 191.875H272.512V191.807C272.486 191.348 272.362 190.993 272.141 190.742C271.919 190.488 271.62 190.361 271.242 190.361ZM277.727 195C277.674 194.896 277.632 194.71 277.6 194.443C277.18 194.88 276.678 195.098 276.096 195.098C275.575 195.098 275.147 194.951 274.812 194.658C274.479 194.362 274.313 193.988 274.313 193.535C274.313 192.985 274.522 192.559 274.938 192.256C275.358 191.95 275.948 191.797 276.706 191.797H277.585V191.382C277.585 191.066 277.491 190.815 277.302 190.63C277.113 190.441 276.835 190.347 276.467 190.347C276.145 190.347 275.874 190.428 275.656 190.591C275.438 190.754 275.329 190.951 275.329 191.182H274.421C274.421 190.918 274.514 190.664 274.699 190.42C274.888 190.173 275.142 189.977 275.461 189.834C275.783 189.691 276.136 189.619 276.521 189.619C277.129 189.619 277.606 189.772 277.951 190.078C278.296 190.381 278.475 190.799 278.488 191.333V193.765C278.488 194.25 278.55 194.635 278.674 194.922V195H277.727ZM276.228 194.312C276.511 194.312 276.779 194.238 277.033 194.092C277.287 193.945 277.471 193.755 277.585 193.521V192.437H276.877C275.77 192.437 275.217 192.76 275.217 193.408C275.217 193.691 275.311 193.913 275.5 194.072C275.689 194.232 275.931 194.312 276.228 194.312ZM283.752 190.449H281.979V195H281.076V190.449H279.338V189.717H283.752V190.449ZM289.094 192.417C289.094 193.221 288.91 193.869 288.542 194.36C288.174 194.852 287.676 195.098 287.048 195.098C286.407 195.098 285.902 194.894 285.534 194.487V197.031H284.631V189.717H285.456L285.5 190.303C285.868 189.847 286.379 189.619 287.033 189.619C287.668 189.619 288.169 189.858 288.537 190.337C288.908 190.815 289.094 191.481 289.094 192.334V192.417ZM288.19 192.314C288.19 191.719 288.063 191.248 287.81 190.903C287.556 190.558 287.207 190.386 286.765 190.386C286.218 190.386 285.808 190.628 285.534 191.113V193.638C285.804 194.119 286.218 194.36 286.774 194.36C287.207 194.36 287.551 194.189 287.805 193.848C288.062 193.503 288.19 192.992 288.19 192.314ZM297.058 189.717V195H296.149V190.464H294.353L294.245 192.441C294.187 193.35 294.034 193.999 293.786 194.39C293.542 194.78 293.153 194.984 292.619 195H292.258V194.204L292.517 194.185C292.81 194.152 293.02 193.983 293.146 193.677C293.273 193.371 293.355 192.804 293.391 191.978L293.488 189.717H297.058ZM302.546 189.717V195H301.638V192.944H300.275L299.03 195H298.054L299.382 192.808C299.043 192.684 298.783 192.493 298.601 192.236C298.422 191.976 298.332 191.673 298.332 191.328C298.332 190.846 298.513 190.459 298.874 190.166C299.235 189.87 299.719 189.72 300.324 189.717H302.546ZM299.24 191.338C299.24 191.595 299.328 191.803 299.504 191.963C299.68 192.119 299.912 192.199 300.202 192.202H301.638V190.449H300.339C300.004 190.449 299.737 190.532 299.538 190.698C299.34 190.861 299.24 191.074 299.24 191.338ZM308.327 189.717V195H307.419V190.464H305.622L305.515 192.441C305.456 193.35 305.303 193.999 305.056 194.39C304.812 194.78 304.423 194.984 303.889 195H303.527V194.204L303.786 194.185C304.079 194.152 304.289 193.983 304.416 193.677C304.543 193.371 304.624 192.804 304.66 191.978L304.758 189.717H308.327ZM310.764 191.538H312.136C312.735 191.545 313.208 191.701 313.557 192.007C313.905 192.313 314.079 192.728 314.079 193.252C314.079 193.779 313.9 194.202 313.542 194.521C313.184 194.84 312.702 195 312.097 195H309.86V189.717H310.764V191.538ZM310.764 192.275V194.263H312.106C312.445 194.263 312.707 194.176 312.893 194.004C313.078 193.828 313.171 193.589 313.171 193.286C313.171 192.993 313.08 192.754 312.897 192.568C312.718 192.38 312.466 192.282 312.141 192.275H310.764ZM314.968 192.31C314.968 191.792 315.069 191.326 315.271 190.913C315.476 190.5 315.759 190.181 316.12 189.956C316.485 189.731 316.9 189.619 317.365 189.619C318.085 189.619 318.666 189.868 319.108 190.366C319.554 190.864 319.777 191.527 319.777 192.354V192.417C319.777 192.931 319.678 193.394 319.479 193.804C319.284 194.211 319.003 194.528 318.635 194.756C318.27 194.984 317.85 195.098 317.375 195.098C316.659 195.098 316.078 194.849 315.632 194.351C315.189 193.853 314.968 193.193 314.968 192.373V192.31ZM315.876 192.417C315.876 193.003 316.011 193.473 316.281 193.828C316.555 194.183 316.919 194.36 317.375 194.36C317.834 194.36 318.199 194.181 318.469 193.823C318.739 193.462 318.874 192.957 318.874 192.31C318.874 191.73 318.736 191.261 318.459 190.903C318.186 190.542 317.821 190.361 317.365 190.361C316.919 190.361 316.56 190.539 316.286 190.894C316.013 191.248 315.876 191.756 315.876 192.417ZM322.556 192.749H321.896V195H320.988V189.717H321.896V191.953H322.487L324.265 189.717H325.358L323.269 192.256L325.534 195H324.387L322.556 192.749Z" fill="black" fill-opacity="0.7"/>
    <path d="M299.767 238V232.717H301.827C302.53 232.717 303.069 232.84 303.443 233.088C303.821 233.332 304.01 233.692 304.01 234.167C304.01 234.411 303.937 234.632 303.79 234.831C303.644 235.026 303.427 235.176 303.141 235.28C303.46 235.355 303.715 235.502 303.907 235.72C304.103 235.938 304.2 236.198 304.2 236.501C304.2 236.986 304.021 237.357 303.663 237.614C303.308 237.871 302.805 238 302.154 238H299.767ZM300.67 235.681V237.272H302.164C302.542 237.272 302.823 237.202 303.009 237.062C303.198 236.923 303.292 236.726 303.292 236.472C303.292 235.944 302.905 235.681 302.13 235.681H300.67ZM300.67 234.958H301.837C302.683 234.958 303.106 234.711 303.106 234.216C303.106 233.721 302.706 233.465 301.905 233.449H300.67V234.958ZM307.066 236.677L308.297 232.717H309.264L307.14 238.815C306.811 239.694 306.288 240.134 305.572 240.134L305.401 240.119L305.064 240.056V239.323L305.309 239.343C305.615 239.343 305.852 239.281 306.021 239.157C306.194 239.034 306.336 238.807 306.446 238.479L306.646 237.941L304.762 232.717H305.748L307.066 236.677ZM314.2 232.717V238H313.292V233.464H311.495L311.388 235.441C311.329 236.35 311.176 236.999 310.929 237.39C310.685 237.78 310.296 237.984 309.762 238H309.4V237.204L309.659 237.185C309.952 237.152 310.162 236.983 310.289 236.677C310.416 236.371 310.497 235.804 310.533 234.978L310.631 232.717H314.2ZM315.67 237.526C315.67 237.37 315.715 237.24 315.807 237.136C315.901 237.032 316.041 236.979 316.227 236.979C316.412 236.979 316.552 237.032 316.646 237.136C316.744 237.24 316.793 237.37 316.793 237.526C316.793 237.676 316.744 237.801 316.646 237.902C316.552 238.003 316.412 238.054 316.227 238.054C316.041 238.054 315.901 238.003 315.807 237.902C315.715 237.801 315.67 237.676 315.67 237.526ZM326.339 238H325.396V231.662H321.891V238H320.953V230.891H326.339V238ZM328.888 238H327.984V232.717H328.888V238ZM327.911 231.315C327.911 231.169 327.955 231.045 328.043 230.944C328.134 230.843 328.268 230.793 328.443 230.793C328.619 230.793 328.753 230.843 328.844 230.944C328.935 231.045 328.98 231.169 328.98 231.315C328.98 231.462 328.935 231.584 328.844 231.682C328.753 231.779 328.619 231.828 328.443 231.828C328.268 231.828 328.134 231.779 328.043 231.682C327.955 231.584 327.911 231.462 327.911 231.315ZM330.294 237.263L330.606 236.877C330.958 236.421 331.158 235.738 331.207 234.826L331.29 232.717H334.693V237.263H335.372V239.553H334.469V238H330.782V239.553H329.879L329.884 237.263H330.294ZM331.363 237.263H333.79V233.552H332.164L332.11 234.812C332.055 235.863 331.806 236.68 331.363 237.263ZM336.456 238V232.717H338.517C339.22 232.717 339.758 232.84 340.133 233.088C340.51 233.332 340.699 233.692 340.699 234.167C340.699 234.411 340.626 234.632 340.479 234.831C340.333 235.026 340.117 235.176 339.83 235.28C340.149 235.355 340.405 235.502 340.597 235.72C340.792 235.938 340.89 236.198 340.89 236.501C340.89 236.986 340.711 237.357 340.353 237.614C339.998 237.871 339.495 238 338.844 238H336.456ZM337.359 235.681V237.272H338.854C339.231 237.272 339.513 237.202 339.698 237.062C339.887 236.923 339.981 236.726 339.981 236.472C339.981 235.944 339.594 235.681 338.819 235.681H337.359ZM337.359 234.958H338.526C339.373 234.958 339.796 234.711 339.796 234.216C339.796 233.721 339.396 233.465 338.595 233.449H337.359V234.958ZM345.348 238C345.296 237.896 345.253 237.71 345.221 237.443C344.801 237.88 344.299 238.098 343.717 238.098C343.196 238.098 342.768 237.951 342.433 237.658C342.101 237.362 341.935 236.988 341.935 236.535C341.935 235.985 342.143 235.559 342.56 235.256C342.979 234.95 343.569 234.797 344.327 234.797H345.206V234.382C345.206 234.066 345.112 233.815 344.923 233.63C344.734 233.441 344.456 233.347 344.088 233.347C343.766 233.347 343.495 233.428 343.277 233.591C343.059 233.754 342.95 233.951 342.95 234.182H342.042C342.042 233.918 342.135 233.664 342.32 233.42C342.509 233.173 342.763 232.977 343.082 232.834C343.404 232.691 343.757 232.619 344.142 232.619C344.75 232.619 345.227 232.772 345.572 233.078C345.917 233.381 346.096 233.799 346.109 234.333V236.765C346.109 237.25 346.171 237.635 346.295 237.922V238H345.348ZM343.849 237.312C344.132 237.312 344.4 237.238 344.654 237.092C344.908 236.945 345.092 236.755 345.206 236.521V235.437H344.498C343.391 235.437 342.838 235.76 342.838 236.408C342.838 236.691 342.932 236.913 343.121 237.072C343.31 237.232 343.552 237.312 343.849 237.312ZM351.856 232.717V238H350.948V233.464H349.151L349.044 235.441C348.985 236.35 348.832 236.999 348.585 237.39C348.341 237.78 347.952 237.984 347.418 238H347.057V237.204L347.315 237.185C347.608 237.152 347.818 236.983 347.945 236.677C348.072 236.371 348.154 235.804 348.189 234.978L348.287 232.717H351.856ZM354.293 234.538H355.665C356.264 234.545 356.738 234.701 357.086 235.007C357.434 235.313 357.608 235.728 357.608 236.252C357.608 236.779 357.429 237.202 357.071 237.521C356.713 237.84 356.231 238 355.626 238H353.39V232.717H354.293V234.538ZM354.293 235.275V237.263H355.636C355.974 237.263 356.236 237.176 356.422 237.004C356.607 236.828 356.7 236.589 356.7 236.286C356.7 235.993 356.609 235.754 356.427 235.568C356.248 235.38 355.995 235.282 355.67 235.275H354.293ZM363.053 238H362.149V235.744H359.723V238H358.814V232.717H359.723V235.007H362.149V232.717H363.053V238ZM367.77 238C367.717 237.896 367.675 237.71 367.643 237.443C367.223 237.88 366.721 238.098 366.139 238.098C365.618 238.098 365.19 237.951 364.854 237.658C364.522 237.362 364.356 236.988 364.356 236.535C364.356 235.985 364.565 235.559 364.981 235.256C365.401 234.95 365.991 234.797 366.749 234.797H367.628V234.382C367.628 234.066 367.534 233.815 367.345 233.63C367.156 233.441 366.878 233.347 366.51 233.347C366.188 233.347 365.917 233.428 365.699 233.591C365.481 233.754 365.372 233.951 365.372 234.182H364.464C364.464 233.918 364.557 233.664 364.742 233.42C364.931 233.173 365.185 232.977 365.504 232.834C365.826 232.691 366.179 232.619 366.563 232.619C367.172 232.619 367.649 232.772 367.994 233.078C368.339 233.381 368.518 233.799 368.531 234.333V236.765C368.531 237.25 368.593 237.635 368.717 237.922V238H367.77ZM366.271 237.312C366.554 237.312 366.822 237.238 367.076 237.092C367.33 236.945 367.514 236.755 367.628 236.521V235.437H366.92C365.813 235.437 365.26 235.76 365.26 236.408C365.26 236.691 365.354 236.913 365.543 237.072C365.732 237.232 365.974 237.312 366.271 237.312Z" fill="black" fill-opacity="0.7"/>
    <path d="M330.005 308H329.102V303.464H326.67V308H325.762V302.717H330.005V308ZM335.786 302.717V308H334.878V303.464H333.081L332.974 305.441C332.915 306.35 332.762 306.999 332.515 307.39C332.271 307.78 331.882 307.984 331.348 308H330.986V307.204L331.245 307.185C331.538 307.152 331.748 306.983 331.875 306.677C332.002 306.371 332.083 305.804 332.119 304.978L332.217 302.717H335.786ZM337.256 307.526C337.256 307.37 337.301 307.24 337.393 307.136C337.487 307.032 337.627 306.979 337.812 306.979C337.998 306.979 338.138 307.032 338.232 307.136C338.33 307.24 338.379 307.37 338.379 307.526C338.379 307.676 338.33 307.801 338.232 307.902C338.138 308.003 337.998 308.054 337.812 308.054C337.627 308.054 337.487 308.003 337.393 307.902C337.301 307.801 337.256 307.676 337.256 307.526ZM343.706 300.891L346.03 306.691L348.354 300.891H349.57V308H348.633V305.231L348.721 302.243L346.387 308H345.669L343.34 302.258L343.433 305.231V308H342.495V300.891H343.706ZM354.502 302.717H355.405V308H354.502V304.147L352.065 308H351.162V302.717H352.065V306.574L354.502 302.717ZM360.781 303.449H359.009V308H358.105V303.449H356.367V302.717H360.781V303.449ZM365.977 308H365.073V305.744H362.646V308H361.738V302.717H362.646V305.007H365.073V302.717H365.977V308ZM370.693 308C370.641 307.896 370.599 307.71 370.566 307.443C370.146 307.88 369.645 308.098 369.062 308.098C368.542 308.098 368.114 307.951 367.778 307.658C367.446 307.362 367.28 306.988 367.28 306.535C367.28 305.985 367.489 305.559 367.905 305.256C368.325 304.95 368.914 304.797 369.673 304.797H370.552V304.382C370.552 304.066 370.457 303.815 370.269 303.63C370.08 303.441 369.801 303.347 369.434 303.347C369.111 303.347 368.841 303.428 368.623 303.591C368.405 303.754 368.296 303.951 368.296 304.182H367.388C367.388 303.918 367.48 303.664 367.666 303.42C367.855 303.173 368.109 302.977 368.428 302.834C368.75 302.691 369.103 302.619 369.487 302.619C370.096 302.619 370.573 302.772 370.918 303.078C371.263 303.381 371.442 303.799 371.455 304.333V306.765C371.455 307.25 371.517 307.635 371.641 307.922V308H370.693ZM369.194 307.312C369.478 307.312 369.746 307.238 370 307.092C370.254 306.945 370.438 306.755 370.552 306.521V305.437H369.844C368.737 305.437 368.184 305.76 368.184 306.408C368.184 306.691 368.278 306.913 368.467 307.072C368.656 307.232 368.898 307.312 369.194 307.312Z" fill="black" fill-opacity="0.7"/>
    <path d="M217.767 315V309.717H219.827C220.53 309.717 221.069 309.84 221.443 310.088C221.821 310.332 222.01 310.692 222.01 311.167C222.01 311.411 221.937 311.632 221.79 311.831C221.644 312.026 221.427 312.176 221.141 312.28C221.46 312.355 221.715 312.502 221.907 312.72C222.103 312.938 222.2 313.198 222.2 313.501C222.2 313.986 222.021 314.357 221.663 314.614C221.308 314.871 220.805 315 220.154 315H217.767ZM218.67 312.681V314.272H220.164C220.542 314.272 220.823 314.202 221.009 314.062C221.198 313.923 221.292 313.726 221.292 313.472C221.292 312.944 220.905 312.681 220.13 312.681H218.67ZM218.67 311.958H219.837C220.683 311.958 221.106 311.711 221.106 311.216C221.106 310.721 220.706 310.465 219.905 310.449H218.67V311.958ZM225.066 313.677L226.297 309.717H227.264L225.14 315.815C224.811 316.694 224.288 317.134 223.572 317.134L223.401 317.119L223.064 317.056V316.323L223.309 316.343C223.615 316.343 223.852 316.281 224.021 316.157C224.194 316.034 224.336 315.807 224.446 315.479L224.646 314.941L222.762 309.717H223.748L225.066 313.677ZM232.2 309.717V315H231.292V310.464H229.495L229.388 312.441C229.329 313.35 229.176 313.999 228.929 314.39C228.685 314.78 228.296 314.984 227.762 315H227.4V314.204L227.659 314.185C227.952 314.152 228.162 313.983 228.289 313.677C228.416 313.371 228.497 312.804 228.533 311.978L228.631 309.717H232.2ZM233.67 314.526C233.67 314.37 233.715 314.24 233.807 314.136C233.901 314.032 234.041 313.979 234.227 313.979C234.412 313.979 234.552 314.032 234.646 314.136C234.744 314.24 234.793 314.37 234.793 314.526C234.793 314.676 234.744 314.801 234.646 314.902C234.552 315.003 234.412 315.054 234.227 315.054C234.041 315.054 233.901 315.003 233.807 314.902C233.715 314.801 233.67 314.676 233.67 314.526ZM239.886 307.891V314.233H242.332V307.891H243.265V314.233H245.696V307.891H246.634V315H238.943V307.891H239.886ZM249.91 313.677L251.141 309.717H252.107L249.983 315.815C249.655 316.694 249.132 317.134 248.416 317.134L248.245 317.119L247.908 317.056V316.323L248.152 316.343C248.458 316.343 248.696 316.281 248.865 316.157C249.038 316.034 249.179 315.807 249.29 315.479L249.49 314.941L247.605 309.717H248.592L249.91 313.677ZM254.69 311.646L255.862 309.717H256.917L255.188 312.329L256.971 315H255.926L254.705 313.022L253.484 315H252.435L254.217 312.329L252.488 309.717H253.533L254.69 311.646ZM259.974 315.098C259.257 315.098 258.675 314.863 258.226 314.395C257.776 313.923 257.552 313.293 257.552 312.505V312.339C257.552 311.815 257.651 311.348 257.85 310.938C258.051 310.524 258.331 310.202 258.689 309.971C259.051 309.736 259.441 309.619 259.861 309.619C260.548 309.619 261.082 309.845 261.463 310.298C261.844 310.75 262.034 311.398 262.034 312.241V312.617H258.455C258.468 313.138 258.619 313.56 258.909 313.882C259.202 314.201 259.573 314.36 260.022 314.36C260.341 314.36 260.612 314.295 260.833 314.165C261.054 314.035 261.248 313.862 261.414 313.647L261.966 314.077C261.523 314.757 260.859 315.098 259.974 315.098ZM259.861 310.361C259.497 310.361 259.191 310.495 258.943 310.762C258.696 311.025 258.543 311.396 258.484 311.875H261.131V311.807C261.105 311.348 260.981 310.993 260.76 310.742C260.538 310.488 260.239 310.361 259.861 310.361ZM263.167 315V309.717H265.228C265.931 309.717 266.469 309.84 266.844 310.088C267.221 310.332 267.41 310.692 267.41 311.167C267.41 311.411 267.337 311.632 267.19 311.831C267.044 312.026 266.827 312.176 266.541 312.28C266.86 312.355 267.116 312.502 267.308 312.72C267.503 312.938 267.601 313.198 267.601 313.501C267.601 313.986 267.422 314.357 267.063 314.614C266.709 314.871 266.206 315 265.555 315H263.167ZM264.07 312.681V314.272H265.564C265.942 314.272 266.224 314.202 266.409 314.062C266.598 313.923 266.692 313.726 266.692 313.472C266.692 312.944 266.305 312.681 265.53 312.681H264.07ZM264.07 311.958H265.237C266.084 311.958 266.507 311.711 266.507 311.216C266.507 310.721 266.106 310.465 265.306 310.449H264.07V311.958ZM272.215 309.717H273.118V315H272.215V311.147L269.778 315H268.875V309.717H269.778V313.574L272.215 309.717ZM278.558 315H277.649V313.086C277.252 313.19 276.845 313.242 276.429 313.242C275.768 313.242 275.263 313.073 274.915 312.734C274.57 312.396 274.394 311.914 274.388 311.289V309.712H275.291V311.318C275.307 312.106 275.687 312.5 276.429 312.5C276.845 312.5 277.252 312.448 277.649 312.344V309.717H278.558V315ZM283.27 315C283.217 314.896 283.175 314.71 283.143 314.443C282.723 314.88 282.221 315.098 281.639 315.098C281.118 315.098 280.69 314.951 280.354 314.658C280.022 314.362 279.856 313.988 279.856 313.535C279.856 312.985 280.065 312.559 280.481 312.256C280.901 311.95 281.491 311.797 282.249 311.797H283.128V311.382C283.128 311.066 283.034 310.815 282.845 310.63C282.656 310.441 282.378 310.347 282.01 310.347C281.688 310.347 281.417 310.428 281.199 310.591C280.981 310.754 280.872 310.951 280.872 311.182H279.964C279.964 310.918 280.057 310.664 280.242 310.42C280.431 310.173 280.685 309.977 281.004 309.834C281.326 309.691 281.679 309.619 282.063 309.619C282.672 309.619 283.149 309.772 283.494 310.078C283.839 310.381 284.018 310.799 284.031 311.333V313.765C284.031 314.25 284.093 314.635 284.217 314.922V315H283.27ZM281.771 314.312C282.054 314.312 282.322 314.238 282.576 314.092C282.83 313.945 283.014 313.755 283.128 313.521V312.437H282.42C281.313 312.437 280.76 312.76 280.76 313.408C280.76 313.691 280.854 313.913 281.043 314.072C281.232 314.232 281.474 314.312 281.771 314.312Z" fill="black" fill-opacity="0.7"/>
</svg>
