<svg width="344" height="196" viewBox="0 0 344 196" fill="none" style="background:white" xmlns="http://www.w3.org/2000/svg">
    <circle cx="171" cy="10" r="10" fill="#C4C4C4"/>
    <line x1="21.7183" y1="93.5869" x2="82.0987" y2="52.4199" stroke="#918D8D"/>
    <line x1="18.3155" y1="98.6121" x2="77.3155" y2="146.612" stroke="#918D8D"/>
    <line x1="325.303" y1="99.3977" x2="262.303" y2="147.398" stroke="#918D8D"/>
    <line x1="135.736" y1="185.425" x2="77.7363" y2="149.425" stroke="#918D8D"/>
    <line x1="161" y1="100" x2="28" y2="100" stroke="#2838CB" stroke-width="2"/>
    <line x1="315" y1="100" x2="179" y2="100" stroke="#2838CB" stroke-width="2"/>
    <line x1="262.187" y1="149.464" x2="210.187" y2="170.464" stroke="#918D8D"/>
    <line x1="207.924" y1="169.494" x2="77.924" y2="149.494" stroke="#918D8D"/>
    <line x1="208.108" y1="170.488" x2="136.108" y2="186.488" stroke="#918D8D"/>
    <line x1="262" y1="47.5" x2="88" y2="47.5" stroke="#918D8D"/>
    <line x1="96.3123" y1="43.1313" x2="161.712" y2="14.1376" stroke="#918D8D"/>
    <line x1="262.3" y1="53.5998" x2="315.699" y2="93.5998" stroke="#918D8D"/>
    <line x1="181.204" y1="14.5434" x2="246.204" y2="43.5434" stroke="#918D8D"/>
    <circle cx="18" cy="99" r="10" fill="#2838CB"/>
    <circle cx="88" cy="47" r="10" fill="#C4C4C4"/>
    <circle cx="256" cy="47" r="10" fill="#C4C4C4"/>
    <circle cx="77.6296" cy="148.63" r="10" transform="rotate(-3.7314 77.6296 148.63)" fill="#C4C4C4"/>
    <circle cx="208" cy="169" r="10" fill="#C4C4C4"/>
    <circle cx="262" cy="147" r="10" fill="#C4C4C4"/>
    <circle cx="325" cy="99" r="10" fill="#2838CB"/>
    <circle cx="171" cy="99" r="10" fill="#2838CB"/>
    <path d="M1.76367 110H0.0996094L1.20117 103.66H2.86523L1.76367 110ZM1.39453 102.049C1.38672 101.787 1.47266 101.57 1.65234 101.398C1.83203 101.227 2.04883 101.141 2.30273 101.141C2.55273 101.133 2.76953 101.209 2.95312 101.369C3.13672 101.529 3.23242 101.736 3.24023 101.99C3.24805 102.232 3.16602 102.443 2.99414 102.623C2.82617 102.803 2.60547 102.896 2.33203 102.904C2.08594 102.912 1.86914 102.838 1.68164 102.682C1.49805 102.525 1.40234 102.314 1.39453 102.049Z" fill="black"/>
    <path d="M342.871 103.66L341.734 110.346C341.645 111.053 341.389 111.604 340.967 111.998C340.549 112.393 340.008 112.586 339.344 112.578C339.078 112.57 338.785 112.533 338.465 112.467L338.6 111.119C338.795 111.162 338.965 111.188 339.109 111.195C339.629 111.203 339.945 110.922 340.059 110.352L341.207 103.66H342.871ZM341.365 102.049C341.357 101.791 341.439 101.578 341.611 101.41C341.783 101.238 342.004 101.148 342.273 101.141C342.543 101.141 342.764 101.221 342.936 101.381C343.111 101.541 343.203 101.744 343.211 101.99C343.219 102.252 343.137 102.469 342.965 102.641C342.793 102.809 342.572 102.896 342.303 102.904C342.057 102.912 341.84 102.838 341.652 102.682C341.469 102.525 341.373 102.314 341.365 102.049Z" fill="black"/>
    <path d="M120.525 116.771C120.596 116.158 120.783 115.598 121.088 115.09C121.393 114.578 121.771 114.189 122.225 113.924C122.682 113.658 123.176 113.531 123.707 113.543C124.23 113.551 124.676 113.695 125.043 113.977C125.414 114.254 125.684 114.635 125.852 115.119C126.023 115.6 126.082 116.133 126.027 116.719L126.016 116.83C125.898 117.83 125.543 118.633 124.949 119.238C124.359 119.844 123.65 120.137 122.822 120.117C122.111 120.105 121.543 119.844 121.117 119.332C120.691 118.82 120.482 118.145 120.49 117.305L120.508 116.971L120.525 116.771ZM121.205 116.971C121.154 117.436 121.188 117.865 121.305 118.26C121.426 118.65 121.617 118.957 121.879 119.18C122.141 119.402 122.467 119.52 122.857 119.531C123.279 119.539 123.664 119.432 124.012 119.209C124.363 118.986 124.652 118.672 124.879 118.266C125.105 117.859 125.252 117.41 125.318 116.918L125.336 116.725C125.406 115.971 125.289 115.355 124.984 114.879C124.684 114.398 124.246 114.152 123.672 114.141C123.047 114.121 122.506 114.363 122.049 114.867C121.596 115.367 121.318 116.033 121.217 116.865L121.205 116.971ZM131.682 120H130.979L131.98 114.264H128.682L127.686 120H126.988L128.09 113.66H132.783L131.682 120ZM138.965 114.258H136.732L135.73 120H135.033L136.029 114.258H133.873L133.979 113.66H139.076L138.965 114.258ZM144.25 113.66H144.971L143.869 120H143.166L144.068 114.85L139.891 120H139.176L140.277 113.66H140.969L140.072 118.816L144.25 113.66ZM149.289 119.033L152.658 113.66H153.537L152.43 120H151.732L152.629 114.873L149.406 120H148.908L147.42 114.674L146.494 120H145.797L146.898 113.66H147.789L149.289 119.033ZM158.236 120C158.217 119.852 158.211 119.703 158.219 119.555L158.271 119.115C157.979 119.432 157.643 119.68 157.264 119.859C156.889 120.039 156.482 120.125 156.045 120.117C155.51 120.109 155.074 119.941 154.738 119.613C154.406 119.281 154.258 118.865 154.293 118.365C154.324 117.947 154.467 117.586 154.721 117.281C154.979 116.973 155.344 116.734 155.816 116.566C156.289 116.395 156.818 116.309 157.404 116.309L158.699 116.314L158.805 115.588C158.852 115.154 158.758 114.807 158.523 114.545C158.289 114.283 157.943 114.145 157.486 114.129C157.025 114.121 156.623 114.236 156.279 114.475C155.939 114.709 155.727 115.02 155.641 115.406H154.955C155.033 114.852 155.318 114.4 155.811 114.053C156.303 113.701 156.885 113.529 157.557 113.537C158.209 113.553 158.711 113.75 159.062 114.129C159.418 114.508 159.562 115 159.496 115.605L158.969 118.793L158.922 119.303C158.91 119.514 158.926 119.723 158.969 119.93L158.957 120H158.236ZM156.162 119.502C156.592 119.518 157.002 119.416 157.393 119.197C157.787 118.975 158.113 118.66 158.371 118.254L158.611 116.854L157.492 116.848C156.781 116.848 156.201 116.975 155.752 117.229C155.303 117.479 155.055 117.838 155.008 118.307C154.973 118.65 155.062 118.934 155.277 119.156C155.496 119.379 155.791 119.494 156.162 119.502ZM166.434 113.66L165.332 120H164.629L165.631 114.264H163.129L162.625 116.631L162.49 117.334C162.307 118.268 162.033 118.949 161.67 119.379C161.307 119.809 160.836 120.016 160.258 120H159.971L160.047 119.385L160.275 119.379C160.689 119.359 161.025 119.172 161.283 118.816C161.541 118.457 161.736 117.877 161.869 117.076L161.975 116.461L162.561 113.66H166.434ZM168.66 115.963L170.295 115.975C170.877 115.979 171.354 116.129 171.725 116.426C172.17 116.785 172.369 117.285 172.322 117.926C172.271 118.551 172.012 119.053 171.543 119.432C171.074 119.811 170.479 120 169.756 120H167.271L168.373 113.66H169.064L168.66 115.963ZM168.561 116.561L168.062 119.408L169.785 119.42C170.289 119.412 170.709 119.275 171.045 119.01C171.381 118.74 171.574 118.381 171.625 117.932C171.672 117.525 171.576 117.201 171.338 116.959C171.1 116.713 170.771 116.582 170.354 116.566L168.561 116.561ZM178.229 120H177.525L178.035 117.094H174.736L174.232 120H173.535L174.637 113.66H175.334L174.836 116.502H178.135L178.633 113.66H179.33L178.229 120ZM185.207 113.66H185.928L184.826 120H184.123L185.025 114.85L180.848 120H180.133L181.234 113.66H181.926L181.029 118.816L185.207 113.66ZM191.805 113.66H192.525L191.424 120H190.721L191.623 114.85L187.445 120H186.73L187.832 113.66H188.523L187.627 118.816L191.805 113.66ZM192.174 111.369C192.119 111.846 191.928 112.221 191.6 112.494C191.271 112.768 190.871 112.896 190.398 112.881C189.938 112.873 189.568 112.732 189.291 112.459C189.014 112.182 188.887 111.818 188.91 111.369L189.502 111.375C189.482 111.684 189.549 111.928 189.701 112.107C189.857 112.283 190.094 112.375 190.41 112.383C190.742 112.387 191.01 112.299 191.213 112.119C191.416 111.939 191.547 111.693 191.605 111.381L192.174 111.369ZM198.021 113.66L197.025 119.408H199.738L200.74 113.66H201.438L200.441 119.408H203.131L204.133 113.66H204.83L203.729 120H196.223L197.324 113.66H198.021ZM211.316 113.66L210.215 120H209.512L210.514 114.264H208.012L207.508 116.631L207.373 117.334C207.189 118.268 206.916 118.949 206.553 119.379C206.189 119.809 205.719 120.016 205.141 120H204.854L204.93 119.385L205.158 119.379C205.572 119.359 205.908 119.172 206.166 118.816C206.424 118.457 206.619 117.877 206.752 117.076L206.857 116.461L207.443 113.66H211.316ZM217.68 113.66L216.578 120H215.881L216.326 117.445H214.457L212.506 120H211.697L213.736 117.34C213.373 117.203 213.104 116.98 212.928 116.672C212.752 116.359 212.68 116.002 212.711 115.6C212.754 115.01 213.006 114.539 213.467 114.188C213.928 113.832 214.508 113.654 215.207 113.654L217.68 113.66ZM213.408 115.611C213.369 115.979 213.449 116.271 213.648 116.49C213.848 116.709 214.123 116.826 214.475 116.842L216.426 116.848L216.877 114.258L215.184 114.252C214.707 114.252 214.303 114.375 213.971 114.621C213.639 114.867 213.451 115.197 213.408 115.611ZM221.031 116.221L223.088 113.66H223.955L221.354 116.807L223.012 120H222.238L220.914 117.328L218.746 120H217.891L220.598 116.736L219.01 113.66H219.783L221.031 116.221Z" fill="black"/>
    <circle cx="136" cy="186" r="10" fill="#C4C4C4"/>
</svg>
