<?xml version="1.0" encoding="utf-8"?>
<!-- Generator: Adobe Illustrator 23.0.1, SVG Export Plug-In . SVG Version: 6.00 Build 0)  -->
<svg version="1.1" id="Layer_1" xmlns="http://www.w3.org/2000/svg" xmlns:xlink="http://www.w3.org/1999/xlink" x="0px" y="0px"
	 viewBox="0 0 190.76 179.39" style="enable-background:new 0 0 190.76 179.39;" xml:space="preserve">
<style type="text/css">
	.st0{fill:#343333;}
</style>
<path class="st0" d="M187.82,36.03c-0.06-2.02-0.99-3.91-2.54-5.21c-1.55-1.3-3.57-1.87-5.57-1.58c-1.12,0.16-2.12,0.31-3.03,0.45
	c-5.35,0.81-6.96,1.05-12.6,0.8c-6.71-0.3-9.94-0.87-14.42-1.67c-4.06-0.72-9.11-1.61-18.08-2.49c-16.15-1.57-26.42-0.15-33.94,4.75
	c-4-5.34-8.66-10.1-13.94-14.16C77.45,12.1,72.08,9.58,64.63,6.1C52.16,0.26,45.11-0.88,40.9-1.23c-3.04-0.25-6.13-0.25-9.17,0
	c-3.67,0.31-6.5,3.38-6.5,7.06v29.14c-1.75-0.14-3.41-0.24-5.04-0.31c-4.93-0.21-9.91-0.21-14.83,0c-3.85,0.17-6.86,3.38-6.78,7.22
	l2.66,130.3c0.04,1.96,0.89,3.81,2.34,5.12c1.31,1.18,3,1.83,4.75,1.83c0.19,0,0.39-0.01,0.58-0.02c18.3-1.5,36.88-2.06,55.22-1.65
	c9.02,0.2,18.14,0.65,27.18,1.32c0.45,0.44,0.96,0.82,1.52,1.13c1.07,0.59,2.25,0.89,3.43,0.89c1.31,0,2.62-0.36,3.76-1.08
	l2.14-1.34c7.03-2.83,14.19-4.55,21.3-5.11c13.03-1.04,25.43,1.53,28.92,2.34l1.19,0.28c4.3,1.03,11.5,2.75,21.39,3.24
	c3.48,0.17,7,0.17,10.47,0c3.86-0.19,6.86-3.44,6.73-7.3L187.82,36.03z M175.67,164.97c-8.57-0.42-14.96-1.95-18.79-2.86l-1.27-0.3
	c-3.33-0.78-13.77-2.95-25.9-2.95c-2.4,0-4.87,0.09-7.36,0.28c-6.35,0.51-12.72,1.77-19,3.77V44.55c0.48-0.44,0.98-0.85,1.5-1.23
	c3.03-2.19,8.66-4.5,25.36-2.87c8.41,0.82,12.97,1.63,16.98,2.34c4.62,0.82,8.62,1.52,16.25,1.87c4.71,0.21,7.44,0.1,10.46-0.25
	l3.86,120.65C177.07,165.03,176.37,165,175.67,164.97z M64.45,163.29c-16.32-0.37-32.83,0.01-49.18,1.13L12.9,48.68
	c2.23,0,4.46,0.05,6.67,0.15c1.83,0.08,3.68,0.19,5.66,0.36v87.77c0,3.48,2.52,6.44,5.95,7c6.01,0.97,12.01,2.32,17.83,3.99
	c13.55,3.9,22.02,8.41,25.04,10.17c3.98,2.32,6.64,4.29,8.46,5.88C76.47,163.66,70.44,163.43,64.45,163.29z M39.4,36.78V12.87
	c0.11,0.01,0.21,0.02,0.32,0.03c1.8,0.15,7.29,0.61,18.91,6.04c7.11,3.33,11.4,5.33,16.43,9.21c5.57,4.29,10.31,9.53,14.11,15.58
	v4.72v7.36v95.37c-0.05-0.04-0.11-0.08-0.16-0.12c-2.11-1.6-4.68-3.33-7.83-5.17c-4.31-2.52-13.72-7.36-28.26-11.55
	c-4.43-1.28-8.96-2.38-13.53-3.29V51.16v-7.19V36.78z"/>
</svg>
